G04 #@! TF.GenerationSoftware,KiCad,Pcbnew,(5.1.10)-1*
G04 #@! TF.CreationDate,2021-06-01T12:57:43+02:00*
G04 #@! TF.ProjectId,bobbycar,626f6262-7963-4617-922e-6b696361645f,rev?*
G04 #@! TF.SameCoordinates,Original*
G04 #@! TF.FileFunction,Soldermask,Top*
G04 #@! TF.FilePolarity,Negative*
%FSLAX46Y46*%
G04 Gerber Fmt 4.6, Leading zero omitted, Abs format (unit mm)*
G04 Created by KiCad (PCBNEW (5.1.10)-1) date 2021-06-01 12:57:43*
%MOMM*%
%LPD*%
G01*
G04 APERTURE LIST*
%ADD10O,1.700000X1.700000*%
%ADD11R,1.700000X1.700000*%
%ADD12R,1.800000X2.500000*%
%ADD13R,2.000000X0.900000*%
%ADD14R,0.900000X2.000000*%
%ADD15R,5.000000X5.000000*%
%ADD16R,1.060000X0.650000*%
%ADD17R,1.800000X4.200000*%
%ADD18R,2.500000X1.800000*%
%ADD19R,0.900000X0.800000*%
%ADD20R,0.450000X0.600000*%
%ADD21O,0.800000X1.300000*%
%ADD22R,0.800000X0.900000*%
G04 APERTURE END LIST*
D10*
X103632000Y-48260000D03*
X103632000Y-45720000D03*
X103632000Y-43180000D03*
D11*
X103632000Y-40640000D03*
D12*
X121900000Y-71100000D03*
X121900000Y-67100000D03*
D13*
X124500000Y-35745000D03*
X124500000Y-37015000D03*
X124500000Y-38285000D03*
X124500000Y-39555000D03*
X124500000Y-40825000D03*
X124500000Y-42095000D03*
X124500000Y-43365000D03*
X124500000Y-44635000D03*
X124500000Y-45905000D03*
X124500000Y-47175000D03*
X124500000Y-48445000D03*
X124500000Y-49715000D03*
X124500000Y-50985000D03*
X124500000Y-52255000D03*
D14*
X121715000Y-53255000D03*
X120445000Y-53255000D03*
X119175000Y-53255000D03*
X117905000Y-53255000D03*
X116635000Y-53255000D03*
X115365000Y-53255000D03*
X114095000Y-53255000D03*
X112825000Y-53255000D03*
X111555000Y-53255000D03*
X110285000Y-53255000D03*
D13*
X107500000Y-52255000D03*
X107500000Y-50985000D03*
X107500000Y-49715000D03*
X107500000Y-48445000D03*
X107500000Y-47175000D03*
X107500000Y-45905000D03*
X107500000Y-44635000D03*
X107500000Y-43365000D03*
X107500000Y-42095000D03*
X107500000Y-40825000D03*
X107500000Y-39555000D03*
X107500000Y-38285000D03*
X107500000Y-37015000D03*
X107500000Y-35745000D03*
D15*
X115000000Y-43245000D03*
D16*
X129900000Y-68500000D03*
X129900000Y-67550000D03*
X129900000Y-69450000D03*
X127700000Y-69450000D03*
X127700000Y-68500000D03*
X127700000Y-67550000D03*
G36*
G01*
X125825000Y-70125000D02*
X126375000Y-70125000D01*
G75*
G02*
X126575000Y-70325000I0J-200000D01*
G01*
X126575000Y-70725000D01*
G75*
G02*
X126375000Y-70925000I-200000J0D01*
G01*
X125825000Y-70925000D01*
G75*
G02*
X125625000Y-70725000I0J200000D01*
G01*
X125625000Y-70325000D01*
G75*
G02*
X125825000Y-70125000I200000J0D01*
G01*
G37*
G36*
G01*
X125825000Y-68475000D02*
X126375000Y-68475000D01*
G75*
G02*
X126575000Y-68675000I0J-200000D01*
G01*
X126575000Y-69075000D01*
G75*
G02*
X126375000Y-69275000I-200000J0D01*
G01*
X125825000Y-69275000D01*
G75*
G02*
X125625000Y-69075000I0J200000D01*
G01*
X125625000Y-68675000D01*
G75*
G02*
X125825000Y-68475000I200000J0D01*
G01*
G37*
G36*
G01*
X128825000Y-71375000D02*
X128825000Y-70825000D01*
G75*
G02*
X129025000Y-70625000I200000J0D01*
G01*
X129425000Y-70625000D01*
G75*
G02*
X129625000Y-70825000I0J-200000D01*
G01*
X129625000Y-71375000D01*
G75*
G02*
X129425000Y-71575000I-200000J0D01*
G01*
X129025000Y-71575000D01*
G75*
G02*
X128825000Y-71375000I0J200000D01*
G01*
G37*
G36*
G01*
X127175000Y-71375000D02*
X127175000Y-70825000D01*
G75*
G02*
X127375000Y-70625000I200000J0D01*
G01*
X127775000Y-70625000D01*
G75*
G02*
X127975000Y-70825000I0J-200000D01*
G01*
X127975000Y-71375000D01*
G75*
G02*
X127775000Y-71575000I-200000J0D01*
G01*
X127375000Y-71575000D01*
G75*
G02*
X127175000Y-71375000I0J200000D01*
G01*
G37*
G36*
G01*
X131775000Y-69575000D02*
X131225000Y-69575000D01*
G75*
G02*
X131025000Y-69375000I0J200000D01*
G01*
X131025000Y-68975000D01*
G75*
G02*
X131225000Y-68775000I200000J0D01*
G01*
X131775000Y-68775000D01*
G75*
G02*
X131975000Y-68975000I0J-200000D01*
G01*
X131975000Y-69375000D01*
G75*
G02*
X131775000Y-69575000I-200000J0D01*
G01*
G37*
G36*
G01*
X131775000Y-71225000D02*
X131225000Y-71225000D01*
G75*
G02*
X131025000Y-71025000I0J200000D01*
G01*
X131025000Y-70625000D01*
G75*
G02*
X131225000Y-70425000I200000J0D01*
G01*
X131775000Y-70425000D01*
G75*
G02*
X131975000Y-70625000I0J-200000D01*
G01*
X131975000Y-71025000D01*
G75*
G02*
X131775000Y-71225000I-200000J0D01*
G01*
G37*
D17*
X135100000Y-65800000D03*
X131900000Y-65800000D03*
D18*
X125200000Y-64900000D03*
X129200000Y-64900000D03*
G36*
G01*
X135775000Y-69750000D02*
X134825000Y-69750000D01*
G75*
G02*
X134575000Y-69500000I0J250000D01*
G01*
X134575000Y-69000000D01*
G75*
G02*
X134825000Y-68750000I250000J0D01*
G01*
X135775000Y-68750000D01*
G75*
G02*
X136025000Y-69000000I0J-250000D01*
G01*
X136025000Y-69500000D01*
G75*
G02*
X135775000Y-69750000I-250000J0D01*
G01*
G37*
G36*
G01*
X135775000Y-71650000D02*
X134825000Y-71650000D01*
G75*
G02*
X134575000Y-71400000I0J250000D01*
G01*
X134575000Y-70900000D01*
G75*
G02*
X134825000Y-70650000I250000J0D01*
G01*
X135775000Y-70650000D01*
G75*
G02*
X136025000Y-70900000I0J-250000D01*
G01*
X136025000Y-71400000D01*
G75*
G02*
X135775000Y-71650000I-250000J0D01*
G01*
G37*
G36*
G01*
X125700000Y-67650000D02*
X125700000Y-67150000D01*
G75*
G02*
X125925000Y-66925000I225000J0D01*
G01*
X126375000Y-66925000D01*
G75*
G02*
X126600000Y-67150000I0J-225000D01*
G01*
X126600000Y-67650000D01*
G75*
G02*
X126375000Y-67875000I-225000J0D01*
G01*
X125925000Y-67875000D01*
G75*
G02*
X125700000Y-67650000I0J225000D01*
G01*
G37*
G36*
G01*
X124150000Y-67650000D02*
X124150000Y-67150000D01*
G75*
G02*
X124375000Y-66925000I225000J0D01*
G01*
X124825000Y-66925000D01*
G75*
G02*
X125050000Y-67150000I0J-225000D01*
G01*
X125050000Y-67650000D01*
G75*
G02*
X124825000Y-67875000I-225000J0D01*
G01*
X124375000Y-67875000D01*
G75*
G02*
X124150000Y-67650000I0J225000D01*
G01*
G37*
G36*
G01*
X133775000Y-69750000D02*
X132825000Y-69750000D01*
G75*
G02*
X132575000Y-69500000I0J250000D01*
G01*
X132575000Y-69000000D01*
G75*
G02*
X132825000Y-68750000I250000J0D01*
G01*
X133775000Y-68750000D01*
G75*
G02*
X134025000Y-69000000I0J-250000D01*
G01*
X134025000Y-69500000D01*
G75*
G02*
X133775000Y-69750000I-250000J0D01*
G01*
G37*
G36*
G01*
X133775000Y-71650000D02*
X132825000Y-71650000D01*
G75*
G02*
X132575000Y-71400000I0J250000D01*
G01*
X132575000Y-70900000D01*
G75*
G02*
X132825000Y-70650000I250000J0D01*
G01*
X133775000Y-70650000D01*
G75*
G02*
X134025000Y-70900000I0J-250000D01*
G01*
X134025000Y-71400000D01*
G75*
G02*
X133775000Y-71650000I-250000J0D01*
G01*
G37*
D16*
X113700000Y-65700000D03*
X113700000Y-64750000D03*
X113700000Y-66650000D03*
X111500000Y-66650000D03*
X111500000Y-65700000D03*
X111500000Y-64750000D03*
D17*
X118900000Y-62900000D03*
X115700000Y-62900000D03*
D18*
X109000000Y-62000000D03*
X113000000Y-62000000D03*
G36*
G01*
X109525000Y-64850000D02*
X109525000Y-64350000D01*
G75*
G02*
X109750000Y-64125000I225000J0D01*
G01*
X110200000Y-64125000D01*
G75*
G02*
X110425000Y-64350000I0J-225000D01*
G01*
X110425000Y-64850000D01*
G75*
G02*
X110200000Y-65075000I-225000J0D01*
G01*
X109750000Y-65075000D01*
G75*
G02*
X109525000Y-64850000I0J225000D01*
G01*
G37*
G36*
G01*
X107975000Y-64850000D02*
X107975000Y-64350000D01*
G75*
G02*
X108200000Y-64125000I225000J0D01*
G01*
X108650000Y-64125000D01*
G75*
G02*
X108875000Y-64350000I0J-225000D01*
G01*
X108875000Y-64850000D01*
G75*
G02*
X108650000Y-65075000I-225000J0D01*
G01*
X108200000Y-65075000D01*
G75*
G02*
X107975000Y-64850000I0J225000D01*
G01*
G37*
G36*
G01*
X117575000Y-66850000D02*
X116625000Y-66850000D01*
G75*
G02*
X116375000Y-66600000I0J250000D01*
G01*
X116375000Y-66100000D01*
G75*
G02*
X116625000Y-65850000I250000J0D01*
G01*
X117575000Y-65850000D01*
G75*
G02*
X117825000Y-66100000I0J-250000D01*
G01*
X117825000Y-66600000D01*
G75*
G02*
X117575000Y-66850000I-250000J0D01*
G01*
G37*
G36*
G01*
X117575000Y-68750000D02*
X116625000Y-68750000D01*
G75*
G02*
X116375000Y-68500000I0J250000D01*
G01*
X116375000Y-68000000D01*
G75*
G02*
X116625000Y-67750000I250000J0D01*
G01*
X117575000Y-67750000D01*
G75*
G02*
X117825000Y-68000000I0J-250000D01*
G01*
X117825000Y-68500000D01*
G75*
G02*
X117575000Y-68750000I-250000J0D01*
G01*
G37*
G36*
G01*
X127275000Y-60075000D02*
X126725000Y-60075000D01*
G75*
G02*
X126525000Y-59875000I0J200000D01*
G01*
X126525000Y-59475000D01*
G75*
G02*
X126725000Y-59275000I200000J0D01*
G01*
X127275000Y-59275000D01*
G75*
G02*
X127475000Y-59475000I0J-200000D01*
G01*
X127475000Y-59875000D01*
G75*
G02*
X127275000Y-60075000I-200000J0D01*
G01*
G37*
G36*
G01*
X127275000Y-61725000D02*
X126725000Y-61725000D01*
G75*
G02*
X126525000Y-61525000I0J200000D01*
G01*
X126525000Y-61125000D01*
G75*
G02*
X126725000Y-60925000I200000J0D01*
G01*
X127275000Y-60925000D01*
G75*
G02*
X127475000Y-61125000I0J-200000D01*
G01*
X127475000Y-61525000D01*
G75*
G02*
X127275000Y-61725000I-200000J0D01*
G01*
G37*
D19*
X123500000Y-60500000D03*
X125500000Y-59550000D03*
X125500000Y-61450000D03*
G36*
G01*
X134355000Y-51300000D02*
X134655000Y-51300000D01*
G75*
G02*
X134805000Y-51450000I0J-150000D01*
G01*
X134805000Y-53100000D01*
G75*
G02*
X134655000Y-53250000I-150000J0D01*
G01*
X134355000Y-53250000D01*
G75*
G02*
X134205000Y-53100000I0J150000D01*
G01*
X134205000Y-51450000D01*
G75*
G02*
X134355000Y-51300000I150000J0D01*
G01*
G37*
G36*
G01*
X133085000Y-51300000D02*
X133385000Y-51300000D01*
G75*
G02*
X133535000Y-51450000I0J-150000D01*
G01*
X133535000Y-53100000D01*
G75*
G02*
X133385000Y-53250000I-150000J0D01*
G01*
X133085000Y-53250000D01*
G75*
G02*
X132935000Y-53100000I0J150000D01*
G01*
X132935000Y-51450000D01*
G75*
G02*
X133085000Y-51300000I150000J0D01*
G01*
G37*
G36*
G01*
X131815000Y-51300000D02*
X132115000Y-51300000D01*
G75*
G02*
X132265000Y-51450000I0J-150000D01*
G01*
X132265000Y-53100000D01*
G75*
G02*
X132115000Y-53250000I-150000J0D01*
G01*
X131815000Y-53250000D01*
G75*
G02*
X131665000Y-53100000I0J150000D01*
G01*
X131665000Y-51450000D01*
G75*
G02*
X131815000Y-51300000I150000J0D01*
G01*
G37*
G36*
G01*
X130545000Y-51300000D02*
X130845000Y-51300000D01*
G75*
G02*
X130995000Y-51450000I0J-150000D01*
G01*
X130995000Y-53100000D01*
G75*
G02*
X130845000Y-53250000I-150000J0D01*
G01*
X130545000Y-53250000D01*
G75*
G02*
X130395000Y-53100000I0J150000D01*
G01*
X130395000Y-51450000D01*
G75*
G02*
X130545000Y-51300000I150000J0D01*
G01*
G37*
G36*
G01*
X130545000Y-46350000D02*
X130845000Y-46350000D01*
G75*
G02*
X130995000Y-46500000I0J-150000D01*
G01*
X130995000Y-48150000D01*
G75*
G02*
X130845000Y-48300000I-150000J0D01*
G01*
X130545000Y-48300000D01*
G75*
G02*
X130395000Y-48150000I0J150000D01*
G01*
X130395000Y-46500000D01*
G75*
G02*
X130545000Y-46350000I150000J0D01*
G01*
G37*
G36*
G01*
X131815000Y-46350000D02*
X132115000Y-46350000D01*
G75*
G02*
X132265000Y-46500000I0J-150000D01*
G01*
X132265000Y-48150000D01*
G75*
G02*
X132115000Y-48300000I-150000J0D01*
G01*
X131815000Y-48300000D01*
G75*
G02*
X131665000Y-48150000I0J150000D01*
G01*
X131665000Y-46500000D01*
G75*
G02*
X131815000Y-46350000I150000J0D01*
G01*
G37*
G36*
G01*
X133085000Y-46350000D02*
X133385000Y-46350000D01*
G75*
G02*
X133535000Y-46500000I0J-150000D01*
G01*
X133535000Y-48150000D01*
G75*
G02*
X133385000Y-48300000I-150000J0D01*
G01*
X133085000Y-48300000D01*
G75*
G02*
X132935000Y-48150000I0J150000D01*
G01*
X132935000Y-46500000D01*
G75*
G02*
X133085000Y-46350000I150000J0D01*
G01*
G37*
G36*
G01*
X134355000Y-46350000D02*
X134655000Y-46350000D01*
G75*
G02*
X134805000Y-46500000I0J-150000D01*
G01*
X134805000Y-48150000D01*
G75*
G02*
X134655000Y-48300000I-150000J0D01*
G01*
X134355000Y-48300000D01*
G75*
G02*
X134205000Y-48150000I0J150000D01*
G01*
X134205000Y-46500000D01*
G75*
G02*
X134355000Y-46350000I150000J0D01*
G01*
G37*
G36*
G01*
X134800000Y-45000000D02*
X134800000Y-44500000D01*
G75*
G02*
X135025000Y-44275000I225000J0D01*
G01*
X135475000Y-44275000D01*
G75*
G02*
X135700000Y-44500000I0J-225000D01*
G01*
X135700000Y-45000000D01*
G75*
G02*
X135475000Y-45225000I-225000J0D01*
G01*
X135025000Y-45225000D01*
G75*
G02*
X134800000Y-45000000I0J225000D01*
G01*
G37*
G36*
G01*
X133250000Y-45000000D02*
X133250000Y-44500000D01*
G75*
G02*
X133475000Y-44275000I225000J0D01*
G01*
X133925000Y-44275000D01*
G75*
G02*
X134150000Y-44500000I0J-225000D01*
G01*
X134150000Y-45000000D01*
G75*
G02*
X133925000Y-45225000I-225000J0D01*
G01*
X133475000Y-45225000D01*
G75*
G02*
X133250000Y-45000000I0J225000D01*
G01*
G37*
G36*
G01*
X103121750Y-36926000D02*
X103634250Y-36926000D01*
G75*
G02*
X103853000Y-37144750I0J-218750D01*
G01*
X103853000Y-37582250D01*
G75*
G02*
X103634250Y-37801000I-218750J0D01*
G01*
X103121750Y-37801000D01*
G75*
G02*
X102903000Y-37582250I0J218750D01*
G01*
X102903000Y-37144750D01*
G75*
G02*
X103121750Y-36926000I218750J0D01*
G01*
G37*
G36*
G01*
X103121750Y-35351000D02*
X103634250Y-35351000D01*
G75*
G02*
X103853000Y-35569750I0J-218750D01*
G01*
X103853000Y-36007250D01*
G75*
G02*
X103634250Y-36226000I-218750J0D01*
G01*
X103121750Y-36226000D01*
G75*
G02*
X102903000Y-36007250I0J218750D01*
G01*
X102903000Y-35569750D01*
G75*
G02*
X103121750Y-35351000I218750J0D01*
G01*
G37*
G36*
G01*
X131743000Y-44979000D02*
X131743000Y-44429000D01*
G75*
G02*
X131943000Y-44229000I200000J0D01*
G01*
X132343000Y-44229000D01*
G75*
G02*
X132543000Y-44429000I0J-200000D01*
G01*
X132543000Y-44979000D01*
G75*
G02*
X132343000Y-45179000I-200000J0D01*
G01*
X131943000Y-45179000D01*
G75*
G02*
X131743000Y-44979000I0J200000D01*
G01*
G37*
G36*
G01*
X130093000Y-44979000D02*
X130093000Y-44429000D01*
G75*
G02*
X130293000Y-44229000I200000J0D01*
G01*
X130693000Y-44229000D01*
G75*
G02*
X130893000Y-44429000I0J-200000D01*
G01*
X130893000Y-44979000D01*
G75*
G02*
X130693000Y-45179000I-200000J0D01*
G01*
X130293000Y-45179000D01*
G75*
G02*
X130093000Y-44979000I0J200000D01*
G01*
G37*
G36*
G01*
X131743000Y-43455000D02*
X131743000Y-42905000D01*
G75*
G02*
X131943000Y-42705000I200000J0D01*
G01*
X132343000Y-42705000D01*
G75*
G02*
X132543000Y-42905000I0J-200000D01*
G01*
X132543000Y-43455000D01*
G75*
G02*
X132343000Y-43655000I-200000J0D01*
G01*
X131943000Y-43655000D01*
G75*
G02*
X131743000Y-43455000I0J200000D01*
G01*
G37*
G36*
G01*
X130093000Y-43455000D02*
X130093000Y-42905000D01*
G75*
G02*
X130293000Y-42705000I200000J0D01*
G01*
X130693000Y-42705000D01*
G75*
G02*
X130893000Y-42905000I0J-200000D01*
G01*
X130893000Y-43455000D01*
G75*
G02*
X130693000Y-43655000I-200000J0D01*
G01*
X130293000Y-43655000D01*
G75*
G02*
X130093000Y-43455000I0J200000D01*
G01*
G37*
G36*
G01*
X101113000Y-65107000D02*
X100563000Y-65107000D01*
G75*
G02*
X100363000Y-64907000I0J200000D01*
G01*
X100363000Y-64507000D01*
G75*
G02*
X100563000Y-64307000I200000J0D01*
G01*
X101113000Y-64307000D01*
G75*
G02*
X101313000Y-64507000I0J-200000D01*
G01*
X101313000Y-64907000D01*
G75*
G02*
X101113000Y-65107000I-200000J0D01*
G01*
G37*
G36*
G01*
X101113000Y-66757000D02*
X100563000Y-66757000D01*
G75*
G02*
X100363000Y-66557000I0J200000D01*
G01*
X100363000Y-66157000D01*
G75*
G02*
X100563000Y-65957000I200000J0D01*
G01*
X101113000Y-65957000D01*
G75*
G02*
X101313000Y-66157000I0J-200000D01*
G01*
X101313000Y-66557000D01*
G75*
G02*
X101113000Y-66757000I-200000J0D01*
G01*
G37*
G36*
G01*
X100563000Y-69005000D02*
X101113000Y-69005000D01*
G75*
G02*
X101313000Y-69205000I0J-200000D01*
G01*
X101313000Y-69605000D01*
G75*
G02*
X101113000Y-69805000I-200000J0D01*
G01*
X100563000Y-69805000D01*
G75*
G02*
X100363000Y-69605000I0J200000D01*
G01*
X100363000Y-69205000D01*
G75*
G02*
X100563000Y-69005000I200000J0D01*
G01*
G37*
G36*
G01*
X100563000Y-67355000D02*
X101113000Y-67355000D01*
G75*
G02*
X101313000Y-67555000I0J-200000D01*
G01*
X101313000Y-67955000D01*
G75*
G02*
X101113000Y-68155000I-200000J0D01*
G01*
X100563000Y-68155000D01*
G75*
G02*
X100363000Y-67955000I0J200000D01*
G01*
X100363000Y-67555000D01*
G75*
G02*
X100563000Y-67355000I200000J0D01*
G01*
G37*
D20*
X96012000Y-64228000D03*
X96012000Y-66328000D03*
X96012000Y-69884000D03*
X96012000Y-67784000D03*
D21*
X134560000Y-59690000D03*
X133310000Y-59690000D03*
X132060000Y-59690000D03*
G36*
G01*
X130410000Y-60140000D02*
X130410000Y-59240000D01*
G75*
G02*
X130610000Y-59040000I200000J0D01*
G01*
X131010000Y-59040000D01*
G75*
G02*
X131210000Y-59240000I0J-200000D01*
G01*
X131210000Y-60140000D01*
G75*
G02*
X131010000Y-60340000I-200000J0D01*
G01*
X130610000Y-60340000D01*
G75*
G02*
X130410000Y-60140000I0J200000D01*
G01*
G37*
D10*
X126320000Y-57000000D03*
X123780000Y-57000000D03*
X121240000Y-57000000D03*
X118700000Y-57000000D03*
X116160000Y-57000000D03*
X113620000Y-57000000D03*
X111080000Y-57000000D03*
X108540000Y-57000000D03*
D11*
X106000000Y-57000000D03*
D22*
X131826000Y-56372000D03*
X130876000Y-54372000D03*
X132776000Y-54372000D03*
D10*
X97282000Y-46990000D03*
X97282000Y-44450000D03*
X97282000Y-41910000D03*
X97282000Y-39370000D03*
D11*
X97282000Y-36830000D03*
G36*
G01*
X129626000Y-36590999D02*
X129626000Y-37891001D01*
G75*
G02*
X129376001Y-38141000I-249999J0D01*
G01*
X128675999Y-38141000D01*
G75*
G02*
X128426000Y-37891001I0J249999D01*
G01*
X128426000Y-36590999D01*
G75*
G02*
X128675999Y-36341000I249999J0D01*
G01*
X129376001Y-36341000D01*
G75*
G02*
X129626000Y-36590999I0J-249999D01*
G01*
G37*
G36*
G01*
X135226000Y-36590999D02*
X135226000Y-37891001D01*
G75*
G02*
X134976001Y-38141000I-249999J0D01*
G01*
X134275999Y-38141000D01*
G75*
G02*
X134026000Y-37891001I0J249999D01*
G01*
X134026000Y-36590999D01*
G75*
G02*
X134275999Y-36341000I249999J0D01*
G01*
X134976001Y-36341000D01*
G75*
G02*
X135226000Y-36590999I0J-249999D01*
G01*
G37*
G36*
G01*
X130626000Y-40491000D02*
X130626000Y-41741000D01*
G75*
G02*
X130476000Y-41891000I-150000J0D01*
G01*
X130176000Y-41891000D01*
G75*
G02*
X130026000Y-41741000I0J150000D01*
G01*
X130026000Y-40491000D01*
G75*
G02*
X130176000Y-40341000I150000J0D01*
G01*
X130476000Y-40341000D01*
G75*
G02*
X130626000Y-40491000I0J-150000D01*
G01*
G37*
G36*
G01*
X131626000Y-40491000D02*
X131626000Y-41741000D01*
G75*
G02*
X131476000Y-41891000I-150000J0D01*
G01*
X131176000Y-41891000D01*
G75*
G02*
X131026000Y-41741000I0J150000D01*
G01*
X131026000Y-40491000D01*
G75*
G02*
X131176000Y-40341000I150000J0D01*
G01*
X131476000Y-40341000D01*
G75*
G02*
X131626000Y-40491000I0J-150000D01*
G01*
G37*
G36*
G01*
X132626000Y-40491000D02*
X132626000Y-41741000D01*
G75*
G02*
X132476000Y-41891000I-150000J0D01*
G01*
X132176000Y-41891000D01*
G75*
G02*
X132026000Y-41741000I0J150000D01*
G01*
X132026000Y-40491000D01*
G75*
G02*
X132176000Y-40341000I150000J0D01*
G01*
X132476000Y-40341000D01*
G75*
G02*
X132626000Y-40491000I0J-150000D01*
G01*
G37*
G36*
G01*
X133626000Y-40491000D02*
X133626000Y-41741000D01*
G75*
G02*
X133476000Y-41891000I-150000J0D01*
G01*
X133176000Y-41891000D01*
G75*
G02*
X133026000Y-41741000I0J150000D01*
G01*
X133026000Y-40491000D01*
G75*
G02*
X133176000Y-40341000I150000J0D01*
G01*
X133476000Y-40341000D01*
G75*
G02*
X133626000Y-40491000I0J-150000D01*
G01*
G37*
G36*
G01*
X129282000Y-50729000D02*
X128782000Y-50729000D01*
G75*
G02*
X128557000Y-50504000I0J225000D01*
G01*
X128557000Y-50054000D01*
G75*
G02*
X128782000Y-49829000I225000J0D01*
G01*
X129282000Y-49829000D01*
G75*
G02*
X129507000Y-50054000I0J-225000D01*
G01*
X129507000Y-50504000D01*
G75*
G02*
X129282000Y-50729000I-225000J0D01*
G01*
G37*
G36*
G01*
X129282000Y-52279000D02*
X128782000Y-52279000D01*
G75*
G02*
X128557000Y-52054000I0J225000D01*
G01*
X128557000Y-51604000D01*
G75*
G02*
X128782000Y-51379000I225000J0D01*
G01*
X129282000Y-51379000D01*
G75*
G02*
X129507000Y-51604000I0J-225000D01*
G01*
X129507000Y-52054000D01*
G75*
G02*
X129282000Y-52279000I-225000J0D01*
G01*
G37*
G36*
G01*
X109625000Y-67325000D02*
X110175000Y-67325000D01*
G75*
G02*
X110375000Y-67525000I0J-200000D01*
G01*
X110375000Y-67925000D01*
G75*
G02*
X110175000Y-68125000I-200000J0D01*
G01*
X109625000Y-68125000D01*
G75*
G02*
X109425000Y-67925000I0J200000D01*
G01*
X109425000Y-67525000D01*
G75*
G02*
X109625000Y-67325000I200000J0D01*
G01*
G37*
G36*
G01*
X109625000Y-65675000D02*
X110175000Y-65675000D01*
G75*
G02*
X110375000Y-65875000I0J-200000D01*
G01*
X110375000Y-66275000D01*
G75*
G02*
X110175000Y-66475000I-200000J0D01*
G01*
X109625000Y-66475000D01*
G75*
G02*
X109425000Y-66275000I0J200000D01*
G01*
X109425000Y-65875000D01*
G75*
G02*
X109625000Y-65675000I200000J0D01*
G01*
G37*
G36*
G01*
X135640000Y-55697000D02*
X136140000Y-55697000D01*
G75*
G02*
X136365000Y-55922000I0J-225000D01*
G01*
X136365000Y-56372000D01*
G75*
G02*
X136140000Y-56597000I-225000J0D01*
G01*
X135640000Y-56597000D01*
G75*
G02*
X135415000Y-56372000I0J225000D01*
G01*
X135415000Y-55922000D01*
G75*
G02*
X135640000Y-55697000I225000J0D01*
G01*
G37*
G36*
G01*
X135640000Y-54147000D02*
X136140000Y-54147000D01*
G75*
G02*
X136365000Y-54372000I0J-225000D01*
G01*
X136365000Y-54822000D01*
G75*
G02*
X136140000Y-55047000I-225000J0D01*
G01*
X135640000Y-55047000D01*
G75*
G02*
X135415000Y-54822000I0J225000D01*
G01*
X135415000Y-54372000D01*
G75*
G02*
X135640000Y-54147000I225000J0D01*
G01*
G37*
G36*
G01*
X115575000Y-66675000D02*
X115025000Y-66675000D01*
G75*
G02*
X114825000Y-66475000I0J200000D01*
G01*
X114825000Y-66075000D01*
G75*
G02*
X115025000Y-65875000I200000J0D01*
G01*
X115575000Y-65875000D01*
G75*
G02*
X115775000Y-66075000I0J-200000D01*
G01*
X115775000Y-66475000D01*
G75*
G02*
X115575000Y-66675000I-200000J0D01*
G01*
G37*
G36*
G01*
X115575000Y-68325000D02*
X115025000Y-68325000D01*
G75*
G02*
X114825000Y-68125000I0J200000D01*
G01*
X114825000Y-67725000D01*
G75*
G02*
X115025000Y-67525000I200000J0D01*
G01*
X115575000Y-67525000D01*
G75*
G02*
X115775000Y-67725000I0J-200000D01*
G01*
X115775000Y-68125000D01*
G75*
G02*
X115575000Y-68325000I-200000J0D01*
G01*
G37*
D10*
X118320000Y-71000000D03*
X115780000Y-71000000D03*
X113240000Y-71000000D03*
D11*
X110700000Y-71000000D03*
G36*
G01*
X119575000Y-66850000D02*
X118625000Y-66850000D01*
G75*
G02*
X118375000Y-66600000I0J250000D01*
G01*
X118375000Y-66100000D01*
G75*
G02*
X118625000Y-65850000I250000J0D01*
G01*
X119575000Y-65850000D01*
G75*
G02*
X119825000Y-66100000I0J-250000D01*
G01*
X119825000Y-66600000D01*
G75*
G02*
X119575000Y-66850000I-250000J0D01*
G01*
G37*
G36*
G01*
X119575000Y-68750000D02*
X118625000Y-68750000D01*
G75*
G02*
X118375000Y-68500000I0J250000D01*
G01*
X118375000Y-68000000D01*
G75*
G02*
X118625000Y-67750000I250000J0D01*
G01*
X119575000Y-67750000D01*
G75*
G02*
X119825000Y-68000000I0J-250000D01*
G01*
X119825000Y-68500000D01*
G75*
G02*
X119575000Y-68750000I-250000J0D01*
G01*
G37*
G36*
G01*
X112625000Y-68575000D02*
X112625000Y-68025000D01*
G75*
G02*
X112825000Y-67825000I200000J0D01*
G01*
X113225000Y-67825000D01*
G75*
G02*
X113425000Y-68025000I0J-200000D01*
G01*
X113425000Y-68575000D01*
G75*
G02*
X113225000Y-68775000I-200000J0D01*
G01*
X112825000Y-68775000D01*
G75*
G02*
X112625000Y-68575000I0J200000D01*
G01*
G37*
G36*
G01*
X110975000Y-68575000D02*
X110975000Y-68025000D01*
G75*
G02*
X111175000Y-67825000I200000J0D01*
G01*
X111575000Y-67825000D01*
G75*
G02*
X111775000Y-68025000I0J-200000D01*
G01*
X111775000Y-68575000D01*
G75*
G02*
X111575000Y-68775000I-200000J0D01*
G01*
X111175000Y-68775000D01*
G75*
G02*
X110975000Y-68575000I0J200000D01*
G01*
G37*
G36*
G01*
X134641000Y-54947000D02*
X134091000Y-54947000D01*
G75*
G02*
X133891000Y-54747000I0J200000D01*
G01*
X133891000Y-54347000D01*
G75*
G02*
X134091000Y-54147000I200000J0D01*
G01*
X134641000Y-54147000D01*
G75*
G02*
X134841000Y-54347000I0J-200000D01*
G01*
X134841000Y-54747000D01*
G75*
G02*
X134641000Y-54947000I-200000J0D01*
G01*
G37*
G36*
G01*
X134641000Y-56597000D02*
X134091000Y-56597000D01*
G75*
G02*
X133891000Y-56397000I0J200000D01*
G01*
X133891000Y-55997000D01*
G75*
G02*
X134091000Y-55797000I200000J0D01*
G01*
X134641000Y-55797000D01*
G75*
G02*
X134841000Y-55997000I0J-200000D01*
G01*
X134841000Y-56397000D01*
G75*
G02*
X134641000Y-56597000I-200000J0D01*
G01*
G37*
G36*
G01*
X129011000Y-55797000D02*
X129561000Y-55797000D01*
G75*
G02*
X129761000Y-55997000I0J-200000D01*
G01*
X129761000Y-56397000D01*
G75*
G02*
X129561000Y-56597000I-200000J0D01*
G01*
X129011000Y-56597000D01*
G75*
G02*
X128811000Y-56397000I0J200000D01*
G01*
X128811000Y-55997000D01*
G75*
G02*
X129011000Y-55797000I200000J0D01*
G01*
G37*
G36*
G01*
X129011000Y-54147000D02*
X129561000Y-54147000D01*
G75*
G02*
X129761000Y-54347000I0J-200000D01*
G01*
X129761000Y-54747000D01*
G75*
G02*
X129561000Y-54947000I-200000J0D01*
G01*
X129011000Y-54947000D01*
G75*
G02*
X128811000Y-54747000I0J200000D01*
G01*
X128811000Y-54347000D01*
G75*
G02*
X129011000Y-54147000I200000J0D01*
G01*
G37*
G36*
G01*
X126293750Y-53550000D02*
X126806250Y-53550000D01*
G75*
G02*
X127025000Y-53768750I0J-218750D01*
G01*
X127025000Y-54206250D01*
G75*
G02*
X126806250Y-54425000I-218750J0D01*
G01*
X126293750Y-54425000D01*
G75*
G02*
X126075000Y-54206250I0J218750D01*
G01*
X126075000Y-53768750D01*
G75*
G02*
X126293750Y-53550000I218750J0D01*
G01*
G37*
G36*
G01*
X126293750Y-51975000D02*
X126806250Y-51975000D01*
G75*
G02*
X127025000Y-52193750I0J-218750D01*
G01*
X127025000Y-52631250D01*
G75*
G02*
X126806250Y-52850000I-218750J0D01*
G01*
X126293750Y-52850000D01*
G75*
G02*
X126075000Y-52631250I0J218750D01*
G01*
X126075000Y-52193750D01*
G75*
G02*
X126293750Y-51975000I218750J0D01*
G01*
G37*
G36*
G01*
X101950000Y-57914250D02*
X101950000Y-57401750D01*
G75*
G02*
X102168750Y-57183000I218750J0D01*
G01*
X102606250Y-57183000D01*
G75*
G02*
X102825000Y-57401750I0J-218750D01*
G01*
X102825000Y-57914250D01*
G75*
G02*
X102606250Y-58133000I-218750J0D01*
G01*
X102168750Y-58133000D01*
G75*
G02*
X101950000Y-57914250I0J218750D01*
G01*
G37*
G36*
G01*
X100375000Y-57914250D02*
X100375000Y-57401750D01*
G75*
G02*
X100593750Y-57183000I218750J0D01*
G01*
X101031250Y-57183000D01*
G75*
G02*
X101250000Y-57401750I0J-218750D01*
G01*
X101250000Y-57914250D01*
G75*
G02*
X101031250Y-58133000I-218750J0D01*
G01*
X100593750Y-58133000D01*
G75*
G02*
X100375000Y-57914250I0J218750D01*
G01*
G37*
D10*
X101092000Y-48260000D03*
X101092000Y-45720000D03*
X101092000Y-43180000D03*
D11*
X101092000Y-40640000D03*
G36*
G01*
X101250000Y-55115750D02*
X101250000Y-55628250D01*
G75*
G02*
X101031250Y-55847000I-218750J0D01*
G01*
X100593750Y-55847000D01*
G75*
G02*
X100375000Y-55628250I0J218750D01*
G01*
X100375000Y-55115750D01*
G75*
G02*
X100593750Y-54897000I218750J0D01*
G01*
X101031250Y-54897000D01*
G75*
G02*
X101250000Y-55115750I0J-218750D01*
G01*
G37*
G36*
G01*
X102825000Y-55115750D02*
X102825000Y-55628250D01*
G75*
G02*
X102606250Y-55847000I-218750J0D01*
G01*
X102168750Y-55847000D01*
G75*
G02*
X101950000Y-55628250I0J218750D01*
G01*
X101950000Y-55115750D01*
G75*
G02*
X102168750Y-54897000I218750J0D01*
G01*
X102606250Y-54897000D01*
G75*
G02*
X102825000Y-55115750I0J-218750D01*
G01*
G37*
D10*
X103124000Y-68880000D03*
X103124000Y-66340000D03*
D11*
X103124000Y-63800000D03*
D10*
X106172000Y-68834000D03*
X106172000Y-66294000D03*
D11*
X106172000Y-63754000D03*
G36*
G01*
X98046250Y-65182000D02*
X97533750Y-65182000D01*
G75*
G02*
X97315000Y-64963250I0J218750D01*
G01*
X97315000Y-64525750D01*
G75*
G02*
X97533750Y-64307000I218750J0D01*
G01*
X98046250Y-64307000D01*
G75*
G02*
X98265000Y-64525750I0J-218750D01*
G01*
X98265000Y-64963250D01*
G75*
G02*
X98046250Y-65182000I-218750J0D01*
G01*
G37*
G36*
G01*
X98046250Y-66757000D02*
X97533750Y-66757000D01*
G75*
G02*
X97315000Y-66538250I0J218750D01*
G01*
X97315000Y-66100750D01*
G75*
G02*
X97533750Y-65882000I218750J0D01*
G01*
X98046250Y-65882000D01*
G75*
G02*
X98265000Y-66100750I0J-218750D01*
G01*
X98265000Y-66538250D01*
G75*
G02*
X98046250Y-66757000I-218750J0D01*
G01*
G37*
G36*
G01*
X97533750Y-68930000D02*
X98046250Y-68930000D01*
G75*
G02*
X98265000Y-69148750I0J-218750D01*
G01*
X98265000Y-69586250D01*
G75*
G02*
X98046250Y-69805000I-218750J0D01*
G01*
X97533750Y-69805000D01*
G75*
G02*
X97315000Y-69586250I0J218750D01*
G01*
X97315000Y-69148750D01*
G75*
G02*
X97533750Y-68930000I218750J0D01*
G01*
G37*
G36*
G01*
X97533750Y-67355000D02*
X98046250Y-67355000D01*
G75*
G02*
X98265000Y-67573750I0J-218750D01*
G01*
X98265000Y-68011250D01*
G75*
G02*
X98046250Y-68230000I-218750J0D01*
G01*
X97533750Y-68230000D01*
G75*
G02*
X97315000Y-68011250I0J218750D01*
G01*
X97315000Y-67573750D01*
G75*
G02*
X97533750Y-67355000I218750J0D01*
G01*
G37*
G36*
G01*
X99570250Y-68230000D02*
X99057750Y-68230000D01*
G75*
G02*
X98839000Y-68011250I0J218750D01*
G01*
X98839000Y-67573750D01*
G75*
G02*
X99057750Y-67355000I218750J0D01*
G01*
X99570250Y-67355000D01*
G75*
G02*
X99789000Y-67573750I0J-218750D01*
G01*
X99789000Y-68011250D01*
G75*
G02*
X99570250Y-68230000I-218750J0D01*
G01*
G37*
G36*
G01*
X99570250Y-69805000D02*
X99057750Y-69805000D01*
G75*
G02*
X98839000Y-69586250I0J218750D01*
G01*
X98839000Y-69148750D01*
G75*
G02*
X99057750Y-68930000I218750J0D01*
G01*
X99570250Y-68930000D01*
G75*
G02*
X99789000Y-69148750I0J-218750D01*
G01*
X99789000Y-69586250D01*
G75*
G02*
X99570250Y-69805000I-218750J0D01*
G01*
G37*
G36*
G01*
X99057750Y-65882000D02*
X99570250Y-65882000D01*
G75*
G02*
X99789000Y-66100750I0J-218750D01*
G01*
X99789000Y-66538250D01*
G75*
G02*
X99570250Y-66757000I-218750J0D01*
G01*
X99057750Y-66757000D01*
G75*
G02*
X98839000Y-66538250I0J218750D01*
G01*
X98839000Y-66100750D01*
G75*
G02*
X99057750Y-65882000I218750J0D01*
G01*
G37*
G36*
G01*
X99057750Y-64307000D02*
X99570250Y-64307000D01*
G75*
G02*
X99789000Y-64525750I0J-218750D01*
G01*
X99789000Y-64963250D01*
G75*
G02*
X99570250Y-65182000I-218750J0D01*
G01*
X99057750Y-65182000D01*
G75*
G02*
X98839000Y-64963250I0J218750D01*
G01*
X98839000Y-64525750D01*
G75*
G02*
X99057750Y-64307000I218750J0D01*
G01*
G37*
D10*
X97282000Y-51308000D03*
X97282000Y-53848000D03*
X97282000Y-56388000D03*
X97282000Y-58928000D03*
D11*
X97282000Y-61468000D03*
G36*
G01*
X104899750Y-36926000D02*
X105412250Y-36926000D01*
G75*
G02*
X105631000Y-37144750I0J-218750D01*
G01*
X105631000Y-37582250D01*
G75*
G02*
X105412250Y-37801000I-218750J0D01*
G01*
X104899750Y-37801000D01*
G75*
G02*
X104681000Y-37582250I0J218750D01*
G01*
X104681000Y-37144750D01*
G75*
G02*
X104899750Y-36926000I218750J0D01*
G01*
G37*
G36*
G01*
X104899750Y-35351000D02*
X105412250Y-35351000D01*
G75*
G02*
X105631000Y-35569750I0J-218750D01*
G01*
X105631000Y-36007250D01*
G75*
G02*
X105412250Y-36226000I-218750J0D01*
G01*
X104899750Y-36226000D01*
G75*
G02*
X104681000Y-36007250I0J218750D01*
G01*
X104681000Y-35569750D01*
G75*
G02*
X104899750Y-35351000I218750J0D01*
G01*
G37*
M02*
