M48
; DRILL file {KiCad (5.1.2)-1} date 29/03/2020 20:21:27
; FORMAT={-:-/ absolute / inch / decimal}
; #@! TF.CreationDate,2020-03-29T20:21:27+02:00
; #@! TF.GenerationSoftware,Kicad,Pcbnew,(5.1.2)-1
; #@! TF.FileFunction,Plated,1,2,PTH
FMAT,2
INCH
T1C0.0157
T2C0.0394
%
G90
G05
T1
X3.8543Y-1.8853
X3.8898Y-2.3543
X3.8946Y-2.256
X3.9764Y-2.5591
X4.0333Y-1.4102
X4.1007Y-2.0118
X4.1292Y-1.9846
X4.1417Y-1.4724
X4.2835Y-2.1024
X4.2913Y-1.6535
X4.2913Y-1.7087
X4.2913Y-2.189
X4.2953Y-1.4409
X4.2992Y-1.7559
X4.2992Y-1.8031
X4.3455Y-1.5134
X4.3637Y-1.4587
X4.3697Y-1.5783
X4.3752Y-1.5393
X4.3999Y-1.9055
X4.4488Y-1.626
X4.4488Y-1.6634
X4.4488Y-1.7028
X4.4488Y-1.7421
X4.4488Y-1.7815
X4.4882Y-1.626
X4.4882Y-1.6634
X4.4882Y-1.7028
X4.4882Y-1.7421
X4.4882Y-1.7815
X4.5276Y-1.626
X4.5276Y-1.6634
X4.5276Y-1.7028
X4.5276Y-1.7421
X4.5276Y-1.7815
X4.5669Y-1.626
X4.5669Y-1.6634
X4.5669Y-1.7028
X4.5669Y-1.7421
X4.5669Y-1.7815
X4.6063Y-1.626
X4.6063Y-1.6634
X4.6063Y-1.7028
X4.6063Y-1.7421
X4.6063Y-1.7815
X4.6552Y-1.9577
X4.6968Y-1.9958
X4.7558Y-1.9626
X4.7703Y-1.9075
X4.7717Y-1.7559
X4.7953Y-1.9921
X4.8048Y-1.6092
X4.8346Y-1.4961
X4.8541Y-1.5472
X4.874Y-2.1181
X4.9646Y-1.5046
X4.9685Y-1.6535
X4.9789Y-1.8433
X4.9821Y-1.9882
X4.9843Y-1.8031
X5.0157Y-2.1654
X5.0256Y-1.4847
X5.0315Y-2.0236
X5.0315Y-2.5039
X5.045Y-1.5256
X5.1102Y-2.6614
X5.1104Y-2.0779
X5.126Y-2.4395
X5.1743Y-2.2977
X5.1769Y-2.0943
X5.1811Y-2.0551
X5.1818Y-2.2355
X5.1969Y-1.811
X5.2047Y-1.622
X5.2176Y-1.9767
X5.2205Y-1.2441
X5.2205Y-1.378
X5.2244Y-1.5365
X5.2401Y-2.0093
X5.252Y-1.4961
X5.2597Y-2.4095
X5.3307Y-2.4646
T2
X4.0374Y-2.5118
X4.0374Y-2.6118
X4.0374Y-2.7118
X3.7992Y-1.1614
X3.7992Y-1.2614
X3.7992Y-1.3614
X3.7992Y-1.4614
X3.7992Y-1.5614
X3.7992Y-1.6614
X3.7992Y-1.7614
X3.7992Y-1.8614
X3.7992Y-1.9614
X3.7992Y-2.0614
X3.7992Y-2.1614
X3.7992Y-2.2614
X3.7992Y-2.3614
X5.3346Y-2.5476
X5.3346Y-2.6476
X5.3346Y-2.7476
X4.9508Y-2.3307
X4.9508Y-2.4307
X4.9508Y-2.5307
X4.9508Y-2.6307
X4.9508Y-2.7307
X4.9508Y-2.8307
X5.0236Y-1.1496
X5.0236Y-1.2496
X5.0236Y-1.3496
X3.789Y-2.8189
X3.889Y-2.8189
X3.989Y-2.8189
X4.089Y-2.8189
X4.189Y-2.8189
X4.0866Y-1.7008
X4.0866Y-1.8008
X4.0866Y-1.9008
X5.0472Y-1.6614
X5.0472Y-1.7614
X5.0472Y-1.8614
X4.1732Y-2.2441
X4.2732Y-2.2441
X4.3732Y-2.2441
X4.4732Y-2.2441
X4.5732Y-2.2441
X4.6732Y-2.2441
X4.7732Y-2.2441
X4.8732Y-2.2441
X4.9732Y-2.2441
X4.1575Y-2.5118
X4.1575Y-2.6118
X4.1575Y-2.7118
X4.0Y-1.7012
X4.0Y-1.8012
X4.0Y-1.9012
X3.9764Y-2.0094
X3.9764Y-2.1094
X3.9764Y-2.2094
X3.9764Y-2.3094
X3.9764Y-2.4094
X5.3346Y-1.1614
X5.3346Y-1.2614
X5.3346Y-1.3614
X5.3346Y-1.4614
X5.3346Y-1.5614
X5.3346Y-1.6614
X5.3346Y-1.7614
X5.3346Y-1.8614
X5.3346Y-1.9614
X5.3346Y-2.0614
X5.3346Y-2.1614
X5.3346Y-2.2614
X5.3346Y-2.3614
X5.1339Y-1.6614
X5.1339Y-1.7614
X5.1339Y-1.8614
T0
M30
