G04 #@! TF.GenerationSoftware,KiCad,Pcbnew,(6.0.0)*
G04 #@! TF.CreationDate,2022-04-17T18:44:47+02:00*
G04 #@! TF.ProjectId,bobbycar,626f6262-7963-4617-922e-6b696361645f,rev?*
G04 #@! TF.SameCoordinates,Original*
G04 #@! TF.FileFunction,Legend,Bot*
G04 #@! TF.FilePolarity,Positive*
%FSLAX46Y46*%
G04 Gerber Fmt 4.6, Leading zero omitted, Abs format (unit mm)*
G04 Created by KiCad (PCBNEW (6.0.0)) date 2022-04-17 18:44:47*
%MOMM*%
%LPD*%
G01*
G04 APERTURE LIST*
%ADD10C,0.150000*%
%ADD11C,0.120000*%
G04 APERTURE END LIST*
D10*
X136666666Y-52761904D02*
X136666666Y-51961904D01*
X136500000Y-51961904D01*
X136400000Y-52000000D01*
X136333333Y-52076190D01*
X136300000Y-52152380D01*
X136266666Y-52304761D01*
X136266666Y-52419047D01*
X136300000Y-52571428D01*
X136333333Y-52647619D01*
X136400000Y-52723809D01*
X136500000Y-52761904D01*
X136666666Y-52761904D01*
X135566666Y-52685714D02*
X135600000Y-52723809D01*
X135700000Y-52761904D01*
X135766666Y-52761904D01*
X135866666Y-52723809D01*
X135933333Y-52647619D01*
X135966666Y-52571428D01*
X136000000Y-52419047D01*
X136000000Y-52304761D01*
X135966666Y-52152380D01*
X135933333Y-52076190D01*
X135866666Y-52000000D01*
X135766666Y-51961904D01*
X135700000Y-51961904D01*
X135600000Y-52000000D01*
X135566666Y-52038095D01*
X134766666Y-52723809D02*
X134700000Y-52761904D01*
X134566666Y-52761904D01*
X134500000Y-52723809D01*
X134466666Y-52647619D01*
X134466666Y-52609523D01*
X134500000Y-52533333D01*
X134566666Y-52495238D01*
X134666666Y-52495238D01*
X134733333Y-52457142D01*
X134766666Y-52380952D01*
X134766666Y-52342857D01*
X134733333Y-52266666D01*
X134666666Y-52228571D01*
X134566666Y-52228571D01*
X134500000Y-52266666D01*
X134166666Y-52228571D02*
X134166666Y-53028571D01*
X134166666Y-52266666D02*
X134100000Y-52228571D01*
X133966666Y-52228571D01*
X133900000Y-52266666D01*
X133866666Y-52304761D01*
X133833333Y-52380952D01*
X133833333Y-52609523D01*
X133866666Y-52685714D01*
X133900000Y-52723809D01*
X133966666Y-52761904D01*
X134100000Y-52761904D01*
X134166666Y-52723809D01*
X133266666Y-52723809D02*
X133333333Y-52761904D01*
X133466666Y-52761904D01*
X133533333Y-52723809D01*
X133566666Y-52647619D01*
X133566666Y-52342857D01*
X133533333Y-52266666D01*
X133466666Y-52228571D01*
X133333333Y-52228571D01*
X133266666Y-52266666D01*
X133233333Y-52342857D01*
X133233333Y-52419047D01*
X133566666Y-52495238D01*
X132633333Y-52761904D02*
X132633333Y-52342857D01*
X132666666Y-52266666D01*
X132733333Y-52228571D01*
X132866666Y-52228571D01*
X132933333Y-52266666D01*
X132633333Y-52723809D02*
X132700000Y-52761904D01*
X132866666Y-52761904D01*
X132933333Y-52723809D01*
X132966666Y-52647619D01*
X132966666Y-52571428D01*
X132933333Y-52495238D01*
X132866666Y-52457142D01*
X132700000Y-52457142D01*
X132633333Y-52419047D01*
X132300000Y-52761904D02*
X132300000Y-51961904D01*
X132233333Y-52457142D02*
X132033333Y-52761904D01*
X132033333Y-52228571D02*
X132300000Y-52533333D01*
X131466666Y-52723809D02*
X131533333Y-52761904D01*
X131666666Y-52761904D01*
X131733333Y-52723809D01*
X131766666Y-52647619D01*
X131766666Y-52342857D01*
X131733333Y-52266666D01*
X131666666Y-52228571D01*
X131533333Y-52228571D01*
X131466666Y-52266666D01*
X131433333Y-52342857D01*
X131433333Y-52419047D01*
X131766666Y-52495238D01*
X131133333Y-52761904D02*
X131133333Y-52228571D01*
X131133333Y-52380952D02*
X131100000Y-52304761D01*
X131066666Y-52266666D01*
X131000000Y-52228571D01*
X130933333Y-52228571D01*
D11*
X104675000Y-65825000D02*
X110450000Y-63250000D01*
X115500000Y-61000000D02*
X116400000Y-61800000D01*
X102500000Y-58500000D02*
X114000000Y-58600000D01*
X114000000Y-58600000D02*
X115300000Y-59400000D01*
X110100000Y-67800000D02*
X122250000Y-67800000D01*
X105050000Y-72650000D02*
X110100000Y-67800000D01*
X115300000Y-59400000D02*
X115500000Y-61000000D01*
X110450000Y-63250000D02*
X122300000Y-63250000D01*
D10*
X113995238Y-55861904D02*
X114261904Y-55480952D01*
X114452380Y-55861904D02*
X114452380Y-55061904D01*
X114147619Y-55061904D01*
X114071428Y-55100000D01*
X114033333Y-55138095D01*
X113995238Y-55214285D01*
X113995238Y-55328571D01*
X114033333Y-55404761D01*
X114071428Y-55442857D01*
X114147619Y-55480952D01*
X114452380Y-55480952D01*
X113652380Y-55442857D02*
X113385714Y-55442857D01*
X113271428Y-55861904D02*
X113652380Y-55861904D01*
X113652380Y-55061904D01*
X113271428Y-55061904D01*
X112966666Y-55823809D02*
X112852380Y-55861904D01*
X112661904Y-55861904D01*
X112585714Y-55823809D01*
X112547619Y-55785714D01*
X112509523Y-55709523D01*
X112509523Y-55633333D01*
X112547619Y-55557142D01*
X112585714Y-55519047D01*
X112661904Y-55480952D01*
X112814285Y-55442857D01*
X112890476Y-55404761D01*
X112928571Y-55366666D01*
X112966666Y-55290476D01*
X112966666Y-55214285D01*
X112928571Y-55138095D01*
X112890476Y-55100000D01*
X112814285Y-55061904D01*
X112623809Y-55061904D01*
X112509523Y-55100000D01*
X116609523Y-55861904D02*
X116609523Y-55061904D01*
X116419047Y-55061904D01*
X116304761Y-55100000D01*
X116228571Y-55176190D01*
X116190476Y-55252380D01*
X116152380Y-55404761D01*
X116152380Y-55519047D01*
X116190476Y-55671428D01*
X116228571Y-55747619D01*
X116304761Y-55823809D01*
X116419047Y-55861904D01*
X116609523Y-55861904D01*
X115352380Y-55785714D02*
X115390476Y-55823809D01*
X115504761Y-55861904D01*
X115580952Y-55861904D01*
X115695238Y-55823809D01*
X115771428Y-55747619D01*
X115809523Y-55671428D01*
X115847619Y-55519047D01*
X115847619Y-55404761D01*
X115809523Y-55252380D01*
X115771428Y-55176190D01*
X115695238Y-55100000D01*
X115580952Y-55061904D01*
X115504761Y-55061904D01*
X115390476Y-55100000D01*
X115352380Y-55138095D01*
X119319047Y-55823809D02*
X119204761Y-55861904D01*
X119014285Y-55861904D01*
X118938095Y-55823809D01*
X118900000Y-55785714D01*
X118861904Y-55709523D01*
X118861904Y-55633333D01*
X118900000Y-55557142D01*
X118938095Y-55519047D01*
X119014285Y-55480952D01*
X119166666Y-55442857D01*
X119242857Y-55404761D01*
X119280952Y-55366666D01*
X119319047Y-55290476D01*
X119319047Y-55214285D01*
X119280952Y-55138095D01*
X119242857Y-55100000D01*
X119166666Y-55061904D01*
X118976190Y-55061904D01*
X118861904Y-55100000D01*
X118519047Y-55861904D02*
X118519047Y-55061904D01*
X118328571Y-55061904D01*
X118214285Y-55100000D01*
X118138095Y-55176190D01*
X118100000Y-55252380D01*
X118061904Y-55404761D01*
X118061904Y-55519047D01*
X118100000Y-55671428D01*
X118138095Y-55747619D01*
X118214285Y-55823809D01*
X118328571Y-55861904D01*
X118519047Y-55861904D01*
X117719047Y-55861904D02*
X117719047Y-55061904D01*
X122028571Y-55823809D02*
X121914285Y-55861904D01*
X121723809Y-55861904D01*
X121647619Y-55823809D01*
X121609523Y-55785714D01*
X121571428Y-55709523D01*
X121571428Y-55633333D01*
X121609523Y-55557142D01*
X121647619Y-55519047D01*
X121723809Y-55480952D01*
X121876190Y-55442857D01*
X121952380Y-55404761D01*
X121990476Y-55366666D01*
X122028571Y-55290476D01*
X122028571Y-55214285D01*
X121990476Y-55138095D01*
X121952380Y-55100000D01*
X121876190Y-55061904D01*
X121685714Y-55061904D01*
X121571428Y-55100000D01*
X120771428Y-55785714D02*
X120809523Y-55823809D01*
X120923809Y-55861904D01*
X121000000Y-55861904D01*
X121114285Y-55823809D01*
X121190476Y-55747619D01*
X121228571Y-55671428D01*
X121266666Y-55519047D01*
X121266666Y-55404761D01*
X121228571Y-55252380D01*
X121190476Y-55176190D01*
X121114285Y-55100000D01*
X121000000Y-55061904D01*
X120923809Y-55061904D01*
X120809523Y-55100000D01*
X120771428Y-55138095D01*
X120428571Y-55861904D02*
X120428571Y-55061904D01*
X119971428Y-55861904D02*
X120314285Y-55404761D01*
X119971428Y-55061904D02*
X120428571Y-55519047D01*
X124514285Y-55861904D02*
X124895238Y-55861904D01*
X124895238Y-55061904D01*
X124247619Y-55442857D02*
X123980952Y-55442857D01*
X123866666Y-55861904D02*
X124247619Y-55861904D01*
X124247619Y-55061904D01*
X123866666Y-55061904D01*
X123523809Y-55861904D02*
X123523809Y-55061904D01*
X123333333Y-55061904D01*
X123219047Y-55100000D01*
X123142857Y-55176190D01*
X123104761Y-55252380D01*
X123066666Y-55404761D01*
X123066666Y-55519047D01*
X123104761Y-55671428D01*
X123142857Y-55747619D01*
X123219047Y-55823809D01*
X123333333Y-55861904D01*
X123523809Y-55861904D01*
X127547619Y-55823809D02*
X127433333Y-55861904D01*
X127242857Y-55861904D01*
X127166666Y-55823809D01*
X127128571Y-55785714D01*
X127090476Y-55709523D01*
X127090476Y-55633333D01*
X127128571Y-55557142D01*
X127166666Y-55519047D01*
X127242857Y-55480952D01*
X127395238Y-55442857D01*
X127471428Y-55404761D01*
X127509523Y-55366666D01*
X127547619Y-55290476D01*
X127547619Y-55214285D01*
X127509523Y-55138095D01*
X127471428Y-55100000D01*
X127395238Y-55061904D01*
X127204761Y-55061904D01*
X127090476Y-55100000D01*
X126747619Y-55861904D02*
X126747619Y-55061904D01*
X126557142Y-55061904D01*
X126442857Y-55100000D01*
X126366666Y-55176190D01*
X126328571Y-55252380D01*
X126290476Y-55404761D01*
X126290476Y-55519047D01*
X126328571Y-55671428D01*
X126366666Y-55747619D01*
X126442857Y-55823809D01*
X126557142Y-55861904D01*
X126747619Y-55861904D01*
X125795238Y-55061904D02*
X125642857Y-55061904D01*
X125566666Y-55100000D01*
X125490476Y-55176190D01*
X125452380Y-55328571D01*
X125452380Y-55595238D01*
X125490476Y-55747619D01*
X125566666Y-55823809D01*
X125642857Y-55861904D01*
X125795238Y-55861904D01*
X125871428Y-55823809D01*
X125947619Y-55747619D01*
X125985714Y-55595238D01*
X125985714Y-55328571D01*
X125947619Y-55176190D01*
X125871428Y-55100000D01*
X125795238Y-55061904D01*
X120295119Y-71661904D02*
X120752261Y-71661904D01*
X120523690Y-71661904D02*
X120523690Y-70861904D01*
X120599880Y-70976190D01*
X120676071Y-71052380D01*
X120752261Y-71090476D01*
X119571309Y-70861904D02*
X119952261Y-70861904D01*
X119990357Y-71242857D01*
X119952261Y-71204761D01*
X119876071Y-71166666D01*
X119685595Y-71166666D01*
X119609404Y-71204761D01*
X119571309Y-71242857D01*
X119533214Y-71319047D01*
X119533214Y-71509523D01*
X119571309Y-71585714D01*
X119609404Y-71623809D01*
X119685595Y-71661904D01*
X119876071Y-71661904D01*
X119952261Y-71623809D01*
X119990357Y-71585714D01*
X119304642Y-70861904D02*
X119037976Y-71661904D01*
X118771309Y-70861904D01*
X117895119Y-71661904D02*
X117895119Y-70861904D01*
X117704642Y-70861904D01*
X117590357Y-70900000D01*
X117514166Y-70976190D01*
X117476071Y-71052380D01*
X117437976Y-71204761D01*
X117437976Y-71319047D01*
X117476071Y-71471428D01*
X117514166Y-71547619D01*
X117590357Y-71623809D01*
X117704642Y-71661904D01*
X117895119Y-71661904D01*
X117095119Y-71357142D02*
X116485595Y-71357142D01*
X116790357Y-71661904D02*
X116790357Y-71052380D01*
X115495119Y-71661904D02*
X115495119Y-70861904D01*
X115304642Y-70861904D01*
X115190357Y-70900000D01*
X115114166Y-70976190D01*
X115076071Y-71052380D01*
X115037976Y-71204761D01*
X115037976Y-71319047D01*
X115076071Y-71471428D01*
X115114166Y-71547619D01*
X115190357Y-71623809D01*
X115304642Y-71661904D01*
X115495119Y-71661904D01*
X114695119Y-71357142D02*
X114085595Y-71357142D01*
X112676071Y-70900000D02*
X112752261Y-70861904D01*
X112866547Y-70861904D01*
X112980833Y-70900000D01*
X113057023Y-70976190D01*
X113095119Y-71052380D01*
X113133214Y-71204761D01*
X113133214Y-71319047D01*
X113095119Y-71471428D01*
X113057023Y-71547619D01*
X112980833Y-71623809D01*
X112866547Y-71661904D01*
X112790357Y-71661904D01*
X112676071Y-71623809D01*
X112637976Y-71585714D01*
X112637976Y-71319047D01*
X112790357Y-71319047D01*
X112295119Y-71661904D02*
X112295119Y-70861904D01*
X111837976Y-71661904D01*
X111837976Y-70861904D01*
X111457023Y-71661904D02*
X111457023Y-70861904D01*
X111266547Y-70861904D01*
X111152261Y-70900000D01*
X111076071Y-70976190D01*
X111037976Y-71052380D01*
X110999880Y-71204761D01*
X110999880Y-71319047D01*
X111037976Y-71471428D01*
X111076071Y-71547619D01*
X111152261Y-71623809D01*
X111266547Y-71661904D01*
X111457023Y-71661904D01*
X111133333Y-55785714D02*
X111171428Y-55823809D01*
X111285714Y-55861904D01*
X111361904Y-55861904D01*
X111476190Y-55823809D01*
X111552380Y-55747619D01*
X111590476Y-55671428D01*
X111628571Y-55519047D01*
X111628571Y-55404761D01*
X111590476Y-55252380D01*
X111552380Y-55176190D01*
X111476190Y-55100000D01*
X111361904Y-55061904D01*
X111285714Y-55061904D01*
X111171428Y-55100000D01*
X111133333Y-55138095D01*
X110828571Y-55823809D02*
X110714285Y-55861904D01*
X110523809Y-55861904D01*
X110447619Y-55823809D01*
X110409523Y-55785714D01*
X110371428Y-55709523D01*
X110371428Y-55633333D01*
X110409523Y-55557142D01*
X110447619Y-55519047D01*
X110523809Y-55480952D01*
X110676190Y-55442857D01*
X110752380Y-55404761D01*
X110790476Y-55366666D01*
X110828571Y-55290476D01*
X110828571Y-55214285D01*
X110790476Y-55138095D01*
X110752380Y-55100000D01*
X110676190Y-55061904D01*
X110485714Y-55061904D01*
X110371428Y-55100000D01*
X106990476Y-55061904D02*
X106495238Y-55061904D01*
X106761904Y-55366666D01*
X106647619Y-55366666D01*
X106571428Y-55404761D01*
X106533333Y-55442857D01*
X106495238Y-55519047D01*
X106495238Y-55709523D01*
X106533333Y-55785714D01*
X106571428Y-55823809D01*
X106647619Y-55861904D01*
X106876190Y-55861904D01*
X106952380Y-55823809D01*
X106990476Y-55785714D01*
X106266666Y-55061904D02*
X106000000Y-55861904D01*
X105733333Y-55061904D01*
X105542857Y-55061904D02*
X105047619Y-55061904D01*
X105314285Y-55366666D01*
X105200000Y-55366666D01*
X105123809Y-55404761D01*
X105085714Y-55442857D01*
X105047619Y-55519047D01*
X105047619Y-55709523D01*
X105085714Y-55785714D01*
X105123809Y-55823809D01*
X105200000Y-55861904D01*
X105428571Y-55861904D01*
X105504761Y-55823809D01*
X105542857Y-55785714D01*
X119876071Y-60461904D02*
X120333214Y-60461904D01*
X120104642Y-60461904D02*
X120104642Y-59661904D01*
X120180833Y-59776190D01*
X120257023Y-59852380D01*
X120333214Y-59890476D01*
X119152261Y-59661904D02*
X119533214Y-59661904D01*
X119571309Y-60042857D01*
X119533214Y-60004761D01*
X119457023Y-59966666D01*
X119266547Y-59966666D01*
X119190357Y-60004761D01*
X119152261Y-60042857D01*
X119114166Y-60119047D01*
X119114166Y-60309523D01*
X119152261Y-60385714D01*
X119190357Y-60423809D01*
X119266547Y-60461904D01*
X119457023Y-60461904D01*
X119533214Y-60423809D01*
X119571309Y-60385714D01*
X118885595Y-59661904D02*
X118618928Y-60461904D01*
X118352261Y-59661904D01*
X117095119Y-60461904D02*
X117476071Y-60461904D01*
X117476071Y-59661904D01*
X116828452Y-60042857D02*
X116561785Y-60042857D01*
X116447500Y-60461904D02*
X116828452Y-60461904D01*
X116828452Y-59661904D01*
X116447500Y-59661904D01*
X116104642Y-60461904D02*
X116104642Y-59661904D01*
X115914166Y-59661904D01*
X115799880Y-59700000D01*
X115723690Y-59776190D01*
X115685595Y-59852380D01*
X115647500Y-60004761D01*
X115647500Y-60119047D01*
X115685595Y-60271428D01*
X115723690Y-60347619D01*
X115799880Y-60423809D01*
X115914166Y-60461904D01*
X116104642Y-60461904D01*
X114276071Y-59700000D02*
X114352261Y-59661904D01*
X114466547Y-59661904D01*
X114580833Y-59700000D01*
X114657023Y-59776190D01*
X114695119Y-59852380D01*
X114733214Y-60004761D01*
X114733214Y-60119047D01*
X114695119Y-60271428D01*
X114657023Y-60347619D01*
X114580833Y-60423809D01*
X114466547Y-60461904D01*
X114390357Y-60461904D01*
X114276071Y-60423809D01*
X114237976Y-60385714D01*
X114237976Y-60119047D01*
X114390357Y-60119047D01*
X113895119Y-60461904D02*
X113895119Y-59661904D01*
X113437976Y-60461904D01*
X113437976Y-59661904D01*
X113057023Y-60461904D02*
X113057023Y-59661904D01*
X112866547Y-59661904D01*
X112752261Y-59700000D01*
X112676071Y-59776190D01*
X112637976Y-59852380D01*
X112599880Y-60004761D01*
X112599880Y-60119047D01*
X112637976Y-60271428D01*
X112676071Y-60347619D01*
X112752261Y-60423809D01*
X112866547Y-60461904D01*
X113057023Y-60461904D01*
X117633333Y-59261904D02*
X117633333Y-58461904D01*
X117166666Y-58461904D02*
X117033333Y-58461904D01*
X116966666Y-58500000D01*
X116900000Y-58576190D01*
X116866666Y-58728571D01*
X116866666Y-58995238D01*
X116900000Y-59147619D01*
X116966666Y-59223809D01*
X117033333Y-59261904D01*
X117166666Y-59261904D01*
X117233333Y-59223809D01*
X117300000Y-59147619D01*
X117333333Y-58995238D01*
X117333333Y-58728571D01*
X117300000Y-58576190D01*
X117233333Y-58500000D01*
X117166666Y-58461904D01*
X116633333Y-58461904D02*
X116200000Y-58461904D01*
X116433333Y-58766666D01*
X116333333Y-58766666D01*
X116266666Y-58804761D01*
X116233333Y-58842857D01*
X116200000Y-58919047D01*
X116200000Y-59109523D01*
X116233333Y-59185714D01*
X116266666Y-59223809D01*
X116333333Y-59261904D01*
X116533333Y-59261904D01*
X116600000Y-59223809D01*
X116633333Y-59185714D01*
X115966666Y-58461904D02*
X115533333Y-58461904D01*
X115766666Y-58766666D01*
X115666666Y-58766666D01*
X115600000Y-58804761D01*
X115566666Y-58842857D01*
X115533333Y-58919047D01*
X115533333Y-59109523D01*
X115566666Y-59185714D01*
X115600000Y-59223809D01*
X115666666Y-59261904D01*
X115866666Y-59261904D01*
X115933333Y-59223809D01*
X115966666Y-59185714D01*
X122650000Y-69685714D02*
X122683333Y-69723809D01*
X122783333Y-69761904D01*
X122850000Y-69761904D01*
X122950000Y-69723809D01*
X123016666Y-69647619D01*
X123050000Y-69571428D01*
X123083333Y-69419047D01*
X123083333Y-69304761D01*
X123050000Y-69152380D01*
X123016666Y-69076190D01*
X122950000Y-69000000D01*
X122850000Y-68961904D01*
X122783333Y-68961904D01*
X122683333Y-69000000D01*
X122650000Y-69038095D01*
X122383333Y-69533333D02*
X122050000Y-69533333D01*
X122450000Y-69761904D02*
X122216666Y-68961904D01*
X121983333Y-69761904D01*
X121750000Y-69761904D02*
X121750000Y-68961904D01*
X121350000Y-69761904D01*
X121350000Y-68961904D01*
X99011904Y-49964285D02*
X99811904Y-50247619D01*
X99011904Y-50530952D01*
X99811904Y-50814285D02*
X99011904Y-50814285D01*
X99811904Y-51219047D02*
X99011904Y-51219047D01*
X99811904Y-51704761D01*
X99011904Y-51704761D01*
X99811904Y-52757142D02*
X99011904Y-52757142D01*
X99011904Y-53323809D02*
X99011904Y-53485714D01*
X99050000Y-53566666D01*
X99126190Y-53647619D01*
X99278571Y-53688095D01*
X99545238Y-53688095D01*
X99697619Y-53647619D01*
X99773809Y-53566666D01*
X99811904Y-53485714D01*
X99811904Y-53323809D01*
X99773809Y-53242857D01*
X99697619Y-53161904D01*
X99545238Y-53121428D01*
X99278571Y-53121428D01*
X99126190Y-53161904D01*
X99050000Y-53242857D01*
X99011904Y-53323809D01*
X99011904Y-54214285D02*
X99011904Y-54295238D01*
X99050000Y-54376190D01*
X99088095Y-54416666D01*
X99164285Y-54457142D01*
X99316666Y-54497619D01*
X99507142Y-54497619D01*
X99659523Y-54457142D01*
X99735714Y-54416666D01*
X99773809Y-54376190D01*
X99811904Y-54295238D01*
X99811904Y-54214285D01*
X99773809Y-54133333D01*
X99735714Y-54092857D01*
X99659523Y-54052380D01*
X99507142Y-54011904D01*
X99316666Y-54011904D01*
X99164285Y-54052380D01*
X99088095Y-54092857D01*
X99050000Y-54133333D01*
X99011904Y-54214285D01*
X99392857Y-55509523D02*
X99392857Y-55792857D01*
X99811904Y-55914285D02*
X99811904Y-55509523D01*
X99011904Y-55509523D01*
X99011904Y-55914285D01*
X99811904Y-56278571D02*
X99011904Y-56278571D01*
X99811904Y-56764285D01*
X99011904Y-56764285D01*
X99011904Y-57695238D02*
X99011904Y-58180952D01*
X99811904Y-57938095D02*
X99011904Y-57938095D01*
X99011904Y-58383333D02*
X99811904Y-58950000D01*
X99011904Y-58950000D02*
X99811904Y-58383333D01*
X99811904Y-60407142D02*
X99430952Y-60123809D01*
X99811904Y-59921428D02*
X99011904Y-59921428D01*
X99011904Y-60245238D01*
X99050000Y-60326190D01*
X99088095Y-60366666D01*
X99164285Y-60407142D01*
X99278571Y-60407142D01*
X99354761Y-60366666D01*
X99392857Y-60326190D01*
X99430952Y-60245238D01*
X99430952Y-59921428D01*
X99011904Y-60690476D02*
X99811904Y-61257142D01*
X99011904Y-61257142D02*
X99811904Y-60690476D01*
X99050000Y-62673809D02*
X99011904Y-62592857D01*
X99011904Y-62471428D01*
X99050000Y-62350000D01*
X99126190Y-62269047D01*
X99202380Y-62228571D01*
X99354761Y-62188095D01*
X99469047Y-62188095D01*
X99621428Y-62228571D01*
X99697619Y-62269047D01*
X99773809Y-62350000D01*
X99811904Y-62471428D01*
X99811904Y-62552380D01*
X99773809Y-62673809D01*
X99735714Y-62714285D01*
X99469047Y-62714285D01*
X99469047Y-62552380D01*
X99811904Y-63078571D02*
X99011904Y-63078571D01*
X99811904Y-63564285D01*
X99011904Y-63564285D01*
X99811904Y-63969047D02*
X99011904Y-63969047D01*
X99011904Y-64171428D01*
X99050000Y-64292857D01*
X99126190Y-64373809D01*
X99202380Y-64414285D01*
X99354761Y-64454761D01*
X99469047Y-64454761D01*
X99621428Y-64414285D01*
X99697619Y-64373809D01*
X99773809Y-64292857D01*
X99811904Y-64171428D01*
X99811904Y-63969047D01*
X108466741Y-67007136D02*
X108178065Y-67173803D01*
X108638761Y-67171752D02*
X108036689Y-66595598D01*
X108234616Y-67405085D01*
X107765877Y-67059871D02*
X108032544Y-67521752D01*
X107803972Y-67125854D02*
X107756057Y-67109529D01*
X107679274Y-67109871D01*
X107592672Y-67159871D01*
X107553984Y-67226196D01*
X107563212Y-67308846D01*
X107772736Y-67671752D01*
X107224253Y-67988418D02*
X107014729Y-67625512D01*
X107005502Y-67542863D01*
X107044189Y-67476538D01*
X107159659Y-67409871D01*
X107236442Y-67409529D01*
X107205206Y-67955427D02*
X107281988Y-67955085D01*
X107426326Y-67871752D01*
X107465013Y-67805427D01*
X107455785Y-67722777D01*
X107417690Y-67656794D01*
X107350727Y-67607478D01*
X107273945Y-67607820D01*
X107129607Y-67691153D01*
X107052825Y-67691495D01*
X106848975Y-68205085D02*
X106887663Y-68138760D01*
X106878435Y-68056111D01*
X106535578Y-67462265D01*
X106531433Y-68388418D02*
X106570120Y-68322093D01*
X106579940Y-68272435D01*
X106570712Y-68189786D01*
X106456427Y-67991837D01*
X106389464Y-67942521D01*
X106341549Y-67926196D01*
X106264766Y-67926538D01*
X106178164Y-67976538D01*
X106139476Y-68042863D01*
X106129656Y-68092521D01*
X106138884Y-68175170D01*
X106253170Y-68373119D01*
X106320133Y-68422435D01*
X106368048Y-68438760D01*
X106444830Y-68438418D01*
X106531433Y-68388418D01*
X105543078Y-68343205D02*
X105866888Y-68904059D01*
X105933851Y-68953375D01*
X105981766Y-68969700D01*
X106058548Y-68969358D01*
X106145151Y-68919358D01*
X106183838Y-68853034D01*
X105790697Y-68772093D02*
X105867480Y-68771752D01*
X105982950Y-68705085D01*
X106021637Y-68638760D01*
X106031457Y-68589102D01*
X106022230Y-68506452D01*
X105907944Y-68308504D01*
X105840981Y-68259188D01*
X105793066Y-68242863D01*
X105716283Y-68243205D01*
X105600813Y-68309871D01*
X105562126Y-68376196D01*
X129466666Y-56461904D02*
X129066666Y-56461904D01*
X129266666Y-57261904D02*
X129266666Y-56461904D01*
X128600000Y-56842857D02*
X128833333Y-56842857D01*
X128833333Y-57261904D02*
X128833333Y-56461904D01*
X128500000Y-56461904D01*
X128333333Y-56461904D02*
X127933333Y-56461904D01*
X128133333Y-57261904D02*
X128133333Y-56461904D01*
X98400000Y-49242857D02*
X98633333Y-49242857D01*
X98633333Y-49661904D02*
X98633333Y-48861904D01*
X98300000Y-48861904D01*
X97933333Y-49661904D02*
X98000000Y-49623809D01*
X98033333Y-49547619D01*
X98033333Y-48861904D01*
X97366666Y-49661904D02*
X97366666Y-49242857D01*
X97400000Y-49166666D01*
X97466666Y-49128571D01*
X97600000Y-49128571D01*
X97666666Y-49166666D01*
X97366666Y-49623809D02*
X97433333Y-49661904D01*
X97600000Y-49661904D01*
X97666666Y-49623809D01*
X97700000Y-49547619D01*
X97700000Y-49471428D01*
X97666666Y-49395238D01*
X97600000Y-49357142D01*
X97433333Y-49357142D01*
X97366666Y-49319047D01*
X97066666Y-49623809D02*
X97000000Y-49661904D01*
X96866666Y-49661904D01*
X96800000Y-49623809D01*
X96766666Y-49547619D01*
X96766666Y-49509523D01*
X96800000Y-49433333D01*
X96866666Y-49395238D01*
X96966666Y-49395238D01*
X97033333Y-49357142D01*
X97066666Y-49280952D01*
X97066666Y-49242857D01*
X97033333Y-49166666D01*
X96966666Y-49128571D01*
X96866666Y-49128571D01*
X96800000Y-49166666D01*
X96466666Y-49661904D02*
X96466666Y-48861904D01*
X96166666Y-49661904D02*
X96166666Y-49242857D01*
X96200000Y-49166666D01*
X96266666Y-49128571D01*
X96366666Y-49128571D01*
X96433333Y-49166666D01*
X96466666Y-49204761D01*
X109109523Y-55100000D02*
X109185714Y-55061904D01*
X109300000Y-55061904D01*
X109414285Y-55100000D01*
X109490476Y-55176190D01*
X109528571Y-55252380D01*
X109566666Y-55404761D01*
X109566666Y-55519047D01*
X109528571Y-55671428D01*
X109490476Y-55747619D01*
X109414285Y-55823809D01*
X109300000Y-55861904D01*
X109223809Y-55861904D01*
X109109523Y-55823809D01*
X109071428Y-55785714D01*
X109071428Y-55519047D01*
X109223809Y-55519047D01*
X108728571Y-55861904D02*
X108728571Y-55061904D01*
X108271428Y-55861904D01*
X108271428Y-55061904D01*
X107890476Y-55861904D02*
X107890476Y-55061904D01*
X107700000Y-55061904D01*
X107585714Y-55100000D01*
X107509523Y-55176190D01*
X107471428Y-55252380D01*
X107433333Y-55404761D01*
X107433333Y-55519047D01*
X107471428Y-55671428D01*
X107509523Y-55747619D01*
X107585714Y-55823809D01*
X107700000Y-55861904D01*
X107890476Y-55861904D01*
X101900000Y-47700000D02*
X101861904Y-47633333D01*
X101861904Y-47533333D01*
X101900000Y-47433333D01*
X101976190Y-47366666D01*
X102052380Y-47333333D01*
X102204761Y-47300000D01*
X102319047Y-47300000D01*
X102471428Y-47333333D01*
X102547619Y-47366666D01*
X102623809Y-47433333D01*
X102661904Y-47533333D01*
X102661904Y-47600000D01*
X102623809Y-47700000D01*
X102585714Y-47733333D01*
X102319047Y-47733333D01*
X102319047Y-47600000D01*
X102661904Y-48033333D02*
X101861904Y-48033333D01*
X101861904Y-48300000D01*
X101900000Y-48366666D01*
X101938095Y-48400000D01*
X102014285Y-48433333D01*
X102128571Y-48433333D01*
X102204761Y-48400000D01*
X102242857Y-48366666D01*
X102280952Y-48300000D01*
X102280952Y-48033333D01*
X102661904Y-48733333D02*
X101861904Y-48733333D01*
X101861904Y-49200000D02*
X101861904Y-49333333D01*
X101900000Y-49400000D01*
X101976190Y-49466666D01*
X102128571Y-49500000D01*
X102395238Y-49500000D01*
X102547619Y-49466666D01*
X102623809Y-49400000D01*
X102661904Y-49333333D01*
X102661904Y-49200000D01*
X102623809Y-49133333D01*
X102547619Y-49066666D01*
X102395238Y-49033333D01*
X102128571Y-49033333D01*
X101976190Y-49066666D01*
X101900000Y-49133333D01*
X101861904Y-49200000D01*
X104311904Y-48766666D02*
X103511904Y-48766666D01*
X103511904Y-49233333D02*
X103511904Y-49366666D01*
X103550000Y-49433333D01*
X103626190Y-49500000D01*
X103778571Y-49533333D01*
X104045238Y-49533333D01*
X104197619Y-49500000D01*
X104273809Y-49433333D01*
X104311904Y-49366666D01*
X104311904Y-49233333D01*
X104273809Y-49166666D01*
X104197619Y-49100000D01*
X104045238Y-49066666D01*
X103778571Y-49066666D01*
X103626190Y-49100000D01*
X103550000Y-49166666D01*
X103511904Y-49233333D01*
X104311904Y-50200000D02*
X104311904Y-49800000D01*
X104311904Y-50000000D02*
X103511904Y-50000000D01*
X103626190Y-49933333D01*
X103702380Y-49866666D01*
X103740476Y-49800000D01*
X103511904Y-50433333D02*
X103511904Y-50900000D01*
X104311904Y-50600000D01*
X104311904Y-51700000D02*
X103511904Y-51700000D01*
X103511904Y-52166666D02*
X103511904Y-52300000D01*
X103550000Y-52366666D01*
X103626190Y-52433333D01*
X103778571Y-52466666D01*
X104045238Y-52466666D01*
X104197619Y-52433333D01*
X104273809Y-52366666D01*
X104311904Y-52300000D01*
X104311904Y-52166666D01*
X104273809Y-52100000D01*
X104197619Y-52033333D01*
X104045238Y-52000000D01*
X103778571Y-52000000D01*
X103626190Y-52033333D01*
X103550000Y-52100000D01*
X103511904Y-52166666D01*
X103588095Y-52733333D02*
X103550000Y-52766666D01*
X103511904Y-52833333D01*
X103511904Y-53000000D01*
X103550000Y-53066666D01*
X103588095Y-53100000D01*
X103664285Y-53133333D01*
X103740476Y-53133333D01*
X103854761Y-53100000D01*
X104311904Y-52700000D01*
X104311904Y-53133333D01*
X103511904Y-53733333D02*
X103511904Y-53600000D01*
X103550000Y-53533333D01*
X103588095Y-53500000D01*
X103702380Y-53433333D01*
X103854761Y-53400000D01*
X104159523Y-53400000D01*
X104235714Y-53433333D01*
X104273809Y-53466666D01*
X104311904Y-53533333D01*
X104311904Y-53666666D01*
X104273809Y-53733333D01*
X104235714Y-53766666D01*
X104159523Y-53800000D01*
X103969047Y-53800000D01*
X103892857Y-53766666D01*
X103854761Y-53733333D01*
X103816666Y-53666666D01*
X103816666Y-53533333D01*
X103854761Y-53466666D01*
X103892857Y-53433333D01*
X103969047Y-53400000D01*
X104311904Y-54633333D02*
X103511904Y-54633333D01*
X103511904Y-55100000D02*
X103511904Y-55233333D01*
X103550000Y-55300000D01*
X103626190Y-55366666D01*
X103778571Y-55400000D01*
X104045238Y-55400000D01*
X104197619Y-55366666D01*
X104273809Y-55300000D01*
X104311904Y-55233333D01*
X104311904Y-55100000D01*
X104273809Y-55033333D01*
X104197619Y-54966666D01*
X104045238Y-54933333D01*
X103778571Y-54933333D01*
X103626190Y-54966666D01*
X103550000Y-55033333D01*
X103511904Y-55100000D01*
X103588095Y-55666666D02*
X103550000Y-55700000D01*
X103511904Y-55766666D01*
X103511904Y-55933333D01*
X103550000Y-56000000D01*
X103588095Y-56033333D01*
X103664285Y-56066666D01*
X103740476Y-56066666D01*
X103854761Y-56033333D01*
X104311904Y-55633333D01*
X104311904Y-56066666D01*
X103511904Y-56700000D02*
X103511904Y-56366666D01*
X103892857Y-56333333D01*
X103854761Y-56366666D01*
X103816666Y-56433333D01*
X103816666Y-56600000D01*
X103854761Y-56666666D01*
X103892857Y-56700000D01*
X103969047Y-56733333D01*
X104159523Y-56733333D01*
X104235714Y-56700000D01*
X104273809Y-56666666D01*
X104311904Y-56600000D01*
X104311904Y-56433333D01*
X104273809Y-56366666D01*
X104235714Y-56333333D01*
X104311904Y-57566666D02*
X103511904Y-57566666D01*
X103511904Y-58033333D02*
X103511904Y-58166666D01*
X103550000Y-58233333D01*
X103626190Y-58300000D01*
X103778571Y-58333333D01*
X104045238Y-58333333D01*
X104197619Y-58300000D01*
X104273809Y-58233333D01*
X104311904Y-58166666D01*
X104311904Y-58033333D01*
X104273809Y-57966666D01*
X104197619Y-57900000D01*
X104045238Y-57866666D01*
X103778571Y-57866666D01*
X103626190Y-57900000D01*
X103550000Y-57966666D01*
X103511904Y-58033333D01*
X103511904Y-58566666D02*
X103511904Y-59000000D01*
X103816666Y-58766666D01*
X103816666Y-58866666D01*
X103854761Y-58933333D01*
X103892857Y-58966666D01*
X103969047Y-59000000D01*
X104159523Y-59000000D01*
X104235714Y-58966666D01*
X104273809Y-58933333D01*
X104311904Y-58866666D01*
X104311904Y-58666666D01*
X104273809Y-58600000D01*
X104235714Y-58566666D01*
X103511904Y-59233333D02*
X103511904Y-59666666D01*
X103816666Y-59433333D01*
X103816666Y-59533333D01*
X103854761Y-59600000D01*
X103892857Y-59633333D01*
X103969047Y-59666666D01*
X104159523Y-59666666D01*
X104235714Y-59633333D01*
X104273809Y-59600000D01*
X104311904Y-59533333D01*
X104311904Y-59333333D01*
X104273809Y-59266666D01*
X104235714Y-59233333D01*
X104311904Y-60500000D02*
X103511904Y-60500000D01*
X103511904Y-60966666D02*
X103511904Y-61100000D01*
X103550000Y-61166666D01*
X103626190Y-61233333D01*
X103778571Y-61266666D01*
X104045238Y-61266666D01*
X104197619Y-61233333D01*
X104273809Y-61166666D01*
X104311904Y-61100000D01*
X104311904Y-60966666D01*
X104273809Y-60900000D01*
X104197619Y-60833333D01*
X104045238Y-60800000D01*
X103778571Y-60800000D01*
X103626190Y-60833333D01*
X103550000Y-60900000D01*
X103511904Y-60966666D01*
X103511904Y-61500000D02*
X103511904Y-61933333D01*
X103816666Y-61700000D01*
X103816666Y-61800000D01*
X103854761Y-61866666D01*
X103892857Y-61900000D01*
X103969047Y-61933333D01*
X104159523Y-61933333D01*
X104235714Y-61900000D01*
X104273809Y-61866666D01*
X104311904Y-61800000D01*
X104311904Y-61600000D01*
X104273809Y-61533333D01*
X104235714Y-61500000D01*
X103588095Y-62200000D02*
X103550000Y-62233333D01*
X103511904Y-62300000D01*
X103511904Y-62466666D01*
X103550000Y-62533333D01*
X103588095Y-62566666D01*
X103664285Y-62600000D01*
X103740476Y-62600000D01*
X103854761Y-62566666D01*
X104311904Y-62166666D01*
X104311904Y-62600000D01*
X103511904Y-63366666D02*
X103511904Y-63800000D01*
X103816666Y-63566666D01*
X103816666Y-63666666D01*
X103854761Y-63733333D01*
X103892857Y-63766666D01*
X103969047Y-63800000D01*
X104159523Y-63800000D01*
X104235714Y-63766666D01*
X104273809Y-63733333D01*
X104311904Y-63666666D01*
X104311904Y-63466666D01*
X104273809Y-63400000D01*
X104235714Y-63366666D01*
X103511904Y-64000000D02*
X104311904Y-64233333D01*
X103511904Y-64466666D01*
X103511904Y-64633333D02*
X103511904Y-65066666D01*
X103816666Y-64833333D01*
X103816666Y-64933333D01*
X103854761Y-65000000D01*
X103892857Y-65033333D01*
X103969047Y-65066666D01*
X104159523Y-65066666D01*
X104235714Y-65033333D01*
X104273809Y-65000000D01*
X104311904Y-64933333D01*
X104311904Y-64733333D01*
X104273809Y-64666666D01*
X104235714Y-64633333D01*
X122238214Y-63623904D02*
X121742976Y-63623904D01*
X122009642Y-63928666D01*
X121895357Y-63928666D01*
X121819166Y-63966761D01*
X121781071Y-64004857D01*
X121742976Y-64081047D01*
X121742976Y-64271523D01*
X121781071Y-64347714D01*
X121819166Y-64385809D01*
X121895357Y-64423904D01*
X122123928Y-64423904D01*
X122200119Y-64385809D01*
X122238214Y-64347714D01*
X121476309Y-63890571D02*
X121285833Y-64423904D01*
X121095357Y-63890571D01*
X120866785Y-63623904D02*
X120371547Y-63623904D01*
X120638214Y-63928666D01*
X120523928Y-63928666D01*
X120447738Y-63966761D01*
X120409642Y-64004857D01*
X120371547Y-64081047D01*
X120371547Y-64271523D01*
X120409642Y-64347714D01*
X120447738Y-64385809D01*
X120523928Y-64423904D01*
X120752500Y-64423904D01*
X120828690Y-64385809D01*
X120866785Y-64347714D01*
X118885833Y-63623904D02*
X118390595Y-63623904D01*
X118657261Y-63928666D01*
X118542976Y-63928666D01*
X118466785Y-63966761D01*
X118428690Y-64004857D01*
X118390595Y-64081047D01*
X118390595Y-64271523D01*
X118428690Y-64347714D01*
X118466785Y-64385809D01*
X118542976Y-64423904D01*
X118771547Y-64423904D01*
X118847738Y-64385809D01*
X118885833Y-64347714D01*
X118162023Y-63623904D02*
X117895357Y-64423904D01*
X117628690Y-63623904D01*
X117438214Y-63623904D02*
X116942976Y-63623904D01*
X117209642Y-63928666D01*
X117095357Y-63928666D01*
X117019166Y-63966761D01*
X116981071Y-64004857D01*
X116942976Y-64081047D01*
X116942976Y-64271523D01*
X116981071Y-64347714D01*
X117019166Y-64385809D01*
X117095357Y-64423904D01*
X117323928Y-64423904D01*
X117400119Y-64385809D01*
X117438214Y-64347714D01*
X114847738Y-63623904D02*
X114352500Y-63623904D01*
X114619166Y-63928666D01*
X114504880Y-63928666D01*
X114428690Y-63966761D01*
X114390595Y-64004857D01*
X114352500Y-64081047D01*
X114352500Y-64271523D01*
X114390595Y-64347714D01*
X114428690Y-64385809D01*
X114504880Y-64423904D01*
X114733452Y-64423904D01*
X114809642Y-64385809D01*
X114847738Y-64347714D01*
X114123928Y-63623904D02*
X113857261Y-64423904D01*
X113590595Y-63623904D01*
X113400119Y-63623904D02*
X112904880Y-63623904D01*
X113171547Y-63928666D01*
X113057261Y-63928666D01*
X112981071Y-63966761D01*
X112942976Y-64004857D01*
X112904880Y-64081047D01*
X112904880Y-64271523D01*
X112942976Y-64347714D01*
X112981071Y-64385809D01*
X113057261Y-64423904D01*
X113285833Y-64423904D01*
X113362023Y-64385809D01*
X113400119Y-64347714D01*
X112028690Y-63623904D02*
X111533452Y-63623904D01*
X111800119Y-63928666D01*
X111685833Y-63928666D01*
X111609642Y-63966761D01*
X111571547Y-64004857D01*
X111533452Y-64081047D01*
X111533452Y-64271523D01*
X111571547Y-64347714D01*
X111609642Y-64385809D01*
X111685833Y-64423904D01*
X111914404Y-64423904D01*
X111990595Y-64385809D01*
X112028690Y-64347714D01*
X111304880Y-63623904D02*
X111038214Y-64423904D01*
X110771547Y-63623904D01*
X110581071Y-63623904D02*
X110085833Y-63623904D01*
X110352500Y-63928666D01*
X110238214Y-63928666D01*
X110162023Y-63966761D01*
X110123928Y-64004857D01*
X110085833Y-64081047D01*
X110085833Y-64271523D01*
X110123928Y-64347714D01*
X110162023Y-64385809D01*
X110238214Y-64423904D01*
X110466785Y-64423904D01*
X110542976Y-64385809D01*
X110581071Y-64347714D01*
X121895357Y-65292857D02*
X121781071Y-65330952D01*
X121742976Y-65369047D01*
X121704880Y-65445238D01*
X121704880Y-65559523D01*
X121742976Y-65635714D01*
X121781071Y-65673809D01*
X121857261Y-65711904D01*
X122162023Y-65711904D01*
X122162023Y-64911904D01*
X121895357Y-64911904D01*
X121819166Y-64950000D01*
X121781071Y-64988095D01*
X121742976Y-65064285D01*
X121742976Y-65140476D01*
X121781071Y-65216666D01*
X121819166Y-65254761D01*
X121895357Y-65292857D01*
X122162023Y-65292857D01*
X120904880Y-65711904D02*
X121171547Y-65330952D01*
X121362023Y-65711904D02*
X121362023Y-64911904D01*
X121057261Y-64911904D01*
X120981071Y-64950000D01*
X120942976Y-64988095D01*
X120904880Y-65064285D01*
X120904880Y-65178571D01*
X120942976Y-65254761D01*
X120981071Y-65292857D01*
X121057261Y-65330952D01*
X121362023Y-65330952D01*
X120562023Y-65292857D02*
X120295357Y-65292857D01*
X120181071Y-65711904D02*
X120562023Y-65711904D01*
X120562023Y-64911904D01*
X120181071Y-64911904D01*
X119914404Y-64911904D02*
X119419166Y-64911904D01*
X119685833Y-65216666D01*
X119571547Y-65216666D01*
X119495357Y-65254761D01*
X119457261Y-65292857D01*
X119419166Y-65369047D01*
X119419166Y-65559523D01*
X119457261Y-65635714D01*
X119495357Y-65673809D01*
X119571547Y-65711904D01*
X119800119Y-65711904D01*
X119876309Y-65673809D01*
X119914404Y-65635714D01*
X118047738Y-64950000D02*
X118123928Y-64911904D01*
X118238214Y-64911904D01*
X118352500Y-64950000D01*
X118428690Y-65026190D01*
X118466785Y-65102380D01*
X118504880Y-65254761D01*
X118504880Y-65369047D01*
X118466785Y-65521428D01*
X118428690Y-65597619D01*
X118352500Y-65673809D01*
X118238214Y-65711904D01*
X118162023Y-65711904D01*
X118047738Y-65673809D01*
X118009642Y-65635714D01*
X118009642Y-65369047D01*
X118162023Y-65369047D01*
X117704880Y-65483333D02*
X117323928Y-65483333D01*
X117781071Y-65711904D02*
X117514404Y-64911904D01*
X117247738Y-65711904D01*
X117019166Y-65673809D02*
X116904880Y-65711904D01*
X116714404Y-65711904D01*
X116638214Y-65673809D01*
X116600119Y-65635714D01*
X116562023Y-65559523D01*
X116562023Y-65483333D01*
X116600119Y-65407142D01*
X116638214Y-65369047D01*
X116714404Y-65330952D01*
X116866785Y-65292857D01*
X116942976Y-65254761D01*
X116981071Y-65216666D01*
X117019166Y-65140476D01*
X117019166Y-65064285D01*
X116981071Y-64988095D01*
X116942976Y-64950000D01*
X116866785Y-64911904D01*
X116676309Y-64911904D01*
X116562023Y-64950000D01*
X116295357Y-64911904D02*
X115800119Y-64911904D01*
X116066785Y-65216666D01*
X115952500Y-65216666D01*
X115876309Y-65254761D01*
X115838214Y-65292857D01*
X115800119Y-65369047D01*
X115800119Y-65559523D01*
X115838214Y-65635714D01*
X115876309Y-65673809D01*
X115952500Y-65711904D01*
X116181071Y-65711904D01*
X116257261Y-65673809D01*
X116295357Y-65635714D01*
X114581071Y-65292857D02*
X114466785Y-65330952D01*
X114428690Y-65369047D01*
X114390595Y-65445238D01*
X114390595Y-65559523D01*
X114428690Y-65635714D01*
X114466785Y-65673809D01*
X114542976Y-65711904D01*
X114847738Y-65711904D01*
X114847738Y-64911904D01*
X114581071Y-64911904D01*
X114504880Y-64950000D01*
X114466785Y-64988095D01*
X114428690Y-65064285D01*
X114428690Y-65140476D01*
X114466785Y-65216666D01*
X114504880Y-65254761D01*
X114581071Y-65292857D01*
X114847738Y-65292857D01*
X113590595Y-65711904D02*
X113857261Y-65330952D01*
X114047738Y-65711904D02*
X114047738Y-64911904D01*
X113742976Y-64911904D01*
X113666785Y-64950000D01*
X113628690Y-64988095D01*
X113590595Y-65064285D01*
X113590595Y-65178571D01*
X113628690Y-65254761D01*
X113666785Y-65292857D01*
X113742976Y-65330952D01*
X114047738Y-65330952D01*
X113247738Y-65292857D02*
X112981071Y-65292857D01*
X112866785Y-65711904D02*
X113247738Y-65711904D01*
X113247738Y-64911904D01*
X112866785Y-64911904D01*
X111495357Y-64950000D02*
X111571547Y-64911904D01*
X111685833Y-64911904D01*
X111800119Y-64950000D01*
X111876309Y-65026190D01*
X111914404Y-65102380D01*
X111952500Y-65254761D01*
X111952500Y-65369047D01*
X111914404Y-65521428D01*
X111876309Y-65597619D01*
X111800119Y-65673809D01*
X111685833Y-65711904D01*
X111609642Y-65711904D01*
X111495357Y-65673809D01*
X111457261Y-65635714D01*
X111457261Y-65369047D01*
X111609642Y-65369047D01*
X111152500Y-65483333D02*
X110771547Y-65483333D01*
X111228690Y-65711904D02*
X110962023Y-64911904D01*
X110695357Y-65711904D01*
X110466785Y-65673809D02*
X110352500Y-65711904D01*
X110162023Y-65711904D01*
X110085833Y-65673809D01*
X110047738Y-65635714D01*
X110009642Y-65559523D01*
X110009642Y-65483333D01*
X110047738Y-65407142D01*
X110085833Y-65369047D01*
X110162023Y-65330952D01*
X110314404Y-65292857D01*
X110390595Y-65254761D01*
X110428690Y-65216666D01*
X110466785Y-65140476D01*
X110466785Y-65064285D01*
X110428690Y-64988095D01*
X110390595Y-64950000D01*
X110314404Y-64911904D01*
X110123928Y-64911904D01*
X110009642Y-64950000D01*
X121742976Y-66238000D02*
X121819166Y-66199904D01*
X121933452Y-66199904D01*
X122047738Y-66238000D01*
X122123928Y-66314190D01*
X122162023Y-66390380D01*
X122200119Y-66542761D01*
X122200119Y-66657047D01*
X122162023Y-66809428D01*
X122123928Y-66885619D01*
X122047738Y-66961809D01*
X121933452Y-66999904D01*
X121857261Y-66999904D01*
X121742976Y-66961809D01*
X121704880Y-66923714D01*
X121704880Y-66657047D01*
X121857261Y-66657047D01*
X121362023Y-66999904D02*
X121362023Y-66199904D01*
X120904880Y-66999904D01*
X120904880Y-66199904D01*
X120523928Y-66999904D02*
X120523928Y-66199904D01*
X120333452Y-66199904D01*
X120219166Y-66238000D01*
X120142976Y-66314190D01*
X120104880Y-66390380D01*
X120066785Y-66542761D01*
X120066785Y-66657047D01*
X120104880Y-66809428D01*
X120142976Y-66885619D01*
X120219166Y-66961809D01*
X120333452Y-66999904D01*
X120523928Y-66999904D01*
X118085833Y-66238000D02*
X118162023Y-66199904D01*
X118276309Y-66199904D01*
X118390595Y-66238000D01*
X118466785Y-66314190D01*
X118504880Y-66390380D01*
X118542976Y-66542761D01*
X118542976Y-66657047D01*
X118504880Y-66809428D01*
X118466785Y-66885619D01*
X118390595Y-66961809D01*
X118276309Y-66999904D01*
X118200119Y-66999904D01*
X118085833Y-66961809D01*
X118047738Y-66923714D01*
X118047738Y-66657047D01*
X118200119Y-66657047D01*
X117704880Y-66999904D02*
X117704880Y-66199904D01*
X117247738Y-66999904D01*
X117247738Y-66199904D01*
X116866785Y-66999904D02*
X116866785Y-66199904D01*
X116676309Y-66199904D01*
X116562023Y-66238000D01*
X116485833Y-66314190D01*
X116447738Y-66390380D01*
X116409642Y-66542761D01*
X116409642Y-66657047D01*
X116447738Y-66809428D01*
X116485833Y-66885619D01*
X116562023Y-66961809D01*
X116676309Y-66999904D01*
X116866785Y-66999904D01*
X114428690Y-66238000D02*
X114504880Y-66199904D01*
X114619166Y-66199904D01*
X114733452Y-66238000D01*
X114809642Y-66314190D01*
X114847738Y-66390380D01*
X114885833Y-66542761D01*
X114885833Y-66657047D01*
X114847738Y-66809428D01*
X114809642Y-66885619D01*
X114733452Y-66961809D01*
X114619166Y-66999904D01*
X114542976Y-66999904D01*
X114428690Y-66961809D01*
X114390595Y-66923714D01*
X114390595Y-66657047D01*
X114542976Y-66657047D01*
X114047738Y-66999904D02*
X114047738Y-66199904D01*
X113590595Y-66999904D01*
X113590595Y-66199904D01*
X113209642Y-66999904D02*
X113209642Y-66199904D01*
X113019166Y-66199904D01*
X112904880Y-66238000D01*
X112828690Y-66314190D01*
X112790595Y-66390380D01*
X112752500Y-66542761D01*
X112752500Y-66657047D01*
X112790595Y-66809428D01*
X112828690Y-66885619D01*
X112904880Y-66961809D01*
X113019166Y-66999904D01*
X113209642Y-66999904D01*
X111381071Y-66238000D02*
X111457261Y-66199904D01*
X111571547Y-66199904D01*
X111685833Y-66238000D01*
X111762023Y-66314190D01*
X111800119Y-66390380D01*
X111838214Y-66542761D01*
X111838214Y-66657047D01*
X111800119Y-66809428D01*
X111762023Y-66885619D01*
X111685833Y-66961809D01*
X111571547Y-66999904D01*
X111495357Y-66999904D01*
X111381071Y-66961809D01*
X111342976Y-66923714D01*
X111342976Y-66657047D01*
X111495357Y-66657047D01*
X111000119Y-66999904D02*
X111000119Y-66199904D01*
X110542976Y-66999904D01*
X110542976Y-66199904D01*
X110162023Y-66999904D02*
X110162023Y-66199904D01*
X109971547Y-66199904D01*
X109857261Y-66238000D01*
X109781071Y-66314190D01*
X109742976Y-66390380D01*
X109704880Y-66542761D01*
X109704880Y-66657047D01*
X109742976Y-66809428D01*
X109781071Y-66885619D01*
X109857261Y-66961809D01*
X109971547Y-66999904D01*
X110162023Y-66999904D01*
X121750000Y-62261904D02*
X122083333Y-62261904D01*
X122083333Y-61461904D01*
X121516666Y-61842857D02*
X121283333Y-61842857D01*
X121183333Y-62261904D02*
X121516666Y-62261904D01*
X121516666Y-61461904D01*
X121183333Y-61461904D01*
X120883333Y-62261904D02*
X120883333Y-61461904D01*
X120716666Y-61461904D01*
X120616666Y-61500000D01*
X120550000Y-61576190D01*
X120516666Y-61652380D01*
X120483333Y-61804761D01*
X120483333Y-61919047D01*
X120516666Y-62071428D01*
X120550000Y-62147619D01*
X120616666Y-62223809D01*
X120716666Y-62261904D01*
X120883333Y-62261904D01*
X116880952Y-53178571D02*
X116738095Y-53226190D01*
X116690476Y-53273809D01*
X116642857Y-53369047D01*
X116642857Y-53511904D01*
X116690476Y-53607142D01*
X116738095Y-53654761D01*
X116833333Y-53702380D01*
X117214285Y-53702380D01*
X117214285Y-52702380D01*
X116880952Y-52702380D01*
X116785714Y-52750000D01*
X116738095Y-52797619D01*
X116690476Y-52892857D01*
X116690476Y-52988095D01*
X116738095Y-53083333D01*
X116785714Y-53130952D01*
X116880952Y-53178571D01*
X117214285Y-53178571D01*
X116309523Y-52702380D02*
X115642857Y-52702380D01*
X116309523Y-53702380D01*
X115642857Y-53702380D01*
X114738095Y-53702380D02*
X115309523Y-53702380D01*
X115023809Y-53702380D02*
X115023809Y-52702380D01*
X115119047Y-52845238D01*
X115214285Y-52940476D01*
X115309523Y-52988095D01*
D11*
X134050000Y-51050000D02*
G75*
G03*
X134750000Y-51750000I700000J0D01*
G01*
X135350000Y-51750000D02*
G75*
G03*
X136050000Y-51050000I0J700000D01*
G01*
X136050000Y-49650000D02*
G75*
G03*
X135350000Y-48950000I-700000J0D01*
G01*
X134750000Y-48950000D02*
G75*
G03*
X134050000Y-49650000I0J-700000D01*
G01*
X135350000Y-48950000D02*
X134750000Y-48950000D01*
X136050000Y-51050000D02*
X136050000Y-49650000D01*
X134750000Y-51750000D02*
X135350000Y-51750000D01*
X134050000Y-49650000D02*
X134050000Y-51050000D01*
X105025000Y-51135000D02*
X105025000Y-48885000D01*
X125610000Y-33090000D02*
X125610000Y-37640000D01*
X103900000Y-50010000D02*
X106150000Y-50010000D01*
X107454437Y-52310000D02*
X125610000Y-52310000D01*
X107454437Y-33090000D02*
X125610000Y-33090000D01*
X106390000Y-34154437D02*
X107454437Y-33090000D01*
X106390000Y-34154437D02*
X106390000Y-37640000D01*
X125610000Y-52310000D02*
X125610000Y-47760000D01*
X106390000Y-51245563D02*
X107454437Y-52310000D01*
X106390000Y-51245563D02*
X106390000Y-47760000D01*
M02*
