G04 #@! TF.GenerationSoftware,KiCad,Pcbnew,(5.1.10)-1*
G04 #@! TF.CreationDate,2021-06-02T11:06:51+02:00*
G04 #@! TF.ProjectId,bobbycar,626f6262-7963-4617-922e-6b696361645f,rev?*
G04 #@! TF.SameCoordinates,Original*
G04 #@! TF.FileFunction,Legend,Top*
G04 #@! TF.FilePolarity,Positive*
%FSLAX46Y46*%
G04 Gerber Fmt 4.6, Leading zero omitted, Abs format (unit mm)*
G04 Created by KiCad (PCBNEW (5.1.10)-1) date 2021-06-02 11:06:51*
%MOMM*%
%LPD*%
G01*
G04 APERTURE LIST*
%ADD10C,0.200000*%
%ADD11C,0.150000*%
%ADD12C,0.100000*%
%ADD13C,0.120000*%
G04 APERTURE END LIST*
D10*
X109338095Y-64361904D02*
X109338095Y-63561904D01*
X109871428Y-63561904D02*
X110023809Y-63561904D01*
X110100000Y-63600000D01*
X110176190Y-63676190D01*
X110214285Y-63828571D01*
X110214285Y-64095238D01*
X110176190Y-64247619D01*
X110100000Y-64323809D01*
X110023809Y-64361904D01*
X109871428Y-64361904D01*
X109795238Y-64323809D01*
X109719047Y-64247619D01*
X109680952Y-64095238D01*
X109680952Y-63828571D01*
X109719047Y-63676190D01*
X109795238Y-63600000D01*
X109871428Y-63561904D01*
X110519047Y-63638095D02*
X110557142Y-63600000D01*
X110633333Y-63561904D01*
X110823809Y-63561904D01*
X110900000Y-63600000D01*
X110938095Y-63638095D01*
X110976190Y-63714285D01*
X110976190Y-63790476D01*
X110938095Y-63904761D01*
X110480952Y-64361904D01*
X110976190Y-64361904D01*
X111242857Y-63561904D02*
X111776190Y-63561904D01*
X111433333Y-64361904D01*
X113909523Y-64361904D02*
X113909523Y-63561904D01*
X114442857Y-63561904D02*
X114595238Y-63561904D01*
X114671428Y-63600000D01*
X114747619Y-63676190D01*
X114785714Y-63828571D01*
X114785714Y-64095238D01*
X114747619Y-64247619D01*
X114671428Y-64323809D01*
X114595238Y-64361904D01*
X114442857Y-64361904D01*
X114366666Y-64323809D01*
X114290476Y-64247619D01*
X114252380Y-64095238D01*
X114252380Y-63828571D01*
X114290476Y-63676190D01*
X114366666Y-63600000D01*
X114442857Y-63561904D01*
X115547619Y-64361904D02*
X115090476Y-64361904D01*
X115319047Y-64361904D02*
X115319047Y-63561904D01*
X115242857Y-63676190D01*
X115166666Y-63752380D01*
X115090476Y-63790476D01*
X116004761Y-63904761D02*
X115928571Y-63866666D01*
X115890476Y-63828571D01*
X115852380Y-63752380D01*
X115852380Y-63714285D01*
X115890476Y-63638095D01*
X115928571Y-63600000D01*
X116004761Y-63561904D01*
X116157142Y-63561904D01*
X116233333Y-63600000D01*
X116271428Y-63638095D01*
X116309523Y-63714285D01*
X116309523Y-63752380D01*
X116271428Y-63828571D01*
X116233333Y-63866666D01*
X116157142Y-63904761D01*
X116004761Y-63904761D01*
X115928571Y-63942857D01*
X115890476Y-63980952D01*
X115852380Y-64057142D01*
X115852380Y-64209523D01*
X115890476Y-64285714D01*
X115928571Y-64323809D01*
X116004761Y-64361904D01*
X116157142Y-64361904D01*
X116233333Y-64323809D01*
X116271428Y-64285714D01*
X116309523Y-64209523D01*
X116309523Y-64057142D01*
X116271428Y-63980952D01*
X116233333Y-63942857D01*
X116157142Y-63904761D01*
X118480952Y-64361904D02*
X118480952Y-63561904D01*
X119014285Y-63561904D02*
X119166666Y-63561904D01*
X119242857Y-63600000D01*
X119319047Y-63676190D01*
X119357142Y-63828571D01*
X119357142Y-64095238D01*
X119319047Y-64247619D01*
X119242857Y-64323809D01*
X119166666Y-64361904D01*
X119014285Y-64361904D01*
X118938095Y-64323809D01*
X118861904Y-64247619D01*
X118823809Y-64095238D01*
X118823809Y-63828571D01*
X118861904Y-63676190D01*
X118938095Y-63600000D01*
X119014285Y-63561904D01*
X120042857Y-63828571D02*
X120042857Y-64361904D01*
X119852380Y-63523809D02*
X119661904Y-64095238D01*
X120157142Y-64095238D01*
X107685714Y-62261904D02*
X108180952Y-62261904D01*
X107914285Y-62566666D01*
X108028571Y-62566666D01*
X108104761Y-62604761D01*
X108142857Y-62642857D01*
X108180952Y-62719047D01*
X108180952Y-62909523D01*
X108142857Y-62985714D01*
X108104761Y-63023809D01*
X108028571Y-63061904D01*
X107800000Y-63061904D01*
X107723809Y-63023809D01*
X107685714Y-62985714D01*
X108409523Y-62261904D02*
X108676190Y-63061904D01*
X108942857Y-62261904D01*
X109133333Y-62261904D02*
X109628571Y-62261904D01*
X109361904Y-62566666D01*
X109476190Y-62566666D01*
X109552380Y-62604761D01*
X109590476Y-62642857D01*
X109628571Y-62719047D01*
X109628571Y-62909523D01*
X109590476Y-62985714D01*
X109552380Y-63023809D01*
X109476190Y-63061904D01*
X109247619Y-63061904D01*
X109171428Y-63023809D01*
X109133333Y-62985714D01*
X111800000Y-63061904D02*
X111800000Y-62261904D01*
X112333333Y-62261904D02*
X112485714Y-62261904D01*
X112561904Y-62300000D01*
X112638095Y-62376190D01*
X112676190Y-62528571D01*
X112676190Y-62795238D01*
X112638095Y-62947619D01*
X112561904Y-63023809D01*
X112485714Y-63061904D01*
X112333333Y-63061904D01*
X112257142Y-63023809D01*
X112180952Y-62947619D01*
X112142857Y-62795238D01*
X112142857Y-62528571D01*
X112180952Y-62376190D01*
X112257142Y-62300000D01*
X112333333Y-62261904D01*
X113438095Y-63061904D02*
X112980952Y-63061904D01*
X113209523Y-63061904D02*
X113209523Y-62261904D01*
X113133333Y-62376190D01*
X113057142Y-62452380D01*
X112980952Y-62490476D01*
X113819047Y-63061904D02*
X113971428Y-63061904D01*
X114047619Y-63023809D01*
X114085714Y-62985714D01*
X114161904Y-62871428D01*
X114200000Y-62719047D01*
X114200000Y-62414285D01*
X114161904Y-62338095D01*
X114123809Y-62300000D01*
X114047619Y-62261904D01*
X113895238Y-62261904D01*
X113819047Y-62300000D01*
X113780952Y-62338095D01*
X113742857Y-62414285D01*
X113742857Y-62604761D01*
X113780952Y-62680952D01*
X113819047Y-62719047D01*
X113895238Y-62757142D01*
X114047619Y-62757142D01*
X114123809Y-62719047D01*
X114161904Y-62680952D01*
X114200000Y-62604761D01*
X116371428Y-63061904D02*
X116371428Y-62261904D01*
X116904761Y-62261904D02*
X117057142Y-62261904D01*
X117133333Y-62300000D01*
X117209523Y-62376190D01*
X117247619Y-62528571D01*
X117247619Y-62795238D01*
X117209523Y-62947619D01*
X117133333Y-63023809D01*
X117057142Y-63061904D01*
X116904761Y-63061904D01*
X116828571Y-63023809D01*
X116752380Y-62947619D01*
X116714285Y-62795238D01*
X116714285Y-62528571D01*
X116752380Y-62376190D01*
X116828571Y-62300000D01*
X116904761Y-62261904D01*
X117971428Y-62261904D02*
X117590476Y-62261904D01*
X117552380Y-62642857D01*
X117590476Y-62604761D01*
X117666666Y-62566666D01*
X117857142Y-62566666D01*
X117933333Y-62604761D01*
X117971428Y-62642857D01*
X118009523Y-62719047D01*
X118009523Y-62909523D01*
X117971428Y-62985714D01*
X117933333Y-63023809D01*
X117857142Y-63061904D01*
X117666666Y-63061904D01*
X117590476Y-63023809D01*
X117552380Y-62985714D01*
X120600000Y-62300000D02*
X120523809Y-62261904D01*
X120409523Y-62261904D01*
X120295238Y-62300000D01*
X120219047Y-62376190D01*
X120180952Y-62452380D01*
X120142857Y-62604761D01*
X120142857Y-62719047D01*
X120180952Y-62871428D01*
X120219047Y-62947619D01*
X120295238Y-63023809D01*
X120409523Y-63061904D01*
X120485714Y-63061904D01*
X120600000Y-63023809D01*
X120638095Y-62985714D01*
X120638095Y-62719047D01*
X120485714Y-62719047D01*
X120980952Y-63061904D02*
X120980952Y-62261904D01*
X121438095Y-63061904D01*
X121438095Y-62261904D01*
X121819047Y-63061904D02*
X121819047Y-62261904D01*
X122009523Y-62261904D01*
X122123809Y-62300000D01*
X122200000Y-62376190D01*
X122238095Y-62452380D01*
X122276190Y-62604761D01*
X122276190Y-62719047D01*
X122238095Y-62871428D01*
X122200000Y-62947619D01*
X122123809Y-63023809D01*
X122009523Y-63061904D01*
X121819047Y-63061904D01*
D11*
X100238095Y-36975000D02*
X100142857Y-36927380D01*
X100000000Y-36927380D01*
X99857142Y-36975000D01*
X99761904Y-37070238D01*
X99714285Y-37165476D01*
X99666666Y-37355952D01*
X99666666Y-37498809D01*
X99714285Y-37689285D01*
X99761904Y-37784523D01*
X99857142Y-37879761D01*
X100000000Y-37927380D01*
X100095238Y-37927380D01*
X100238095Y-37879761D01*
X100285714Y-37832142D01*
X100285714Y-37498809D01*
X100095238Y-37498809D01*
X100714285Y-37927380D02*
X100714285Y-36927380D01*
X101285714Y-37927380D01*
X101285714Y-36927380D01*
X101761904Y-37927380D02*
X101761904Y-36927380D01*
X102000000Y-36927380D01*
X102142857Y-36975000D01*
X102238095Y-37070238D01*
X102285714Y-37165476D01*
X102333333Y-37355952D01*
X102333333Y-37498809D01*
X102285714Y-37689285D01*
X102238095Y-37784523D01*
X102142857Y-37879761D01*
X102000000Y-37927380D01*
X101761904Y-37927380D01*
X99523809Y-39577380D02*
X99523809Y-38577380D01*
X100190476Y-38577380D02*
X100380952Y-38577380D01*
X100476190Y-38625000D01*
X100571428Y-38720238D01*
X100619047Y-38910714D01*
X100619047Y-39244047D01*
X100571428Y-39434523D01*
X100476190Y-39529761D01*
X100380952Y-39577380D01*
X100190476Y-39577380D01*
X100095238Y-39529761D01*
X100000000Y-39434523D01*
X99952380Y-39244047D01*
X99952380Y-38910714D01*
X100000000Y-38720238D01*
X100095238Y-38625000D01*
X100190476Y-38577380D01*
X100952380Y-38577380D02*
X101571428Y-38577380D01*
X101238095Y-38958333D01*
X101380952Y-38958333D01*
X101476190Y-39005952D01*
X101523809Y-39053571D01*
X101571428Y-39148809D01*
X101571428Y-39386904D01*
X101523809Y-39482142D01*
X101476190Y-39529761D01*
X101380952Y-39577380D01*
X101095238Y-39577380D01*
X101000000Y-39529761D01*
X100952380Y-39482142D01*
X101952380Y-38672619D02*
X102000000Y-38625000D01*
X102095238Y-38577380D01*
X102333333Y-38577380D01*
X102428571Y-38625000D01*
X102476190Y-38672619D01*
X102523809Y-38767857D01*
X102523809Y-38863095D01*
X102476190Y-39005952D01*
X101904761Y-39577380D01*
X102523809Y-39577380D01*
X99523809Y-41227380D02*
X99523809Y-40227380D01*
X100190476Y-40227380D02*
X100380952Y-40227380D01*
X100476190Y-40275000D01*
X100571428Y-40370238D01*
X100619047Y-40560714D01*
X100619047Y-40894047D01*
X100571428Y-41084523D01*
X100476190Y-41179761D01*
X100380952Y-41227380D01*
X100190476Y-41227380D01*
X100095238Y-41179761D01*
X100000000Y-41084523D01*
X99952380Y-40894047D01*
X99952380Y-40560714D01*
X100000000Y-40370238D01*
X100095238Y-40275000D01*
X100190476Y-40227380D01*
X100952380Y-40227380D02*
X101571428Y-40227380D01*
X101238095Y-40608333D01*
X101380952Y-40608333D01*
X101476190Y-40655952D01*
X101523809Y-40703571D01*
X101571428Y-40798809D01*
X101571428Y-41036904D01*
X101523809Y-41132142D01*
X101476190Y-41179761D01*
X101380952Y-41227380D01*
X101095238Y-41227380D01*
X101000000Y-41179761D01*
X100952380Y-41132142D01*
X101904761Y-40227380D02*
X102523809Y-40227380D01*
X102190476Y-40608333D01*
X102333333Y-40608333D01*
X102428571Y-40655952D01*
X102476190Y-40703571D01*
X102523809Y-40798809D01*
X102523809Y-41036904D01*
X102476190Y-41132142D01*
X102428571Y-41179761D01*
X102333333Y-41227380D01*
X102047619Y-41227380D01*
X101952380Y-41179761D01*
X101904761Y-41132142D01*
X99523809Y-42877380D02*
X99523809Y-41877380D01*
X100190476Y-41877380D02*
X100380952Y-41877380D01*
X100476190Y-41925000D01*
X100571428Y-42020238D01*
X100619047Y-42210714D01*
X100619047Y-42544047D01*
X100571428Y-42734523D01*
X100476190Y-42829761D01*
X100380952Y-42877380D01*
X100190476Y-42877380D01*
X100095238Y-42829761D01*
X100000000Y-42734523D01*
X99952380Y-42544047D01*
X99952380Y-42210714D01*
X100000000Y-42020238D01*
X100095238Y-41925000D01*
X100190476Y-41877380D01*
X101000000Y-41972619D02*
X101047619Y-41925000D01*
X101142857Y-41877380D01*
X101380952Y-41877380D01*
X101476190Y-41925000D01*
X101523809Y-41972619D01*
X101571428Y-42067857D01*
X101571428Y-42163095D01*
X101523809Y-42305952D01*
X100952380Y-42877380D01*
X101571428Y-42877380D01*
X102476190Y-41877380D02*
X102000000Y-41877380D01*
X101952380Y-42353571D01*
X102000000Y-42305952D01*
X102095238Y-42258333D01*
X102333333Y-42258333D01*
X102428571Y-42305952D01*
X102476190Y-42353571D01*
X102523809Y-42448809D01*
X102523809Y-42686904D01*
X102476190Y-42782142D01*
X102428571Y-42829761D01*
X102333333Y-42877380D01*
X102095238Y-42877380D01*
X102000000Y-42829761D01*
X101952380Y-42782142D01*
X99523809Y-44527380D02*
X99523809Y-43527380D01*
X100190476Y-43527380D02*
X100380952Y-43527380D01*
X100476190Y-43575000D01*
X100571428Y-43670238D01*
X100619047Y-43860714D01*
X100619047Y-44194047D01*
X100571428Y-44384523D01*
X100476190Y-44479761D01*
X100380952Y-44527380D01*
X100190476Y-44527380D01*
X100095238Y-44479761D01*
X100000000Y-44384523D01*
X99952380Y-44194047D01*
X99952380Y-43860714D01*
X100000000Y-43670238D01*
X100095238Y-43575000D01*
X100190476Y-43527380D01*
X101000000Y-43622619D02*
X101047619Y-43575000D01*
X101142857Y-43527380D01*
X101380952Y-43527380D01*
X101476190Y-43575000D01*
X101523809Y-43622619D01*
X101571428Y-43717857D01*
X101571428Y-43813095D01*
X101523809Y-43955952D01*
X100952380Y-44527380D01*
X101571428Y-44527380D01*
X102428571Y-43527380D02*
X102238095Y-43527380D01*
X102142857Y-43575000D01*
X102095238Y-43622619D01*
X102000000Y-43765476D01*
X101952380Y-43955952D01*
X101952380Y-44336904D01*
X102000000Y-44432142D01*
X102047619Y-44479761D01*
X102142857Y-44527380D01*
X102333333Y-44527380D01*
X102428571Y-44479761D01*
X102476190Y-44432142D01*
X102523809Y-44336904D01*
X102523809Y-44098809D01*
X102476190Y-44003571D01*
X102428571Y-43955952D01*
X102333333Y-43908333D01*
X102142857Y-43908333D01*
X102047619Y-43955952D01*
X102000000Y-44003571D01*
X101952380Y-44098809D01*
X99761904Y-45177380D02*
X100380952Y-45177380D01*
X100047619Y-45558333D01*
X100190476Y-45558333D01*
X100285714Y-45605952D01*
X100333333Y-45653571D01*
X100380952Y-45748809D01*
X100380952Y-45986904D01*
X100333333Y-46082142D01*
X100285714Y-46129761D01*
X100190476Y-46177380D01*
X99904761Y-46177380D01*
X99809523Y-46129761D01*
X99761904Y-46082142D01*
X100666666Y-45177380D02*
X101000000Y-46177380D01*
X101333333Y-45177380D01*
X101571428Y-45177380D02*
X102190476Y-45177380D01*
X101857142Y-45558333D01*
X102000000Y-45558333D01*
X102095238Y-45605952D01*
X102142857Y-45653571D01*
X102190476Y-45748809D01*
X102190476Y-45986904D01*
X102142857Y-46082142D01*
X102095238Y-46129761D01*
X102000000Y-46177380D01*
X101714285Y-46177380D01*
X101619047Y-46129761D01*
X101571428Y-46082142D01*
D12*
X126257714Y-35629809D02*
X126372000Y-35667904D01*
X126562476Y-35667904D01*
X126638666Y-35629809D01*
X126676761Y-35591714D01*
X126714857Y-35515523D01*
X126714857Y-35439333D01*
X126676761Y-35363142D01*
X126638666Y-35325047D01*
X126562476Y-35286952D01*
X126410095Y-35248857D01*
X126333904Y-35210761D01*
X126295809Y-35172666D01*
X126257714Y-35096476D01*
X126257714Y-35020285D01*
X126295809Y-34944095D01*
X126333904Y-34906000D01*
X126410095Y-34867904D01*
X126600571Y-34867904D01*
X126714857Y-34906000D01*
X127514857Y-35591714D02*
X127476761Y-35629809D01*
X127362476Y-35667904D01*
X127286285Y-35667904D01*
X127172000Y-35629809D01*
X127095809Y-35553619D01*
X127057714Y-35477428D01*
X127019619Y-35325047D01*
X127019619Y-35210761D01*
X127057714Y-35058380D01*
X127095809Y-34982190D01*
X127172000Y-34906000D01*
X127286285Y-34867904D01*
X127362476Y-34867904D01*
X127476761Y-34906000D01*
X127514857Y-34944095D01*
X128238666Y-35667904D02*
X127857714Y-35667904D01*
X127857714Y-34867904D01*
X129076761Y-35629809D02*
X129191047Y-35667904D01*
X129381523Y-35667904D01*
X129457714Y-35629809D01*
X129495809Y-35591714D01*
X129533904Y-35515523D01*
X129533904Y-35439333D01*
X129495809Y-35363142D01*
X129457714Y-35325047D01*
X129381523Y-35286952D01*
X129229142Y-35248857D01*
X129152952Y-35210761D01*
X129114857Y-35172666D01*
X129076761Y-35096476D01*
X129076761Y-35020285D01*
X129114857Y-34944095D01*
X129152952Y-34906000D01*
X129229142Y-34867904D01*
X129419619Y-34867904D01*
X129533904Y-34906000D01*
X129876761Y-35667904D02*
X129876761Y-34867904D01*
X130067238Y-34867904D01*
X130181523Y-34906000D01*
X130257714Y-34982190D01*
X130295809Y-35058380D01*
X130333904Y-35210761D01*
X130333904Y-35325047D01*
X130295809Y-35477428D01*
X130257714Y-35553619D01*
X130181523Y-35629809D01*
X130067238Y-35667904D01*
X129876761Y-35667904D01*
X130638666Y-35439333D02*
X131019619Y-35439333D01*
X130562476Y-35667904D02*
X130829142Y-34867904D01*
X131095809Y-35667904D01*
X131895809Y-34867904D02*
X132391047Y-34867904D01*
X132124380Y-35172666D01*
X132238666Y-35172666D01*
X132314857Y-35210761D01*
X132352952Y-35248857D01*
X132391047Y-35325047D01*
X132391047Y-35515523D01*
X132352952Y-35591714D01*
X132314857Y-35629809D01*
X132238666Y-35667904D01*
X132010095Y-35667904D01*
X131933904Y-35629809D01*
X131895809Y-35591714D01*
X132619619Y-34867904D02*
X132886285Y-35667904D01*
X133152952Y-34867904D01*
X133343428Y-34867904D02*
X133838666Y-34867904D01*
X133572000Y-35172666D01*
X133686285Y-35172666D01*
X133762476Y-35210761D01*
X133800571Y-35248857D01*
X133838666Y-35325047D01*
X133838666Y-35515523D01*
X133800571Y-35591714D01*
X133762476Y-35629809D01*
X133686285Y-35667904D01*
X133457714Y-35667904D01*
X133381523Y-35629809D01*
X133343428Y-35591714D01*
X135210095Y-34906000D02*
X135133904Y-34867904D01*
X135019619Y-34867904D01*
X134905333Y-34906000D01*
X134829142Y-34982190D01*
X134791047Y-35058380D01*
X134752952Y-35210761D01*
X134752952Y-35325047D01*
X134791047Y-35477428D01*
X134829142Y-35553619D01*
X134905333Y-35629809D01*
X135019619Y-35667904D01*
X135095809Y-35667904D01*
X135210095Y-35629809D01*
X135248190Y-35591714D01*
X135248190Y-35325047D01*
X135095809Y-35325047D01*
X135591047Y-35667904D02*
X135591047Y-34867904D01*
X136048190Y-35667904D01*
X136048190Y-34867904D01*
X136429142Y-35667904D02*
X136429142Y-34867904D01*
X136619619Y-34867904D01*
X136733904Y-34906000D01*
X136810095Y-34982190D01*
X136848190Y-35058380D01*
X136886285Y-35210761D01*
X136886285Y-35325047D01*
X136848190Y-35477428D01*
X136810095Y-35553619D01*
X136733904Y-35629809D01*
X136619619Y-35667904D01*
X136429142Y-35667904D01*
D10*
X107744285Y-65261904D02*
X108239523Y-65261904D01*
X107972857Y-65566666D01*
X108087142Y-65566666D01*
X108163333Y-65604761D01*
X108201428Y-65642857D01*
X108239523Y-65719047D01*
X108239523Y-65909523D01*
X108201428Y-65985714D01*
X108163333Y-66023809D01*
X108087142Y-66061904D01*
X107858571Y-66061904D01*
X107782380Y-66023809D01*
X107744285Y-65985714D01*
X108506190Y-65528571D02*
X108696666Y-66061904D01*
X108887142Y-65528571D01*
X109115714Y-65261904D02*
X109610952Y-65261904D01*
X109344285Y-65566666D01*
X109458571Y-65566666D01*
X109534761Y-65604761D01*
X109572857Y-65642857D01*
X109610952Y-65719047D01*
X109610952Y-65909523D01*
X109572857Y-65985714D01*
X109534761Y-66023809D01*
X109458571Y-66061904D01*
X109230000Y-66061904D01*
X109153809Y-66023809D01*
X109115714Y-65985714D01*
X110487142Y-65261904D02*
X110982380Y-65261904D01*
X110715714Y-65566666D01*
X110830000Y-65566666D01*
X110906190Y-65604761D01*
X110944285Y-65642857D01*
X110982380Y-65719047D01*
X110982380Y-65909523D01*
X110944285Y-65985714D01*
X110906190Y-66023809D01*
X110830000Y-66061904D01*
X110601428Y-66061904D01*
X110525238Y-66023809D01*
X110487142Y-65985714D01*
X111210952Y-65261904D02*
X111477619Y-66061904D01*
X111744285Y-65261904D01*
X111934761Y-65261904D02*
X112430000Y-65261904D01*
X112163333Y-65566666D01*
X112277619Y-65566666D01*
X112353809Y-65604761D01*
X112391904Y-65642857D01*
X112430000Y-65719047D01*
X112430000Y-65909523D01*
X112391904Y-65985714D01*
X112353809Y-66023809D01*
X112277619Y-66061904D01*
X112049047Y-66061904D01*
X111972857Y-66023809D01*
X111934761Y-65985714D01*
X108087142Y-67042857D02*
X108201428Y-67080952D01*
X108239523Y-67119047D01*
X108277619Y-67195238D01*
X108277619Y-67309523D01*
X108239523Y-67385714D01*
X108201428Y-67423809D01*
X108125238Y-67461904D01*
X107820476Y-67461904D01*
X107820476Y-66661904D01*
X108087142Y-66661904D01*
X108163333Y-66700000D01*
X108201428Y-66738095D01*
X108239523Y-66814285D01*
X108239523Y-66890476D01*
X108201428Y-66966666D01*
X108163333Y-67004761D01*
X108087142Y-67042857D01*
X107820476Y-67042857D01*
X109077619Y-67461904D02*
X108810952Y-67080952D01*
X108620476Y-67461904D02*
X108620476Y-66661904D01*
X108925238Y-66661904D01*
X109001428Y-66700000D01*
X109039523Y-66738095D01*
X109077619Y-66814285D01*
X109077619Y-66928571D01*
X109039523Y-67004761D01*
X109001428Y-67042857D01*
X108925238Y-67080952D01*
X108620476Y-67080952D01*
X109420476Y-67042857D02*
X109687142Y-67042857D01*
X109801428Y-67461904D02*
X109420476Y-67461904D01*
X109420476Y-66661904D01*
X109801428Y-66661904D01*
X111172857Y-66700000D02*
X111096666Y-66661904D01*
X110982380Y-66661904D01*
X110868095Y-66700000D01*
X110791904Y-66776190D01*
X110753809Y-66852380D01*
X110715714Y-67004761D01*
X110715714Y-67119047D01*
X110753809Y-67271428D01*
X110791904Y-67347619D01*
X110868095Y-67423809D01*
X110982380Y-67461904D01*
X111058571Y-67461904D01*
X111172857Y-67423809D01*
X111210952Y-67385714D01*
X111210952Y-67119047D01*
X111058571Y-67119047D01*
X111515714Y-67233333D02*
X111896666Y-67233333D01*
X111439523Y-67461904D02*
X111706190Y-66661904D01*
X111972857Y-67461904D01*
X112201428Y-67423809D02*
X112315714Y-67461904D01*
X112506190Y-67461904D01*
X112582380Y-67423809D01*
X112620476Y-67385714D01*
X112658571Y-67309523D01*
X112658571Y-67233333D01*
X112620476Y-67157142D01*
X112582380Y-67119047D01*
X112506190Y-67080952D01*
X112353809Y-67042857D01*
X112277619Y-67004761D01*
X112239523Y-66966666D01*
X112201428Y-66890476D01*
X112201428Y-66814285D01*
X112239523Y-66738095D01*
X112277619Y-66700000D01*
X112353809Y-66661904D01*
X112544285Y-66661904D01*
X112658571Y-66700000D01*
X108239523Y-68100000D02*
X108163333Y-68061904D01*
X108049047Y-68061904D01*
X107934761Y-68100000D01*
X107858571Y-68176190D01*
X107820476Y-68252380D01*
X107782380Y-68404761D01*
X107782380Y-68519047D01*
X107820476Y-68671428D01*
X107858571Y-68747619D01*
X107934761Y-68823809D01*
X108049047Y-68861904D01*
X108125238Y-68861904D01*
X108239523Y-68823809D01*
X108277619Y-68785714D01*
X108277619Y-68519047D01*
X108125238Y-68519047D01*
X108620476Y-68861904D02*
X108620476Y-68061904D01*
X109077619Y-68861904D01*
X109077619Y-68061904D01*
X109458571Y-68861904D02*
X109458571Y-68061904D01*
X109649047Y-68061904D01*
X109763333Y-68100000D01*
X109839523Y-68176190D01*
X109877619Y-68252380D01*
X109915714Y-68404761D01*
X109915714Y-68519047D01*
X109877619Y-68671428D01*
X109839523Y-68747619D01*
X109763333Y-68823809D01*
X109649047Y-68861904D01*
X109458571Y-68861904D01*
X111287142Y-68100000D02*
X111210952Y-68061904D01*
X111096666Y-68061904D01*
X110982380Y-68100000D01*
X110906190Y-68176190D01*
X110868095Y-68252380D01*
X110830000Y-68404761D01*
X110830000Y-68519047D01*
X110868095Y-68671428D01*
X110906190Y-68747619D01*
X110982380Y-68823809D01*
X111096666Y-68861904D01*
X111172857Y-68861904D01*
X111287142Y-68823809D01*
X111325238Y-68785714D01*
X111325238Y-68519047D01*
X111172857Y-68519047D01*
X111668095Y-68861904D02*
X111668095Y-68061904D01*
X112125238Y-68861904D01*
X112125238Y-68061904D01*
X112506190Y-68861904D02*
X112506190Y-68061904D01*
X112696666Y-68061904D01*
X112810952Y-68100000D01*
X112887142Y-68176190D01*
X112925238Y-68252380D01*
X112963333Y-68404761D01*
X112963333Y-68519047D01*
X112925238Y-68671428D01*
X112887142Y-68747619D01*
X112810952Y-68823809D01*
X112696666Y-68861904D01*
X112506190Y-68861904D01*
D11*
X125452380Y-55823809D02*
X125566666Y-55861904D01*
X125757142Y-55861904D01*
X125833333Y-55823809D01*
X125871428Y-55785714D01*
X125909523Y-55709523D01*
X125909523Y-55633333D01*
X125871428Y-55557142D01*
X125833333Y-55519047D01*
X125757142Y-55480952D01*
X125604761Y-55442857D01*
X125528571Y-55404761D01*
X125490476Y-55366666D01*
X125452380Y-55290476D01*
X125452380Y-55214285D01*
X125490476Y-55138095D01*
X125528571Y-55100000D01*
X125604761Y-55061904D01*
X125795238Y-55061904D01*
X125909523Y-55100000D01*
X126252380Y-55861904D02*
X126252380Y-55061904D01*
X126442857Y-55061904D01*
X126557142Y-55100000D01*
X126633333Y-55176190D01*
X126671428Y-55252380D01*
X126709523Y-55404761D01*
X126709523Y-55519047D01*
X126671428Y-55671428D01*
X126633333Y-55747619D01*
X126557142Y-55823809D01*
X126442857Y-55861904D01*
X126252380Y-55861904D01*
X127204761Y-55061904D02*
X127357142Y-55061904D01*
X127433333Y-55100000D01*
X127509523Y-55176190D01*
X127547619Y-55328571D01*
X127547619Y-55595238D01*
X127509523Y-55747619D01*
X127433333Y-55823809D01*
X127357142Y-55861904D01*
X127204761Y-55861904D01*
X127128571Y-55823809D01*
X127052380Y-55747619D01*
X127014285Y-55595238D01*
X127014285Y-55328571D01*
X127052380Y-55176190D01*
X127128571Y-55100000D01*
X127204761Y-55061904D01*
X123485714Y-55861904D02*
X123104761Y-55861904D01*
X123104761Y-55061904D01*
X123752380Y-55442857D02*
X124019047Y-55442857D01*
X124133333Y-55861904D02*
X123752380Y-55861904D01*
X123752380Y-55061904D01*
X124133333Y-55061904D01*
X124476190Y-55861904D02*
X124476190Y-55061904D01*
X124666666Y-55061904D01*
X124780952Y-55100000D01*
X124857142Y-55176190D01*
X124895238Y-55252380D01*
X124933333Y-55404761D01*
X124933333Y-55519047D01*
X124895238Y-55671428D01*
X124857142Y-55747619D01*
X124780952Y-55823809D01*
X124666666Y-55861904D01*
X124476190Y-55861904D01*
X119971428Y-55823809D02*
X120085714Y-55861904D01*
X120276190Y-55861904D01*
X120352380Y-55823809D01*
X120390476Y-55785714D01*
X120428571Y-55709523D01*
X120428571Y-55633333D01*
X120390476Y-55557142D01*
X120352380Y-55519047D01*
X120276190Y-55480952D01*
X120123809Y-55442857D01*
X120047619Y-55404761D01*
X120009523Y-55366666D01*
X119971428Y-55290476D01*
X119971428Y-55214285D01*
X120009523Y-55138095D01*
X120047619Y-55100000D01*
X120123809Y-55061904D01*
X120314285Y-55061904D01*
X120428571Y-55100000D01*
X121228571Y-55785714D02*
X121190476Y-55823809D01*
X121076190Y-55861904D01*
X121000000Y-55861904D01*
X120885714Y-55823809D01*
X120809523Y-55747619D01*
X120771428Y-55671428D01*
X120733333Y-55519047D01*
X120733333Y-55404761D01*
X120771428Y-55252380D01*
X120809523Y-55176190D01*
X120885714Y-55100000D01*
X121000000Y-55061904D01*
X121076190Y-55061904D01*
X121190476Y-55100000D01*
X121228571Y-55138095D01*
X121571428Y-55861904D02*
X121571428Y-55061904D01*
X122028571Y-55861904D02*
X121685714Y-55404761D01*
X122028571Y-55061904D02*
X121571428Y-55519047D01*
X117680952Y-55823809D02*
X117795238Y-55861904D01*
X117985714Y-55861904D01*
X118061904Y-55823809D01*
X118100000Y-55785714D01*
X118138095Y-55709523D01*
X118138095Y-55633333D01*
X118100000Y-55557142D01*
X118061904Y-55519047D01*
X117985714Y-55480952D01*
X117833333Y-55442857D01*
X117757142Y-55404761D01*
X117719047Y-55366666D01*
X117680952Y-55290476D01*
X117680952Y-55214285D01*
X117719047Y-55138095D01*
X117757142Y-55100000D01*
X117833333Y-55061904D01*
X118023809Y-55061904D01*
X118138095Y-55100000D01*
X118480952Y-55861904D02*
X118480952Y-55061904D01*
X118671428Y-55061904D01*
X118785714Y-55100000D01*
X118861904Y-55176190D01*
X118900000Y-55252380D01*
X118938095Y-55404761D01*
X118938095Y-55519047D01*
X118900000Y-55671428D01*
X118861904Y-55747619D01*
X118785714Y-55823809D01*
X118671428Y-55861904D01*
X118480952Y-55861904D01*
X119280952Y-55861904D02*
X119280952Y-55061904D01*
X115390476Y-55861904D02*
X115390476Y-55061904D01*
X115580952Y-55061904D01*
X115695238Y-55100000D01*
X115771428Y-55176190D01*
X115809523Y-55252380D01*
X115847619Y-55404761D01*
X115847619Y-55519047D01*
X115809523Y-55671428D01*
X115771428Y-55747619D01*
X115695238Y-55823809D01*
X115580952Y-55861904D01*
X115390476Y-55861904D01*
X116647619Y-55785714D02*
X116609523Y-55823809D01*
X116495238Y-55861904D01*
X116419047Y-55861904D01*
X116304761Y-55823809D01*
X116228571Y-55747619D01*
X116190476Y-55671428D01*
X116152380Y-55519047D01*
X116152380Y-55404761D01*
X116190476Y-55252380D01*
X116228571Y-55176190D01*
X116304761Y-55100000D01*
X116419047Y-55061904D01*
X116495238Y-55061904D01*
X116609523Y-55100000D01*
X116647619Y-55138095D01*
X113004761Y-55861904D02*
X112738095Y-55480952D01*
X112547619Y-55861904D02*
X112547619Y-55061904D01*
X112852380Y-55061904D01*
X112928571Y-55100000D01*
X112966666Y-55138095D01*
X113004761Y-55214285D01*
X113004761Y-55328571D01*
X112966666Y-55404761D01*
X112928571Y-55442857D01*
X112852380Y-55480952D01*
X112547619Y-55480952D01*
X113347619Y-55442857D02*
X113614285Y-55442857D01*
X113728571Y-55861904D02*
X113347619Y-55861904D01*
X113347619Y-55061904D01*
X113728571Y-55061904D01*
X114033333Y-55823809D02*
X114147619Y-55861904D01*
X114338095Y-55861904D01*
X114414285Y-55823809D01*
X114452380Y-55785714D01*
X114490476Y-55709523D01*
X114490476Y-55633333D01*
X114452380Y-55557142D01*
X114414285Y-55519047D01*
X114338095Y-55480952D01*
X114185714Y-55442857D01*
X114109523Y-55404761D01*
X114071428Y-55366666D01*
X114033333Y-55290476D01*
X114033333Y-55214285D01*
X114071428Y-55138095D01*
X114109523Y-55100000D01*
X114185714Y-55061904D01*
X114376190Y-55061904D01*
X114490476Y-55100000D01*
X110866666Y-55785714D02*
X110828571Y-55823809D01*
X110714285Y-55861904D01*
X110638095Y-55861904D01*
X110523809Y-55823809D01*
X110447619Y-55747619D01*
X110409523Y-55671428D01*
X110371428Y-55519047D01*
X110371428Y-55404761D01*
X110409523Y-55252380D01*
X110447619Y-55176190D01*
X110523809Y-55100000D01*
X110638095Y-55061904D01*
X110714285Y-55061904D01*
X110828571Y-55100000D01*
X110866666Y-55138095D01*
X111171428Y-55823809D02*
X111285714Y-55861904D01*
X111476190Y-55861904D01*
X111552380Y-55823809D01*
X111590476Y-55785714D01*
X111628571Y-55709523D01*
X111628571Y-55633333D01*
X111590476Y-55557142D01*
X111552380Y-55519047D01*
X111476190Y-55480952D01*
X111323809Y-55442857D01*
X111247619Y-55404761D01*
X111209523Y-55366666D01*
X111171428Y-55290476D01*
X111171428Y-55214285D01*
X111209523Y-55138095D01*
X111247619Y-55100000D01*
X111323809Y-55061904D01*
X111514285Y-55061904D01*
X111628571Y-55100000D01*
X107890476Y-55100000D02*
X107814285Y-55061904D01*
X107700000Y-55061904D01*
X107585714Y-55100000D01*
X107509523Y-55176190D01*
X107471428Y-55252380D01*
X107433333Y-55404761D01*
X107433333Y-55519047D01*
X107471428Y-55671428D01*
X107509523Y-55747619D01*
X107585714Y-55823809D01*
X107700000Y-55861904D01*
X107776190Y-55861904D01*
X107890476Y-55823809D01*
X107928571Y-55785714D01*
X107928571Y-55519047D01*
X107776190Y-55519047D01*
X108271428Y-55861904D02*
X108271428Y-55061904D01*
X108728571Y-55861904D01*
X108728571Y-55061904D01*
X109109523Y-55861904D02*
X109109523Y-55061904D01*
X109300000Y-55061904D01*
X109414285Y-55100000D01*
X109490476Y-55176190D01*
X109528571Y-55252380D01*
X109566666Y-55404761D01*
X109566666Y-55519047D01*
X109528571Y-55671428D01*
X109490476Y-55747619D01*
X109414285Y-55823809D01*
X109300000Y-55861904D01*
X109109523Y-55861904D01*
X105009523Y-55061904D02*
X105504761Y-55061904D01*
X105238095Y-55366666D01*
X105352380Y-55366666D01*
X105428571Y-55404761D01*
X105466666Y-55442857D01*
X105504761Y-55519047D01*
X105504761Y-55709523D01*
X105466666Y-55785714D01*
X105428571Y-55823809D01*
X105352380Y-55861904D01*
X105123809Y-55861904D01*
X105047619Y-55823809D01*
X105009523Y-55785714D01*
X105733333Y-55061904D02*
X106000000Y-55861904D01*
X106266666Y-55061904D01*
X106457142Y-55061904D02*
X106952380Y-55061904D01*
X106685714Y-55366666D01*
X106800000Y-55366666D01*
X106876190Y-55404761D01*
X106914285Y-55442857D01*
X106952380Y-55519047D01*
X106952380Y-55709523D01*
X106914285Y-55785714D01*
X106876190Y-55823809D01*
X106800000Y-55861904D01*
X106571428Y-55861904D01*
X106495238Y-55823809D01*
X106457142Y-55785714D01*
D13*
X116000000Y-50500000D02*
X116000000Y-54500000D01*
X95970000Y-49010000D02*
X98630000Y-49010000D01*
X95970000Y-36250000D02*
X95970000Y-49010000D01*
X98630000Y-36250000D02*
X98630000Y-49010000D01*
X95970000Y-36250000D02*
X98630000Y-36250000D01*
X95970000Y-34980000D02*
X95970000Y-33650000D01*
X95970000Y-33650000D02*
X97300000Y-33650000D01*
X122930000Y-61930000D02*
X122930000Y-59270000D01*
X107630000Y-61930000D02*
X122930000Y-61930000D01*
X107630000Y-59270000D02*
X122930000Y-59270000D01*
X107630000Y-61930000D02*
X107630000Y-59270000D01*
X106360000Y-61930000D02*
X105030000Y-61930000D01*
X105030000Y-61930000D02*
X105030000Y-60600000D01*
X130040000Y-49800000D02*
X130040000Y-51750000D01*
X130040000Y-49800000D02*
X130040000Y-47850000D01*
X135160000Y-49800000D02*
X135160000Y-51750000D01*
X135160000Y-49800000D02*
X135160000Y-46350000D01*
X123500000Y-69150000D02*
X118100000Y-69150000D01*
X123500000Y-65850000D02*
X118100000Y-65850000D01*
X123500000Y-69150000D02*
X123500000Y-65850000D01*
X106880000Y-53100000D02*
X106880000Y-53880000D01*
X106880000Y-53880000D02*
X107880000Y-53880000D01*
X125120000Y-53100000D02*
X125120000Y-53880000D01*
X125120000Y-53880000D02*
X124120000Y-53880000D01*
X106880000Y-28135000D02*
X125120000Y-28135000D01*
X125120000Y-28135000D02*
X125120000Y-34555000D01*
X106880000Y-28135000D02*
X106880000Y-34555000D01*
X106880000Y-34555000D02*
X106500000Y-34555000D01*
X127900000Y-70110000D02*
X129700000Y-70110000D01*
X129700000Y-66890000D02*
X127250000Y-66890000D01*
X126622500Y-69462742D02*
X126622500Y-69937258D01*
X125577500Y-69462742D02*
X125577500Y-69937258D01*
X128162742Y-70577500D02*
X128637258Y-70577500D01*
X128162742Y-71622500D02*
X128637258Y-71622500D01*
X130977500Y-70237258D02*
X130977500Y-69762742D01*
X132022500Y-70237258D02*
X132022500Y-69762742D01*
X130800000Y-63200000D02*
X136200000Y-63200000D01*
X130800000Y-68400000D02*
X136200000Y-68400000D01*
X136200000Y-63200000D02*
X136200000Y-68400000D01*
X130800000Y-63200000D02*
X130800000Y-68400000D01*
X130600000Y-66550000D02*
X130600000Y-63250000D01*
X130600000Y-63250000D02*
X125200000Y-63250000D01*
X130600000Y-66550000D02*
X125200000Y-66550000D01*
X134565000Y-70461252D02*
X134565000Y-69938748D01*
X136035000Y-70461252D02*
X136035000Y-69938748D01*
X125234420Y-66890000D02*
X125515580Y-66890000D01*
X125234420Y-67910000D02*
X125515580Y-67910000D01*
X132565000Y-70461252D02*
X132565000Y-69938748D01*
X134035000Y-70461252D02*
X134035000Y-69938748D01*
X127722500Y-60737258D02*
X127722500Y-60262742D01*
X126677500Y-60737258D02*
X126677500Y-60262742D01*
X124040000Y-58920000D02*
X125500000Y-58920000D01*
X124040000Y-62080000D02*
X126200000Y-62080000D01*
X124040000Y-62080000D02*
X124040000Y-61150000D01*
X124040000Y-58920000D02*
X124040000Y-59850000D01*
X134334420Y-44240000D02*
X134615580Y-44240000D01*
X134334420Y-45260000D02*
X134615580Y-45260000D01*
X103888000Y-36413221D02*
X103888000Y-36738779D01*
X102868000Y-36413221D02*
X102868000Y-36738779D01*
X131080742Y-45226500D02*
X131555258Y-45226500D01*
X131080742Y-44181500D02*
X131555258Y-44181500D01*
X131080742Y-43702500D02*
X131555258Y-43702500D01*
X131080742Y-42657500D02*
X131555258Y-42657500D01*
X101360500Y-65769258D02*
X101360500Y-65294742D01*
X100315500Y-65769258D02*
X100315500Y-65294742D01*
X100315500Y-68342742D02*
X100315500Y-68817258D01*
X101360500Y-68342742D02*
X101360500Y-68817258D01*
X95162000Y-66778000D02*
X95162000Y-64228000D01*
X96862000Y-66778000D02*
X96862000Y-64228000D01*
X95162000Y-66778000D02*
X96862000Y-66778000D01*
X96862000Y-67334000D02*
X96862000Y-69884000D01*
X95162000Y-67334000D02*
X95162000Y-69884000D01*
X96862000Y-67334000D02*
X95162000Y-67334000D01*
X128910000Y-61240000D02*
X129910000Y-61240000D01*
X128910000Y-61240000D02*
X128910000Y-60240000D01*
X135660000Y-58040000D02*
X132685000Y-58040000D01*
X135660000Y-58890000D02*
X135660000Y-58040000D01*
X135860000Y-58890000D02*
X135660000Y-58890000D01*
X135860000Y-59690000D02*
X135860000Y-58890000D01*
X135660000Y-59690000D02*
X135860000Y-59690000D01*
X135660000Y-60440000D02*
X135660000Y-59690000D01*
X132685000Y-60440000D02*
X135660000Y-60440000D01*
X129710000Y-58040000D02*
X132685000Y-58040000D01*
X129710000Y-58890000D02*
X129710000Y-58040000D01*
X129510000Y-58890000D02*
X129710000Y-58890000D01*
X129510000Y-59690000D02*
X129510000Y-58890000D01*
X129710000Y-59690000D02*
X129510000Y-59690000D01*
X129710000Y-60440000D02*
X129710000Y-59690000D01*
X132685000Y-60440000D02*
X129710000Y-60440000D01*
X136170000Y-57530000D02*
X129200000Y-57530000D01*
X136170000Y-60950000D02*
X136170000Y-57530000D01*
X129200000Y-60950000D02*
X136170000Y-60950000D01*
X129200000Y-57530000D02*
X129200000Y-60950000D01*
X130246000Y-56132000D02*
X131176000Y-56132000D01*
X133406000Y-56132000D02*
X132476000Y-56132000D01*
X133406000Y-56132000D02*
X133406000Y-53972000D01*
X130246000Y-56132000D02*
X130246000Y-54672000D01*
X134936000Y-38401000D02*
X134936000Y-40901000D01*
X134936000Y-40901000D02*
X133886000Y-40901000D01*
X133886000Y-40901000D02*
X133886000Y-41891000D01*
X128716000Y-38401000D02*
X128716000Y-40901000D01*
X128716000Y-40901000D02*
X129766000Y-40901000D01*
X133766000Y-36431000D02*
X129886000Y-36431000D01*
X136400000Y-55231420D02*
X136400000Y-55512580D01*
X135380000Y-55231420D02*
X135380000Y-55512580D01*
X119650000Y-72330000D02*
X119650000Y-69670000D01*
X111970000Y-72330000D02*
X119650000Y-72330000D01*
X111970000Y-69670000D02*
X119650000Y-69670000D01*
X111970000Y-72330000D02*
X111970000Y-69670000D01*
X110700000Y-72330000D02*
X109370000Y-72330000D01*
X109370000Y-72330000D02*
X109370000Y-71000000D01*
X133843500Y-55609258D02*
X133843500Y-55134742D01*
X134888500Y-55609258D02*
X134888500Y-55134742D01*
X129808500Y-55134742D02*
X129808500Y-55609258D01*
X128763500Y-55134742D02*
X128763500Y-55609258D01*
X127060000Y-53037221D02*
X127060000Y-53362779D01*
X126040000Y-53037221D02*
X126040000Y-53362779D01*
X101437221Y-57148000D02*
X101762779Y-57148000D01*
X101437221Y-58168000D02*
X101762779Y-58168000D01*
X101762779Y-55882000D02*
X101437221Y-55882000D01*
X101762779Y-54862000D02*
X101437221Y-54862000D01*
X97280000Y-65694779D02*
X97280000Y-65369221D01*
X98300000Y-65694779D02*
X98300000Y-65369221D01*
X98300000Y-68417221D02*
X98300000Y-68742779D01*
X97280000Y-68417221D02*
X97280000Y-68742779D01*
X98804000Y-68742779D02*
X98804000Y-68417221D01*
X99824000Y-68742779D02*
X99824000Y-68417221D01*
X99824000Y-65369221D02*
X99824000Y-65694779D01*
X98804000Y-65369221D02*
X98804000Y-65694779D01*
X105666000Y-36413221D02*
X105666000Y-36738779D01*
X104646000Y-36413221D02*
X104646000Y-36738779D01*
D11*
X96966666Y-32102380D02*
X96966666Y-32816666D01*
X96919047Y-32959523D01*
X96823809Y-33054761D01*
X96680952Y-33102380D01*
X96585714Y-33102380D01*
X97395238Y-32197619D02*
X97442857Y-32150000D01*
X97538095Y-32102380D01*
X97776190Y-32102380D01*
X97871428Y-32150000D01*
X97919047Y-32197619D01*
X97966666Y-32292857D01*
X97966666Y-32388095D01*
X97919047Y-32530952D01*
X97347619Y-33102380D01*
X97966666Y-33102380D01*
X103366666Y-60052380D02*
X103366666Y-60766666D01*
X103319047Y-60909523D01*
X103223809Y-61004761D01*
X103080952Y-61052380D01*
X102985714Y-61052380D01*
X104366666Y-61052380D02*
X103795238Y-61052380D01*
X104080952Y-61052380D02*
X104080952Y-60052380D01*
X103985714Y-60195238D01*
X103890476Y-60290476D01*
X103795238Y-60338095D01*
X128138095Y-49452380D02*
X128138095Y-50261904D01*
X128185714Y-50357142D01*
X128233333Y-50404761D01*
X128328571Y-50452380D01*
X128519047Y-50452380D01*
X128614285Y-50404761D01*
X128661904Y-50357142D01*
X128709523Y-50261904D01*
X128709523Y-49452380D01*
X129138095Y-49547619D02*
X129185714Y-49500000D01*
X129280952Y-49452380D01*
X129519047Y-49452380D01*
X129614285Y-49500000D01*
X129661904Y-49547619D01*
X129709523Y-49642857D01*
X129709523Y-49738095D01*
X129661904Y-49880952D01*
X129090476Y-50452380D01*
X129709523Y-50452380D01*
X119361904Y-65652380D02*
X119361904Y-64652380D01*
X119600000Y-64652380D01*
X119742857Y-64700000D01*
X119838095Y-64795238D01*
X119885714Y-64890476D01*
X119933333Y-65080952D01*
X119933333Y-65223809D01*
X119885714Y-65414285D01*
X119838095Y-65509523D01*
X119742857Y-65604761D01*
X119600000Y-65652380D01*
X119361904Y-65652380D01*
X120790476Y-64652380D02*
X120600000Y-64652380D01*
X120504761Y-64700000D01*
X120457142Y-64747619D01*
X120361904Y-64890476D01*
X120314285Y-65080952D01*
X120314285Y-65461904D01*
X120361904Y-65557142D01*
X120409523Y-65604761D01*
X120504761Y-65652380D01*
X120695238Y-65652380D01*
X120790476Y-65604761D01*
X120838095Y-65557142D01*
X120885714Y-65461904D01*
X120885714Y-65223809D01*
X120838095Y-65128571D01*
X120790476Y-65080952D01*
X120695238Y-65033333D01*
X120504761Y-65033333D01*
X120409523Y-65080952D01*
X120361904Y-65128571D01*
X120314285Y-65223809D01*
X104438095Y-48852380D02*
X104438095Y-49661904D01*
X104485714Y-49757142D01*
X104533333Y-49804761D01*
X104628571Y-49852380D01*
X104819047Y-49852380D01*
X104914285Y-49804761D01*
X104961904Y-49757142D01*
X105009523Y-49661904D01*
X105009523Y-48852380D01*
X106009523Y-49852380D02*
X105438095Y-49852380D01*
X105723809Y-49852380D02*
X105723809Y-48852380D01*
X105628571Y-48995238D01*
X105533333Y-49090476D01*
X105438095Y-49138095D01*
X126138095Y-62152380D02*
X126138095Y-62961904D01*
X126185714Y-63057142D01*
X126233333Y-63104761D01*
X126328571Y-63152380D01*
X126519047Y-63152380D01*
X126614285Y-63104761D01*
X126661904Y-63057142D01*
X126709523Y-62961904D01*
X126709523Y-62152380D01*
X127661904Y-62152380D02*
X127185714Y-62152380D01*
X127138095Y-62628571D01*
X127185714Y-62580952D01*
X127280952Y-62533333D01*
X127519047Y-62533333D01*
X127614285Y-62580952D01*
X127661904Y-62628571D01*
X127709523Y-62723809D01*
X127709523Y-62961904D01*
X127661904Y-63057142D01*
X127614285Y-63104761D01*
X127519047Y-63152380D01*
X127280952Y-63152380D01*
X127185714Y-63104761D01*
X127138095Y-63057142D01*
X124233333Y-71452380D02*
X123900000Y-70976190D01*
X123661904Y-71452380D02*
X123661904Y-70452380D01*
X124042857Y-70452380D01*
X124138095Y-70500000D01*
X124185714Y-70547619D01*
X124233333Y-70642857D01*
X124233333Y-70785714D01*
X124185714Y-70880952D01*
X124138095Y-70928571D01*
X124042857Y-70976190D01*
X123661904Y-70976190D01*
X124566666Y-70452380D02*
X125233333Y-70452380D01*
X124804761Y-71452380D01*
X125733333Y-72352380D02*
X125400000Y-71876190D01*
X125161904Y-72352380D02*
X125161904Y-71352380D01*
X125542857Y-71352380D01*
X125638095Y-71400000D01*
X125685714Y-71447619D01*
X125733333Y-71542857D01*
X125733333Y-71685714D01*
X125685714Y-71780952D01*
X125638095Y-71828571D01*
X125542857Y-71876190D01*
X125161904Y-71876190D01*
X126590476Y-71352380D02*
X126400000Y-71352380D01*
X126304761Y-71400000D01*
X126257142Y-71447619D01*
X126161904Y-71590476D01*
X126114285Y-71780952D01*
X126114285Y-72161904D01*
X126161904Y-72257142D01*
X126209523Y-72304761D01*
X126304761Y-72352380D01*
X126495238Y-72352380D01*
X126590476Y-72304761D01*
X126638095Y-72257142D01*
X126685714Y-72161904D01*
X126685714Y-71923809D01*
X126638095Y-71828571D01*
X126590476Y-71780952D01*
X126495238Y-71733333D01*
X126304761Y-71733333D01*
X126209523Y-71780952D01*
X126161904Y-71828571D01*
X126114285Y-71923809D01*
X129933333Y-72852380D02*
X129600000Y-72376190D01*
X129361904Y-72852380D02*
X129361904Y-71852380D01*
X129742857Y-71852380D01*
X129838095Y-71900000D01*
X129885714Y-71947619D01*
X129933333Y-72042857D01*
X129933333Y-72185714D01*
X129885714Y-72280952D01*
X129838095Y-72328571D01*
X129742857Y-72376190D01*
X129361904Y-72376190D01*
X130838095Y-71852380D02*
X130361904Y-71852380D01*
X130314285Y-72328571D01*
X130361904Y-72280952D01*
X130457142Y-72233333D01*
X130695238Y-72233333D01*
X130790476Y-72280952D01*
X130838095Y-72328571D01*
X130885714Y-72423809D01*
X130885714Y-72661904D01*
X130838095Y-72757142D01*
X130790476Y-72804761D01*
X130695238Y-72852380D01*
X130457142Y-72852380D01*
X130361904Y-72804761D01*
X130314285Y-72757142D01*
X133033333Y-62952380D02*
X132557142Y-62952380D01*
X132557142Y-61952380D01*
X133319047Y-62047619D02*
X133366666Y-62000000D01*
X133461904Y-61952380D01*
X133700000Y-61952380D01*
X133795238Y-62000000D01*
X133842857Y-62047619D01*
X133890476Y-62142857D01*
X133890476Y-62238095D01*
X133842857Y-62380952D01*
X133271428Y-62952380D01*
X133890476Y-62952380D01*
X121961904Y-65252380D02*
X121961904Y-64252380D01*
X122200000Y-64252380D01*
X122342857Y-64300000D01*
X122438095Y-64395238D01*
X122485714Y-64490476D01*
X122533333Y-64680952D01*
X122533333Y-64823809D01*
X122485714Y-65014285D01*
X122438095Y-65109523D01*
X122342857Y-65204761D01*
X122200000Y-65252380D01*
X121961904Y-65252380D01*
X123438095Y-64252380D02*
X122961904Y-64252380D01*
X122914285Y-64728571D01*
X122961904Y-64680952D01*
X123057142Y-64633333D01*
X123295238Y-64633333D01*
X123390476Y-64680952D01*
X123438095Y-64728571D01*
X123485714Y-64823809D01*
X123485714Y-65061904D01*
X123438095Y-65157142D01*
X123390476Y-65204761D01*
X123295238Y-65252380D01*
X123057142Y-65252380D01*
X122961904Y-65204761D01*
X122914285Y-65157142D01*
X134557142Y-72757142D02*
X134509523Y-72804761D01*
X134366666Y-72852380D01*
X134271428Y-72852380D01*
X134128571Y-72804761D01*
X134033333Y-72709523D01*
X133985714Y-72614285D01*
X133938095Y-72423809D01*
X133938095Y-72280952D01*
X133985714Y-72090476D01*
X134033333Y-71995238D01*
X134128571Y-71900000D01*
X134271428Y-71852380D01*
X134366666Y-71852380D01*
X134509523Y-71900000D01*
X134557142Y-71947619D01*
X135509523Y-72852380D02*
X134938095Y-72852380D01*
X135223809Y-72852380D02*
X135223809Y-71852380D01*
X135128571Y-71995238D01*
X135033333Y-72090476D01*
X134938095Y-72138095D01*
X136414285Y-71852380D02*
X135938095Y-71852380D01*
X135890476Y-72328571D01*
X135938095Y-72280952D01*
X136033333Y-72233333D01*
X136271428Y-72233333D01*
X136366666Y-72280952D01*
X136414285Y-72328571D01*
X136461904Y-72423809D01*
X136461904Y-72661904D01*
X136414285Y-72757142D01*
X136366666Y-72804761D01*
X136271428Y-72852380D01*
X136033333Y-72852380D01*
X135938095Y-72804761D01*
X135890476Y-72757142D01*
X123357142Y-70057142D02*
X123309523Y-70104761D01*
X123166666Y-70152380D01*
X123071428Y-70152380D01*
X122928571Y-70104761D01*
X122833333Y-70009523D01*
X122785714Y-69914285D01*
X122738095Y-69723809D01*
X122738095Y-69580952D01*
X122785714Y-69390476D01*
X122833333Y-69295238D01*
X122928571Y-69200000D01*
X123071428Y-69152380D01*
X123166666Y-69152380D01*
X123309523Y-69200000D01*
X123357142Y-69247619D01*
X124309523Y-70152380D02*
X123738095Y-70152380D01*
X124023809Y-70152380D02*
X124023809Y-69152380D01*
X123928571Y-69295238D01*
X123833333Y-69390476D01*
X123738095Y-69438095D01*
X125166666Y-69485714D02*
X125166666Y-70152380D01*
X124928571Y-69104761D02*
X124690476Y-69819047D01*
X125309523Y-69819047D01*
X131757142Y-72757142D02*
X131709523Y-72804761D01*
X131566666Y-72852380D01*
X131471428Y-72852380D01*
X131328571Y-72804761D01*
X131233333Y-72709523D01*
X131185714Y-72614285D01*
X131138095Y-72423809D01*
X131138095Y-72280952D01*
X131185714Y-72090476D01*
X131233333Y-71995238D01*
X131328571Y-71900000D01*
X131471428Y-71852380D01*
X131566666Y-71852380D01*
X131709523Y-71900000D01*
X131757142Y-71947619D01*
X132709523Y-72852380D02*
X132138095Y-72852380D01*
X132423809Y-72852380D02*
X132423809Y-71852380D01*
X132328571Y-71995238D01*
X132233333Y-72090476D01*
X132138095Y-72138095D01*
X133042857Y-71852380D02*
X133661904Y-71852380D01*
X133328571Y-72233333D01*
X133471428Y-72233333D01*
X133566666Y-72280952D01*
X133614285Y-72328571D01*
X133661904Y-72423809D01*
X133661904Y-72661904D01*
X133614285Y-72757142D01*
X133566666Y-72804761D01*
X133471428Y-72852380D01*
X133185714Y-72852380D01*
X133090476Y-72804761D01*
X133042857Y-72757142D01*
X128657142Y-62552380D02*
X128323809Y-62076190D01*
X128085714Y-62552380D02*
X128085714Y-61552380D01*
X128466666Y-61552380D01*
X128561904Y-61600000D01*
X128609523Y-61647619D01*
X128657142Y-61742857D01*
X128657142Y-61885714D01*
X128609523Y-61980952D01*
X128561904Y-62028571D01*
X128466666Y-62076190D01*
X128085714Y-62076190D01*
X129609523Y-62552380D02*
X129038095Y-62552380D01*
X129323809Y-62552380D02*
X129323809Y-61552380D01*
X129228571Y-61695238D01*
X129133333Y-61790476D01*
X129038095Y-61838095D01*
X130085714Y-62552380D02*
X130276190Y-62552380D01*
X130371428Y-62504761D01*
X130419047Y-62457142D01*
X130514285Y-62314285D01*
X130561904Y-62123809D01*
X130561904Y-61742857D01*
X130514285Y-61647619D01*
X130466666Y-61600000D01*
X130371428Y-61552380D01*
X130180952Y-61552380D01*
X130085714Y-61600000D01*
X130038095Y-61647619D01*
X129990476Y-61742857D01*
X129990476Y-61980952D01*
X130038095Y-62076190D01*
X130085714Y-62123809D01*
X130180952Y-62171428D01*
X130371428Y-62171428D01*
X130466666Y-62123809D01*
X130514285Y-62076190D01*
X130561904Y-61980952D01*
X123904761Y-63447619D02*
X123809523Y-63400000D01*
X123714285Y-63304761D01*
X123571428Y-63161904D01*
X123476190Y-63114285D01*
X123380952Y-63114285D01*
X123428571Y-63352380D02*
X123333333Y-63304761D01*
X123238095Y-63209523D01*
X123190476Y-63019047D01*
X123190476Y-62685714D01*
X123238095Y-62495238D01*
X123333333Y-62400000D01*
X123428571Y-62352380D01*
X123619047Y-62352380D01*
X123714285Y-62400000D01*
X123809523Y-62495238D01*
X123857142Y-62685714D01*
X123857142Y-63019047D01*
X123809523Y-63209523D01*
X123714285Y-63304761D01*
X123619047Y-63352380D01*
X123428571Y-63352380D01*
X124809523Y-63352380D02*
X124238095Y-63352380D01*
X124523809Y-63352380D02*
X124523809Y-62352380D01*
X124428571Y-62495238D01*
X124333333Y-62590476D01*
X124238095Y-62638095D01*
X134333333Y-43607142D02*
X134285714Y-43654761D01*
X134142857Y-43702380D01*
X134047619Y-43702380D01*
X133904761Y-43654761D01*
X133809523Y-43559523D01*
X133761904Y-43464285D01*
X133714285Y-43273809D01*
X133714285Y-43130952D01*
X133761904Y-42940476D01*
X133809523Y-42845238D01*
X133904761Y-42750000D01*
X134047619Y-42702380D01*
X134142857Y-42702380D01*
X134285714Y-42750000D01*
X134333333Y-42797619D01*
X135190476Y-43035714D02*
X135190476Y-43702380D01*
X134952380Y-42654761D02*
X134714285Y-43369047D01*
X135333333Y-43369047D01*
X103735142Y-33694666D02*
X103782761Y-33742285D01*
X103830380Y-33885142D01*
X103830380Y-33980380D01*
X103782761Y-34123238D01*
X103687523Y-34218476D01*
X103592285Y-34266095D01*
X103401809Y-34313714D01*
X103258952Y-34313714D01*
X103068476Y-34266095D01*
X102973238Y-34218476D01*
X102878000Y-34123238D01*
X102830380Y-33980380D01*
X102830380Y-33885142D01*
X102878000Y-33742285D01*
X102925619Y-33694666D01*
X102925619Y-33313714D02*
X102878000Y-33266095D01*
X102830380Y-33170857D01*
X102830380Y-32932761D01*
X102878000Y-32837523D01*
X102925619Y-32789904D01*
X103020857Y-32742285D01*
X103116095Y-32742285D01*
X103258952Y-32789904D01*
X103830380Y-33361333D01*
X103830380Y-32742285D01*
X127857142Y-45202380D02*
X127523809Y-44726190D01*
X127285714Y-45202380D02*
X127285714Y-44202380D01*
X127666666Y-44202380D01*
X127761904Y-44250000D01*
X127809523Y-44297619D01*
X127857142Y-44392857D01*
X127857142Y-44535714D01*
X127809523Y-44630952D01*
X127761904Y-44678571D01*
X127666666Y-44726190D01*
X127285714Y-44726190D01*
X128809523Y-45202380D02*
X128238095Y-45202380D01*
X128523809Y-45202380D02*
X128523809Y-44202380D01*
X128428571Y-44345238D01*
X128333333Y-44440476D01*
X128238095Y-44488095D01*
X129761904Y-45202380D02*
X129190476Y-45202380D01*
X129476190Y-45202380D02*
X129476190Y-44202380D01*
X129380952Y-44345238D01*
X129285714Y-44440476D01*
X129190476Y-44488095D01*
X127857142Y-43702380D02*
X127523809Y-43226190D01*
X127285714Y-43702380D02*
X127285714Y-42702380D01*
X127666666Y-42702380D01*
X127761904Y-42750000D01*
X127809523Y-42797619D01*
X127857142Y-42892857D01*
X127857142Y-43035714D01*
X127809523Y-43130952D01*
X127761904Y-43178571D01*
X127666666Y-43226190D01*
X127285714Y-43226190D01*
X128809523Y-43702380D02*
X128238095Y-43702380D01*
X128523809Y-43702380D02*
X128523809Y-42702380D01*
X128428571Y-42845238D01*
X128333333Y-42940476D01*
X128238095Y-42988095D01*
X129428571Y-42702380D02*
X129523809Y-42702380D01*
X129619047Y-42750000D01*
X129666666Y-42797619D01*
X129714285Y-42892857D01*
X129761904Y-43083333D01*
X129761904Y-43321428D01*
X129714285Y-43511904D01*
X129666666Y-43607142D01*
X129619047Y-43654761D01*
X129523809Y-43702380D01*
X129428571Y-43702380D01*
X129333333Y-43654761D01*
X129285714Y-43607142D01*
X129238095Y-43511904D01*
X129190476Y-43321428D01*
X129190476Y-43083333D01*
X129238095Y-42892857D01*
X129285714Y-42797619D01*
X129333333Y-42750000D01*
X129428571Y-42702380D01*
X102306380Y-61380666D02*
X101830190Y-61714000D01*
X102306380Y-61952095D02*
X101306380Y-61952095D01*
X101306380Y-61571142D01*
X101354000Y-61475904D01*
X101401619Y-61428285D01*
X101496857Y-61380666D01*
X101639714Y-61380666D01*
X101734952Y-61428285D01*
X101782571Y-61475904D01*
X101830190Y-61571142D01*
X101830190Y-61952095D01*
X102306380Y-60904476D02*
X102306380Y-60714000D01*
X102258761Y-60618761D01*
X102211142Y-60571142D01*
X102068285Y-60475904D01*
X101877809Y-60428285D01*
X101496857Y-60428285D01*
X101401619Y-60475904D01*
X101354000Y-60523523D01*
X101306380Y-60618761D01*
X101306380Y-60809238D01*
X101354000Y-60904476D01*
X101401619Y-60952095D01*
X101496857Y-60999714D01*
X101734952Y-60999714D01*
X101830190Y-60952095D01*
X101877809Y-60904476D01*
X101925428Y-60809238D01*
X101925428Y-60618761D01*
X101877809Y-60523523D01*
X101830190Y-60475904D01*
X101734952Y-60428285D01*
X101306333Y-72842380D02*
X100973000Y-72366190D01*
X100734904Y-72842380D02*
X100734904Y-71842380D01*
X101115857Y-71842380D01*
X101211095Y-71890000D01*
X101258714Y-71937619D01*
X101306333Y-72032857D01*
X101306333Y-72175714D01*
X101258714Y-72270952D01*
X101211095Y-72318571D01*
X101115857Y-72366190D01*
X100734904Y-72366190D01*
X101687285Y-71937619D02*
X101734904Y-71890000D01*
X101830142Y-71842380D01*
X102068238Y-71842380D01*
X102163476Y-71890000D01*
X102211095Y-71937619D01*
X102258714Y-72032857D01*
X102258714Y-72128095D01*
X102211095Y-72270952D01*
X101639666Y-72842380D01*
X102258714Y-72842380D01*
X96210380Y-63476095D02*
X95210380Y-63476095D01*
X95210380Y-63238000D01*
X95258000Y-63095142D01*
X95353238Y-62999904D01*
X95448476Y-62952285D01*
X95638952Y-62904666D01*
X95781809Y-62904666D01*
X95972285Y-62952285D01*
X96067523Y-62999904D01*
X96162761Y-63095142D01*
X96210380Y-63238000D01*
X96210380Y-63476095D01*
X95210380Y-62571333D02*
X95210380Y-61952285D01*
X95591333Y-62285619D01*
X95591333Y-62142761D01*
X95638952Y-62047523D01*
X95686571Y-61999904D01*
X95781809Y-61952285D01*
X96019904Y-61952285D01*
X96115142Y-61999904D01*
X96162761Y-62047523D01*
X96210380Y-62142761D01*
X96210380Y-62428476D01*
X96162761Y-62523714D01*
X96115142Y-62571333D01*
X95273904Y-71572380D02*
X95273904Y-70572380D01*
X95512000Y-70572380D01*
X95654857Y-70620000D01*
X95750095Y-70715238D01*
X95797714Y-70810476D01*
X95845333Y-71000952D01*
X95845333Y-71143809D01*
X95797714Y-71334285D01*
X95750095Y-71429523D01*
X95654857Y-71524761D01*
X95512000Y-71572380D01*
X95273904Y-71572380D01*
X96226285Y-70667619D02*
X96273904Y-70620000D01*
X96369142Y-70572380D01*
X96607238Y-70572380D01*
X96702476Y-70620000D01*
X96750095Y-70667619D01*
X96797714Y-70762857D01*
X96797714Y-70858095D01*
X96750095Y-71000952D01*
X96178666Y-71572380D01*
X96797714Y-71572380D01*
X134540666Y-61555380D02*
X134540666Y-62269666D01*
X134493047Y-62412523D01*
X134397809Y-62507761D01*
X134254952Y-62555380D01*
X134159714Y-62555380D01*
X135064476Y-62555380D02*
X135254952Y-62555380D01*
X135350190Y-62507761D01*
X135397809Y-62460142D01*
X135493047Y-62317285D01*
X135540666Y-62126809D01*
X135540666Y-61745857D01*
X135493047Y-61650619D01*
X135445428Y-61603000D01*
X135350190Y-61555380D01*
X135159714Y-61555380D01*
X135064476Y-61603000D01*
X135016857Y-61650619D01*
X134969238Y-61745857D01*
X134969238Y-61983952D01*
X135016857Y-62079190D01*
X135064476Y-62126809D01*
X135159714Y-62174428D01*
X135350190Y-62174428D01*
X135445428Y-62126809D01*
X135493047Y-62079190D01*
X135540666Y-61983952D01*
X104568666Y-53554380D02*
X104568666Y-54268666D01*
X104521047Y-54411523D01*
X104425809Y-54506761D01*
X104282952Y-54554380D01*
X104187714Y-54554380D01*
X105473428Y-53887714D02*
X105473428Y-54554380D01*
X105235333Y-53506761D02*
X104997238Y-54221047D01*
X105616285Y-54221047D01*
X127809523Y-57861904D02*
X127809523Y-57061904D01*
X128000000Y-57061904D01*
X128114285Y-57100000D01*
X128190476Y-57176190D01*
X128228571Y-57252380D01*
X128266666Y-57404761D01*
X128266666Y-57519047D01*
X128228571Y-57671428D01*
X128190476Y-57747619D01*
X128114285Y-57823809D01*
X128000000Y-57861904D01*
X127809523Y-57861904D01*
X129028571Y-57861904D02*
X128571428Y-57861904D01*
X128800000Y-57861904D02*
X128800000Y-57061904D01*
X128723809Y-57176190D01*
X128647619Y-57252380D01*
X128571428Y-57290476D01*
X126539666Y-36536380D02*
X126539666Y-37250666D01*
X126492047Y-37393523D01*
X126396809Y-37488761D01*
X126253952Y-37536380D01*
X126158714Y-37536380D01*
X127158714Y-36964952D02*
X127063476Y-36917333D01*
X127015857Y-36869714D01*
X126968238Y-36774476D01*
X126968238Y-36726857D01*
X127015857Y-36631619D01*
X127063476Y-36584000D01*
X127158714Y-36536380D01*
X127349190Y-36536380D01*
X127444428Y-36584000D01*
X127492047Y-36631619D01*
X127539666Y-36726857D01*
X127539666Y-36774476D01*
X127492047Y-36869714D01*
X127444428Y-36917333D01*
X127349190Y-36964952D01*
X127158714Y-36964952D01*
X127063476Y-37012571D01*
X127015857Y-37060190D01*
X126968238Y-37155428D01*
X126968238Y-37345904D01*
X127015857Y-37441142D01*
X127063476Y-37488761D01*
X127158714Y-37536380D01*
X127349190Y-37536380D01*
X127444428Y-37488761D01*
X127492047Y-37441142D01*
X127539666Y-37345904D01*
X127539666Y-37155428D01*
X127492047Y-37060190D01*
X127444428Y-37012571D01*
X127349190Y-36964952D01*
X136607142Y-52916666D02*
X136654761Y-52964285D01*
X136702380Y-53107142D01*
X136702380Y-53202380D01*
X136654761Y-53345238D01*
X136559523Y-53440476D01*
X136464285Y-53488095D01*
X136273809Y-53535714D01*
X136130952Y-53535714D01*
X135940476Y-53488095D01*
X135845238Y-53440476D01*
X135750000Y-53345238D01*
X135702380Y-53202380D01*
X135702380Y-53107142D01*
X135750000Y-52964285D01*
X135797619Y-52916666D01*
X135702380Y-52011904D02*
X135702380Y-52488095D01*
X136178571Y-52535714D01*
X136130952Y-52488095D01*
X136083333Y-52392857D01*
X136083333Y-52154761D01*
X136130952Y-52059523D01*
X136178571Y-52011904D01*
X136273809Y-51964285D01*
X136511904Y-51964285D01*
X136607142Y-52011904D01*
X136654761Y-52059523D01*
X136702380Y-52154761D01*
X136702380Y-52392857D01*
X136654761Y-52488095D01*
X136607142Y-52535714D01*
X120690476Y-69752380D02*
X120690476Y-70466666D01*
X120642857Y-70609523D01*
X120547619Y-70704761D01*
X120404761Y-70752380D01*
X120309523Y-70752380D01*
X121690476Y-70752380D02*
X121119047Y-70752380D01*
X121404761Y-70752380D02*
X121404761Y-69752380D01*
X121309523Y-69895238D01*
X121214285Y-69990476D01*
X121119047Y-70038095D01*
X122642857Y-70752380D02*
X122071428Y-70752380D01*
X122357142Y-70752380D02*
X122357142Y-69752380D01*
X122261904Y-69895238D01*
X122166666Y-69990476D01*
X122071428Y-70038095D01*
X136652380Y-50166666D02*
X136176190Y-50500000D01*
X136652380Y-50738095D02*
X135652380Y-50738095D01*
X135652380Y-50357142D01*
X135700000Y-50261904D01*
X135747619Y-50214285D01*
X135842857Y-50166666D01*
X135985714Y-50166666D01*
X136080952Y-50214285D01*
X136128571Y-50261904D01*
X136176190Y-50357142D01*
X136176190Y-50738095D01*
X135652380Y-49833333D02*
X135652380Y-49214285D01*
X136033333Y-49547619D01*
X136033333Y-49404761D01*
X136080952Y-49309523D01*
X136128571Y-49261904D01*
X136223809Y-49214285D01*
X136461904Y-49214285D01*
X136557142Y-49261904D01*
X136604761Y-49309523D01*
X136652380Y-49404761D01*
X136652380Y-49690476D01*
X136604761Y-49785714D01*
X136557142Y-49833333D01*
X129652380Y-53066666D02*
X129176190Y-53400000D01*
X129652380Y-53638095D02*
X128652380Y-53638095D01*
X128652380Y-53257142D01*
X128700000Y-53161904D01*
X128747619Y-53114285D01*
X128842857Y-53066666D01*
X128985714Y-53066666D01*
X129080952Y-53114285D01*
X129128571Y-53161904D01*
X129176190Y-53257142D01*
X129176190Y-53638095D01*
X128985714Y-52209523D02*
X129652380Y-52209523D01*
X128604761Y-52447619D02*
X129319047Y-52685714D01*
X129319047Y-52066666D01*
X128341380Y-53982857D02*
X127865190Y-54316190D01*
X128341380Y-54554285D02*
X127341380Y-54554285D01*
X127341380Y-54173333D01*
X127389000Y-54078095D01*
X127436619Y-54030476D01*
X127531857Y-53982857D01*
X127674714Y-53982857D01*
X127769952Y-54030476D01*
X127817571Y-54078095D01*
X127865190Y-54173333D01*
X127865190Y-54554285D01*
X128341380Y-53030476D02*
X128341380Y-53601904D01*
X128341380Y-53316190D02*
X127341380Y-53316190D01*
X127484238Y-53411428D01*
X127579476Y-53506666D01*
X127627095Y-53601904D01*
X127341380Y-52125714D02*
X127341380Y-52601904D01*
X127817571Y-52649523D01*
X127769952Y-52601904D01*
X127722333Y-52506666D01*
X127722333Y-52268571D01*
X127769952Y-52173333D01*
X127817571Y-52125714D01*
X127912809Y-52078095D01*
X128150904Y-52078095D01*
X128246142Y-52125714D01*
X128293761Y-52173333D01*
X128341380Y-52268571D01*
X128341380Y-52506666D01*
X128293761Y-52601904D01*
X128246142Y-52649523D01*
X100957142Y-59652380D02*
X100623809Y-59176190D01*
X100385714Y-59652380D02*
X100385714Y-58652380D01*
X100766666Y-58652380D01*
X100861904Y-58700000D01*
X100909523Y-58747619D01*
X100957142Y-58842857D01*
X100957142Y-58985714D01*
X100909523Y-59080952D01*
X100861904Y-59128571D01*
X100766666Y-59176190D01*
X100385714Y-59176190D01*
X101909523Y-59652380D02*
X101338095Y-59652380D01*
X101623809Y-59652380D02*
X101623809Y-58652380D01*
X101528571Y-58795238D01*
X101433333Y-58890476D01*
X101338095Y-58938095D01*
X102766666Y-58985714D02*
X102766666Y-59652380D01*
X102528571Y-58604761D02*
X102290476Y-59319047D01*
X102909523Y-59319047D01*
X102068333Y-54427380D02*
X101735000Y-53951190D01*
X101496904Y-54427380D02*
X101496904Y-53427380D01*
X101877857Y-53427380D01*
X101973095Y-53475000D01*
X102020714Y-53522619D01*
X102068333Y-53617857D01*
X102068333Y-53760714D01*
X102020714Y-53855952D01*
X101973095Y-53903571D01*
X101877857Y-53951190D01*
X101496904Y-53951190D01*
X103020714Y-54427380D02*
X102449285Y-54427380D01*
X102735000Y-54427380D02*
X102735000Y-53427380D01*
X102639761Y-53570238D01*
X102544523Y-53665476D01*
X102449285Y-53713095D01*
X103552666Y-71715380D02*
X103552666Y-72429666D01*
X103505047Y-72572523D01*
X103409809Y-72667761D01*
X103266952Y-72715380D01*
X103171714Y-72715380D01*
X103933619Y-71715380D02*
X104600285Y-71715380D01*
X104171714Y-72715380D01*
X105711666Y-71715380D02*
X105711666Y-72429666D01*
X105664047Y-72572523D01*
X105568809Y-72667761D01*
X105425952Y-72715380D01*
X105330714Y-72715380D01*
X106092619Y-71715380D02*
X106711666Y-71715380D01*
X106378333Y-72096333D01*
X106521190Y-72096333D01*
X106616428Y-72143952D01*
X106664047Y-72191571D01*
X106711666Y-72286809D01*
X106711666Y-72524904D01*
X106664047Y-72620142D01*
X106616428Y-72667761D01*
X106521190Y-72715380D01*
X106235476Y-72715380D01*
X106140238Y-72667761D01*
X106092619Y-72620142D01*
X99766380Y-62364857D02*
X99290190Y-62698190D01*
X99766380Y-62936285D02*
X98766380Y-62936285D01*
X98766380Y-62555333D01*
X98814000Y-62460095D01*
X98861619Y-62412476D01*
X98956857Y-62364857D01*
X99099714Y-62364857D01*
X99194952Y-62412476D01*
X99242571Y-62460095D01*
X99290190Y-62555333D01*
X99290190Y-62936285D01*
X99766380Y-61412476D02*
X99766380Y-61983904D01*
X99766380Y-61698190D02*
X98766380Y-61698190D01*
X98909238Y-61793428D01*
X99004476Y-61888666D01*
X99052095Y-61983904D01*
X98766380Y-60555333D02*
X98766380Y-60745809D01*
X98814000Y-60841047D01*
X98861619Y-60888666D01*
X99004476Y-60983904D01*
X99194952Y-61031523D01*
X99575904Y-61031523D01*
X99671142Y-60983904D01*
X99718761Y-60936285D01*
X99766380Y-60841047D01*
X99766380Y-60650571D01*
X99718761Y-60555333D01*
X99671142Y-60507714D01*
X99575904Y-60460095D01*
X99337809Y-60460095D01*
X99242571Y-60507714D01*
X99194952Y-60555333D01*
X99147333Y-60650571D01*
X99147333Y-60841047D01*
X99194952Y-60936285D01*
X99242571Y-60983904D01*
X99337809Y-61031523D01*
X97020142Y-72842380D02*
X96686809Y-72366190D01*
X96448714Y-72842380D02*
X96448714Y-71842380D01*
X96829666Y-71842380D01*
X96924904Y-71890000D01*
X96972523Y-71937619D01*
X97020142Y-72032857D01*
X97020142Y-72175714D01*
X96972523Y-72270952D01*
X96924904Y-72318571D01*
X96829666Y-72366190D01*
X96448714Y-72366190D01*
X97972523Y-72842380D02*
X97401095Y-72842380D01*
X97686809Y-72842380D02*
X97686809Y-71842380D01*
X97591571Y-71985238D01*
X97496333Y-72080476D01*
X97401095Y-72128095D01*
X98305857Y-71842380D02*
X98924904Y-71842380D01*
X98591571Y-72223333D01*
X98734428Y-72223333D01*
X98829666Y-72270952D01*
X98877285Y-72318571D01*
X98924904Y-72413809D01*
X98924904Y-72651904D01*
X98877285Y-72747142D01*
X98829666Y-72794761D01*
X98734428Y-72842380D01*
X98448714Y-72842380D01*
X98353476Y-72794761D01*
X98305857Y-72747142D01*
X99020333Y-71350142D02*
X98972714Y-71397761D01*
X98829857Y-71445380D01*
X98734619Y-71445380D01*
X98591761Y-71397761D01*
X98496523Y-71302523D01*
X98448904Y-71207285D01*
X98401285Y-71016809D01*
X98401285Y-70873952D01*
X98448904Y-70683476D01*
X98496523Y-70588238D01*
X98591761Y-70493000D01*
X98734619Y-70445380D01*
X98829857Y-70445380D01*
X98972714Y-70493000D01*
X99020333Y-70540619D01*
X99353666Y-70445380D02*
X100020333Y-70445380D01*
X99591761Y-71445380D01*
X100941142Y-61761666D02*
X100988761Y-61809285D01*
X101036380Y-61952142D01*
X101036380Y-62047380D01*
X100988761Y-62190238D01*
X100893523Y-62285476D01*
X100798285Y-62333095D01*
X100607809Y-62380714D01*
X100464952Y-62380714D01*
X100274476Y-62333095D01*
X100179238Y-62285476D01*
X100084000Y-62190238D01*
X100036380Y-62047380D01*
X100036380Y-61952142D01*
X100084000Y-61809285D01*
X100131619Y-61761666D01*
X100464952Y-61190238D02*
X100417333Y-61285476D01*
X100369714Y-61333095D01*
X100274476Y-61380714D01*
X100226857Y-61380714D01*
X100131619Y-61333095D01*
X100084000Y-61285476D01*
X100036380Y-61190238D01*
X100036380Y-60999761D01*
X100084000Y-60904523D01*
X100131619Y-60856904D01*
X100226857Y-60809285D01*
X100274476Y-60809285D01*
X100369714Y-60856904D01*
X100417333Y-60904523D01*
X100464952Y-60999761D01*
X100464952Y-61190238D01*
X100512571Y-61285476D01*
X100560190Y-61333095D01*
X100655428Y-61380714D01*
X100845904Y-61380714D01*
X100941142Y-61333095D01*
X100988761Y-61285476D01*
X101036380Y-61190238D01*
X101036380Y-60999761D01*
X100988761Y-60904523D01*
X100941142Y-60856904D01*
X100845904Y-60809285D01*
X100655428Y-60809285D01*
X100560190Y-60856904D01*
X100512571Y-60904523D01*
X100464952Y-60999761D01*
X99139476Y-49744380D02*
X99139476Y-50458666D01*
X99091857Y-50601523D01*
X98996619Y-50696761D01*
X98853761Y-50744380D01*
X98758523Y-50744380D01*
X100139476Y-50744380D02*
X99568047Y-50744380D01*
X99853761Y-50744380D02*
X99853761Y-49744380D01*
X99758523Y-49887238D01*
X99663285Y-49982476D01*
X99568047Y-50030095D01*
X100520428Y-49839619D02*
X100568047Y-49792000D01*
X100663285Y-49744380D01*
X100901380Y-49744380D01*
X100996619Y-49792000D01*
X101044238Y-49839619D01*
X101091857Y-49934857D01*
X101091857Y-50030095D01*
X101044238Y-50172952D01*
X100472809Y-50744380D01*
X101091857Y-50744380D01*
X105513142Y-33694666D02*
X105560761Y-33742285D01*
X105608380Y-33885142D01*
X105608380Y-33980380D01*
X105560761Y-34123238D01*
X105465523Y-34218476D01*
X105370285Y-34266095D01*
X105179809Y-34313714D01*
X105036952Y-34313714D01*
X104846476Y-34266095D01*
X104751238Y-34218476D01*
X104656000Y-34123238D01*
X104608380Y-33980380D01*
X104608380Y-33885142D01*
X104656000Y-33742285D01*
X104703619Y-33694666D01*
X104608380Y-33361333D02*
X104608380Y-32742285D01*
X104989333Y-33075619D01*
X104989333Y-32932761D01*
X105036952Y-32837523D01*
X105084571Y-32789904D01*
X105179809Y-32742285D01*
X105417904Y-32742285D01*
X105513142Y-32789904D01*
X105560761Y-32837523D01*
X105608380Y-32932761D01*
X105608380Y-33218476D01*
X105560761Y-33313714D01*
X105513142Y-33361333D01*
M02*
