G04 #@! TF.GenerationSoftware,KiCad,Pcbnew,(5.1.9)-1*
G04 #@! TF.CreationDate,2021-02-22T14:32:51+01:00*
G04 #@! TF.ProjectId,bobbycar,626f6262-7963-4617-922e-6b696361645f,rev?*
G04 #@! TF.SameCoordinates,Original*
G04 #@! TF.FileFunction,Paste,Top*
G04 #@! TF.FilePolarity,Positive*
%FSLAX46Y46*%
G04 Gerber Fmt 4.6, Leading zero omitted, Abs format (unit mm)*
G04 Created by KiCad (PCBNEW (5.1.9)-1) date 2021-02-22 14:32:51*
%MOMM*%
%LPD*%
G01*
G04 APERTURE LIST*
%ADD10R,1.600000X0.720000*%
%ADD11R,0.720000X1.600000*%
%ADD12R,4.000000X4.000000*%
%ADD13R,0.360000X0.480000*%
%ADD14R,0.640000X0.720000*%
%ADD15R,0.200000X0.560000*%
%ADD16R,0.200000X0.640000*%
%ADD17R,0.200000X0.880000*%
%ADD18R,0.560000X0.200000*%
%ADD19R,0.880000X0.200000*%
%ADD20R,1.200000X1.600000*%
%ADD21R,3.040000X1.600000*%
G04 APERTURE END LIST*
G36*
G01*
X134385000Y-51495000D02*
X134625000Y-51495000D01*
G75*
G02*
X134745000Y-51615000I0J-120000D01*
G01*
X134745000Y-52935000D01*
G75*
G02*
X134625000Y-53055000I-120000J0D01*
G01*
X134385000Y-53055000D01*
G75*
G02*
X134265000Y-52935000I0J120000D01*
G01*
X134265000Y-51615000D01*
G75*
G02*
X134385000Y-51495000I120000J0D01*
G01*
G37*
G36*
G01*
X133115000Y-51495000D02*
X133355000Y-51495000D01*
G75*
G02*
X133475000Y-51615000I0J-120000D01*
G01*
X133475000Y-52935000D01*
G75*
G02*
X133355000Y-53055000I-120000J0D01*
G01*
X133115000Y-53055000D01*
G75*
G02*
X132995000Y-52935000I0J120000D01*
G01*
X132995000Y-51615000D01*
G75*
G02*
X133115000Y-51495000I120000J0D01*
G01*
G37*
G36*
G01*
X131845000Y-51495000D02*
X132085000Y-51495000D01*
G75*
G02*
X132205000Y-51615000I0J-120000D01*
G01*
X132205000Y-52935000D01*
G75*
G02*
X132085000Y-53055000I-120000J0D01*
G01*
X131845000Y-53055000D01*
G75*
G02*
X131725000Y-52935000I0J120000D01*
G01*
X131725000Y-51615000D01*
G75*
G02*
X131845000Y-51495000I120000J0D01*
G01*
G37*
G36*
G01*
X130575000Y-51495000D02*
X130815000Y-51495000D01*
G75*
G02*
X130935000Y-51615000I0J-120000D01*
G01*
X130935000Y-52935000D01*
G75*
G02*
X130815000Y-53055000I-120000J0D01*
G01*
X130575000Y-53055000D01*
G75*
G02*
X130455000Y-52935000I0J120000D01*
G01*
X130455000Y-51615000D01*
G75*
G02*
X130575000Y-51495000I120000J0D01*
G01*
G37*
G36*
G01*
X130575000Y-46545000D02*
X130815000Y-46545000D01*
G75*
G02*
X130935000Y-46665000I0J-120000D01*
G01*
X130935000Y-47985000D01*
G75*
G02*
X130815000Y-48105000I-120000J0D01*
G01*
X130575000Y-48105000D01*
G75*
G02*
X130455000Y-47985000I0J120000D01*
G01*
X130455000Y-46665000D01*
G75*
G02*
X130575000Y-46545000I120000J0D01*
G01*
G37*
G36*
G01*
X131845000Y-46545000D02*
X132085000Y-46545000D01*
G75*
G02*
X132205000Y-46665000I0J-120000D01*
G01*
X132205000Y-47985000D01*
G75*
G02*
X132085000Y-48105000I-120000J0D01*
G01*
X131845000Y-48105000D01*
G75*
G02*
X131725000Y-47985000I0J120000D01*
G01*
X131725000Y-46665000D01*
G75*
G02*
X131845000Y-46545000I120000J0D01*
G01*
G37*
G36*
G01*
X133115000Y-46545000D02*
X133355000Y-46545000D01*
G75*
G02*
X133475000Y-46665000I0J-120000D01*
G01*
X133475000Y-47985000D01*
G75*
G02*
X133355000Y-48105000I-120000J0D01*
G01*
X133115000Y-48105000D01*
G75*
G02*
X132995000Y-47985000I0J120000D01*
G01*
X132995000Y-46665000D01*
G75*
G02*
X133115000Y-46545000I120000J0D01*
G01*
G37*
G36*
G01*
X134385000Y-46545000D02*
X134625000Y-46545000D01*
G75*
G02*
X134745000Y-46665000I0J-120000D01*
G01*
X134745000Y-47985000D01*
G75*
G02*
X134625000Y-48105000I-120000J0D01*
G01*
X134385000Y-48105000D01*
G75*
G02*
X134265000Y-47985000I0J120000D01*
G01*
X134265000Y-46665000D01*
G75*
G02*
X134385000Y-46545000I120000J0D01*
G01*
G37*
G36*
G01*
X134890000Y-44950000D02*
X134890000Y-44550000D01*
G75*
G02*
X135070000Y-44370000I180000J0D01*
G01*
X135430000Y-44370000D01*
G75*
G02*
X135610000Y-44550000I0J-180000D01*
G01*
X135610000Y-44950000D01*
G75*
G02*
X135430000Y-45130000I-180000J0D01*
G01*
X135070000Y-45130000D01*
G75*
G02*
X134890000Y-44950000I0J180000D01*
G01*
G37*
G36*
G01*
X133340000Y-44950000D02*
X133340000Y-44550000D01*
G75*
G02*
X133520000Y-44370000I180000J0D01*
G01*
X133880000Y-44370000D01*
G75*
G02*
X134060000Y-44550000I0J-180000D01*
G01*
X134060000Y-44950000D01*
G75*
G02*
X133880000Y-45130000I-180000J0D01*
G01*
X133520000Y-45130000D01*
G75*
G02*
X133340000Y-44950000I0J180000D01*
G01*
G37*
G36*
G01*
X103173000Y-37013500D02*
X103583000Y-37013500D01*
G75*
G02*
X103758000Y-37188500I0J-175000D01*
G01*
X103758000Y-37538500D01*
G75*
G02*
X103583000Y-37713500I-175000J0D01*
G01*
X103173000Y-37713500D01*
G75*
G02*
X102998000Y-37538500I0J175000D01*
G01*
X102998000Y-37188500D01*
G75*
G02*
X103173000Y-37013500I175000J0D01*
G01*
G37*
G36*
G01*
X103173000Y-35438500D02*
X103583000Y-35438500D01*
G75*
G02*
X103758000Y-35613500I0J-175000D01*
G01*
X103758000Y-35963500D01*
G75*
G02*
X103583000Y-36138500I-175000J0D01*
G01*
X103173000Y-36138500D01*
G75*
G02*
X102998000Y-35963500I0J175000D01*
G01*
X102998000Y-35613500D01*
G75*
G02*
X103173000Y-35438500I175000J0D01*
G01*
G37*
D10*
X124500000Y-35745000D03*
X124500000Y-37015000D03*
X124500000Y-38285000D03*
X124500000Y-39555000D03*
X124500000Y-40825000D03*
X124500000Y-42095000D03*
X124500000Y-43365000D03*
X124500000Y-44635000D03*
X124500000Y-45905000D03*
X124500000Y-47175000D03*
X124500000Y-48445000D03*
X124500000Y-49715000D03*
X124500000Y-50985000D03*
X124500000Y-52255000D03*
D11*
X121715000Y-53255000D03*
X120445000Y-53255000D03*
X119175000Y-53255000D03*
X117905000Y-53255000D03*
X116635000Y-53255000D03*
X115365000Y-53255000D03*
X114095000Y-53255000D03*
X112825000Y-53255000D03*
X111555000Y-53255000D03*
X110285000Y-53255000D03*
D10*
X107500000Y-52255000D03*
X107500000Y-50985000D03*
X107500000Y-49715000D03*
X107500000Y-48445000D03*
X107500000Y-47175000D03*
X107500000Y-45905000D03*
X107500000Y-44635000D03*
X107500000Y-43365000D03*
X107500000Y-42095000D03*
X107500000Y-40825000D03*
X107500000Y-39555000D03*
X107500000Y-38285000D03*
X107500000Y-37015000D03*
X107500000Y-35745000D03*
D12*
X115000000Y-43245000D03*
G36*
G01*
X131823000Y-44924000D02*
X131823000Y-44484000D01*
G75*
G02*
X131983000Y-44324000I160000J0D01*
G01*
X132303000Y-44324000D01*
G75*
G02*
X132463000Y-44484000I0J-160000D01*
G01*
X132463000Y-44924000D01*
G75*
G02*
X132303000Y-45084000I-160000J0D01*
G01*
X131983000Y-45084000D01*
G75*
G02*
X131823000Y-44924000I0J160000D01*
G01*
G37*
G36*
G01*
X130173000Y-44924000D02*
X130173000Y-44484000D01*
G75*
G02*
X130333000Y-44324000I160000J0D01*
G01*
X130653000Y-44324000D01*
G75*
G02*
X130813000Y-44484000I0J-160000D01*
G01*
X130813000Y-44924000D01*
G75*
G02*
X130653000Y-45084000I-160000J0D01*
G01*
X130333000Y-45084000D01*
G75*
G02*
X130173000Y-44924000I0J160000D01*
G01*
G37*
G36*
G01*
X131823000Y-43400000D02*
X131823000Y-42960000D01*
G75*
G02*
X131983000Y-42800000I160000J0D01*
G01*
X132303000Y-42800000D01*
G75*
G02*
X132463000Y-42960000I0J-160000D01*
G01*
X132463000Y-43400000D01*
G75*
G02*
X132303000Y-43560000I-160000J0D01*
G01*
X131983000Y-43560000D01*
G75*
G02*
X131823000Y-43400000I0J160000D01*
G01*
G37*
G36*
G01*
X130173000Y-43400000D02*
X130173000Y-42960000D01*
G75*
G02*
X130333000Y-42800000I160000J0D01*
G01*
X130653000Y-42800000D01*
G75*
G02*
X130813000Y-42960000I0J-160000D01*
G01*
X130813000Y-43400000D01*
G75*
G02*
X130653000Y-43560000I-160000J0D01*
G01*
X130333000Y-43560000D01*
G75*
G02*
X130173000Y-43400000I0J160000D01*
G01*
G37*
G36*
G01*
X101058000Y-65027000D02*
X100618000Y-65027000D01*
G75*
G02*
X100458000Y-64867000I0J160000D01*
G01*
X100458000Y-64547000D01*
G75*
G02*
X100618000Y-64387000I160000J0D01*
G01*
X101058000Y-64387000D01*
G75*
G02*
X101218000Y-64547000I0J-160000D01*
G01*
X101218000Y-64867000D01*
G75*
G02*
X101058000Y-65027000I-160000J0D01*
G01*
G37*
G36*
G01*
X101058000Y-66677000D02*
X100618000Y-66677000D01*
G75*
G02*
X100458000Y-66517000I0J160000D01*
G01*
X100458000Y-66197000D01*
G75*
G02*
X100618000Y-66037000I160000J0D01*
G01*
X101058000Y-66037000D01*
G75*
G02*
X101218000Y-66197000I0J-160000D01*
G01*
X101218000Y-66517000D01*
G75*
G02*
X101058000Y-66677000I-160000J0D01*
G01*
G37*
G36*
G01*
X100618000Y-69085000D02*
X101058000Y-69085000D01*
G75*
G02*
X101218000Y-69245000I0J-160000D01*
G01*
X101218000Y-69565000D01*
G75*
G02*
X101058000Y-69725000I-160000J0D01*
G01*
X100618000Y-69725000D01*
G75*
G02*
X100458000Y-69565000I0J160000D01*
G01*
X100458000Y-69245000D01*
G75*
G02*
X100618000Y-69085000I160000J0D01*
G01*
G37*
G36*
G01*
X100618000Y-67435000D02*
X101058000Y-67435000D01*
G75*
G02*
X101218000Y-67595000I0J-160000D01*
G01*
X101218000Y-67915000D01*
G75*
G02*
X101058000Y-68075000I-160000J0D01*
G01*
X100618000Y-68075000D01*
G75*
G02*
X100458000Y-67915000I0J160000D01*
G01*
X100458000Y-67595000D01*
G75*
G02*
X100618000Y-67435000I160000J0D01*
G01*
G37*
D13*
X96012000Y-64228000D03*
X96012000Y-66328000D03*
X96012000Y-69884000D03*
X96012000Y-67784000D03*
G36*
G01*
X105988500Y-59739000D02*
X105988500Y-60149000D01*
G75*
G02*
X105813500Y-60324000I-175000J0D01*
G01*
X105463500Y-60324000D01*
G75*
G02*
X105288500Y-60149000I0J175000D01*
G01*
X105288500Y-59739000D01*
G75*
G02*
X105463500Y-59564000I175000J0D01*
G01*
X105813500Y-59564000D01*
G75*
G02*
X105988500Y-59739000I0J-175000D01*
G01*
G37*
G36*
G01*
X107563500Y-59739000D02*
X107563500Y-60149000D01*
G75*
G02*
X107388500Y-60324000I-175000J0D01*
G01*
X107038500Y-60324000D01*
G75*
G02*
X106863500Y-60149000I0J175000D01*
G01*
X106863500Y-59739000D01*
G75*
G02*
X107038500Y-59564000I175000J0D01*
G01*
X107388500Y-59564000D01*
G75*
G02*
X107563500Y-59739000I0J-175000D01*
G01*
G37*
G36*
G01*
X103583000Y-60268500D02*
X103173000Y-60268500D01*
G75*
G02*
X102998000Y-60093500I0J175000D01*
G01*
X102998000Y-59743500D01*
G75*
G02*
X103173000Y-59568500I175000J0D01*
G01*
X103583000Y-59568500D01*
G75*
G02*
X103758000Y-59743500I0J-175000D01*
G01*
X103758000Y-60093500D01*
G75*
G02*
X103583000Y-60268500I-175000J0D01*
G01*
G37*
G36*
G01*
X103583000Y-61843500D02*
X103173000Y-61843500D01*
G75*
G02*
X102998000Y-61668500I0J175000D01*
G01*
X102998000Y-61318500D01*
G75*
G02*
X103173000Y-61143500I175000J0D01*
G01*
X103583000Y-61143500D01*
G75*
G02*
X103758000Y-61318500I0J-175000D01*
G01*
X103758000Y-61668500D01*
G75*
G02*
X103583000Y-61843500I-175000J0D01*
G01*
G37*
G36*
G01*
X114991500Y-60149000D02*
X114991500Y-59739000D01*
G75*
G02*
X115166500Y-59564000I175000J0D01*
G01*
X115516500Y-59564000D01*
G75*
G02*
X115691500Y-59739000I0J-175000D01*
G01*
X115691500Y-60149000D01*
G75*
G02*
X115516500Y-60324000I-175000J0D01*
G01*
X115166500Y-60324000D01*
G75*
G02*
X114991500Y-60149000I0J175000D01*
G01*
G37*
G36*
G01*
X113416500Y-60149000D02*
X113416500Y-59739000D01*
G75*
G02*
X113591500Y-59564000I175000J0D01*
G01*
X113941500Y-59564000D01*
G75*
G02*
X114116500Y-59739000I0J-175000D01*
G01*
X114116500Y-60149000D01*
G75*
G02*
X113941500Y-60324000I-175000J0D01*
G01*
X113591500Y-60324000D01*
G75*
G02*
X113416500Y-60149000I0J175000D01*
G01*
G37*
G36*
G01*
X110673500Y-60149000D02*
X110673500Y-59739000D01*
G75*
G02*
X110848500Y-59564000I175000J0D01*
G01*
X111198500Y-59564000D01*
G75*
G02*
X111373500Y-59739000I0J-175000D01*
G01*
X111373500Y-60149000D01*
G75*
G02*
X111198500Y-60324000I-175000J0D01*
G01*
X110848500Y-60324000D01*
G75*
G02*
X110673500Y-60149000I0J175000D01*
G01*
G37*
G36*
G01*
X109098500Y-60149000D02*
X109098500Y-59739000D01*
G75*
G02*
X109273500Y-59564000I175000J0D01*
G01*
X109623500Y-59564000D01*
G75*
G02*
X109798500Y-59739000I0J-175000D01*
G01*
X109798500Y-60149000D01*
G75*
G02*
X109623500Y-60324000I-175000J0D01*
G01*
X109273500Y-60324000D01*
G75*
G02*
X109098500Y-60149000I0J175000D01*
G01*
G37*
D14*
X131826000Y-56372000D03*
X130876000Y-54372000D03*
X132776000Y-54372000D03*
G36*
G01*
X119508000Y-67860000D02*
X120268000Y-67860000D01*
G75*
G02*
X120468000Y-68060000I0J-200000D01*
G01*
X120468000Y-68460000D01*
G75*
G02*
X120268000Y-68660000I-200000J0D01*
G01*
X119508000Y-68660000D01*
G75*
G02*
X119308000Y-68460000I0J200000D01*
G01*
X119308000Y-68060000D01*
G75*
G02*
X119508000Y-67860000I200000J0D01*
G01*
G37*
G36*
G01*
X119508000Y-65960000D02*
X120268000Y-65960000D01*
G75*
G02*
X120468000Y-66160000I0J-200000D01*
G01*
X120468000Y-66560000D01*
G75*
G02*
X120268000Y-66760000I-200000J0D01*
G01*
X119508000Y-66760000D01*
G75*
G02*
X119308000Y-66560000I0J200000D01*
G01*
X119308000Y-66160000D01*
G75*
G02*
X119508000Y-65960000I200000J0D01*
G01*
G37*
G36*
G01*
X129506000Y-36720999D02*
X129506000Y-37761001D01*
G75*
G02*
X129306001Y-37961000I-199999J0D01*
G01*
X128745999Y-37961000D01*
G75*
G02*
X128546000Y-37761001I0J199999D01*
G01*
X128546000Y-36720999D01*
G75*
G02*
X128745999Y-36521000I199999J0D01*
G01*
X129306001Y-36521000D01*
G75*
G02*
X129506000Y-36720999I0J-199999D01*
G01*
G37*
G36*
G01*
X135106000Y-36720999D02*
X135106000Y-37761001D01*
G75*
G02*
X134906001Y-37961000I-199999J0D01*
G01*
X134345999Y-37961000D01*
G75*
G02*
X134146000Y-37761001I0J199999D01*
G01*
X134146000Y-36720999D01*
G75*
G02*
X134345999Y-36521000I199999J0D01*
G01*
X134906001Y-36521000D01*
G75*
G02*
X135106000Y-36720999I0J-199999D01*
G01*
G37*
G36*
G01*
X130566000Y-40616000D02*
X130566000Y-41616000D01*
G75*
G02*
X130446000Y-41736000I-120000J0D01*
G01*
X130206000Y-41736000D01*
G75*
G02*
X130086000Y-41616000I0J120000D01*
G01*
X130086000Y-40616000D01*
G75*
G02*
X130206000Y-40496000I120000J0D01*
G01*
X130446000Y-40496000D01*
G75*
G02*
X130566000Y-40616000I0J-120000D01*
G01*
G37*
G36*
G01*
X131566000Y-40616000D02*
X131566000Y-41616000D01*
G75*
G02*
X131446000Y-41736000I-120000J0D01*
G01*
X131206000Y-41736000D01*
G75*
G02*
X131086000Y-41616000I0J120000D01*
G01*
X131086000Y-40616000D01*
G75*
G02*
X131206000Y-40496000I120000J0D01*
G01*
X131446000Y-40496000D01*
G75*
G02*
X131566000Y-40616000I0J-120000D01*
G01*
G37*
G36*
G01*
X132566000Y-40616000D02*
X132566000Y-41616000D01*
G75*
G02*
X132446000Y-41736000I-120000J0D01*
G01*
X132206000Y-41736000D01*
G75*
G02*
X132086000Y-41616000I0J120000D01*
G01*
X132086000Y-40616000D01*
G75*
G02*
X132206000Y-40496000I120000J0D01*
G01*
X132446000Y-40496000D01*
G75*
G02*
X132566000Y-40616000I0J-120000D01*
G01*
G37*
G36*
G01*
X133566000Y-40616000D02*
X133566000Y-41616000D01*
G75*
G02*
X133446000Y-41736000I-120000J0D01*
G01*
X133206000Y-41736000D01*
G75*
G02*
X133086000Y-41616000I0J120000D01*
G01*
X133086000Y-40616000D01*
G75*
G02*
X133206000Y-40496000I120000J0D01*
G01*
X133446000Y-40496000D01*
G75*
G02*
X133566000Y-40616000I0J-120000D01*
G01*
G37*
G36*
G01*
X129232000Y-50639000D02*
X128832000Y-50639000D01*
G75*
G02*
X128652000Y-50459000I0J180000D01*
G01*
X128652000Y-50099000D01*
G75*
G02*
X128832000Y-49919000I180000J0D01*
G01*
X129232000Y-49919000D01*
G75*
G02*
X129412000Y-50099000I0J-180000D01*
G01*
X129412000Y-50459000D01*
G75*
G02*
X129232000Y-50639000I-180000J0D01*
G01*
G37*
G36*
G01*
X129232000Y-52189000D02*
X128832000Y-52189000D01*
G75*
G02*
X128652000Y-52009000I0J180000D01*
G01*
X128652000Y-51649000D01*
G75*
G02*
X128832000Y-51469000I180000J0D01*
G01*
X129232000Y-51469000D01*
G75*
G02*
X129412000Y-51649000I0J-180000D01*
G01*
X129412000Y-52009000D01*
G75*
G02*
X129232000Y-52189000I-180000J0D01*
G01*
G37*
G36*
G01*
X124717000Y-71154000D02*
X124717000Y-71594000D01*
G75*
G02*
X124557000Y-71754000I-160000J0D01*
G01*
X124237000Y-71754000D01*
G75*
G02*
X124077000Y-71594000I0J160000D01*
G01*
X124077000Y-71154000D01*
G75*
G02*
X124237000Y-70994000I160000J0D01*
G01*
X124557000Y-70994000D01*
G75*
G02*
X124717000Y-71154000I0J-160000D01*
G01*
G37*
G36*
G01*
X126367000Y-71154000D02*
X126367000Y-71594000D01*
G75*
G02*
X126207000Y-71754000I-160000J0D01*
G01*
X125887000Y-71754000D01*
G75*
G02*
X125727000Y-71594000I0J160000D01*
G01*
X125727000Y-71154000D01*
G75*
G02*
X125887000Y-70994000I160000J0D01*
G01*
X126207000Y-70994000D01*
G75*
G02*
X126367000Y-71154000I0J-160000D01*
G01*
G37*
G36*
G01*
X135690000Y-55787000D02*
X136090000Y-55787000D01*
G75*
G02*
X136270000Y-55967000I0J-180000D01*
G01*
X136270000Y-56327000D01*
G75*
G02*
X136090000Y-56507000I-180000J0D01*
G01*
X135690000Y-56507000D01*
G75*
G02*
X135510000Y-56327000I0J180000D01*
G01*
X135510000Y-55967000D01*
G75*
G02*
X135690000Y-55787000I180000J0D01*
G01*
G37*
G36*
G01*
X135690000Y-54237000D02*
X136090000Y-54237000D01*
G75*
G02*
X136270000Y-54417000I0J-180000D01*
G01*
X136270000Y-54777000D01*
G75*
G02*
X136090000Y-54957000I-180000J0D01*
G01*
X135690000Y-54957000D01*
G75*
G02*
X135510000Y-54777000I0J180000D01*
G01*
X135510000Y-54417000D01*
G75*
G02*
X135690000Y-54237000I180000J0D01*
G01*
G37*
G36*
G01*
X119854000Y-70044000D02*
X119414000Y-70044000D01*
G75*
G02*
X119254000Y-69884000I0J160000D01*
G01*
X119254000Y-69564000D01*
G75*
G02*
X119414000Y-69404000I160000J0D01*
G01*
X119854000Y-69404000D01*
G75*
G02*
X120014000Y-69564000I0J-160000D01*
G01*
X120014000Y-69884000D01*
G75*
G02*
X119854000Y-70044000I-160000J0D01*
G01*
G37*
G36*
G01*
X119854000Y-71694000D02*
X119414000Y-71694000D01*
G75*
G02*
X119254000Y-71534000I0J160000D01*
G01*
X119254000Y-71214000D01*
G75*
G02*
X119414000Y-71054000I160000J0D01*
G01*
X119854000Y-71054000D01*
G75*
G02*
X120014000Y-71214000I0J-160000D01*
G01*
X120014000Y-71534000D01*
G75*
G02*
X119854000Y-71694000I-160000J0D01*
G01*
G37*
G36*
G01*
X125264000Y-65404000D02*
X125264000Y-64644000D01*
G75*
G02*
X125464000Y-64444000I200000J0D01*
G01*
X125864000Y-64444000D01*
G75*
G02*
X126064000Y-64644000I0J-200000D01*
G01*
X126064000Y-65404000D01*
G75*
G02*
X125864000Y-65604000I-200000J0D01*
G01*
X125464000Y-65604000D01*
G75*
G02*
X125264000Y-65404000I0J200000D01*
G01*
G37*
G36*
G01*
X123364000Y-65404000D02*
X123364000Y-64644000D01*
G75*
G02*
X123564000Y-64444000I200000J0D01*
G01*
X123964000Y-64444000D01*
G75*
G02*
X124164000Y-64644000I0J-200000D01*
G01*
X124164000Y-65404000D01*
G75*
G02*
X123964000Y-65604000I-200000J0D01*
G01*
X123564000Y-65604000D01*
G75*
G02*
X123364000Y-65404000I0J200000D01*
G01*
G37*
G36*
G01*
X121669000Y-71154000D02*
X121669000Y-71594000D01*
G75*
G02*
X121509000Y-71754000I-160000J0D01*
G01*
X121189000Y-71754000D01*
G75*
G02*
X121029000Y-71594000I0J160000D01*
G01*
X121029000Y-71154000D01*
G75*
G02*
X121189000Y-70994000I160000J0D01*
G01*
X121509000Y-70994000D01*
G75*
G02*
X121669000Y-71154000I0J-160000D01*
G01*
G37*
G36*
G01*
X123319000Y-71154000D02*
X123319000Y-71594000D01*
G75*
G02*
X123159000Y-71754000I-160000J0D01*
G01*
X122839000Y-71754000D01*
G75*
G02*
X122679000Y-71594000I0J160000D01*
G01*
X122679000Y-71154000D01*
G75*
G02*
X122839000Y-70994000I160000J0D01*
G01*
X123159000Y-70994000D01*
G75*
G02*
X123319000Y-71154000I0J-160000D01*
G01*
G37*
G36*
G01*
X134586000Y-54867000D02*
X134146000Y-54867000D01*
G75*
G02*
X133986000Y-54707000I0J160000D01*
G01*
X133986000Y-54387000D01*
G75*
G02*
X134146000Y-54227000I160000J0D01*
G01*
X134586000Y-54227000D01*
G75*
G02*
X134746000Y-54387000I0J-160000D01*
G01*
X134746000Y-54707000D01*
G75*
G02*
X134586000Y-54867000I-160000J0D01*
G01*
G37*
G36*
G01*
X134586000Y-56517000D02*
X134146000Y-56517000D01*
G75*
G02*
X133986000Y-56357000I0J160000D01*
G01*
X133986000Y-56037000D01*
G75*
G02*
X134146000Y-55877000I160000J0D01*
G01*
X134586000Y-55877000D01*
G75*
G02*
X134746000Y-56037000I0J-160000D01*
G01*
X134746000Y-56357000D01*
G75*
G02*
X134586000Y-56517000I-160000J0D01*
G01*
G37*
G36*
G01*
X129066000Y-55877000D02*
X129506000Y-55877000D01*
G75*
G02*
X129666000Y-56037000I0J-160000D01*
G01*
X129666000Y-56357000D01*
G75*
G02*
X129506000Y-56517000I-160000J0D01*
G01*
X129066000Y-56517000D01*
G75*
G02*
X128906000Y-56357000I0J160000D01*
G01*
X128906000Y-56037000D01*
G75*
G02*
X129066000Y-55877000I160000J0D01*
G01*
G37*
G36*
G01*
X129066000Y-54227000D02*
X129506000Y-54227000D01*
G75*
G02*
X129666000Y-54387000I0J-160000D01*
G01*
X129666000Y-54707000D01*
G75*
G02*
X129506000Y-54867000I-160000J0D01*
G01*
X129066000Y-54867000D01*
G75*
G02*
X128906000Y-54707000I0J160000D01*
G01*
X128906000Y-54387000D01*
G75*
G02*
X129066000Y-54227000I160000J0D01*
G01*
G37*
D15*
X122910000Y-66876000D03*
D16*
X122910000Y-69726000D03*
D17*
X126560000Y-67076000D03*
X125710000Y-67076000D03*
X124860000Y-67076000D03*
X126560000Y-69576000D03*
X125710000Y-69576000D03*
X124860000Y-69576000D03*
D18*
X122010000Y-67076000D03*
X122010000Y-67576000D03*
X122010000Y-69076000D03*
X122010000Y-69576000D03*
D19*
X122210000Y-68076000D03*
X122210000Y-68576000D03*
D17*
X123560000Y-67076000D03*
X124210000Y-67076000D03*
X123560000Y-69576000D03*
X124210000Y-69576000D03*
G36*
G01*
X126345000Y-53637500D02*
X126755000Y-53637500D01*
G75*
G02*
X126930000Y-53812500I0J-175000D01*
G01*
X126930000Y-54162500D01*
G75*
G02*
X126755000Y-54337500I-175000J0D01*
G01*
X126345000Y-54337500D01*
G75*
G02*
X126170000Y-54162500I0J175000D01*
G01*
X126170000Y-53812500D01*
G75*
G02*
X126345000Y-53637500I175000J0D01*
G01*
G37*
G36*
G01*
X126345000Y-52062500D02*
X126755000Y-52062500D01*
G75*
G02*
X126930000Y-52237500I0J-175000D01*
G01*
X126930000Y-52587500D01*
G75*
G02*
X126755000Y-52762500I-175000J0D01*
G01*
X126345000Y-52762500D01*
G75*
G02*
X126170000Y-52587500I0J175000D01*
G01*
X126170000Y-52237500D01*
G75*
G02*
X126345000Y-52062500I175000J0D01*
G01*
G37*
G36*
G01*
X102037500Y-57863000D02*
X102037500Y-57453000D01*
G75*
G02*
X102212500Y-57278000I175000J0D01*
G01*
X102562500Y-57278000D01*
G75*
G02*
X102737500Y-57453000I0J-175000D01*
G01*
X102737500Y-57863000D01*
G75*
G02*
X102562500Y-58038000I-175000J0D01*
G01*
X102212500Y-58038000D01*
G75*
G02*
X102037500Y-57863000I0J175000D01*
G01*
G37*
G36*
G01*
X100462500Y-57863000D02*
X100462500Y-57453000D01*
G75*
G02*
X100637500Y-57278000I175000J0D01*
G01*
X100987500Y-57278000D01*
G75*
G02*
X101162500Y-57453000I0J-175000D01*
G01*
X101162500Y-57863000D01*
G75*
G02*
X100987500Y-58038000I-175000J0D01*
G01*
X100637500Y-58038000D01*
G75*
G02*
X100462500Y-57863000I0J175000D01*
G01*
G37*
G36*
G01*
X101162500Y-55167000D02*
X101162500Y-55577000D01*
G75*
G02*
X100987500Y-55752000I-175000J0D01*
G01*
X100637500Y-55752000D01*
G75*
G02*
X100462500Y-55577000I0J175000D01*
G01*
X100462500Y-55167000D01*
G75*
G02*
X100637500Y-54992000I175000J0D01*
G01*
X100987500Y-54992000D01*
G75*
G02*
X101162500Y-55167000I0J-175000D01*
G01*
G37*
G36*
G01*
X102737500Y-55167000D02*
X102737500Y-55577000D01*
G75*
G02*
X102562500Y-55752000I-175000J0D01*
G01*
X102212500Y-55752000D01*
G75*
G02*
X102037500Y-55577000I0J175000D01*
G01*
X102037500Y-55167000D01*
G75*
G02*
X102212500Y-54992000I175000J0D01*
G01*
X102562500Y-54992000D01*
G75*
G02*
X102737500Y-55167000I0J-175000D01*
G01*
G37*
G36*
G01*
X97995000Y-65094500D02*
X97585000Y-65094500D01*
G75*
G02*
X97410000Y-64919500I0J175000D01*
G01*
X97410000Y-64569500D01*
G75*
G02*
X97585000Y-64394500I175000J0D01*
G01*
X97995000Y-64394500D01*
G75*
G02*
X98170000Y-64569500I0J-175000D01*
G01*
X98170000Y-64919500D01*
G75*
G02*
X97995000Y-65094500I-175000J0D01*
G01*
G37*
G36*
G01*
X97995000Y-66669500D02*
X97585000Y-66669500D01*
G75*
G02*
X97410000Y-66494500I0J175000D01*
G01*
X97410000Y-66144500D01*
G75*
G02*
X97585000Y-65969500I175000J0D01*
G01*
X97995000Y-65969500D01*
G75*
G02*
X98170000Y-66144500I0J-175000D01*
G01*
X98170000Y-66494500D01*
G75*
G02*
X97995000Y-66669500I-175000J0D01*
G01*
G37*
G36*
G01*
X97585000Y-69017500D02*
X97995000Y-69017500D01*
G75*
G02*
X98170000Y-69192500I0J-175000D01*
G01*
X98170000Y-69542500D01*
G75*
G02*
X97995000Y-69717500I-175000J0D01*
G01*
X97585000Y-69717500D01*
G75*
G02*
X97410000Y-69542500I0J175000D01*
G01*
X97410000Y-69192500D01*
G75*
G02*
X97585000Y-69017500I175000J0D01*
G01*
G37*
G36*
G01*
X97585000Y-67442500D02*
X97995000Y-67442500D01*
G75*
G02*
X98170000Y-67617500I0J-175000D01*
G01*
X98170000Y-67967500D01*
G75*
G02*
X97995000Y-68142500I-175000J0D01*
G01*
X97585000Y-68142500D01*
G75*
G02*
X97410000Y-67967500I0J175000D01*
G01*
X97410000Y-67617500D01*
G75*
G02*
X97585000Y-67442500I175000J0D01*
G01*
G37*
G36*
G01*
X99519000Y-68142500D02*
X99109000Y-68142500D01*
G75*
G02*
X98934000Y-67967500I0J175000D01*
G01*
X98934000Y-67617500D01*
G75*
G02*
X99109000Y-67442500I175000J0D01*
G01*
X99519000Y-67442500D01*
G75*
G02*
X99694000Y-67617500I0J-175000D01*
G01*
X99694000Y-67967500D01*
G75*
G02*
X99519000Y-68142500I-175000J0D01*
G01*
G37*
G36*
G01*
X99519000Y-69717500D02*
X99109000Y-69717500D01*
G75*
G02*
X98934000Y-69542500I0J175000D01*
G01*
X98934000Y-69192500D01*
G75*
G02*
X99109000Y-69017500I175000J0D01*
G01*
X99519000Y-69017500D01*
G75*
G02*
X99694000Y-69192500I0J-175000D01*
G01*
X99694000Y-69542500D01*
G75*
G02*
X99519000Y-69717500I-175000J0D01*
G01*
G37*
G36*
G01*
X99109000Y-65969500D02*
X99519000Y-65969500D01*
G75*
G02*
X99694000Y-66144500I0J-175000D01*
G01*
X99694000Y-66494500D01*
G75*
G02*
X99519000Y-66669500I-175000J0D01*
G01*
X99109000Y-66669500D01*
G75*
G02*
X98934000Y-66494500I0J175000D01*
G01*
X98934000Y-66144500D01*
G75*
G02*
X99109000Y-65969500I175000J0D01*
G01*
G37*
G36*
G01*
X99109000Y-64394500D02*
X99519000Y-64394500D01*
G75*
G02*
X99694000Y-64569500I0J-175000D01*
G01*
X99694000Y-64919500D01*
G75*
G02*
X99519000Y-65094500I-175000J0D01*
G01*
X99109000Y-65094500D01*
G75*
G02*
X98934000Y-64919500I0J175000D01*
G01*
X98934000Y-64569500D01*
G75*
G02*
X99109000Y-64394500I175000J0D01*
G01*
G37*
D20*
X133050000Y-64850000D03*
X128450000Y-64850000D03*
X130750000Y-64850000D03*
D21*
X130750000Y-71150000D03*
G36*
G01*
X135431000Y-70795500D02*
X135841000Y-70795500D01*
G75*
G02*
X136016000Y-70970500I0J-175000D01*
G01*
X136016000Y-71320500D01*
G75*
G02*
X135841000Y-71495500I-175000J0D01*
G01*
X135431000Y-71495500D01*
G75*
G02*
X135256000Y-71320500I0J175000D01*
G01*
X135256000Y-70970500D01*
G75*
G02*
X135431000Y-70795500I175000J0D01*
G01*
G37*
G36*
G01*
X135431000Y-69220500D02*
X135841000Y-69220500D01*
G75*
G02*
X136016000Y-69395500I0J-175000D01*
G01*
X136016000Y-69745500D01*
G75*
G02*
X135841000Y-69920500I-175000J0D01*
G01*
X135431000Y-69920500D01*
G75*
G02*
X135256000Y-69745500I0J175000D01*
G01*
X135256000Y-69395500D01*
G75*
G02*
X135431000Y-69220500I175000J0D01*
G01*
G37*
G36*
G01*
X128812500Y-62545000D02*
X128812500Y-62955000D01*
G75*
G02*
X128637500Y-63130000I-175000J0D01*
G01*
X128287500Y-63130000D01*
G75*
G02*
X128112500Y-62955000I0J175000D01*
G01*
X128112500Y-62545000D01*
G75*
G02*
X128287500Y-62370000I175000J0D01*
G01*
X128637500Y-62370000D01*
G75*
G02*
X128812500Y-62545000I0J-175000D01*
G01*
G37*
G36*
G01*
X130387500Y-62545000D02*
X130387500Y-62955000D01*
G75*
G02*
X130212500Y-63130000I-175000J0D01*
G01*
X129862500Y-63130000D01*
G75*
G02*
X129687500Y-62955000I0J175000D01*
G01*
X129687500Y-62545000D01*
G75*
G02*
X129862500Y-62370000I175000J0D01*
G01*
X130212500Y-62370000D01*
G75*
G02*
X130387500Y-62545000I0J-175000D01*
G01*
G37*
G36*
G01*
X104951000Y-37013500D02*
X105361000Y-37013500D01*
G75*
G02*
X105536000Y-37188500I0J-175000D01*
G01*
X105536000Y-37538500D01*
G75*
G02*
X105361000Y-37713500I-175000J0D01*
G01*
X104951000Y-37713500D01*
G75*
G02*
X104776000Y-37538500I0J175000D01*
G01*
X104776000Y-37188500D01*
G75*
G02*
X104951000Y-37013500I175000J0D01*
G01*
G37*
G36*
G01*
X104951000Y-35438500D02*
X105361000Y-35438500D01*
G75*
G02*
X105536000Y-35613500I0J-175000D01*
G01*
X105536000Y-35963500D01*
G75*
G02*
X105361000Y-36138500I-175000J0D01*
G01*
X104951000Y-36138500D01*
G75*
G02*
X104776000Y-35963500I0J175000D01*
G01*
X104776000Y-35613500D01*
G75*
G02*
X104951000Y-35438500I175000J0D01*
G01*
G37*
M02*
