G04 #@! TF.GenerationSoftware,KiCad,Pcbnew,(5.1.9)-1*
G04 #@! TF.CreationDate,2021-02-22T14:32:51+01:00*
G04 #@! TF.ProjectId,bobbycar,626f6262-7963-4617-922e-6b696361645f,rev?*
G04 #@! TF.SameCoordinates,Original*
G04 #@! TF.FileFunction,Legend,Bot*
G04 #@! TF.FilePolarity,Positive*
%FSLAX46Y46*%
G04 Gerber Fmt 4.6, Leading zero omitted, Abs format (unit mm)*
G04 Created by KiCad (PCBNEW (5.1.9)-1) date 2021-02-22 14:32:51*
%MOMM*%
%LPD*%
G01*
G04 APERTURE LIST*
%ADD10C,0.150000*%
%ADD11C,0.200000*%
G04 APERTURE END LIST*
D10*
X104940476Y-49452380D02*
X105416666Y-49452380D01*
X105464285Y-49928571D01*
X105416666Y-49880952D01*
X105321428Y-49833333D01*
X105083333Y-49833333D01*
X104988095Y-49880952D01*
X104940476Y-49928571D01*
X104892857Y-50023809D01*
X104892857Y-50261904D01*
X104940476Y-50357142D01*
X104988095Y-50404761D01*
X105083333Y-50452380D01*
X105321428Y-50452380D01*
X105416666Y-50404761D01*
X105464285Y-50357142D01*
X104607142Y-49452380D02*
X104273809Y-50452380D01*
X103940476Y-49452380D01*
D11*
X122176571Y-62377000D02*
X122319428Y-62305571D01*
X122533714Y-62305571D01*
X122748000Y-62377000D01*
X122890857Y-62519857D01*
X122962285Y-62662714D01*
X123033714Y-62948428D01*
X123033714Y-63162714D01*
X122962285Y-63448428D01*
X122890857Y-63591285D01*
X122748000Y-63734142D01*
X122533714Y-63805571D01*
X122390857Y-63805571D01*
X122176571Y-63734142D01*
X122105142Y-63662714D01*
X122105142Y-63162714D01*
X122390857Y-63162714D01*
X121462285Y-63805571D02*
X121462285Y-62305571D01*
X120605142Y-63805571D01*
X120605142Y-62305571D01*
X119890857Y-63805571D02*
X119890857Y-62305571D01*
X119533714Y-62305571D01*
X119319428Y-62377000D01*
X119176571Y-62519857D01*
X119105142Y-62662714D01*
X119033714Y-62948428D01*
X119033714Y-63162714D01*
X119105142Y-63448428D01*
X119176571Y-63591285D01*
X119319428Y-63734142D01*
X119533714Y-63805571D01*
X119890857Y-63805571D01*
X123105142Y-66112714D02*
X123176571Y-66184142D01*
X123390857Y-66255571D01*
X123533714Y-66255571D01*
X123748000Y-66184142D01*
X123890857Y-66041285D01*
X123962285Y-65898428D01*
X124033714Y-65612714D01*
X124033714Y-65398428D01*
X123962285Y-65112714D01*
X123890857Y-64969857D01*
X123748000Y-64827000D01*
X123533714Y-64755571D01*
X123390857Y-64755571D01*
X123176571Y-64827000D01*
X123105142Y-64898428D01*
X122533714Y-65827000D02*
X121819428Y-65827000D01*
X122676571Y-66255571D02*
X122176571Y-64755571D01*
X121676571Y-66255571D01*
X121176571Y-66255571D02*
X121176571Y-64755571D01*
X120319428Y-66255571D01*
X120319428Y-64755571D01*
X118890857Y-66255571D02*
X119605142Y-66255571D01*
X119605142Y-64755571D01*
X123462285Y-68562714D02*
X123533714Y-68634142D01*
X123748000Y-68705571D01*
X123890857Y-68705571D01*
X124105142Y-68634142D01*
X124248000Y-68491285D01*
X124319428Y-68348428D01*
X124390857Y-68062714D01*
X124390857Y-67848428D01*
X124319428Y-67562714D01*
X124248000Y-67419857D01*
X124105142Y-67277000D01*
X123890857Y-67205571D01*
X123748000Y-67205571D01*
X123533714Y-67277000D01*
X123462285Y-67348428D01*
X122890857Y-68277000D02*
X122176571Y-68277000D01*
X123033714Y-68705571D02*
X122533714Y-67205571D01*
X122033714Y-68705571D01*
X121533714Y-68705571D02*
X121533714Y-67205571D01*
X120676571Y-68705571D01*
X120676571Y-67205571D01*
X119962285Y-68705571D02*
X119962285Y-67205571D01*
X119962285Y-67919857D02*
X119105142Y-67919857D01*
X119105142Y-68705571D02*
X119105142Y-67205571D01*
X121748000Y-71155571D02*
X122605142Y-71155571D01*
X122176571Y-71155571D02*
X122176571Y-69655571D01*
X122319428Y-69869857D01*
X122462285Y-70012714D01*
X122605142Y-70084142D01*
X120390857Y-69655571D02*
X121105142Y-69655571D01*
X121176571Y-70369857D01*
X121105142Y-70298428D01*
X120962285Y-70227000D01*
X120605142Y-70227000D01*
X120462285Y-70298428D01*
X120390857Y-70369857D01*
X120319428Y-70512714D01*
X120319428Y-70869857D01*
X120390857Y-71012714D01*
X120462285Y-71084142D01*
X120605142Y-71155571D01*
X120962285Y-71155571D01*
X121105142Y-71084142D01*
X121176571Y-71012714D01*
X119890857Y-69655571D02*
X119390857Y-71155571D01*
X118890857Y-69655571D01*
D10*
X105842857Y-38452380D02*
X105223809Y-38452380D01*
X105557142Y-38833333D01*
X105414285Y-38833333D01*
X105319047Y-38880952D01*
X105271428Y-38928571D01*
X105223809Y-39023809D01*
X105223809Y-39261904D01*
X105271428Y-39357142D01*
X105319047Y-39404761D01*
X105414285Y-39452380D01*
X105700000Y-39452380D01*
X105795238Y-39404761D01*
X105842857Y-39357142D01*
X104938095Y-38452380D02*
X104604761Y-39452380D01*
X104271428Y-38452380D01*
X104033333Y-38452380D02*
X103414285Y-38452380D01*
X103747619Y-38833333D01*
X103604761Y-38833333D01*
X103509523Y-38880952D01*
X103461904Y-38928571D01*
X103414285Y-39023809D01*
X103414285Y-39261904D01*
X103461904Y-39357142D01*
X103509523Y-39404761D01*
X103604761Y-39452380D01*
X103890476Y-39452380D01*
X103985714Y-39404761D01*
X104033333Y-39357142D01*
X101700000Y-38500000D02*
X101795238Y-38452380D01*
X101938095Y-38452380D01*
X102080952Y-38500000D01*
X102176190Y-38595238D01*
X102223809Y-38690476D01*
X102271428Y-38880952D01*
X102271428Y-39023809D01*
X102223809Y-39214285D01*
X102176190Y-39309523D01*
X102080952Y-39404761D01*
X101938095Y-39452380D01*
X101842857Y-39452380D01*
X101700000Y-39404761D01*
X101652380Y-39357142D01*
X101652380Y-39023809D01*
X101842857Y-39023809D01*
X101223809Y-39452380D02*
X101223809Y-38452380D01*
X100652380Y-39452380D01*
X100652380Y-38452380D01*
X100176190Y-39452380D02*
X100176190Y-38452380D01*
X99938095Y-38452380D01*
X99795238Y-38500000D01*
X99700000Y-38595238D01*
X99652380Y-38690476D01*
X99604761Y-38880952D01*
X99604761Y-39023809D01*
X99652380Y-39214285D01*
X99700000Y-39309523D01*
X99795238Y-39404761D01*
X99938095Y-39452380D01*
X100176190Y-39452380D01*
X102284595Y-53540380D02*
X102284595Y-52540380D01*
X101617928Y-52540380D02*
X101427452Y-52540380D01*
X101332214Y-52588000D01*
X101236976Y-52683238D01*
X101189357Y-52873714D01*
X101189357Y-53207047D01*
X101236976Y-53397523D01*
X101332214Y-53492761D01*
X101427452Y-53540380D01*
X101617928Y-53540380D01*
X101713166Y-53492761D01*
X101808404Y-53397523D01*
X101856023Y-53207047D01*
X101856023Y-52873714D01*
X101808404Y-52683238D01*
X101713166Y-52588000D01*
X101617928Y-52540380D01*
X100570309Y-52540380D02*
X100475071Y-52540380D01*
X100379833Y-52588000D01*
X100332214Y-52635619D01*
X100284595Y-52730857D01*
X100236976Y-52921333D01*
X100236976Y-53159428D01*
X100284595Y-53349904D01*
X100332214Y-53445142D01*
X100379833Y-53492761D01*
X100475071Y-53540380D01*
X100570309Y-53540380D01*
X100665547Y-53492761D01*
X100713166Y-53445142D01*
X100760785Y-53349904D01*
X100808404Y-53159428D01*
X100808404Y-52921333D01*
X100760785Y-52730857D01*
X100713166Y-52635619D01*
X100665547Y-52588000D01*
X100570309Y-52540380D01*
X101760785Y-54666571D02*
X101427452Y-54666571D01*
X101284595Y-55190380D02*
X101760785Y-55190380D01*
X101760785Y-54190380D01*
X101284595Y-54190380D01*
X100856023Y-55190380D02*
X100856023Y-54190380D01*
X100284595Y-55190380D01*
X100284595Y-54190380D01*
X101665547Y-55840380D02*
X101094119Y-55840380D01*
X101379833Y-56840380D02*
X101379833Y-55840380D01*
X100856023Y-55840380D02*
X100189357Y-56840380D01*
X100189357Y-55840380D02*
X100856023Y-56840380D01*
X101189357Y-58490380D02*
X101522690Y-58014190D01*
X101760785Y-58490380D02*
X101760785Y-57490380D01*
X101379833Y-57490380D01*
X101284595Y-57538000D01*
X101236976Y-57585619D01*
X101189357Y-57680857D01*
X101189357Y-57823714D01*
X101236976Y-57918952D01*
X101284595Y-57966571D01*
X101379833Y-58014190D01*
X101760785Y-58014190D01*
X100856023Y-57490380D02*
X100189357Y-58490380D01*
X100189357Y-57490380D02*
X100856023Y-58490380D01*
X102332214Y-59188000D02*
X102427452Y-59140380D01*
X102570309Y-59140380D01*
X102713166Y-59188000D01*
X102808404Y-59283238D01*
X102856023Y-59378476D01*
X102903642Y-59568952D01*
X102903642Y-59711809D01*
X102856023Y-59902285D01*
X102808404Y-59997523D01*
X102713166Y-60092761D01*
X102570309Y-60140380D01*
X102475071Y-60140380D01*
X102332214Y-60092761D01*
X102284595Y-60045142D01*
X102284595Y-59711809D01*
X102475071Y-59711809D01*
X101856023Y-60140380D02*
X101856023Y-59140380D01*
X101284595Y-60140380D01*
X101284595Y-59140380D01*
X100808404Y-60140380D02*
X100808404Y-59140380D01*
X100570309Y-59140380D01*
X100427452Y-59188000D01*
X100332214Y-59283238D01*
X100284595Y-59378476D01*
X100236976Y-59568952D01*
X100236976Y-59711809D01*
X100284595Y-59902285D01*
X100332214Y-59997523D01*
X100427452Y-60092761D01*
X100570309Y-60140380D01*
X100808404Y-60140380D01*
D11*
X101355714Y-64582904D02*
X100860476Y-64582904D01*
X101127142Y-64887666D01*
X101012857Y-64887666D01*
X100936666Y-64925761D01*
X100898571Y-64963857D01*
X100860476Y-65040047D01*
X100860476Y-65230523D01*
X100898571Y-65306714D01*
X100936666Y-65344809D01*
X101012857Y-65382904D01*
X101241428Y-65382904D01*
X101317619Y-65344809D01*
X101355714Y-65306714D01*
X100593809Y-64849571D02*
X100403333Y-65382904D01*
X100212857Y-64849571D01*
X99984285Y-64582904D02*
X99489047Y-64582904D01*
X99755714Y-64887666D01*
X99641428Y-64887666D01*
X99565238Y-64925761D01*
X99527142Y-64963857D01*
X99489047Y-65040047D01*
X99489047Y-65230523D01*
X99527142Y-65306714D01*
X99565238Y-65344809D01*
X99641428Y-65382904D01*
X99870000Y-65382904D01*
X99946190Y-65344809D01*
X99984285Y-65306714D01*
X98612857Y-64582904D02*
X98117619Y-64582904D01*
X98384285Y-64887666D01*
X98270000Y-64887666D01*
X98193809Y-64925761D01*
X98155714Y-64963857D01*
X98117619Y-65040047D01*
X98117619Y-65230523D01*
X98155714Y-65306714D01*
X98193809Y-65344809D01*
X98270000Y-65382904D01*
X98498571Y-65382904D01*
X98574761Y-65344809D01*
X98612857Y-65306714D01*
X97889047Y-64582904D02*
X97622380Y-65382904D01*
X97355714Y-64582904D01*
X97165238Y-64582904D02*
X96670000Y-64582904D01*
X96936666Y-64887666D01*
X96822380Y-64887666D01*
X96746190Y-64925761D01*
X96708095Y-64963857D01*
X96670000Y-65040047D01*
X96670000Y-65230523D01*
X96708095Y-65306714D01*
X96746190Y-65344809D01*
X96822380Y-65382904D01*
X97050952Y-65382904D01*
X97127142Y-65344809D01*
X97165238Y-65306714D01*
X100860476Y-66021000D02*
X100936666Y-65982904D01*
X101050952Y-65982904D01*
X101165238Y-66021000D01*
X101241428Y-66097190D01*
X101279523Y-66173380D01*
X101317619Y-66325761D01*
X101317619Y-66440047D01*
X101279523Y-66592428D01*
X101241428Y-66668619D01*
X101165238Y-66744809D01*
X101050952Y-66782904D01*
X100974761Y-66782904D01*
X100860476Y-66744809D01*
X100822380Y-66706714D01*
X100822380Y-66440047D01*
X100974761Y-66440047D01*
X100517619Y-66554333D02*
X100136666Y-66554333D01*
X100593809Y-66782904D02*
X100327142Y-65982904D01*
X100060476Y-66782904D01*
X99831904Y-66744809D02*
X99717619Y-66782904D01*
X99527142Y-66782904D01*
X99450952Y-66744809D01*
X99412857Y-66706714D01*
X99374761Y-66630523D01*
X99374761Y-66554333D01*
X99412857Y-66478142D01*
X99450952Y-66440047D01*
X99527142Y-66401952D01*
X99679523Y-66363857D01*
X99755714Y-66325761D01*
X99793809Y-66287666D01*
X99831904Y-66211476D01*
X99831904Y-66135285D01*
X99793809Y-66059095D01*
X99755714Y-66021000D01*
X99679523Y-65982904D01*
X99489047Y-65982904D01*
X99374761Y-66021000D01*
X98155714Y-66363857D02*
X98041428Y-66401952D01*
X98003333Y-66440047D01*
X97965238Y-66516238D01*
X97965238Y-66630523D01*
X98003333Y-66706714D01*
X98041428Y-66744809D01*
X98117619Y-66782904D01*
X98422380Y-66782904D01*
X98422380Y-65982904D01*
X98155714Y-65982904D01*
X98079523Y-66021000D01*
X98041428Y-66059095D01*
X98003333Y-66135285D01*
X98003333Y-66211476D01*
X98041428Y-66287666D01*
X98079523Y-66325761D01*
X98155714Y-66363857D01*
X98422380Y-66363857D01*
X97165238Y-66782904D02*
X97431904Y-66401952D01*
X97622380Y-66782904D02*
X97622380Y-65982904D01*
X97317619Y-65982904D01*
X97241428Y-66021000D01*
X97203333Y-66059095D01*
X97165238Y-66135285D01*
X97165238Y-66249571D01*
X97203333Y-66325761D01*
X97241428Y-66363857D01*
X97317619Y-66401952D01*
X97622380Y-66401952D01*
X96822380Y-66363857D02*
X96555714Y-66363857D01*
X96441428Y-66782904D02*
X96822380Y-66782904D01*
X96822380Y-65982904D01*
X96441428Y-65982904D01*
X100860476Y-67421000D02*
X100936666Y-67382904D01*
X101050952Y-67382904D01*
X101165238Y-67421000D01*
X101241428Y-67497190D01*
X101279523Y-67573380D01*
X101317619Y-67725761D01*
X101317619Y-67840047D01*
X101279523Y-67992428D01*
X101241428Y-68068619D01*
X101165238Y-68144809D01*
X101050952Y-68182904D01*
X100974761Y-68182904D01*
X100860476Y-68144809D01*
X100822380Y-68106714D01*
X100822380Y-67840047D01*
X100974761Y-67840047D01*
X100479523Y-68182904D02*
X100479523Y-67382904D01*
X100022380Y-68182904D01*
X100022380Y-67382904D01*
X99641428Y-68182904D02*
X99641428Y-67382904D01*
X99450952Y-67382904D01*
X99336666Y-67421000D01*
X99260476Y-67497190D01*
X99222380Y-67573380D01*
X99184285Y-67725761D01*
X99184285Y-67840047D01*
X99222380Y-67992428D01*
X99260476Y-68068619D01*
X99336666Y-68144809D01*
X99450952Y-68182904D01*
X99641428Y-68182904D01*
X97812857Y-67421000D02*
X97889047Y-67382904D01*
X98003333Y-67382904D01*
X98117619Y-67421000D01*
X98193809Y-67497190D01*
X98231904Y-67573380D01*
X98270000Y-67725761D01*
X98270000Y-67840047D01*
X98231904Y-67992428D01*
X98193809Y-68068619D01*
X98117619Y-68144809D01*
X98003333Y-68182904D01*
X97927142Y-68182904D01*
X97812857Y-68144809D01*
X97774761Y-68106714D01*
X97774761Y-67840047D01*
X97927142Y-67840047D01*
X97431904Y-68182904D02*
X97431904Y-67382904D01*
X96974761Y-68182904D01*
X96974761Y-67382904D01*
X96593809Y-68182904D02*
X96593809Y-67382904D01*
X96403333Y-67382904D01*
X96289047Y-67421000D01*
X96212857Y-67497190D01*
X96174761Y-67573380D01*
X96136666Y-67725761D01*
X96136666Y-67840047D01*
X96174761Y-67992428D01*
X96212857Y-68068619D01*
X96289047Y-68144809D01*
X96403333Y-68182904D01*
X96593809Y-68182904D01*
D10*
X109807333Y-60114380D02*
X109807333Y-60828666D01*
X109854952Y-60971523D01*
X109950190Y-61066761D01*
X110093047Y-61114380D01*
X110188285Y-61114380D01*
X108902571Y-60114380D02*
X109093047Y-60114380D01*
X109188285Y-60162000D01*
X109235904Y-60209619D01*
X109331142Y-60352476D01*
X109378761Y-60542952D01*
X109378761Y-60923904D01*
X109331142Y-61019142D01*
X109283523Y-61066761D01*
X109188285Y-61114380D01*
X108997809Y-61114380D01*
X108902571Y-61066761D01*
X108854952Y-61019142D01*
X108807333Y-60923904D01*
X108807333Y-60685809D01*
X108854952Y-60590571D01*
X108902571Y-60542952D01*
X108997809Y-60495333D01*
X109188285Y-60495333D01*
X109283523Y-60542952D01*
X109331142Y-60590571D01*
X109378761Y-60685809D01*
X113839523Y-60114380D02*
X113839523Y-60828666D01*
X113887142Y-60971523D01*
X113982380Y-61066761D01*
X114125238Y-61114380D01*
X114220476Y-61114380D01*
X112839523Y-61114380D02*
X113410952Y-61114380D01*
X113125238Y-61114380D02*
X113125238Y-60114380D01*
X113220476Y-60257238D01*
X113315714Y-60352476D01*
X113410952Y-60400095D01*
X112220476Y-60114380D02*
X112125238Y-60114380D01*
X112030000Y-60162000D01*
X111982380Y-60209619D01*
X111934761Y-60304857D01*
X111887142Y-60495333D01*
X111887142Y-60733428D01*
X111934761Y-60923904D01*
X111982380Y-61019142D01*
X112030000Y-61066761D01*
X112125238Y-61114380D01*
X112220476Y-61114380D01*
X112315714Y-61066761D01*
X112363333Y-61019142D01*
X112410952Y-60923904D01*
X112458571Y-60733428D01*
X112458571Y-60495333D01*
X112410952Y-60304857D01*
X112363333Y-60209619D01*
X112315714Y-60162000D01*
X112220476Y-60114380D01*
X117395523Y-60114380D02*
X117395523Y-60828666D01*
X117443142Y-60971523D01*
X117538380Y-61066761D01*
X117681238Y-61114380D01*
X117776476Y-61114380D01*
X116395523Y-61114380D02*
X116966952Y-61114380D01*
X116681238Y-61114380D02*
X116681238Y-60114380D01*
X116776476Y-60257238D01*
X116871714Y-60352476D01*
X116966952Y-60400095D01*
X115443142Y-61114380D02*
X116014571Y-61114380D01*
X115728857Y-61114380D02*
X115728857Y-60114380D01*
X115824095Y-60257238D01*
X115919333Y-60352476D01*
X116014571Y-60400095D01*
M02*
