G04 #@! TF.GenerationSoftware,KiCad,Pcbnew,(5.1.9)-1*
G04 #@! TF.CreationDate,2021-03-03T09:56:07+01:00*
G04 #@! TF.ProjectId,bobbycar,626f6262-7963-4617-922e-6b696361645f,rev?*
G04 #@! TF.SameCoordinates,Original*
G04 #@! TF.FileFunction,Legend,Top*
G04 #@! TF.FilePolarity,Positive*
%FSLAX46Y46*%
G04 Gerber Fmt 4.6, Leading zero omitted, Abs format (unit mm)*
G04 Created by KiCad (PCBNEW (5.1.9)-1) date 2021-03-03 09:56:07*
%MOMM*%
%LPD*%
G01*
G04 APERTURE LIST*
%ADD10C,0.120000*%
%ADD11C,0.100000*%
%ADD12C,0.150000*%
G04 APERTURE END LIST*
D10*
X136600000Y-61000000D02*
X136600000Y-70600000D01*
D11*
X126257714Y-35629809D02*
X126372000Y-35667904D01*
X126562476Y-35667904D01*
X126638666Y-35629809D01*
X126676761Y-35591714D01*
X126714857Y-35515523D01*
X126714857Y-35439333D01*
X126676761Y-35363142D01*
X126638666Y-35325047D01*
X126562476Y-35286952D01*
X126410095Y-35248857D01*
X126333904Y-35210761D01*
X126295809Y-35172666D01*
X126257714Y-35096476D01*
X126257714Y-35020285D01*
X126295809Y-34944095D01*
X126333904Y-34906000D01*
X126410095Y-34867904D01*
X126600571Y-34867904D01*
X126714857Y-34906000D01*
X127514857Y-35591714D02*
X127476761Y-35629809D01*
X127362476Y-35667904D01*
X127286285Y-35667904D01*
X127172000Y-35629809D01*
X127095809Y-35553619D01*
X127057714Y-35477428D01*
X127019619Y-35325047D01*
X127019619Y-35210761D01*
X127057714Y-35058380D01*
X127095809Y-34982190D01*
X127172000Y-34906000D01*
X127286285Y-34867904D01*
X127362476Y-34867904D01*
X127476761Y-34906000D01*
X127514857Y-34944095D01*
X128238666Y-35667904D02*
X127857714Y-35667904D01*
X127857714Y-34867904D01*
X129076761Y-35629809D02*
X129191047Y-35667904D01*
X129381523Y-35667904D01*
X129457714Y-35629809D01*
X129495809Y-35591714D01*
X129533904Y-35515523D01*
X129533904Y-35439333D01*
X129495809Y-35363142D01*
X129457714Y-35325047D01*
X129381523Y-35286952D01*
X129229142Y-35248857D01*
X129152952Y-35210761D01*
X129114857Y-35172666D01*
X129076761Y-35096476D01*
X129076761Y-35020285D01*
X129114857Y-34944095D01*
X129152952Y-34906000D01*
X129229142Y-34867904D01*
X129419619Y-34867904D01*
X129533904Y-34906000D01*
X129876761Y-35667904D02*
X129876761Y-34867904D01*
X130067238Y-34867904D01*
X130181523Y-34906000D01*
X130257714Y-34982190D01*
X130295809Y-35058380D01*
X130333904Y-35210761D01*
X130333904Y-35325047D01*
X130295809Y-35477428D01*
X130257714Y-35553619D01*
X130181523Y-35629809D01*
X130067238Y-35667904D01*
X129876761Y-35667904D01*
X130638666Y-35439333D02*
X131019619Y-35439333D01*
X130562476Y-35667904D02*
X130829142Y-34867904D01*
X131095809Y-35667904D01*
X131895809Y-34867904D02*
X132391047Y-34867904D01*
X132124380Y-35172666D01*
X132238666Y-35172666D01*
X132314857Y-35210761D01*
X132352952Y-35248857D01*
X132391047Y-35325047D01*
X132391047Y-35515523D01*
X132352952Y-35591714D01*
X132314857Y-35629809D01*
X132238666Y-35667904D01*
X132010095Y-35667904D01*
X131933904Y-35629809D01*
X131895809Y-35591714D01*
X132619619Y-34867904D02*
X132886285Y-35667904D01*
X133152952Y-34867904D01*
X133343428Y-34867904D02*
X133838666Y-34867904D01*
X133572000Y-35172666D01*
X133686285Y-35172666D01*
X133762476Y-35210761D01*
X133800571Y-35248857D01*
X133838666Y-35325047D01*
X133838666Y-35515523D01*
X133800571Y-35591714D01*
X133762476Y-35629809D01*
X133686285Y-35667904D01*
X133457714Y-35667904D01*
X133381523Y-35629809D01*
X133343428Y-35591714D01*
X135210095Y-34906000D02*
X135133904Y-34867904D01*
X135019619Y-34867904D01*
X134905333Y-34906000D01*
X134829142Y-34982190D01*
X134791047Y-35058380D01*
X134752952Y-35210761D01*
X134752952Y-35325047D01*
X134791047Y-35477428D01*
X134829142Y-35553619D01*
X134905333Y-35629809D01*
X135019619Y-35667904D01*
X135095809Y-35667904D01*
X135210095Y-35629809D01*
X135248190Y-35591714D01*
X135248190Y-35325047D01*
X135095809Y-35325047D01*
X135591047Y-35667904D02*
X135591047Y-34867904D01*
X136048190Y-35667904D01*
X136048190Y-34867904D01*
X136429142Y-35667904D02*
X136429142Y-34867904D01*
X136619619Y-34867904D01*
X136733904Y-34906000D01*
X136810095Y-34982190D01*
X136848190Y-35058380D01*
X136886285Y-35210761D01*
X136886285Y-35325047D01*
X136848190Y-35477428D01*
X136810095Y-35553619D01*
X136733904Y-35629809D01*
X136619619Y-35667904D01*
X136429142Y-35667904D01*
D12*
X125452380Y-55823809D02*
X125566666Y-55861904D01*
X125757142Y-55861904D01*
X125833333Y-55823809D01*
X125871428Y-55785714D01*
X125909523Y-55709523D01*
X125909523Y-55633333D01*
X125871428Y-55557142D01*
X125833333Y-55519047D01*
X125757142Y-55480952D01*
X125604761Y-55442857D01*
X125528571Y-55404761D01*
X125490476Y-55366666D01*
X125452380Y-55290476D01*
X125452380Y-55214285D01*
X125490476Y-55138095D01*
X125528571Y-55100000D01*
X125604761Y-55061904D01*
X125795238Y-55061904D01*
X125909523Y-55100000D01*
X126252380Y-55861904D02*
X126252380Y-55061904D01*
X126442857Y-55061904D01*
X126557142Y-55100000D01*
X126633333Y-55176190D01*
X126671428Y-55252380D01*
X126709523Y-55404761D01*
X126709523Y-55519047D01*
X126671428Y-55671428D01*
X126633333Y-55747619D01*
X126557142Y-55823809D01*
X126442857Y-55861904D01*
X126252380Y-55861904D01*
X127204761Y-55061904D02*
X127357142Y-55061904D01*
X127433333Y-55100000D01*
X127509523Y-55176190D01*
X127547619Y-55328571D01*
X127547619Y-55595238D01*
X127509523Y-55747619D01*
X127433333Y-55823809D01*
X127357142Y-55861904D01*
X127204761Y-55861904D01*
X127128571Y-55823809D01*
X127052380Y-55747619D01*
X127014285Y-55595238D01*
X127014285Y-55328571D01*
X127052380Y-55176190D01*
X127128571Y-55100000D01*
X127204761Y-55061904D01*
X123485714Y-55861904D02*
X123104761Y-55861904D01*
X123104761Y-55061904D01*
X123752380Y-55442857D02*
X124019047Y-55442857D01*
X124133333Y-55861904D02*
X123752380Y-55861904D01*
X123752380Y-55061904D01*
X124133333Y-55061904D01*
X124476190Y-55861904D02*
X124476190Y-55061904D01*
X124666666Y-55061904D01*
X124780952Y-55100000D01*
X124857142Y-55176190D01*
X124895238Y-55252380D01*
X124933333Y-55404761D01*
X124933333Y-55519047D01*
X124895238Y-55671428D01*
X124857142Y-55747619D01*
X124780952Y-55823809D01*
X124666666Y-55861904D01*
X124476190Y-55861904D01*
X119971428Y-55823809D02*
X120085714Y-55861904D01*
X120276190Y-55861904D01*
X120352380Y-55823809D01*
X120390476Y-55785714D01*
X120428571Y-55709523D01*
X120428571Y-55633333D01*
X120390476Y-55557142D01*
X120352380Y-55519047D01*
X120276190Y-55480952D01*
X120123809Y-55442857D01*
X120047619Y-55404761D01*
X120009523Y-55366666D01*
X119971428Y-55290476D01*
X119971428Y-55214285D01*
X120009523Y-55138095D01*
X120047619Y-55100000D01*
X120123809Y-55061904D01*
X120314285Y-55061904D01*
X120428571Y-55100000D01*
X121228571Y-55785714D02*
X121190476Y-55823809D01*
X121076190Y-55861904D01*
X121000000Y-55861904D01*
X120885714Y-55823809D01*
X120809523Y-55747619D01*
X120771428Y-55671428D01*
X120733333Y-55519047D01*
X120733333Y-55404761D01*
X120771428Y-55252380D01*
X120809523Y-55176190D01*
X120885714Y-55100000D01*
X121000000Y-55061904D01*
X121076190Y-55061904D01*
X121190476Y-55100000D01*
X121228571Y-55138095D01*
X121571428Y-55861904D02*
X121571428Y-55061904D01*
X122028571Y-55861904D02*
X121685714Y-55404761D01*
X122028571Y-55061904D02*
X121571428Y-55519047D01*
X117680952Y-55823809D02*
X117795238Y-55861904D01*
X117985714Y-55861904D01*
X118061904Y-55823809D01*
X118100000Y-55785714D01*
X118138095Y-55709523D01*
X118138095Y-55633333D01*
X118100000Y-55557142D01*
X118061904Y-55519047D01*
X117985714Y-55480952D01*
X117833333Y-55442857D01*
X117757142Y-55404761D01*
X117719047Y-55366666D01*
X117680952Y-55290476D01*
X117680952Y-55214285D01*
X117719047Y-55138095D01*
X117757142Y-55100000D01*
X117833333Y-55061904D01*
X118023809Y-55061904D01*
X118138095Y-55100000D01*
X118480952Y-55861904D02*
X118480952Y-55061904D01*
X118671428Y-55061904D01*
X118785714Y-55100000D01*
X118861904Y-55176190D01*
X118900000Y-55252380D01*
X118938095Y-55404761D01*
X118938095Y-55519047D01*
X118900000Y-55671428D01*
X118861904Y-55747619D01*
X118785714Y-55823809D01*
X118671428Y-55861904D01*
X118480952Y-55861904D01*
X119280952Y-55861904D02*
X119280952Y-55061904D01*
X115390476Y-55861904D02*
X115390476Y-55061904D01*
X115580952Y-55061904D01*
X115695238Y-55100000D01*
X115771428Y-55176190D01*
X115809523Y-55252380D01*
X115847619Y-55404761D01*
X115847619Y-55519047D01*
X115809523Y-55671428D01*
X115771428Y-55747619D01*
X115695238Y-55823809D01*
X115580952Y-55861904D01*
X115390476Y-55861904D01*
X116647619Y-55785714D02*
X116609523Y-55823809D01*
X116495238Y-55861904D01*
X116419047Y-55861904D01*
X116304761Y-55823809D01*
X116228571Y-55747619D01*
X116190476Y-55671428D01*
X116152380Y-55519047D01*
X116152380Y-55404761D01*
X116190476Y-55252380D01*
X116228571Y-55176190D01*
X116304761Y-55100000D01*
X116419047Y-55061904D01*
X116495238Y-55061904D01*
X116609523Y-55100000D01*
X116647619Y-55138095D01*
X113004761Y-55861904D02*
X112738095Y-55480952D01*
X112547619Y-55861904D02*
X112547619Y-55061904D01*
X112852380Y-55061904D01*
X112928571Y-55100000D01*
X112966666Y-55138095D01*
X113004761Y-55214285D01*
X113004761Y-55328571D01*
X112966666Y-55404761D01*
X112928571Y-55442857D01*
X112852380Y-55480952D01*
X112547619Y-55480952D01*
X113347619Y-55442857D02*
X113614285Y-55442857D01*
X113728571Y-55861904D02*
X113347619Y-55861904D01*
X113347619Y-55061904D01*
X113728571Y-55061904D01*
X114033333Y-55823809D02*
X114147619Y-55861904D01*
X114338095Y-55861904D01*
X114414285Y-55823809D01*
X114452380Y-55785714D01*
X114490476Y-55709523D01*
X114490476Y-55633333D01*
X114452380Y-55557142D01*
X114414285Y-55519047D01*
X114338095Y-55480952D01*
X114185714Y-55442857D01*
X114109523Y-55404761D01*
X114071428Y-55366666D01*
X114033333Y-55290476D01*
X114033333Y-55214285D01*
X114071428Y-55138095D01*
X114109523Y-55100000D01*
X114185714Y-55061904D01*
X114376190Y-55061904D01*
X114490476Y-55100000D01*
X110866666Y-55785714D02*
X110828571Y-55823809D01*
X110714285Y-55861904D01*
X110638095Y-55861904D01*
X110523809Y-55823809D01*
X110447619Y-55747619D01*
X110409523Y-55671428D01*
X110371428Y-55519047D01*
X110371428Y-55404761D01*
X110409523Y-55252380D01*
X110447619Y-55176190D01*
X110523809Y-55100000D01*
X110638095Y-55061904D01*
X110714285Y-55061904D01*
X110828571Y-55100000D01*
X110866666Y-55138095D01*
X111171428Y-55823809D02*
X111285714Y-55861904D01*
X111476190Y-55861904D01*
X111552380Y-55823809D01*
X111590476Y-55785714D01*
X111628571Y-55709523D01*
X111628571Y-55633333D01*
X111590476Y-55557142D01*
X111552380Y-55519047D01*
X111476190Y-55480952D01*
X111323809Y-55442857D01*
X111247619Y-55404761D01*
X111209523Y-55366666D01*
X111171428Y-55290476D01*
X111171428Y-55214285D01*
X111209523Y-55138095D01*
X111247619Y-55100000D01*
X111323809Y-55061904D01*
X111514285Y-55061904D01*
X111628571Y-55100000D01*
X107890476Y-55100000D02*
X107814285Y-55061904D01*
X107700000Y-55061904D01*
X107585714Y-55100000D01*
X107509523Y-55176190D01*
X107471428Y-55252380D01*
X107433333Y-55404761D01*
X107433333Y-55519047D01*
X107471428Y-55671428D01*
X107509523Y-55747619D01*
X107585714Y-55823809D01*
X107700000Y-55861904D01*
X107776190Y-55861904D01*
X107890476Y-55823809D01*
X107928571Y-55785714D01*
X107928571Y-55519047D01*
X107776190Y-55519047D01*
X108271428Y-55861904D02*
X108271428Y-55061904D01*
X108728571Y-55861904D01*
X108728571Y-55061904D01*
X109109523Y-55861904D02*
X109109523Y-55061904D01*
X109300000Y-55061904D01*
X109414285Y-55100000D01*
X109490476Y-55176190D01*
X109528571Y-55252380D01*
X109566666Y-55404761D01*
X109566666Y-55519047D01*
X109528571Y-55671428D01*
X109490476Y-55747619D01*
X109414285Y-55823809D01*
X109300000Y-55861904D01*
X109109523Y-55861904D01*
X105847619Y-55061904D02*
X105466666Y-55061904D01*
X105428571Y-55442857D01*
X105466666Y-55404761D01*
X105542857Y-55366666D01*
X105733333Y-55366666D01*
X105809523Y-55404761D01*
X105847619Y-55442857D01*
X105885714Y-55519047D01*
X105885714Y-55709523D01*
X105847619Y-55785714D01*
X105809523Y-55823809D01*
X105733333Y-55861904D01*
X105542857Y-55861904D01*
X105466666Y-55823809D01*
X105428571Y-55785714D01*
X106114285Y-55061904D02*
X106380952Y-55861904D01*
X106647619Y-55061904D01*
D10*
X116000000Y-50500000D02*
X116000000Y-54500000D01*
X126477500Y-60737258D02*
X126477500Y-60262742D01*
X127522500Y-60737258D02*
X127522500Y-60262742D01*
X123740000Y-58920000D02*
X123740000Y-59850000D01*
X123740000Y-62080000D02*
X123740000Y-61150000D01*
X123740000Y-62080000D02*
X125900000Y-62080000D01*
X123740000Y-58920000D02*
X125200000Y-58920000D01*
X130040000Y-49800000D02*
X130040000Y-51750000D01*
X130040000Y-49800000D02*
X130040000Y-47850000D01*
X135160000Y-49800000D02*
X135160000Y-51750000D01*
X135160000Y-49800000D02*
X135160000Y-46350000D01*
X134334420Y-45260000D02*
X134615580Y-45260000D01*
X134334420Y-44240000D02*
X134615580Y-44240000D01*
X102868000Y-36413221D02*
X102868000Y-36738779D01*
X103888000Y-36413221D02*
X103888000Y-36738779D01*
X106880000Y-34555000D02*
X106500000Y-34555000D01*
X106880000Y-28135000D02*
X106880000Y-34555000D01*
X125120000Y-28135000D02*
X125120000Y-34555000D01*
X106880000Y-28135000D02*
X125120000Y-28135000D01*
X125120000Y-53880000D02*
X124120000Y-53880000D01*
X125120000Y-53100000D02*
X125120000Y-53880000D01*
X106880000Y-53880000D02*
X107880000Y-53880000D01*
X106880000Y-53100000D02*
X106880000Y-53880000D01*
X131080742Y-44181500D02*
X131555258Y-44181500D01*
X131080742Y-45226500D02*
X131555258Y-45226500D01*
X131080742Y-42657500D02*
X131555258Y-42657500D01*
X131080742Y-43702500D02*
X131555258Y-43702500D01*
X100315500Y-65769258D02*
X100315500Y-65294742D01*
X101360500Y-65769258D02*
X101360500Y-65294742D01*
X101360500Y-68342742D02*
X101360500Y-68817258D01*
X100315500Y-68342742D02*
X100315500Y-68817258D01*
X95162000Y-66778000D02*
X96862000Y-66778000D01*
X96862000Y-66778000D02*
X96862000Y-64228000D01*
X95162000Y-66778000D02*
X95162000Y-64228000D01*
X96862000Y-67334000D02*
X95162000Y-67334000D01*
X95162000Y-67334000D02*
X95162000Y-69884000D01*
X96862000Y-67334000D02*
X96862000Y-69884000D01*
X129200000Y-57530000D02*
X129200000Y-60950000D01*
X129200000Y-60950000D02*
X136170000Y-60950000D01*
X136170000Y-60950000D02*
X136170000Y-57530000D01*
X136170000Y-57530000D02*
X129200000Y-57530000D01*
X132685000Y-60440000D02*
X129710000Y-60440000D01*
X129710000Y-60440000D02*
X129710000Y-59690000D01*
X129710000Y-59690000D02*
X129510000Y-59690000D01*
X129510000Y-59690000D02*
X129510000Y-58890000D01*
X129510000Y-58890000D02*
X129710000Y-58890000D01*
X129710000Y-58890000D02*
X129710000Y-58040000D01*
X129710000Y-58040000D02*
X132685000Y-58040000D01*
X132685000Y-60440000D02*
X135660000Y-60440000D01*
X135660000Y-60440000D02*
X135660000Y-59690000D01*
X135660000Y-59690000D02*
X135860000Y-59690000D01*
X135860000Y-59690000D02*
X135860000Y-58890000D01*
X135860000Y-58890000D02*
X135660000Y-58890000D01*
X135660000Y-58890000D02*
X135660000Y-58040000D01*
X135660000Y-58040000D02*
X132685000Y-58040000D01*
X128910000Y-61240000D02*
X128910000Y-60240000D01*
X128910000Y-61240000D02*
X129910000Y-61240000D01*
X106588779Y-59434000D02*
X106263221Y-59434000D01*
X106588779Y-60454000D02*
X106263221Y-60454000D01*
X103888000Y-60868779D02*
X103888000Y-60543221D01*
X102868000Y-60868779D02*
X102868000Y-60543221D01*
X114391221Y-60454000D02*
X114716779Y-60454000D01*
X114391221Y-59434000D02*
X114716779Y-59434000D01*
X110073221Y-60454000D02*
X110398779Y-60454000D01*
X110073221Y-59434000D02*
X110398779Y-59434000D01*
X108144000Y-61662000D02*
X109474000Y-61662000D01*
X108144000Y-62992000D02*
X108144000Y-61662000D01*
X108144000Y-64262000D02*
X110804000Y-64262000D01*
X110804000Y-64262000D02*
X110804000Y-71942000D01*
X108144000Y-64262000D02*
X108144000Y-71942000D01*
X108144000Y-71942000D02*
X110804000Y-71942000D01*
X130246000Y-56132000D02*
X130246000Y-54672000D01*
X133406000Y-56132000D02*
X133406000Y-53972000D01*
X133406000Y-56132000D02*
X132476000Y-56132000D01*
X130246000Y-56132000D02*
X131176000Y-56132000D01*
X95952000Y-35500000D02*
X97282000Y-35500000D01*
X95952000Y-36830000D02*
X95952000Y-35500000D01*
X95952000Y-38100000D02*
X98612000Y-38100000D01*
X98612000Y-38100000D02*
X98612000Y-48320000D01*
X95952000Y-38100000D02*
X95952000Y-48320000D01*
X95952000Y-48320000D02*
X98612000Y-48320000D01*
X119153000Y-67048748D02*
X119153000Y-67571252D01*
X120623000Y-67048748D02*
X120623000Y-67571252D01*
X133766000Y-36431000D02*
X129886000Y-36431000D01*
X128716000Y-40901000D02*
X129766000Y-40901000D01*
X128716000Y-38401000D02*
X128716000Y-40901000D01*
X133886000Y-40901000D02*
X133886000Y-41891000D01*
X134936000Y-40901000D02*
X133886000Y-40901000D01*
X134936000Y-38401000D02*
X134936000Y-40901000D01*
X129542000Y-51194580D02*
X129542000Y-50913420D01*
X128522000Y-51194580D02*
X128522000Y-50913420D01*
X111700000Y-61662000D02*
X113030000Y-61662000D01*
X111700000Y-62992000D02*
X111700000Y-61662000D01*
X111700000Y-64262000D02*
X114360000Y-64262000D01*
X114360000Y-64262000D02*
X114360000Y-71942000D01*
X111700000Y-64262000D02*
X111700000Y-71942000D01*
X111700000Y-71942000D02*
X114360000Y-71942000D01*
X125459258Y-70851500D02*
X124984742Y-70851500D01*
X125459258Y-71896500D02*
X124984742Y-71896500D01*
X135380000Y-55231420D02*
X135380000Y-55512580D01*
X136400000Y-55231420D02*
X136400000Y-55512580D01*
X120156500Y-70786258D02*
X120156500Y-70311742D01*
X119111500Y-70786258D02*
X119111500Y-70311742D01*
X115256000Y-61662000D02*
X116586000Y-61662000D01*
X115256000Y-62992000D02*
X115256000Y-61662000D01*
X115256000Y-64262000D02*
X117916000Y-64262000D01*
X117916000Y-64262000D02*
X117916000Y-71942000D01*
X115256000Y-64262000D02*
X115256000Y-71942000D01*
X115256000Y-71942000D02*
X117916000Y-71942000D01*
X124452748Y-65759000D02*
X124975252Y-65759000D01*
X124452748Y-64289000D02*
X124975252Y-64289000D01*
X122411258Y-70851500D02*
X121936742Y-70851500D01*
X122411258Y-71896500D02*
X121936742Y-71896500D01*
X134888500Y-55609258D02*
X134888500Y-55134742D01*
X133843500Y-55609258D02*
X133843500Y-55134742D01*
X128763500Y-55134742D02*
X128763500Y-55609258D01*
X129808500Y-55134742D02*
X129808500Y-55609258D01*
X126860000Y-66426000D02*
X126860000Y-70226000D01*
X126860000Y-70226000D02*
X121560000Y-70226000D01*
X121560000Y-70226000D02*
X121560000Y-66426000D01*
X121560000Y-66426000D02*
X126860000Y-66426000D01*
X126040000Y-53037221D02*
X126040000Y-53362779D01*
X127060000Y-53037221D02*
X127060000Y-53362779D01*
X101437221Y-58168000D02*
X101762779Y-58168000D01*
X101437221Y-57148000D02*
X101762779Y-57148000D01*
X101762779Y-54862000D02*
X101437221Y-54862000D01*
X101762779Y-55882000D02*
X101437221Y-55882000D01*
X98300000Y-65694779D02*
X98300000Y-65369221D01*
X97280000Y-65694779D02*
X97280000Y-65369221D01*
X97280000Y-68417221D02*
X97280000Y-68742779D01*
X98300000Y-68417221D02*
X98300000Y-68742779D01*
X99824000Y-68742779D02*
X99824000Y-68417221D01*
X98804000Y-68742779D02*
X98804000Y-68417221D01*
X98804000Y-65369221D02*
X98804000Y-65694779D01*
X99824000Y-65369221D02*
X99824000Y-65694779D01*
X134160000Y-63900000D02*
X134160000Y-69910000D01*
X127340000Y-66150000D02*
X127340000Y-69910000D01*
X134160000Y-69910000D02*
X132900000Y-69910000D01*
X127340000Y-69910000D02*
X128600000Y-69910000D01*
X135126000Y-70195221D02*
X135126000Y-70520779D01*
X136146000Y-70195221D02*
X136146000Y-70520779D01*
X129412779Y-62240000D02*
X129087221Y-62240000D01*
X129412779Y-63260000D02*
X129087221Y-63260000D01*
X104646000Y-36413221D02*
X104646000Y-36738779D01*
X105666000Y-36413221D02*
X105666000Y-36738779D01*
D12*
X127452380Y-64142857D02*
X126976190Y-64476190D01*
X127452380Y-64714285D02*
X126452380Y-64714285D01*
X126452380Y-64333333D01*
X126500000Y-64238095D01*
X126547619Y-64190476D01*
X126642857Y-64142857D01*
X126785714Y-64142857D01*
X126880952Y-64190476D01*
X126928571Y-64238095D01*
X126976190Y-64333333D01*
X126976190Y-64714285D01*
X127452380Y-63190476D02*
X127452380Y-63761904D01*
X127452380Y-63476190D02*
X126452380Y-63476190D01*
X126595238Y-63571428D01*
X126690476Y-63666666D01*
X126738095Y-63761904D01*
X127452380Y-62714285D02*
X127452380Y-62523809D01*
X127404761Y-62428571D01*
X127357142Y-62380952D01*
X127214285Y-62285714D01*
X127023809Y-62238095D01*
X126642857Y-62238095D01*
X126547619Y-62285714D01*
X126500000Y-62333333D01*
X126452380Y-62428571D01*
X126452380Y-62619047D01*
X126500000Y-62714285D01*
X126547619Y-62761904D01*
X126642857Y-62809523D01*
X126880952Y-62809523D01*
X126976190Y-62761904D01*
X127023809Y-62714285D01*
X127071428Y-62619047D01*
X127071428Y-62428571D01*
X127023809Y-62333333D01*
X126976190Y-62285714D01*
X126880952Y-62238095D01*
X121404761Y-60797619D02*
X121309523Y-60750000D01*
X121214285Y-60654761D01*
X121071428Y-60511904D01*
X120976190Y-60464285D01*
X120880952Y-60464285D01*
X120928571Y-60702380D02*
X120833333Y-60654761D01*
X120738095Y-60559523D01*
X120690476Y-60369047D01*
X120690476Y-60035714D01*
X120738095Y-59845238D01*
X120833333Y-59750000D01*
X120928571Y-59702380D01*
X121119047Y-59702380D01*
X121214285Y-59750000D01*
X121309523Y-59845238D01*
X121357142Y-60035714D01*
X121357142Y-60369047D01*
X121309523Y-60559523D01*
X121214285Y-60654761D01*
X121119047Y-60702380D01*
X120928571Y-60702380D01*
X122309523Y-60702380D02*
X121738095Y-60702380D01*
X122023809Y-60702380D02*
X122023809Y-59702380D01*
X121928571Y-59845238D01*
X121833333Y-59940476D01*
X121738095Y-59988095D01*
X135452380Y-50561904D02*
X136261904Y-50561904D01*
X136357142Y-50514285D01*
X136404761Y-50466666D01*
X136452380Y-50371428D01*
X136452380Y-50180952D01*
X136404761Y-50085714D01*
X136357142Y-50038095D01*
X136261904Y-49990476D01*
X135452380Y-49990476D01*
X135547619Y-49561904D02*
X135500000Y-49514285D01*
X135452380Y-49419047D01*
X135452380Y-49180952D01*
X135500000Y-49085714D01*
X135547619Y-49038095D01*
X135642857Y-48990476D01*
X135738095Y-48990476D01*
X135880952Y-49038095D01*
X136452380Y-49609523D01*
X136452380Y-48990476D01*
X134333333Y-43607142D02*
X134285714Y-43654761D01*
X134142857Y-43702380D01*
X134047619Y-43702380D01*
X133904761Y-43654761D01*
X133809523Y-43559523D01*
X133761904Y-43464285D01*
X133714285Y-43273809D01*
X133714285Y-43130952D01*
X133761904Y-42940476D01*
X133809523Y-42845238D01*
X133904761Y-42750000D01*
X134047619Y-42702380D01*
X134142857Y-42702380D01*
X134285714Y-42750000D01*
X134333333Y-42797619D01*
X135190476Y-43035714D02*
X135190476Y-43702380D01*
X134952380Y-42654761D02*
X134714285Y-43369047D01*
X135333333Y-43369047D01*
X103735142Y-33694666D02*
X103782761Y-33742285D01*
X103830380Y-33885142D01*
X103830380Y-33980380D01*
X103782761Y-34123238D01*
X103687523Y-34218476D01*
X103592285Y-34266095D01*
X103401809Y-34313714D01*
X103258952Y-34313714D01*
X103068476Y-34266095D01*
X102973238Y-34218476D01*
X102878000Y-34123238D01*
X102830380Y-33980380D01*
X102830380Y-33885142D01*
X102878000Y-33742285D01*
X102925619Y-33694666D01*
X102925619Y-33313714D02*
X102878000Y-33266095D01*
X102830380Y-33170857D01*
X102830380Y-32932761D01*
X102878000Y-32837523D01*
X102925619Y-32789904D01*
X103020857Y-32742285D01*
X103116095Y-32742285D01*
X103258952Y-32789904D01*
X103830380Y-33361333D01*
X103830380Y-32742285D01*
X109952380Y-51261904D02*
X110761904Y-51261904D01*
X110857142Y-51214285D01*
X110904761Y-51166666D01*
X110952380Y-51071428D01*
X110952380Y-50880952D01*
X110904761Y-50785714D01*
X110857142Y-50738095D01*
X110761904Y-50690476D01*
X109952380Y-50690476D01*
X110952380Y-49690476D02*
X110952380Y-50261904D01*
X110952380Y-49976190D02*
X109952380Y-49976190D01*
X110095238Y-50071428D01*
X110190476Y-50166666D01*
X110238095Y-50261904D01*
X127857142Y-45202380D02*
X127523809Y-44726190D01*
X127285714Y-45202380D02*
X127285714Y-44202380D01*
X127666666Y-44202380D01*
X127761904Y-44250000D01*
X127809523Y-44297619D01*
X127857142Y-44392857D01*
X127857142Y-44535714D01*
X127809523Y-44630952D01*
X127761904Y-44678571D01*
X127666666Y-44726190D01*
X127285714Y-44726190D01*
X128809523Y-45202380D02*
X128238095Y-45202380D01*
X128523809Y-45202380D02*
X128523809Y-44202380D01*
X128428571Y-44345238D01*
X128333333Y-44440476D01*
X128238095Y-44488095D01*
X129761904Y-45202380D02*
X129190476Y-45202380D01*
X129476190Y-45202380D02*
X129476190Y-44202380D01*
X129380952Y-44345238D01*
X129285714Y-44440476D01*
X129190476Y-44488095D01*
X127857142Y-43702380D02*
X127523809Y-43226190D01*
X127285714Y-43702380D02*
X127285714Y-42702380D01*
X127666666Y-42702380D01*
X127761904Y-42750000D01*
X127809523Y-42797619D01*
X127857142Y-42892857D01*
X127857142Y-43035714D01*
X127809523Y-43130952D01*
X127761904Y-43178571D01*
X127666666Y-43226190D01*
X127285714Y-43226190D01*
X128809523Y-43702380D02*
X128238095Y-43702380D01*
X128523809Y-43702380D02*
X128523809Y-42702380D01*
X128428571Y-42845238D01*
X128333333Y-42940476D01*
X128238095Y-42988095D01*
X129428571Y-42702380D02*
X129523809Y-42702380D01*
X129619047Y-42750000D01*
X129666666Y-42797619D01*
X129714285Y-42892857D01*
X129761904Y-43083333D01*
X129761904Y-43321428D01*
X129714285Y-43511904D01*
X129666666Y-43607142D01*
X129619047Y-43654761D01*
X129523809Y-43702380D01*
X129428571Y-43702380D01*
X129333333Y-43654761D01*
X129285714Y-43607142D01*
X129238095Y-43511904D01*
X129190476Y-43321428D01*
X129190476Y-43083333D01*
X129238095Y-42892857D01*
X129285714Y-42797619D01*
X129333333Y-42750000D01*
X129428571Y-42702380D01*
X102306380Y-61380666D02*
X101830190Y-61714000D01*
X102306380Y-61952095D02*
X101306380Y-61952095D01*
X101306380Y-61571142D01*
X101354000Y-61475904D01*
X101401619Y-61428285D01*
X101496857Y-61380666D01*
X101639714Y-61380666D01*
X101734952Y-61428285D01*
X101782571Y-61475904D01*
X101830190Y-61571142D01*
X101830190Y-61952095D01*
X102306380Y-60904476D02*
X102306380Y-60714000D01*
X102258761Y-60618761D01*
X102211142Y-60571142D01*
X102068285Y-60475904D01*
X101877809Y-60428285D01*
X101496857Y-60428285D01*
X101401619Y-60475904D01*
X101354000Y-60523523D01*
X101306380Y-60618761D01*
X101306380Y-60809238D01*
X101354000Y-60904476D01*
X101401619Y-60952095D01*
X101496857Y-60999714D01*
X101734952Y-60999714D01*
X101830190Y-60952095D01*
X101877809Y-60904476D01*
X101925428Y-60809238D01*
X101925428Y-60618761D01*
X101877809Y-60523523D01*
X101830190Y-60475904D01*
X101734952Y-60428285D01*
X101306333Y-72842380D02*
X100973000Y-72366190D01*
X100734904Y-72842380D02*
X100734904Y-71842380D01*
X101115857Y-71842380D01*
X101211095Y-71890000D01*
X101258714Y-71937619D01*
X101306333Y-72032857D01*
X101306333Y-72175714D01*
X101258714Y-72270952D01*
X101211095Y-72318571D01*
X101115857Y-72366190D01*
X100734904Y-72366190D01*
X101687285Y-71937619D02*
X101734904Y-71890000D01*
X101830142Y-71842380D01*
X102068238Y-71842380D01*
X102163476Y-71890000D01*
X102211095Y-71937619D01*
X102258714Y-72032857D01*
X102258714Y-72128095D01*
X102211095Y-72270952D01*
X101639666Y-72842380D01*
X102258714Y-72842380D01*
X96210380Y-63476095D02*
X95210380Y-63476095D01*
X95210380Y-63238000D01*
X95258000Y-63095142D01*
X95353238Y-62999904D01*
X95448476Y-62952285D01*
X95638952Y-62904666D01*
X95781809Y-62904666D01*
X95972285Y-62952285D01*
X96067523Y-62999904D01*
X96162761Y-63095142D01*
X96210380Y-63238000D01*
X96210380Y-63476095D01*
X95210380Y-62571333D02*
X95210380Y-61952285D01*
X95591333Y-62285619D01*
X95591333Y-62142761D01*
X95638952Y-62047523D01*
X95686571Y-61999904D01*
X95781809Y-61952285D01*
X96019904Y-61952285D01*
X96115142Y-61999904D01*
X96162761Y-62047523D01*
X96210380Y-62142761D01*
X96210380Y-62428476D01*
X96162761Y-62523714D01*
X96115142Y-62571333D01*
X95273904Y-71572380D02*
X95273904Y-70572380D01*
X95512000Y-70572380D01*
X95654857Y-70620000D01*
X95750095Y-70715238D01*
X95797714Y-70810476D01*
X95845333Y-71000952D01*
X95845333Y-71143809D01*
X95797714Y-71334285D01*
X95750095Y-71429523D01*
X95654857Y-71524761D01*
X95512000Y-71572380D01*
X95273904Y-71572380D01*
X96226285Y-70667619D02*
X96273904Y-70620000D01*
X96369142Y-70572380D01*
X96607238Y-70572380D01*
X96702476Y-70620000D01*
X96750095Y-70667619D01*
X96797714Y-70762857D01*
X96797714Y-70858095D01*
X96750095Y-71000952D01*
X96178666Y-71572380D01*
X96797714Y-71572380D01*
X134540666Y-61555380D02*
X134540666Y-62269666D01*
X134493047Y-62412523D01*
X134397809Y-62507761D01*
X134254952Y-62555380D01*
X134159714Y-62555380D01*
X135064476Y-62555380D02*
X135254952Y-62555380D01*
X135350190Y-62507761D01*
X135397809Y-62460142D01*
X135493047Y-62317285D01*
X135540666Y-62126809D01*
X135540666Y-61745857D01*
X135493047Y-61650619D01*
X135445428Y-61603000D01*
X135350190Y-61555380D01*
X135159714Y-61555380D01*
X135064476Y-61603000D01*
X135016857Y-61650619D01*
X134969238Y-61745857D01*
X134969238Y-61983952D01*
X135016857Y-62079190D01*
X135064476Y-62126809D01*
X135159714Y-62174428D01*
X135350190Y-62174428D01*
X135445428Y-62126809D01*
X135493047Y-62079190D01*
X135540666Y-61983952D01*
X106333333Y-59202380D02*
X106000000Y-58726190D01*
X105761904Y-59202380D02*
X105761904Y-58202380D01*
X106142857Y-58202380D01*
X106238095Y-58250000D01*
X106285714Y-58297619D01*
X106333333Y-58392857D01*
X106333333Y-58535714D01*
X106285714Y-58630952D01*
X106238095Y-58678571D01*
X106142857Y-58726190D01*
X105761904Y-58726190D01*
X106666666Y-58202380D02*
X107333333Y-58202380D01*
X106904761Y-59202380D01*
X104833333Y-61702380D02*
X104500000Y-61226190D01*
X104261904Y-61702380D02*
X104261904Y-60702380D01*
X104642857Y-60702380D01*
X104738095Y-60750000D01*
X104785714Y-60797619D01*
X104833333Y-60892857D01*
X104833333Y-61035714D01*
X104785714Y-61130952D01*
X104738095Y-61178571D01*
X104642857Y-61226190D01*
X104261904Y-61226190D01*
X105404761Y-61130952D02*
X105309523Y-61083333D01*
X105261904Y-61035714D01*
X105214285Y-60940476D01*
X105214285Y-60892857D01*
X105261904Y-60797619D01*
X105309523Y-60750000D01*
X105404761Y-60702380D01*
X105595238Y-60702380D01*
X105690476Y-60750000D01*
X105738095Y-60797619D01*
X105785714Y-60892857D01*
X105785714Y-60940476D01*
X105738095Y-61035714D01*
X105690476Y-61083333D01*
X105595238Y-61130952D01*
X105404761Y-61130952D01*
X105309523Y-61178571D01*
X105261904Y-61226190D01*
X105214285Y-61321428D01*
X105214285Y-61511904D01*
X105261904Y-61607142D01*
X105309523Y-61654761D01*
X105404761Y-61702380D01*
X105595238Y-61702380D01*
X105690476Y-61654761D01*
X105738095Y-61607142D01*
X105785714Y-61511904D01*
X105785714Y-61321428D01*
X105738095Y-61226190D01*
X105690476Y-61178571D01*
X105595238Y-61130952D01*
X114333333Y-59202380D02*
X114000000Y-58726190D01*
X113761904Y-59202380D02*
X113761904Y-58202380D01*
X114142857Y-58202380D01*
X114238095Y-58250000D01*
X114285714Y-58297619D01*
X114333333Y-58392857D01*
X114333333Y-58535714D01*
X114285714Y-58630952D01*
X114238095Y-58678571D01*
X114142857Y-58726190D01*
X113761904Y-58726190D01*
X115190476Y-58202380D02*
X115000000Y-58202380D01*
X114904761Y-58250000D01*
X114857142Y-58297619D01*
X114761904Y-58440476D01*
X114714285Y-58630952D01*
X114714285Y-59011904D01*
X114761904Y-59107142D01*
X114809523Y-59154761D01*
X114904761Y-59202380D01*
X115095238Y-59202380D01*
X115190476Y-59154761D01*
X115238095Y-59107142D01*
X115285714Y-59011904D01*
X115285714Y-58773809D01*
X115238095Y-58678571D01*
X115190476Y-58630952D01*
X115095238Y-58583333D01*
X114904761Y-58583333D01*
X114809523Y-58630952D01*
X114761904Y-58678571D01*
X114714285Y-58773809D01*
X110083333Y-59202380D02*
X109750000Y-58726190D01*
X109511904Y-59202380D02*
X109511904Y-58202380D01*
X109892857Y-58202380D01*
X109988095Y-58250000D01*
X110035714Y-58297619D01*
X110083333Y-58392857D01*
X110083333Y-58535714D01*
X110035714Y-58630952D01*
X109988095Y-58678571D01*
X109892857Y-58726190D01*
X109511904Y-58726190D01*
X110988095Y-58202380D02*
X110511904Y-58202380D01*
X110464285Y-58678571D01*
X110511904Y-58630952D01*
X110607142Y-58583333D01*
X110845238Y-58583333D01*
X110940476Y-58630952D01*
X110988095Y-58678571D01*
X111035714Y-58773809D01*
X111035714Y-59011904D01*
X110988095Y-59107142D01*
X110940476Y-59154761D01*
X110845238Y-59202380D01*
X110607142Y-59202380D01*
X110511904Y-59154761D01*
X110464285Y-59107142D01*
X104568666Y-53554380D02*
X104568666Y-54268666D01*
X104521047Y-54411523D01*
X104425809Y-54506761D01*
X104282952Y-54554380D01*
X104187714Y-54554380D01*
X105473428Y-53887714D02*
X105473428Y-54554380D01*
X105235333Y-53506761D02*
X104997238Y-54221047D01*
X105616285Y-54221047D01*
X131159523Y-55861904D02*
X131159523Y-55061904D01*
X131350000Y-55061904D01*
X131464285Y-55100000D01*
X131540476Y-55176190D01*
X131578571Y-55252380D01*
X131616666Y-55404761D01*
X131616666Y-55519047D01*
X131578571Y-55671428D01*
X131540476Y-55747619D01*
X131464285Y-55823809D01*
X131350000Y-55861904D01*
X131159523Y-55861904D01*
X132378571Y-55861904D02*
X131921428Y-55861904D01*
X132150000Y-55861904D02*
X132150000Y-55061904D01*
X132073809Y-55176190D01*
X131997619Y-55252380D01*
X131921428Y-55290476D01*
X96948666Y-33952380D02*
X96948666Y-34666666D01*
X96901047Y-34809523D01*
X96805809Y-34904761D01*
X96662952Y-34952380D01*
X96567714Y-34952380D01*
X97948666Y-34952380D02*
X97377238Y-34952380D01*
X97662952Y-34952380D02*
X97662952Y-33952380D01*
X97567714Y-34095238D01*
X97472476Y-34190476D01*
X97377238Y-34238095D01*
X119594333Y-63222142D02*
X119546714Y-63269761D01*
X119403857Y-63317380D01*
X119308619Y-63317380D01*
X119165761Y-63269761D01*
X119070523Y-63174523D01*
X119022904Y-63079285D01*
X118975285Y-62888809D01*
X118975285Y-62745952D01*
X119022904Y-62555476D01*
X119070523Y-62460238D01*
X119165761Y-62365000D01*
X119308619Y-62317380D01*
X119403857Y-62317380D01*
X119546714Y-62365000D01*
X119594333Y-62412619D01*
X120451476Y-62317380D02*
X120261000Y-62317380D01*
X120165761Y-62365000D01*
X120118142Y-62412619D01*
X120022904Y-62555476D01*
X119975285Y-62745952D01*
X119975285Y-63126904D01*
X120022904Y-63222142D01*
X120070523Y-63269761D01*
X120165761Y-63317380D01*
X120356238Y-63317380D01*
X120451476Y-63269761D01*
X120499095Y-63222142D01*
X120546714Y-63126904D01*
X120546714Y-62888809D01*
X120499095Y-62793571D01*
X120451476Y-62745952D01*
X120356238Y-62698333D01*
X120165761Y-62698333D01*
X120070523Y-62745952D01*
X120022904Y-62793571D01*
X119975285Y-62888809D01*
X126539666Y-36536380D02*
X126539666Y-37250666D01*
X126492047Y-37393523D01*
X126396809Y-37488761D01*
X126253952Y-37536380D01*
X126158714Y-37536380D01*
X127158714Y-36964952D02*
X127063476Y-36917333D01*
X127015857Y-36869714D01*
X126968238Y-36774476D01*
X126968238Y-36726857D01*
X127015857Y-36631619D01*
X127063476Y-36584000D01*
X127158714Y-36536380D01*
X127349190Y-36536380D01*
X127444428Y-36584000D01*
X127492047Y-36631619D01*
X127539666Y-36726857D01*
X127539666Y-36774476D01*
X127492047Y-36869714D01*
X127444428Y-36917333D01*
X127349190Y-36964952D01*
X127158714Y-36964952D01*
X127063476Y-37012571D01*
X127015857Y-37060190D01*
X126968238Y-37155428D01*
X126968238Y-37345904D01*
X127015857Y-37441142D01*
X127063476Y-37488761D01*
X127158714Y-37536380D01*
X127349190Y-37536380D01*
X127444428Y-37488761D01*
X127492047Y-37441142D01*
X127539666Y-37345904D01*
X127539666Y-37155428D01*
X127492047Y-37060190D01*
X127444428Y-37012571D01*
X127349190Y-36964952D01*
X128119142Y-50331666D02*
X128166761Y-50379285D01*
X128214380Y-50522142D01*
X128214380Y-50617380D01*
X128166761Y-50760238D01*
X128071523Y-50855476D01*
X127976285Y-50903095D01*
X127785809Y-50950714D01*
X127642952Y-50950714D01*
X127452476Y-50903095D01*
X127357238Y-50855476D01*
X127262000Y-50760238D01*
X127214380Y-50617380D01*
X127214380Y-50522142D01*
X127262000Y-50379285D01*
X127309619Y-50331666D01*
X128214380Y-49379285D02*
X128214380Y-49950714D01*
X128214380Y-49665000D02*
X127214380Y-49665000D01*
X127357238Y-49760238D01*
X127452476Y-49855476D01*
X127500095Y-49950714D01*
X122928142Y-63444380D02*
X122594809Y-62968190D01*
X122356714Y-63444380D02*
X122356714Y-62444380D01*
X122737666Y-62444380D01*
X122832904Y-62492000D01*
X122880523Y-62539619D01*
X122928142Y-62634857D01*
X122928142Y-62777714D01*
X122880523Y-62872952D01*
X122832904Y-62920571D01*
X122737666Y-62968190D01*
X122356714Y-62968190D01*
X123880523Y-63444380D02*
X123309095Y-63444380D01*
X123594809Y-63444380D02*
X123594809Y-62444380D01*
X123499571Y-62587238D01*
X123404333Y-62682476D01*
X123309095Y-62730095D01*
X124451952Y-62872952D02*
X124356714Y-62825333D01*
X124309095Y-62777714D01*
X124261476Y-62682476D01*
X124261476Y-62634857D01*
X124309095Y-62539619D01*
X124356714Y-62492000D01*
X124451952Y-62444380D01*
X124642428Y-62444380D01*
X124737666Y-62492000D01*
X124785285Y-62539619D01*
X124832904Y-62634857D01*
X124832904Y-62682476D01*
X124785285Y-62777714D01*
X124737666Y-62825333D01*
X124642428Y-62872952D01*
X124451952Y-62872952D01*
X124356714Y-62920571D01*
X124309095Y-62968190D01*
X124261476Y-63063428D01*
X124261476Y-63253904D01*
X124309095Y-63349142D01*
X124356714Y-63396761D01*
X124451952Y-63444380D01*
X124642428Y-63444380D01*
X124737666Y-63396761D01*
X124785285Y-63349142D01*
X124832904Y-63253904D01*
X124832904Y-63063428D01*
X124785285Y-62968190D01*
X124737666Y-62920571D01*
X124642428Y-62872952D01*
X136607142Y-52916666D02*
X136654761Y-52964285D01*
X136702380Y-53107142D01*
X136702380Y-53202380D01*
X136654761Y-53345238D01*
X136559523Y-53440476D01*
X136464285Y-53488095D01*
X136273809Y-53535714D01*
X136130952Y-53535714D01*
X135940476Y-53488095D01*
X135845238Y-53440476D01*
X135750000Y-53345238D01*
X135702380Y-53202380D01*
X135702380Y-53107142D01*
X135750000Y-52964285D01*
X135797619Y-52916666D01*
X135702380Y-52011904D02*
X135702380Y-52488095D01*
X136178571Y-52535714D01*
X136130952Y-52488095D01*
X136083333Y-52392857D01*
X136083333Y-52154761D01*
X136130952Y-52059523D01*
X136178571Y-52011904D01*
X136273809Y-51964285D01*
X136511904Y-51964285D01*
X136607142Y-52011904D01*
X136654761Y-52059523D01*
X136702380Y-52154761D01*
X136702380Y-52392857D01*
X136654761Y-52488095D01*
X136607142Y-52535714D01*
X118607142Y-64841380D02*
X118273809Y-64365190D01*
X118035714Y-64841380D02*
X118035714Y-63841380D01*
X118416666Y-63841380D01*
X118511904Y-63889000D01*
X118559523Y-63936619D01*
X118607142Y-64031857D01*
X118607142Y-64174714D01*
X118559523Y-64269952D01*
X118511904Y-64317571D01*
X118416666Y-64365190D01*
X118035714Y-64365190D01*
X119559523Y-64841380D02*
X118988095Y-64841380D01*
X119273809Y-64841380D02*
X119273809Y-63841380D01*
X119178571Y-63984238D01*
X119083333Y-64079476D01*
X118988095Y-64127095D01*
X119940476Y-63936619D02*
X119988095Y-63889000D01*
X120083333Y-63841380D01*
X120321428Y-63841380D01*
X120416666Y-63889000D01*
X120464285Y-63936619D01*
X120511904Y-64031857D01*
X120511904Y-64127095D01*
X120464285Y-64269952D01*
X119892857Y-64841380D01*
X120511904Y-64841380D01*
X128357142Y-67107142D02*
X128309523Y-67154761D01*
X128166666Y-67202380D01*
X128071428Y-67202380D01*
X127928571Y-67154761D01*
X127833333Y-67059523D01*
X127785714Y-66964285D01*
X127738095Y-66773809D01*
X127738095Y-66630952D01*
X127785714Y-66440476D01*
X127833333Y-66345238D01*
X127928571Y-66250000D01*
X128071428Y-66202380D01*
X128166666Y-66202380D01*
X128309523Y-66250000D01*
X128357142Y-66297619D01*
X129309523Y-67202380D02*
X128738095Y-67202380D01*
X129023809Y-67202380D02*
X129023809Y-66202380D01*
X128928571Y-66345238D01*
X128833333Y-66440476D01*
X128738095Y-66488095D01*
X129928571Y-66202380D02*
X130023809Y-66202380D01*
X130119047Y-66250000D01*
X130166666Y-66297619D01*
X130214285Y-66392857D01*
X130261904Y-66583333D01*
X130261904Y-66821428D01*
X130214285Y-67011904D01*
X130166666Y-67107142D01*
X130119047Y-67154761D01*
X130023809Y-67202380D01*
X129928571Y-67202380D01*
X129833333Y-67154761D01*
X129785714Y-67107142D01*
X129738095Y-67011904D01*
X129690476Y-66821428D01*
X129690476Y-66583333D01*
X129738095Y-66392857D01*
X129785714Y-66297619D01*
X129833333Y-66250000D01*
X129928571Y-66202380D01*
X121277142Y-64841380D02*
X120943809Y-64365190D01*
X120705714Y-64841380D02*
X120705714Y-63841380D01*
X121086666Y-63841380D01*
X121181904Y-63889000D01*
X121229523Y-63936619D01*
X121277142Y-64031857D01*
X121277142Y-64174714D01*
X121229523Y-64269952D01*
X121181904Y-64317571D01*
X121086666Y-64365190D01*
X120705714Y-64365190D01*
X122229523Y-64841380D02*
X121658095Y-64841380D01*
X121943809Y-64841380D02*
X121943809Y-63841380D01*
X121848571Y-63984238D01*
X121753333Y-64079476D01*
X121658095Y-64127095D01*
X122562857Y-63841380D02*
X123229523Y-63841380D01*
X122800952Y-64841380D01*
X128952380Y-58666666D02*
X128476190Y-59000000D01*
X128952380Y-59238095D02*
X127952380Y-59238095D01*
X127952380Y-58857142D01*
X128000000Y-58761904D01*
X128047619Y-58714285D01*
X128142857Y-58666666D01*
X128285714Y-58666666D01*
X128380952Y-58714285D01*
X128428571Y-58761904D01*
X128476190Y-58857142D01*
X128476190Y-59238095D01*
X127952380Y-58333333D02*
X127952380Y-57714285D01*
X128333333Y-58047619D01*
X128333333Y-57904761D01*
X128380952Y-57809523D01*
X128428571Y-57761904D01*
X128523809Y-57714285D01*
X128761904Y-57714285D01*
X128857142Y-57761904D01*
X128904761Y-57809523D01*
X128952380Y-57904761D01*
X128952380Y-58190476D01*
X128904761Y-58285714D01*
X128857142Y-58333333D01*
X127702380Y-58666666D02*
X127226190Y-59000000D01*
X127702380Y-59238095D02*
X126702380Y-59238095D01*
X126702380Y-58857142D01*
X126750000Y-58761904D01*
X126797619Y-58714285D01*
X126892857Y-58666666D01*
X127035714Y-58666666D01*
X127130952Y-58714285D01*
X127178571Y-58761904D01*
X127226190Y-58857142D01*
X127226190Y-59238095D01*
X127035714Y-57809523D02*
X127702380Y-57809523D01*
X126654761Y-58047619D02*
X127369047Y-58285714D01*
X127369047Y-57666666D01*
X121031095Y-60920380D02*
X121031095Y-61729904D01*
X121078714Y-61825142D01*
X121126333Y-61872761D01*
X121221571Y-61920380D01*
X121412047Y-61920380D01*
X121507285Y-61872761D01*
X121554904Y-61825142D01*
X121602523Y-61729904D01*
X121602523Y-60920380D01*
X121983476Y-60920380D02*
X122602523Y-60920380D01*
X122269190Y-61301333D01*
X122412047Y-61301333D01*
X122507285Y-61348952D01*
X122554904Y-61396571D01*
X122602523Y-61491809D01*
X122602523Y-61729904D01*
X122554904Y-61825142D01*
X122507285Y-61872761D01*
X122412047Y-61920380D01*
X122126333Y-61920380D01*
X122031095Y-61872761D01*
X121983476Y-61825142D01*
X128341380Y-53982857D02*
X127865190Y-54316190D01*
X128341380Y-54554285D02*
X127341380Y-54554285D01*
X127341380Y-54173333D01*
X127389000Y-54078095D01*
X127436619Y-54030476D01*
X127531857Y-53982857D01*
X127674714Y-53982857D01*
X127769952Y-54030476D01*
X127817571Y-54078095D01*
X127865190Y-54173333D01*
X127865190Y-54554285D01*
X128341380Y-53030476D02*
X128341380Y-53601904D01*
X128341380Y-53316190D02*
X127341380Y-53316190D01*
X127484238Y-53411428D01*
X127579476Y-53506666D01*
X127627095Y-53601904D01*
X127341380Y-52125714D02*
X127341380Y-52601904D01*
X127817571Y-52649523D01*
X127769952Y-52601904D01*
X127722333Y-52506666D01*
X127722333Y-52268571D01*
X127769952Y-52173333D01*
X127817571Y-52125714D01*
X127912809Y-52078095D01*
X128150904Y-52078095D01*
X128246142Y-52125714D01*
X128293761Y-52173333D01*
X128341380Y-52268571D01*
X128341380Y-52506666D01*
X128293761Y-52601904D01*
X128246142Y-52649523D01*
X99814142Y-59634380D02*
X99480809Y-59158190D01*
X99242714Y-59634380D02*
X99242714Y-58634380D01*
X99623666Y-58634380D01*
X99718904Y-58682000D01*
X99766523Y-58729619D01*
X99814142Y-58824857D01*
X99814142Y-58967714D01*
X99766523Y-59062952D01*
X99718904Y-59110571D01*
X99623666Y-59158190D01*
X99242714Y-59158190D01*
X100766523Y-59634380D02*
X100195095Y-59634380D01*
X100480809Y-59634380D02*
X100480809Y-58634380D01*
X100385571Y-58777238D01*
X100290333Y-58872476D01*
X100195095Y-58920095D01*
X101623666Y-58967714D02*
X101623666Y-59634380D01*
X101385571Y-58586761D02*
X101147476Y-59301047D01*
X101766523Y-59301047D01*
X103298666Y-38314380D02*
X103298666Y-39028666D01*
X103251047Y-39171523D01*
X103155809Y-39266761D01*
X103012952Y-39314380D01*
X102917714Y-39314380D01*
X103727238Y-38409619D02*
X103774857Y-38362000D01*
X103870095Y-38314380D01*
X104108190Y-38314380D01*
X104203428Y-38362000D01*
X104251047Y-38409619D01*
X104298666Y-38504857D01*
X104298666Y-38600095D01*
X104251047Y-38742952D01*
X103679619Y-39314380D01*
X104298666Y-39314380D01*
X100758666Y-38314380D02*
X100758666Y-39028666D01*
X100711047Y-39171523D01*
X100615809Y-39266761D01*
X100472952Y-39314380D01*
X100377714Y-39314380D01*
X101711047Y-38314380D02*
X101234857Y-38314380D01*
X101187238Y-38790571D01*
X101234857Y-38742952D01*
X101330095Y-38695333D01*
X101568190Y-38695333D01*
X101663428Y-38742952D01*
X101711047Y-38790571D01*
X101758666Y-38885809D01*
X101758666Y-39123904D01*
X101711047Y-39219142D01*
X101663428Y-39266761D01*
X101568190Y-39314380D01*
X101330095Y-39314380D01*
X101234857Y-39266761D01*
X101187238Y-39219142D01*
X102068333Y-54427380D02*
X101735000Y-53951190D01*
X101496904Y-54427380D02*
X101496904Y-53427380D01*
X101877857Y-53427380D01*
X101973095Y-53475000D01*
X102020714Y-53522619D01*
X102068333Y-53617857D01*
X102068333Y-53760714D01*
X102020714Y-53855952D01*
X101973095Y-53903571D01*
X101877857Y-53951190D01*
X101496904Y-53951190D01*
X103020714Y-54427380D02*
X102449285Y-54427380D01*
X102735000Y-54427380D02*
X102735000Y-53427380D01*
X102639761Y-53570238D01*
X102544523Y-53665476D01*
X102449285Y-53713095D01*
X103552666Y-71715380D02*
X103552666Y-72429666D01*
X103505047Y-72572523D01*
X103409809Y-72667761D01*
X103266952Y-72715380D01*
X103171714Y-72715380D01*
X103933619Y-71715380D02*
X104600285Y-71715380D01*
X104171714Y-72715380D01*
X105711666Y-71715380D02*
X105711666Y-72429666D01*
X105664047Y-72572523D01*
X105568809Y-72667761D01*
X105425952Y-72715380D01*
X105330714Y-72715380D01*
X106092619Y-71715380D02*
X106711666Y-71715380D01*
X106378333Y-72096333D01*
X106521190Y-72096333D01*
X106616428Y-72143952D01*
X106664047Y-72191571D01*
X106711666Y-72286809D01*
X106711666Y-72524904D01*
X106664047Y-72620142D01*
X106616428Y-72667761D01*
X106521190Y-72715380D01*
X106235476Y-72715380D01*
X106140238Y-72667761D01*
X106092619Y-72620142D01*
X99766380Y-62364857D02*
X99290190Y-62698190D01*
X99766380Y-62936285D02*
X98766380Y-62936285D01*
X98766380Y-62555333D01*
X98814000Y-62460095D01*
X98861619Y-62412476D01*
X98956857Y-62364857D01*
X99099714Y-62364857D01*
X99194952Y-62412476D01*
X99242571Y-62460095D01*
X99290190Y-62555333D01*
X99290190Y-62936285D01*
X99766380Y-61412476D02*
X99766380Y-61983904D01*
X99766380Y-61698190D02*
X98766380Y-61698190D01*
X98909238Y-61793428D01*
X99004476Y-61888666D01*
X99052095Y-61983904D01*
X98766380Y-60555333D02*
X98766380Y-60745809D01*
X98814000Y-60841047D01*
X98861619Y-60888666D01*
X99004476Y-60983904D01*
X99194952Y-61031523D01*
X99575904Y-61031523D01*
X99671142Y-60983904D01*
X99718761Y-60936285D01*
X99766380Y-60841047D01*
X99766380Y-60650571D01*
X99718761Y-60555333D01*
X99671142Y-60507714D01*
X99575904Y-60460095D01*
X99337809Y-60460095D01*
X99242571Y-60507714D01*
X99194952Y-60555333D01*
X99147333Y-60650571D01*
X99147333Y-60841047D01*
X99194952Y-60936285D01*
X99242571Y-60983904D01*
X99337809Y-61031523D01*
X97020142Y-72842380D02*
X96686809Y-72366190D01*
X96448714Y-72842380D02*
X96448714Y-71842380D01*
X96829666Y-71842380D01*
X96924904Y-71890000D01*
X96972523Y-71937619D01*
X97020142Y-72032857D01*
X97020142Y-72175714D01*
X96972523Y-72270952D01*
X96924904Y-72318571D01*
X96829666Y-72366190D01*
X96448714Y-72366190D01*
X97972523Y-72842380D02*
X97401095Y-72842380D01*
X97686809Y-72842380D02*
X97686809Y-71842380D01*
X97591571Y-71985238D01*
X97496333Y-72080476D01*
X97401095Y-72128095D01*
X98305857Y-71842380D02*
X98924904Y-71842380D01*
X98591571Y-72223333D01*
X98734428Y-72223333D01*
X98829666Y-72270952D01*
X98877285Y-72318571D01*
X98924904Y-72413809D01*
X98924904Y-72651904D01*
X98877285Y-72747142D01*
X98829666Y-72794761D01*
X98734428Y-72842380D01*
X98448714Y-72842380D01*
X98353476Y-72794761D01*
X98305857Y-72747142D01*
X99020333Y-71350142D02*
X98972714Y-71397761D01*
X98829857Y-71445380D01*
X98734619Y-71445380D01*
X98591761Y-71397761D01*
X98496523Y-71302523D01*
X98448904Y-71207285D01*
X98401285Y-71016809D01*
X98401285Y-70873952D01*
X98448904Y-70683476D01*
X98496523Y-70588238D01*
X98591761Y-70493000D01*
X98734619Y-70445380D01*
X98829857Y-70445380D01*
X98972714Y-70493000D01*
X99020333Y-70540619D01*
X99353666Y-70445380D02*
X100020333Y-70445380D01*
X99591761Y-71445380D01*
X100941142Y-61761666D02*
X100988761Y-61809285D01*
X101036380Y-61952142D01*
X101036380Y-62047380D01*
X100988761Y-62190238D01*
X100893523Y-62285476D01*
X100798285Y-62333095D01*
X100607809Y-62380714D01*
X100464952Y-62380714D01*
X100274476Y-62333095D01*
X100179238Y-62285476D01*
X100084000Y-62190238D01*
X100036380Y-62047380D01*
X100036380Y-61952142D01*
X100084000Y-61809285D01*
X100131619Y-61761666D01*
X100464952Y-61190238D02*
X100417333Y-61285476D01*
X100369714Y-61333095D01*
X100274476Y-61380714D01*
X100226857Y-61380714D01*
X100131619Y-61333095D01*
X100084000Y-61285476D01*
X100036380Y-61190238D01*
X100036380Y-60999761D01*
X100084000Y-60904523D01*
X100131619Y-60856904D01*
X100226857Y-60809285D01*
X100274476Y-60809285D01*
X100369714Y-60856904D01*
X100417333Y-60904523D01*
X100464952Y-60999761D01*
X100464952Y-61190238D01*
X100512571Y-61285476D01*
X100560190Y-61333095D01*
X100655428Y-61380714D01*
X100845904Y-61380714D01*
X100941142Y-61333095D01*
X100988761Y-61285476D01*
X101036380Y-61190238D01*
X101036380Y-60999761D01*
X100988761Y-60904523D01*
X100941142Y-60856904D01*
X100845904Y-60809285D01*
X100655428Y-60809285D01*
X100560190Y-60856904D01*
X100512571Y-60904523D01*
X100464952Y-60999761D01*
X99139476Y-49744380D02*
X99139476Y-50458666D01*
X99091857Y-50601523D01*
X98996619Y-50696761D01*
X98853761Y-50744380D01*
X98758523Y-50744380D01*
X100139476Y-50744380D02*
X99568047Y-50744380D01*
X99853761Y-50744380D02*
X99853761Y-49744380D01*
X99758523Y-49887238D01*
X99663285Y-49982476D01*
X99568047Y-50030095D01*
X100520428Y-49839619D02*
X100568047Y-49792000D01*
X100663285Y-49744380D01*
X100901380Y-49744380D01*
X100996619Y-49792000D01*
X101044238Y-49839619D01*
X101091857Y-49934857D01*
X101091857Y-50030095D01*
X101044238Y-50172952D01*
X100472809Y-50744380D01*
X101091857Y-50744380D01*
X134620095Y-64349380D02*
X134620095Y-65158904D01*
X134667714Y-65254142D01*
X134715333Y-65301761D01*
X134810571Y-65349380D01*
X135001047Y-65349380D01*
X135096285Y-65301761D01*
X135143904Y-65254142D01*
X135191523Y-65158904D01*
X135191523Y-64349380D01*
X136096285Y-64682714D02*
X136096285Y-65349380D01*
X135858190Y-64301761D02*
X135620095Y-65016047D01*
X136239142Y-65016047D01*
X135993142Y-67952857D02*
X136040761Y-68000476D01*
X136088380Y-68143333D01*
X136088380Y-68238571D01*
X136040761Y-68381428D01*
X135945523Y-68476666D01*
X135850285Y-68524285D01*
X135659809Y-68571904D01*
X135516952Y-68571904D01*
X135326476Y-68524285D01*
X135231238Y-68476666D01*
X135136000Y-68381428D01*
X135088380Y-68238571D01*
X135088380Y-68143333D01*
X135136000Y-68000476D01*
X135183619Y-67952857D01*
X136088380Y-67000476D02*
X136088380Y-67571904D01*
X136088380Y-67286190D02*
X135088380Y-67286190D01*
X135231238Y-67381428D01*
X135326476Y-67476666D01*
X135374095Y-67571904D01*
X136088380Y-66048095D02*
X136088380Y-66619523D01*
X136088380Y-66333809D02*
X135088380Y-66333809D01*
X135231238Y-66429047D01*
X135326476Y-66524285D01*
X135374095Y-66619523D01*
X131659333Y-63222142D02*
X131611714Y-63269761D01*
X131468857Y-63317380D01*
X131373619Y-63317380D01*
X131230761Y-63269761D01*
X131135523Y-63174523D01*
X131087904Y-63079285D01*
X131040285Y-62888809D01*
X131040285Y-62745952D01*
X131087904Y-62555476D01*
X131135523Y-62460238D01*
X131230761Y-62365000D01*
X131373619Y-62317380D01*
X131468857Y-62317380D01*
X131611714Y-62365000D01*
X131659333Y-62412619D01*
X132135523Y-63317380D02*
X132326000Y-63317380D01*
X132421238Y-63269761D01*
X132468857Y-63222142D01*
X132564095Y-63079285D01*
X132611714Y-62888809D01*
X132611714Y-62507857D01*
X132564095Y-62412619D01*
X132516476Y-62365000D01*
X132421238Y-62317380D01*
X132230761Y-62317380D01*
X132135523Y-62365000D01*
X132087904Y-62412619D01*
X132040285Y-62507857D01*
X132040285Y-62745952D01*
X132087904Y-62841190D01*
X132135523Y-62888809D01*
X132230761Y-62936428D01*
X132421238Y-62936428D01*
X132516476Y-62888809D01*
X132564095Y-62841190D01*
X132611714Y-62745952D01*
X105513142Y-33694666D02*
X105560761Y-33742285D01*
X105608380Y-33885142D01*
X105608380Y-33980380D01*
X105560761Y-34123238D01*
X105465523Y-34218476D01*
X105370285Y-34266095D01*
X105179809Y-34313714D01*
X105036952Y-34313714D01*
X104846476Y-34266095D01*
X104751238Y-34218476D01*
X104656000Y-34123238D01*
X104608380Y-33980380D01*
X104608380Y-33885142D01*
X104656000Y-33742285D01*
X104703619Y-33694666D01*
X104608380Y-33361333D02*
X104608380Y-32742285D01*
X104989333Y-33075619D01*
X104989333Y-32932761D01*
X105036952Y-32837523D01*
X105084571Y-32789904D01*
X105179809Y-32742285D01*
X105417904Y-32742285D01*
X105513142Y-32789904D01*
X105560761Y-32837523D01*
X105608380Y-32932761D01*
X105608380Y-33218476D01*
X105560761Y-33313714D01*
X105513142Y-33361333D01*
M02*
