G04 #@! TF.GenerationSoftware,KiCad,Pcbnew,(5.1.2)-1*
G04 #@! TF.CreationDate,2020-03-29T20:21:24+02:00*
G04 #@! TF.ProjectId,bobbycar,626f6262-7963-4617-922e-6b696361645f,rev?*
G04 #@! TF.SameCoordinates,Original*
G04 #@! TF.FileFunction,Copper,L2,Bot*
G04 #@! TF.FilePolarity,Positive*
%FSLAX46Y46*%
G04 Gerber Fmt 4.6, Leading zero omitted, Abs format (unit mm)*
G04 Created by KiCad (PCBNEW (5.1.2)-1) date 2020-03-29 20:21:24*
%MOMM*%
%LPD*%
G04 APERTURE LIST*
%ADD10O,1.700000X1.700000*%
%ADD11R,1.700000X1.700000*%
%ADD12C,0.800000*%
%ADD13C,0.500000*%
%ADD14C,0.200000*%
%ADD15C,0.254000*%
G04 APERTURE END LIST*
D10*
X135500000Y-69790000D03*
X135500000Y-67250000D03*
D11*
X135500000Y-64710000D03*
D10*
X105600000Y-68880000D03*
X105600000Y-66340000D03*
D11*
X105600000Y-63800000D03*
D10*
X102550000Y-68880000D03*
X102550000Y-66340000D03*
D11*
X102550000Y-63800000D03*
D10*
X96240000Y-71600000D03*
X98780000Y-71600000D03*
X101320000Y-71600000D03*
X103860000Y-71600000D03*
D11*
X106400000Y-71600000D03*
D10*
X127600000Y-34280000D03*
X127600000Y-31740000D03*
D11*
X127600000Y-29200000D03*
X103800000Y-43200000D03*
D10*
X103800000Y-45740000D03*
X103800000Y-48280000D03*
X101600000Y-48290000D03*
X101600000Y-45750000D03*
D11*
X101600000Y-43210000D03*
D10*
X128200000Y-47280000D03*
X128200000Y-44740000D03*
D11*
X128200000Y-42200000D03*
D10*
X130400000Y-47280000D03*
X130400000Y-44740000D03*
D11*
X130400000Y-42200000D03*
D10*
X135500000Y-59980000D03*
X135500000Y-57440000D03*
X135500000Y-54900000D03*
X135500000Y-52360000D03*
X135500000Y-49820000D03*
X135500000Y-47280000D03*
X135500000Y-44740000D03*
X135500000Y-42200000D03*
X135500000Y-39660000D03*
X135500000Y-37120000D03*
X135500000Y-34580000D03*
X135500000Y-32040000D03*
D11*
X135500000Y-29500000D03*
D10*
X96500000Y-59980000D03*
X96500000Y-57440000D03*
X96500000Y-54900000D03*
X96500000Y-52360000D03*
X96500000Y-49820000D03*
X96500000Y-47280000D03*
X96500000Y-44740000D03*
X96500000Y-42200000D03*
X96500000Y-39660000D03*
X96500000Y-37120000D03*
X96500000Y-34580000D03*
X96500000Y-32040000D03*
D11*
X96500000Y-29500000D03*
D10*
X101000000Y-51040000D03*
X101000000Y-53580000D03*
X101000000Y-56120000D03*
X101000000Y-58660000D03*
D11*
X101000000Y-61200000D03*
D10*
X125750000Y-71900000D03*
X125750000Y-69360000D03*
X125750000Y-66820000D03*
X125750000Y-64280000D03*
X125750000Y-61740000D03*
D11*
X125750000Y-59200000D03*
D10*
X126320000Y-57000000D03*
X123780000Y-57000000D03*
X121240000Y-57000000D03*
X118700000Y-57000000D03*
X116160000Y-57000000D03*
X113620000Y-57000000D03*
X111080000Y-57000000D03*
X108540000Y-57000000D03*
D11*
X106000000Y-57000000D03*
D12*
X117000000Y-45250000D03*
X116000000Y-45250000D03*
X115000000Y-45250000D03*
X114000000Y-45250000D03*
X113000000Y-45250000D03*
X114000000Y-44250000D03*
X114000000Y-43250000D03*
X115000000Y-43250000D03*
X116000000Y-43250000D03*
X116000000Y-42250000D03*
X115000000Y-42250000D03*
X114000000Y-42250000D03*
X113000000Y-42250000D03*
X113000000Y-43250000D03*
X113000000Y-44250000D03*
X115000000Y-44250000D03*
X116000000Y-44250000D03*
X117000000Y-44250000D03*
X117000000Y-43250000D03*
X117000000Y-42250000D03*
X129800000Y-67600000D03*
X101000000Y-65000000D03*
X127800000Y-63600000D03*
X113000000Y-41300032D03*
X116000000Y-41300032D03*
X114000000Y-41300032D03*
X115000000Y-41300032D03*
X105200000Y-37400000D03*
X108800000Y-53400000D03*
X117000000Y-41300032D03*
X127400000Y-55000000D03*
X123800000Y-53800000D03*
X102445329Y-35818012D03*
X135400000Y-62600000D03*
X130200361Y-61962137D03*
X127800000Y-51400000D03*
X104881895Y-50409196D03*
X131617158Y-56782842D03*
X121800000Y-50600000D03*
X123294565Y-39299990D03*
X122042485Y-40873225D03*
X127649989Y-37711112D03*
X126100202Y-38217230D03*
X110991059Y-40089031D03*
X109200000Y-45800000D03*
X133097743Y-51037154D03*
X109200000Y-44600000D03*
X132526852Y-50207671D03*
X109000000Y-43400000D03*
X109000000Y-42000000D03*
X131494465Y-53194428D03*
X132699990Y-39026329D03*
X110839235Y-37052004D03*
X109100002Y-36600000D03*
X131600086Y-52199991D03*
X133400000Y-38000000D03*
X118242049Y-49725748D03*
X111757228Y-48399992D03*
X97899990Y-47885788D03*
X104158827Y-51099990D03*
X109000000Y-55600000D03*
X111129352Y-39098628D03*
X110376479Y-38440444D03*
X132000000Y-46000000D03*
X121200000Y-44600000D03*
X126600000Y-45799987D03*
X126463349Y-46818571D03*
X126545722Y-50500010D03*
X129804218Y-52777844D03*
X133595938Y-61202021D03*
X131427505Y-58360986D03*
X98923614Y-57301280D03*
X119299804Y-50693961D03*
X120797711Y-49849267D03*
X98800000Y-59800000D03*
X121166208Y-48450010D03*
X132600000Y-31600000D03*
X122800000Y-38000000D03*
X132200000Y-41200000D03*
X126200000Y-42000000D03*
X128143562Y-38749945D03*
X132600000Y-35000000D03*
D13*
X134297919Y-67250000D02*
X133947919Y-67600000D01*
X135500000Y-67250000D02*
X134297919Y-67250000D01*
X133947919Y-67600000D02*
X129800000Y-67600000D01*
X102550000Y-68880000D02*
X101000000Y-67330000D01*
X101000000Y-67330000D02*
X101000000Y-65000000D01*
X101000000Y-65000000D02*
X101000000Y-61200000D01*
X108431433Y-57000000D02*
X108540000Y-57000000D01*
X104231433Y-61200000D02*
X108431433Y-57000000D01*
X101000000Y-61200000D02*
X104231433Y-61200000D01*
X127100000Y-59200000D02*
X127800000Y-59900000D01*
X125750000Y-59200000D02*
X127100000Y-59200000D01*
X127800000Y-59900000D02*
X127800000Y-63600000D01*
X107690001Y-56150001D02*
X107690001Y-54509999D01*
X108540000Y-57000000D02*
X107690001Y-56150001D01*
X107690001Y-54509999D02*
X108800000Y-53400000D01*
X109000000Y-53200000D02*
X108800000Y-53400000D01*
X126834315Y-55000000D02*
X126034315Y-54200000D01*
X127400000Y-55000000D02*
X126834315Y-55000000D01*
X126034315Y-54200000D02*
X124200000Y-54200000D01*
X124200000Y-54200000D02*
X123800000Y-53800000D01*
X101879644Y-35818012D02*
X102445329Y-35818012D01*
X105200000Y-37400000D02*
X104027317Y-37400000D01*
X97738012Y-35818012D02*
X101879644Y-35818012D01*
X102845328Y-36218011D02*
X102445329Y-35818012D01*
X96500000Y-34580000D02*
X97738012Y-35818012D01*
X104027317Y-37400000D02*
X102845328Y-36218011D01*
D14*
X130838224Y-62600000D02*
X130200361Y-61962137D01*
X135400000Y-62600000D02*
X130838224Y-62600000D01*
D13*
X118980000Y-52200000D02*
X123780000Y-57000000D01*
X108200000Y-52200000D02*
X118980000Y-52200000D01*
X106000000Y-54400000D02*
X108200000Y-52200000D01*
X106000000Y-57000000D02*
X106000000Y-54400000D01*
X135400000Y-61800000D02*
X132467159Y-58867159D01*
X132467159Y-58867159D02*
X132467159Y-55976865D01*
X132467159Y-55976865D02*
X130235161Y-53744867D01*
X127800000Y-51965685D02*
X127800000Y-51400000D01*
X135400000Y-62600000D02*
X135400000Y-61800000D01*
X130235161Y-53744867D02*
X129569144Y-53744867D01*
X129569144Y-53744867D02*
X127800000Y-51975722D01*
X127800000Y-51975722D02*
X127800000Y-51965685D01*
X103559988Y-50249988D02*
X104722687Y-50249988D01*
X104722687Y-50249988D02*
X104881895Y-50409196D01*
X101600000Y-48290000D02*
X103559988Y-50249988D01*
X105841089Y-49450002D02*
X116749998Y-49450002D01*
X104881895Y-50409196D02*
X105841089Y-49450002D01*
X118100000Y-48100000D02*
X120100000Y-48100000D01*
X120600000Y-47600000D02*
X122434315Y-47600000D01*
X116749998Y-49450002D02*
X118100000Y-48100000D01*
X120100000Y-48100000D02*
X120600000Y-47600000D01*
X122434315Y-47600000D02*
X131617158Y-56782842D01*
D14*
X106799987Y-50000013D02*
X116977820Y-50000013D01*
X116977820Y-50000013D02*
X118327822Y-48650011D01*
X120830206Y-49150012D02*
X121502210Y-49150012D01*
X121800000Y-50034315D02*
X121800000Y-50600000D01*
X120330205Y-48650011D02*
X120830206Y-49150012D01*
X104910001Y-51889999D02*
X106799987Y-50000013D01*
X121800000Y-49447802D02*
X121800000Y-50034315D01*
X101849999Y-51889999D02*
X104910001Y-51889999D01*
X101000000Y-51040000D02*
X101849999Y-51889999D01*
X118327822Y-48650011D02*
X120330205Y-48650011D01*
X121502210Y-49150012D02*
X121800000Y-49447802D01*
X122894566Y-38899991D02*
X123294565Y-39299990D01*
X122663987Y-38899991D02*
X122894566Y-38899991D01*
X118881998Y-35118002D02*
X99578002Y-35118002D01*
X118881998Y-35118002D02*
X122663987Y-38899991D01*
X99578002Y-35118002D02*
X96500000Y-32040000D01*
X97550208Y-38170208D02*
X109610713Y-38170208D01*
X110040478Y-37740443D02*
X110712480Y-37740443D01*
X96500000Y-37120000D02*
X97550208Y-38170208D01*
X121642486Y-40473226D02*
X122042485Y-40873225D01*
X119071582Y-37902322D02*
X121642486Y-40473226D01*
X110874359Y-37902322D02*
X119071582Y-37902322D01*
X109610713Y-38170208D02*
X110040478Y-37740443D01*
X110712480Y-37740443D02*
X110874359Y-37902322D01*
X135500000Y-37120000D02*
X128241101Y-37120000D01*
X128241101Y-37120000D02*
X128049988Y-37311113D01*
X128049988Y-37311113D02*
X127649989Y-37711112D01*
X126100202Y-37651545D02*
X126100202Y-38217230D01*
X135500000Y-34580000D02*
X134650001Y-33730001D01*
X127921735Y-35830012D02*
X126100202Y-37651545D01*
X128935688Y-35830012D02*
X127921735Y-35830012D01*
X131035699Y-33730001D02*
X128935688Y-35830012D01*
X134650001Y-33730001D02*
X131035699Y-33730001D01*
X111301515Y-39778575D02*
X110991059Y-40089031D01*
X121831388Y-43499988D02*
X118109975Y-39778575D01*
X134259988Y-43499988D02*
X121831388Y-43499988D01*
X118109975Y-39778575D02*
X111301515Y-39778575D01*
X135500000Y-44740000D02*
X134259988Y-43499988D01*
X130777086Y-51037154D02*
X132532058Y-51037154D01*
X125430034Y-49630034D02*
X129369966Y-49630034D01*
X122800000Y-47000000D02*
X125430034Y-49630034D01*
X109200000Y-45800000D02*
X111000000Y-47600000D01*
X129369966Y-49630034D02*
X130777086Y-51037154D01*
X117822169Y-47600000D02*
X117872179Y-47549990D01*
X132532058Y-51037154D02*
X133097743Y-51037154D01*
X119872181Y-47549990D02*
X120422171Y-47000000D01*
X111000000Y-47600000D02*
X117822169Y-47600000D01*
X117872179Y-47549990D02*
X119872181Y-47549990D01*
X120422171Y-47000000D02*
X122800000Y-47000000D01*
X111749979Y-47149979D02*
X119415721Y-47149979D01*
X131549204Y-49230023D02*
X132126853Y-49807672D01*
X126195723Y-49230023D02*
X131549204Y-49230023D01*
X123565689Y-46599989D02*
X126195723Y-49230023D01*
X119965711Y-46599989D02*
X123565689Y-46599989D01*
X132126853Y-49807672D02*
X132526852Y-50207671D01*
X119415721Y-47149979D02*
X119965711Y-46599989D01*
X109200000Y-44600000D02*
X111749979Y-47149979D01*
X132185195Y-48830012D02*
X133797745Y-50442562D01*
X133797745Y-53197745D02*
X134650001Y-54050001D01*
X126430012Y-48830012D02*
X132185195Y-48830012D01*
X123799978Y-46199978D02*
X126430012Y-48830012D01*
X119800022Y-46199978D02*
X123799978Y-46199978D01*
X109000000Y-43400000D02*
X111399989Y-45799989D01*
X119250032Y-46749968D02*
X119800022Y-46199978D01*
X111399989Y-45965689D02*
X112184268Y-46749968D01*
X134650001Y-54050001D02*
X135500000Y-54900000D01*
X133797745Y-50442562D02*
X133797745Y-53197745D01*
X111399989Y-45799989D02*
X111399989Y-45965689D01*
X112184268Y-46749968D02*
X119250032Y-46749968D01*
X111800000Y-44800000D02*
X111800000Y-45800000D01*
X130982024Y-48399978D02*
X132365678Y-48399978D01*
X111800000Y-45800000D02*
X112349957Y-46349957D01*
X119084343Y-46349957D02*
X119634333Y-45799967D01*
X119634333Y-45799967D02*
X123965667Y-45799967D01*
X123965667Y-45799967D02*
X126595701Y-48430001D01*
X109000000Y-42000000D02*
X111800000Y-44800000D01*
X134650001Y-50684301D02*
X134650001Y-51510001D01*
X134650001Y-51510001D02*
X135500000Y-52360000D01*
X132365678Y-48399978D02*
X134650001Y-50684301D01*
X112349957Y-46349957D02*
X119084343Y-46349957D01*
X130952001Y-48430001D02*
X130982024Y-48399978D01*
X126595701Y-48430001D02*
X130952001Y-48430001D01*
X133200000Y-54899963D02*
X131894464Y-53594427D01*
X135500000Y-59980000D02*
X133200000Y-57680000D01*
X131894464Y-53594427D02*
X131494465Y-53194428D01*
X133200000Y-57680000D02*
X133200000Y-54899963D01*
X119432009Y-37052004D02*
X111404920Y-37052004D01*
X125715734Y-39849966D02*
X124965689Y-40600011D01*
X111404920Y-37052004D02*
X110839235Y-37052004D01*
X122980016Y-40600011D02*
X119432009Y-37052004D01*
X132699990Y-39026329D02*
X129739371Y-39026329D01*
X124965689Y-40600011D02*
X122980016Y-40600011D01*
X129739371Y-39026329D02*
X128915734Y-39849966D01*
X128915734Y-39849966D02*
X125715734Y-39849966D01*
X135500000Y-57440000D02*
X134349999Y-56289999D01*
X134349999Y-56289999D02*
X134349999Y-54949999D01*
X131600086Y-52200086D02*
X131600086Y-52199991D01*
X134349999Y-54949999D02*
X131600086Y-52200086D01*
X119145706Y-36200001D02*
X123145705Y-40200000D01*
X128750045Y-39449955D02*
X130200000Y-38000000D01*
X130200000Y-38000000D02*
X132834315Y-38000000D01*
X132834315Y-38000000D02*
X133400000Y-38000000D01*
X109100002Y-36600000D02*
X109500001Y-36200001D01*
X125550045Y-39449955D02*
X128750045Y-39449955D01*
X124800000Y-40200000D02*
X125550045Y-39449955D01*
X123145705Y-40200000D02*
X124800000Y-40200000D01*
X109500001Y-36200001D02*
X119145706Y-36200001D01*
X96500000Y-52360000D02*
X105405700Y-52360000D01*
X105405700Y-52360000D02*
X107365676Y-50400024D01*
X107365676Y-50400024D02*
X117567773Y-50400024D01*
X117842050Y-50125747D02*
X118242049Y-49725748D01*
X117567773Y-50400024D02*
X117842050Y-50125747D01*
X111757220Y-48400000D02*
X111757228Y-48399992D01*
X109400000Y-48400000D02*
X111757220Y-48400000D01*
X107990106Y-46990106D02*
X109400000Y-48400000D01*
X96500000Y-47280000D02*
X96789894Y-46990106D01*
X96789894Y-46990106D02*
X107990106Y-46990106D01*
X101857421Y-49889999D02*
X103067412Y-51099990D01*
X99904201Y-49889999D02*
X101857421Y-49889999D01*
X103593142Y-51099990D02*
X104158827Y-51099990D01*
X97899990Y-47885788D02*
X99904201Y-49889999D01*
X103067412Y-51099990D02*
X103593142Y-51099990D01*
X114760000Y-55600000D02*
X109565685Y-55600000D01*
X109565685Y-55600000D02*
X109000000Y-55600000D01*
X116160000Y-57000000D02*
X114760000Y-55600000D01*
D13*
X135500000Y-64710000D02*
X134450000Y-64710000D01*
X127260000Y-71900000D02*
X126255032Y-71900000D01*
X128680000Y-70480000D02*
X128680000Y-66320000D01*
X128680000Y-70480000D02*
X127260000Y-71900000D01*
X129320000Y-65680000D02*
X133480000Y-65680000D01*
X128680000Y-66320000D02*
X129320000Y-65680000D01*
X134450000Y-64710000D02*
X133480000Y-65680000D01*
D14*
X126481412Y-40649988D02*
X124731409Y-42399991D01*
X117995728Y-39098628D02*
X111695037Y-39098628D01*
X135500000Y-42200000D02*
X133700000Y-40400000D01*
X129533102Y-40400000D02*
X129283114Y-40649988D01*
X133700000Y-40400000D02*
X129533102Y-40400000D01*
X121297091Y-42399991D02*
X117995728Y-39098628D01*
X124731409Y-42399991D02*
X121297091Y-42399991D01*
X129283114Y-40649988D02*
X126481412Y-40649988D01*
X111695037Y-39098628D02*
X111129352Y-39098628D01*
X134297919Y-39660000D02*
X134231588Y-39726331D01*
X135500000Y-39660000D02*
X134297919Y-39660000D01*
X134231588Y-39726331D02*
X129641071Y-39726331D01*
X129117425Y-40249977D02*
X126315723Y-40249977D01*
X126315723Y-40249977D02*
X124992473Y-41573227D01*
X124992473Y-41573227D02*
X121706483Y-41573227D01*
X121342483Y-41209227D02*
X121342483Y-40942483D01*
X121342483Y-40942483D02*
X118868883Y-38468883D01*
X111535611Y-38468883D02*
X111465354Y-38398626D01*
X111465354Y-38398626D02*
X110418297Y-38398626D01*
X110418297Y-38398626D02*
X110376479Y-38440444D01*
X118868883Y-38468883D02*
X111535611Y-38468883D01*
X121706483Y-41573227D02*
X121342483Y-41209227D01*
X129641071Y-39726331D02*
X129117425Y-40249977D01*
X132000000Y-46000000D02*
X126800013Y-46000000D01*
X126800013Y-46000000D02*
X126600000Y-45799987D01*
X120800001Y-44200001D02*
X121200000Y-44600000D01*
X96500000Y-42200000D02*
X97421413Y-41278587D01*
X117800022Y-40600022D02*
X120800001Y-43600001D01*
X110832531Y-41486165D02*
X111835929Y-41486165D01*
X97421413Y-41278587D02*
X110624953Y-41278587D01*
X110624953Y-41278587D02*
X110832531Y-41486165D01*
X111835929Y-41486165D02*
X112000000Y-41322094D01*
X112000000Y-41322094D02*
X112000000Y-40600000D01*
X112000000Y-40600000D02*
X112000022Y-40600022D01*
X112000022Y-40600022D02*
X117800022Y-40600022D01*
X120800001Y-43600001D02*
X120800001Y-44200001D01*
X126545722Y-50500010D02*
X128092069Y-50500010D01*
X129804218Y-52212159D02*
X129804218Y-52777844D01*
X128092069Y-50500010D02*
X129804218Y-52212159D01*
X111834309Y-40199991D02*
X112165691Y-40199991D01*
X112165691Y-40199991D02*
X112165711Y-40200011D01*
X112165711Y-40200011D02*
X117965711Y-40200011D01*
X121665699Y-43899999D02*
X123544777Y-43899999D01*
X126063350Y-46418572D02*
X126463349Y-46818571D01*
X117965711Y-40200011D02*
X121665699Y-43899999D01*
X110998220Y-41086154D02*
X111599989Y-41086154D01*
X109572066Y-39660000D02*
X110998220Y-41086154D01*
X111599989Y-40434311D02*
X111834309Y-40199991D01*
X111599989Y-41086154D02*
X111599989Y-40434311D01*
X96500000Y-39660000D02*
X109572066Y-39660000D01*
X123544777Y-43899999D02*
X126063350Y-46418572D01*
X129924473Y-61202021D02*
X133030253Y-61202021D01*
X126900001Y-68209999D02*
X126900001Y-67322168D01*
X129500359Y-61626135D02*
X129924473Y-61202021D01*
X125750000Y-69360000D02*
X126900001Y-68209999D01*
X129500359Y-64721810D02*
X129500359Y-61626135D01*
X133030253Y-61202021D02*
X133595938Y-61202021D01*
X126900001Y-67322168D02*
X129500359Y-64721810D01*
X125750000Y-66820000D02*
X129100348Y-63469652D01*
X129100348Y-63469652D02*
X129100348Y-60688143D01*
X129100348Y-60688143D02*
X131027506Y-58760985D01*
X131027506Y-58760985D02*
X131427505Y-58360986D01*
X97349999Y-58289999D02*
X96500000Y-57440000D01*
X97650001Y-58590001D02*
X97349999Y-58289999D01*
X101320000Y-71600000D02*
X97650001Y-67930001D01*
X97650001Y-67930001D02*
X97650001Y-58590001D01*
X101595820Y-57301280D02*
X107697054Y-51200046D01*
X98923614Y-57301280D02*
X101595820Y-57301280D01*
X118899805Y-51093960D02*
X119299804Y-50693961D01*
X107697054Y-51200046D02*
X118793719Y-51200046D01*
X118793719Y-51200046D02*
X118899805Y-51093960D01*
X102709999Y-70449999D02*
X101249999Y-70449999D01*
X103860000Y-71600000D02*
X102709999Y-70449999D01*
X97349999Y-55749999D02*
X96500000Y-54900000D01*
X98050012Y-56450012D02*
X97349999Y-55749999D01*
X101249999Y-70449999D02*
X98050012Y-67250012D01*
X98050012Y-67250012D02*
X98050012Y-56450012D01*
X103431400Y-54900000D02*
X107531365Y-50800035D01*
X118203766Y-50800035D02*
X119154534Y-49849267D01*
X119154534Y-49849267D02*
X120232026Y-49849267D01*
X96500000Y-54900000D02*
X103431400Y-54900000D01*
X120232026Y-49849267D02*
X120797711Y-49849267D01*
X107531365Y-50800035D02*
X118203766Y-50800035D01*
X103679999Y-55942168D02*
X108022110Y-51600057D01*
X121731893Y-48450010D02*
X121166208Y-48450010D01*
X101552001Y-59810001D02*
X103679999Y-57682003D01*
X99365685Y-59800000D02*
X99375686Y-59810001D01*
X122500002Y-49218119D02*
X121731893Y-48450010D01*
X122500002Y-50936002D02*
X122500002Y-49218119D01*
X108022110Y-51600057D02*
X121835947Y-51600057D01*
X103679999Y-57682003D02*
X103679999Y-55942168D01*
X99375686Y-59810001D02*
X101552001Y-59810001D01*
X121835947Y-51600057D02*
X122500002Y-50936002D01*
X98800000Y-59800000D02*
X99365685Y-59800000D01*
X132600000Y-31600000D02*
X129800000Y-34400000D01*
X128769999Y-35430001D02*
X126969999Y-35430001D01*
X129800000Y-34400000D02*
X128769999Y-35430001D01*
X126969999Y-35430001D02*
X124400000Y-38000000D01*
X124400000Y-38000000D02*
X122800000Y-38000000D01*
X132200000Y-41200000D02*
X131634315Y-41200000D01*
X131634315Y-41200000D02*
X131484314Y-41049999D01*
X131484314Y-41049999D02*
X127150001Y-41049999D01*
X126599999Y-41600001D02*
X126200000Y-42000000D01*
X127150001Y-41049999D02*
X126599999Y-41600001D01*
X127313988Y-38411113D02*
X126949988Y-38047113D01*
X126949988Y-38047113D02*
X126949988Y-37389538D01*
X128109503Y-36230023D02*
X131369977Y-36230023D01*
X127313988Y-38486056D02*
X127313988Y-38411113D01*
X132200001Y-35399999D02*
X132600000Y-35000000D01*
X131369977Y-36230023D02*
X132200001Y-35399999D01*
X127577877Y-38749945D02*
X127313988Y-38486056D01*
X128143562Y-38749945D02*
X127577877Y-38749945D01*
X126949988Y-37389538D02*
X128109503Y-36230023D01*
D15*
G36*
X95228359Y-35346920D02*
G01*
X95402412Y-35580269D01*
X95618645Y-35775178D01*
X95868748Y-35924157D01*
X96107885Y-36008986D01*
X96047403Y-36027333D01*
X95842930Y-36136626D01*
X95663709Y-36283709D01*
X95516626Y-36462930D01*
X95407333Y-36667403D01*
X95340031Y-36889268D01*
X95317306Y-37120000D01*
X95340031Y-37350732D01*
X95407333Y-37572597D01*
X95516626Y-37777070D01*
X95663709Y-37956291D01*
X95842930Y-38103374D01*
X96047403Y-38212667D01*
X96269268Y-38279969D01*
X96442188Y-38297000D01*
X96557812Y-38297000D01*
X96730732Y-38279969D01*
X96952597Y-38212667D01*
X96976188Y-38200057D01*
X97233449Y-38457319D01*
X97246813Y-38473603D01*
X97263097Y-38486967D01*
X97263106Y-38486976D01*
X97311831Y-38526963D01*
X97351481Y-38548156D01*
X97386012Y-38566613D01*
X97466501Y-38591030D01*
X97529230Y-38597208D01*
X97529242Y-38597208D01*
X97550207Y-38599273D01*
X97571172Y-38597208D01*
X109589746Y-38597208D01*
X109610713Y-38599273D01*
X109631680Y-38597208D01*
X109631691Y-38597208D01*
X109665751Y-38593854D01*
X109677417Y-38652502D01*
X109732220Y-38784808D01*
X109811781Y-38903880D01*
X109913043Y-39005142D01*
X110032115Y-39084703D01*
X110164421Y-39139506D01*
X110304876Y-39167444D01*
X110402352Y-39167444D01*
X110402352Y-39170231D01*
X110430290Y-39310686D01*
X110485093Y-39442992D01*
X110535795Y-39518873D01*
X110527623Y-39524333D01*
X110426361Y-39625595D01*
X110346800Y-39744667D01*
X110321553Y-39805618D01*
X109888834Y-39372900D01*
X109875461Y-39356605D01*
X109810442Y-39303245D01*
X109736262Y-39263595D01*
X109655773Y-39239178D01*
X109593044Y-39233000D01*
X109593033Y-39233000D01*
X109572066Y-39230935D01*
X109551099Y-39233000D01*
X97600432Y-39233000D01*
X97592667Y-39207403D01*
X97483374Y-39002930D01*
X97336291Y-38823709D01*
X97157070Y-38676626D01*
X96952597Y-38567333D01*
X96730732Y-38500031D01*
X96557812Y-38483000D01*
X96442188Y-38483000D01*
X96269268Y-38500031D01*
X96047403Y-38567333D01*
X95842930Y-38676626D01*
X95663709Y-38823709D01*
X95516626Y-39002930D01*
X95407333Y-39207403D01*
X95340031Y-39429268D01*
X95317306Y-39660000D01*
X95340031Y-39890732D01*
X95407333Y-40112597D01*
X95516626Y-40317070D01*
X95663709Y-40496291D01*
X95842930Y-40643374D01*
X96047403Y-40752667D01*
X96269268Y-40819969D01*
X96442188Y-40837000D01*
X96557812Y-40837000D01*
X96730732Y-40819969D01*
X96952597Y-40752667D01*
X97157070Y-40643374D01*
X97336291Y-40496291D01*
X97483374Y-40317070D01*
X97592667Y-40112597D01*
X97600432Y-40087000D01*
X109395198Y-40087000D01*
X110159784Y-40851587D01*
X97442380Y-40851587D01*
X97421413Y-40849522D01*
X97400446Y-40851587D01*
X97400435Y-40851587D01*
X97337706Y-40857765D01*
X97257217Y-40882182D01*
X97239951Y-40891411D01*
X97183036Y-40921831D01*
X97134312Y-40961819D01*
X97134308Y-40961823D01*
X97118018Y-40975192D01*
X97104649Y-40991482D01*
X96976188Y-41119943D01*
X96952597Y-41107333D01*
X96730732Y-41040031D01*
X96557812Y-41023000D01*
X96442188Y-41023000D01*
X96269268Y-41040031D01*
X96047403Y-41107333D01*
X95842930Y-41216626D01*
X95663709Y-41363709D01*
X95516626Y-41542930D01*
X95407333Y-41747403D01*
X95340031Y-41969268D01*
X95317306Y-42200000D01*
X95340031Y-42430732D01*
X95407333Y-42652597D01*
X95516626Y-42857070D01*
X95663709Y-43036291D01*
X95842930Y-43183374D01*
X96047403Y-43292667D01*
X96269268Y-43359969D01*
X96442188Y-43377000D01*
X96557812Y-43377000D01*
X96730732Y-43359969D01*
X96952597Y-43292667D01*
X97157070Y-43183374D01*
X97336291Y-43036291D01*
X97483374Y-42857070D01*
X97592667Y-42652597D01*
X97659969Y-42430732D01*
X97682694Y-42200000D01*
X97659969Y-41969268D01*
X97592667Y-41747403D01*
X97580057Y-41723812D01*
X97598282Y-41705587D01*
X108335051Y-41705587D01*
X108300938Y-41787942D01*
X108273000Y-41928397D01*
X108273000Y-42071603D01*
X108300938Y-42212058D01*
X108355741Y-42344364D01*
X108435302Y-42463436D01*
X108536564Y-42564698D01*
X108655636Y-42644259D01*
X108787942Y-42699062D01*
X108792658Y-42700000D01*
X108787942Y-42700938D01*
X108655636Y-42755741D01*
X108536564Y-42835302D01*
X108435302Y-42936564D01*
X108355741Y-43055636D01*
X108300938Y-43187942D01*
X108273000Y-43328397D01*
X108273000Y-43471603D01*
X108300938Y-43612058D01*
X108355741Y-43744364D01*
X108435302Y-43863436D01*
X108536564Y-43964698D01*
X108655636Y-44044259D01*
X108706527Y-44065339D01*
X108635302Y-44136564D01*
X108555741Y-44255636D01*
X108500938Y-44387942D01*
X108473000Y-44528397D01*
X108473000Y-44671603D01*
X108500938Y-44812058D01*
X108555741Y-44944364D01*
X108635302Y-45063436D01*
X108736564Y-45164698D01*
X108789397Y-45200000D01*
X108736564Y-45235302D01*
X108635302Y-45336564D01*
X108555741Y-45455636D01*
X108500938Y-45587942D01*
X108473000Y-45728397D01*
X108473000Y-45871603D01*
X108500938Y-46012058D01*
X108555741Y-46144364D01*
X108635302Y-46263436D01*
X108736564Y-46364698D01*
X108855636Y-46444259D01*
X108987942Y-46499062D01*
X109128397Y-46527000D01*
X109271603Y-46527000D01*
X109314583Y-46518451D01*
X110683236Y-47887105D01*
X110696605Y-47903395D01*
X110712895Y-47916764D01*
X110712898Y-47916767D01*
X110761623Y-47956755D01*
X110788138Y-47970927D01*
X110792016Y-47973000D01*
X109576870Y-47973000D01*
X108306874Y-46703006D01*
X108293501Y-46686711D01*
X108228482Y-46633351D01*
X108154302Y-46593701D01*
X108073813Y-46569284D01*
X108011084Y-46563106D01*
X108011073Y-46563106D01*
X107990106Y-46561041D01*
X107969139Y-46563106D01*
X105029732Y-46563106D01*
X105071641Y-46506920D01*
X105196825Y-46244099D01*
X105241476Y-46096890D01*
X105120155Y-45867000D01*
X103927000Y-45867000D01*
X103927000Y-45887000D01*
X103673000Y-45887000D01*
X103673000Y-45867000D01*
X103653000Y-45867000D01*
X103653000Y-45613000D01*
X103673000Y-45613000D01*
X103673000Y-43327000D01*
X103927000Y-43327000D01*
X103927000Y-45613000D01*
X105120155Y-45613000D01*
X105241476Y-45383110D01*
X105196825Y-45235901D01*
X105071641Y-44973080D01*
X104897588Y-44739731D01*
X104813534Y-44663966D01*
X104894180Y-44639502D01*
X105004494Y-44580537D01*
X105101185Y-44501185D01*
X105180537Y-44404494D01*
X105239502Y-44294180D01*
X105275812Y-44174482D01*
X105288072Y-44050000D01*
X105285000Y-43485750D01*
X105126250Y-43327000D01*
X103927000Y-43327000D01*
X103673000Y-43327000D01*
X103653000Y-43327000D01*
X103653000Y-43073000D01*
X103673000Y-43073000D01*
X103673000Y-41873750D01*
X103927000Y-41873750D01*
X103927000Y-43073000D01*
X105126250Y-43073000D01*
X105285000Y-42914250D01*
X105288072Y-42350000D01*
X105275812Y-42225518D01*
X105239502Y-42105820D01*
X105180537Y-41995506D01*
X105101185Y-41898815D01*
X105004494Y-41819463D01*
X104894180Y-41760498D01*
X104774482Y-41724188D01*
X104650000Y-41711928D01*
X104085750Y-41715000D01*
X103927000Y-41873750D01*
X103673000Y-41873750D01*
X103514250Y-41715000D01*
X102950000Y-41711928D01*
X102825518Y-41724188D01*
X102705820Y-41760498D01*
X102595506Y-41819463D01*
X102498815Y-41898815D01*
X102419463Y-41995506D01*
X102400267Y-42031418D01*
X100750000Y-42031418D01*
X100685897Y-42037732D01*
X100624257Y-42056430D01*
X100567450Y-42086794D01*
X100517657Y-42127657D01*
X100476794Y-42177450D01*
X100446430Y-42234257D01*
X100427732Y-42295897D01*
X100421418Y-42360000D01*
X100421418Y-44060000D01*
X100427732Y-44124103D01*
X100446430Y-44185743D01*
X100476794Y-44242550D01*
X100517657Y-44292343D01*
X100567450Y-44333206D01*
X100624257Y-44363570D01*
X100685897Y-44382268D01*
X100750000Y-44388582D01*
X102410958Y-44388582D01*
X102419463Y-44404494D01*
X102498815Y-44501185D01*
X102595506Y-44580537D01*
X102705820Y-44639502D01*
X102786466Y-44663966D01*
X102702412Y-44739731D01*
X102528359Y-44973080D01*
X102512441Y-45006499D01*
X102436291Y-44913709D01*
X102257070Y-44766626D01*
X102052597Y-44657333D01*
X101830732Y-44590031D01*
X101657812Y-44573000D01*
X101542188Y-44573000D01*
X101369268Y-44590031D01*
X101147403Y-44657333D01*
X100942930Y-44766626D01*
X100763709Y-44913709D01*
X100616626Y-45092930D01*
X100507333Y-45297403D01*
X100440031Y-45519268D01*
X100417306Y-45750000D01*
X100440031Y-45980732D01*
X100507333Y-46202597D01*
X100616626Y-46407070D01*
X100744682Y-46563106D01*
X97434278Y-46563106D01*
X97336291Y-46443709D01*
X97157070Y-46296626D01*
X96952597Y-46187333D01*
X96730732Y-46120031D01*
X96557812Y-46103000D01*
X96442188Y-46103000D01*
X96269268Y-46120031D01*
X96047403Y-46187333D01*
X95842930Y-46296626D01*
X95663709Y-46443709D01*
X95516626Y-46622930D01*
X95407333Y-46827403D01*
X95340031Y-47049268D01*
X95317306Y-47280000D01*
X95340031Y-47510732D01*
X95407333Y-47732597D01*
X95516626Y-47937070D01*
X95663709Y-48116291D01*
X95842930Y-48263374D01*
X96047403Y-48372667D01*
X96269268Y-48439969D01*
X96442188Y-48457000D01*
X96557812Y-48457000D01*
X96730732Y-48439969D01*
X96952597Y-48372667D01*
X97157070Y-48263374D01*
X97240971Y-48194518D01*
X97255731Y-48230152D01*
X97335292Y-48349224D01*
X97436554Y-48450486D01*
X97555626Y-48530047D01*
X97687932Y-48584850D01*
X97828387Y-48612788D01*
X97971593Y-48612788D01*
X98014572Y-48604239D01*
X99587442Y-50177110D01*
X99600806Y-50193394D01*
X99617090Y-50206758D01*
X99617099Y-50206767D01*
X99665824Y-50246754D01*
X99697115Y-50263479D01*
X99740005Y-50286404D01*
X99820494Y-50310821D01*
X99883223Y-50316999D01*
X99883235Y-50316999D01*
X99904200Y-50319064D01*
X99925165Y-50316999D01*
X100070734Y-50316999D01*
X100016626Y-50382930D01*
X99907333Y-50587403D01*
X99840031Y-50809268D01*
X99817306Y-51040000D01*
X99840031Y-51270732D01*
X99907333Y-51492597D01*
X100016626Y-51697070D01*
X100163709Y-51876291D01*
X100232809Y-51933000D01*
X97600432Y-51933000D01*
X97592667Y-51907403D01*
X97483374Y-51702930D01*
X97336291Y-51523709D01*
X97157070Y-51376626D01*
X96952597Y-51267333D01*
X96730732Y-51200031D01*
X96557812Y-51183000D01*
X96442188Y-51183000D01*
X96269268Y-51200031D01*
X96047403Y-51267333D01*
X95842930Y-51376626D01*
X95663709Y-51523709D01*
X95516626Y-51702930D01*
X95407333Y-51907403D01*
X95340031Y-52129268D01*
X95317306Y-52360000D01*
X95340031Y-52590732D01*
X95407333Y-52812597D01*
X95516626Y-53017070D01*
X95663709Y-53196291D01*
X95842930Y-53343374D01*
X96047403Y-53452667D01*
X96269268Y-53519969D01*
X96442188Y-53537000D01*
X96557812Y-53537000D01*
X96730732Y-53519969D01*
X96952597Y-53452667D01*
X97157070Y-53343374D01*
X97336291Y-53196291D01*
X97483374Y-53017070D01*
X97592667Y-52812597D01*
X97600432Y-52787000D01*
X100128181Y-52787000D01*
X100016626Y-52922930D01*
X99907333Y-53127403D01*
X99840031Y-53349268D01*
X99817306Y-53580000D01*
X99840031Y-53810732D01*
X99907333Y-54032597D01*
X100016626Y-54237070D01*
X100163709Y-54416291D01*
X100232809Y-54473000D01*
X97600432Y-54473000D01*
X97592667Y-54447403D01*
X97483374Y-54242930D01*
X97336291Y-54063709D01*
X97157070Y-53916626D01*
X96952597Y-53807333D01*
X96730732Y-53740031D01*
X96557812Y-53723000D01*
X96442188Y-53723000D01*
X96269268Y-53740031D01*
X96047403Y-53807333D01*
X95842930Y-53916626D01*
X95663709Y-54063709D01*
X95516626Y-54242930D01*
X95407333Y-54447403D01*
X95340031Y-54669268D01*
X95317306Y-54900000D01*
X95340031Y-55130732D01*
X95407333Y-55352597D01*
X95516626Y-55557070D01*
X95663709Y-55736291D01*
X95842930Y-55883374D01*
X96047403Y-55992667D01*
X96269268Y-56059969D01*
X96442188Y-56077000D01*
X96557812Y-56077000D01*
X96730732Y-56059969D01*
X96952597Y-55992667D01*
X96976188Y-55980057D01*
X97062898Y-56066767D01*
X97062903Y-56066771D01*
X97623013Y-56626882D01*
X97623013Y-57087440D01*
X97592667Y-56987403D01*
X97483374Y-56782930D01*
X97336291Y-56603709D01*
X97157070Y-56456626D01*
X96952597Y-56347333D01*
X96730732Y-56280031D01*
X96557812Y-56263000D01*
X96442188Y-56263000D01*
X96269268Y-56280031D01*
X96047403Y-56347333D01*
X95842930Y-56456626D01*
X95663709Y-56603709D01*
X95516626Y-56782930D01*
X95407333Y-56987403D01*
X95340031Y-57209268D01*
X95317306Y-57440000D01*
X95340031Y-57670732D01*
X95407333Y-57892597D01*
X95516626Y-58097070D01*
X95663709Y-58276291D01*
X95842930Y-58423374D01*
X96047403Y-58532667D01*
X96269268Y-58599969D01*
X96442188Y-58617000D01*
X96557812Y-58617000D01*
X96730732Y-58599969D01*
X96952597Y-58532667D01*
X96976188Y-58520057D01*
X97062898Y-58606767D01*
X97062903Y-58606771D01*
X97223002Y-58766871D01*
X97223002Y-59050735D01*
X97157070Y-58996626D01*
X96952597Y-58887333D01*
X96730732Y-58820031D01*
X96557812Y-58803000D01*
X96442188Y-58803000D01*
X96269268Y-58820031D01*
X96047403Y-58887333D01*
X95842930Y-58996626D01*
X95663709Y-59143709D01*
X95516626Y-59322930D01*
X95407333Y-59527403D01*
X95340031Y-59749268D01*
X95317306Y-59980000D01*
X95340031Y-60210732D01*
X95407333Y-60432597D01*
X95516626Y-60637070D01*
X95663709Y-60816291D01*
X95842930Y-60963374D01*
X96047403Y-61072667D01*
X96269268Y-61139969D01*
X96442188Y-61157000D01*
X96557812Y-61157000D01*
X96730732Y-61139969D01*
X96952597Y-61072667D01*
X97157070Y-60963374D01*
X97223002Y-60909265D01*
X97223001Y-67909034D01*
X97220936Y-67930001D01*
X97223001Y-67950968D01*
X97223001Y-67950978D01*
X97229179Y-68013707D01*
X97253596Y-68094196D01*
X97253597Y-68094197D01*
X97293246Y-68168377D01*
X97333233Y-68217101D01*
X97346606Y-68233396D01*
X97362901Y-68246769D01*
X100239943Y-71123812D01*
X100227333Y-71147403D01*
X100160031Y-71369268D01*
X100137306Y-71600000D01*
X100160031Y-71830732D01*
X100227333Y-72052597D01*
X100336626Y-72257070D01*
X100483709Y-72436291D01*
X100662930Y-72583374D01*
X100867403Y-72692667D01*
X101089268Y-72759969D01*
X101262188Y-72777000D01*
X101377812Y-72777000D01*
X101550732Y-72759969D01*
X101772597Y-72692667D01*
X101977070Y-72583374D01*
X102156291Y-72436291D01*
X102303374Y-72257070D01*
X102412667Y-72052597D01*
X102479969Y-71830732D01*
X102502694Y-71600000D01*
X102479969Y-71369268D01*
X102412667Y-71147403D01*
X102303374Y-70942930D01*
X102249266Y-70876999D01*
X102533131Y-70876999D01*
X102779943Y-71123811D01*
X102767333Y-71147403D01*
X102700031Y-71369268D01*
X102677306Y-71600000D01*
X102700031Y-71830732D01*
X102767333Y-72052597D01*
X102876626Y-72257070D01*
X103023709Y-72436291D01*
X103202930Y-72583374D01*
X103407403Y-72692667D01*
X103629268Y-72759969D01*
X103802188Y-72777000D01*
X103917812Y-72777000D01*
X104090732Y-72759969D01*
X104312597Y-72692667D01*
X104517070Y-72583374D01*
X104696291Y-72436291D01*
X104843374Y-72257070D01*
X104952667Y-72052597D01*
X105019969Y-71830732D01*
X105042694Y-71600000D01*
X105019969Y-71369268D01*
X104952667Y-71147403D01*
X104843374Y-70942930D01*
X104696291Y-70763709D01*
X104517070Y-70616626D01*
X104312597Y-70507333D01*
X104090732Y-70440031D01*
X103917812Y-70423000D01*
X103802188Y-70423000D01*
X103629268Y-70440031D01*
X103407403Y-70507333D01*
X103383811Y-70519943D01*
X103112436Y-70248568D01*
X103181252Y-70224157D01*
X103431355Y-70075178D01*
X103647588Y-69880269D01*
X103821641Y-69646920D01*
X103946825Y-69384099D01*
X103991476Y-69236890D01*
X104158524Y-69236890D01*
X104203175Y-69384099D01*
X104328359Y-69646920D01*
X104502412Y-69880269D01*
X104718645Y-70075178D01*
X104968748Y-70224157D01*
X105243109Y-70321481D01*
X105473000Y-70200814D01*
X105473000Y-69007000D01*
X105727000Y-69007000D01*
X105727000Y-70200814D01*
X105956891Y-70321481D01*
X106231252Y-70224157D01*
X106481355Y-70075178D01*
X106697588Y-69880269D01*
X106871641Y-69646920D01*
X106996825Y-69384099D01*
X107041476Y-69236890D01*
X106920155Y-69007000D01*
X105727000Y-69007000D01*
X105473000Y-69007000D01*
X104279845Y-69007000D01*
X104158524Y-69236890D01*
X103991476Y-69236890D01*
X103870155Y-69007000D01*
X102677000Y-69007000D01*
X102677000Y-69027000D01*
X102423000Y-69027000D01*
X102423000Y-69007000D01*
X101229845Y-69007000D01*
X101108524Y-69236890D01*
X101153175Y-69384099D01*
X101278359Y-69646920D01*
X101452412Y-69880269D01*
X101610757Y-70022999D01*
X101426868Y-70022999D01*
X99926979Y-68523110D01*
X101108524Y-68523110D01*
X101229845Y-68753000D01*
X102423000Y-68753000D01*
X102423000Y-68733000D01*
X102677000Y-68733000D01*
X102677000Y-68753000D01*
X103870155Y-68753000D01*
X103991476Y-68523110D01*
X104158524Y-68523110D01*
X104279845Y-68753000D01*
X105473000Y-68753000D01*
X105473000Y-68733000D01*
X105727000Y-68733000D01*
X105727000Y-68753000D01*
X106920155Y-68753000D01*
X107041476Y-68523110D01*
X106996825Y-68375901D01*
X106871641Y-68113080D01*
X106697588Y-67879731D01*
X106481355Y-67684822D01*
X106231252Y-67535843D01*
X105992115Y-67451014D01*
X106052597Y-67432667D01*
X106257070Y-67323374D01*
X106436291Y-67176291D01*
X106583374Y-66997070D01*
X106692667Y-66792597D01*
X106759969Y-66570732D01*
X106782694Y-66340000D01*
X106759969Y-66109268D01*
X106692667Y-65887403D01*
X106583374Y-65682930D01*
X106436291Y-65503709D01*
X106257070Y-65356626D01*
X106052597Y-65247333D01*
X105830732Y-65180031D01*
X105657812Y-65163000D01*
X105542188Y-65163000D01*
X105369268Y-65180031D01*
X105147403Y-65247333D01*
X104942930Y-65356626D01*
X104763709Y-65503709D01*
X104616626Y-65682930D01*
X104507333Y-65887403D01*
X104440031Y-66109268D01*
X104417306Y-66340000D01*
X104440031Y-66570732D01*
X104507333Y-66792597D01*
X104616626Y-66997070D01*
X104763709Y-67176291D01*
X104942930Y-67323374D01*
X105147403Y-67432667D01*
X105207885Y-67451014D01*
X104968748Y-67535843D01*
X104718645Y-67684822D01*
X104502412Y-67879731D01*
X104328359Y-68113080D01*
X104203175Y-68375901D01*
X104158524Y-68523110D01*
X103991476Y-68523110D01*
X103946825Y-68375901D01*
X103821641Y-68113080D01*
X103647588Y-67879731D01*
X103431355Y-67684822D01*
X103181252Y-67535843D01*
X102942115Y-67451014D01*
X103002597Y-67432667D01*
X103207070Y-67323374D01*
X103386291Y-67176291D01*
X103533374Y-66997070D01*
X103642667Y-66792597D01*
X103709969Y-66570732D01*
X103732694Y-66340000D01*
X103709969Y-66109268D01*
X103642667Y-65887403D01*
X103533374Y-65682930D01*
X103386291Y-65503709D01*
X103207070Y-65356626D01*
X103002597Y-65247333D01*
X102780732Y-65180031D01*
X102607812Y-65163000D01*
X102492188Y-65163000D01*
X102319268Y-65180031D01*
X102097403Y-65247333D01*
X101892930Y-65356626D01*
X101713709Y-65503709D01*
X101566626Y-65682930D01*
X101457333Y-65887403D01*
X101390031Y-66109268D01*
X101367306Y-66340000D01*
X101390031Y-66570732D01*
X101457333Y-66792597D01*
X101566626Y-66997070D01*
X101713709Y-67176291D01*
X101892930Y-67323374D01*
X102097403Y-67432667D01*
X102157885Y-67451014D01*
X101918748Y-67535843D01*
X101668645Y-67684822D01*
X101452412Y-67879731D01*
X101278359Y-68113080D01*
X101153175Y-68375901D01*
X101108524Y-68523110D01*
X99926979Y-68523110D01*
X98477012Y-67073144D01*
X98477012Y-62050000D01*
X99511928Y-62050000D01*
X99524188Y-62174482D01*
X99560498Y-62294180D01*
X99619463Y-62404494D01*
X99698815Y-62501185D01*
X99795506Y-62580537D01*
X99905820Y-62639502D01*
X100025518Y-62675812D01*
X100150000Y-62688072D01*
X100714250Y-62685000D01*
X100873000Y-62526250D01*
X100873000Y-61327000D01*
X101127000Y-61327000D01*
X101127000Y-62526250D01*
X101285750Y-62685000D01*
X101505990Y-62686199D01*
X101467657Y-62717657D01*
X101426794Y-62767450D01*
X101396430Y-62824257D01*
X101377732Y-62885897D01*
X101371418Y-62950000D01*
X101371418Y-64650000D01*
X101377732Y-64714103D01*
X101396430Y-64775743D01*
X101426794Y-64832550D01*
X101467657Y-64882343D01*
X101517450Y-64923206D01*
X101574257Y-64953570D01*
X101635897Y-64972268D01*
X101700000Y-64978582D01*
X103400000Y-64978582D01*
X103464103Y-64972268D01*
X103525743Y-64953570D01*
X103582550Y-64923206D01*
X103632343Y-64882343D01*
X103673206Y-64832550D01*
X103703570Y-64775743D01*
X103722268Y-64714103D01*
X103728582Y-64650000D01*
X103728582Y-62950000D01*
X104421418Y-62950000D01*
X104421418Y-64650000D01*
X104427732Y-64714103D01*
X104446430Y-64775743D01*
X104476794Y-64832550D01*
X104517657Y-64882343D01*
X104567450Y-64923206D01*
X104624257Y-64953570D01*
X104685897Y-64972268D01*
X104750000Y-64978582D01*
X106450000Y-64978582D01*
X106514103Y-64972268D01*
X106575743Y-64953570D01*
X106632550Y-64923206D01*
X106682343Y-64882343D01*
X106723206Y-64832550D01*
X106753570Y-64775743D01*
X106772268Y-64714103D01*
X106778582Y-64650000D01*
X106778582Y-62950000D01*
X106772268Y-62885897D01*
X106753570Y-62824257D01*
X106723206Y-62767450D01*
X106682343Y-62717657D01*
X106632550Y-62676794D01*
X106575743Y-62646430D01*
X106514103Y-62627732D01*
X106450000Y-62621418D01*
X104750000Y-62621418D01*
X104685897Y-62627732D01*
X104624257Y-62646430D01*
X104567450Y-62676794D01*
X104517657Y-62717657D01*
X104476794Y-62767450D01*
X104446430Y-62824257D01*
X104427732Y-62885897D01*
X104421418Y-62950000D01*
X103728582Y-62950000D01*
X103722268Y-62885897D01*
X103703570Y-62824257D01*
X103673206Y-62767450D01*
X103632343Y-62717657D01*
X103582550Y-62676794D01*
X103525743Y-62646430D01*
X103464103Y-62627732D01*
X103400000Y-62621418D01*
X102128012Y-62621418D01*
X102204494Y-62580537D01*
X102301185Y-62501185D01*
X102380537Y-62404494D01*
X102439502Y-62294180D01*
X102475812Y-62174482D01*
X102488072Y-62050000D01*
X102485000Y-61485750D01*
X102326250Y-61327000D01*
X101127000Y-61327000D01*
X100873000Y-61327000D01*
X99673750Y-61327000D01*
X99515000Y-61485750D01*
X99511928Y-62050000D01*
X98477012Y-62050000D01*
X98477012Y-60453113D01*
X98587942Y-60499062D01*
X98728397Y-60527000D01*
X98871603Y-60527000D01*
X99012058Y-60499062D01*
X99144364Y-60444259D01*
X99263436Y-60364698D01*
X99364698Y-60263436D01*
X99381354Y-60238508D01*
X99396653Y-60237001D01*
X99523057Y-60237001D01*
X99511928Y-60350000D01*
X99515000Y-60914250D01*
X99673750Y-61073000D01*
X100873000Y-61073000D01*
X100873000Y-61053000D01*
X101127000Y-61053000D01*
X101127000Y-61073000D01*
X102326250Y-61073000D01*
X102485000Y-60914250D01*
X102488072Y-60350000D01*
X102475812Y-60225518D01*
X102439502Y-60105820D01*
X102380537Y-59995506D01*
X102301185Y-59898815D01*
X102204494Y-59819463D01*
X102166641Y-59799230D01*
X103967105Y-57998766D01*
X103983394Y-57985398D01*
X103996763Y-57969108D01*
X103996767Y-57969104D01*
X104036755Y-57920380D01*
X104076404Y-57846200D01*
X104082087Y-57827466D01*
X104100821Y-57765710D01*
X104106999Y-57702981D01*
X104106999Y-57702970D01*
X104109064Y-57682003D01*
X104106999Y-57661036D01*
X104106999Y-56119036D01*
X105423001Y-54803035D01*
X105423000Y-55821418D01*
X105150000Y-55821418D01*
X105085897Y-55827732D01*
X105024257Y-55846430D01*
X104967450Y-55876794D01*
X104917657Y-55917657D01*
X104876794Y-55967450D01*
X104846430Y-56024257D01*
X104827732Y-56085897D01*
X104821418Y-56150000D01*
X104821418Y-57850000D01*
X104827732Y-57914103D01*
X104846430Y-57975743D01*
X104876794Y-58032550D01*
X104917657Y-58082343D01*
X104967450Y-58123206D01*
X105024257Y-58153570D01*
X105085897Y-58172268D01*
X105150000Y-58178582D01*
X106850000Y-58178582D01*
X106914103Y-58172268D01*
X106975743Y-58153570D01*
X107032550Y-58123206D01*
X107082343Y-58082343D01*
X107123206Y-58032550D01*
X107153570Y-57975743D01*
X107172268Y-57914103D01*
X107178582Y-57850000D01*
X107178582Y-57582592D01*
X107195843Y-57631252D01*
X107344822Y-57881355D01*
X107539731Y-58097588D01*
X107673955Y-58197705D01*
X107672637Y-58199298D01*
X107549287Y-58350540D01*
X107541643Y-58362046D01*
X107533881Y-58373382D01*
X107532871Y-58375248D01*
X107441246Y-58547570D01*
X107435988Y-58560328D01*
X107430569Y-58572970D01*
X107429941Y-58574997D01*
X107373532Y-58761833D01*
X107370852Y-58775368D01*
X107367992Y-58788823D01*
X107367770Y-58790934D01*
X107348725Y-58985167D01*
X107348725Y-58985188D01*
X107348001Y-58992538D01*
X107348000Y-70438014D01*
X107314103Y-70427732D01*
X107250000Y-70421418D01*
X105550000Y-70421418D01*
X105485897Y-70427732D01*
X105424257Y-70446430D01*
X105367450Y-70476794D01*
X105317657Y-70517657D01*
X105276794Y-70567450D01*
X105246430Y-70624257D01*
X105227732Y-70685897D01*
X105221418Y-70750000D01*
X105221418Y-72450000D01*
X105227732Y-72514103D01*
X105246430Y-72575743D01*
X105276794Y-72632550D01*
X105317657Y-72682343D01*
X105367450Y-72723206D01*
X105424257Y-72753570D01*
X105485897Y-72772268D01*
X105550000Y-72778582D01*
X106832928Y-72778582D01*
X106828328Y-72781069D01*
X106670369Y-72829966D01*
X106498789Y-72848000D01*
X97038615Y-72848000D01*
X97240269Y-72697588D01*
X97435178Y-72481355D01*
X97584157Y-72231252D01*
X97668986Y-71992115D01*
X97687333Y-72052597D01*
X97796626Y-72257070D01*
X97943709Y-72436291D01*
X98122930Y-72583374D01*
X98327403Y-72692667D01*
X98549268Y-72759969D01*
X98722188Y-72777000D01*
X98837812Y-72777000D01*
X99010732Y-72759969D01*
X99232597Y-72692667D01*
X99437070Y-72583374D01*
X99616291Y-72436291D01*
X99763374Y-72257070D01*
X99872667Y-72052597D01*
X99939969Y-71830732D01*
X99962694Y-71600000D01*
X99939969Y-71369268D01*
X99872667Y-71147403D01*
X99763374Y-70942930D01*
X99616291Y-70763709D01*
X99437070Y-70616626D01*
X99232597Y-70507333D01*
X99010732Y-70440031D01*
X98837812Y-70423000D01*
X98722188Y-70423000D01*
X98549268Y-70440031D01*
X98327403Y-70507333D01*
X98122930Y-70616626D01*
X97943709Y-70763709D01*
X97796626Y-70942930D01*
X97687333Y-71147403D01*
X97668986Y-71207885D01*
X97584157Y-70968748D01*
X97435178Y-70718645D01*
X97240269Y-70502412D01*
X97006920Y-70328359D01*
X96744099Y-70203175D01*
X96596890Y-70158524D01*
X96367000Y-70279845D01*
X96367000Y-71473000D01*
X96387000Y-71473000D01*
X96387000Y-71727000D01*
X96367000Y-71727000D01*
X96367000Y-71747000D01*
X96113000Y-71747000D01*
X96113000Y-71727000D01*
X95152000Y-71727000D01*
X95152000Y-71473000D01*
X96113000Y-71473000D01*
X96113000Y-70279845D01*
X95883110Y-70158524D01*
X95735901Y-70203175D01*
X95473080Y-70328359D01*
X95239731Y-70502412D01*
X95152000Y-70599741D01*
X95152000Y-49820000D01*
X95317306Y-49820000D01*
X95340031Y-50050732D01*
X95407333Y-50272597D01*
X95516626Y-50477070D01*
X95663709Y-50656291D01*
X95842930Y-50803374D01*
X96047403Y-50912667D01*
X96269268Y-50979969D01*
X96442188Y-50997000D01*
X96557812Y-50997000D01*
X96730732Y-50979969D01*
X96952597Y-50912667D01*
X97157070Y-50803374D01*
X97336291Y-50656291D01*
X97483374Y-50477070D01*
X97592667Y-50272597D01*
X97659969Y-50050732D01*
X97682694Y-49820000D01*
X97659969Y-49589268D01*
X97592667Y-49367403D01*
X97483374Y-49162930D01*
X97336291Y-48983709D01*
X97157070Y-48836626D01*
X96952597Y-48727333D01*
X96730732Y-48660031D01*
X96557812Y-48643000D01*
X96442188Y-48643000D01*
X96269268Y-48660031D01*
X96047403Y-48727333D01*
X95842930Y-48836626D01*
X95663709Y-48983709D01*
X95516626Y-49162930D01*
X95407333Y-49367403D01*
X95340031Y-49589268D01*
X95317306Y-49820000D01*
X95152000Y-49820000D01*
X95152000Y-44740000D01*
X95317306Y-44740000D01*
X95340031Y-44970732D01*
X95407333Y-45192597D01*
X95516626Y-45397070D01*
X95663709Y-45576291D01*
X95842930Y-45723374D01*
X96047403Y-45832667D01*
X96269268Y-45899969D01*
X96442188Y-45917000D01*
X96557812Y-45917000D01*
X96730732Y-45899969D01*
X96952597Y-45832667D01*
X97157070Y-45723374D01*
X97336291Y-45576291D01*
X97483374Y-45397070D01*
X97592667Y-45192597D01*
X97659969Y-44970732D01*
X97682694Y-44740000D01*
X97659969Y-44509268D01*
X97592667Y-44287403D01*
X97483374Y-44082930D01*
X97336291Y-43903709D01*
X97157070Y-43756626D01*
X96952597Y-43647333D01*
X96730732Y-43580031D01*
X96557812Y-43563000D01*
X96442188Y-43563000D01*
X96269268Y-43580031D01*
X96047403Y-43647333D01*
X95842930Y-43756626D01*
X95663709Y-43903709D01*
X95516626Y-44082930D01*
X95407333Y-44287403D01*
X95340031Y-44509268D01*
X95317306Y-44740000D01*
X95152000Y-44740000D01*
X95152000Y-35186606D01*
X95228359Y-35346920D01*
X95228359Y-35346920D01*
G37*
X95228359Y-35346920D02*
X95402412Y-35580269D01*
X95618645Y-35775178D01*
X95868748Y-35924157D01*
X96107885Y-36008986D01*
X96047403Y-36027333D01*
X95842930Y-36136626D01*
X95663709Y-36283709D01*
X95516626Y-36462930D01*
X95407333Y-36667403D01*
X95340031Y-36889268D01*
X95317306Y-37120000D01*
X95340031Y-37350732D01*
X95407333Y-37572597D01*
X95516626Y-37777070D01*
X95663709Y-37956291D01*
X95842930Y-38103374D01*
X96047403Y-38212667D01*
X96269268Y-38279969D01*
X96442188Y-38297000D01*
X96557812Y-38297000D01*
X96730732Y-38279969D01*
X96952597Y-38212667D01*
X96976188Y-38200057D01*
X97233449Y-38457319D01*
X97246813Y-38473603D01*
X97263097Y-38486967D01*
X97263106Y-38486976D01*
X97311831Y-38526963D01*
X97351481Y-38548156D01*
X97386012Y-38566613D01*
X97466501Y-38591030D01*
X97529230Y-38597208D01*
X97529242Y-38597208D01*
X97550207Y-38599273D01*
X97571172Y-38597208D01*
X109589746Y-38597208D01*
X109610713Y-38599273D01*
X109631680Y-38597208D01*
X109631691Y-38597208D01*
X109665751Y-38593854D01*
X109677417Y-38652502D01*
X109732220Y-38784808D01*
X109811781Y-38903880D01*
X109913043Y-39005142D01*
X110032115Y-39084703D01*
X110164421Y-39139506D01*
X110304876Y-39167444D01*
X110402352Y-39167444D01*
X110402352Y-39170231D01*
X110430290Y-39310686D01*
X110485093Y-39442992D01*
X110535795Y-39518873D01*
X110527623Y-39524333D01*
X110426361Y-39625595D01*
X110346800Y-39744667D01*
X110321553Y-39805618D01*
X109888834Y-39372900D01*
X109875461Y-39356605D01*
X109810442Y-39303245D01*
X109736262Y-39263595D01*
X109655773Y-39239178D01*
X109593044Y-39233000D01*
X109593033Y-39233000D01*
X109572066Y-39230935D01*
X109551099Y-39233000D01*
X97600432Y-39233000D01*
X97592667Y-39207403D01*
X97483374Y-39002930D01*
X97336291Y-38823709D01*
X97157070Y-38676626D01*
X96952597Y-38567333D01*
X96730732Y-38500031D01*
X96557812Y-38483000D01*
X96442188Y-38483000D01*
X96269268Y-38500031D01*
X96047403Y-38567333D01*
X95842930Y-38676626D01*
X95663709Y-38823709D01*
X95516626Y-39002930D01*
X95407333Y-39207403D01*
X95340031Y-39429268D01*
X95317306Y-39660000D01*
X95340031Y-39890732D01*
X95407333Y-40112597D01*
X95516626Y-40317070D01*
X95663709Y-40496291D01*
X95842930Y-40643374D01*
X96047403Y-40752667D01*
X96269268Y-40819969D01*
X96442188Y-40837000D01*
X96557812Y-40837000D01*
X96730732Y-40819969D01*
X96952597Y-40752667D01*
X97157070Y-40643374D01*
X97336291Y-40496291D01*
X97483374Y-40317070D01*
X97592667Y-40112597D01*
X97600432Y-40087000D01*
X109395198Y-40087000D01*
X110159784Y-40851587D01*
X97442380Y-40851587D01*
X97421413Y-40849522D01*
X97400446Y-40851587D01*
X97400435Y-40851587D01*
X97337706Y-40857765D01*
X97257217Y-40882182D01*
X97239951Y-40891411D01*
X97183036Y-40921831D01*
X97134312Y-40961819D01*
X97134308Y-40961823D01*
X97118018Y-40975192D01*
X97104649Y-40991482D01*
X96976188Y-41119943D01*
X96952597Y-41107333D01*
X96730732Y-41040031D01*
X96557812Y-41023000D01*
X96442188Y-41023000D01*
X96269268Y-41040031D01*
X96047403Y-41107333D01*
X95842930Y-41216626D01*
X95663709Y-41363709D01*
X95516626Y-41542930D01*
X95407333Y-41747403D01*
X95340031Y-41969268D01*
X95317306Y-42200000D01*
X95340031Y-42430732D01*
X95407333Y-42652597D01*
X95516626Y-42857070D01*
X95663709Y-43036291D01*
X95842930Y-43183374D01*
X96047403Y-43292667D01*
X96269268Y-43359969D01*
X96442188Y-43377000D01*
X96557812Y-43377000D01*
X96730732Y-43359969D01*
X96952597Y-43292667D01*
X97157070Y-43183374D01*
X97336291Y-43036291D01*
X97483374Y-42857070D01*
X97592667Y-42652597D01*
X97659969Y-42430732D01*
X97682694Y-42200000D01*
X97659969Y-41969268D01*
X97592667Y-41747403D01*
X97580057Y-41723812D01*
X97598282Y-41705587D01*
X108335051Y-41705587D01*
X108300938Y-41787942D01*
X108273000Y-41928397D01*
X108273000Y-42071603D01*
X108300938Y-42212058D01*
X108355741Y-42344364D01*
X108435302Y-42463436D01*
X108536564Y-42564698D01*
X108655636Y-42644259D01*
X108787942Y-42699062D01*
X108792658Y-42700000D01*
X108787942Y-42700938D01*
X108655636Y-42755741D01*
X108536564Y-42835302D01*
X108435302Y-42936564D01*
X108355741Y-43055636D01*
X108300938Y-43187942D01*
X108273000Y-43328397D01*
X108273000Y-43471603D01*
X108300938Y-43612058D01*
X108355741Y-43744364D01*
X108435302Y-43863436D01*
X108536564Y-43964698D01*
X108655636Y-44044259D01*
X108706527Y-44065339D01*
X108635302Y-44136564D01*
X108555741Y-44255636D01*
X108500938Y-44387942D01*
X108473000Y-44528397D01*
X108473000Y-44671603D01*
X108500938Y-44812058D01*
X108555741Y-44944364D01*
X108635302Y-45063436D01*
X108736564Y-45164698D01*
X108789397Y-45200000D01*
X108736564Y-45235302D01*
X108635302Y-45336564D01*
X108555741Y-45455636D01*
X108500938Y-45587942D01*
X108473000Y-45728397D01*
X108473000Y-45871603D01*
X108500938Y-46012058D01*
X108555741Y-46144364D01*
X108635302Y-46263436D01*
X108736564Y-46364698D01*
X108855636Y-46444259D01*
X108987942Y-46499062D01*
X109128397Y-46527000D01*
X109271603Y-46527000D01*
X109314583Y-46518451D01*
X110683236Y-47887105D01*
X110696605Y-47903395D01*
X110712895Y-47916764D01*
X110712898Y-47916767D01*
X110761623Y-47956755D01*
X110788138Y-47970927D01*
X110792016Y-47973000D01*
X109576870Y-47973000D01*
X108306874Y-46703006D01*
X108293501Y-46686711D01*
X108228482Y-46633351D01*
X108154302Y-46593701D01*
X108073813Y-46569284D01*
X108011084Y-46563106D01*
X108011073Y-46563106D01*
X107990106Y-46561041D01*
X107969139Y-46563106D01*
X105029732Y-46563106D01*
X105071641Y-46506920D01*
X105196825Y-46244099D01*
X105241476Y-46096890D01*
X105120155Y-45867000D01*
X103927000Y-45867000D01*
X103927000Y-45887000D01*
X103673000Y-45887000D01*
X103673000Y-45867000D01*
X103653000Y-45867000D01*
X103653000Y-45613000D01*
X103673000Y-45613000D01*
X103673000Y-43327000D01*
X103927000Y-43327000D01*
X103927000Y-45613000D01*
X105120155Y-45613000D01*
X105241476Y-45383110D01*
X105196825Y-45235901D01*
X105071641Y-44973080D01*
X104897588Y-44739731D01*
X104813534Y-44663966D01*
X104894180Y-44639502D01*
X105004494Y-44580537D01*
X105101185Y-44501185D01*
X105180537Y-44404494D01*
X105239502Y-44294180D01*
X105275812Y-44174482D01*
X105288072Y-44050000D01*
X105285000Y-43485750D01*
X105126250Y-43327000D01*
X103927000Y-43327000D01*
X103673000Y-43327000D01*
X103653000Y-43327000D01*
X103653000Y-43073000D01*
X103673000Y-43073000D01*
X103673000Y-41873750D01*
X103927000Y-41873750D01*
X103927000Y-43073000D01*
X105126250Y-43073000D01*
X105285000Y-42914250D01*
X105288072Y-42350000D01*
X105275812Y-42225518D01*
X105239502Y-42105820D01*
X105180537Y-41995506D01*
X105101185Y-41898815D01*
X105004494Y-41819463D01*
X104894180Y-41760498D01*
X104774482Y-41724188D01*
X104650000Y-41711928D01*
X104085750Y-41715000D01*
X103927000Y-41873750D01*
X103673000Y-41873750D01*
X103514250Y-41715000D01*
X102950000Y-41711928D01*
X102825518Y-41724188D01*
X102705820Y-41760498D01*
X102595506Y-41819463D01*
X102498815Y-41898815D01*
X102419463Y-41995506D01*
X102400267Y-42031418D01*
X100750000Y-42031418D01*
X100685897Y-42037732D01*
X100624257Y-42056430D01*
X100567450Y-42086794D01*
X100517657Y-42127657D01*
X100476794Y-42177450D01*
X100446430Y-42234257D01*
X100427732Y-42295897D01*
X100421418Y-42360000D01*
X100421418Y-44060000D01*
X100427732Y-44124103D01*
X100446430Y-44185743D01*
X100476794Y-44242550D01*
X100517657Y-44292343D01*
X100567450Y-44333206D01*
X100624257Y-44363570D01*
X100685897Y-44382268D01*
X100750000Y-44388582D01*
X102410958Y-44388582D01*
X102419463Y-44404494D01*
X102498815Y-44501185D01*
X102595506Y-44580537D01*
X102705820Y-44639502D01*
X102786466Y-44663966D01*
X102702412Y-44739731D01*
X102528359Y-44973080D01*
X102512441Y-45006499D01*
X102436291Y-44913709D01*
X102257070Y-44766626D01*
X102052597Y-44657333D01*
X101830732Y-44590031D01*
X101657812Y-44573000D01*
X101542188Y-44573000D01*
X101369268Y-44590031D01*
X101147403Y-44657333D01*
X100942930Y-44766626D01*
X100763709Y-44913709D01*
X100616626Y-45092930D01*
X100507333Y-45297403D01*
X100440031Y-45519268D01*
X100417306Y-45750000D01*
X100440031Y-45980732D01*
X100507333Y-46202597D01*
X100616626Y-46407070D01*
X100744682Y-46563106D01*
X97434278Y-46563106D01*
X97336291Y-46443709D01*
X97157070Y-46296626D01*
X96952597Y-46187333D01*
X96730732Y-46120031D01*
X96557812Y-46103000D01*
X96442188Y-46103000D01*
X96269268Y-46120031D01*
X96047403Y-46187333D01*
X95842930Y-46296626D01*
X95663709Y-46443709D01*
X95516626Y-46622930D01*
X95407333Y-46827403D01*
X95340031Y-47049268D01*
X95317306Y-47280000D01*
X95340031Y-47510732D01*
X95407333Y-47732597D01*
X95516626Y-47937070D01*
X95663709Y-48116291D01*
X95842930Y-48263374D01*
X96047403Y-48372667D01*
X96269268Y-48439969D01*
X96442188Y-48457000D01*
X96557812Y-48457000D01*
X96730732Y-48439969D01*
X96952597Y-48372667D01*
X97157070Y-48263374D01*
X97240971Y-48194518D01*
X97255731Y-48230152D01*
X97335292Y-48349224D01*
X97436554Y-48450486D01*
X97555626Y-48530047D01*
X97687932Y-48584850D01*
X97828387Y-48612788D01*
X97971593Y-48612788D01*
X98014572Y-48604239D01*
X99587442Y-50177110D01*
X99600806Y-50193394D01*
X99617090Y-50206758D01*
X99617099Y-50206767D01*
X99665824Y-50246754D01*
X99697115Y-50263479D01*
X99740005Y-50286404D01*
X99820494Y-50310821D01*
X99883223Y-50316999D01*
X99883235Y-50316999D01*
X99904200Y-50319064D01*
X99925165Y-50316999D01*
X100070734Y-50316999D01*
X100016626Y-50382930D01*
X99907333Y-50587403D01*
X99840031Y-50809268D01*
X99817306Y-51040000D01*
X99840031Y-51270732D01*
X99907333Y-51492597D01*
X100016626Y-51697070D01*
X100163709Y-51876291D01*
X100232809Y-51933000D01*
X97600432Y-51933000D01*
X97592667Y-51907403D01*
X97483374Y-51702930D01*
X97336291Y-51523709D01*
X97157070Y-51376626D01*
X96952597Y-51267333D01*
X96730732Y-51200031D01*
X96557812Y-51183000D01*
X96442188Y-51183000D01*
X96269268Y-51200031D01*
X96047403Y-51267333D01*
X95842930Y-51376626D01*
X95663709Y-51523709D01*
X95516626Y-51702930D01*
X95407333Y-51907403D01*
X95340031Y-52129268D01*
X95317306Y-52360000D01*
X95340031Y-52590732D01*
X95407333Y-52812597D01*
X95516626Y-53017070D01*
X95663709Y-53196291D01*
X95842930Y-53343374D01*
X96047403Y-53452667D01*
X96269268Y-53519969D01*
X96442188Y-53537000D01*
X96557812Y-53537000D01*
X96730732Y-53519969D01*
X96952597Y-53452667D01*
X97157070Y-53343374D01*
X97336291Y-53196291D01*
X97483374Y-53017070D01*
X97592667Y-52812597D01*
X97600432Y-52787000D01*
X100128181Y-52787000D01*
X100016626Y-52922930D01*
X99907333Y-53127403D01*
X99840031Y-53349268D01*
X99817306Y-53580000D01*
X99840031Y-53810732D01*
X99907333Y-54032597D01*
X100016626Y-54237070D01*
X100163709Y-54416291D01*
X100232809Y-54473000D01*
X97600432Y-54473000D01*
X97592667Y-54447403D01*
X97483374Y-54242930D01*
X97336291Y-54063709D01*
X97157070Y-53916626D01*
X96952597Y-53807333D01*
X96730732Y-53740031D01*
X96557812Y-53723000D01*
X96442188Y-53723000D01*
X96269268Y-53740031D01*
X96047403Y-53807333D01*
X95842930Y-53916626D01*
X95663709Y-54063709D01*
X95516626Y-54242930D01*
X95407333Y-54447403D01*
X95340031Y-54669268D01*
X95317306Y-54900000D01*
X95340031Y-55130732D01*
X95407333Y-55352597D01*
X95516626Y-55557070D01*
X95663709Y-55736291D01*
X95842930Y-55883374D01*
X96047403Y-55992667D01*
X96269268Y-56059969D01*
X96442188Y-56077000D01*
X96557812Y-56077000D01*
X96730732Y-56059969D01*
X96952597Y-55992667D01*
X96976188Y-55980057D01*
X97062898Y-56066767D01*
X97062903Y-56066771D01*
X97623013Y-56626882D01*
X97623013Y-57087440D01*
X97592667Y-56987403D01*
X97483374Y-56782930D01*
X97336291Y-56603709D01*
X97157070Y-56456626D01*
X96952597Y-56347333D01*
X96730732Y-56280031D01*
X96557812Y-56263000D01*
X96442188Y-56263000D01*
X96269268Y-56280031D01*
X96047403Y-56347333D01*
X95842930Y-56456626D01*
X95663709Y-56603709D01*
X95516626Y-56782930D01*
X95407333Y-56987403D01*
X95340031Y-57209268D01*
X95317306Y-57440000D01*
X95340031Y-57670732D01*
X95407333Y-57892597D01*
X95516626Y-58097070D01*
X95663709Y-58276291D01*
X95842930Y-58423374D01*
X96047403Y-58532667D01*
X96269268Y-58599969D01*
X96442188Y-58617000D01*
X96557812Y-58617000D01*
X96730732Y-58599969D01*
X96952597Y-58532667D01*
X96976188Y-58520057D01*
X97062898Y-58606767D01*
X97062903Y-58606771D01*
X97223002Y-58766871D01*
X97223002Y-59050735D01*
X97157070Y-58996626D01*
X96952597Y-58887333D01*
X96730732Y-58820031D01*
X96557812Y-58803000D01*
X96442188Y-58803000D01*
X96269268Y-58820031D01*
X96047403Y-58887333D01*
X95842930Y-58996626D01*
X95663709Y-59143709D01*
X95516626Y-59322930D01*
X95407333Y-59527403D01*
X95340031Y-59749268D01*
X95317306Y-59980000D01*
X95340031Y-60210732D01*
X95407333Y-60432597D01*
X95516626Y-60637070D01*
X95663709Y-60816291D01*
X95842930Y-60963374D01*
X96047403Y-61072667D01*
X96269268Y-61139969D01*
X96442188Y-61157000D01*
X96557812Y-61157000D01*
X96730732Y-61139969D01*
X96952597Y-61072667D01*
X97157070Y-60963374D01*
X97223002Y-60909265D01*
X97223001Y-67909034D01*
X97220936Y-67930001D01*
X97223001Y-67950968D01*
X97223001Y-67950978D01*
X97229179Y-68013707D01*
X97253596Y-68094196D01*
X97253597Y-68094197D01*
X97293246Y-68168377D01*
X97333233Y-68217101D01*
X97346606Y-68233396D01*
X97362901Y-68246769D01*
X100239943Y-71123812D01*
X100227333Y-71147403D01*
X100160031Y-71369268D01*
X100137306Y-71600000D01*
X100160031Y-71830732D01*
X100227333Y-72052597D01*
X100336626Y-72257070D01*
X100483709Y-72436291D01*
X100662930Y-72583374D01*
X100867403Y-72692667D01*
X101089268Y-72759969D01*
X101262188Y-72777000D01*
X101377812Y-72777000D01*
X101550732Y-72759969D01*
X101772597Y-72692667D01*
X101977070Y-72583374D01*
X102156291Y-72436291D01*
X102303374Y-72257070D01*
X102412667Y-72052597D01*
X102479969Y-71830732D01*
X102502694Y-71600000D01*
X102479969Y-71369268D01*
X102412667Y-71147403D01*
X102303374Y-70942930D01*
X102249266Y-70876999D01*
X102533131Y-70876999D01*
X102779943Y-71123811D01*
X102767333Y-71147403D01*
X102700031Y-71369268D01*
X102677306Y-71600000D01*
X102700031Y-71830732D01*
X102767333Y-72052597D01*
X102876626Y-72257070D01*
X103023709Y-72436291D01*
X103202930Y-72583374D01*
X103407403Y-72692667D01*
X103629268Y-72759969D01*
X103802188Y-72777000D01*
X103917812Y-72777000D01*
X104090732Y-72759969D01*
X104312597Y-72692667D01*
X104517070Y-72583374D01*
X104696291Y-72436291D01*
X104843374Y-72257070D01*
X104952667Y-72052597D01*
X105019969Y-71830732D01*
X105042694Y-71600000D01*
X105019969Y-71369268D01*
X104952667Y-71147403D01*
X104843374Y-70942930D01*
X104696291Y-70763709D01*
X104517070Y-70616626D01*
X104312597Y-70507333D01*
X104090732Y-70440031D01*
X103917812Y-70423000D01*
X103802188Y-70423000D01*
X103629268Y-70440031D01*
X103407403Y-70507333D01*
X103383811Y-70519943D01*
X103112436Y-70248568D01*
X103181252Y-70224157D01*
X103431355Y-70075178D01*
X103647588Y-69880269D01*
X103821641Y-69646920D01*
X103946825Y-69384099D01*
X103991476Y-69236890D01*
X104158524Y-69236890D01*
X104203175Y-69384099D01*
X104328359Y-69646920D01*
X104502412Y-69880269D01*
X104718645Y-70075178D01*
X104968748Y-70224157D01*
X105243109Y-70321481D01*
X105473000Y-70200814D01*
X105473000Y-69007000D01*
X105727000Y-69007000D01*
X105727000Y-70200814D01*
X105956891Y-70321481D01*
X106231252Y-70224157D01*
X106481355Y-70075178D01*
X106697588Y-69880269D01*
X106871641Y-69646920D01*
X106996825Y-69384099D01*
X107041476Y-69236890D01*
X106920155Y-69007000D01*
X105727000Y-69007000D01*
X105473000Y-69007000D01*
X104279845Y-69007000D01*
X104158524Y-69236890D01*
X103991476Y-69236890D01*
X103870155Y-69007000D01*
X102677000Y-69007000D01*
X102677000Y-69027000D01*
X102423000Y-69027000D01*
X102423000Y-69007000D01*
X101229845Y-69007000D01*
X101108524Y-69236890D01*
X101153175Y-69384099D01*
X101278359Y-69646920D01*
X101452412Y-69880269D01*
X101610757Y-70022999D01*
X101426868Y-70022999D01*
X99926979Y-68523110D01*
X101108524Y-68523110D01*
X101229845Y-68753000D01*
X102423000Y-68753000D01*
X102423000Y-68733000D01*
X102677000Y-68733000D01*
X102677000Y-68753000D01*
X103870155Y-68753000D01*
X103991476Y-68523110D01*
X104158524Y-68523110D01*
X104279845Y-68753000D01*
X105473000Y-68753000D01*
X105473000Y-68733000D01*
X105727000Y-68733000D01*
X105727000Y-68753000D01*
X106920155Y-68753000D01*
X107041476Y-68523110D01*
X106996825Y-68375901D01*
X106871641Y-68113080D01*
X106697588Y-67879731D01*
X106481355Y-67684822D01*
X106231252Y-67535843D01*
X105992115Y-67451014D01*
X106052597Y-67432667D01*
X106257070Y-67323374D01*
X106436291Y-67176291D01*
X106583374Y-66997070D01*
X106692667Y-66792597D01*
X106759969Y-66570732D01*
X106782694Y-66340000D01*
X106759969Y-66109268D01*
X106692667Y-65887403D01*
X106583374Y-65682930D01*
X106436291Y-65503709D01*
X106257070Y-65356626D01*
X106052597Y-65247333D01*
X105830732Y-65180031D01*
X105657812Y-65163000D01*
X105542188Y-65163000D01*
X105369268Y-65180031D01*
X105147403Y-65247333D01*
X104942930Y-65356626D01*
X104763709Y-65503709D01*
X104616626Y-65682930D01*
X104507333Y-65887403D01*
X104440031Y-66109268D01*
X104417306Y-66340000D01*
X104440031Y-66570732D01*
X104507333Y-66792597D01*
X104616626Y-66997070D01*
X104763709Y-67176291D01*
X104942930Y-67323374D01*
X105147403Y-67432667D01*
X105207885Y-67451014D01*
X104968748Y-67535843D01*
X104718645Y-67684822D01*
X104502412Y-67879731D01*
X104328359Y-68113080D01*
X104203175Y-68375901D01*
X104158524Y-68523110D01*
X103991476Y-68523110D01*
X103946825Y-68375901D01*
X103821641Y-68113080D01*
X103647588Y-67879731D01*
X103431355Y-67684822D01*
X103181252Y-67535843D01*
X102942115Y-67451014D01*
X103002597Y-67432667D01*
X103207070Y-67323374D01*
X103386291Y-67176291D01*
X103533374Y-66997070D01*
X103642667Y-66792597D01*
X103709969Y-66570732D01*
X103732694Y-66340000D01*
X103709969Y-66109268D01*
X103642667Y-65887403D01*
X103533374Y-65682930D01*
X103386291Y-65503709D01*
X103207070Y-65356626D01*
X103002597Y-65247333D01*
X102780732Y-65180031D01*
X102607812Y-65163000D01*
X102492188Y-65163000D01*
X102319268Y-65180031D01*
X102097403Y-65247333D01*
X101892930Y-65356626D01*
X101713709Y-65503709D01*
X101566626Y-65682930D01*
X101457333Y-65887403D01*
X101390031Y-66109268D01*
X101367306Y-66340000D01*
X101390031Y-66570732D01*
X101457333Y-66792597D01*
X101566626Y-66997070D01*
X101713709Y-67176291D01*
X101892930Y-67323374D01*
X102097403Y-67432667D01*
X102157885Y-67451014D01*
X101918748Y-67535843D01*
X101668645Y-67684822D01*
X101452412Y-67879731D01*
X101278359Y-68113080D01*
X101153175Y-68375901D01*
X101108524Y-68523110D01*
X99926979Y-68523110D01*
X98477012Y-67073144D01*
X98477012Y-62050000D01*
X99511928Y-62050000D01*
X99524188Y-62174482D01*
X99560498Y-62294180D01*
X99619463Y-62404494D01*
X99698815Y-62501185D01*
X99795506Y-62580537D01*
X99905820Y-62639502D01*
X100025518Y-62675812D01*
X100150000Y-62688072D01*
X100714250Y-62685000D01*
X100873000Y-62526250D01*
X100873000Y-61327000D01*
X101127000Y-61327000D01*
X101127000Y-62526250D01*
X101285750Y-62685000D01*
X101505990Y-62686199D01*
X101467657Y-62717657D01*
X101426794Y-62767450D01*
X101396430Y-62824257D01*
X101377732Y-62885897D01*
X101371418Y-62950000D01*
X101371418Y-64650000D01*
X101377732Y-64714103D01*
X101396430Y-64775743D01*
X101426794Y-64832550D01*
X101467657Y-64882343D01*
X101517450Y-64923206D01*
X101574257Y-64953570D01*
X101635897Y-64972268D01*
X101700000Y-64978582D01*
X103400000Y-64978582D01*
X103464103Y-64972268D01*
X103525743Y-64953570D01*
X103582550Y-64923206D01*
X103632343Y-64882343D01*
X103673206Y-64832550D01*
X103703570Y-64775743D01*
X103722268Y-64714103D01*
X103728582Y-64650000D01*
X103728582Y-62950000D01*
X104421418Y-62950000D01*
X104421418Y-64650000D01*
X104427732Y-64714103D01*
X104446430Y-64775743D01*
X104476794Y-64832550D01*
X104517657Y-64882343D01*
X104567450Y-64923206D01*
X104624257Y-64953570D01*
X104685897Y-64972268D01*
X104750000Y-64978582D01*
X106450000Y-64978582D01*
X106514103Y-64972268D01*
X106575743Y-64953570D01*
X106632550Y-64923206D01*
X106682343Y-64882343D01*
X106723206Y-64832550D01*
X106753570Y-64775743D01*
X106772268Y-64714103D01*
X106778582Y-64650000D01*
X106778582Y-62950000D01*
X106772268Y-62885897D01*
X106753570Y-62824257D01*
X106723206Y-62767450D01*
X106682343Y-62717657D01*
X106632550Y-62676794D01*
X106575743Y-62646430D01*
X106514103Y-62627732D01*
X106450000Y-62621418D01*
X104750000Y-62621418D01*
X104685897Y-62627732D01*
X104624257Y-62646430D01*
X104567450Y-62676794D01*
X104517657Y-62717657D01*
X104476794Y-62767450D01*
X104446430Y-62824257D01*
X104427732Y-62885897D01*
X104421418Y-62950000D01*
X103728582Y-62950000D01*
X103722268Y-62885897D01*
X103703570Y-62824257D01*
X103673206Y-62767450D01*
X103632343Y-62717657D01*
X103582550Y-62676794D01*
X103525743Y-62646430D01*
X103464103Y-62627732D01*
X103400000Y-62621418D01*
X102128012Y-62621418D01*
X102204494Y-62580537D01*
X102301185Y-62501185D01*
X102380537Y-62404494D01*
X102439502Y-62294180D01*
X102475812Y-62174482D01*
X102488072Y-62050000D01*
X102485000Y-61485750D01*
X102326250Y-61327000D01*
X101127000Y-61327000D01*
X100873000Y-61327000D01*
X99673750Y-61327000D01*
X99515000Y-61485750D01*
X99511928Y-62050000D01*
X98477012Y-62050000D01*
X98477012Y-60453113D01*
X98587942Y-60499062D01*
X98728397Y-60527000D01*
X98871603Y-60527000D01*
X99012058Y-60499062D01*
X99144364Y-60444259D01*
X99263436Y-60364698D01*
X99364698Y-60263436D01*
X99381354Y-60238508D01*
X99396653Y-60237001D01*
X99523057Y-60237001D01*
X99511928Y-60350000D01*
X99515000Y-60914250D01*
X99673750Y-61073000D01*
X100873000Y-61073000D01*
X100873000Y-61053000D01*
X101127000Y-61053000D01*
X101127000Y-61073000D01*
X102326250Y-61073000D01*
X102485000Y-60914250D01*
X102488072Y-60350000D01*
X102475812Y-60225518D01*
X102439502Y-60105820D01*
X102380537Y-59995506D01*
X102301185Y-59898815D01*
X102204494Y-59819463D01*
X102166641Y-59799230D01*
X103967105Y-57998766D01*
X103983394Y-57985398D01*
X103996763Y-57969108D01*
X103996767Y-57969104D01*
X104036755Y-57920380D01*
X104076404Y-57846200D01*
X104082087Y-57827466D01*
X104100821Y-57765710D01*
X104106999Y-57702981D01*
X104106999Y-57702970D01*
X104109064Y-57682003D01*
X104106999Y-57661036D01*
X104106999Y-56119036D01*
X105423001Y-54803035D01*
X105423000Y-55821418D01*
X105150000Y-55821418D01*
X105085897Y-55827732D01*
X105024257Y-55846430D01*
X104967450Y-55876794D01*
X104917657Y-55917657D01*
X104876794Y-55967450D01*
X104846430Y-56024257D01*
X104827732Y-56085897D01*
X104821418Y-56150000D01*
X104821418Y-57850000D01*
X104827732Y-57914103D01*
X104846430Y-57975743D01*
X104876794Y-58032550D01*
X104917657Y-58082343D01*
X104967450Y-58123206D01*
X105024257Y-58153570D01*
X105085897Y-58172268D01*
X105150000Y-58178582D01*
X106850000Y-58178582D01*
X106914103Y-58172268D01*
X106975743Y-58153570D01*
X107032550Y-58123206D01*
X107082343Y-58082343D01*
X107123206Y-58032550D01*
X107153570Y-57975743D01*
X107172268Y-57914103D01*
X107178582Y-57850000D01*
X107178582Y-57582592D01*
X107195843Y-57631252D01*
X107344822Y-57881355D01*
X107539731Y-58097588D01*
X107673955Y-58197705D01*
X107672637Y-58199298D01*
X107549287Y-58350540D01*
X107541643Y-58362046D01*
X107533881Y-58373382D01*
X107532871Y-58375248D01*
X107441246Y-58547570D01*
X107435988Y-58560328D01*
X107430569Y-58572970D01*
X107429941Y-58574997D01*
X107373532Y-58761833D01*
X107370852Y-58775368D01*
X107367992Y-58788823D01*
X107367770Y-58790934D01*
X107348725Y-58985167D01*
X107348725Y-58985188D01*
X107348001Y-58992538D01*
X107348000Y-70438014D01*
X107314103Y-70427732D01*
X107250000Y-70421418D01*
X105550000Y-70421418D01*
X105485897Y-70427732D01*
X105424257Y-70446430D01*
X105367450Y-70476794D01*
X105317657Y-70517657D01*
X105276794Y-70567450D01*
X105246430Y-70624257D01*
X105227732Y-70685897D01*
X105221418Y-70750000D01*
X105221418Y-72450000D01*
X105227732Y-72514103D01*
X105246430Y-72575743D01*
X105276794Y-72632550D01*
X105317657Y-72682343D01*
X105367450Y-72723206D01*
X105424257Y-72753570D01*
X105485897Y-72772268D01*
X105550000Y-72778582D01*
X106832928Y-72778582D01*
X106828328Y-72781069D01*
X106670369Y-72829966D01*
X106498789Y-72848000D01*
X97038615Y-72848000D01*
X97240269Y-72697588D01*
X97435178Y-72481355D01*
X97584157Y-72231252D01*
X97668986Y-71992115D01*
X97687333Y-72052597D01*
X97796626Y-72257070D01*
X97943709Y-72436291D01*
X98122930Y-72583374D01*
X98327403Y-72692667D01*
X98549268Y-72759969D01*
X98722188Y-72777000D01*
X98837812Y-72777000D01*
X99010732Y-72759969D01*
X99232597Y-72692667D01*
X99437070Y-72583374D01*
X99616291Y-72436291D01*
X99763374Y-72257070D01*
X99872667Y-72052597D01*
X99939969Y-71830732D01*
X99962694Y-71600000D01*
X99939969Y-71369268D01*
X99872667Y-71147403D01*
X99763374Y-70942930D01*
X99616291Y-70763709D01*
X99437070Y-70616626D01*
X99232597Y-70507333D01*
X99010732Y-70440031D01*
X98837812Y-70423000D01*
X98722188Y-70423000D01*
X98549268Y-70440031D01*
X98327403Y-70507333D01*
X98122930Y-70616626D01*
X97943709Y-70763709D01*
X97796626Y-70942930D01*
X97687333Y-71147403D01*
X97668986Y-71207885D01*
X97584157Y-70968748D01*
X97435178Y-70718645D01*
X97240269Y-70502412D01*
X97006920Y-70328359D01*
X96744099Y-70203175D01*
X96596890Y-70158524D01*
X96367000Y-70279845D01*
X96367000Y-71473000D01*
X96387000Y-71473000D01*
X96387000Y-71727000D01*
X96367000Y-71727000D01*
X96367000Y-71747000D01*
X96113000Y-71747000D01*
X96113000Y-71727000D01*
X95152000Y-71727000D01*
X95152000Y-71473000D01*
X96113000Y-71473000D01*
X96113000Y-70279845D01*
X95883110Y-70158524D01*
X95735901Y-70203175D01*
X95473080Y-70328359D01*
X95239731Y-70502412D01*
X95152000Y-70599741D01*
X95152000Y-49820000D01*
X95317306Y-49820000D01*
X95340031Y-50050732D01*
X95407333Y-50272597D01*
X95516626Y-50477070D01*
X95663709Y-50656291D01*
X95842930Y-50803374D01*
X96047403Y-50912667D01*
X96269268Y-50979969D01*
X96442188Y-50997000D01*
X96557812Y-50997000D01*
X96730732Y-50979969D01*
X96952597Y-50912667D01*
X97157070Y-50803374D01*
X97336291Y-50656291D01*
X97483374Y-50477070D01*
X97592667Y-50272597D01*
X97659969Y-50050732D01*
X97682694Y-49820000D01*
X97659969Y-49589268D01*
X97592667Y-49367403D01*
X97483374Y-49162930D01*
X97336291Y-48983709D01*
X97157070Y-48836626D01*
X96952597Y-48727333D01*
X96730732Y-48660031D01*
X96557812Y-48643000D01*
X96442188Y-48643000D01*
X96269268Y-48660031D01*
X96047403Y-48727333D01*
X95842930Y-48836626D01*
X95663709Y-48983709D01*
X95516626Y-49162930D01*
X95407333Y-49367403D01*
X95340031Y-49589268D01*
X95317306Y-49820000D01*
X95152000Y-49820000D01*
X95152000Y-44740000D01*
X95317306Y-44740000D01*
X95340031Y-44970732D01*
X95407333Y-45192597D01*
X95516626Y-45397070D01*
X95663709Y-45576291D01*
X95842930Y-45723374D01*
X96047403Y-45832667D01*
X96269268Y-45899969D01*
X96442188Y-45917000D01*
X96557812Y-45917000D01*
X96730732Y-45899969D01*
X96952597Y-45832667D01*
X97157070Y-45723374D01*
X97336291Y-45576291D01*
X97483374Y-45397070D01*
X97592667Y-45192597D01*
X97659969Y-44970732D01*
X97682694Y-44740000D01*
X97659969Y-44509268D01*
X97592667Y-44287403D01*
X97483374Y-44082930D01*
X97336291Y-43903709D01*
X97157070Y-43756626D01*
X96952597Y-43647333D01*
X96730732Y-43580031D01*
X96557812Y-43563000D01*
X96442188Y-43563000D01*
X96269268Y-43580031D01*
X96047403Y-43647333D01*
X95842930Y-43756626D01*
X95663709Y-43903709D01*
X95516626Y-44082930D01*
X95407333Y-44287403D01*
X95340031Y-44509268D01*
X95317306Y-44740000D01*
X95152000Y-44740000D01*
X95152000Y-35186606D01*
X95228359Y-35346920D01*
G36*
X134346430Y-65685743D02*
G01*
X134376794Y-65742550D01*
X134417657Y-65792343D01*
X134467450Y-65833206D01*
X134524257Y-65863570D01*
X134585897Y-65882268D01*
X134650000Y-65888582D01*
X134917408Y-65888582D01*
X134868748Y-65905843D01*
X134618645Y-66054822D01*
X134402412Y-66249731D01*
X134228359Y-66483080D01*
X134103175Y-66745901D01*
X134058524Y-66893110D01*
X134179845Y-67123000D01*
X135373000Y-67123000D01*
X135373000Y-67103000D01*
X135627000Y-67103000D01*
X135627000Y-67123000D01*
X135647000Y-67123000D01*
X135647000Y-67377000D01*
X135627000Y-67377000D01*
X135627000Y-67397000D01*
X135373000Y-67397000D01*
X135373000Y-67377000D01*
X134179845Y-67377000D01*
X134058524Y-67606890D01*
X134103175Y-67754099D01*
X134228359Y-68016920D01*
X134402412Y-68250269D01*
X134618645Y-68445178D01*
X134868748Y-68594157D01*
X135107885Y-68678986D01*
X135047403Y-68697333D01*
X134842930Y-68806626D01*
X134663709Y-68953709D01*
X134516626Y-69132930D01*
X134407333Y-69337403D01*
X134340031Y-69559268D01*
X134317306Y-69790000D01*
X134340031Y-70020732D01*
X134407333Y-70242597D01*
X134516626Y-70447070D01*
X134663709Y-70626291D01*
X134842930Y-70773374D01*
X135047403Y-70882667D01*
X135269268Y-70949969D01*
X135442188Y-70967000D01*
X135557812Y-70967000D01*
X135730732Y-70949969D01*
X135952597Y-70882667D01*
X136157070Y-70773374D01*
X136336291Y-70626291D01*
X136483374Y-70447070D01*
X136592667Y-70242597D01*
X136659969Y-70020732D01*
X136682694Y-69790000D01*
X136659969Y-69559268D01*
X136592667Y-69337403D01*
X136483374Y-69132930D01*
X136336291Y-68953709D01*
X136157070Y-68806626D01*
X135952597Y-68697333D01*
X135892115Y-68678986D01*
X136131252Y-68594157D01*
X136381355Y-68445178D01*
X136597588Y-68250269D01*
X136771641Y-68016920D01*
X136848001Y-67856604D01*
X136848001Y-71992552D01*
X136831134Y-72164569D01*
X136783340Y-72322871D01*
X136705710Y-72468873D01*
X136601200Y-72597015D01*
X136473788Y-72702419D01*
X136328328Y-72781069D01*
X136170369Y-72829966D01*
X135998789Y-72848000D01*
X126450173Y-72848000D01*
X126586291Y-72736291D01*
X126733374Y-72557070D01*
X126776172Y-72477000D01*
X127231669Y-72477000D01*
X127260000Y-72479790D01*
X127288331Y-72477000D01*
X127288336Y-72477000D01*
X127318045Y-72474074D01*
X127373111Y-72468651D01*
X127420428Y-72454297D01*
X127481876Y-72435657D01*
X127582115Y-72382079D01*
X127669974Y-72309974D01*
X127688039Y-72287962D01*
X129067968Y-70908034D01*
X129089974Y-70889974D01*
X129162079Y-70802115D01*
X129215657Y-70701876D01*
X129248650Y-70593112D01*
X129257000Y-70508336D01*
X129257000Y-70508330D01*
X129259790Y-70480001D01*
X129257000Y-70451672D01*
X129257000Y-66559001D01*
X129559001Y-66257000D01*
X133451669Y-66257000D01*
X133480000Y-66259790D01*
X133508331Y-66257000D01*
X133508336Y-66257000D01*
X133538045Y-66254074D01*
X133593111Y-66248651D01*
X133637770Y-66235103D01*
X133701876Y-66215657D01*
X133802115Y-66162079D01*
X133889974Y-66089974D01*
X133908039Y-66067962D01*
X134333357Y-65642645D01*
X134346430Y-65685743D01*
X134346430Y-65685743D01*
G37*
X134346430Y-65685743D02*
X134376794Y-65742550D01*
X134417657Y-65792343D01*
X134467450Y-65833206D01*
X134524257Y-65863570D01*
X134585897Y-65882268D01*
X134650000Y-65888582D01*
X134917408Y-65888582D01*
X134868748Y-65905843D01*
X134618645Y-66054822D01*
X134402412Y-66249731D01*
X134228359Y-66483080D01*
X134103175Y-66745901D01*
X134058524Y-66893110D01*
X134179845Y-67123000D01*
X135373000Y-67123000D01*
X135373000Y-67103000D01*
X135627000Y-67103000D01*
X135627000Y-67123000D01*
X135647000Y-67123000D01*
X135647000Y-67377000D01*
X135627000Y-67377000D01*
X135627000Y-67397000D01*
X135373000Y-67397000D01*
X135373000Y-67377000D01*
X134179845Y-67377000D01*
X134058524Y-67606890D01*
X134103175Y-67754099D01*
X134228359Y-68016920D01*
X134402412Y-68250269D01*
X134618645Y-68445178D01*
X134868748Y-68594157D01*
X135107885Y-68678986D01*
X135047403Y-68697333D01*
X134842930Y-68806626D01*
X134663709Y-68953709D01*
X134516626Y-69132930D01*
X134407333Y-69337403D01*
X134340031Y-69559268D01*
X134317306Y-69790000D01*
X134340031Y-70020732D01*
X134407333Y-70242597D01*
X134516626Y-70447070D01*
X134663709Y-70626291D01*
X134842930Y-70773374D01*
X135047403Y-70882667D01*
X135269268Y-70949969D01*
X135442188Y-70967000D01*
X135557812Y-70967000D01*
X135730732Y-70949969D01*
X135952597Y-70882667D01*
X136157070Y-70773374D01*
X136336291Y-70626291D01*
X136483374Y-70447070D01*
X136592667Y-70242597D01*
X136659969Y-70020732D01*
X136682694Y-69790000D01*
X136659969Y-69559268D01*
X136592667Y-69337403D01*
X136483374Y-69132930D01*
X136336291Y-68953709D01*
X136157070Y-68806626D01*
X135952597Y-68697333D01*
X135892115Y-68678986D01*
X136131252Y-68594157D01*
X136381355Y-68445178D01*
X136597588Y-68250269D01*
X136771641Y-68016920D01*
X136848001Y-67856604D01*
X136848001Y-71992552D01*
X136831134Y-72164569D01*
X136783340Y-72322871D01*
X136705710Y-72468873D01*
X136601200Y-72597015D01*
X136473788Y-72702419D01*
X136328328Y-72781069D01*
X136170369Y-72829966D01*
X135998789Y-72848000D01*
X126450173Y-72848000D01*
X126586291Y-72736291D01*
X126733374Y-72557070D01*
X126776172Y-72477000D01*
X127231669Y-72477000D01*
X127260000Y-72479790D01*
X127288331Y-72477000D01*
X127288336Y-72477000D01*
X127318045Y-72474074D01*
X127373111Y-72468651D01*
X127420428Y-72454297D01*
X127481876Y-72435657D01*
X127582115Y-72382079D01*
X127669974Y-72309974D01*
X127688039Y-72287962D01*
X129067968Y-70908034D01*
X129089974Y-70889974D01*
X129162079Y-70802115D01*
X129215657Y-70701876D01*
X129248650Y-70593112D01*
X129257000Y-70508336D01*
X129257000Y-70508330D01*
X129259790Y-70480001D01*
X129257000Y-70451672D01*
X129257000Y-66559001D01*
X129559001Y-66257000D01*
X133451669Y-66257000D01*
X133480000Y-66259790D01*
X133508331Y-66257000D01*
X133508336Y-66257000D01*
X133538045Y-66254074D01*
X133593111Y-66248651D01*
X133637770Y-66235103D01*
X133701876Y-66215657D01*
X133802115Y-66162079D01*
X133889974Y-66089974D01*
X133908039Y-66067962D01*
X134333357Y-65642645D01*
X134346430Y-65685743D01*
G36*
X136164569Y-28168866D02*
G01*
X136322871Y-28216660D01*
X136468872Y-28294289D01*
X136597015Y-28398800D01*
X136702418Y-28526209D01*
X136781069Y-28671671D01*
X136829966Y-28829631D01*
X136848000Y-29001211D01*
X136848001Y-66643396D01*
X136771641Y-66483080D01*
X136597588Y-66249731D01*
X136381355Y-66054822D01*
X136131252Y-65905843D01*
X136082592Y-65888582D01*
X136350000Y-65888582D01*
X136414103Y-65882268D01*
X136475743Y-65863570D01*
X136532550Y-65833206D01*
X136582343Y-65792343D01*
X136623206Y-65742550D01*
X136653570Y-65685743D01*
X136672268Y-65624103D01*
X136678582Y-65560000D01*
X136678582Y-63860000D01*
X136672268Y-63795897D01*
X136653570Y-63734257D01*
X136623206Y-63677450D01*
X136582343Y-63627657D01*
X136532550Y-63586794D01*
X136475743Y-63556430D01*
X136414103Y-63537732D01*
X136350000Y-63531418D01*
X134650000Y-63531418D01*
X134585897Y-63537732D01*
X134524257Y-63556430D01*
X134467450Y-63586794D01*
X134417657Y-63627657D01*
X134376794Y-63677450D01*
X134346430Y-63734257D01*
X134327732Y-63795897D01*
X134321418Y-63860000D01*
X134321418Y-64146043D01*
X134228124Y-64174343D01*
X134127885Y-64227921D01*
X134081980Y-64265595D01*
X134062035Y-64281963D01*
X134062033Y-64281965D01*
X134040026Y-64300026D01*
X134021965Y-64322033D01*
X133240999Y-65103000D01*
X129723038Y-65103000D01*
X129787465Y-65038573D01*
X129803754Y-65025205D01*
X129817123Y-65008915D01*
X129817127Y-65008911D01*
X129857115Y-64960186D01*
X129896764Y-64886007D01*
X129915843Y-64823112D01*
X129921181Y-64805517D01*
X129927359Y-64742788D01*
X129927359Y-64742777D01*
X129929424Y-64721810D01*
X129927359Y-64700843D01*
X129927359Y-62635955D01*
X129988303Y-62661199D01*
X130128758Y-62689137D01*
X130271964Y-62689137D01*
X130314943Y-62680588D01*
X130521460Y-62887105D01*
X130534829Y-62903395D01*
X130551119Y-62916764D01*
X130551123Y-62916768D01*
X130599848Y-62956756D01*
X130674027Y-62996405D01*
X130692761Y-63002088D01*
X130754517Y-63020822D01*
X130817246Y-63027000D01*
X130817257Y-63027000D01*
X130838224Y-63029065D01*
X130859191Y-63027000D01*
X134810956Y-63027000D01*
X134835302Y-63063436D01*
X134936564Y-63164698D01*
X135055636Y-63244259D01*
X135187942Y-63299062D01*
X135328397Y-63327000D01*
X135471603Y-63327000D01*
X135612058Y-63299062D01*
X135744364Y-63244259D01*
X135863436Y-63164698D01*
X135964698Y-63063436D01*
X136044259Y-62944364D01*
X136099062Y-62812058D01*
X136127000Y-62671603D01*
X136127000Y-62528397D01*
X136099062Y-62387942D01*
X136044259Y-62255636D01*
X135977000Y-62154975D01*
X135977000Y-61828339D01*
X135979791Y-61800000D01*
X135968651Y-61686888D01*
X135935657Y-61578123D01*
X135915983Y-61541316D01*
X135882079Y-61477885D01*
X135809974Y-61390026D01*
X135787962Y-61371961D01*
X135571639Y-61155638D01*
X135730732Y-61139969D01*
X135952597Y-61072667D01*
X136157070Y-60963374D01*
X136336291Y-60816291D01*
X136483374Y-60637070D01*
X136592667Y-60432597D01*
X136659969Y-60210732D01*
X136682694Y-59980000D01*
X136659969Y-59749268D01*
X136592667Y-59527403D01*
X136483374Y-59322930D01*
X136336291Y-59143709D01*
X136157070Y-58996626D01*
X135952597Y-58887333D01*
X135730732Y-58820031D01*
X135557812Y-58803000D01*
X135442188Y-58803000D01*
X135269268Y-58820031D01*
X135047403Y-58887333D01*
X135023812Y-58899943D01*
X133627000Y-57503132D01*
X133627000Y-54920930D01*
X133629065Y-54899963D01*
X133627000Y-54878996D01*
X133627000Y-54878985D01*
X133621744Y-54825613D01*
X133923000Y-55126870D01*
X133922999Y-56269032D01*
X133920934Y-56289999D01*
X133922999Y-56310966D01*
X133922999Y-56310976D01*
X133929177Y-56373705D01*
X133953594Y-56454194D01*
X133957086Y-56460727D01*
X133993244Y-56528375D01*
X134033231Y-56577099D01*
X134046604Y-56593394D01*
X134062899Y-56606767D01*
X134419943Y-56963811D01*
X134407333Y-56987403D01*
X134340031Y-57209268D01*
X134317306Y-57440000D01*
X134340031Y-57670732D01*
X134407333Y-57892597D01*
X134516626Y-58097070D01*
X134663709Y-58276291D01*
X134842930Y-58423374D01*
X135047403Y-58532667D01*
X135269268Y-58599969D01*
X135442188Y-58617000D01*
X135557812Y-58617000D01*
X135730732Y-58599969D01*
X135952597Y-58532667D01*
X136157070Y-58423374D01*
X136336291Y-58276291D01*
X136483374Y-58097070D01*
X136592667Y-57892597D01*
X136659969Y-57670732D01*
X136682694Y-57440000D01*
X136659969Y-57209268D01*
X136592667Y-56987403D01*
X136483374Y-56782930D01*
X136336291Y-56603709D01*
X136157070Y-56456626D01*
X135952597Y-56347333D01*
X135730732Y-56280031D01*
X135557812Y-56263000D01*
X135442188Y-56263000D01*
X135269268Y-56280031D01*
X135047403Y-56347333D01*
X135023811Y-56359943D01*
X134776999Y-56113131D01*
X134776999Y-55829266D01*
X134842930Y-55883374D01*
X135047403Y-55992667D01*
X135269268Y-56059969D01*
X135442188Y-56077000D01*
X135557812Y-56077000D01*
X135730732Y-56059969D01*
X135952597Y-55992667D01*
X136157070Y-55883374D01*
X136336291Y-55736291D01*
X136483374Y-55557070D01*
X136592667Y-55352597D01*
X136659969Y-55130732D01*
X136682694Y-54900000D01*
X136659969Y-54669268D01*
X136592667Y-54447403D01*
X136483374Y-54242930D01*
X136336291Y-54063709D01*
X136157070Y-53916626D01*
X135952597Y-53807333D01*
X135730732Y-53740031D01*
X135557812Y-53723000D01*
X135442188Y-53723000D01*
X135269268Y-53740031D01*
X135047403Y-53807333D01*
X135023811Y-53819943D01*
X134966773Y-53762905D01*
X134966769Y-53762900D01*
X134224745Y-53020877D01*
X134224745Y-51548677D01*
X134229180Y-51593708D01*
X134239920Y-51629111D01*
X134253597Y-51674197D01*
X134293246Y-51748377D01*
X134333233Y-51797101D01*
X134333238Y-51797106D01*
X134346607Y-51813396D01*
X134362896Y-51826764D01*
X134419943Y-51883811D01*
X134407333Y-51907403D01*
X134340031Y-52129268D01*
X134317306Y-52360000D01*
X134340031Y-52590732D01*
X134407333Y-52812597D01*
X134516626Y-53017070D01*
X134663709Y-53196291D01*
X134842930Y-53343374D01*
X135047403Y-53452667D01*
X135269268Y-53519969D01*
X135442188Y-53537000D01*
X135557812Y-53537000D01*
X135730732Y-53519969D01*
X135952597Y-53452667D01*
X136157070Y-53343374D01*
X136336291Y-53196291D01*
X136483374Y-53017070D01*
X136592667Y-52812597D01*
X136659969Y-52590732D01*
X136682694Y-52360000D01*
X136659969Y-52129268D01*
X136592667Y-51907403D01*
X136483374Y-51702930D01*
X136336291Y-51523709D01*
X136157070Y-51376626D01*
X135952597Y-51267333D01*
X135730732Y-51200031D01*
X135557812Y-51183000D01*
X135442188Y-51183000D01*
X135269268Y-51200031D01*
X135077001Y-51258355D01*
X135077001Y-50921645D01*
X135269268Y-50979969D01*
X135442188Y-50997000D01*
X135557812Y-50997000D01*
X135730732Y-50979969D01*
X135952597Y-50912667D01*
X136157070Y-50803374D01*
X136336291Y-50656291D01*
X136483374Y-50477070D01*
X136592667Y-50272597D01*
X136659969Y-50050732D01*
X136682694Y-49820000D01*
X136659969Y-49589268D01*
X136592667Y-49367403D01*
X136483374Y-49162930D01*
X136336291Y-48983709D01*
X136157070Y-48836626D01*
X135952597Y-48727333D01*
X135730732Y-48660031D01*
X135557812Y-48643000D01*
X135442188Y-48643000D01*
X135269268Y-48660031D01*
X135047403Y-48727333D01*
X134842930Y-48836626D01*
X134663709Y-48983709D01*
X134516626Y-49162930D01*
X134407333Y-49367403D01*
X134340031Y-49589268D01*
X134323785Y-49754216D01*
X132682446Y-48112878D01*
X132669073Y-48096583D01*
X132604054Y-48043223D01*
X132529874Y-48003573D01*
X132449385Y-47979156D01*
X132386656Y-47972978D01*
X132386645Y-47972978D01*
X132365678Y-47970913D01*
X132344711Y-47972978D01*
X131706860Y-47972978D01*
X131796825Y-47784099D01*
X131841476Y-47636890D01*
X131720155Y-47407000D01*
X130527000Y-47407000D01*
X130527000Y-47427000D01*
X130273000Y-47427000D01*
X130273000Y-47407000D01*
X130253000Y-47407000D01*
X130253000Y-47280000D01*
X134317306Y-47280000D01*
X134340031Y-47510732D01*
X134407333Y-47732597D01*
X134516626Y-47937070D01*
X134663709Y-48116291D01*
X134842930Y-48263374D01*
X135047403Y-48372667D01*
X135269268Y-48439969D01*
X135442188Y-48457000D01*
X135557812Y-48457000D01*
X135730732Y-48439969D01*
X135952597Y-48372667D01*
X136157070Y-48263374D01*
X136336291Y-48116291D01*
X136483374Y-47937070D01*
X136592667Y-47732597D01*
X136659969Y-47510732D01*
X136682694Y-47280000D01*
X136659969Y-47049268D01*
X136592667Y-46827403D01*
X136483374Y-46622930D01*
X136336291Y-46443709D01*
X136157070Y-46296626D01*
X135952597Y-46187333D01*
X135730732Y-46120031D01*
X135557812Y-46103000D01*
X135442188Y-46103000D01*
X135269268Y-46120031D01*
X135047403Y-46187333D01*
X134842930Y-46296626D01*
X134663709Y-46443709D01*
X134516626Y-46622930D01*
X134407333Y-46827403D01*
X134340031Y-47049268D01*
X134317306Y-47280000D01*
X130253000Y-47280000D01*
X130253000Y-47153000D01*
X130273000Y-47153000D01*
X130273000Y-47133000D01*
X130527000Y-47133000D01*
X130527000Y-47153000D01*
X131720155Y-47153000D01*
X131841476Y-46923110D01*
X131796825Y-46775901D01*
X131753414Y-46684760D01*
X131787942Y-46699062D01*
X131928397Y-46727000D01*
X132071603Y-46727000D01*
X132212058Y-46699062D01*
X132344364Y-46644259D01*
X132463436Y-46564698D01*
X132564698Y-46463436D01*
X132644259Y-46344364D01*
X132699062Y-46212058D01*
X132727000Y-46071603D01*
X132727000Y-45928397D01*
X132699062Y-45787942D01*
X132644259Y-45655636D01*
X132564698Y-45536564D01*
X132463436Y-45435302D01*
X132344364Y-45355741D01*
X132212058Y-45300938D01*
X132071603Y-45273000D01*
X131928397Y-45273000D01*
X131787942Y-45300938D01*
X131765281Y-45310324D01*
X131796825Y-45244099D01*
X131841476Y-45096890D01*
X131720155Y-44867000D01*
X130527000Y-44867000D01*
X130527000Y-44887000D01*
X130273000Y-44887000D01*
X130273000Y-44867000D01*
X130253000Y-44867000D01*
X130253000Y-44613000D01*
X130273000Y-44613000D01*
X130273000Y-44593000D01*
X130527000Y-44593000D01*
X130527000Y-44613000D01*
X131720155Y-44613000D01*
X131841476Y-44383110D01*
X131796825Y-44235901D01*
X131671641Y-43973080D01*
X131637261Y-43926988D01*
X134083120Y-43926988D01*
X134419943Y-44263811D01*
X134407333Y-44287403D01*
X134340031Y-44509268D01*
X134317306Y-44740000D01*
X134340031Y-44970732D01*
X134407333Y-45192597D01*
X134516626Y-45397070D01*
X134663709Y-45576291D01*
X134842930Y-45723374D01*
X135047403Y-45832667D01*
X135269268Y-45899969D01*
X135442188Y-45917000D01*
X135557812Y-45917000D01*
X135730732Y-45899969D01*
X135952597Y-45832667D01*
X136157070Y-45723374D01*
X136336291Y-45576291D01*
X136483374Y-45397070D01*
X136592667Y-45192597D01*
X136659969Y-44970732D01*
X136682694Y-44740000D01*
X136659969Y-44509268D01*
X136592667Y-44287403D01*
X136483374Y-44082930D01*
X136336291Y-43903709D01*
X136157070Y-43756626D01*
X135952597Y-43647333D01*
X135730732Y-43580031D01*
X135557812Y-43563000D01*
X135442188Y-43563000D01*
X135269268Y-43580031D01*
X135047403Y-43647333D01*
X135023811Y-43659943D01*
X134576755Y-43212887D01*
X134563383Y-43196593D01*
X134498364Y-43143233D01*
X134424184Y-43103583D01*
X134343695Y-43079166D01*
X134280966Y-43072988D01*
X134280955Y-43072988D01*
X134259988Y-43070923D01*
X134239021Y-43072988D01*
X131885808Y-43072988D01*
X131888072Y-43050000D01*
X131885000Y-42485750D01*
X131726250Y-42327000D01*
X130527000Y-42327000D01*
X130527000Y-42347000D01*
X130273000Y-42347000D01*
X130273000Y-42327000D01*
X130253000Y-42327000D01*
X130253000Y-42073000D01*
X130273000Y-42073000D01*
X130273000Y-42053000D01*
X130527000Y-42053000D01*
X130527000Y-42073000D01*
X131726250Y-42073000D01*
X131885000Y-41914250D01*
X131885314Y-41856552D01*
X131987942Y-41899062D01*
X132128397Y-41927000D01*
X132271603Y-41927000D01*
X132412058Y-41899062D01*
X132544364Y-41844259D01*
X132663436Y-41764698D01*
X132764698Y-41663436D01*
X132844259Y-41544364D01*
X132899062Y-41412058D01*
X132927000Y-41271603D01*
X132927000Y-41128397D01*
X132899062Y-40987942D01*
X132844259Y-40855636D01*
X132825125Y-40827000D01*
X133523132Y-40827000D01*
X134419943Y-41723811D01*
X134407333Y-41747403D01*
X134340031Y-41969268D01*
X134317306Y-42200000D01*
X134340031Y-42430732D01*
X134407333Y-42652597D01*
X134516626Y-42857070D01*
X134663709Y-43036291D01*
X134842930Y-43183374D01*
X135047403Y-43292667D01*
X135269268Y-43359969D01*
X135442188Y-43377000D01*
X135557812Y-43377000D01*
X135730732Y-43359969D01*
X135952597Y-43292667D01*
X136157070Y-43183374D01*
X136336291Y-43036291D01*
X136483374Y-42857070D01*
X136592667Y-42652597D01*
X136659969Y-42430732D01*
X136682694Y-42200000D01*
X136659969Y-41969268D01*
X136592667Y-41747403D01*
X136483374Y-41542930D01*
X136336291Y-41363709D01*
X136157070Y-41216626D01*
X135952597Y-41107333D01*
X135730732Y-41040031D01*
X135557812Y-41023000D01*
X135442188Y-41023000D01*
X135269268Y-41040031D01*
X135047403Y-41107333D01*
X135023811Y-41119943D01*
X134057199Y-40153331D01*
X134210621Y-40153331D01*
X134231588Y-40155396D01*
X134252555Y-40153331D01*
X134252566Y-40153331D01*
X134315295Y-40147153D01*
X134395784Y-40122736D01*
X134408982Y-40115682D01*
X134516626Y-40317070D01*
X134663709Y-40496291D01*
X134842930Y-40643374D01*
X135047403Y-40752667D01*
X135269268Y-40819969D01*
X135442188Y-40837000D01*
X135557812Y-40837000D01*
X135730732Y-40819969D01*
X135952597Y-40752667D01*
X136157070Y-40643374D01*
X136336291Y-40496291D01*
X136483374Y-40317070D01*
X136592667Y-40112597D01*
X136659969Y-39890732D01*
X136682694Y-39660000D01*
X136659969Y-39429268D01*
X136592667Y-39207403D01*
X136483374Y-39002930D01*
X136336291Y-38823709D01*
X136157070Y-38676626D01*
X135952597Y-38567333D01*
X135730732Y-38500031D01*
X135557812Y-38483000D01*
X135442188Y-38483000D01*
X135269268Y-38500031D01*
X135047403Y-38567333D01*
X134842930Y-38676626D01*
X134663709Y-38823709D01*
X134516626Y-39002930D01*
X134407333Y-39207403D01*
X134399568Y-39233000D01*
X134318885Y-39233000D01*
X134297918Y-39230935D01*
X134276951Y-39233000D01*
X134276941Y-39233000D01*
X134214212Y-39239178D01*
X134133723Y-39263595D01*
X134072357Y-39296396D01*
X134066866Y-39299331D01*
X133373808Y-39299331D01*
X133399052Y-39238387D01*
X133426990Y-39097932D01*
X133426990Y-38954726D01*
X133399052Y-38814271D01*
X133362903Y-38727000D01*
X133471603Y-38727000D01*
X133612058Y-38699062D01*
X133744364Y-38644259D01*
X133863436Y-38564698D01*
X133964698Y-38463436D01*
X134044259Y-38344364D01*
X134099062Y-38212058D01*
X134127000Y-38071603D01*
X134127000Y-37928397D01*
X134099062Y-37787942D01*
X134044259Y-37655636D01*
X133971671Y-37547000D01*
X134399568Y-37547000D01*
X134407333Y-37572597D01*
X134516626Y-37777070D01*
X134663709Y-37956291D01*
X134842930Y-38103374D01*
X135047403Y-38212667D01*
X135269268Y-38279969D01*
X135442188Y-38297000D01*
X135557812Y-38297000D01*
X135730732Y-38279969D01*
X135952597Y-38212667D01*
X136157070Y-38103374D01*
X136336291Y-37956291D01*
X136483374Y-37777070D01*
X136592667Y-37572597D01*
X136659969Y-37350732D01*
X136682694Y-37120000D01*
X136659969Y-36889268D01*
X136592667Y-36667403D01*
X136483374Y-36462930D01*
X136336291Y-36283709D01*
X136157070Y-36136626D01*
X135952597Y-36027333D01*
X135730732Y-35960031D01*
X135557812Y-35943000D01*
X135442188Y-35943000D01*
X135269268Y-35960031D01*
X135047403Y-36027333D01*
X134842930Y-36136626D01*
X134663709Y-36283709D01*
X134516626Y-36462930D01*
X134407333Y-36667403D01*
X134399568Y-36693000D01*
X128262068Y-36693000D01*
X128251441Y-36691953D01*
X128286372Y-36657023D01*
X131349010Y-36657023D01*
X131369977Y-36659088D01*
X131390944Y-36657023D01*
X131390955Y-36657023D01*
X131453684Y-36650845D01*
X131534173Y-36626428D01*
X131608353Y-36586778D01*
X131673372Y-36533418D01*
X131686745Y-36517123D01*
X132485419Y-35718451D01*
X132528397Y-35727000D01*
X132671603Y-35727000D01*
X132812058Y-35699062D01*
X132944364Y-35644259D01*
X133063436Y-35564698D01*
X133164698Y-35463436D01*
X133244259Y-35344364D01*
X133299062Y-35212058D01*
X133327000Y-35071603D01*
X133327000Y-34928397D01*
X133299062Y-34787942D01*
X133244259Y-34655636D01*
X133164698Y-34536564D01*
X133063436Y-34435302D01*
X132944364Y-34355741D01*
X132812058Y-34300938D01*
X132671603Y-34273000D01*
X132528397Y-34273000D01*
X132387942Y-34300938D01*
X132255636Y-34355741D01*
X132136564Y-34435302D01*
X132035302Y-34536564D01*
X131955741Y-34655636D01*
X131900938Y-34787942D01*
X131873000Y-34928397D01*
X131873000Y-35071603D01*
X131881549Y-35114581D01*
X131193109Y-35803023D01*
X129566545Y-35803023D01*
X131212568Y-34157001D01*
X134398355Y-34157001D01*
X134340031Y-34349268D01*
X134317306Y-34580000D01*
X134340031Y-34810732D01*
X134407333Y-35032597D01*
X134516626Y-35237070D01*
X134663709Y-35416291D01*
X134842930Y-35563374D01*
X135047403Y-35672667D01*
X135269268Y-35739969D01*
X135442188Y-35757000D01*
X135557812Y-35757000D01*
X135730732Y-35739969D01*
X135952597Y-35672667D01*
X136157070Y-35563374D01*
X136336291Y-35416291D01*
X136483374Y-35237070D01*
X136592667Y-35032597D01*
X136659969Y-34810732D01*
X136682694Y-34580000D01*
X136659969Y-34349268D01*
X136592667Y-34127403D01*
X136483374Y-33922930D01*
X136336291Y-33743709D01*
X136157070Y-33596626D01*
X135952597Y-33487333D01*
X135730732Y-33420031D01*
X135557812Y-33403000D01*
X135442188Y-33403000D01*
X135269268Y-33420031D01*
X135047403Y-33487333D01*
X135023811Y-33499943D01*
X134966769Y-33442901D01*
X134953396Y-33426606D01*
X134888377Y-33373246D01*
X134814197Y-33333596D01*
X134733708Y-33309179D01*
X134670979Y-33303001D01*
X134670968Y-33303001D01*
X134650001Y-33300936D01*
X134629034Y-33303001D01*
X131500867Y-33303001D01*
X132485418Y-32318451D01*
X132528397Y-32327000D01*
X132671603Y-32327000D01*
X132812058Y-32299062D01*
X132944364Y-32244259D01*
X133063436Y-32164698D01*
X133164698Y-32063436D01*
X133180357Y-32040000D01*
X134317306Y-32040000D01*
X134340031Y-32270732D01*
X134407333Y-32492597D01*
X134516626Y-32697070D01*
X134663709Y-32876291D01*
X134842930Y-33023374D01*
X135047403Y-33132667D01*
X135269268Y-33199969D01*
X135442188Y-33217000D01*
X135557812Y-33217000D01*
X135730732Y-33199969D01*
X135952597Y-33132667D01*
X136157070Y-33023374D01*
X136336291Y-32876291D01*
X136483374Y-32697070D01*
X136592667Y-32492597D01*
X136659969Y-32270732D01*
X136682694Y-32040000D01*
X136659969Y-31809268D01*
X136592667Y-31587403D01*
X136483374Y-31382930D01*
X136336291Y-31203709D01*
X136157070Y-31056626D01*
X135952597Y-30947333D01*
X135730732Y-30880031D01*
X135557812Y-30863000D01*
X135442188Y-30863000D01*
X135269268Y-30880031D01*
X135047403Y-30947333D01*
X134842930Y-31056626D01*
X134663709Y-31203709D01*
X134516626Y-31382930D01*
X134407333Y-31587403D01*
X134340031Y-31809268D01*
X134317306Y-32040000D01*
X133180357Y-32040000D01*
X133244259Y-31944364D01*
X133299062Y-31812058D01*
X133327000Y-31671603D01*
X133327000Y-31528397D01*
X133299062Y-31387942D01*
X133244259Y-31255636D01*
X133164698Y-31136564D01*
X133063436Y-31035302D01*
X132944364Y-30955741D01*
X132812058Y-30900938D01*
X132671603Y-30873000D01*
X132528397Y-30873000D01*
X132387942Y-30900938D01*
X132255636Y-30955741D01*
X132136564Y-31035302D01*
X132035302Y-31136564D01*
X131955741Y-31255636D01*
X131900938Y-31387942D01*
X131873000Y-31528397D01*
X131873000Y-31671603D01*
X131881549Y-31714582D01*
X130327000Y-33269132D01*
X130327000Y-28650000D01*
X134321418Y-28650000D01*
X134321418Y-30350000D01*
X134327732Y-30414103D01*
X134346430Y-30475743D01*
X134376794Y-30532550D01*
X134417657Y-30582343D01*
X134467450Y-30623206D01*
X134524257Y-30653570D01*
X134585897Y-30672268D01*
X134650000Y-30678582D01*
X136350000Y-30678582D01*
X136414103Y-30672268D01*
X136475743Y-30653570D01*
X136532550Y-30623206D01*
X136582343Y-30582343D01*
X136623206Y-30532550D01*
X136653570Y-30475743D01*
X136672268Y-30414103D01*
X136678582Y-30350000D01*
X136678582Y-28650000D01*
X136672268Y-28585897D01*
X136653570Y-28524257D01*
X136623206Y-28467450D01*
X136582343Y-28417657D01*
X136532550Y-28376794D01*
X136475743Y-28346430D01*
X136414103Y-28327732D01*
X136350000Y-28321418D01*
X134650000Y-28321418D01*
X134585897Y-28327732D01*
X134524257Y-28346430D01*
X134467450Y-28376794D01*
X134417657Y-28417657D01*
X134376794Y-28467450D01*
X134346430Y-28524257D01*
X134327732Y-28585897D01*
X134321418Y-28650000D01*
X130327000Y-28650000D01*
X130327000Y-28152000D01*
X135992561Y-28152000D01*
X136164569Y-28168866D01*
X136164569Y-28168866D01*
G37*
X136164569Y-28168866D02*
X136322871Y-28216660D01*
X136468872Y-28294289D01*
X136597015Y-28398800D01*
X136702418Y-28526209D01*
X136781069Y-28671671D01*
X136829966Y-28829631D01*
X136848000Y-29001211D01*
X136848001Y-66643396D01*
X136771641Y-66483080D01*
X136597588Y-66249731D01*
X136381355Y-66054822D01*
X136131252Y-65905843D01*
X136082592Y-65888582D01*
X136350000Y-65888582D01*
X136414103Y-65882268D01*
X136475743Y-65863570D01*
X136532550Y-65833206D01*
X136582343Y-65792343D01*
X136623206Y-65742550D01*
X136653570Y-65685743D01*
X136672268Y-65624103D01*
X136678582Y-65560000D01*
X136678582Y-63860000D01*
X136672268Y-63795897D01*
X136653570Y-63734257D01*
X136623206Y-63677450D01*
X136582343Y-63627657D01*
X136532550Y-63586794D01*
X136475743Y-63556430D01*
X136414103Y-63537732D01*
X136350000Y-63531418D01*
X134650000Y-63531418D01*
X134585897Y-63537732D01*
X134524257Y-63556430D01*
X134467450Y-63586794D01*
X134417657Y-63627657D01*
X134376794Y-63677450D01*
X134346430Y-63734257D01*
X134327732Y-63795897D01*
X134321418Y-63860000D01*
X134321418Y-64146043D01*
X134228124Y-64174343D01*
X134127885Y-64227921D01*
X134081980Y-64265595D01*
X134062035Y-64281963D01*
X134062033Y-64281965D01*
X134040026Y-64300026D01*
X134021965Y-64322033D01*
X133240999Y-65103000D01*
X129723038Y-65103000D01*
X129787465Y-65038573D01*
X129803754Y-65025205D01*
X129817123Y-65008915D01*
X129817127Y-65008911D01*
X129857115Y-64960186D01*
X129896764Y-64886007D01*
X129915843Y-64823112D01*
X129921181Y-64805517D01*
X129927359Y-64742788D01*
X129927359Y-64742777D01*
X129929424Y-64721810D01*
X129927359Y-64700843D01*
X129927359Y-62635955D01*
X129988303Y-62661199D01*
X130128758Y-62689137D01*
X130271964Y-62689137D01*
X130314943Y-62680588D01*
X130521460Y-62887105D01*
X130534829Y-62903395D01*
X130551119Y-62916764D01*
X130551123Y-62916768D01*
X130599848Y-62956756D01*
X130674027Y-62996405D01*
X130692761Y-63002088D01*
X130754517Y-63020822D01*
X130817246Y-63027000D01*
X130817257Y-63027000D01*
X130838224Y-63029065D01*
X130859191Y-63027000D01*
X134810956Y-63027000D01*
X134835302Y-63063436D01*
X134936564Y-63164698D01*
X135055636Y-63244259D01*
X135187942Y-63299062D01*
X135328397Y-63327000D01*
X135471603Y-63327000D01*
X135612058Y-63299062D01*
X135744364Y-63244259D01*
X135863436Y-63164698D01*
X135964698Y-63063436D01*
X136044259Y-62944364D01*
X136099062Y-62812058D01*
X136127000Y-62671603D01*
X136127000Y-62528397D01*
X136099062Y-62387942D01*
X136044259Y-62255636D01*
X135977000Y-62154975D01*
X135977000Y-61828339D01*
X135979791Y-61800000D01*
X135968651Y-61686888D01*
X135935657Y-61578123D01*
X135915983Y-61541316D01*
X135882079Y-61477885D01*
X135809974Y-61390026D01*
X135787962Y-61371961D01*
X135571639Y-61155638D01*
X135730732Y-61139969D01*
X135952597Y-61072667D01*
X136157070Y-60963374D01*
X136336291Y-60816291D01*
X136483374Y-60637070D01*
X136592667Y-60432597D01*
X136659969Y-60210732D01*
X136682694Y-59980000D01*
X136659969Y-59749268D01*
X136592667Y-59527403D01*
X136483374Y-59322930D01*
X136336291Y-59143709D01*
X136157070Y-58996626D01*
X135952597Y-58887333D01*
X135730732Y-58820031D01*
X135557812Y-58803000D01*
X135442188Y-58803000D01*
X135269268Y-58820031D01*
X135047403Y-58887333D01*
X135023812Y-58899943D01*
X133627000Y-57503132D01*
X133627000Y-54920930D01*
X133629065Y-54899963D01*
X133627000Y-54878996D01*
X133627000Y-54878985D01*
X133621744Y-54825613D01*
X133923000Y-55126870D01*
X133922999Y-56269032D01*
X133920934Y-56289999D01*
X133922999Y-56310966D01*
X133922999Y-56310976D01*
X133929177Y-56373705D01*
X133953594Y-56454194D01*
X133957086Y-56460727D01*
X133993244Y-56528375D01*
X134033231Y-56577099D01*
X134046604Y-56593394D01*
X134062899Y-56606767D01*
X134419943Y-56963811D01*
X134407333Y-56987403D01*
X134340031Y-57209268D01*
X134317306Y-57440000D01*
X134340031Y-57670732D01*
X134407333Y-57892597D01*
X134516626Y-58097070D01*
X134663709Y-58276291D01*
X134842930Y-58423374D01*
X135047403Y-58532667D01*
X135269268Y-58599969D01*
X135442188Y-58617000D01*
X135557812Y-58617000D01*
X135730732Y-58599969D01*
X135952597Y-58532667D01*
X136157070Y-58423374D01*
X136336291Y-58276291D01*
X136483374Y-58097070D01*
X136592667Y-57892597D01*
X136659969Y-57670732D01*
X136682694Y-57440000D01*
X136659969Y-57209268D01*
X136592667Y-56987403D01*
X136483374Y-56782930D01*
X136336291Y-56603709D01*
X136157070Y-56456626D01*
X135952597Y-56347333D01*
X135730732Y-56280031D01*
X135557812Y-56263000D01*
X135442188Y-56263000D01*
X135269268Y-56280031D01*
X135047403Y-56347333D01*
X135023811Y-56359943D01*
X134776999Y-56113131D01*
X134776999Y-55829266D01*
X134842930Y-55883374D01*
X135047403Y-55992667D01*
X135269268Y-56059969D01*
X135442188Y-56077000D01*
X135557812Y-56077000D01*
X135730732Y-56059969D01*
X135952597Y-55992667D01*
X136157070Y-55883374D01*
X136336291Y-55736291D01*
X136483374Y-55557070D01*
X136592667Y-55352597D01*
X136659969Y-55130732D01*
X136682694Y-54900000D01*
X136659969Y-54669268D01*
X136592667Y-54447403D01*
X136483374Y-54242930D01*
X136336291Y-54063709D01*
X136157070Y-53916626D01*
X135952597Y-53807333D01*
X135730732Y-53740031D01*
X135557812Y-53723000D01*
X135442188Y-53723000D01*
X135269268Y-53740031D01*
X135047403Y-53807333D01*
X135023811Y-53819943D01*
X134966773Y-53762905D01*
X134966769Y-53762900D01*
X134224745Y-53020877D01*
X134224745Y-51548677D01*
X134229180Y-51593708D01*
X134239920Y-51629111D01*
X134253597Y-51674197D01*
X134293246Y-51748377D01*
X134333233Y-51797101D01*
X134333238Y-51797106D01*
X134346607Y-51813396D01*
X134362896Y-51826764D01*
X134419943Y-51883811D01*
X134407333Y-51907403D01*
X134340031Y-52129268D01*
X134317306Y-52360000D01*
X134340031Y-52590732D01*
X134407333Y-52812597D01*
X134516626Y-53017070D01*
X134663709Y-53196291D01*
X134842930Y-53343374D01*
X135047403Y-53452667D01*
X135269268Y-53519969D01*
X135442188Y-53537000D01*
X135557812Y-53537000D01*
X135730732Y-53519969D01*
X135952597Y-53452667D01*
X136157070Y-53343374D01*
X136336291Y-53196291D01*
X136483374Y-53017070D01*
X136592667Y-52812597D01*
X136659969Y-52590732D01*
X136682694Y-52360000D01*
X136659969Y-52129268D01*
X136592667Y-51907403D01*
X136483374Y-51702930D01*
X136336291Y-51523709D01*
X136157070Y-51376626D01*
X135952597Y-51267333D01*
X135730732Y-51200031D01*
X135557812Y-51183000D01*
X135442188Y-51183000D01*
X135269268Y-51200031D01*
X135077001Y-51258355D01*
X135077001Y-50921645D01*
X135269268Y-50979969D01*
X135442188Y-50997000D01*
X135557812Y-50997000D01*
X135730732Y-50979969D01*
X135952597Y-50912667D01*
X136157070Y-50803374D01*
X136336291Y-50656291D01*
X136483374Y-50477070D01*
X136592667Y-50272597D01*
X136659969Y-50050732D01*
X136682694Y-49820000D01*
X136659969Y-49589268D01*
X136592667Y-49367403D01*
X136483374Y-49162930D01*
X136336291Y-48983709D01*
X136157070Y-48836626D01*
X135952597Y-48727333D01*
X135730732Y-48660031D01*
X135557812Y-48643000D01*
X135442188Y-48643000D01*
X135269268Y-48660031D01*
X135047403Y-48727333D01*
X134842930Y-48836626D01*
X134663709Y-48983709D01*
X134516626Y-49162930D01*
X134407333Y-49367403D01*
X134340031Y-49589268D01*
X134323785Y-49754216D01*
X132682446Y-48112878D01*
X132669073Y-48096583D01*
X132604054Y-48043223D01*
X132529874Y-48003573D01*
X132449385Y-47979156D01*
X132386656Y-47972978D01*
X132386645Y-47972978D01*
X132365678Y-47970913D01*
X132344711Y-47972978D01*
X131706860Y-47972978D01*
X131796825Y-47784099D01*
X131841476Y-47636890D01*
X131720155Y-47407000D01*
X130527000Y-47407000D01*
X130527000Y-47427000D01*
X130273000Y-47427000D01*
X130273000Y-47407000D01*
X130253000Y-47407000D01*
X130253000Y-47280000D01*
X134317306Y-47280000D01*
X134340031Y-47510732D01*
X134407333Y-47732597D01*
X134516626Y-47937070D01*
X134663709Y-48116291D01*
X134842930Y-48263374D01*
X135047403Y-48372667D01*
X135269268Y-48439969D01*
X135442188Y-48457000D01*
X135557812Y-48457000D01*
X135730732Y-48439969D01*
X135952597Y-48372667D01*
X136157070Y-48263374D01*
X136336291Y-48116291D01*
X136483374Y-47937070D01*
X136592667Y-47732597D01*
X136659969Y-47510732D01*
X136682694Y-47280000D01*
X136659969Y-47049268D01*
X136592667Y-46827403D01*
X136483374Y-46622930D01*
X136336291Y-46443709D01*
X136157070Y-46296626D01*
X135952597Y-46187333D01*
X135730732Y-46120031D01*
X135557812Y-46103000D01*
X135442188Y-46103000D01*
X135269268Y-46120031D01*
X135047403Y-46187333D01*
X134842930Y-46296626D01*
X134663709Y-46443709D01*
X134516626Y-46622930D01*
X134407333Y-46827403D01*
X134340031Y-47049268D01*
X134317306Y-47280000D01*
X130253000Y-47280000D01*
X130253000Y-47153000D01*
X130273000Y-47153000D01*
X130273000Y-47133000D01*
X130527000Y-47133000D01*
X130527000Y-47153000D01*
X131720155Y-47153000D01*
X131841476Y-46923110D01*
X131796825Y-46775901D01*
X131753414Y-46684760D01*
X131787942Y-46699062D01*
X131928397Y-46727000D01*
X132071603Y-46727000D01*
X132212058Y-46699062D01*
X132344364Y-46644259D01*
X132463436Y-46564698D01*
X132564698Y-46463436D01*
X132644259Y-46344364D01*
X132699062Y-46212058D01*
X132727000Y-46071603D01*
X132727000Y-45928397D01*
X132699062Y-45787942D01*
X132644259Y-45655636D01*
X132564698Y-45536564D01*
X132463436Y-45435302D01*
X132344364Y-45355741D01*
X132212058Y-45300938D01*
X132071603Y-45273000D01*
X131928397Y-45273000D01*
X131787942Y-45300938D01*
X131765281Y-45310324D01*
X131796825Y-45244099D01*
X131841476Y-45096890D01*
X131720155Y-44867000D01*
X130527000Y-44867000D01*
X130527000Y-44887000D01*
X130273000Y-44887000D01*
X130273000Y-44867000D01*
X130253000Y-44867000D01*
X130253000Y-44613000D01*
X130273000Y-44613000D01*
X130273000Y-44593000D01*
X130527000Y-44593000D01*
X130527000Y-44613000D01*
X131720155Y-44613000D01*
X131841476Y-44383110D01*
X131796825Y-44235901D01*
X131671641Y-43973080D01*
X131637261Y-43926988D01*
X134083120Y-43926988D01*
X134419943Y-44263811D01*
X134407333Y-44287403D01*
X134340031Y-44509268D01*
X134317306Y-44740000D01*
X134340031Y-44970732D01*
X134407333Y-45192597D01*
X134516626Y-45397070D01*
X134663709Y-45576291D01*
X134842930Y-45723374D01*
X135047403Y-45832667D01*
X135269268Y-45899969D01*
X135442188Y-45917000D01*
X135557812Y-45917000D01*
X135730732Y-45899969D01*
X135952597Y-45832667D01*
X136157070Y-45723374D01*
X136336291Y-45576291D01*
X136483374Y-45397070D01*
X136592667Y-45192597D01*
X136659969Y-44970732D01*
X136682694Y-44740000D01*
X136659969Y-44509268D01*
X136592667Y-44287403D01*
X136483374Y-44082930D01*
X136336291Y-43903709D01*
X136157070Y-43756626D01*
X135952597Y-43647333D01*
X135730732Y-43580031D01*
X135557812Y-43563000D01*
X135442188Y-43563000D01*
X135269268Y-43580031D01*
X135047403Y-43647333D01*
X135023811Y-43659943D01*
X134576755Y-43212887D01*
X134563383Y-43196593D01*
X134498364Y-43143233D01*
X134424184Y-43103583D01*
X134343695Y-43079166D01*
X134280966Y-43072988D01*
X134280955Y-43072988D01*
X134259988Y-43070923D01*
X134239021Y-43072988D01*
X131885808Y-43072988D01*
X131888072Y-43050000D01*
X131885000Y-42485750D01*
X131726250Y-42327000D01*
X130527000Y-42327000D01*
X130527000Y-42347000D01*
X130273000Y-42347000D01*
X130273000Y-42327000D01*
X130253000Y-42327000D01*
X130253000Y-42073000D01*
X130273000Y-42073000D01*
X130273000Y-42053000D01*
X130527000Y-42053000D01*
X130527000Y-42073000D01*
X131726250Y-42073000D01*
X131885000Y-41914250D01*
X131885314Y-41856552D01*
X131987942Y-41899062D01*
X132128397Y-41927000D01*
X132271603Y-41927000D01*
X132412058Y-41899062D01*
X132544364Y-41844259D01*
X132663436Y-41764698D01*
X132764698Y-41663436D01*
X132844259Y-41544364D01*
X132899062Y-41412058D01*
X132927000Y-41271603D01*
X132927000Y-41128397D01*
X132899062Y-40987942D01*
X132844259Y-40855636D01*
X132825125Y-40827000D01*
X133523132Y-40827000D01*
X134419943Y-41723811D01*
X134407333Y-41747403D01*
X134340031Y-41969268D01*
X134317306Y-42200000D01*
X134340031Y-42430732D01*
X134407333Y-42652597D01*
X134516626Y-42857070D01*
X134663709Y-43036291D01*
X134842930Y-43183374D01*
X135047403Y-43292667D01*
X135269268Y-43359969D01*
X135442188Y-43377000D01*
X135557812Y-43377000D01*
X135730732Y-43359969D01*
X135952597Y-43292667D01*
X136157070Y-43183374D01*
X136336291Y-43036291D01*
X136483374Y-42857070D01*
X136592667Y-42652597D01*
X136659969Y-42430732D01*
X136682694Y-42200000D01*
X136659969Y-41969268D01*
X136592667Y-41747403D01*
X136483374Y-41542930D01*
X136336291Y-41363709D01*
X136157070Y-41216626D01*
X135952597Y-41107333D01*
X135730732Y-41040031D01*
X135557812Y-41023000D01*
X135442188Y-41023000D01*
X135269268Y-41040031D01*
X135047403Y-41107333D01*
X135023811Y-41119943D01*
X134057199Y-40153331D01*
X134210621Y-40153331D01*
X134231588Y-40155396D01*
X134252555Y-40153331D01*
X134252566Y-40153331D01*
X134315295Y-40147153D01*
X134395784Y-40122736D01*
X134408982Y-40115682D01*
X134516626Y-40317070D01*
X134663709Y-40496291D01*
X134842930Y-40643374D01*
X135047403Y-40752667D01*
X135269268Y-40819969D01*
X135442188Y-40837000D01*
X135557812Y-40837000D01*
X135730732Y-40819969D01*
X135952597Y-40752667D01*
X136157070Y-40643374D01*
X136336291Y-40496291D01*
X136483374Y-40317070D01*
X136592667Y-40112597D01*
X136659969Y-39890732D01*
X136682694Y-39660000D01*
X136659969Y-39429268D01*
X136592667Y-39207403D01*
X136483374Y-39002930D01*
X136336291Y-38823709D01*
X136157070Y-38676626D01*
X135952597Y-38567333D01*
X135730732Y-38500031D01*
X135557812Y-38483000D01*
X135442188Y-38483000D01*
X135269268Y-38500031D01*
X135047403Y-38567333D01*
X134842930Y-38676626D01*
X134663709Y-38823709D01*
X134516626Y-39002930D01*
X134407333Y-39207403D01*
X134399568Y-39233000D01*
X134318885Y-39233000D01*
X134297918Y-39230935D01*
X134276951Y-39233000D01*
X134276941Y-39233000D01*
X134214212Y-39239178D01*
X134133723Y-39263595D01*
X134072357Y-39296396D01*
X134066866Y-39299331D01*
X133373808Y-39299331D01*
X133399052Y-39238387D01*
X133426990Y-39097932D01*
X133426990Y-38954726D01*
X133399052Y-38814271D01*
X133362903Y-38727000D01*
X133471603Y-38727000D01*
X133612058Y-38699062D01*
X133744364Y-38644259D01*
X133863436Y-38564698D01*
X133964698Y-38463436D01*
X134044259Y-38344364D01*
X134099062Y-38212058D01*
X134127000Y-38071603D01*
X134127000Y-37928397D01*
X134099062Y-37787942D01*
X134044259Y-37655636D01*
X133971671Y-37547000D01*
X134399568Y-37547000D01*
X134407333Y-37572597D01*
X134516626Y-37777070D01*
X134663709Y-37956291D01*
X134842930Y-38103374D01*
X135047403Y-38212667D01*
X135269268Y-38279969D01*
X135442188Y-38297000D01*
X135557812Y-38297000D01*
X135730732Y-38279969D01*
X135952597Y-38212667D01*
X136157070Y-38103374D01*
X136336291Y-37956291D01*
X136483374Y-37777070D01*
X136592667Y-37572597D01*
X136659969Y-37350732D01*
X136682694Y-37120000D01*
X136659969Y-36889268D01*
X136592667Y-36667403D01*
X136483374Y-36462930D01*
X136336291Y-36283709D01*
X136157070Y-36136626D01*
X135952597Y-36027333D01*
X135730732Y-35960031D01*
X135557812Y-35943000D01*
X135442188Y-35943000D01*
X135269268Y-35960031D01*
X135047403Y-36027333D01*
X134842930Y-36136626D01*
X134663709Y-36283709D01*
X134516626Y-36462930D01*
X134407333Y-36667403D01*
X134399568Y-36693000D01*
X128262068Y-36693000D01*
X128251441Y-36691953D01*
X128286372Y-36657023D01*
X131349010Y-36657023D01*
X131369977Y-36659088D01*
X131390944Y-36657023D01*
X131390955Y-36657023D01*
X131453684Y-36650845D01*
X131534173Y-36626428D01*
X131608353Y-36586778D01*
X131673372Y-36533418D01*
X131686745Y-36517123D01*
X132485419Y-35718451D01*
X132528397Y-35727000D01*
X132671603Y-35727000D01*
X132812058Y-35699062D01*
X132944364Y-35644259D01*
X133063436Y-35564698D01*
X133164698Y-35463436D01*
X133244259Y-35344364D01*
X133299062Y-35212058D01*
X133327000Y-35071603D01*
X133327000Y-34928397D01*
X133299062Y-34787942D01*
X133244259Y-34655636D01*
X133164698Y-34536564D01*
X133063436Y-34435302D01*
X132944364Y-34355741D01*
X132812058Y-34300938D01*
X132671603Y-34273000D01*
X132528397Y-34273000D01*
X132387942Y-34300938D01*
X132255636Y-34355741D01*
X132136564Y-34435302D01*
X132035302Y-34536564D01*
X131955741Y-34655636D01*
X131900938Y-34787942D01*
X131873000Y-34928397D01*
X131873000Y-35071603D01*
X131881549Y-35114581D01*
X131193109Y-35803023D01*
X129566545Y-35803023D01*
X131212568Y-34157001D01*
X134398355Y-34157001D01*
X134340031Y-34349268D01*
X134317306Y-34580000D01*
X134340031Y-34810732D01*
X134407333Y-35032597D01*
X134516626Y-35237070D01*
X134663709Y-35416291D01*
X134842930Y-35563374D01*
X135047403Y-35672667D01*
X135269268Y-35739969D01*
X135442188Y-35757000D01*
X135557812Y-35757000D01*
X135730732Y-35739969D01*
X135952597Y-35672667D01*
X136157070Y-35563374D01*
X136336291Y-35416291D01*
X136483374Y-35237070D01*
X136592667Y-35032597D01*
X136659969Y-34810732D01*
X136682694Y-34580000D01*
X136659969Y-34349268D01*
X136592667Y-34127403D01*
X136483374Y-33922930D01*
X136336291Y-33743709D01*
X136157070Y-33596626D01*
X135952597Y-33487333D01*
X135730732Y-33420031D01*
X135557812Y-33403000D01*
X135442188Y-33403000D01*
X135269268Y-33420031D01*
X135047403Y-33487333D01*
X135023811Y-33499943D01*
X134966769Y-33442901D01*
X134953396Y-33426606D01*
X134888377Y-33373246D01*
X134814197Y-33333596D01*
X134733708Y-33309179D01*
X134670979Y-33303001D01*
X134670968Y-33303001D01*
X134650001Y-33300936D01*
X134629034Y-33303001D01*
X131500867Y-33303001D01*
X132485418Y-32318451D01*
X132528397Y-32327000D01*
X132671603Y-32327000D01*
X132812058Y-32299062D01*
X132944364Y-32244259D01*
X133063436Y-32164698D01*
X133164698Y-32063436D01*
X133180357Y-32040000D01*
X134317306Y-32040000D01*
X134340031Y-32270732D01*
X134407333Y-32492597D01*
X134516626Y-32697070D01*
X134663709Y-32876291D01*
X134842930Y-33023374D01*
X135047403Y-33132667D01*
X135269268Y-33199969D01*
X135442188Y-33217000D01*
X135557812Y-33217000D01*
X135730732Y-33199969D01*
X135952597Y-33132667D01*
X136157070Y-33023374D01*
X136336291Y-32876291D01*
X136483374Y-32697070D01*
X136592667Y-32492597D01*
X136659969Y-32270732D01*
X136682694Y-32040000D01*
X136659969Y-31809268D01*
X136592667Y-31587403D01*
X136483374Y-31382930D01*
X136336291Y-31203709D01*
X136157070Y-31056626D01*
X135952597Y-30947333D01*
X135730732Y-30880031D01*
X135557812Y-30863000D01*
X135442188Y-30863000D01*
X135269268Y-30880031D01*
X135047403Y-30947333D01*
X134842930Y-31056626D01*
X134663709Y-31203709D01*
X134516626Y-31382930D01*
X134407333Y-31587403D01*
X134340031Y-31809268D01*
X134317306Y-32040000D01*
X133180357Y-32040000D01*
X133244259Y-31944364D01*
X133299062Y-31812058D01*
X133327000Y-31671603D01*
X133327000Y-31528397D01*
X133299062Y-31387942D01*
X133244259Y-31255636D01*
X133164698Y-31136564D01*
X133063436Y-31035302D01*
X132944364Y-30955741D01*
X132812058Y-30900938D01*
X132671603Y-30873000D01*
X132528397Y-30873000D01*
X132387942Y-30900938D01*
X132255636Y-30955741D01*
X132136564Y-31035302D01*
X132035302Y-31136564D01*
X131955741Y-31255636D01*
X131900938Y-31387942D01*
X131873000Y-31528397D01*
X131873000Y-31671603D01*
X131881549Y-31714582D01*
X130327000Y-33269132D01*
X130327000Y-28650000D01*
X134321418Y-28650000D01*
X134321418Y-30350000D01*
X134327732Y-30414103D01*
X134346430Y-30475743D01*
X134376794Y-30532550D01*
X134417657Y-30582343D01*
X134467450Y-30623206D01*
X134524257Y-30653570D01*
X134585897Y-30672268D01*
X134650000Y-30678582D01*
X136350000Y-30678582D01*
X136414103Y-30672268D01*
X136475743Y-30653570D01*
X136532550Y-30623206D01*
X136582343Y-30582343D01*
X136623206Y-30532550D01*
X136653570Y-30475743D01*
X136672268Y-30414103D01*
X136678582Y-30350000D01*
X136678582Y-28650000D01*
X136672268Y-28585897D01*
X136653570Y-28524257D01*
X136623206Y-28467450D01*
X136582343Y-28417657D01*
X136532550Y-28376794D01*
X136475743Y-28346430D01*
X136414103Y-28327732D01*
X136350000Y-28321418D01*
X134650000Y-28321418D01*
X134585897Y-28327732D01*
X134524257Y-28346430D01*
X134467450Y-28376794D01*
X134417657Y-28417657D01*
X134376794Y-28467450D01*
X134346430Y-28524257D01*
X134327732Y-28585897D01*
X134321418Y-28650000D01*
X130327000Y-28650000D01*
X130327000Y-28152000D01*
X135992561Y-28152000D01*
X136164569Y-28168866D01*
G36*
X130894478Y-56876163D02*
G01*
X130918096Y-56994900D01*
X130972899Y-57127206D01*
X131052460Y-57246278D01*
X131153722Y-57347540D01*
X131272794Y-57427101D01*
X131405100Y-57481904D01*
X131545555Y-57509842D01*
X131688761Y-57509842D01*
X131829216Y-57481904D01*
X131890159Y-57456660D01*
X131890159Y-57795766D01*
X131771869Y-57716727D01*
X131639563Y-57661924D01*
X131499108Y-57633986D01*
X131355902Y-57633986D01*
X131215447Y-57661924D01*
X131083141Y-57716727D01*
X130964069Y-57796288D01*
X130862807Y-57897550D01*
X130783246Y-58016622D01*
X130728443Y-58148928D01*
X130700505Y-58289383D01*
X130700505Y-58432589D01*
X130709054Y-58475568D01*
X128813244Y-60371379D01*
X128796954Y-60384748D01*
X128783585Y-60401038D01*
X128783580Y-60401043D01*
X128743593Y-60449767D01*
X128715162Y-60502959D01*
X128703944Y-60523947D01*
X128679527Y-60604436D01*
X128675302Y-60647333D01*
X128671283Y-60688143D01*
X128673349Y-60709120D01*
X128673348Y-63292783D01*
X126226189Y-65739943D01*
X126202597Y-65727333D01*
X125980732Y-65660031D01*
X125807812Y-65643000D01*
X125692188Y-65643000D01*
X125519268Y-65660031D01*
X125297403Y-65727333D01*
X125092930Y-65836626D01*
X124913709Y-65983709D01*
X124766626Y-66162930D01*
X124657333Y-66367403D01*
X124652000Y-66384984D01*
X124652000Y-64715016D01*
X124657333Y-64732597D01*
X124766626Y-64937070D01*
X124913709Y-65116291D01*
X125092930Y-65263374D01*
X125297403Y-65372667D01*
X125519268Y-65439969D01*
X125692188Y-65457000D01*
X125807812Y-65457000D01*
X125980732Y-65439969D01*
X126202597Y-65372667D01*
X126407070Y-65263374D01*
X126586291Y-65116291D01*
X126733374Y-64937070D01*
X126842667Y-64732597D01*
X126909969Y-64510732D01*
X126932694Y-64280000D01*
X126909969Y-64049268D01*
X126842667Y-63827403D01*
X126733374Y-63622930D01*
X126586291Y-63443709D01*
X126407070Y-63296626D01*
X126202597Y-63187333D01*
X125980732Y-63120031D01*
X125807812Y-63103000D01*
X125692188Y-63103000D01*
X125519268Y-63120031D01*
X125297403Y-63187333D01*
X125092930Y-63296626D01*
X124913709Y-63443709D01*
X124766626Y-63622930D01*
X124657333Y-63827403D01*
X124652000Y-63844984D01*
X124652000Y-62175016D01*
X124657333Y-62192597D01*
X124766626Y-62397070D01*
X124913709Y-62576291D01*
X125092930Y-62723374D01*
X125297403Y-62832667D01*
X125519268Y-62899969D01*
X125692188Y-62917000D01*
X125807812Y-62917000D01*
X125980732Y-62899969D01*
X126202597Y-62832667D01*
X126407070Y-62723374D01*
X126586291Y-62576291D01*
X126733374Y-62397070D01*
X126842667Y-62192597D01*
X126909969Y-61970732D01*
X126932694Y-61740000D01*
X126909969Y-61509268D01*
X126842667Y-61287403D01*
X126733374Y-61082930D01*
X126586291Y-60903709D01*
X126407070Y-60756626D01*
X126275509Y-60686305D01*
X126600000Y-60688072D01*
X126724482Y-60675812D01*
X126844180Y-60639502D01*
X126954494Y-60580537D01*
X127051185Y-60501185D01*
X127130537Y-60404494D01*
X127189502Y-60294180D01*
X127225812Y-60174482D01*
X127238072Y-60050000D01*
X127235000Y-59485750D01*
X127076250Y-59327000D01*
X125877000Y-59327000D01*
X125877000Y-59347000D01*
X125623000Y-59347000D01*
X125623000Y-59327000D01*
X124652000Y-59327000D01*
X124652000Y-59073000D01*
X125623000Y-59073000D01*
X125623000Y-59053000D01*
X125877000Y-59053000D01*
X125877000Y-59073000D01*
X127076250Y-59073000D01*
X127235000Y-58914250D01*
X127238072Y-58350000D01*
X127225812Y-58225518D01*
X127189502Y-58105820D01*
X127130537Y-57995506D01*
X127062824Y-57912997D01*
X127156291Y-57836291D01*
X127303374Y-57657070D01*
X127412667Y-57452597D01*
X127479969Y-57230732D01*
X127502694Y-57000000D01*
X127479969Y-56769268D01*
X127412667Y-56547403D01*
X127303374Y-56342930D01*
X127156291Y-56163709D01*
X126977070Y-56016626D01*
X126772597Y-55907333D01*
X126550732Y-55840031D01*
X126377812Y-55823000D01*
X126262188Y-55823000D01*
X126089268Y-55840031D01*
X125867403Y-55907333D01*
X125662930Y-56016626D01*
X125483709Y-56163709D01*
X125336626Y-56342930D01*
X125227333Y-56547403D01*
X125160031Y-56769268D01*
X125137306Y-57000000D01*
X125160031Y-57230732D01*
X125227333Y-57452597D01*
X125336626Y-57657070D01*
X125383809Y-57714562D01*
X124900000Y-57711928D01*
X124775518Y-57724188D01*
X124686008Y-57751341D01*
X124763374Y-57657070D01*
X124872667Y-57452597D01*
X124939969Y-57230732D01*
X124962694Y-57000000D01*
X124939969Y-56769268D01*
X124872667Y-56547403D01*
X124763374Y-56342930D01*
X124616291Y-56163709D01*
X124437070Y-56016626D01*
X124232597Y-55907333D01*
X124010732Y-55840031D01*
X123837812Y-55823000D01*
X123722188Y-55823000D01*
X123549268Y-55840031D01*
X123462388Y-55866386D01*
X119623058Y-52027057D01*
X121814980Y-52027057D01*
X121835947Y-52029122D01*
X121856914Y-52027057D01*
X121856925Y-52027057D01*
X121919654Y-52020879D01*
X122000143Y-51996462D01*
X122074323Y-51956812D01*
X122139342Y-51903452D01*
X122152715Y-51887157D01*
X122787108Y-51252765D01*
X122803397Y-51239397D01*
X122816766Y-51223107D01*
X122816770Y-51223103D01*
X122856758Y-51174379D01*
X122896407Y-51100199D01*
X122909925Y-51055636D01*
X122920824Y-51019709D01*
X122927002Y-50956980D01*
X122927002Y-50956969D01*
X122929067Y-50936002D01*
X122927002Y-50915035D01*
X122927002Y-49239085D01*
X122929067Y-49218118D01*
X122927002Y-49197151D01*
X122927002Y-49197141D01*
X122920824Y-49134412D01*
X122896407Y-49053923D01*
X122871201Y-49006766D01*
X122856757Y-48979742D01*
X122816770Y-48931017D01*
X122816761Y-48931008D01*
X122803397Y-48914724D01*
X122787113Y-48901360D01*
X122062751Y-48177000D01*
X122195314Y-48177000D01*
X130894478Y-56876163D01*
X130894478Y-56876163D01*
G37*
X130894478Y-56876163D02*
X130918096Y-56994900D01*
X130972899Y-57127206D01*
X131052460Y-57246278D01*
X131153722Y-57347540D01*
X131272794Y-57427101D01*
X131405100Y-57481904D01*
X131545555Y-57509842D01*
X131688761Y-57509842D01*
X131829216Y-57481904D01*
X131890159Y-57456660D01*
X131890159Y-57795766D01*
X131771869Y-57716727D01*
X131639563Y-57661924D01*
X131499108Y-57633986D01*
X131355902Y-57633986D01*
X131215447Y-57661924D01*
X131083141Y-57716727D01*
X130964069Y-57796288D01*
X130862807Y-57897550D01*
X130783246Y-58016622D01*
X130728443Y-58148928D01*
X130700505Y-58289383D01*
X130700505Y-58432589D01*
X130709054Y-58475568D01*
X128813244Y-60371379D01*
X128796954Y-60384748D01*
X128783585Y-60401038D01*
X128783580Y-60401043D01*
X128743593Y-60449767D01*
X128715162Y-60502959D01*
X128703944Y-60523947D01*
X128679527Y-60604436D01*
X128675302Y-60647333D01*
X128671283Y-60688143D01*
X128673349Y-60709120D01*
X128673348Y-63292783D01*
X126226189Y-65739943D01*
X126202597Y-65727333D01*
X125980732Y-65660031D01*
X125807812Y-65643000D01*
X125692188Y-65643000D01*
X125519268Y-65660031D01*
X125297403Y-65727333D01*
X125092930Y-65836626D01*
X124913709Y-65983709D01*
X124766626Y-66162930D01*
X124657333Y-66367403D01*
X124652000Y-66384984D01*
X124652000Y-64715016D01*
X124657333Y-64732597D01*
X124766626Y-64937070D01*
X124913709Y-65116291D01*
X125092930Y-65263374D01*
X125297403Y-65372667D01*
X125519268Y-65439969D01*
X125692188Y-65457000D01*
X125807812Y-65457000D01*
X125980732Y-65439969D01*
X126202597Y-65372667D01*
X126407070Y-65263374D01*
X126586291Y-65116291D01*
X126733374Y-64937070D01*
X126842667Y-64732597D01*
X126909969Y-64510732D01*
X126932694Y-64280000D01*
X126909969Y-64049268D01*
X126842667Y-63827403D01*
X126733374Y-63622930D01*
X126586291Y-63443709D01*
X126407070Y-63296626D01*
X126202597Y-63187333D01*
X125980732Y-63120031D01*
X125807812Y-63103000D01*
X125692188Y-63103000D01*
X125519268Y-63120031D01*
X125297403Y-63187333D01*
X125092930Y-63296626D01*
X124913709Y-63443709D01*
X124766626Y-63622930D01*
X124657333Y-63827403D01*
X124652000Y-63844984D01*
X124652000Y-62175016D01*
X124657333Y-62192597D01*
X124766626Y-62397070D01*
X124913709Y-62576291D01*
X125092930Y-62723374D01*
X125297403Y-62832667D01*
X125519268Y-62899969D01*
X125692188Y-62917000D01*
X125807812Y-62917000D01*
X125980732Y-62899969D01*
X126202597Y-62832667D01*
X126407070Y-62723374D01*
X126586291Y-62576291D01*
X126733374Y-62397070D01*
X126842667Y-62192597D01*
X126909969Y-61970732D01*
X126932694Y-61740000D01*
X126909969Y-61509268D01*
X126842667Y-61287403D01*
X126733374Y-61082930D01*
X126586291Y-60903709D01*
X126407070Y-60756626D01*
X126275509Y-60686305D01*
X126600000Y-60688072D01*
X126724482Y-60675812D01*
X126844180Y-60639502D01*
X126954494Y-60580537D01*
X127051185Y-60501185D01*
X127130537Y-60404494D01*
X127189502Y-60294180D01*
X127225812Y-60174482D01*
X127238072Y-60050000D01*
X127235000Y-59485750D01*
X127076250Y-59327000D01*
X125877000Y-59327000D01*
X125877000Y-59347000D01*
X125623000Y-59347000D01*
X125623000Y-59327000D01*
X124652000Y-59327000D01*
X124652000Y-59073000D01*
X125623000Y-59073000D01*
X125623000Y-59053000D01*
X125877000Y-59053000D01*
X125877000Y-59073000D01*
X127076250Y-59073000D01*
X127235000Y-58914250D01*
X127238072Y-58350000D01*
X127225812Y-58225518D01*
X127189502Y-58105820D01*
X127130537Y-57995506D01*
X127062824Y-57912997D01*
X127156291Y-57836291D01*
X127303374Y-57657070D01*
X127412667Y-57452597D01*
X127479969Y-57230732D01*
X127502694Y-57000000D01*
X127479969Y-56769268D01*
X127412667Y-56547403D01*
X127303374Y-56342930D01*
X127156291Y-56163709D01*
X126977070Y-56016626D01*
X126772597Y-55907333D01*
X126550732Y-55840031D01*
X126377812Y-55823000D01*
X126262188Y-55823000D01*
X126089268Y-55840031D01*
X125867403Y-55907333D01*
X125662930Y-56016626D01*
X125483709Y-56163709D01*
X125336626Y-56342930D01*
X125227333Y-56547403D01*
X125160031Y-56769268D01*
X125137306Y-57000000D01*
X125160031Y-57230732D01*
X125227333Y-57452597D01*
X125336626Y-57657070D01*
X125383809Y-57714562D01*
X124900000Y-57711928D01*
X124775518Y-57724188D01*
X124686008Y-57751341D01*
X124763374Y-57657070D01*
X124872667Y-57452597D01*
X124939969Y-57230732D01*
X124962694Y-57000000D01*
X124939969Y-56769268D01*
X124872667Y-56547403D01*
X124763374Y-56342930D01*
X124616291Y-56163709D01*
X124437070Y-56016626D01*
X124232597Y-55907333D01*
X124010732Y-55840031D01*
X123837812Y-55823000D01*
X123722188Y-55823000D01*
X123549268Y-55840031D01*
X123462388Y-55866386D01*
X119623058Y-52027057D01*
X121814980Y-52027057D01*
X121835947Y-52029122D01*
X121856914Y-52027057D01*
X121856925Y-52027057D01*
X121919654Y-52020879D01*
X122000143Y-51996462D01*
X122074323Y-51956812D01*
X122139342Y-51903452D01*
X122152715Y-51887157D01*
X122787108Y-51252765D01*
X122803397Y-51239397D01*
X122816766Y-51223107D01*
X122816770Y-51223103D01*
X122856758Y-51174379D01*
X122896407Y-51100199D01*
X122909925Y-51055636D01*
X122920824Y-51019709D01*
X122927002Y-50956980D01*
X122927002Y-50956969D01*
X122929067Y-50936002D01*
X122927002Y-50915035D01*
X122927002Y-49239085D01*
X122929067Y-49218118D01*
X122927002Y-49197151D01*
X122927002Y-49197141D01*
X122920824Y-49134412D01*
X122896407Y-49053923D01*
X122871201Y-49006766D01*
X122856757Y-48979742D01*
X122816770Y-48931017D01*
X122816761Y-48931008D01*
X122803397Y-48914724D01*
X122787113Y-48901360D01*
X122062751Y-48177000D01*
X122195314Y-48177000D01*
X130894478Y-56876163D01*
G36*
X108667000Y-56873000D02*
G01*
X108687000Y-56873000D01*
X108687000Y-57127000D01*
X108667000Y-57127000D01*
X108667000Y-57848000D01*
X108492538Y-57848000D01*
X108485496Y-57848694D01*
X108479242Y-57848650D01*
X108477130Y-57848857D01*
X108413000Y-57855598D01*
X108413000Y-57127000D01*
X108393000Y-57127000D01*
X108393000Y-56873000D01*
X108413000Y-56873000D01*
X108413000Y-56853000D01*
X108667000Y-56853000D01*
X108667000Y-56873000D01*
X108667000Y-56873000D01*
G37*
X108667000Y-56873000D02*
X108687000Y-56873000D01*
X108687000Y-57127000D01*
X108667000Y-57127000D01*
X108667000Y-57848000D01*
X108492538Y-57848000D01*
X108485496Y-57848694D01*
X108479242Y-57848650D01*
X108477130Y-57848857D01*
X108413000Y-57855598D01*
X108413000Y-57127000D01*
X108393000Y-57127000D01*
X108393000Y-56873000D01*
X108413000Y-56873000D01*
X108413000Y-56853000D01*
X108667000Y-56853000D01*
X108667000Y-56873000D01*
G36*
X122646386Y-56682388D02*
G01*
X122620031Y-56769268D01*
X122597306Y-57000000D01*
X122620031Y-57230732D01*
X122687333Y-57452597D01*
X122796626Y-57657070D01*
X122943709Y-57836291D01*
X122957976Y-57848000D01*
X122062024Y-57848000D01*
X122076291Y-57836291D01*
X122223374Y-57657070D01*
X122332667Y-57452597D01*
X122399969Y-57230732D01*
X122422694Y-57000000D01*
X122399969Y-56769268D01*
X122332667Y-56547403D01*
X122223374Y-56342930D01*
X122076291Y-56163709D01*
X121897070Y-56016626D01*
X121692597Y-55907333D01*
X121470732Y-55840031D01*
X121297812Y-55823000D01*
X121182188Y-55823000D01*
X121009268Y-55840031D01*
X120787403Y-55907333D01*
X120582930Y-56016626D01*
X120403709Y-56163709D01*
X120256626Y-56342930D01*
X120147333Y-56547403D01*
X120080031Y-56769268D01*
X120057306Y-57000000D01*
X120080031Y-57230732D01*
X120147333Y-57452597D01*
X120256626Y-57657070D01*
X120403709Y-57836291D01*
X120417976Y-57848000D01*
X119522024Y-57848000D01*
X119536291Y-57836291D01*
X119683374Y-57657070D01*
X119792667Y-57452597D01*
X119859969Y-57230732D01*
X119882694Y-57000000D01*
X119859969Y-56769268D01*
X119792667Y-56547403D01*
X119683374Y-56342930D01*
X119536291Y-56163709D01*
X119357070Y-56016626D01*
X119152597Y-55907333D01*
X118930732Y-55840031D01*
X118757812Y-55823000D01*
X118642188Y-55823000D01*
X118469268Y-55840031D01*
X118247403Y-55907333D01*
X118042930Y-56016626D01*
X117863709Y-56163709D01*
X117716626Y-56342930D01*
X117607333Y-56547403D01*
X117540031Y-56769268D01*
X117517306Y-57000000D01*
X117540031Y-57230732D01*
X117607333Y-57452597D01*
X117716626Y-57657070D01*
X117863709Y-57836291D01*
X117877976Y-57848000D01*
X116982024Y-57848000D01*
X116996291Y-57836291D01*
X117143374Y-57657070D01*
X117252667Y-57452597D01*
X117319969Y-57230732D01*
X117342694Y-57000000D01*
X117319969Y-56769268D01*
X117252667Y-56547403D01*
X117143374Y-56342930D01*
X116996291Y-56163709D01*
X116817070Y-56016626D01*
X116612597Y-55907333D01*
X116390732Y-55840031D01*
X116217812Y-55823000D01*
X116102188Y-55823000D01*
X115929268Y-55840031D01*
X115707403Y-55907333D01*
X115683811Y-55919943D01*
X115076768Y-55312900D01*
X115063395Y-55296605D01*
X114998376Y-55243245D01*
X114924196Y-55203595D01*
X114843707Y-55179178D01*
X114780978Y-55173000D01*
X114780967Y-55173000D01*
X114760000Y-55170935D01*
X114739033Y-55173000D01*
X109589044Y-55173000D01*
X109564698Y-55136564D01*
X109463436Y-55035302D01*
X109344364Y-54955741D01*
X109212058Y-54900938D01*
X109071603Y-54873000D01*
X108928397Y-54873000D01*
X108787942Y-54900938D01*
X108655636Y-54955741D01*
X108536564Y-55035302D01*
X108435302Y-55136564D01*
X108355741Y-55255636D01*
X108300938Y-55387942D01*
X108273000Y-55528397D01*
X108273000Y-55605962D01*
X108183110Y-55558524D01*
X108035901Y-55603175D01*
X107773080Y-55728359D01*
X107539731Y-55902412D01*
X107344822Y-56118645D01*
X107195843Y-56368748D01*
X107178582Y-56417408D01*
X107178582Y-56150000D01*
X107172268Y-56085897D01*
X107153570Y-56024257D01*
X107123206Y-55967450D01*
X107082343Y-55917657D01*
X107032550Y-55876794D01*
X106975743Y-55846430D01*
X106914103Y-55827732D01*
X106850000Y-55821418D01*
X106577000Y-55821418D01*
X106577000Y-54639001D01*
X108439001Y-52777000D01*
X118740999Y-52777000D01*
X122646386Y-56682388D01*
X122646386Y-56682388D01*
G37*
X122646386Y-56682388D02*
X122620031Y-56769268D01*
X122597306Y-57000000D01*
X122620031Y-57230732D01*
X122687333Y-57452597D01*
X122796626Y-57657070D01*
X122943709Y-57836291D01*
X122957976Y-57848000D01*
X122062024Y-57848000D01*
X122076291Y-57836291D01*
X122223374Y-57657070D01*
X122332667Y-57452597D01*
X122399969Y-57230732D01*
X122422694Y-57000000D01*
X122399969Y-56769268D01*
X122332667Y-56547403D01*
X122223374Y-56342930D01*
X122076291Y-56163709D01*
X121897070Y-56016626D01*
X121692597Y-55907333D01*
X121470732Y-55840031D01*
X121297812Y-55823000D01*
X121182188Y-55823000D01*
X121009268Y-55840031D01*
X120787403Y-55907333D01*
X120582930Y-56016626D01*
X120403709Y-56163709D01*
X120256626Y-56342930D01*
X120147333Y-56547403D01*
X120080031Y-56769268D01*
X120057306Y-57000000D01*
X120080031Y-57230732D01*
X120147333Y-57452597D01*
X120256626Y-57657070D01*
X120403709Y-57836291D01*
X120417976Y-57848000D01*
X119522024Y-57848000D01*
X119536291Y-57836291D01*
X119683374Y-57657070D01*
X119792667Y-57452597D01*
X119859969Y-57230732D01*
X119882694Y-57000000D01*
X119859969Y-56769268D01*
X119792667Y-56547403D01*
X119683374Y-56342930D01*
X119536291Y-56163709D01*
X119357070Y-56016626D01*
X119152597Y-55907333D01*
X118930732Y-55840031D01*
X118757812Y-55823000D01*
X118642188Y-55823000D01*
X118469268Y-55840031D01*
X118247403Y-55907333D01*
X118042930Y-56016626D01*
X117863709Y-56163709D01*
X117716626Y-56342930D01*
X117607333Y-56547403D01*
X117540031Y-56769268D01*
X117517306Y-57000000D01*
X117540031Y-57230732D01*
X117607333Y-57452597D01*
X117716626Y-57657070D01*
X117863709Y-57836291D01*
X117877976Y-57848000D01*
X116982024Y-57848000D01*
X116996291Y-57836291D01*
X117143374Y-57657070D01*
X117252667Y-57452597D01*
X117319969Y-57230732D01*
X117342694Y-57000000D01*
X117319969Y-56769268D01*
X117252667Y-56547403D01*
X117143374Y-56342930D01*
X116996291Y-56163709D01*
X116817070Y-56016626D01*
X116612597Y-55907333D01*
X116390732Y-55840031D01*
X116217812Y-55823000D01*
X116102188Y-55823000D01*
X115929268Y-55840031D01*
X115707403Y-55907333D01*
X115683811Y-55919943D01*
X115076768Y-55312900D01*
X115063395Y-55296605D01*
X114998376Y-55243245D01*
X114924196Y-55203595D01*
X114843707Y-55179178D01*
X114780978Y-55173000D01*
X114780967Y-55173000D01*
X114760000Y-55170935D01*
X114739033Y-55173000D01*
X109589044Y-55173000D01*
X109564698Y-55136564D01*
X109463436Y-55035302D01*
X109344364Y-54955741D01*
X109212058Y-54900938D01*
X109071603Y-54873000D01*
X108928397Y-54873000D01*
X108787942Y-54900938D01*
X108655636Y-54955741D01*
X108536564Y-55035302D01*
X108435302Y-55136564D01*
X108355741Y-55255636D01*
X108300938Y-55387942D01*
X108273000Y-55528397D01*
X108273000Y-55605962D01*
X108183110Y-55558524D01*
X108035901Y-55603175D01*
X107773080Y-55728359D01*
X107539731Y-55902412D01*
X107344822Y-56118645D01*
X107195843Y-56368748D01*
X107178582Y-56417408D01*
X107178582Y-56150000D01*
X107172268Y-56085897D01*
X107153570Y-56024257D01*
X107123206Y-55967450D01*
X107082343Y-55917657D01*
X107032550Y-55876794D01*
X106975743Y-55846430D01*
X106914103Y-55827732D01*
X106850000Y-55821418D01*
X106577000Y-55821418D01*
X106577000Y-54639001D01*
X108439001Y-52777000D01*
X118740999Y-52777000D01*
X122646386Y-56682388D01*
G36*
X109083241Y-48687111D02*
G01*
X109096605Y-48703395D01*
X109112889Y-48716759D01*
X109112898Y-48716768D01*
X109161623Y-48756755D01*
X109201273Y-48777948D01*
X109235804Y-48796405D01*
X109316293Y-48820822D01*
X109379022Y-48827000D01*
X109379032Y-48827000D01*
X109399999Y-48829065D01*
X109420966Y-48827000D01*
X111168190Y-48827000D01*
X111192530Y-48863428D01*
X111202104Y-48873002D01*
X105869417Y-48873002D01*
X105841088Y-48870212D01*
X105812759Y-48873002D01*
X105812753Y-48873002D01*
X105727977Y-48881352D01*
X105619213Y-48914345D01*
X105518974Y-48967923D01*
X105497173Y-48985815D01*
X105453124Y-49021965D01*
X105453122Y-49021967D01*
X105431115Y-49040028D01*
X105413054Y-49062035D01*
X104797522Y-49677568D01*
X104780732Y-49675914D01*
X104751023Y-49672988D01*
X104751018Y-49672988D01*
X104722687Y-49670198D01*
X104694356Y-49672988D01*
X104293595Y-49672988D01*
X104431252Y-49624157D01*
X104681355Y-49475178D01*
X104897588Y-49280269D01*
X105071641Y-49046920D01*
X105196825Y-48784099D01*
X105241476Y-48636890D01*
X105120155Y-48407000D01*
X103927000Y-48407000D01*
X103927000Y-48427000D01*
X103673000Y-48427000D01*
X103673000Y-48407000D01*
X103653000Y-48407000D01*
X103653000Y-48153000D01*
X103673000Y-48153000D01*
X103673000Y-48133000D01*
X103927000Y-48133000D01*
X103927000Y-48153000D01*
X105120155Y-48153000D01*
X105241476Y-47923110D01*
X105196825Y-47775901D01*
X105071641Y-47513080D01*
X105000055Y-47417106D01*
X107813238Y-47417106D01*
X109083241Y-48687111D01*
X109083241Y-48687111D01*
G37*
X109083241Y-48687111D02*
X109096605Y-48703395D01*
X109112889Y-48716759D01*
X109112898Y-48716768D01*
X109161623Y-48756755D01*
X109201273Y-48777948D01*
X109235804Y-48796405D01*
X109316293Y-48820822D01*
X109379022Y-48827000D01*
X109379032Y-48827000D01*
X109399999Y-48829065D01*
X109420966Y-48827000D01*
X111168190Y-48827000D01*
X111192530Y-48863428D01*
X111202104Y-48873002D01*
X105869417Y-48873002D01*
X105841088Y-48870212D01*
X105812759Y-48873002D01*
X105812753Y-48873002D01*
X105727977Y-48881352D01*
X105619213Y-48914345D01*
X105518974Y-48967923D01*
X105497173Y-48985815D01*
X105453124Y-49021965D01*
X105453122Y-49021967D01*
X105431115Y-49040028D01*
X105413054Y-49062035D01*
X104797522Y-49677568D01*
X104780732Y-49675914D01*
X104751023Y-49672988D01*
X104751018Y-49672988D01*
X104722687Y-49670198D01*
X104694356Y-49672988D01*
X104293595Y-49672988D01*
X104431252Y-49624157D01*
X104681355Y-49475178D01*
X104897588Y-49280269D01*
X105071641Y-49046920D01*
X105196825Y-48784099D01*
X105241476Y-48636890D01*
X105120155Y-48407000D01*
X103927000Y-48407000D01*
X103927000Y-48427000D01*
X103673000Y-48427000D01*
X103673000Y-48407000D01*
X103653000Y-48407000D01*
X103653000Y-48153000D01*
X103673000Y-48153000D01*
X103673000Y-48133000D01*
X103927000Y-48133000D01*
X103927000Y-48153000D01*
X105120155Y-48153000D01*
X105241476Y-47923110D01*
X105196825Y-47775901D01*
X105071641Y-47513080D01*
X105000055Y-47417106D01*
X107813238Y-47417106D01*
X109083241Y-48687111D01*
G36*
X120373001Y-43776870D02*
G01*
X120373002Y-44179024D01*
X120370936Y-44200001D01*
X120373002Y-44220978D01*
X120373002Y-44220979D01*
X120379180Y-44283708D01*
X120390438Y-44320820D01*
X120403597Y-44364197D01*
X120443246Y-44438377D01*
X120481608Y-44485121D01*
X120473000Y-44528397D01*
X120473000Y-44671603D01*
X120500938Y-44812058D01*
X120555741Y-44944364D01*
X120635302Y-45063436D01*
X120736564Y-45164698D01*
X120855636Y-45244259D01*
X120987942Y-45299062D01*
X121128397Y-45327000D01*
X121271603Y-45327000D01*
X121412058Y-45299062D01*
X121544364Y-45244259D01*
X121663436Y-45164698D01*
X121764698Y-45063436D01*
X121844259Y-44944364D01*
X121899062Y-44812058D01*
X121927000Y-44671603D01*
X121927000Y-44528397D01*
X121899062Y-44387942D01*
X121873819Y-44326999D01*
X123367909Y-44326999D01*
X125744898Y-46703989D01*
X125736349Y-46746968D01*
X125736349Y-46890174D01*
X125755370Y-46985802D01*
X124282435Y-45512867D01*
X124269062Y-45496572D01*
X124204043Y-45443212D01*
X124129863Y-45403562D01*
X124049374Y-45379145D01*
X123986645Y-45372967D01*
X123986634Y-45372967D01*
X123965667Y-45370902D01*
X123944700Y-45372967D01*
X119655297Y-45372967D01*
X119634332Y-45370902D01*
X119613367Y-45372967D01*
X119613355Y-45372967D01*
X119550626Y-45379145D01*
X119470137Y-45403562D01*
X119435606Y-45422019D01*
X119395956Y-45443212D01*
X119347231Y-45483199D01*
X119347222Y-45483208D01*
X119330938Y-45496572D01*
X119317574Y-45512857D01*
X118907475Y-45922957D01*
X112526826Y-45922957D01*
X112227000Y-45623132D01*
X112227000Y-44820967D01*
X112229065Y-44800000D01*
X112227000Y-44779033D01*
X112227000Y-44779022D01*
X112220822Y-44716293D01*
X112196405Y-44635804D01*
X112156756Y-44561625D01*
X112156755Y-44561623D01*
X112116768Y-44512899D01*
X112116764Y-44512895D01*
X112103395Y-44496605D01*
X112087106Y-44483237D01*
X109718451Y-42114583D01*
X109727000Y-42071603D01*
X109727000Y-41928397D01*
X109699062Y-41787942D01*
X109664949Y-41705587D01*
X110448085Y-41705587D01*
X110515763Y-41773265D01*
X110529136Y-41789560D01*
X110545431Y-41802933D01*
X110594155Y-41842921D01*
X110668334Y-41882570D01*
X110683274Y-41887102D01*
X110748824Y-41906987D01*
X110811553Y-41913165D01*
X110811564Y-41913165D01*
X110832531Y-41915230D01*
X110853498Y-41913165D01*
X111814962Y-41913165D01*
X111835929Y-41915230D01*
X111856896Y-41913165D01*
X111856907Y-41913165D01*
X111919636Y-41906987D01*
X112000125Y-41882570D01*
X112074305Y-41842920D01*
X112139324Y-41789560D01*
X112152697Y-41773265D01*
X112287101Y-41638861D01*
X112303395Y-41625489D01*
X112356755Y-41560470D01*
X112396405Y-41486290D01*
X112420822Y-41405801D01*
X112427000Y-41343072D01*
X112427000Y-41343060D01*
X112429065Y-41322095D01*
X112427000Y-41301130D01*
X112427000Y-41027022D01*
X117623154Y-41027022D01*
X120373001Y-43776870D01*
X120373001Y-43776870D01*
G37*
X120373001Y-43776870D02*
X120373002Y-44179024D01*
X120370936Y-44200001D01*
X120373002Y-44220978D01*
X120373002Y-44220979D01*
X120379180Y-44283708D01*
X120390438Y-44320820D01*
X120403597Y-44364197D01*
X120443246Y-44438377D01*
X120481608Y-44485121D01*
X120473000Y-44528397D01*
X120473000Y-44671603D01*
X120500938Y-44812058D01*
X120555741Y-44944364D01*
X120635302Y-45063436D01*
X120736564Y-45164698D01*
X120855636Y-45244259D01*
X120987942Y-45299062D01*
X121128397Y-45327000D01*
X121271603Y-45327000D01*
X121412058Y-45299062D01*
X121544364Y-45244259D01*
X121663436Y-45164698D01*
X121764698Y-45063436D01*
X121844259Y-44944364D01*
X121899062Y-44812058D01*
X121927000Y-44671603D01*
X121927000Y-44528397D01*
X121899062Y-44387942D01*
X121873819Y-44326999D01*
X123367909Y-44326999D01*
X125744898Y-46703989D01*
X125736349Y-46746968D01*
X125736349Y-46890174D01*
X125755370Y-46985802D01*
X124282435Y-45512867D01*
X124269062Y-45496572D01*
X124204043Y-45443212D01*
X124129863Y-45403562D01*
X124049374Y-45379145D01*
X123986645Y-45372967D01*
X123986634Y-45372967D01*
X123965667Y-45370902D01*
X123944700Y-45372967D01*
X119655297Y-45372967D01*
X119634332Y-45370902D01*
X119613367Y-45372967D01*
X119613355Y-45372967D01*
X119550626Y-45379145D01*
X119470137Y-45403562D01*
X119435606Y-45422019D01*
X119395956Y-45443212D01*
X119347231Y-45483199D01*
X119347222Y-45483208D01*
X119330938Y-45496572D01*
X119317574Y-45512857D01*
X118907475Y-45922957D01*
X112526826Y-45922957D01*
X112227000Y-45623132D01*
X112227000Y-44820967D01*
X112229065Y-44800000D01*
X112227000Y-44779033D01*
X112227000Y-44779022D01*
X112220822Y-44716293D01*
X112196405Y-44635804D01*
X112156756Y-44561625D01*
X112156755Y-44561623D01*
X112116768Y-44512899D01*
X112116764Y-44512895D01*
X112103395Y-44496605D01*
X112087106Y-44483237D01*
X109718451Y-42114583D01*
X109727000Y-42071603D01*
X109727000Y-41928397D01*
X109699062Y-41787942D01*
X109664949Y-41705587D01*
X110448085Y-41705587D01*
X110515763Y-41773265D01*
X110529136Y-41789560D01*
X110545431Y-41802933D01*
X110594155Y-41842921D01*
X110668334Y-41882570D01*
X110683274Y-41887102D01*
X110748824Y-41906987D01*
X110811553Y-41913165D01*
X110811564Y-41913165D01*
X110832531Y-41915230D01*
X110853498Y-41913165D01*
X111814962Y-41913165D01*
X111835929Y-41915230D01*
X111856896Y-41913165D01*
X111856907Y-41913165D01*
X111919636Y-41906987D01*
X112000125Y-41882570D01*
X112074305Y-41842920D01*
X112139324Y-41789560D01*
X112152697Y-41773265D01*
X112287101Y-41638861D01*
X112303395Y-41625489D01*
X112356755Y-41560470D01*
X112396405Y-41486290D01*
X112420822Y-41405801D01*
X112427000Y-41343072D01*
X112427000Y-41343060D01*
X112429065Y-41322095D01*
X112427000Y-41301130D01*
X112427000Y-41027022D01*
X117623154Y-41027022D01*
X120373001Y-43776870D01*
G36*
X99261243Y-35405113D02*
G01*
X99274607Y-35421397D01*
X99290891Y-35434761D01*
X99290900Y-35434770D01*
X99339625Y-35474757D01*
X99356368Y-35483706D01*
X99413806Y-35514407D01*
X99494295Y-35538824D01*
X99557024Y-35545002D01*
X99557034Y-35545002D01*
X99578001Y-35547067D01*
X99598968Y-35545002D01*
X118705130Y-35545002D01*
X118933129Y-35773001D01*
X109520967Y-35773001D01*
X109500000Y-35770936D01*
X109479033Y-35773001D01*
X109479023Y-35773001D01*
X109416294Y-35779179D01*
X109335805Y-35803596D01*
X109303581Y-35820820D01*
X109261624Y-35843246D01*
X109214880Y-35881608D01*
X109171605Y-35873000D01*
X109028399Y-35873000D01*
X108887944Y-35900938D01*
X108755638Y-35955741D01*
X108636566Y-36035302D01*
X108535304Y-36136564D01*
X108455743Y-36255636D01*
X108400940Y-36387942D01*
X108373002Y-36528397D01*
X108373002Y-36671603D01*
X108400940Y-36812058D01*
X108455743Y-36944364D01*
X108535304Y-37063436D01*
X108636566Y-37164698D01*
X108755638Y-37244259D01*
X108887944Y-37299062D01*
X109028399Y-37327000D01*
X109171605Y-37327000D01*
X109312060Y-37299062D01*
X109444366Y-37244259D01*
X109563438Y-37164698D01*
X109664700Y-37063436D01*
X109744261Y-36944364D01*
X109799064Y-36812058D01*
X109827002Y-36671603D01*
X109827002Y-36627001D01*
X110248857Y-36627001D01*
X110194976Y-36707640D01*
X110140173Y-36839946D01*
X110112235Y-36980401D01*
X110112235Y-37123607D01*
X110140173Y-37264062D01*
X110160627Y-37313443D01*
X110061434Y-37313443D01*
X110040477Y-37311379D01*
X110019520Y-37313443D01*
X110019500Y-37313443D01*
X109956771Y-37319621D01*
X109876282Y-37344038D01*
X109841751Y-37362495D01*
X109802101Y-37383688D01*
X109753376Y-37423676D01*
X109753373Y-37423679D01*
X109737083Y-37437048D01*
X109723714Y-37453338D01*
X109433845Y-37743208D01*
X97727078Y-37743208D01*
X97580057Y-37596188D01*
X97592667Y-37572597D01*
X97659969Y-37350732D01*
X97682694Y-37120000D01*
X97659969Y-36889268D01*
X97592667Y-36667403D01*
X97483374Y-36462930D01*
X97336291Y-36283709D01*
X97157070Y-36136626D01*
X96952597Y-36027333D01*
X96892115Y-36008986D01*
X97131252Y-35924157D01*
X97381355Y-35775178D01*
X97597588Y-35580269D01*
X97771641Y-35346920D01*
X97896825Y-35084099D01*
X97941476Y-34936890D01*
X97820155Y-34707000D01*
X96627000Y-34707000D01*
X96627000Y-34727000D01*
X96373000Y-34727000D01*
X96373000Y-34707000D01*
X96353000Y-34707000D01*
X96353000Y-34453000D01*
X96373000Y-34453000D01*
X96373000Y-34433000D01*
X96627000Y-34433000D01*
X96627000Y-34453000D01*
X97820155Y-34453000D01*
X97941476Y-34223110D01*
X97896825Y-34075901D01*
X97864804Y-34008673D01*
X99261243Y-35405113D01*
X99261243Y-35405113D01*
G37*
X99261243Y-35405113D02*
X99274607Y-35421397D01*
X99290891Y-35434761D01*
X99290900Y-35434770D01*
X99339625Y-35474757D01*
X99356368Y-35483706D01*
X99413806Y-35514407D01*
X99494295Y-35538824D01*
X99557024Y-35545002D01*
X99557034Y-35545002D01*
X99578001Y-35547067D01*
X99598968Y-35545002D01*
X118705130Y-35545002D01*
X118933129Y-35773001D01*
X109520967Y-35773001D01*
X109500000Y-35770936D01*
X109479033Y-35773001D01*
X109479023Y-35773001D01*
X109416294Y-35779179D01*
X109335805Y-35803596D01*
X109303581Y-35820820D01*
X109261624Y-35843246D01*
X109214880Y-35881608D01*
X109171605Y-35873000D01*
X109028399Y-35873000D01*
X108887944Y-35900938D01*
X108755638Y-35955741D01*
X108636566Y-36035302D01*
X108535304Y-36136564D01*
X108455743Y-36255636D01*
X108400940Y-36387942D01*
X108373002Y-36528397D01*
X108373002Y-36671603D01*
X108400940Y-36812058D01*
X108455743Y-36944364D01*
X108535304Y-37063436D01*
X108636566Y-37164698D01*
X108755638Y-37244259D01*
X108887944Y-37299062D01*
X109028399Y-37327000D01*
X109171605Y-37327000D01*
X109312060Y-37299062D01*
X109444366Y-37244259D01*
X109563438Y-37164698D01*
X109664700Y-37063436D01*
X109744261Y-36944364D01*
X109799064Y-36812058D01*
X109827002Y-36671603D01*
X109827002Y-36627001D01*
X110248857Y-36627001D01*
X110194976Y-36707640D01*
X110140173Y-36839946D01*
X110112235Y-36980401D01*
X110112235Y-37123607D01*
X110140173Y-37264062D01*
X110160627Y-37313443D01*
X110061434Y-37313443D01*
X110040477Y-37311379D01*
X110019520Y-37313443D01*
X110019500Y-37313443D01*
X109956771Y-37319621D01*
X109876282Y-37344038D01*
X109841751Y-37362495D01*
X109802101Y-37383688D01*
X109753376Y-37423676D01*
X109753373Y-37423679D01*
X109737083Y-37437048D01*
X109723714Y-37453338D01*
X109433845Y-37743208D01*
X97727078Y-37743208D01*
X97580057Y-37596188D01*
X97592667Y-37572597D01*
X97659969Y-37350732D01*
X97682694Y-37120000D01*
X97659969Y-36889268D01*
X97592667Y-36667403D01*
X97483374Y-36462930D01*
X97336291Y-36283709D01*
X97157070Y-36136626D01*
X96952597Y-36027333D01*
X96892115Y-36008986D01*
X97131252Y-35924157D01*
X97381355Y-35775178D01*
X97597588Y-35580269D01*
X97771641Y-35346920D01*
X97896825Y-35084099D01*
X97941476Y-34936890D01*
X97820155Y-34707000D01*
X96627000Y-34707000D01*
X96627000Y-34727000D01*
X96373000Y-34727000D01*
X96373000Y-34707000D01*
X96353000Y-34707000D01*
X96353000Y-34453000D01*
X96373000Y-34453000D01*
X96373000Y-34433000D01*
X96627000Y-34433000D01*
X96627000Y-34453000D01*
X97820155Y-34453000D01*
X97941476Y-34223110D01*
X97896825Y-34075901D01*
X97864804Y-34008673D01*
X99261243Y-35405113D01*
M02*
