G04 #@! TF.GenerationSoftware,KiCad,Pcbnew,(5.1.10)-1*
G04 #@! TF.CreationDate,2021-06-01T12:57:43+02:00*
G04 #@! TF.ProjectId,bobbycar,626f6262-7963-4617-922e-6b696361645f,rev?*
G04 #@! TF.SameCoordinates,Original*
G04 #@! TF.FileFunction,Copper,L2,Bot*
G04 #@! TF.FilePolarity,Positive*
%FSLAX46Y46*%
G04 Gerber Fmt 4.6, Leading zero omitted, Abs format (unit mm)*
G04 Created by KiCad (PCBNEW (5.1.10)-1) date 2021-06-01 12:57:43*
%MOMM*%
%LPD*%
G01*
G04 APERTURE LIST*
G04 #@! TA.AperFunction,ComponentPad*
%ADD10O,1.700000X1.700000*%
G04 #@! TD*
G04 #@! TA.AperFunction,ComponentPad*
%ADD11R,1.700000X1.700000*%
G04 #@! TD*
G04 #@! TA.AperFunction,ComponentPad*
%ADD12O,0.800000X1.300000*%
G04 #@! TD*
G04 #@! TA.AperFunction,ViaPad*
%ADD13C,0.800000*%
G04 #@! TD*
G04 #@! TA.AperFunction,ViaPad*
%ADD14C,0.600000*%
G04 #@! TD*
G04 #@! TA.AperFunction,Conductor*
%ADD15C,0.500000*%
G04 #@! TD*
G04 #@! TA.AperFunction,Conductor*
%ADD16C,0.300000*%
G04 #@! TD*
G04 #@! TA.AperFunction,Conductor*
%ADD17C,0.200000*%
G04 #@! TD*
G04 #@! TA.AperFunction,Conductor*
%ADD18C,0.150000*%
G04 #@! TD*
G04 #@! TA.AperFunction,Conductor*
%ADD19C,0.254000*%
G04 #@! TD*
G04 #@! TA.AperFunction,Conductor*
%ADD20C,0.100000*%
G04 #@! TD*
G04 APERTURE END LIST*
D10*
X103632000Y-48260000D03*
X103632000Y-45720000D03*
X103632000Y-43180000D03*
D11*
X103632000Y-40640000D03*
D12*
X134560000Y-59690000D03*
X133310000Y-59690000D03*
X132060000Y-59690000D03*
G04 #@! TA.AperFunction,ComponentPad*
G36*
G01*
X130410000Y-60140000D02*
X130410000Y-59240000D01*
G75*
G02*
X130610000Y-59040000I200000J0D01*
G01*
X131010000Y-59040000D01*
G75*
G02*
X131210000Y-59240000I0J-200000D01*
G01*
X131210000Y-60140000D01*
G75*
G02*
X131010000Y-60340000I-200000J0D01*
G01*
X130610000Y-60340000D01*
G75*
G02*
X130410000Y-60140000I0J200000D01*
G01*
G37*
G04 #@! TD.AperFunction*
D10*
X126320000Y-57000000D03*
X123780000Y-57000000D03*
X121240000Y-57000000D03*
X118700000Y-57000000D03*
X116160000Y-57000000D03*
X113620000Y-57000000D03*
X111080000Y-57000000D03*
X108540000Y-57000000D03*
D11*
X106000000Y-57000000D03*
D10*
X97282000Y-46990000D03*
X97282000Y-44450000D03*
X97282000Y-41910000D03*
X97282000Y-39370000D03*
D11*
X97282000Y-36830000D03*
D10*
X118320000Y-71000000D03*
X115780000Y-71000000D03*
X113240000Y-71000000D03*
D11*
X110700000Y-71000000D03*
D10*
X101092000Y-48260000D03*
X101092000Y-45720000D03*
X101092000Y-43180000D03*
D11*
X101092000Y-40640000D03*
D10*
X103124000Y-68880000D03*
X103124000Y-66340000D03*
D11*
X103124000Y-63800000D03*
D10*
X106172000Y-68834000D03*
X106172000Y-66294000D03*
D11*
X106172000Y-63754000D03*
D10*
X97282000Y-51308000D03*
X97282000Y-53848000D03*
X97282000Y-56388000D03*
X97282000Y-58928000D03*
D11*
X97282000Y-61468000D03*
D13*
X115000000Y-43250000D03*
X113000000Y-45250000D03*
X113000000Y-44250000D03*
X117000000Y-45250000D03*
X116000000Y-45250000D03*
X115000000Y-45250000D03*
X114000000Y-45250000D03*
X114000000Y-44250000D03*
X114000000Y-43250000D03*
X116000000Y-43250000D03*
X116000000Y-42250000D03*
X115000000Y-42250000D03*
X114000000Y-42250000D03*
X113000000Y-42250000D03*
X113000000Y-43250000D03*
X115000000Y-44250000D03*
X116000000Y-44250000D03*
X117000000Y-44250000D03*
X117000000Y-43250000D03*
X117000000Y-42250000D03*
X113000000Y-41300032D03*
X116000000Y-41300032D03*
X114000000Y-41300032D03*
X115000000Y-41300032D03*
X117000000Y-41300032D03*
D14*
X117094000Y-59182000D03*
X130048000Y-61722000D03*
X105918000Y-70612000D03*
X97500000Y-71000000D03*
X99250000Y-72250000D03*
X96000000Y-72250000D03*
X96000000Y-49000000D03*
X97750000Y-49000000D03*
X96000000Y-34250000D03*
X98750000Y-34250000D03*
X96000000Y-32750000D03*
X98750000Y-32750000D03*
X98750000Y-31250000D03*
X96000000Y-31250000D03*
X96000000Y-29750000D03*
X98750000Y-29750000D03*
X101000000Y-29750000D03*
X101000000Y-31250000D03*
X101000000Y-32750000D03*
X101000000Y-34250000D03*
X101000000Y-35750000D03*
X109500000Y-35750000D03*
X110500000Y-35750000D03*
X109500000Y-34750000D03*
X110500000Y-34750000D03*
X130250000Y-39250000D03*
X126750000Y-39500000D03*
X126750000Y-40750000D03*
X136500000Y-39000000D03*
X136500000Y-40750000D03*
X133250000Y-39250000D03*
X131750000Y-38000000D03*
X133250000Y-49000000D03*
X134500000Y-50500000D03*
X135750000Y-48500000D03*
X136500000Y-44500000D03*
X136500000Y-42750000D03*
X136500000Y-46750000D03*
X136500000Y-51250000D03*
X97750000Y-63500000D03*
X101250000Y-63250000D03*
X131750000Y-33500000D03*
X133750000Y-33500000D03*
X135500000Y-33500000D03*
X135500000Y-32000000D03*
X133750000Y-32000000D03*
X131750000Y-32000000D03*
X131750000Y-30500000D03*
X133750000Y-30500000D03*
X135500000Y-30500000D03*
X131750000Y-29000000D03*
X133750000Y-29000000D03*
X135500000Y-29000000D03*
X122500000Y-35750000D03*
X122500000Y-34750000D03*
X121500000Y-35750000D03*
X121500000Y-34750000D03*
X133250000Y-50500000D03*
X104200000Y-60100000D03*
X106000000Y-60100000D03*
X104200000Y-61400000D03*
X128200000Y-72400000D03*
X124400000Y-72300000D03*
X120300000Y-59300000D03*
X109700000Y-59200000D03*
X127100000Y-64300000D03*
X122700000Y-64300000D03*
X111000000Y-61500000D03*
X107700000Y-60100000D03*
X130800000Y-58100000D03*
X129700000Y-59000000D03*
X107600000Y-72400000D03*
X122300000Y-48900000D03*
X118100000Y-49600000D03*
X120100000Y-45600000D03*
X113300000Y-48200000D03*
X111500000Y-51000000D03*
X118900000Y-60200000D03*
X114000000Y-68300000D03*
X118900000Y-65500014D03*
X132000000Y-48750000D03*
X128524000Y-63224000D03*
X129000000Y-68500000D03*
X133457100Y-63357100D03*
X120800000Y-63800000D03*
X127924000Y-52838500D03*
X127762000Y-59690000D03*
X128270000Y-45720000D03*
X121400000Y-62500000D03*
X101092000Y-50300000D03*
X110500000Y-50300000D03*
X114046000Y-51562000D03*
X100838000Y-53848000D03*
X100838000Y-51238002D03*
X109600000Y-51200000D03*
X104140000Y-56388000D03*
X118600000Y-46900000D03*
X104140000Y-51750010D03*
X100838000Y-58928000D03*
X101600000Y-52324000D03*
X119200000Y-47600000D03*
X124400000Y-70500000D03*
X99314000Y-42164000D03*
X99314000Y-63246000D03*
X98489000Y-67755000D03*
X109000000Y-42000000D03*
X109000000Y-43400000D03*
X99896001Y-44629999D03*
X100076000Y-63246000D03*
X100013000Y-66357000D03*
X126238000Y-43179988D03*
X126199988Y-48260623D03*
X126788000Y-44704000D03*
X126733160Y-49543502D03*
D13*
X121666000Y-55372000D03*
D14*
X122682000Y-37084000D03*
X124500000Y-61500000D03*
X130556000Y-55626000D03*
X100838000Y-70866000D03*
X127762000Y-38354000D03*
X129064916Y-47532920D03*
X127508000Y-42164000D03*
X127500000Y-48750000D03*
X129286000Y-53594000D03*
X134366000Y-53866000D03*
X105400000Y-49700000D03*
X121600000Y-47100000D03*
X120999999Y-50899999D03*
X122200000Y-45900000D03*
X122800000Y-44700000D03*
D15*
X109200000Y-60200000D02*
X118900000Y-60200000D01*
X109200000Y-60200000D02*
X106000000Y-57000000D01*
D16*
X128524000Y-61214000D02*
X128524000Y-63224000D01*
X128524000Y-52226000D02*
X132000000Y-48750000D01*
X128524000Y-61214000D02*
X128524000Y-52226000D01*
D15*
X133457100Y-64042900D02*
X129000000Y-68500000D01*
X133457100Y-63357100D02*
X133457100Y-64042900D01*
X118899986Y-65500000D02*
X118900000Y-65500014D01*
X116800000Y-65500000D02*
X118899986Y-65500000D01*
X114000000Y-68300000D02*
X116800000Y-65500000D01*
X120600014Y-63800000D02*
X120800000Y-63800000D01*
X118900000Y-65500014D02*
X120600014Y-63800000D01*
X127924000Y-59528000D02*
X127762000Y-59690000D01*
X127924000Y-52838500D02*
X127924000Y-59528000D01*
D17*
X128233917Y-45756083D02*
X128270000Y-45720000D01*
D15*
X127924000Y-49362004D02*
X128233917Y-49052087D01*
X128233917Y-49052087D02*
X128233917Y-45756083D01*
X127924000Y-52838500D02*
X127924000Y-49362004D01*
X107426000Y-62500000D02*
X106172000Y-63754000D01*
X121400000Y-62500000D02*
X107426000Y-62500000D01*
X101092000Y-50300000D02*
X101192000Y-50400000D01*
X101192000Y-50400000D02*
X110400000Y-50400000D01*
X110400000Y-50400000D02*
X110500000Y-50300000D01*
D17*
X112733999Y-52874001D02*
X100626001Y-52874001D01*
X114046000Y-51562000D02*
X112733999Y-52874001D01*
X99060000Y-51308000D02*
X97282000Y-51308000D01*
X100626001Y-52874001D02*
X99060000Y-51308000D01*
D16*
X97282000Y-53848000D02*
X100838000Y-53848000D01*
D17*
X100876002Y-51200000D02*
X109600000Y-51200000D01*
X100838000Y-51238002D02*
X100876002Y-51200000D01*
X104140000Y-56388000D02*
X97282000Y-56388000D01*
X104189990Y-51800000D02*
X104140000Y-51750010D01*
X111776000Y-51800000D02*
X104189990Y-51800000D01*
X116676000Y-46900000D02*
X111776000Y-51800000D01*
X118600000Y-46900000D02*
X116676000Y-46900000D01*
D16*
X97282000Y-58928000D02*
X100838000Y-58928000D01*
D17*
X101600000Y-52324000D02*
X112040001Y-52324000D01*
X112040001Y-52324000D02*
X116764001Y-47600000D01*
X116764001Y-47600000D02*
X119200000Y-47600000D01*
D15*
X134560000Y-59690000D02*
X134560000Y-61264250D01*
X134560000Y-61264250D02*
X125324250Y-70500000D01*
X125324250Y-70500000D02*
X124400000Y-70500000D01*
D17*
X99314000Y-63246000D02*
X99314000Y-66930000D01*
X99314000Y-66930000D02*
X98489000Y-67755000D01*
X109000000Y-42000000D02*
X99478000Y-42000000D01*
X99478000Y-42000000D02*
X99314000Y-42164000D01*
X107770001Y-44629999D02*
X99896001Y-44629999D01*
X109000000Y-43400000D02*
X107770001Y-44629999D01*
X100076000Y-66294000D02*
X100013000Y-66357000D01*
X100076000Y-63246000D02*
X100076000Y-66294000D01*
X126238000Y-43179988D02*
X126238000Y-48222611D01*
X126238000Y-48222611D02*
X126199988Y-48260623D01*
D18*
X126788000Y-44704000D02*
X126724998Y-44767002D01*
X126724998Y-49535340D02*
X126733160Y-49543502D01*
D17*
X126724998Y-44767002D02*
X126724998Y-49535340D01*
X115248000Y-55372000D02*
X121666000Y-55372000D01*
X113620000Y-57000000D02*
X115248000Y-55372000D01*
X123780000Y-38182000D02*
X122682000Y-37084000D01*
X123780000Y-54720000D02*
X123780000Y-54780000D01*
X123780000Y-54720000D02*
X123780000Y-38182000D01*
X125050001Y-56050001D02*
X125050001Y-60949999D01*
X123780000Y-54780000D02*
X125050001Y-56050001D01*
X125050001Y-60949999D02*
X124500000Y-61500000D01*
X132060000Y-59690000D02*
X132060000Y-57130000D01*
X132060000Y-57130000D02*
X130556000Y-55626000D01*
D16*
X115140000Y-69100000D02*
X113240000Y-71000000D01*
X124448000Y-69100000D02*
X115140000Y-69100000D01*
X132060000Y-61488000D02*
X124448000Y-69100000D01*
X132060000Y-59690000D02*
X132060000Y-61488000D01*
X116980000Y-69800000D02*
X115780000Y-71000000D01*
X124764000Y-69800000D02*
X116980000Y-69800000D01*
X133310000Y-61254000D02*
X124764000Y-69800000D01*
X133310000Y-59690000D02*
X133310000Y-61254000D01*
D17*
X106172000Y-66294000D02*
X104648000Y-67818000D01*
X104648000Y-67818000D02*
X104648000Y-70358000D01*
X104648000Y-70358000D02*
X104140000Y-70866000D01*
X104140000Y-70866000D02*
X100838000Y-70866000D01*
X127762000Y-38354000D02*
X129064916Y-39656916D01*
X129064916Y-39656916D02*
X129064916Y-47532920D01*
X127508000Y-42164000D02*
X127508000Y-48742000D01*
X127508000Y-48742000D02*
X127500000Y-48750000D01*
X134094000Y-53594000D02*
X134366000Y-53866000D01*
X129286000Y-53594000D02*
X134094000Y-53594000D01*
D16*
X97282000Y-46990000D02*
X99992000Y-49700000D01*
X99992000Y-49700000D02*
X105400000Y-49700000D01*
X97282000Y-41910000D02*
X97282000Y-41518000D01*
X117036433Y-38300022D02*
X121600000Y-42863589D01*
X97282000Y-41518000D02*
X100499978Y-38300022D01*
X121600000Y-42863589D02*
X121600000Y-47100000D01*
X100499978Y-38300022D02*
X117036433Y-38300022D01*
X116850033Y-38750033D02*
X120999999Y-42899999D01*
X100749967Y-38750033D02*
X116850033Y-38750033D01*
X98713999Y-43018001D02*
X98713999Y-40786001D01*
X98713999Y-40786001D02*
X100749967Y-38750033D01*
X97282000Y-44450000D02*
X98713999Y-43018001D01*
X120999999Y-42899999D02*
X120999999Y-50899999D01*
X98801989Y-37850011D02*
X117222833Y-37850011D01*
X97282000Y-39370000D02*
X98801989Y-37850011D01*
X122200000Y-42827178D02*
X122200000Y-45900000D01*
X117222833Y-37850011D02*
X122200000Y-42827178D01*
X122800000Y-42790767D02*
X122800000Y-44700000D01*
X117409233Y-37400000D02*
X122800000Y-42790767D01*
X97852000Y-37400000D02*
X117409233Y-37400000D01*
X97282000Y-36830000D02*
X97852000Y-37400000D01*
D19*
X101473000Y-34200000D02*
X101475440Y-34224776D01*
X101482667Y-34248601D01*
X101494403Y-34270557D01*
X101510197Y-34289803D01*
X101529443Y-34305597D01*
X101551399Y-34317333D01*
X101575224Y-34324560D01*
X101600000Y-34327000D01*
X130200000Y-34327000D01*
X130224776Y-34324560D01*
X130248601Y-34317333D01*
X130270557Y-34305597D01*
X130289803Y-34289803D01*
X130305597Y-34270557D01*
X130317333Y-34248601D01*
X130324560Y-34224776D01*
X130327000Y-34200000D01*
X130327000Y-28152000D01*
X135992561Y-28152000D01*
X136164569Y-28168866D01*
X136322871Y-28216660D01*
X136468872Y-28294289D01*
X136597015Y-28398800D01*
X136702418Y-28526209D01*
X136781069Y-28671671D01*
X136829966Y-28829631D01*
X136848000Y-29001211D01*
X136848001Y-71992552D01*
X136831134Y-72164569D01*
X136783340Y-72322871D01*
X136705710Y-72468873D01*
X136601200Y-72597015D01*
X136473788Y-72702419D01*
X136328328Y-72781069D01*
X136170369Y-72829966D01*
X135998789Y-72848000D01*
X96007438Y-72848000D01*
X95835431Y-72831134D01*
X95677129Y-72783340D01*
X95531127Y-72705710D01*
X95402985Y-72601200D01*
X95297581Y-72473788D01*
X95218931Y-72328328D01*
X95170034Y-72170369D01*
X95152000Y-71998789D01*
X95152000Y-71850000D01*
X109211928Y-71850000D01*
X109224188Y-71974482D01*
X109260498Y-72094180D01*
X109319463Y-72204494D01*
X109398815Y-72301185D01*
X109495506Y-72380537D01*
X109605820Y-72439502D01*
X109725518Y-72475812D01*
X109850000Y-72488072D01*
X110414250Y-72485000D01*
X110573000Y-72326250D01*
X110573000Y-71127000D01*
X109373750Y-71127000D01*
X109215000Y-71285750D01*
X109211928Y-71850000D01*
X95152000Y-71850000D01*
X95152000Y-70809170D01*
X100261000Y-70809170D01*
X100261000Y-70922830D01*
X100283174Y-71034305D01*
X100326669Y-71139312D01*
X100389815Y-71233816D01*
X100470184Y-71314185D01*
X100564688Y-71377331D01*
X100669695Y-71420826D01*
X100781170Y-71443000D01*
X100894830Y-71443000D01*
X101006305Y-71420826D01*
X101111312Y-71377331D01*
X101205816Y-71314185D01*
X101277001Y-71243000D01*
X104121488Y-71243000D01*
X104140000Y-71244823D01*
X104158512Y-71243000D01*
X104158519Y-71243000D01*
X104213905Y-71237545D01*
X104284970Y-71215988D01*
X104350463Y-71180981D01*
X104407869Y-71133869D01*
X104419677Y-71119481D01*
X104901481Y-70637677D01*
X104915869Y-70625869D01*
X104962981Y-70568463D01*
X104997988Y-70502970D01*
X105019545Y-70431905D01*
X105025000Y-70376519D01*
X105025000Y-70376510D01*
X105026823Y-70358001D01*
X105025000Y-70339492D01*
X105025000Y-69768023D01*
X105074412Y-69834269D01*
X105290645Y-70029178D01*
X105540748Y-70178157D01*
X105815109Y-70275481D01*
X106045000Y-70154814D01*
X106045000Y-68961000D01*
X106299000Y-68961000D01*
X106299000Y-70154814D01*
X106528891Y-70275481D01*
X106803252Y-70178157D01*
X106850521Y-70150000D01*
X109211928Y-70150000D01*
X109215000Y-70714250D01*
X109373750Y-70873000D01*
X110573000Y-70873000D01*
X110573000Y-69673750D01*
X110827000Y-69673750D01*
X110827000Y-70873000D01*
X110847000Y-70873000D01*
X110847000Y-71127000D01*
X110827000Y-71127000D01*
X110827000Y-72326250D01*
X110985750Y-72485000D01*
X111550000Y-72488072D01*
X111674482Y-72475812D01*
X111794180Y-72439502D01*
X111904494Y-72380537D01*
X112001185Y-72301185D01*
X112080537Y-72204494D01*
X112139502Y-72094180D01*
X112175812Y-71974482D01*
X112188072Y-71850000D01*
X112185619Y-71399492D01*
X112241266Y-71533835D01*
X112364602Y-71718421D01*
X112521579Y-71875398D01*
X112706165Y-71998734D01*
X112911266Y-72083690D01*
X113129000Y-72127000D01*
X113351000Y-72127000D01*
X113568734Y-72083690D01*
X113773835Y-71998734D01*
X113958421Y-71875398D01*
X114115398Y-71718421D01*
X114238734Y-71533835D01*
X114323690Y-71328734D01*
X114367000Y-71111000D01*
X114367000Y-70889000D01*
X114323690Y-70671266D01*
X114279437Y-70564431D01*
X115316869Y-69527000D01*
X116649130Y-69527000D01*
X116215568Y-69960562D01*
X116108734Y-69916310D01*
X115891000Y-69873000D01*
X115669000Y-69873000D01*
X115451266Y-69916310D01*
X115246165Y-70001266D01*
X115061579Y-70124602D01*
X114904602Y-70281579D01*
X114781266Y-70466165D01*
X114696310Y-70671266D01*
X114653000Y-70889000D01*
X114653000Y-71111000D01*
X114696310Y-71328734D01*
X114781266Y-71533835D01*
X114904602Y-71718421D01*
X115061579Y-71875398D01*
X115246165Y-71998734D01*
X115451266Y-72083690D01*
X115669000Y-72127000D01*
X115891000Y-72127000D01*
X116108734Y-72083690D01*
X116313835Y-71998734D01*
X116498421Y-71875398D01*
X116655398Y-71718421D01*
X116778734Y-71533835D01*
X116863690Y-71328734D01*
X116907000Y-71111000D01*
X116907000Y-70889000D01*
X116863690Y-70671266D01*
X116819438Y-70564432D01*
X117156870Y-70227000D01*
X117499181Y-70227000D01*
X117444602Y-70281579D01*
X117321266Y-70466165D01*
X117236310Y-70671266D01*
X117193000Y-70889000D01*
X117193000Y-71111000D01*
X117236310Y-71328734D01*
X117321266Y-71533835D01*
X117444602Y-71718421D01*
X117601579Y-71875398D01*
X117786165Y-71998734D01*
X117991266Y-72083690D01*
X118209000Y-72127000D01*
X118431000Y-72127000D01*
X118648734Y-72083690D01*
X118853835Y-71998734D01*
X119038421Y-71875398D01*
X119195398Y-71718421D01*
X119318734Y-71533835D01*
X119403690Y-71328734D01*
X119447000Y-71111000D01*
X119447000Y-70889000D01*
X119403690Y-70671266D01*
X119318734Y-70466165D01*
X119195398Y-70281579D01*
X119140819Y-70227000D01*
X123888540Y-70227000D01*
X123845174Y-70331695D01*
X123823000Y-70443170D01*
X123823000Y-70556830D01*
X123845174Y-70668305D01*
X123888669Y-70773312D01*
X123951815Y-70867816D01*
X124032184Y-70948185D01*
X124126688Y-71011331D01*
X124231695Y-71054826D01*
X124343170Y-71077000D01*
X124456830Y-71077000D01*
X124568305Y-71054826D01*
X124635483Y-71027000D01*
X125298369Y-71027000D01*
X125324250Y-71029549D01*
X125350131Y-71027000D01*
X125427560Y-71019374D01*
X125526900Y-70989239D01*
X125618452Y-70940304D01*
X125698698Y-70874448D01*
X125715205Y-70854334D01*
X132930100Y-63639440D01*
X132930100Y-63824610D01*
X128793869Y-67960842D01*
X128726688Y-67988669D01*
X128632184Y-68051815D01*
X128551815Y-68132184D01*
X128488669Y-68226688D01*
X128445174Y-68331695D01*
X128423000Y-68443170D01*
X128423000Y-68556830D01*
X128445174Y-68668305D01*
X128488669Y-68773312D01*
X128551815Y-68867816D01*
X128632184Y-68948185D01*
X128726688Y-69011331D01*
X128831695Y-69054826D01*
X128943170Y-69077000D01*
X129056830Y-69077000D01*
X129168305Y-69054826D01*
X129273312Y-69011331D01*
X129367816Y-68948185D01*
X129448185Y-68867816D01*
X129511331Y-68773312D01*
X129539158Y-68706131D01*
X133811439Y-64433851D01*
X133831548Y-64417348D01*
X133897404Y-64337102D01*
X133946339Y-64245550D01*
X133976474Y-64146210D01*
X133984100Y-64068781D01*
X133984100Y-64068779D01*
X133986649Y-64042901D01*
X133984100Y-64017023D01*
X133984100Y-63592583D01*
X134011926Y-63525405D01*
X134034100Y-63413930D01*
X134034100Y-63300270D01*
X134011926Y-63188795D01*
X133968431Y-63083788D01*
X133905285Y-62989284D01*
X133824916Y-62908915D01*
X133730412Y-62845769D01*
X133725716Y-62843824D01*
X134914339Y-61655201D01*
X134934448Y-61638698D01*
X135000304Y-61558452D01*
X135049239Y-61466900D01*
X135079374Y-61367560D01*
X135087000Y-61290131D01*
X135089549Y-61264250D01*
X135087000Y-61238369D01*
X135087000Y-60365009D01*
X135125628Y-60317941D01*
X135188492Y-60200330D01*
X135227204Y-60072715D01*
X135237000Y-59973252D01*
X135237000Y-59406748D01*
X135227204Y-59307285D01*
X135188492Y-59179670D01*
X135125628Y-59062059D01*
X135041026Y-58958973D01*
X134937940Y-58874372D01*
X134820329Y-58811508D01*
X134692714Y-58772796D01*
X134560000Y-58759725D01*
X134427285Y-58772796D01*
X134299670Y-58811508D01*
X134182059Y-58874372D01*
X134078973Y-58958974D01*
X133994372Y-59062060D01*
X133935000Y-59173137D01*
X133875628Y-59062059D01*
X133791026Y-58958973D01*
X133687940Y-58874372D01*
X133570329Y-58811508D01*
X133442714Y-58772796D01*
X133310000Y-58759725D01*
X133177285Y-58772796D01*
X133049670Y-58811508D01*
X132932059Y-58874372D01*
X132828973Y-58958974D01*
X132744372Y-59062060D01*
X132685000Y-59173137D01*
X132625628Y-59062059D01*
X132541026Y-58958973D01*
X132437940Y-58874372D01*
X132437000Y-58873870D01*
X132437000Y-57148508D01*
X132438823Y-57129999D01*
X132437000Y-57111490D01*
X132437000Y-57111481D01*
X132431545Y-57056095D01*
X132409988Y-56985030D01*
X132374981Y-56919537D01*
X132327869Y-56862131D01*
X132313487Y-56850328D01*
X131133000Y-55669842D01*
X131133000Y-55569170D01*
X131110826Y-55457695D01*
X131067331Y-55352688D01*
X131004185Y-55258184D01*
X130923816Y-55177815D01*
X130829312Y-55114669D01*
X130724305Y-55071174D01*
X130612830Y-55049000D01*
X130499170Y-55049000D01*
X130387695Y-55071174D01*
X130282688Y-55114669D01*
X130188184Y-55177815D01*
X130107815Y-55258184D01*
X130044669Y-55352688D01*
X130001174Y-55457695D01*
X129979000Y-55569170D01*
X129979000Y-55682830D01*
X130001174Y-55794305D01*
X130044669Y-55899312D01*
X130107815Y-55993816D01*
X130188184Y-56074185D01*
X130282688Y-56137331D01*
X130387695Y-56180826D01*
X130499170Y-56203000D01*
X130599842Y-56203000D01*
X131683001Y-57286160D01*
X131683000Y-58615397D01*
X131661185Y-58588815D01*
X131564494Y-58509463D01*
X131454180Y-58450498D01*
X131334482Y-58414188D01*
X131210000Y-58401928D01*
X131095750Y-58405000D01*
X130937000Y-58563750D01*
X130937000Y-59563000D01*
X130957000Y-59563000D01*
X130957000Y-59817000D01*
X130937000Y-59817000D01*
X130937000Y-60816250D01*
X131095750Y-60975000D01*
X131210000Y-60978072D01*
X131334482Y-60965812D01*
X131454180Y-60929502D01*
X131564494Y-60870537D01*
X131633001Y-60814315D01*
X131633001Y-61311130D01*
X124271132Y-68673000D01*
X115160967Y-68673000D01*
X115140000Y-68670935D01*
X115119033Y-68673000D01*
X115119022Y-68673000D01*
X115056293Y-68679178D01*
X114975804Y-68703595D01*
X114969434Y-68707000D01*
X114901623Y-68743244D01*
X114852899Y-68783232D01*
X114852895Y-68783236D01*
X114836605Y-68796605D01*
X114823236Y-68812895D01*
X113675569Y-69960563D01*
X113568734Y-69916310D01*
X113351000Y-69873000D01*
X113129000Y-69873000D01*
X112911266Y-69916310D01*
X112706165Y-70001266D01*
X112521579Y-70124602D01*
X112364602Y-70281579D01*
X112241266Y-70466165D01*
X112185619Y-70600508D01*
X112188072Y-70150000D01*
X112175812Y-70025518D01*
X112139502Y-69905820D01*
X112080537Y-69795506D01*
X112001185Y-69698815D01*
X111904494Y-69619463D01*
X111794180Y-69560498D01*
X111674482Y-69524188D01*
X111550000Y-69511928D01*
X110985750Y-69515000D01*
X110827000Y-69673750D01*
X110573000Y-69673750D01*
X110414250Y-69515000D01*
X109850000Y-69511928D01*
X109725518Y-69524188D01*
X109605820Y-69560498D01*
X109495506Y-69619463D01*
X109398815Y-69698815D01*
X109319463Y-69795506D01*
X109260498Y-69905820D01*
X109224188Y-70025518D01*
X109211928Y-70150000D01*
X106850521Y-70150000D01*
X107053355Y-70029178D01*
X107269588Y-69834269D01*
X107443641Y-69600920D01*
X107568825Y-69338099D01*
X107613476Y-69190890D01*
X107492155Y-68961000D01*
X106299000Y-68961000D01*
X106045000Y-68961000D01*
X106025000Y-68961000D01*
X106025000Y-68707000D01*
X106045000Y-68707000D01*
X106045000Y-68687000D01*
X106299000Y-68687000D01*
X106299000Y-68707000D01*
X107492155Y-68707000D01*
X107613476Y-68477110D01*
X107568825Y-68329901D01*
X107527515Y-68243170D01*
X113423000Y-68243170D01*
X113423000Y-68356830D01*
X113445174Y-68468305D01*
X113488669Y-68573312D01*
X113551815Y-68667816D01*
X113632184Y-68748185D01*
X113726688Y-68811331D01*
X113831695Y-68854826D01*
X113943170Y-68877000D01*
X114056830Y-68877000D01*
X114168305Y-68854826D01*
X114273312Y-68811331D01*
X114367816Y-68748185D01*
X114448185Y-68667816D01*
X114511331Y-68573312D01*
X114539158Y-68506131D01*
X117018290Y-66027000D01*
X118664483Y-66027000D01*
X118731695Y-66054840D01*
X118843170Y-66077014D01*
X118956830Y-66077014D01*
X119068305Y-66054840D01*
X119173312Y-66011345D01*
X119267816Y-65948199D01*
X119348185Y-65867830D01*
X119411331Y-65773326D01*
X119439158Y-65706145D01*
X120768305Y-64377000D01*
X120856830Y-64377000D01*
X120968305Y-64354826D01*
X121073312Y-64311331D01*
X121167816Y-64248185D01*
X121248185Y-64167816D01*
X121311331Y-64073312D01*
X121354826Y-63968305D01*
X121377000Y-63856830D01*
X121377000Y-63743170D01*
X121354826Y-63631695D01*
X121311331Y-63526688D01*
X121248185Y-63432184D01*
X121167816Y-63351815D01*
X121073312Y-63288669D01*
X120968305Y-63245174D01*
X120856830Y-63223000D01*
X120743170Y-63223000D01*
X120631695Y-63245174D01*
X120561517Y-63274243D01*
X120496704Y-63280626D01*
X120397364Y-63310761D01*
X120305812Y-63359696D01*
X120225566Y-63425552D01*
X120209067Y-63445656D01*
X118693869Y-64960856D01*
X118664550Y-64973000D01*
X116825881Y-64973000D01*
X116800000Y-64970451D01*
X116774119Y-64973000D01*
X116696690Y-64980626D01*
X116597350Y-65010761D01*
X116505798Y-65059696D01*
X116425552Y-65125552D01*
X116409049Y-65145661D01*
X113793869Y-67760842D01*
X113726688Y-67788669D01*
X113632184Y-67851815D01*
X113551815Y-67932184D01*
X113488669Y-68026688D01*
X113445174Y-68131695D01*
X113423000Y-68243170D01*
X107527515Y-68243170D01*
X107443641Y-68067080D01*
X107269588Y-67833731D01*
X107053355Y-67638822D01*
X106803252Y-67489843D01*
X106528891Y-67392519D01*
X106299002Y-67513185D01*
X106299002Y-67417817D01*
X106500734Y-67377690D01*
X106705835Y-67292734D01*
X106890421Y-67169398D01*
X107047398Y-67012421D01*
X107170734Y-66827835D01*
X107255690Y-66622734D01*
X107299000Y-66405000D01*
X107299000Y-66183000D01*
X107255690Y-65965266D01*
X107170734Y-65760165D01*
X107047398Y-65575579D01*
X106890421Y-65418602D01*
X106705835Y-65295266D01*
X106500734Y-65210310D01*
X106283000Y-65167000D01*
X106061000Y-65167000D01*
X105843266Y-65210310D01*
X105638165Y-65295266D01*
X105453579Y-65418602D01*
X105296602Y-65575579D01*
X105173266Y-65760165D01*
X105088310Y-65965266D01*
X105045000Y-66183000D01*
X105045000Y-66405000D01*
X105088310Y-66622734D01*
X105153273Y-66779569D01*
X104394519Y-67538323D01*
X104380131Y-67550131D01*
X104333019Y-67607538D01*
X104298012Y-67673031D01*
X104276455Y-67744096D01*
X104271000Y-67799482D01*
X104271000Y-67799488D01*
X104269177Y-67818000D01*
X104271000Y-67836512D01*
X104271000Y-67945977D01*
X104221588Y-67879731D01*
X104005355Y-67684822D01*
X103755252Y-67535843D01*
X103480891Y-67438519D01*
X103251002Y-67559185D01*
X103251002Y-67463817D01*
X103452734Y-67423690D01*
X103657835Y-67338734D01*
X103842421Y-67215398D01*
X103999398Y-67058421D01*
X104122734Y-66873835D01*
X104207690Y-66668734D01*
X104251000Y-66451000D01*
X104251000Y-66229000D01*
X104207690Y-66011266D01*
X104122734Y-65806165D01*
X103999398Y-65621579D01*
X103842421Y-65464602D01*
X103657835Y-65341266D01*
X103452734Y-65256310D01*
X103235000Y-65213000D01*
X103013000Y-65213000D01*
X102795266Y-65256310D01*
X102590165Y-65341266D01*
X102405579Y-65464602D01*
X102248602Y-65621579D01*
X102125266Y-65806165D01*
X102040310Y-66011266D01*
X101997000Y-66229000D01*
X101997000Y-66451000D01*
X102040310Y-66668734D01*
X102125266Y-66873835D01*
X102248602Y-67058421D01*
X102405579Y-67215398D01*
X102590165Y-67338734D01*
X102795266Y-67423690D01*
X102996998Y-67463817D01*
X102996998Y-67559185D01*
X102767109Y-67438519D01*
X102492748Y-67535843D01*
X102242645Y-67684822D01*
X102026412Y-67879731D01*
X101852359Y-68113080D01*
X101727175Y-68375901D01*
X101682524Y-68523110D01*
X101803845Y-68753000D01*
X102997000Y-68753000D01*
X102997000Y-68733000D01*
X103251000Y-68733000D01*
X103251000Y-68753000D01*
X103271000Y-68753000D01*
X103271000Y-69007000D01*
X103251000Y-69007000D01*
X103251000Y-70200814D01*
X103480891Y-70321481D01*
X103755252Y-70224157D01*
X104005355Y-70075178D01*
X104221588Y-69880269D01*
X104271001Y-69814022D01*
X104271001Y-70201841D01*
X103983842Y-70489000D01*
X101277001Y-70489000D01*
X101205816Y-70417815D01*
X101111312Y-70354669D01*
X101006305Y-70311174D01*
X100894830Y-70289000D01*
X100781170Y-70289000D01*
X100669695Y-70311174D01*
X100564688Y-70354669D01*
X100470184Y-70417815D01*
X100389815Y-70498184D01*
X100326669Y-70592688D01*
X100283174Y-70697695D01*
X100261000Y-70809170D01*
X95152000Y-70809170D01*
X95152000Y-69236890D01*
X101682524Y-69236890D01*
X101727175Y-69384099D01*
X101852359Y-69646920D01*
X102026412Y-69880269D01*
X102242645Y-70075178D01*
X102492748Y-70224157D01*
X102767109Y-70321481D01*
X102997000Y-70200814D01*
X102997000Y-69007000D01*
X101803845Y-69007000D01*
X101682524Y-69236890D01*
X95152000Y-69236890D01*
X95152000Y-67698170D01*
X97912000Y-67698170D01*
X97912000Y-67811830D01*
X97934174Y-67923305D01*
X97977669Y-68028312D01*
X98040815Y-68122816D01*
X98121184Y-68203185D01*
X98215688Y-68266331D01*
X98320695Y-68309826D01*
X98432170Y-68332000D01*
X98545830Y-68332000D01*
X98657305Y-68309826D01*
X98762312Y-68266331D01*
X98856816Y-68203185D01*
X98937185Y-68122816D01*
X99000331Y-68028312D01*
X99043826Y-67923305D01*
X99066000Y-67811830D01*
X99066000Y-67711158D01*
X99567487Y-67209672D01*
X99581869Y-67197869D01*
X99628981Y-67140463D01*
X99663988Y-67074970D01*
X99685545Y-67003905D01*
X99691000Y-66948519D01*
X99691000Y-66948510D01*
X99692823Y-66930001D01*
X99691000Y-66911492D01*
X99691000Y-66835798D01*
X99739688Y-66868331D01*
X99844695Y-66911826D01*
X99956170Y-66934000D01*
X100069830Y-66934000D01*
X100181305Y-66911826D01*
X100286312Y-66868331D01*
X100380816Y-66805185D01*
X100461185Y-66724816D01*
X100524331Y-66630312D01*
X100567826Y-66525305D01*
X100590000Y-66413830D01*
X100590000Y-66300170D01*
X100567826Y-66188695D01*
X100524331Y-66083688D01*
X100461185Y-65989184D01*
X100453000Y-65980999D01*
X100453000Y-63685001D01*
X100524185Y-63613816D01*
X100587331Y-63519312D01*
X100630826Y-63414305D01*
X100653000Y-63302830D01*
X100653000Y-63189170D01*
X100630826Y-63077695D01*
X100587331Y-62972688D01*
X100572172Y-62950000D01*
X101995660Y-62950000D01*
X101995660Y-64650000D01*
X102001008Y-64704301D01*
X102016847Y-64756516D01*
X102042569Y-64804637D01*
X102077184Y-64846816D01*
X102119363Y-64881431D01*
X102167484Y-64907153D01*
X102219699Y-64922992D01*
X102274000Y-64928340D01*
X103974000Y-64928340D01*
X104028301Y-64922992D01*
X104080516Y-64907153D01*
X104128637Y-64881431D01*
X104170816Y-64846816D01*
X104205431Y-64804637D01*
X104231153Y-64756516D01*
X104246992Y-64704301D01*
X104252340Y-64650000D01*
X104252340Y-62950000D01*
X104247810Y-62904000D01*
X105043660Y-62904000D01*
X105043660Y-64604000D01*
X105049008Y-64658301D01*
X105064847Y-64710516D01*
X105090569Y-64758637D01*
X105125184Y-64800816D01*
X105167363Y-64835431D01*
X105215484Y-64861153D01*
X105267699Y-64876992D01*
X105322000Y-64882340D01*
X107022000Y-64882340D01*
X107076301Y-64876992D01*
X107128516Y-64861153D01*
X107176637Y-64835431D01*
X107218816Y-64800816D01*
X107253431Y-64758637D01*
X107279153Y-64710516D01*
X107294992Y-64658301D01*
X107300340Y-64604000D01*
X107300340Y-63370950D01*
X107644291Y-63027000D01*
X121164517Y-63027000D01*
X121231695Y-63054826D01*
X121343170Y-63077000D01*
X121456830Y-63077000D01*
X121568305Y-63054826D01*
X121673312Y-63011331D01*
X121767816Y-62948185D01*
X121848185Y-62867816D01*
X121911331Y-62773312D01*
X121954826Y-62668305D01*
X121977000Y-62556830D01*
X121977000Y-62443170D01*
X121954826Y-62331695D01*
X121911331Y-62226688D01*
X121848185Y-62132184D01*
X121767816Y-62051815D01*
X121673312Y-61988669D01*
X121568305Y-61945174D01*
X121456830Y-61923000D01*
X121343170Y-61923000D01*
X121231695Y-61945174D01*
X121164517Y-61973000D01*
X107451881Y-61973000D01*
X107426000Y-61970451D01*
X107400119Y-61973000D01*
X107322690Y-61980626D01*
X107223350Y-62010761D01*
X107131798Y-62059696D01*
X107051552Y-62125552D01*
X107035053Y-62145656D01*
X106555050Y-62625660D01*
X105322000Y-62625660D01*
X105267699Y-62631008D01*
X105215484Y-62646847D01*
X105167363Y-62672569D01*
X105125184Y-62707184D01*
X105090569Y-62749363D01*
X105064847Y-62797484D01*
X105049008Y-62849699D01*
X105043660Y-62904000D01*
X104247810Y-62904000D01*
X104246992Y-62895699D01*
X104231153Y-62843484D01*
X104205431Y-62795363D01*
X104170816Y-62753184D01*
X104128637Y-62718569D01*
X104080516Y-62692847D01*
X104028301Y-62677008D01*
X103974000Y-62671660D01*
X102274000Y-62671660D01*
X102219699Y-62677008D01*
X102167484Y-62692847D01*
X102119363Y-62718569D01*
X102077184Y-62753184D01*
X102042569Y-62795363D01*
X102016847Y-62843484D01*
X102001008Y-62895699D01*
X101995660Y-62950000D01*
X100572172Y-62950000D01*
X100524185Y-62878184D01*
X100443816Y-62797815D01*
X100349312Y-62734669D01*
X100244305Y-62691174D01*
X100132830Y-62669000D01*
X100019170Y-62669000D01*
X99907695Y-62691174D01*
X99802688Y-62734669D01*
X99708184Y-62797815D01*
X99695000Y-62810999D01*
X99681816Y-62797815D01*
X99587312Y-62734669D01*
X99482305Y-62691174D01*
X99370830Y-62669000D01*
X99257170Y-62669000D01*
X99145695Y-62691174D01*
X99040688Y-62734669D01*
X98946184Y-62797815D01*
X98865815Y-62878184D01*
X98802669Y-62972688D01*
X98759174Y-63077695D01*
X98737000Y-63189170D01*
X98737000Y-63302830D01*
X98759174Y-63414305D01*
X98802669Y-63519312D01*
X98865815Y-63613816D01*
X98937000Y-63685001D01*
X98937001Y-66773840D01*
X98532842Y-67178000D01*
X98432170Y-67178000D01*
X98320695Y-67200174D01*
X98215688Y-67243669D01*
X98121184Y-67306815D01*
X98040815Y-67387184D01*
X97977669Y-67481688D01*
X97934174Y-67586695D01*
X97912000Y-67698170D01*
X95152000Y-67698170D01*
X95152000Y-62318000D01*
X95793928Y-62318000D01*
X95806188Y-62442482D01*
X95842498Y-62562180D01*
X95901463Y-62672494D01*
X95980815Y-62769185D01*
X96077506Y-62848537D01*
X96187820Y-62907502D01*
X96307518Y-62943812D01*
X96432000Y-62956072D01*
X96996250Y-62953000D01*
X97155000Y-62794250D01*
X97155000Y-61595000D01*
X97409000Y-61595000D01*
X97409000Y-62794250D01*
X97567750Y-62953000D01*
X98132000Y-62956072D01*
X98256482Y-62943812D01*
X98376180Y-62907502D01*
X98486494Y-62848537D01*
X98583185Y-62769185D01*
X98662537Y-62672494D01*
X98721502Y-62562180D01*
X98757812Y-62442482D01*
X98770072Y-62318000D01*
X98767000Y-61753750D01*
X98608250Y-61595000D01*
X97409000Y-61595000D01*
X97155000Y-61595000D01*
X95955750Y-61595000D01*
X95797000Y-61753750D01*
X95793928Y-62318000D01*
X95152000Y-62318000D01*
X95152000Y-60618000D01*
X95793928Y-60618000D01*
X95797000Y-61182250D01*
X95955750Y-61341000D01*
X97155000Y-61341000D01*
X97155000Y-61321000D01*
X97409000Y-61321000D01*
X97409000Y-61341000D01*
X98608250Y-61341000D01*
X98767000Y-61182250D01*
X98770072Y-60618000D01*
X98757812Y-60493518D01*
X98721502Y-60373820D01*
X98662537Y-60263506D01*
X98583185Y-60166815D01*
X98486494Y-60087463D01*
X98376180Y-60028498D01*
X98256482Y-59992188D01*
X98132000Y-59979928D01*
X97681492Y-59982381D01*
X97815835Y-59926734D01*
X98000421Y-59803398D01*
X98157398Y-59646421D01*
X98280734Y-59461835D01*
X98324987Y-59355000D01*
X100448999Y-59355000D01*
X100470184Y-59376185D01*
X100564688Y-59439331D01*
X100669695Y-59482826D01*
X100781170Y-59505000D01*
X100894830Y-59505000D01*
X101006305Y-59482826D01*
X101111312Y-59439331D01*
X101205816Y-59376185D01*
X101286185Y-59295816D01*
X101349331Y-59201312D01*
X101392826Y-59096305D01*
X101415000Y-58984830D01*
X101415000Y-58871170D01*
X101392826Y-58759695D01*
X101349331Y-58654688D01*
X101286185Y-58560184D01*
X101205816Y-58479815D01*
X101111312Y-58416669D01*
X101006305Y-58373174D01*
X100894830Y-58351000D01*
X100781170Y-58351000D01*
X100669695Y-58373174D01*
X100564688Y-58416669D01*
X100470184Y-58479815D01*
X100448999Y-58501000D01*
X98324987Y-58501000D01*
X98280734Y-58394165D01*
X98157398Y-58209579D01*
X98000421Y-58052602D01*
X97815835Y-57929266D01*
X97610734Y-57844310D01*
X97393000Y-57801000D01*
X97171000Y-57801000D01*
X96953266Y-57844310D01*
X96748165Y-57929266D01*
X96563579Y-58052602D01*
X96406602Y-58209579D01*
X96283266Y-58394165D01*
X96198310Y-58599266D01*
X96155000Y-58817000D01*
X96155000Y-59039000D01*
X96198310Y-59256734D01*
X96283266Y-59461835D01*
X96406602Y-59646421D01*
X96563579Y-59803398D01*
X96748165Y-59926734D01*
X96882508Y-59982381D01*
X96432000Y-59979928D01*
X96307518Y-59992188D01*
X96187820Y-60028498D01*
X96077506Y-60087463D01*
X95980815Y-60166815D01*
X95901463Y-60263506D01*
X95842498Y-60373820D01*
X95806188Y-60493518D01*
X95793928Y-60618000D01*
X95152000Y-60618000D01*
X95152000Y-56277000D01*
X96155000Y-56277000D01*
X96155000Y-56499000D01*
X96198310Y-56716734D01*
X96283266Y-56921835D01*
X96406602Y-57106421D01*
X96563579Y-57263398D01*
X96748165Y-57386734D01*
X96953266Y-57471690D01*
X97171000Y-57515000D01*
X97393000Y-57515000D01*
X97610734Y-57471690D01*
X97815835Y-57386734D01*
X98000421Y-57263398D01*
X98157398Y-57106421D01*
X98280734Y-56921835D01*
X98345697Y-56765000D01*
X103700999Y-56765000D01*
X103772184Y-56836185D01*
X103866688Y-56899331D01*
X103971695Y-56942826D01*
X104083170Y-56965000D01*
X104196830Y-56965000D01*
X104308305Y-56942826D01*
X104413312Y-56899331D01*
X104507816Y-56836185D01*
X104588185Y-56755816D01*
X104651331Y-56661312D01*
X104694826Y-56556305D01*
X104717000Y-56444830D01*
X104717000Y-56331170D01*
X104694826Y-56219695D01*
X104665958Y-56150000D01*
X104871660Y-56150000D01*
X104871660Y-57850000D01*
X104877008Y-57904301D01*
X104892847Y-57956516D01*
X104918569Y-58004637D01*
X104953184Y-58046816D01*
X104995363Y-58081431D01*
X105043484Y-58107153D01*
X105095699Y-58122992D01*
X105150000Y-58128340D01*
X106383051Y-58128340D01*
X108809049Y-60554339D01*
X108825552Y-60574448D01*
X108905798Y-60640304D01*
X108997350Y-60689239D01*
X109096690Y-60719374D01*
X109174119Y-60727000D01*
X109174121Y-60727000D01*
X109199999Y-60729549D01*
X109225877Y-60727000D01*
X118664517Y-60727000D01*
X118731695Y-60754826D01*
X118843170Y-60777000D01*
X118956830Y-60777000D01*
X119068305Y-60754826D01*
X119173312Y-60711331D01*
X119267816Y-60648185D01*
X119348185Y-60567816D01*
X119411331Y-60473312D01*
X119454826Y-60368305D01*
X119477000Y-60256830D01*
X119477000Y-60143170D01*
X119454826Y-60031695D01*
X119411331Y-59926688D01*
X119348185Y-59832184D01*
X119267816Y-59751815D01*
X119173312Y-59688669D01*
X119068305Y-59645174D01*
X118956830Y-59623000D01*
X118843170Y-59623000D01*
X118731695Y-59645174D01*
X118664517Y-59673000D01*
X109418290Y-59673000D01*
X108185503Y-58440213D01*
X108413000Y-58320155D01*
X108413000Y-57127000D01*
X108393000Y-57127000D01*
X108393000Y-56873000D01*
X108413000Y-56873000D01*
X108413000Y-55679845D01*
X108667000Y-55679845D01*
X108667000Y-56873000D01*
X108687000Y-56873000D01*
X108687000Y-57127000D01*
X108667000Y-57127000D01*
X108667000Y-58320155D01*
X108896890Y-58441476D01*
X109044099Y-58396825D01*
X109306920Y-58271641D01*
X109540269Y-58097588D01*
X109735178Y-57881355D01*
X109884157Y-57631252D01*
X109981481Y-57356891D01*
X109860815Y-57127002D01*
X109956183Y-57127002D01*
X109996310Y-57328734D01*
X110081266Y-57533835D01*
X110204602Y-57718421D01*
X110361579Y-57875398D01*
X110546165Y-57998734D01*
X110751266Y-58083690D01*
X110969000Y-58127000D01*
X111191000Y-58127000D01*
X111408734Y-58083690D01*
X111613835Y-57998734D01*
X111798421Y-57875398D01*
X111955398Y-57718421D01*
X112078734Y-57533835D01*
X112163690Y-57328734D01*
X112207000Y-57111000D01*
X112207000Y-56889000D01*
X112493000Y-56889000D01*
X112493000Y-57111000D01*
X112536310Y-57328734D01*
X112621266Y-57533835D01*
X112744602Y-57718421D01*
X112901579Y-57875398D01*
X113086165Y-57998734D01*
X113291266Y-58083690D01*
X113509000Y-58127000D01*
X113731000Y-58127000D01*
X113948734Y-58083690D01*
X114153835Y-57998734D01*
X114338421Y-57875398D01*
X114495398Y-57718421D01*
X114618734Y-57533835D01*
X114703690Y-57328734D01*
X114747000Y-57111000D01*
X114747000Y-56889000D01*
X115033000Y-56889000D01*
X115033000Y-57111000D01*
X115076310Y-57328734D01*
X115161266Y-57533835D01*
X115284602Y-57718421D01*
X115441579Y-57875398D01*
X115626165Y-57998734D01*
X115831266Y-58083690D01*
X116049000Y-58127000D01*
X116271000Y-58127000D01*
X116488734Y-58083690D01*
X116693835Y-57998734D01*
X116878421Y-57875398D01*
X117035398Y-57718421D01*
X117158734Y-57533835D01*
X117243690Y-57328734D01*
X117287000Y-57111000D01*
X117287000Y-56889000D01*
X117573000Y-56889000D01*
X117573000Y-57111000D01*
X117616310Y-57328734D01*
X117701266Y-57533835D01*
X117824602Y-57718421D01*
X117981579Y-57875398D01*
X118166165Y-57998734D01*
X118371266Y-58083690D01*
X118589000Y-58127000D01*
X118811000Y-58127000D01*
X119028734Y-58083690D01*
X119233835Y-57998734D01*
X119418421Y-57875398D01*
X119575398Y-57718421D01*
X119698734Y-57533835D01*
X119783690Y-57328734D01*
X119827000Y-57111000D01*
X119827000Y-56889000D01*
X119783690Y-56671266D01*
X119698734Y-56466165D01*
X119575398Y-56281579D01*
X119418421Y-56124602D01*
X119233835Y-56001266D01*
X119028734Y-55916310D01*
X118811000Y-55873000D01*
X118589000Y-55873000D01*
X118371266Y-55916310D01*
X118166165Y-56001266D01*
X117981579Y-56124602D01*
X117824602Y-56281579D01*
X117701266Y-56466165D01*
X117616310Y-56671266D01*
X117573000Y-56889000D01*
X117287000Y-56889000D01*
X117243690Y-56671266D01*
X117158734Y-56466165D01*
X117035398Y-56281579D01*
X116878421Y-56124602D01*
X116693835Y-56001266D01*
X116488734Y-55916310D01*
X116271000Y-55873000D01*
X116049000Y-55873000D01*
X115831266Y-55916310D01*
X115626165Y-56001266D01*
X115441579Y-56124602D01*
X115284602Y-56281579D01*
X115161266Y-56466165D01*
X115076310Y-56671266D01*
X115033000Y-56889000D01*
X114747000Y-56889000D01*
X114703690Y-56671266D01*
X114638727Y-56514432D01*
X115404159Y-55749000D01*
X121103682Y-55749000D01*
X121140140Y-55803563D01*
X121209577Y-55873000D01*
X121129000Y-55873000D01*
X120911266Y-55916310D01*
X120706165Y-56001266D01*
X120521579Y-56124602D01*
X120364602Y-56281579D01*
X120241266Y-56466165D01*
X120156310Y-56671266D01*
X120113000Y-56889000D01*
X120113000Y-57111000D01*
X120156310Y-57328734D01*
X120241266Y-57533835D01*
X120364602Y-57718421D01*
X120521579Y-57875398D01*
X120706165Y-57998734D01*
X120911266Y-58083690D01*
X121129000Y-58127000D01*
X121351000Y-58127000D01*
X121568734Y-58083690D01*
X121773835Y-57998734D01*
X121958421Y-57875398D01*
X122115398Y-57718421D01*
X122238734Y-57533835D01*
X122323690Y-57328734D01*
X122367000Y-57111000D01*
X122367000Y-56889000D01*
X122323690Y-56671266D01*
X122238734Y-56466165D01*
X122115398Y-56281579D01*
X121958421Y-56124602D01*
X121819445Y-56031742D01*
X121863474Y-56022984D01*
X121986680Y-55971950D01*
X122097563Y-55897860D01*
X122191860Y-55803563D01*
X122265950Y-55692680D01*
X122316984Y-55569474D01*
X122343000Y-55438679D01*
X122343000Y-55305321D01*
X122316984Y-55174526D01*
X122265950Y-55051320D01*
X122191860Y-54940437D01*
X122097563Y-54846140D01*
X121986680Y-54772050D01*
X121863474Y-54721016D01*
X121732679Y-54695000D01*
X121599321Y-54695000D01*
X121468526Y-54721016D01*
X121345320Y-54772050D01*
X121234437Y-54846140D01*
X121140140Y-54940437D01*
X121103682Y-54995000D01*
X115266519Y-54995000D01*
X115248000Y-54993176D01*
X115174094Y-55000455D01*
X115103030Y-55022012D01*
X115037537Y-55057019D01*
X114980131Y-55104131D01*
X114968328Y-55118513D01*
X114105568Y-55981273D01*
X113948734Y-55916310D01*
X113731000Y-55873000D01*
X113509000Y-55873000D01*
X113291266Y-55916310D01*
X113086165Y-56001266D01*
X112901579Y-56124602D01*
X112744602Y-56281579D01*
X112621266Y-56466165D01*
X112536310Y-56671266D01*
X112493000Y-56889000D01*
X112207000Y-56889000D01*
X112163690Y-56671266D01*
X112078734Y-56466165D01*
X111955398Y-56281579D01*
X111798421Y-56124602D01*
X111613835Y-56001266D01*
X111408734Y-55916310D01*
X111191000Y-55873000D01*
X110969000Y-55873000D01*
X110751266Y-55916310D01*
X110546165Y-56001266D01*
X110361579Y-56124602D01*
X110204602Y-56281579D01*
X110081266Y-56466165D01*
X109996310Y-56671266D01*
X109956183Y-56872998D01*
X109860815Y-56872998D01*
X109981481Y-56643109D01*
X109884157Y-56368748D01*
X109735178Y-56118645D01*
X109540269Y-55902412D01*
X109306920Y-55728359D01*
X109044099Y-55603175D01*
X108896890Y-55558524D01*
X108667000Y-55679845D01*
X108413000Y-55679845D01*
X108183110Y-55558524D01*
X108035901Y-55603175D01*
X107773080Y-55728359D01*
X107539731Y-55902412D01*
X107344822Y-56118645D01*
X107195843Y-56368748D01*
X107128340Y-56559042D01*
X107128340Y-56150000D01*
X107122992Y-56095699D01*
X107107153Y-56043484D01*
X107081431Y-55995363D01*
X107046816Y-55953184D01*
X107004637Y-55918569D01*
X106956516Y-55892847D01*
X106904301Y-55877008D01*
X106850000Y-55871660D01*
X105150000Y-55871660D01*
X105095699Y-55877008D01*
X105043484Y-55892847D01*
X104995363Y-55918569D01*
X104953184Y-55953184D01*
X104918569Y-55995363D01*
X104892847Y-56043484D01*
X104877008Y-56095699D01*
X104871660Y-56150000D01*
X104665958Y-56150000D01*
X104651331Y-56114688D01*
X104588185Y-56020184D01*
X104507816Y-55939815D01*
X104413312Y-55876669D01*
X104308305Y-55833174D01*
X104196830Y-55811000D01*
X104083170Y-55811000D01*
X103971695Y-55833174D01*
X103866688Y-55876669D01*
X103772184Y-55939815D01*
X103700999Y-56011000D01*
X98345697Y-56011000D01*
X98280734Y-55854165D01*
X98157398Y-55669579D01*
X98000421Y-55512602D01*
X97815835Y-55389266D01*
X97610734Y-55304310D01*
X97393000Y-55261000D01*
X97171000Y-55261000D01*
X96953266Y-55304310D01*
X96748165Y-55389266D01*
X96563579Y-55512602D01*
X96406602Y-55669579D01*
X96283266Y-55854165D01*
X96198310Y-56059266D01*
X96155000Y-56277000D01*
X95152000Y-56277000D01*
X95152000Y-53737000D01*
X96155000Y-53737000D01*
X96155000Y-53959000D01*
X96198310Y-54176734D01*
X96283266Y-54381835D01*
X96406602Y-54566421D01*
X96563579Y-54723398D01*
X96748165Y-54846734D01*
X96953266Y-54931690D01*
X97171000Y-54975000D01*
X97393000Y-54975000D01*
X97610734Y-54931690D01*
X97815835Y-54846734D01*
X98000421Y-54723398D01*
X98157398Y-54566421D01*
X98280734Y-54381835D01*
X98324987Y-54275000D01*
X100448999Y-54275000D01*
X100470184Y-54296185D01*
X100564688Y-54359331D01*
X100669695Y-54402826D01*
X100781170Y-54425000D01*
X100894830Y-54425000D01*
X101006305Y-54402826D01*
X101111312Y-54359331D01*
X101205816Y-54296185D01*
X101286185Y-54215816D01*
X101349331Y-54121312D01*
X101392826Y-54016305D01*
X101415000Y-53904830D01*
X101415000Y-53791170D01*
X101392826Y-53679695D01*
X101349331Y-53574688D01*
X101286185Y-53480184D01*
X101205816Y-53399815D01*
X101111312Y-53336669D01*
X101006305Y-53293174D01*
X100894830Y-53271000D01*
X100781170Y-53271000D01*
X100669695Y-53293174D01*
X100564688Y-53336669D01*
X100470184Y-53399815D01*
X100448999Y-53421000D01*
X98324987Y-53421000D01*
X98280734Y-53314165D01*
X98157398Y-53129579D01*
X98000421Y-52972602D01*
X97815835Y-52849266D01*
X97610734Y-52764310D01*
X97393000Y-52721000D01*
X97171000Y-52721000D01*
X96953266Y-52764310D01*
X96748165Y-52849266D01*
X96563579Y-52972602D01*
X96406602Y-53129579D01*
X96283266Y-53314165D01*
X96198310Y-53519266D01*
X96155000Y-53737000D01*
X95152000Y-53737000D01*
X95152000Y-46879000D01*
X96155000Y-46879000D01*
X96155000Y-47101000D01*
X96198310Y-47318734D01*
X96283266Y-47523835D01*
X96406602Y-47708421D01*
X96563579Y-47865398D01*
X96748165Y-47988734D01*
X96953266Y-48073690D01*
X97171000Y-48117000D01*
X97393000Y-48117000D01*
X97610734Y-48073690D01*
X97717569Y-48029437D01*
X99675236Y-49987105D01*
X99688605Y-50003395D01*
X99704895Y-50016764D01*
X99704899Y-50016768D01*
X99753623Y-50056756D01*
X99810538Y-50087176D01*
X99827804Y-50096405D01*
X99908293Y-50120822D01*
X99971022Y-50127000D01*
X99971033Y-50127000D01*
X99992000Y-50129065D01*
X100012967Y-50127000D01*
X100539119Y-50127000D01*
X100537174Y-50131695D01*
X100515000Y-50243170D01*
X100515000Y-50356830D01*
X100537174Y-50468305D01*
X100580669Y-50573312D01*
X100643815Y-50667816D01*
X100662256Y-50686257D01*
X100564688Y-50726671D01*
X100470184Y-50789817D01*
X100389815Y-50870186D01*
X100326669Y-50964690D01*
X100283174Y-51069697D01*
X100261000Y-51181172D01*
X100261000Y-51294832D01*
X100283174Y-51406307D01*
X100326669Y-51511314D01*
X100389815Y-51605818D01*
X100470184Y-51686187D01*
X100564688Y-51749333D01*
X100669695Y-51792828D01*
X100781170Y-51815002D01*
X100894830Y-51815002D01*
X101006305Y-51792828D01*
X101111312Y-51749333D01*
X101205816Y-51686187D01*
X101286185Y-51605818D01*
X101305441Y-51577000D01*
X103587123Y-51577000D01*
X103585174Y-51581705D01*
X103563000Y-51693180D01*
X103563000Y-51806840D01*
X103585174Y-51918315D01*
X103597056Y-51947000D01*
X102039001Y-51947000D01*
X101967816Y-51875815D01*
X101873312Y-51812669D01*
X101768305Y-51769174D01*
X101656830Y-51747000D01*
X101543170Y-51747000D01*
X101431695Y-51769174D01*
X101326688Y-51812669D01*
X101232184Y-51875815D01*
X101151815Y-51956184D01*
X101088669Y-52050688D01*
X101045174Y-52155695D01*
X101023000Y-52267170D01*
X101023000Y-52380830D01*
X101045174Y-52492305D01*
X101047119Y-52497001D01*
X100782160Y-52497001D01*
X99339677Y-51054519D01*
X99327869Y-51040131D01*
X99270463Y-50993019D01*
X99204970Y-50958012D01*
X99133905Y-50936455D01*
X99078519Y-50931000D01*
X99078512Y-50931000D01*
X99060000Y-50929177D01*
X99041488Y-50931000D01*
X98345697Y-50931000D01*
X98280734Y-50774165D01*
X98157398Y-50589579D01*
X98000421Y-50432602D01*
X97815835Y-50309266D01*
X97610734Y-50224310D01*
X97393000Y-50181000D01*
X97171000Y-50181000D01*
X96953266Y-50224310D01*
X96748165Y-50309266D01*
X96563579Y-50432602D01*
X96406602Y-50589579D01*
X96283266Y-50774165D01*
X96198310Y-50979266D01*
X96155000Y-51197000D01*
X96155000Y-51419000D01*
X96198310Y-51636734D01*
X96283266Y-51841835D01*
X96406602Y-52026421D01*
X96563579Y-52183398D01*
X96748165Y-52306734D01*
X96953266Y-52391690D01*
X97171000Y-52435000D01*
X97393000Y-52435000D01*
X97610734Y-52391690D01*
X97815835Y-52306734D01*
X98000421Y-52183398D01*
X98157398Y-52026421D01*
X98280734Y-51841835D01*
X98345697Y-51685000D01*
X98903842Y-51685000D01*
X100346329Y-53127488D01*
X100358132Y-53141870D01*
X100415538Y-53188982D01*
X100460375Y-53212948D01*
X100481031Y-53223989D01*
X100552095Y-53245546D01*
X100626001Y-53252825D01*
X100644520Y-53251001D01*
X112715487Y-53251001D01*
X112733999Y-53252824D01*
X112752511Y-53251001D01*
X112752518Y-53251001D01*
X112807904Y-53245546D01*
X112878969Y-53223989D01*
X112944462Y-53188982D01*
X113001868Y-53141870D01*
X113013676Y-53127482D01*
X114002159Y-52139000D01*
X114102830Y-52139000D01*
X114214305Y-52116826D01*
X114319312Y-52073331D01*
X114413816Y-52010185D01*
X114494185Y-51929816D01*
X114557331Y-51835312D01*
X114600826Y-51730305D01*
X114623000Y-51618830D01*
X114623000Y-51505170D01*
X114600826Y-51393695D01*
X114557331Y-51288688D01*
X114494185Y-51194184D01*
X114413816Y-51113815D01*
X114319312Y-51050669D01*
X114214305Y-51007174D01*
X114102830Y-50985000D01*
X113989170Y-50985000D01*
X113893037Y-51004122D01*
X116920160Y-47977000D01*
X118760999Y-47977000D01*
X118832184Y-48048185D01*
X118926688Y-48111331D01*
X119031695Y-48154826D01*
X119143170Y-48177000D01*
X119256830Y-48177000D01*
X119368305Y-48154826D01*
X119473312Y-48111331D01*
X119567816Y-48048185D01*
X119648185Y-47967816D01*
X119711331Y-47873312D01*
X119754826Y-47768305D01*
X119777000Y-47656830D01*
X119777000Y-47543170D01*
X119754826Y-47431695D01*
X119711331Y-47326688D01*
X119648185Y-47232184D01*
X119567816Y-47151815D01*
X119473312Y-47088669D01*
X119368305Y-47045174D01*
X119256830Y-47023000D01*
X119163838Y-47023000D01*
X119177000Y-46956830D01*
X119177000Y-46843170D01*
X119154826Y-46731695D01*
X119111331Y-46626688D01*
X119048185Y-46532184D01*
X118967816Y-46451815D01*
X118873312Y-46388669D01*
X118768305Y-46345174D01*
X118656830Y-46323000D01*
X118543170Y-46323000D01*
X118431695Y-46345174D01*
X118326688Y-46388669D01*
X118232184Y-46451815D01*
X118160999Y-46523000D01*
X116694508Y-46523000D01*
X116675999Y-46521177D01*
X116657490Y-46523000D01*
X116657481Y-46523000D01*
X116602095Y-46528455D01*
X116531030Y-46550012D01*
X116465537Y-46585019D01*
X116408131Y-46632131D01*
X116396323Y-46646519D01*
X111619842Y-51423000D01*
X110132171Y-51423000D01*
X110154826Y-51368305D01*
X110177000Y-51256830D01*
X110177000Y-51143170D01*
X110154826Y-51031695D01*
X110111460Y-50927000D01*
X110374119Y-50927000D01*
X110400000Y-50929549D01*
X110425881Y-50927000D01*
X110503310Y-50919374D01*
X110602650Y-50889239D01*
X110666279Y-50855229D01*
X110668305Y-50854826D01*
X110773312Y-50811331D01*
X110867816Y-50748185D01*
X110948185Y-50667816D01*
X111011331Y-50573312D01*
X111054826Y-50468305D01*
X111077000Y-50356830D01*
X111077000Y-50243170D01*
X111054826Y-50131695D01*
X111011331Y-50026688D01*
X110948185Y-49932184D01*
X110867816Y-49851815D01*
X110773312Y-49788669D01*
X110668305Y-49745174D01*
X110556830Y-49723000D01*
X110443170Y-49723000D01*
X110331695Y-49745174D01*
X110226688Y-49788669D01*
X110132184Y-49851815D01*
X110110999Y-49873000D01*
X105952881Y-49873000D01*
X105954826Y-49868305D01*
X105977000Y-49756830D01*
X105977000Y-49643170D01*
X105954826Y-49531695D01*
X105911331Y-49426688D01*
X105848185Y-49332184D01*
X105767816Y-49251815D01*
X105673312Y-49188669D01*
X105568305Y-49145174D01*
X105456830Y-49123000D01*
X105343170Y-49123000D01*
X105231695Y-49145174D01*
X105126688Y-49188669D01*
X105032184Y-49251815D01*
X105010999Y-49273000D01*
X104131394Y-49273000D01*
X104165835Y-49258734D01*
X104350421Y-49135398D01*
X104507398Y-48978421D01*
X104630734Y-48793835D01*
X104715690Y-48588734D01*
X104759000Y-48371000D01*
X104759000Y-48149000D01*
X104715690Y-47931266D01*
X104630734Y-47726165D01*
X104507398Y-47541579D01*
X104350421Y-47384602D01*
X104165835Y-47261266D01*
X103960734Y-47176310D01*
X103743000Y-47133000D01*
X103521000Y-47133000D01*
X103303266Y-47176310D01*
X103098165Y-47261266D01*
X102913579Y-47384602D01*
X102756602Y-47541579D01*
X102633266Y-47726165D01*
X102548310Y-47931266D01*
X102505000Y-48149000D01*
X102505000Y-48371000D01*
X102548310Y-48588734D01*
X102633266Y-48793835D01*
X102756602Y-48978421D01*
X102913579Y-49135398D01*
X103098165Y-49258734D01*
X103132606Y-49273000D01*
X101591394Y-49273000D01*
X101625835Y-49258734D01*
X101810421Y-49135398D01*
X101967398Y-48978421D01*
X102090734Y-48793835D01*
X102175690Y-48588734D01*
X102219000Y-48371000D01*
X102219000Y-48149000D01*
X102175690Y-47931266D01*
X102090734Y-47726165D01*
X101967398Y-47541579D01*
X101810421Y-47384602D01*
X101625835Y-47261266D01*
X101420734Y-47176310D01*
X101203000Y-47133000D01*
X100981000Y-47133000D01*
X100763266Y-47176310D01*
X100558165Y-47261266D01*
X100373579Y-47384602D01*
X100216602Y-47541579D01*
X100093266Y-47726165D01*
X100008310Y-47931266D01*
X99965000Y-48149000D01*
X99965000Y-48371000D01*
X100008310Y-48588734D01*
X100093266Y-48793835D01*
X100216602Y-48978421D01*
X100373579Y-49135398D01*
X100558165Y-49258734D01*
X100592606Y-49273000D01*
X100168869Y-49273000D01*
X98321437Y-47425569D01*
X98365690Y-47318734D01*
X98409000Y-47101000D01*
X98409000Y-46879000D01*
X98365690Y-46661266D01*
X98280734Y-46456165D01*
X98157398Y-46271579D01*
X98000421Y-46114602D01*
X97815835Y-45991266D01*
X97610734Y-45906310D01*
X97393000Y-45863000D01*
X97171000Y-45863000D01*
X96953266Y-45906310D01*
X96748165Y-45991266D01*
X96563579Y-46114602D01*
X96406602Y-46271579D01*
X96283266Y-46456165D01*
X96198310Y-46661266D01*
X96155000Y-46879000D01*
X95152000Y-46879000D01*
X95152000Y-35980000D01*
X96153660Y-35980000D01*
X96153660Y-37680000D01*
X96159008Y-37734301D01*
X96174847Y-37786516D01*
X96200569Y-37834637D01*
X96235184Y-37876816D01*
X96277363Y-37911431D01*
X96325484Y-37937153D01*
X96377699Y-37952992D01*
X96432000Y-37958340D01*
X98089791Y-37958340D01*
X97717569Y-38330563D01*
X97610734Y-38286310D01*
X97393000Y-38243000D01*
X97171000Y-38243000D01*
X96953266Y-38286310D01*
X96748165Y-38371266D01*
X96563579Y-38494602D01*
X96406602Y-38651579D01*
X96283266Y-38836165D01*
X96198310Y-39041266D01*
X96155000Y-39259000D01*
X96155000Y-39481000D01*
X96198310Y-39698734D01*
X96283266Y-39903835D01*
X96406602Y-40088421D01*
X96563579Y-40245398D01*
X96748165Y-40368734D01*
X96953266Y-40453690D01*
X97171000Y-40497000D01*
X97393000Y-40497000D01*
X97610734Y-40453690D01*
X97815835Y-40368734D01*
X97850680Y-40345451D01*
X97409792Y-40786340D01*
X97393000Y-40783000D01*
X97171000Y-40783000D01*
X96953266Y-40826310D01*
X96748165Y-40911266D01*
X96563579Y-41034602D01*
X96406602Y-41191579D01*
X96283266Y-41376165D01*
X96198310Y-41581266D01*
X96155000Y-41799000D01*
X96155000Y-42021000D01*
X96198310Y-42238734D01*
X96283266Y-42443835D01*
X96406602Y-42628421D01*
X96563579Y-42785398D01*
X96748165Y-42908734D01*
X96953266Y-42993690D01*
X97171000Y-43037000D01*
X97393000Y-43037000D01*
X97610734Y-42993690D01*
X97815835Y-42908734D01*
X98000421Y-42785398D01*
X98157398Y-42628421D01*
X98280734Y-42443835D01*
X98286999Y-42428709D01*
X98286999Y-42841132D01*
X97717569Y-43410563D01*
X97610734Y-43366310D01*
X97393000Y-43323000D01*
X97171000Y-43323000D01*
X96953266Y-43366310D01*
X96748165Y-43451266D01*
X96563579Y-43574602D01*
X96406602Y-43731579D01*
X96283266Y-43916165D01*
X96198310Y-44121266D01*
X96155000Y-44339000D01*
X96155000Y-44561000D01*
X96198310Y-44778734D01*
X96283266Y-44983835D01*
X96406602Y-45168421D01*
X96563579Y-45325398D01*
X96748165Y-45448734D01*
X96953266Y-45533690D01*
X97171000Y-45577000D01*
X97393000Y-45577000D01*
X97610734Y-45533690D01*
X97815835Y-45448734D01*
X98000421Y-45325398D01*
X98157398Y-45168421D01*
X98280734Y-44983835D01*
X98365690Y-44778734D01*
X98409000Y-44561000D01*
X98409000Y-44339000D01*
X98365690Y-44121266D01*
X98321437Y-44014431D01*
X99001105Y-43334764D01*
X99017394Y-43321396D01*
X99030763Y-43305106D01*
X99030766Y-43305103D01*
X99070754Y-43256378D01*
X99099074Y-43203394D01*
X99110404Y-43182197D01*
X99134821Y-43101708D01*
X99140999Y-43038979D01*
X99140999Y-43038967D01*
X99143064Y-43018002D01*
X99140999Y-42997037D01*
X99140999Y-42716881D01*
X99145695Y-42718826D01*
X99257170Y-42741000D01*
X99370830Y-42741000D01*
X99482305Y-42718826D01*
X99587312Y-42675331D01*
X99681816Y-42612185D01*
X99762185Y-42531816D01*
X99767823Y-42523378D01*
X99695175Y-42675901D01*
X99650524Y-42823110D01*
X99771845Y-43053000D01*
X100965000Y-43053000D01*
X100965000Y-43033000D01*
X101219000Y-43033000D01*
X101219000Y-43053000D01*
X101239000Y-43053000D01*
X101239000Y-43307000D01*
X101219000Y-43307000D01*
X101219000Y-43327000D01*
X100965000Y-43327000D01*
X100965000Y-43307000D01*
X99771845Y-43307000D01*
X99650524Y-43536890D01*
X99695175Y-43684099D01*
X99820359Y-43946920D01*
X99899482Y-44052999D01*
X99839171Y-44052999D01*
X99727696Y-44075173D01*
X99622689Y-44118668D01*
X99528185Y-44181814D01*
X99447816Y-44262183D01*
X99384670Y-44356687D01*
X99341175Y-44461694D01*
X99319001Y-44573169D01*
X99319001Y-44686829D01*
X99341175Y-44798304D01*
X99384670Y-44903311D01*
X99447816Y-44997815D01*
X99528185Y-45078184D01*
X99622689Y-45141330D01*
X99727696Y-45184825D01*
X99839171Y-45206999D01*
X99952831Y-45206999D01*
X100064306Y-45184825D01*
X100105586Y-45167726D01*
X100093266Y-45186165D01*
X100008310Y-45391266D01*
X99965000Y-45609000D01*
X99965000Y-45831000D01*
X100008310Y-46048734D01*
X100093266Y-46253835D01*
X100216602Y-46438421D01*
X100373579Y-46595398D01*
X100558165Y-46718734D01*
X100763266Y-46803690D01*
X100981000Y-46847000D01*
X101203000Y-46847000D01*
X101420734Y-46803690D01*
X101625835Y-46718734D01*
X101810421Y-46595398D01*
X101967398Y-46438421D01*
X102090734Y-46253835D01*
X102175690Y-46048734D01*
X102219000Y-45831000D01*
X102219000Y-45609000D01*
X102175690Y-45391266D01*
X102090734Y-45186165D01*
X101971020Y-45006999D01*
X102752980Y-45006999D01*
X102633266Y-45186165D01*
X102548310Y-45391266D01*
X102505000Y-45609000D01*
X102505000Y-45831000D01*
X102548310Y-46048734D01*
X102633266Y-46253835D01*
X102756602Y-46438421D01*
X102913579Y-46595398D01*
X103098165Y-46718734D01*
X103303266Y-46803690D01*
X103521000Y-46847000D01*
X103743000Y-46847000D01*
X103960734Y-46803690D01*
X104165835Y-46718734D01*
X104350421Y-46595398D01*
X104507398Y-46438421D01*
X104630734Y-46253835D01*
X104715690Y-46048734D01*
X104759000Y-45831000D01*
X104759000Y-45609000D01*
X104715690Y-45391266D01*
X104630734Y-45186165D01*
X104511020Y-45006999D01*
X107751489Y-45006999D01*
X107770001Y-45008822D01*
X107788513Y-45006999D01*
X107788520Y-45006999D01*
X107843906Y-45001544D01*
X107914971Y-44979987D01*
X107980464Y-44944980D01*
X108037870Y-44897868D01*
X108049678Y-44883480D01*
X108956158Y-43977000D01*
X109056830Y-43977000D01*
X109168305Y-43954826D01*
X109273312Y-43911331D01*
X109367816Y-43848185D01*
X109448185Y-43767816D01*
X109511331Y-43673312D01*
X109554826Y-43568305D01*
X109577000Y-43456830D01*
X109577000Y-43343170D01*
X109554826Y-43231695D01*
X109511331Y-43126688D01*
X109448185Y-43032184D01*
X109367816Y-42951815D01*
X109273312Y-42888669D01*
X109168305Y-42845174D01*
X109056830Y-42823000D01*
X108943170Y-42823000D01*
X108831695Y-42845174D01*
X108726688Y-42888669D01*
X108632184Y-42951815D01*
X108551815Y-43032184D01*
X108488669Y-43126688D01*
X108445174Y-43231695D01*
X108423000Y-43343170D01*
X108423000Y-43443842D01*
X107613843Y-44252999D01*
X103986544Y-44252999D01*
X104165835Y-44178734D01*
X104350421Y-44055398D01*
X104507398Y-43898421D01*
X104630734Y-43713835D01*
X104715690Y-43508734D01*
X104759000Y-43291000D01*
X104759000Y-43069000D01*
X104715690Y-42851266D01*
X104630734Y-42646165D01*
X104507398Y-42461579D01*
X104422819Y-42377000D01*
X108560999Y-42377000D01*
X108632184Y-42448185D01*
X108726688Y-42511331D01*
X108831695Y-42554826D01*
X108943170Y-42577000D01*
X109056830Y-42577000D01*
X109168305Y-42554826D01*
X109273312Y-42511331D01*
X109367816Y-42448185D01*
X109448185Y-42367816D01*
X109511331Y-42273312D01*
X109554826Y-42168305D01*
X109577000Y-42056830D01*
X109577000Y-41943170D01*
X109554826Y-41831695D01*
X109511331Y-41726688D01*
X109448185Y-41632184D01*
X109367816Y-41551815D01*
X109273312Y-41488669D01*
X109168305Y-41445174D01*
X109056830Y-41423000D01*
X108943170Y-41423000D01*
X108831695Y-41445174D01*
X108726688Y-41488669D01*
X108632184Y-41551815D01*
X108560999Y-41623000D01*
X104724997Y-41623000D01*
X104739153Y-41596516D01*
X104754992Y-41544301D01*
X104760340Y-41490000D01*
X104760340Y-39790000D01*
X104754992Y-39735699D01*
X104739153Y-39683484D01*
X104713431Y-39635363D01*
X104678816Y-39593184D01*
X104636637Y-39558569D01*
X104588516Y-39532847D01*
X104536301Y-39517008D01*
X104482000Y-39511660D01*
X102782000Y-39511660D01*
X102727699Y-39517008D01*
X102675484Y-39532847D01*
X102627363Y-39558569D01*
X102585184Y-39593184D01*
X102556480Y-39628161D01*
X102531502Y-39545820D01*
X102472537Y-39435506D01*
X102393185Y-39338815D01*
X102296494Y-39259463D01*
X102186180Y-39200498D01*
X102108826Y-39177033D01*
X116673165Y-39177033D01*
X120572999Y-43076869D01*
X120573000Y-50510997D01*
X120551814Y-50532183D01*
X120488668Y-50626687D01*
X120445173Y-50731694D01*
X120422999Y-50843169D01*
X120422999Y-50956829D01*
X120445173Y-51068304D01*
X120488668Y-51173311D01*
X120551814Y-51267815D01*
X120632183Y-51348184D01*
X120726687Y-51411330D01*
X120831694Y-51454825D01*
X120943169Y-51476999D01*
X121056829Y-51476999D01*
X121168304Y-51454825D01*
X121273311Y-51411330D01*
X121367815Y-51348184D01*
X121448184Y-51267815D01*
X121511330Y-51173311D01*
X121554825Y-51068304D01*
X121576999Y-50956829D01*
X121576999Y-50843169D01*
X121554825Y-50731694D01*
X121511330Y-50626687D01*
X121448184Y-50532183D01*
X121426999Y-50510998D01*
X121426999Y-47652881D01*
X121431695Y-47654826D01*
X121543170Y-47677000D01*
X121656830Y-47677000D01*
X121768305Y-47654826D01*
X121873312Y-47611331D01*
X121967816Y-47548185D01*
X122048185Y-47467816D01*
X122111331Y-47373312D01*
X122154826Y-47268305D01*
X122177000Y-47156830D01*
X122177000Y-47043170D01*
X122154826Y-46931695D01*
X122111331Y-46826688D01*
X122048185Y-46732184D01*
X122027000Y-46710999D01*
X122027000Y-46452881D01*
X122031695Y-46454826D01*
X122143170Y-46477000D01*
X122256830Y-46477000D01*
X122368305Y-46454826D01*
X122473312Y-46411331D01*
X122567816Y-46348185D01*
X122648185Y-46267816D01*
X122711331Y-46173312D01*
X122754826Y-46068305D01*
X122777000Y-45956830D01*
X122777000Y-45843170D01*
X122754826Y-45731695D01*
X122711331Y-45626688D01*
X122648185Y-45532184D01*
X122627000Y-45510999D01*
X122627000Y-45252881D01*
X122631695Y-45254826D01*
X122743170Y-45277000D01*
X122856830Y-45277000D01*
X122968305Y-45254826D01*
X123073312Y-45211331D01*
X123167816Y-45148185D01*
X123248185Y-45067816D01*
X123311331Y-44973312D01*
X123354826Y-44868305D01*
X123377000Y-44756830D01*
X123377000Y-44643170D01*
X123354826Y-44531695D01*
X123311331Y-44426688D01*
X123248185Y-44332184D01*
X123227000Y-44310999D01*
X123227000Y-42811734D01*
X123229065Y-42790767D01*
X123227000Y-42769800D01*
X123227000Y-42769789D01*
X123220822Y-42707060D01*
X123196405Y-42626571D01*
X123180696Y-42597181D01*
X123156756Y-42552390D01*
X123116768Y-42503666D01*
X123116764Y-42503662D01*
X123103395Y-42487372D01*
X123087107Y-42474005D01*
X117726000Y-37112899D01*
X117712628Y-37096605D01*
X117647609Y-37043245D01*
X117617535Y-37027170D01*
X122105000Y-37027170D01*
X122105000Y-37140830D01*
X122127174Y-37252305D01*
X122170669Y-37357312D01*
X122233815Y-37451816D01*
X122314184Y-37532185D01*
X122408688Y-37595331D01*
X122513695Y-37638826D01*
X122625170Y-37661000D01*
X122725842Y-37661000D01*
X123403001Y-38338159D01*
X123403000Y-54701481D01*
X123403000Y-54761488D01*
X123401177Y-54780000D01*
X123403000Y-54798512D01*
X123403000Y-54798519D01*
X123408455Y-54853905D01*
X123430012Y-54924970D01*
X123465019Y-54990463D01*
X123512131Y-55047869D01*
X123526517Y-55059676D01*
X124673001Y-56206160D01*
X124673001Y-56307924D01*
X124655398Y-56281579D01*
X124498421Y-56124602D01*
X124313835Y-56001266D01*
X124108734Y-55916310D01*
X123891000Y-55873000D01*
X123669000Y-55873000D01*
X123451266Y-55916310D01*
X123246165Y-56001266D01*
X123061579Y-56124602D01*
X122904602Y-56281579D01*
X122781266Y-56466165D01*
X122696310Y-56671266D01*
X122653000Y-56889000D01*
X122653000Y-57111000D01*
X122696310Y-57328734D01*
X122781266Y-57533835D01*
X122904602Y-57718421D01*
X123061579Y-57875398D01*
X123246165Y-57998734D01*
X123451266Y-58083690D01*
X123669000Y-58127000D01*
X123891000Y-58127000D01*
X124108734Y-58083690D01*
X124313835Y-57998734D01*
X124498421Y-57875398D01*
X124655398Y-57718421D01*
X124673001Y-57692076D01*
X124673002Y-60793839D01*
X124543841Y-60923000D01*
X124443170Y-60923000D01*
X124331695Y-60945174D01*
X124226688Y-60988669D01*
X124132184Y-61051815D01*
X124051815Y-61132184D01*
X123988669Y-61226688D01*
X123945174Y-61331695D01*
X123923000Y-61443170D01*
X123923000Y-61556830D01*
X123945174Y-61668305D01*
X123988669Y-61773312D01*
X124051815Y-61867816D01*
X124132184Y-61948185D01*
X124226688Y-62011331D01*
X124331695Y-62054826D01*
X124443170Y-62077000D01*
X124556830Y-62077000D01*
X124668305Y-62054826D01*
X124773312Y-62011331D01*
X124867816Y-61948185D01*
X124948185Y-61867816D01*
X125011331Y-61773312D01*
X125054826Y-61668305D01*
X125077000Y-61556830D01*
X125077000Y-61456159D01*
X125303488Y-61229671D01*
X125317870Y-61217868D01*
X125364982Y-61160462D01*
X125399989Y-61094969D01*
X125410920Y-61058935D01*
X125421546Y-61023905D01*
X125428825Y-60949999D01*
X125427001Y-60931480D01*
X125427001Y-57692079D01*
X125444602Y-57718421D01*
X125601579Y-57875398D01*
X125786165Y-57998734D01*
X125991266Y-58083690D01*
X126209000Y-58127000D01*
X126431000Y-58127000D01*
X126648734Y-58083690D01*
X126853835Y-57998734D01*
X127038421Y-57875398D01*
X127195398Y-57718421D01*
X127318734Y-57533835D01*
X127397001Y-57344883D01*
X127397001Y-59239933D01*
X127394184Y-59241815D01*
X127313815Y-59322184D01*
X127250669Y-59416688D01*
X127207174Y-59521695D01*
X127185000Y-59633170D01*
X127185000Y-59746830D01*
X127207174Y-59858305D01*
X127250669Y-59963312D01*
X127313815Y-60057816D01*
X127394184Y-60138185D01*
X127488688Y-60201331D01*
X127593695Y-60244826D01*
X127705170Y-60267000D01*
X127818830Y-60267000D01*
X127930305Y-60244826D01*
X128035312Y-60201331D01*
X128097000Y-60160112D01*
X128097000Y-61193023D01*
X128097001Y-62834998D01*
X128075815Y-62856184D01*
X128012669Y-62950688D01*
X127969174Y-63055695D01*
X127947000Y-63167170D01*
X127947000Y-63280830D01*
X127969174Y-63392305D01*
X128012669Y-63497312D01*
X128075815Y-63591816D01*
X128156184Y-63672185D01*
X128250688Y-63735331D01*
X128355695Y-63778826D01*
X128467170Y-63801000D01*
X128580830Y-63801000D01*
X128692305Y-63778826D01*
X128797312Y-63735331D01*
X128891816Y-63672185D01*
X128972185Y-63591816D01*
X129035331Y-63497312D01*
X129078826Y-63392305D01*
X129101000Y-63280830D01*
X129101000Y-63167170D01*
X129078826Y-63055695D01*
X129035331Y-62950688D01*
X128972185Y-62856184D01*
X128951000Y-62834999D01*
X128951000Y-60340000D01*
X129771928Y-60340000D01*
X129784188Y-60464482D01*
X129820498Y-60584180D01*
X129879463Y-60694494D01*
X129958815Y-60791185D01*
X130055506Y-60870537D01*
X130165820Y-60929502D01*
X130285518Y-60965812D01*
X130410000Y-60978072D01*
X130524250Y-60975000D01*
X130683000Y-60816250D01*
X130683000Y-59817000D01*
X129933750Y-59817000D01*
X129775000Y-59975750D01*
X129771928Y-60340000D01*
X128951000Y-60340000D01*
X128951000Y-59040000D01*
X129771928Y-59040000D01*
X129775000Y-59404250D01*
X129933750Y-59563000D01*
X130683000Y-59563000D01*
X130683000Y-58563750D01*
X130524250Y-58405000D01*
X130410000Y-58401928D01*
X130285518Y-58414188D01*
X130165820Y-58450498D01*
X130055506Y-58509463D01*
X129958815Y-58588815D01*
X129879463Y-58685506D01*
X129820498Y-58795820D01*
X129784188Y-58915518D01*
X129771928Y-59040000D01*
X128951000Y-59040000D01*
X128951000Y-54064112D01*
X129012688Y-54105331D01*
X129117695Y-54148826D01*
X129229170Y-54171000D01*
X129342830Y-54171000D01*
X129454305Y-54148826D01*
X129559312Y-54105331D01*
X129653816Y-54042185D01*
X129725001Y-53971000D01*
X133798582Y-53971000D01*
X133811174Y-54034305D01*
X133854669Y-54139312D01*
X133917815Y-54233816D01*
X133998184Y-54314185D01*
X134092688Y-54377331D01*
X134197695Y-54420826D01*
X134309170Y-54443000D01*
X134422830Y-54443000D01*
X134534305Y-54420826D01*
X134639312Y-54377331D01*
X134733816Y-54314185D01*
X134814185Y-54233816D01*
X134877331Y-54139312D01*
X134920826Y-54034305D01*
X134943000Y-53922830D01*
X134943000Y-53809170D01*
X134920826Y-53697695D01*
X134877331Y-53592688D01*
X134814185Y-53498184D01*
X134733816Y-53417815D01*
X134639312Y-53354669D01*
X134534305Y-53311174D01*
X134422830Y-53289000D01*
X134316625Y-53289000D01*
X134304463Y-53279019D01*
X134238970Y-53244012D01*
X134167905Y-53222455D01*
X134112519Y-53217000D01*
X134112512Y-53217000D01*
X134094000Y-53215177D01*
X134075488Y-53217000D01*
X129725001Y-53217000D01*
X129653816Y-53145815D01*
X129559312Y-53082669D01*
X129454305Y-53039174D01*
X129342830Y-53017000D01*
X129229170Y-53017000D01*
X129117695Y-53039174D01*
X129012688Y-53082669D01*
X128951000Y-53123888D01*
X128951000Y-52402868D01*
X132026870Y-49327000D01*
X132056830Y-49327000D01*
X132168305Y-49304826D01*
X132273312Y-49261331D01*
X132367816Y-49198185D01*
X132448185Y-49117816D01*
X132511331Y-49023312D01*
X132554826Y-48918305D01*
X132577000Y-48806830D01*
X132577000Y-48693170D01*
X132554826Y-48581695D01*
X132511331Y-48476688D01*
X132448185Y-48382184D01*
X132367816Y-48301815D01*
X132273312Y-48238669D01*
X132168305Y-48195174D01*
X132056830Y-48173000D01*
X131943170Y-48173000D01*
X131831695Y-48195174D01*
X131726688Y-48238669D01*
X131632184Y-48301815D01*
X131551815Y-48382184D01*
X131488669Y-48476688D01*
X131445174Y-48581695D01*
X131423000Y-48693170D01*
X131423000Y-48723130D01*
X128451000Y-51695132D01*
X128451000Y-49580293D01*
X128588256Y-49443038D01*
X128608365Y-49426535D01*
X128674221Y-49346289D01*
X128723156Y-49254737D01*
X128753291Y-49155397D01*
X128760917Y-49077968D01*
X128760917Y-49077967D01*
X128763466Y-49052087D01*
X128760917Y-49026206D01*
X128760917Y-48023746D01*
X128791604Y-48044251D01*
X128896611Y-48087746D01*
X129008086Y-48109920D01*
X129121746Y-48109920D01*
X129233221Y-48087746D01*
X129338228Y-48044251D01*
X129432732Y-47981105D01*
X129513101Y-47900736D01*
X129576247Y-47806232D01*
X129619742Y-47701225D01*
X129641916Y-47589750D01*
X129641916Y-47476090D01*
X129619742Y-47364615D01*
X129576247Y-47259608D01*
X129513101Y-47165104D01*
X129441916Y-47093919D01*
X129441916Y-39675424D01*
X129443739Y-39656915D01*
X129441916Y-39638406D01*
X129441916Y-39638397D01*
X129436461Y-39583011D01*
X129414904Y-39511946D01*
X129379897Y-39446453D01*
X129332785Y-39389047D01*
X129318398Y-39377240D01*
X128339000Y-38397842D01*
X128339000Y-38297170D01*
X128316826Y-38185695D01*
X128273331Y-38080688D01*
X128210185Y-37986184D01*
X128129816Y-37905815D01*
X128035312Y-37842669D01*
X127930305Y-37799174D01*
X127818830Y-37777000D01*
X127705170Y-37777000D01*
X127593695Y-37799174D01*
X127488688Y-37842669D01*
X127394184Y-37905815D01*
X127313815Y-37986184D01*
X127250669Y-38080688D01*
X127207174Y-38185695D01*
X127185000Y-38297170D01*
X127185000Y-38410830D01*
X127207174Y-38522305D01*
X127250669Y-38627312D01*
X127313815Y-38721816D01*
X127394184Y-38802185D01*
X127488688Y-38865331D01*
X127593695Y-38908826D01*
X127705170Y-38931000D01*
X127805842Y-38931000D01*
X128687916Y-39813074D01*
X128687917Y-45321916D01*
X128637816Y-45271815D01*
X128543312Y-45208669D01*
X128438305Y-45165174D01*
X128326830Y-45143000D01*
X128213170Y-45143000D01*
X128101695Y-45165174D01*
X127996688Y-45208669D01*
X127902184Y-45271815D01*
X127885000Y-45288999D01*
X127885000Y-42603001D01*
X127956185Y-42531816D01*
X128019331Y-42437312D01*
X128062826Y-42332305D01*
X128085000Y-42220830D01*
X128085000Y-42107170D01*
X128062826Y-41995695D01*
X128019331Y-41890688D01*
X127956185Y-41796184D01*
X127875816Y-41715815D01*
X127781312Y-41652669D01*
X127676305Y-41609174D01*
X127564830Y-41587000D01*
X127451170Y-41587000D01*
X127339695Y-41609174D01*
X127234688Y-41652669D01*
X127140184Y-41715815D01*
X127059815Y-41796184D01*
X126996669Y-41890688D01*
X126953174Y-41995695D01*
X126931000Y-42107170D01*
X126931000Y-42220830D01*
X126953174Y-42332305D01*
X126996669Y-42437312D01*
X127059815Y-42531816D01*
X127131000Y-42603001D01*
X127131000Y-44239234D01*
X127061312Y-44192669D01*
X126956305Y-44149174D01*
X126844830Y-44127000D01*
X126731170Y-44127000D01*
X126619695Y-44149174D01*
X126615000Y-44151119D01*
X126615000Y-43618989D01*
X126686185Y-43547804D01*
X126749331Y-43453300D01*
X126792826Y-43348293D01*
X126815000Y-43236818D01*
X126815000Y-43123158D01*
X126792826Y-43011683D01*
X126749331Y-42906676D01*
X126686185Y-42812172D01*
X126605816Y-42731803D01*
X126511312Y-42668657D01*
X126406305Y-42625162D01*
X126294830Y-42602988D01*
X126181170Y-42602988D01*
X126069695Y-42625162D01*
X125964688Y-42668657D01*
X125870184Y-42731803D01*
X125789815Y-42812172D01*
X125726669Y-42906676D01*
X125683174Y-43011683D01*
X125661000Y-43123158D01*
X125661000Y-43236818D01*
X125683174Y-43348293D01*
X125726669Y-43453300D01*
X125789815Y-43547804D01*
X125861000Y-43618989D01*
X125861001Y-47793175D01*
X125832172Y-47812438D01*
X125751803Y-47892807D01*
X125688657Y-47987311D01*
X125645162Y-48092318D01*
X125622988Y-48203793D01*
X125622988Y-48317453D01*
X125645162Y-48428928D01*
X125688657Y-48533935D01*
X125751803Y-48628439D01*
X125832172Y-48708808D01*
X125926676Y-48771954D01*
X126031683Y-48815449D01*
X126143158Y-48837623D01*
X126256818Y-48837623D01*
X126347999Y-48819486D01*
X126347999Y-49112662D01*
X126284975Y-49175686D01*
X126221829Y-49270190D01*
X126178334Y-49375197D01*
X126156160Y-49486672D01*
X126156160Y-49600332D01*
X126178334Y-49711807D01*
X126221829Y-49816814D01*
X126284975Y-49911318D01*
X126365344Y-49991687D01*
X126459848Y-50054833D01*
X126564855Y-50098328D01*
X126676330Y-50120502D01*
X126789990Y-50120502D01*
X126901465Y-50098328D01*
X127006472Y-50054833D01*
X127100976Y-49991687D01*
X127181345Y-49911318D01*
X127244491Y-49816814D01*
X127287986Y-49711807D01*
X127310160Y-49600332D01*
X127310160Y-49486672D01*
X127287986Y-49375197D01*
X127244491Y-49270190D01*
X127243119Y-49268137D01*
X127331695Y-49304826D01*
X127398768Y-49318168D01*
X127394451Y-49362004D01*
X127397001Y-49387895D01*
X127397000Y-52603016D01*
X127369174Y-52670195D01*
X127347000Y-52781670D01*
X127347000Y-52895330D01*
X127369174Y-53006805D01*
X127397000Y-53073983D01*
X127397001Y-56655116D01*
X127318734Y-56466165D01*
X127195398Y-56281579D01*
X127038421Y-56124602D01*
X126853835Y-56001266D01*
X126648734Y-55916310D01*
X126431000Y-55873000D01*
X126209000Y-55873000D01*
X125991266Y-55916310D01*
X125786165Y-56001266D01*
X125601579Y-56124602D01*
X125444602Y-56281579D01*
X125427001Y-56307921D01*
X125427001Y-56068520D01*
X125428825Y-56050001D01*
X125421546Y-55976095D01*
X125399989Y-55905031D01*
X125382868Y-55873000D01*
X125364982Y-55839538D01*
X125352499Y-55824327D01*
X125329675Y-55796516D01*
X125329673Y-55796514D01*
X125317870Y-55782132D01*
X125303489Y-55770330D01*
X124157000Y-54623842D01*
X124157000Y-38200508D01*
X124158823Y-38181999D01*
X124157000Y-38163490D01*
X124157000Y-38163481D01*
X124151545Y-38108095D01*
X124129988Y-38037030D01*
X124094981Y-37971537D01*
X124047869Y-37914131D01*
X124033481Y-37902323D01*
X123259000Y-37127842D01*
X123259000Y-37027170D01*
X123236826Y-36915695D01*
X123193331Y-36810688D01*
X123130185Y-36716184D01*
X123049816Y-36635815D01*
X122955312Y-36572669D01*
X122850305Y-36529174D01*
X122738830Y-36507000D01*
X122625170Y-36507000D01*
X122513695Y-36529174D01*
X122408688Y-36572669D01*
X122314184Y-36635815D01*
X122233815Y-36716184D01*
X122170669Y-36810688D01*
X122127174Y-36915695D01*
X122105000Y-37027170D01*
X117617535Y-37027170D01*
X117573429Y-37003595D01*
X117492940Y-36979178D01*
X117430211Y-36973000D01*
X117430200Y-36973000D01*
X117409233Y-36970935D01*
X117388266Y-36973000D01*
X98410340Y-36973000D01*
X98410340Y-35980000D01*
X98404992Y-35925699D01*
X98389153Y-35873484D01*
X98363431Y-35825363D01*
X98328816Y-35783184D01*
X98286637Y-35748569D01*
X98238516Y-35722847D01*
X98186301Y-35707008D01*
X98132000Y-35701660D01*
X96432000Y-35701660D01*
X96377699Y-35707008D01*
X96325484Y-35722847D01*
X96277363Y-35748569D01*
X96235184Y-35783184D01*
X96200569Y-35825363D01*
X96174847Y-35873484D01*
X96159008Y-35925699D01*
X96153660Y-35980000D01*
X95152000Y-35980000D01*
X95152000Y-29007439D01*
X95168866Y-28835431D01*
X95216660Y-28677129D01*
X95294289Y-28531128D01*
X95398800Y-28402985D01*
X95526209Y-28297582D01*
X95671671Y-28218931D01*
X95829631Y-28170034D01*
X96001211Y-28152000D01*
X101473000Y-28152000D01*
X101473000Y-34200000D01*
G04 #@! TA.AperFunction,Conductor*
D20*
G36*
X101473000Y-34200000D02*
G01*
X101475440Y-34224776D01*
X101482667Y-34248601D01*
X101494403Y-34270557D01*
X101510197Y-34289803D01*
X101529443Y-34305597D01*
X101551399Y-34317333D01*
X101575224Y-34324560D01*
X101600000Y-34327000D01*
X130200000Y-34327000D01*
X130224776Y-34324560D01*
X130248601Y-34317333D01*
X130270557Y-34305597D01*
X130289803Y-34289803D01*
X130305597Y-34270557D01*
X130317333Y-34248601D01*
X130324560Y-34224776D01*
X130327000Y-34200000D01*
X130327000Y-28152000D01*
X135992561Y-28152000D01*
X136164569Y-28168866D01*
X136322871Y-28216660D01*
X136468872Y-28294289D01*
X136597015Y-28398800D01*
X136702418Y-28526209D01*
X136781069Y-28671671D01*
X136829966Y-28829631D01*
X136848000Y-29001211D01*
X136848001Y-71992552D01*
X136831134Y-72164569D01*
X136783340Y-72322871D01*
X136705710Y-72468873D01*
X136601200Y-72597015D01*
X136473788Y-72702419D01*
X136328328Y-72781069D01*
X136170369Y-72829966D01*
X135998789Y-72848000D01*
X96007438Y-72848000D01*
X95835431Y-72831134D01*
X95677129Y-72783340D01*
X95531127Y-72705710D01*
X95402985Y-72601200D01*
X95297581Y-72473788D01*
X95218931Y-72328328D01*
X95170034Y-72170369D01*
X95152000Y-71998789D01*
X95152000Y-71850000D01*
X109211928Y-71850000D01*
X109224188Y-71974482D01*
X109260498Y-72094180D01*
X109319463Y-72204494D01*
X109398815Y-72301185D01*
X109495506Y-72380537D01*
X109605820Y-72439502D01*
X109725518Y-72475812D01*
X109850000Y-72488072D01*
X110414250Y-72485000D01*
X110573000Y-72326250D01*
X110573000Y-71127000D01*
X109373750Y-71127000D01*
X109215000Y-71285750D01*
X109211928Y-71850000D01*
X95152000Y-71850000D01*
X95152000Y-70809170D01*
X100261000Y-70809170D01*
X100261000Y-70922830D01*
X100283174Y-71034305D01*
X100326669Y-71139312D01*
X100389815Y-71233816D01*
X100470184Y-71314185D01*
X100564688Y-71377331D01*
X100669695Y-71420826D01*
X100781170Y-71443000D01*
X100894830Y-71443000D01*
X101006305Y-71420826D01*
X101111312Y-71377331D01*
X101205816Y-71314185D01*
X101277001Y-71243000D01*
X104121488Y-71243000D01*
X104140000Y-71244823D01*
X104158512Y-71243000D01*
X104158519Y-71243000D01*
X104213905Y-71237545D01*
X104284970Y-71215988D01*
X104350463Y-71180981D01*
X104407869Y-71133869D01*
X104419677Y-71119481D01*
X104901481Y-70637677D01*
X104915869Y-70625869D01*
X104962981Y-70568463D01*
X104997988Y-70502970D01*
X105019545Y-70431905D01*
X105025000Y-70376519D01*
X105025000Y-70376510D01*
X105026823Y-70358001D01*
X105025000Y-70339492D01*
X105025000Y-69768023D01*
X105074412Y-69834269D01*
X105290645Y-70029178D01*
X105540748Y-70178157D01*
X105815109Y-70275481D01*
X106045000Y-70154814D01*
X106045000Y-68961000D01*
X106299000Y-68961000D01*
X106299000Y-70154814D01*
X106528891Y-70275481D01*
X106803252Y-70178157D01*
X106850521Y-70150000D01*
X109211928Y-70150000D01*
X109215000Y-70714250D01*
X109373750Y-70873000D01*
X110573000Y-70873000D01*
X110573000Y-69673750D01*
X110827000Y-69673750D01*
X110827000Y-70873000D01*
X110847000Y-70873000D01*
X110847000Y-71127000D01*
X110827000Y-71127000D01*
X110827000Y-72326250D01*
X110985750Y-72485000D01*
X111550000Y-72488072D01*
X111674482Y-72475812D01*
X111794180Y-72439502D01*
X111904494Y-72380537D01*
X112001185Y-72301185D01*
X112080537Y-72204494D01*
X112139502Y-72094180D01*
X112175812Y-71974482D01*
X112188072Y-71850000D01*
X112185619Y-71399492D01*
X112241266Y-71533835D01*
X112364602Y-71718421D01*
X112521579Y-71875398D01*
X112706165Y-71998734D01*
X112911266Y-72083690D01*
X113129000Y-72127000D01*
X113351000Y-72127000D01*
X113568734Y-72083690D01*
X113773835Y-71998734D01*
X113958421Y-71875398D01*
X114115398Y-71718421D01*
X114238734Y-71533835D01*
X114323690Y-71328734D01*
X114367000Y-71111000D01*
X114367000Y-70889000D01*
X114323690Y-70671266D01*
X114279437Y-70564431D01*
X115316869Y-69527000D01*
X116649130Y-69527000D01*
X116215568Y-69960562D01*
X116108734Y-69916310D01*
X115891000Y-69873000D01*
X115669000Y-69873000D01*
X115451266Y-69916310D01*
X115246165Y-70001266D01*
X115061579Y-70124602D01*
X114904602Y-70281579D01*
X114781266Y-70466165D01*
X114696310Y-70671266D01*
X114653000Y-70889000D01*
X114653000Y-71111000D01*
X114696310Y-71328734D01*
X114781266Y-71533835D01*
X114904602Y-71718421D01*
X115061579Y-71875398D01*
X115246165Y-71998734D01*
X115451266Y-72083690D01*
X115669000Y-72127000D01*
X115891000Y-72127000D01*
X116108734Y-72083690D01*
X116313835Y-71998734D01*
X116498421Y-71875398D01*
X116655398Y-71718421D01*
X116778734Y-71533835D01*
X116863690Y-71328734D01*
X116907000Y-71111000D01*
X116907000Y-70889000D01*
X116863690Y-70671266D01*
X116819438Y-70564432D01*
X117156870Y-70227000D01*
X117499181Y-70227000D01*
X117444602Y-70281579D01*
X117321266Y-70466165D01*
X117236310Y-70671266D01*
X117193000Y-70889000D01*
X117193000Y-71111000D01*
X117236310Y-71328734D01*
X117321266Y-71533835D01*
X117444602Y-71718421D01*
X117601579Y-71875398D01*
X117786165Y-71998734D01*
X117991266Y-72083690D01*
X118209000Y-72127000D01*
X118431000Y-72127000D01*
X118648734Y-72083690D01*
X118853835Y-71998734D01*
X119038421Y-71875398D01*
X119195398Y-71718421D01*
X119318734Y-71533835D01*
X119403690Y-71328734D01*
X119447000Y-71111000D01*
X119447000Y-70889000D01*
X119403690Y-70671266D01*
X119318734Y-70466165D01*
X119195398Y-70281579D01*
X119140819Y-70227000D01*
X123888540Y-70227000D01*
X123845174Y-70331695D01*
X123823000Y-70443170D01*
X123823000Y-70556830D01*
X123845174Y-70668305D01*
X123888669Y-70773312D01*
X123951815Y-70867816D01*
X124032184Y-70948185D01*
X124126688Y-71011331D01*
X124231695Y-71054826D01*
X124343170Y-71077000D01*
X124456830Y-71077000D01*
X124568305Y-71054826D01*
X124635483Y-71027000D01*
X125298369Y-71027000D01*
X125324250Y-71029549D01*
X125350131Y-71027000D01*
X125427560Y-71019374D01*
X125526900Y-70989239D01*
X125618452Y-70940304D01*
X125698698Y-70874448D01*
X125715205Y-70854334D01*
X132930100Y-63639440D01*
X132930100Y-63824610D01*
X128793869Y-67960842D01*
X128726688Y-67988669D01*
X128632184Y-68051815D01*
X128551815Y-68132184D01*
X128488669Y-68226688D01*
X128445174Y-68331695D01*
X128423000Y-68443170D01*
X128423000Y-68556830D01*
X128445174Y-68668305D01*
X128488669Y-68773312D01*
X128551815Y-68867816D01*
X128632184Y-68948185D01*
X128726688Y-69011331D01*
X128831695Y-69054826D01*
X128943170Y-69077000D01*
X129056830Y-69077000D01*
X129168305Y-69054826D01*
X129273312Y-69011331D01*
X129367816Y-68948185D01*
X129448185Y-68867816D01*
X129511331Y-68773312D01*
X129539158Y-68706131D01*
X133811439Y-64433851D01*
X133831548Y-64417348D01*
X133897404Y-64337102D01*
X133946339Y-64245550D01*
X133976474Y-64146210D01*
X133984100Y-64068781D01*
X133984100Y-64068779D01*
X133986649Y-64042901D01*
X133984100Y-64017023D01*
X133984100Y-63592583D01*
X134011926Y-63525405D01*
X134034100Y-63413930D01*
X134034100Y-63300270D01*
X134011926Y-63188795D01*
X133968431Y-63083788D01*
X133905285Y-62989284D01*
X133824916Y-62908915D01*
X133730412Y-62845769D01*
X133725716Y-62843824D01*
X134914339Y-61655201D01*
X134934448Y-61638698D01*
X135000304Y-61558452D01*
X135049239Y-61466900D01*
X135079374Y-61367560D01*
X135087000Y-61290131D01*
X135089549Y-61264250D01*
X135087000Y-61238369D01*
X135087000Y-60365009D01*
X135125628Y-60317941D01*
X135188492Y-60200330D01*
X135227204Y-60072715D01*
X135237000Y-59973252D01*
X135237000Y-59406748D01*
X135227204Y-59307285D01*
X135188492Y-59179670D01*
X135125628Y-59062059D01*
X135041026Y-58958973D01*
X134937940Y-58874372D01*
X134820329Y-58811508D01*
X134692714Y-58772796D01*
X134560000Y-58759725D01*
X134427285Y-58772796D01*
X134299670Y-58811508D01*
X134182059Y-58874372D01*
X134078973Y-58958974D01*
X133994372Y-59062060D01*
X133935000Y-59173137D01*
X133875628Y-59062059D01*
X133791026Y-58958973D01*
X133687940Y-58874372D01*
X133570329Y-58811508D01*
X133442714Y-58772796D01*
X133310000Y-58759725D01*
X133177285Y-58772796D01*
X133049670Y-58811508D01*
X132932059Y-58874372D01*
X132828973Y-58958974D01*
X132744372Y-59062060D01*
X132685000Y-59173137D01*
X132625628Y-59062059D01*
X132541026Y-58958973D01*
X132437940Y-58874372D01*
X132437000Y-58873870D01*
X132437000Y-57148508D01*
X132438823Y-57129999D01*
X132437000Y-57111490D01*
X132437000Y-57111481D01*
X132431545Y-57056095D01*
X132409988Y-56985030D01*
X132374981Y-56919537D01*
X132327869Y-56862131D01*
X132313487Y-56850328D01*
X131133000Y-55669842D01*
X131133000Y-55569170D01*
X131110826Y-55457695D01*
X131067331Y-55352688D01*
X131004185Y-55258184D01*
X130923816Y-55177815D01*
X130829312Y-55114669D01*
X130724305Y-55071174D01*
X130612830Y-55049000D01*
X130499170Y-55049000D01*
X130387695Y-55071174D01*
X130282688Y-55114669D01*
X130188184Y-55177815D01*
X130107815Y-55258184D01*
X130044669Y-55352688D01*
X130001174Y-55457695D01*
X129979000Y-55569170D01*
X129979000Y-55682830D01*
X130001174Y-55794305D01*
X130044669Y-55899312D01*
X130107815Y-55993816D01*
X130188184Y-56074185D01*
X130282688Y-56137331D01*
X130387695Y-56180826D01*
X130499170Y-56203000D01*
X130599842Y-56203000D01*
X131683001Y-57286160D01*
X131683000Y-58615397D01*
X131661185Y-58588815D01*
X131564494Y-58509463D01*
X131454180Y-58450498D01*
X131334482Y-58414188D01*
X131210000Y-58401928D01*
X131095750Y-58405000D01*
X130937000Y-58563750D01*
X130937000Y-59563000D01*
X130957000Y-59563000D01*
X130957000Y-59817000D01*
X130937000Y-59817000D01*
X130937000Y-60816250D01*
X131095750Y-60975000D01*
X131210000Y-60978072D01*
X131334482Y-60965812D01*
X131454180Y-60929502D01*
X131564494Y-60870537D01*
X131633001Y-60814315D01*
X131633001Y-61311130D01*
X124271132Y-68673000D01*
X115160967Y-68673000D01*
X115140000Y-68670935D01*
X115119033Y-68673000D01*
X115119022Y-68673000D01*
X115056293Y-68679178D01*
X114975804Y-68703595D01*
X114969434Y-68707000D01*
X114901623Y-68743244D01*
X114852899Y-68783232D01*
X114852895Y-68783236D01*
X114836605Y-68796605D01*
X114823236Y-68812895D01*
X113675569Y-69960563D01*
X113568734Y-69916310D01*
X113351000Y-69873000D01*
X113129000Y-69873000D01*
X112911266Y-69916310D01*
X112706165Y-70001266D01*
X112521579Y-70124602D01*
X112364602Y-70281579D01*
X112241266Y-70466165D01*
X112185619Y-70600508D01*
X112188072Y-70150000D01*
X112175812Y-70025518D01*
X112139502Y-69905820D01*
X112080537Y-69795506D01*
X112001185Y-69698815D01*
X111904494Y-69619463D01*
X111794180Y-69560498D01*
X111674482Y-69524188D01*
X111550000Y-69511928D01*
X110985750Y-69515000D01*
X110827000Y-69673750D01*
X110573000Y-69673750D01*
X110414250Y-69515000D01*
X109850000Y-69511928D01*
X109725518Y-69524188D01*
X109605820Y-69560498D01*
X109495506Y-69619463D01*
X109398815Y-69698815D01*
X109319463Y-69795506D01*
X109260498Y-69905820D01*
X109224188Y-70025518D01*
X109211928Y-70150000D01*
X106850521Y-70150000D01*
X107053355Y-70029178D01*
X107269588Y-69834269D01*
X107443641Y-69600920D01*
X107568825Y-69338099D01*
X107613476Y-69190890D01*
X107492155Y-68961000D01*
X106299000Y-68961000D01*
X106045000Y-68961000D01*
X106025000Y-68961000D01*
X106025000Y-68707000D01*
X106045000Y-68707000D01*
X106045000Y-68687000D01*
X106299000Y-68687000D01*
X106299000Y-68707000D01*
X107492155Y-68707000D01*
X107613476Y-68477110D01*
X107568825Y-68329901D01*
X107527515Y-68243170D01*
X113423000Y-68243170D01*
X113423000Y-68356830D01*
X113445174Y-68468305D01*
X113488669Y-68573312D01*
X113551815Y-68667816D01*
X113632184Y-68748185D01*
X113726688Y-68811331D01*
X113831695Y-68854826D01*
X113943170Y-68877000D01*
X114056830Y-68877000D01*
X114168305Y-68854826D01*
X114273312Y-68811331D01*
X114367816Y-68748185D01*
X114448185Y-68667816D01*
X114511331Y-68573312D01*
X114539158Y-68506131D01*
X117018290Y-66027000D01*
X118664483Y-66027000D01*
X118731695Y-66054840D01*
X118843170Y-66077014D01*
X118956830Y-66077014D01*
X119068305Y-66054840D01*
X119173312Y-66011345D01*
X119267816Y-65948199D01*
X119348185Y-65867830D01*
X119411331Y-65773326D01*
X119439158Y-65706145D01*
X120768305Y-64377000D01*
X120856830Y-64377000D01*
X120968305Y-64354826D01*
X121073312Y-64311331D01*
X121167816Y-64248185D01*
X121248185Y-64167816D01*
X121311331Y-64073312D01*
X121354826Y-63968305D01*
X121377000Y-63856830D01*
X121377000Y-63743170D01*
X121354826Y-63631695D01*
X121311331Y-63526688D01*
X121248185Y-63432184D01*
X121167816Y-63351815D01*
X121073312Y-63288669D01*
X120968305Y-63245174D01*
X120856830Y-63223000D01*
X120743170Y-63223000D01*
X120631695Y-63245174D01*
X120561517Y-63274243D01*
X120496704Y-63280626D01*
X120397364Y-63310761D01*
X120305812Y-63359696D01*
X120225566Y-63425552D01*
X120209067Y-63445656D01*
X118693869Y-64960856D01*
X118664550Y-64973000D01*
X116825881Y-64973000D01*
X116800000Y-64970451D01*
X116774119Y-64973000D01*
X116696690Y-64980626D01*
X116597350Y-65010761D01*
X116505798Y-65059696D01*
X116425552Y-65125552D01*
X116409049Y-65145661D01*
X113793869Y-67760842D01*
X113726688Y-67788669D01*
X113632184Y-67851815D01*
X113551815Y-67932184D01*
X113488669Y-68026688D01*
X113445174Y-68131695D01*
X113423000Y-68243170D01*
X107527515Y-68243170D01*
X107443641Y-68067080D01*
X107269588Y-67833731D01*
X107053355Y-67638822D01*
X106803252Y-67489843D01*
X106528891Y-67392519D01*
X106299002Y-67513185D01*
X106299002Y-67417817D01*
X106500734Y-67377690D01*
X106705835Y-67292734D01*
X106890421Y-67169398D01*
X107047398Y-67012421D01*
X107170734Y-66827835D01*
X107255690Y-66622734D01*
X107299000Y-66405000D01*
X107299000Y-66183000D01*
X107255690Y-65965266D01*
X107170734Y-65760165D01*
X107047398Y-65575579D01*
X106890421Y-65418602D01*
X106705835Y-65295266D01*
X106500734Y-65210310D01*
X106283000Y-65167000D01*
X106061000Y-65167000D01*
X105843266Y-65210310D01*
X105638165Y-65295266D01*
X105453579Y-65418602D01*
X105296602Y-65575579D01*
X105173266Y-65760165D01*
X105088310Y-65965266D01*
X105045000Y-66183000D01*
X105045000Y-66405000D01*
X105088310Y-66622734D01*
X105153273Y-66779569D01*
X104394519Y-67538323D01*
X104380131Y-67550131D01*
X104333019Y-67607538D01*
X104298012Y-67673031D01*
X104276455Y-67744096D01*
X104271000Y-67799482D01*
X104271000Y-67799488D01*
X104269177Y-67818000D01*
X104271000Y-67836512D01*
X104271000Y-67945977D01*
X104221588Y-67879731D01*
X104005355Y-67684822D01*
X103755252Y-67535843D01*
X103480891Y-67438519D01*
X103251002Y-67559185D01*
X103251002Y-67463817D01*
X103452734Y-67423690D01*
X103657835Y-67338734D01*
X103842421Y-67215398D01*
X103999398Y-67058421D01*
X104122734Y-66873835D01*
X104207690Y-66668734D01*
X104251000Y-66451000D01*
X104251000Y-66229000D01*
X104207690Y-66011266D01*
X104122734Y-65806165D01*
X103999398Y-65621579D01*
X103842421Y-65464602D01*
X103657835Y-65341266D01*
X103452734Y-65256310D01*
X103235000Y-65213000D01*
X103013000Y-65213000D01*
X102795266Y-65256310D01*
X102590165Y-65341266D01*
X102405579Y-65464602D01*
X102248602Y-65621579D01*
X102125266Y-65806165D01*
X102040310Y-66011266D01*
X101997000Y-66229000D01*
X101997000Y-66451000D01*
X102040310Y-66668734D01*
X102125266Y-66873835D01*
X102248602Y-67058421D01*
X102405579Y-67215398D01*
X102590165Y-67338734D01*
X102795266Y-67423690D01*
X102996998Y-67463817D01*
X102996998Y-67559185D01*
X102767109Y-67438519D01*
X102492748Y-67535843D01*
X102242645Y-67684822D01*
X102026412Y-67879731D01*
X101852359Y-68113080D01*
X101727175Y-68375901D01*
X101682524Y-68523110D01*
X101803845Y-68753000D01*
X102997000Y-68753000D01*
X102997000Y-68733000D01*
X103251000Y-68733000D01*
X103251000Y-68753000D01*
X103271000Y-68753000D01*
X103271000Y-69007000D01*
X103251000Y-69007000D01*
X103251000Y-70200814D01*
X103480891Y-70321481D01*
X103755252Y-70224157D01*
X104005355Y-70075178D01*
X104221588Y-69880269D01*
X104271001Y-69814022D01*
X104271001Y-70201841D01*
X103983842Y-70489000D01*
X101277001Y-70489000D01*
X101205816Y-70417815D01*
X101111312Y-70354669D01*
X101006305Y-70311174D01*
X100894830Y-70289000D01*
X100781170Y-70289000D01*
X100669695Y-70311174D01*
X100564688Y-70354669D01*
X100470184Y-70417815D01*
X100389815Y-70498184D01*
X100326669Y-70592688D01*
X100283174Y-70697695D01*
X100261000Y-70809170D01*
X95152000Y-70809170D01*
X95152000Y-69236890D01*
X101682524Y-69236890D01*
X101727175Y-69384099D01*
X101852359Y-69646920D01*
X102026412Y-69880269D01*
X102242645Y-70075178D01*
X102492748Y-70224157D01*
X102767109Y-70321481D01*
X102997000Y-70200814D01*
X102997000Y-69007000D01*
X101803845Y-69007000D01*
X101682524Y-69236890D01*
X95152000Y-69236890D01*
X95152000Y-67698170D01*
X97912000Y-67698170D01*
X97912000Y-67811830D01*
X97934174Y-67923305D01*
X97977669Y-68028312D01*
X98040815Y-68122816D01*
X98121184Y-68203185D01*
X98215688Y-68266331D01*
X98320695Y-68309826D01*
X98432170Y-68332000D01*
X98545830Y-68332000D01*
X98657305Y-68309826D01*
X98762312Y-68266331D01*
X98856816Y-68203185D01*
X98937185Y-68122816D01*
X99000331Y-68028312D01*
X99043826Y-67923305D01*
X99066000Y-67811830D01*
X99066000Y-67711158D01*
X99567487Y-67209672D01*
X99581869Y-67197869D01*
X99628981Y-67140463D01*
X99663988Y-67074970D01*
X99685545Y-67003905D01*
X99691000Y-66948519D01*
X99691000Y-66948510D01*
X99692823Y-66930001D01*
X99691000Y-66911492D01*
X99691000Y-66835798D01*
X99739688Y-66868331D01*
X99844695Y-66911826D01*
X99956170Y-66934000D01*
X100069830Y-66934000D01*
X100181305Y-66911826D01*
X100286312Y-66868331D01*
X100380816Y-66805185D01*
X100461185Y-66724816D01*
X100524331Y-66630312D01*
X100567826Y-66525305D01*
X100590000Y-66413830D01*
X100590000Y-66300170D01*
X100567826Y-66188695D01*
X100524331Y-66083688D01*
X100461185Y-65989184D01*
X100453000Y-65980999D01*
X100453000Y-63685001D01*
X100524185Y-63613816D01*
X100587331Y-63519312D01*
X100630826Y-63414305D01*
X100653000Y-63302830D01*
X100653000Y-63189170D01*
X100630826Y-63077695D01*
X100587331Y-62972688D01*
X100572172Y-62950000D01*
X101995660Y-62950000D01*
X101995660Y-64650000D01*
X102001008Y-64704301D01*
X102016847Y-64756516D01*
X102042569Y-64804637D01*
X102077184Y-64846816D01*
X102119363Y-64881431D01*
X102167484Y-64907153D01*
X102219699Y-64922992D01*
X102274000Y-64928340D01*
X103974000Y-64928340D01*
X104028301Y-64922992D01*
X104080516Y-64907153D01*
X104128637Y-64881431D01*
X104170816Y-64846816D01*
X104205431Y-64804637D01*
X104231153Y-64756516D01*
X104246992Y-64704301D01*
X104252340Y-64650000D01*
X104252340Y-62950000D01*
X104247810Y-62904000D01*
X105043660Y-62904000D01*
X105043660Y-64604000D01*
X105049008Y-64658301D01*
X105064847Y-64710516D01*
X105090569Y-64758637D01*
X105125184Y-64800816D01*
X105167363Y-64835431D01*
X105215484Y-64861153D01*
X105267699Y-64876992D01*
X105322000Y-64882340D01*
X107022000Y-64882340D01*
X107076301Y-64876992D01*
X107128516Y-64861153D01*
X107176637Y-64835431D01*
X107218816Y-64800816D01*
X107253431Y-64758637D01*
X107279153Y-64710516D01*
X107294992Y-64658301D01*
X107300340Y-64604000D01*
X107300340Y-63370950D01*
X107644291Y-63027000D01*
X121164517Y-63027000D01*
X121231695Y-63054826D01*
X121343170Y-63077000D01*
X121456830Y-63077000D01*
X121568305Y-63054826D01*
X121673312Y-63011331D01*
X121767816Y-62948185D01*
X121848185Y-62867816D01*
X121911331Y-62773312D01*
X121954826Y-62668305D01*
X121977000Y-62556830D01*
X121977000Y-62443170D01*
X121954826Y-62331695D01*
X121911331Y-62226688D01*
X121848185Y-62132184D01*
X121767816Y-62051815D01*
X121673312Y-61988669D01*
X121568305Y-61945174D01*
X121456830Y-61923000D01*
X121343170Y-61923000D01*
X121231695Y-61945174D01*
X121164517Y-61973000D01*
X107451881Y-61973000D01*
X107426000Y-61970451D01*
X107400119Y-61973000D01*
X107322690Y-61980626D01*
X107223350Y-62010761D01*
X107131798Y-62059696D01*
X107051552Y-62125552D01*
X107035053Y-62145656D01*
X106555050Y-62625660D01*
X105322000Y-62625660D01*
X105267699Y-62631008D01*
X105215484Y-62646847D01*
X105167363Y-62672569D01*
X105125184Y-62707184D01*
X105090569Y-62749363D01*
X105064847Y-62797484D01*
X105049008Y-62849699D01*
X105043660Y-62904000D01*
X104247810Y-62904000D01*
X104246992Y-62895699D01*
X104231153Y-62843484D01*
X104205431Y-62795363D01*
X104170816Y-62753184D01*
X104128637Y-62718569D01*
X104080516Y-62692847D01*
X104028301Y-62677008D01*
X103974000Y-62671660D01*
X102274000Y-62671660D01*
X102219699Y-62677008D01*
X102167484Y-62692847D01*
X102119363Y-62718569D01*
X102077184Y-62753184D01*
X102042569Y-62795363D01*
X102016847Y-62843484D01*
X102001008Y-62895699D01*
X101995660Y-62950000D01*
X100572172Y-62950000D01*
X100524185Y-62878184D01*
X100443816Y-62797815D01*
X100349312Y-62734669D01*
X100244305Y-62691174D01*
X100132830Y-62669000D01*
X100019170Y-62669000D01*
X99907695Y-62691174D01*
X99802688Y-62734669D01*
X99708184Y-62797815D01*
X99695000Y-62810999D01*
X99681816Y-62797815D01*
X99587312Y-62734669D01*
X99482305Y-62691174D01*
X99370830Y-62669000D01*
X99257170Y-62669000D01*
X99145695Y-62691174D01*
X99040688Y-62734669D01*
X98946184Y-62797815D01*
X98865815Y-62878184D01*
X98802669Y-62972688D01*
X98759174Y-63077695D01*
X98737000Y-63189170D01*
X98737000Y-63302830D01*
X98759174Y-63414305D01*
X98802669Y-63519312D01*
X98865815Y-63613816D01*
X98937000Y-63685001D01*
X98937001Y-66773840D01*
X98532842Y-67178000D01*
X98432170Y-67178000D01*
X98320695Y-67200174D01*
X98215688Y-67243669D01*
X98121184Y-67306815D01*
X98040815Y-67387184D01*
X97977669Y-67481688D01*
X97934174Y-67586695D01*
X97912000Y-67698170D01*
X95152000Y-67698170D01*
X95152000Y-62318000D01*
X95793928Y-62318000D01*
X95806188Y-62442482D01*
X95842498Y-62562180D01*
X95901463Y-62672494D01*
X95980815Y-62769185D01*
X96077506Y-62848537D01*
X96187820Y-62907502D01*
X96307518Y-62943812D01*
X96432000Y-62956072D01*
X96996250Y-62953000D01*
X97155000Y-62794250D01*
X97155000Y-61595000D01*
X97409000Y-61595000D01*
X97409000Y-62794250D01*
X97567750Y-62953000D01*
X98132000Y-62956072D01*
X98256482Y-62943812D01*
X98376180Y-62907502D01*
X98486494Y-62848537D01*
X98583185Y-62769185D01*
X98662537Y-62672494D01*
X98721502Y-62562180D01*
X98757812Y-62442482D01*
X98770072Y-62318000D01*
X98767000Y-61753750D01*
X98608250Y-61595000D01*
X97409000Y-61595000D01*
X97155000Y-61595000D01*
X95955750Y-61595000D01*
X95797000Y-61753750D01*
X95793928Y-62318000D01*
X95152000Y-62318000D01*
X95152000Y-60618000D01*
X95793928Y-60618000D01*
X95797000Y-61182250D01*
X95955750Y-61341000D01*
X97155000Y-61341000D01*
X97155000Y-61321000D01*
X97409000Y-61321000D01*
X97409000Y-61341000D01*
X98608250Y-61341000D01*
X98767000Y-61182250D01*
X98770072Y-60618000D01*
X98757812Y-60493518D01*
X98721502Y-60373820D01*
X98662537Y-60263506D01*
X98583185Y-60166815D01*
X98486494Y-60087463D01*
X98376180Y-60028498D01*
X98256482Y-59992188D01*
X98132000Y-59979928D01*
X97681492Y-59982381D01*
X97815835Y-59926734D01*
X98000421Y-59803398D01*
X98157398Y-59646421D01*
X98280734Y-59461835D01*
X98324987Y-59355000D01*
X100448999Y-59355000D01*
X100470184Y-59376185D01*
X100564688Y-59439331D01*
X100669695Y-59482826D01*
X100781170Y-59505000D01*
X100894830Y-59505000D01*
X101006305Y-59482826D01*
X101111312Y-59439331D01*
X101205816Y-59376185D01*
X101286185Y-59295816D01*
X101349331Y-59201312D01*
X101392826Y-59096305D01*
X101415000Y-58984830D01*
X101415000Y-58871170D01*
X101392826Y-58759695D01*
X101349331Y-58654688D01*
X101286185Y-58560184D01*
X101205816Y-58479815D01*
X101111312Y-58416669D01*
X101006305Y-58373174D01*
X100894830Y-58351000D01*
X100781170Y-58351000D01*
X100669695Y-58373174D01*
X100564688Y-58416669D01*
X100470184Y-58479815D01*
X100448999Y-58501000D01*
X98324987Y-58501000D01*
X98280734Y-58394165D01*
X98157398Y-58209579D01*
X98000421Y-58052602D01*
X97815835Y-57929266D01*
X97610734Y-57844310D01*
X97393000Y-57801000D01*
X97171000Y-57801000D01*
X96953266Y-57844310D01*
X96748165Y-57929266D01*
X96563579Y-58052602D01*
X96406602Y-58209579D01*
X96283266Y-58394165D01*
X96198310Y-58599266D01*
X96155000Y-58817000D01*
X96155000Y-59039000D01*
X96198310Y-59256734D01*
X96283266Y-59461835D01*
X96406602Y-59646421D01*
X96563579Y-59803398D01*
X96748165Y-59926734D01*
X96882508Y-59982381D01*
X96432000Y-59979928D01*
X96307518Y-59992188D01*
X96187820Y-60028498D01*
X96077506Y-60087463D01*
X95980815Y-60166815D01*
X95901463Y-60263506D01*
X95842498Y-60373820D01*
X95806188Y-60493518D01*
X95793928Y-60618000D01*
X95152000Y-60618000D01*
X95152000Y-56277000D01*
X96155000Y-56277000D01*
X96155000Y-56499000D01*
X96198310Y-56716734D01*
X96283266Y-56921835D01*
X96406602Y-57106421D01*
X96563579Y-57263398D01*
X96748165Y-57386734D01*
X96953266Y-57471690D01*
X97171000Y-57515000D01*
X97393000Y-57515000D01*
X97610734Y-57471690D01*
X97815835Y-57386734D01*
X98000421Y-57263398D01*
X98157398Y-57106421D01*
X98280734Y-56921835D01*
X98345697Y-56765000D01*
X103700999Y-56765000D01*
X103772184Y-56836185D01*
X103866688Y-56899331D01*
X103971695Y-56942826D01*
X104083170Y-56965000D01*
X104196830Y-56965000D01*
X104308305Y-56942826D01*
X104413312Y-56899331D01*
X104507816Y-56836185D01*
X104588185Y-56755816D01*
X104651331Y-56661312D01*
X104694826Y-56556305D01*
X104717000Y-56444830D01*
X104717000Y-56331170D01*
X104694826Y-56219695D01*
X104665958Y-56150000D01*
X104871660Y-56150000D01*
X104871660Y-57850000D01*
X104877008Y-57904301D01*
X104892847Y-57956516D01*
X104918569Y-58004637D01*
X104953184Y-58046816D01*
X104995363Y-58081431D01*
X105043484Y-58107153D01*
X105095699Y-58122992D01*
X105150000Y-58128340D01*
X106383051Y-58128340D01*
X108809049Y-60554339D01*
X108825552Y-60574448D01*
X108905798Y-60640304D01*
X108997350Y-60689239D01*
X109096690Y-60719374D01*
X109174119Y-60727000D01*
X109174121Y-60727000D01*
X109199999Y-60729549D01*
X109225877Y-60727000D01*
X118664517Y-60727000D01*
X118731695Y-60754826D01*
X118843170Y-60777000D01*
X118956830Y-60777000D01*
X119068305Y-60754826D01*
X119173312Y-60711331D01*
X119267816Y-60648185D01*
X119348185Y-60567816D01*
X119411331Y-60473312D01*
X119454826Y-60368305D01*
X119477000Y-60256830D01*
X119477000Y-60143170D01*
X119454826Y-60031695D01*
X119411331Y-59926688D01*
X119348185Y-59832184D01*
X119267816Y-59751815D01*
X119173312Y-59688669D01*
X119068305Y-59645174D01*
X118956830Y-59623000D01*
X118843170Y-59623000D01*
X118731695Y-59645174D01*
X118664517Y-59673000D01*
X109418290Y-59673000D01*
X108185503Y-58440213D01*
X108413000Y-58320155D01*
X108413000Y-57127000D01*
X108393000Y-57127000D01*
X108393000Y-56873000D01*
X108413000Y-56873000D01*
X108413000Y-55679845D01*
X108667000Y-55679845D01*
X108667000Y-56873000D01*
X108687000Y-56873000D01*
X108687000Y-57127000D01*
X108667000Y-57127000D01*
X108667000Y-58320155D01*
X108896890Y-58441476D01*
X109044099Y-58396825D01*
X109306920Y-58271641D01*
X109540269Y-58097588D01*
X109735178Y-57881355D01*
X109884157Y-57631252D01*
X109981481Y-57356891D01*
X109860815Y-57127002D01*
X109956183Y-57127002D01*
X109996310Y-57328734D01*
X110081266Y-57533835D01*
X110204602Y-57718421D01*
X110361579Y-57875398D01*
X110546165Y-57998734D01*
X110751266Y-58083690D01*
X110969000Y-58127000D01*
X111191000Y-58127000D01*
X111408734Y-58083690D01*
X111613835Y-57998734D01*
X111798421Y-57875398D01*
X111955398Y-57718421D01*
X112078734Y-57533835D01*
X112163690Y-57328734D01*
X112207000Y-57111000D01*
X112207000Y-56889000D01*
X112493000Y-56889000D01*
X112493000Y-57111000D01*
X112536310Y-57328734D01*
X112621266Y-57533835D01*
X112744602Y-57718421D01*
X112901579Y-57875398D01*
X113086165Y-57998734D01*
X113291266Y-58083690D01*
X113509000Y-58127000D01*
X113731000Y-58127000D01*
X113948734Y-58083690D01*
X114153835Y-57998734D01*
X114338421Y-57875398D01*
X114495398Y-57718421D01*
X114618734Y-57533835D01*
X114703690Y-57328734D01*
X114747000Y-57111000D01*
X114747000Y-56889000D01*
X115033000Y-56889000D01*
X115033000Y-57111000D01*
X115076310Y-57328734D01*
X115161266Y-57533835D01*
X115284602Y-57718421D01*
X115441579Y-57875398D01*
X115626165Y-57998734D01*
X115831266Y-58083690D01*
X116049000Y-58127000D01*
X116271000Y-58127000D01*
X116488734Y-58083690D01*
X116693835Y-57998734D01*
X116878421Y-57875398D01*
X117035398Y-57718421D01*
X117158734Y-57533835D01*
X117243690Y-57328734D01*
X117287000Y-57111000D01*
X117287000Y-56889000D01*
X117573000Y-56889000D01*
X117573000Y-57111000D01*
X117616310Y-57328734D01*
X117701266Y-57533835D01*
X117824602Y-57718421D01*
X117981579Y-57875398D01*
X118166165Y-57998734D01*
X118371266Y-58083690D01*
X118589000Y-58127000D01*
X118811000Y-58127000D01*
X119028734Y-58083690D01*
X119233835Y-57998734D01*
X119418421Y-57875398D01*
X119575398Y-57718421D01*
X119698734Y-57533835D01*
X119783690Y-57328734D01*
X119827000Y-57111000D01*
X119827000Y-56889000D01*
X119783690Y-56671266D01*
X119698734Y-56466165D01*
X119575398Y-56281579D01*
X119418421Y-56124602D01*
X119233835Y-56001266D01*
X119028734Y-55916310D01*
X118811000Y-55873000D01*
X118589000Y-55873000D01*
X118371266Y-55916310D01*
X118166165Y-56001266D01*
X117981579Y-56124602D01*
X117824602Y-56281579D01*
X117701266Y-56466165D01*
X117616310Y-56671266D01*
X117573000Y-56889000D01*
X117287000Y-56889000D01*
X117243690Y-56671266D01*
X117158734Y-56466165D01*
X117035398Y-56281579D01*
X116878421Y-56124602D01*
X116693835Y-56001266D01*
X116488734Y-55916310D01*
X116271000Y-55873000D01*
X116049000Y-55873000D01*
X115831266Y-55916310D01*
X115626165Y-56001266D01*
X115441579Y-56124602D01*
X115284602Y-56281579D01*
X115161266Y-56466165D01*
X115076310Y-56671266D01*
X115033000Y-56889000D01*
X114747000Y-56889000D01*
X114703690Y-56671266D01*
X114638727Y-56514432D01*
X115404159Y-55749000D01*
X121103682Y-55749000D01*
X121140140Y-55803563D01*
X121209577Y-55873000D01*
X121129000Y-55873000D01*
X120911266Y-55916310D01*
X120706165Y-56001266D01*
X120521579Y-56124602D01*
X120364602Y-56281579D01*
X120241266Y-56466165D01*
X120156310Y-56671266D01*
X120113000Y-56889000D01*
X120113000Y-57111000D01*
X120156310Y-57328734D01*
X120241266Y-57533835D01*
X120364602Y-57718421D01*
X120521579Y-57875398D01*
X120706165Y-57998734D01*
X120911266Y-58083690D01*
X121129000Y-58127000D01*
X121351000Y-58127000D01*
X121568734Y-58083690D01*
X121773835Y-57998734D01*
X121958421Y-57875398D01*
X122115398Y-57718421D01*
X122238734Y-57533835D01*
X122323690Y-57328734D01*
X122367000Y-57111000D01*
X122367000Y-56889000D01*
X122323690Y-56671266D01*
X122238734Y-56466165D01*
X122115398Y-56281579D01*
X121958421Y-56124602D01*
X121819445Y-56031742D01*
X121863474Y-56022984D01*
X121986680Y-55971950D01*
X122097563Y-55897860D01*
X122191860Y-55803563D01*
X122265950Y-55692680D01*
X122316984Y-55569474D01*
X122343000Y-55438679D01*
X122343000Y-55305321D01*
X122316984Y-55174526D01*
X122265950Y-55051320D01*
X122191860Y-54940437D01*
X122097563Y-54846140D01*
X121986680Y-54772050D01*
X121863474Y-54721016D01*
X121732679Y-54695000D01*
X121599321Y-54695000D01*
X121468526Y-54721016D01*
X121345320Y-54772050D01*
X121234437Y-54846140D01*
X121140140Y-54940437D01*
X121103682Y-54995000D01*
X115266519Y-54995000D01*
X115248000Y-54993176D01*
X115174094Y-55000455D01*
X115103030Y-55022012D01*
X115037537Y-55057019D01*
X114980131Y-55104131D01*
X114968328Y-55118513D01*
X114105568Y-55981273D01*
X113948734Y-55916310D01*
X113731000Y-55873000D01*
X113509000Y-55873000D01*
X113291266Y-55916310D01*
X113086165Y-56001266D01*
X112901579Y-56124602D01*
X112744602Y-56281579D01*
X112621266Y-56466165D01*
X112536310Y-56671266D01*
X112493000Y-56889000D01*
X112207000Y-56889000D01*
X112163690Y-56671266D01*
X112078734Y-56466165D01*
X111955398Y-56281579D01*
X111798421Y-56124602D01*
X111613835Y-56001266D01*
X111408734Y-55916310D01*
X111191000Y-55873000D01*
X110969000Y-55873000D01*
X110751266Y-55916310D01*
X110546165Y-56001266D01*
X110361579Y-56124602D01*
X110204602Y-56281579D01*
X110081266Y-56466165D01*
X109996310Y-56671266D01*
X109956183Y-56872998D01*
X109860815Y-56872998D01*
X109981481Y-56643109D01*
X109884157Y-56368748D01*
X109735178Y-56118645D01*
X109540269Y-55902412D01*
X109306920Y-55728359D01*
X109044099Y-55603175D01*
X108896890Y-55558524D01*
X108667000Y-55679845D01*
X108413000Y-55679845D01*
X108183110Y-55558524D01*
X108035901Y-55603175D01*
X107773080Y-55728359D01*
X107539731Y-55902412D01*
X107344822Y-56118645D01*
X107195843Y-56368748D01*
X107128340Y-56559042D01*
X107128340Y-56150000D01*
X107122992Y-56095699D01*
X107107153Y-56043484D01*
X107081431Y-55995363D01*
X107046816Y-55953184D01*
X107004637Y-55918569D01*
X106956516Y-55892847D01*
X106904301Y-55877008D01*
X106850000Y-55871660D01*
X105150000Y-55871660D01*
X105095699Y-55877008D01*
X105043484Y-55892847D01*
X104995363Y-55918569D01*
X104953184Y-55953184D01*
X104918569Y-55995363D01*
X104892847Y-56043484D01*
X104877008Y-56095699D01*
X104871660Y-56150000D01*
X104665958Y-56150000D01*
X104651331Y-56114688D01*
X104588185Y-56020184D01*
X104507816Y-55939815D01*
X104413312Y-55876669D01*
X104308305Y-55833174D01*
X104196830Y-55811000D01*
X104083170Y-55811000D01*
X103971695Y-55833174D01*
X103866688Y-55876669D01*
X103772184Y-55939815D01*
X103700999Y-56011000D01*
X98345697Y-56011000D01*
X98280734Y-55854165D01*
X98157398Y-55669579D01*
X98000421Y-55512602D01*
X97815835Y-55389266D01*
X97610734Y-55304310D01*
X97393000Y-55261000D01*
X97171000Y-55261000D01*
X96953266Y-55304310D01*
X96748165Y-55389266D01*
X96563579Y-55512602D01*
X96406602Y-55669579D01*
X96283266Y-55854165D01*
X96198310Y-56059266D01*
X96155000Y-56277000D01*
X95152000Y-56277000D01*
X95152000Y-53737000D01*
X96155000Y-53737000D01*
X96155000Y-53959000D01*
X96198310Y-54176734D01*
X96283266Y-54381835D01*
X96406602Y-54566421D01*
X96563579Y-54723398D01*
X96748165Y-54846734D01*
X96953266Y-54931690D01*
X97171000Y-54975000D01*
X97393000Y-54975000D01*
X97610734Y-54931690D01*
X97815835Y-54846734D01*
X98000421Y-54723398D01*
X98157398Y-54566421D01*
X98280734Y-54381835D01*
X98324987Y-54275000D01*
X100448999Y-54275000D01*
X100470184Y-54296185D01*
X100564688Y-54359331D01*
X100669695Y-54402826D01*
X100781170Y-54425000D01*
X100894830Y-54425000D01*
X101006305Y-54402826D01*
X101111312Y-54359331D01*
X101205816Y-54296185D01*
X101286185Y-54215816D01*
X101349331Y-54121312D01*
X101392826Y-54016305D01*
X101415000Y-53904830D01*
X101415000Y-53791170D01*
X101392826Y-53679695D01*
X101349331Y-53574688D01*
X101286185Y-53480184D01*
X101205816Y-53399815D01*
X101111312Y-53336669D01*
X101006305Y-53293174D01*
X100894830Y-53271000D01*
X100781170Y-53271000D01*
X100669695Y-53293174D01*
X100564688Y-53336669D01*
X100470184Y-53399815D01*
X100448999Y-53421000D01*
X98324987Y-53421000D01*
X98280734Y-53314165D01*
X98157398Y-53129579D01*
X98000421Y-52972602D01*
X97815835Y-52849266D01*
X97610734Y-52764310D01*
X97393000Y-52721000D01*
X97171000Y-52721000D01*
X96953266Y-52764310D01*
X96748165Y-52849266D01*
X96563579Y-52972602D01*
X96406602Y-53129579D01*
X96283266Y-53314165D01*
X96198310Y-53519266D01*
X96155000Y-53737000D01*
X95152000Y-53737000D01*
X95152000Y-46879000D01*
X96155000Y-46879000D01*
X96155000Y-47101000D01*
X96198310Y-47318734D01*
X96283266Y-47523835D01*
X96406602Y-47708421D01*
X96563579Y-47865398D01*
X96748165Y-47988734D01*
X96953266Y-48073690D01*
X97171000Y-48117000D01*
X97393000Y-48117000D01*
X97610734Y-48073690D01*
X97717569Y-48029437D01*
X99675236Y-49987105D01*
X99688605Y-50003395D01*
X99704895Y-50016764D01*
X99704899Y-50016768D01*
X99753623Y-50056756D01*
X99810538Y-50087176D01*
X99827804Y-50096405D01*
X99908293Y-50120822D01*
X99971022Y-50127000D01*
X99971033Y-50127000D01*
X99992000Y-50129065D01*
X100012967Y-50127000D01*
X100539119Y-50127000D01*
X100537174Y-50131695D01*
X100515000Y-50243170D01*
X100515000Y-50356830D01*
X100537174Y-50468305D01*
X100580669Y-50573312D01*
X100643815Y-50667816D01*
X100662256Y-50686257D01*
X100564688Y-50726671D01*
X100470184Y-50789817D01*
X100389815Y-50870186D01*
X100326669Y-50964690D01*
X100283174Y-51069697D01*
X100261000Y-51181172D01*
X100261000Y-51294832D01*
X100283174Y-51406307D01*
X100326669Y-51511314D01*
X100389815Y-51605818D01*
X100470184Y-51686187D01*
X100564688Y-51749333D01*
X100669695Y-51792828D01*
X100781170Y-51815002D01*
X100894830Y-51815002D01*
X101006305Y-51792828D01*
X101111312Y-51749333D01*
X101205816Y-51686187D01*
X101286185Y-51605818D01*
X101305441Y-51577000D01*
X103587123Y-51577000D01*
X103585174Y-51581705D01*
X103563000Y-51693180D01*
X103563000Y-51806840D01*
X103585174Y-51918315D01*
X103597056Y-51947000D01*
X102039001Y-51947000D01*
X101967816Y-51875815D01*
X101873312Y-51812669D01*
X101768305Y-51769174D01*
X101656830Y-51747000D01*
X101543170Y-51747000D01*
X101431695Y-51769174D01*
X101326688Y-51812669D01*
X101232184Y-51875815D01*
X101151815Y-51956184D01*
X101088669Y-52050688D01*
X101045174Y-52155695D01*
X101023000Y-52267170D01*
X101023000Y-52380830D01*
X101045174Y-52492305D01*
X101047119Y-52497001D01*
X100782160Y-52497001D01*
X99339677Y-51054519D01*
X99327869Y-51040131D01*
X99270463Y-50993019D01*
X99204970Y-50958012D01*
X99133905Y-50936455D01*
X99078519Y-50931000D01*
X99078512Y-50931000D01*
X99060000Y-50929177D01*
X99041488Y-50931000D01*
X98345697Y-50931000D01*
X98280734Y-50774165D01*
X98157398Y-50589579D01*
X98000421Y-50432602D01*
X97815835Y-50309266D01*
X97610734Y-50224310D01*
X97393000Y-50181000D01*
X97171000Y-50181000D01*
X96953266Y-50224310D01*
X96748165Y-50309266D01*
X96563579Y-50432602D01*
X96406602Y-50589579D01*
X96283266Y-50774165D01*
X96198310Y-50979266D01*
X96155000Y-51197000D01*
X96155000Y-51419000D01*
X96198310Y-51636734D01*
X96283266Y-51841835D01*
X96406602Y-52026421D01*
X96563579Y-52183398D01*
X96748165Y-52306734D01*
X96953266Y-52391690D01*
X97171000Y-52435000D01*
X97393000Y-52435000D01*
X97610734Y-52391690D01*
X97815835Y-52306734D01*
X98000421Y-52183398D01*
X98157398Y-52026421D01*
X98280734Y-51841835D01*
X98345697Y-51685000D01*
X98903842Y-51685000D01*
X100346329Y-53127488D01*
X100358132Y-53141870D01*
X100415538Y-53188982D01*
X100460375Y-53212948D01*
X100481031Y-53223989D01*
X100552095Y-53245546D01*
X100626001Y-53252825D01*
X100644520Y-53251001D01*
X112715487Y-53251001D01*
X112733999Y-53252824D01*
X112752511Y-53251001D01*
X112752518Y-53251001D01*
X112807904Y-53245546D01*
X112878969Y-53223989D01*
X112944462Y-53188982D01*
X113001868Y-53141870D01*
X113013676Y-53127482D01*
X114002159Y-52139000D01*
X114102830Y-52139000D01*
X114214305Y-52116826D01*
X114319312Y-52073331D01*
X114413816Y-52010185D01*
X114494185Y-51929816D01*
X114557331Y-51835312D01*
X114600826Y-51730305D01*
X114623000Y-51618830D01*
X114623000Y-51505170D01*
X114600826Y-51393695D01*
X114557331Y-51288688D01*
X114494185Y-51194184D01*
X114413816Y-51113815D01*
X114319312Y-51050669D01*
X114214305Y-51007174D01*
X114102830Y-50985000D01*
X113989170Y-50985000D01*
X113893037Y-51004122D01*
X116920160Y-47977000D01*
X118760999Y-47977000D01*
X118832184Y-48048185D01*
X118926688Y-48111331D01*
X119031695Y-48154826D01*
X119143170Y-48177000D01*
X119256830Y-48177000D01*
X119368305Y-48154826D01*
X119473312Y-48111331D01*
X119567816Y-48048185D01*
X119648185Y-47967816D01*
X119711331Y-47873312D01*
X119754826Y-47768305D01*
X119777000Y-47656830D01*
X119777000Y-47543170D01*
X119754826Y-47431695D01*
X119711331Y-47326688D01*
X119648185Y-47232184D01*
X119567816Y-47151815D01*
X119473312Y-47088669D01*
X119368305Y-47045174D01*
X119256830Y-47023000D01*
X119163838Y-47023000D01*
X119177000Y-46956830D01*
X119177000Y-46843170D01*
X119154826Y-46731695D01*
X119111331Y-46626688D01*
X119048185Y-46532184D01*
X118967816Y-46451815D01*
X118873312Y-46388669D01*
X118768305Y-46345174D01*
X118656830Y-46323000D01*
X118543170Y-46323000D01*
X118431695Y-46345174D01*
X118326688Y-46388669D01*
X118232184Y-46451815D01*
X118160999Y-46523000D01*
X116694508Y-46523000D01*
X116675999Y-46521177D01*
X116657490Y-46523000D01*
X116657481Y-46523000D01*
X116602095Y-46528455D01*
X116531030Y-46550012D01*
X116465537Y-46585019D01*
X116408131Y-46632131D01*
X116396323Y-46646519D01*
X111619842Y-51423000D01*
X110132171Y-51423000D01*
X110154826Y-51368305D01*
X110177000Y-51256830D01*
X110177000Y-51143170D01*
X110154826Y-51031695D01*
X110111460Y-50927000D01*
X110374119Y-50927000D01*
X110400000Y-50929549D01*
X110425881Y-50927000D01*
X110503310Y-50919374D01*
X110602650Y-50889239D01*
X110666279Y-50855229D01*
X110668305Y-50854826D01*
X110773312Y-50811331D01*
X110867816Y-50748185D01*
X110948185Y-50667816D01*
X111011331Y-50573312D01*
X111054826Y-50468305D01*
X111077000Y-50356830D01*
X111077000Y-50243170D01*
X111054826Y-50131695D01*
X111011331Y-50026688D01*
X110948185Y-49932184D01*
X110867816Y-49851815D01*
X110773312Y-49788669D01*
X110668305Y-49745174D01*
X110556830Y-49723000D01*
X110443170Y-49723000D01*
X110331695Y-49745174D01*
X110226688Y-49788669D01*
X110132184Y-49851815D01*
X110110999Y-49873000D01*
X105952881Y-49873000D01*
X105954826Y-49868305D01*
X105977000Y-49756830D01*
X105977000Y-49643170D01*
X105954826Y-49531695D01*
X105911331Y-49426688D01*
X105848185Y-49332184D01*
X105767816Y-49251815D01*
X105673312Y-49188669D01*
X105568305Y-49145174D01*
X105456830Y-49123000D01*
X105343170Y-49123000D01*
X105231695Y-49145174D01*
X105126688Y-49188669D01*
X105032184Y-49251815D01*
X105010999Y-49273000D01*
X104131394Y-49273000D01*
X104165835Y-49258734D01*
X104350421Y-49135398D01*
X104507398Y-48978421D01*
X104630734Y-48793835D01*
X104715690Y-48588734D01*
X104759000Y-48371000D01*
X104759000Y-48149000D01*
X104715690Y-47931266D01*
X104630734Y-47726165D01*
X104507398Y-47541579D01*
X104350421Y-47384602D01*
X104165835Y-47261266D01*
X103960734Y-47176310D01*
X103743000Y-47133000D01*
X103521000Y-47133000D01*
X103303266Y-47176310D01*
X103098165Y-47261266D01*
X102913579Y-47384602D01*
X102756602Y-47541579D01*
X102633266Y-47726165D01*
X102548310Y-47931266D01*
X102505000Y-48149000D01*
X102505000Y-48371000D01*
X102548310Y-48588734D01*
X102633266Y-48793835D01*
X102756602Y-48978421D01*
X102913579Y-49135398D01*
X103098165Y-49258734D01*
X103132606Y-49273000D01*
X101591394Y-49273000D01*
X101625835Y-49258734D01*
X101810421Y-49135398D01*
X101967398Y-48978421D01*
X102090734Y-48793835D01*
X102175690Y-48588734D01*
X102219000Y-48371000D01*
X102219000Y-48149000D01*
X102175690Y-47931266D01*
X102090734Y-47726165D01*
X101967398Y-47541579D01*
X101810421Y-47384602D01*
X101625835Y-47261266D01*
X101420734Y-47176310D01*
X101203000Y-47133000D01*
X100981000Y-47133000D01*
X100763266Y-47176310D01*
X100558165Y-47261266D01*
X100373579Y-47384602D01*
X100216602Y-47541579D01*
X100093266Y-47726165D01*
X100008310Y-47931266D01*
X99965000Y-48149000D01*
X99965000Y-48371000D01*
X100008310Y-48588734D01*
X100093266Y-48793835D01*
X100216602Y-48978421D01*
X100373579Y-49135398D01*
X100558165Y-49258734D01*
X100592606Y-49273000D01*
X100168869Y-49273000D01*
X98321437Y-47425569D01*
X98365690Y-47318734D01*
X98409000Y-47101000D01*
X98409000Y-46879000D01*
X98365690Y-46661266D01*
X98280734Y-46456165D01*
X98157398Y-46271579D01*
X98000421Y-46114602D01*
X97815835Y-45991266D01*
X97610734Y-45906310D01*
X97393000Y-45863000D01*
X97171000Y-45863000D01*
X96953266Y-45906310D01*
X96748165Y-45991266D01*
X96563579Y-46114602D01*
X96406602Y-46271579D01*
X96283266Y-46456165D01*
X96198310Y-46661266D01*
X96155000Y-46879000D01*
X95152000Y-46879000D01*
X95152000Y-35980000D01*
X96153660Y-35980000D01*
X96153660Y-37680000D01*
X96159008Y-37734301D01*
X96174847Y-37786516D01*
X96200569Y-37834637D01*
X96235184Y-37876816D01*
X96277363Y-37911431D01*
X96325484Y-37937153D01*
X96377699Y-37952992D01*
X96432000Y-37958340D01*
X98089791Y-37958340D01*
X97717569Y-38330563D01*
X97610734Y-38286310D01*
X97393000Y-38243000D01*
X97171000Y-38243000D01*
X96953266Y-38286310D01*
X96748165Y-38371266D01*
X96563579Y-38494602D01*
X96406602Y-38651579D01*
X96283266Y-38836165D01*
X96198310Y-39041266D01*
X96155000Y-39259000D01*
X96155000Y-39481000D01*
X96198310Y-39698734D01*
X96283266Y-39903835D01*
X96406602Y-40088421D01*
X96563579Y-40245398D01*
X96748165Y-40368734D01*
X96953266Y-40453690D01*
X97171000Y-40497000D01*
X97393000Y-40497000D01*
X97610734Y-40453690D01*
X97815835Y-40368734D01*
X97850680Y-40345451D01*
X97409792Y-40786340D01*
X97393000Y-40783000D01*
X97171000Y-40783000D01*
X96953266Y-40826310D01*
X96748165Y-40911266D01*
X96563579Y-41034602D01*
X96406602Y-41191579D01*
X96283266Y-41376165D01*
X96198310Y-41581266D01*
X96155000Y-41799000D01*
X96155000Y-42021000D01*
X96198310Y-42238734D01*
X96283266Y-42443835D01*
X96406602Y-42628421D01*
X96563579Y-42785398D01*
X96748165Y-42908734D01*
X96953266Y-42993690D01*
X97171000Y-43037000D01*
X97393000Y-43037000D01*
X97610734Y-42993690D01*
X97815835Y-42908734D01*
X98000421Y-42785398D01*
X98157398Y-42628421D01*
X98280734Y-42443835D01*
X98286999Y-42428709D01*
X98286999Y-42841132D01*
X97717569Y-43410563D01*
X97610734Y-43366310D01*
X97393000Y-43323000D01*
X97171000Y-43323000D01*
X96953266Y-43366310D01*
X96748165Y-43451266D01*
X96563579Y-43574602D01*
X96406602Y-43731579D01*
X96283266Y-43916165D01*
X96198310Y-44121266D01*
X96155000Y-44339000D01*
X96155000Y-44561000D01*
X96198310Y-44778734D01*
X96283266Y-44983835D01*
X96406602Y-45168421D01*
X96563579Y-45325398D01*
X96748165Y-45448734D01*
X96953266Y-45533690D01*
X97171000Y-45577000D01*
X97393000Y-45577000D01*
X97610734Y-45533690D01*
X97815835Y-45448734D01*
X98000421Y-45325398D01*
X98157398Y-45168421D01*
X98280734Y-44983835D01*
X98365690Y-44778734D01*
X98409000Y-44561000D01*
X98409000Y-44339000D01*
X98365690Y-44121266D01*
X98321437Y-44014431D01*
X99001105Y-43334764D01*
X99017394Y-43321396D01*
X99030763Y-43305106D01*
X99030766Y-43305103D01*
X99070754Y-43256378D01*
X99099074Y-43203394D01*
X99110404Y-43182197D01*
X99134821Y-43101708D01*
X99140999Y-43038979D01*
X99140999Y-43038967D01*
X99143064Y-43018002D01*
X99140999Y-42997037D01*
X99140999Y-42716881D01*
X99145695Y-42718826D01*
X99257170Y-42741000D01*
X99370830Y-42741000D01*
X99482305Y-42718826D01*
X99587312Y-42675331D01*
X99681816Y-42612185D01*
X99762185Y-42531816D01*
X99767823Y-42523378D01*
X99695175Y-42675901D01*
X99650524Y-42823110D01*
X99771845Y-43053000D01*
X100965000Y-43053000D01*
X100965000Y-43033000D01*
X101219000Y-43033000D01*
X101219000Y-43053000D01*
X101239000Y-43053000D01*
X101239000Y-43307000D01*
X101219000Y-43307000D01*
X101219000Y-43327000D01*
X100965000Y-43327000D01*
X100965000Y-43307000D01*
X99771845Y-43307000D01*
X99650524Y-43536890D01*
X99695175Y-43684099D01*
X99820359Y-43946920D01*
X99899482Y-44052999D01*
X99839171Y-44052999D01*
X99727696Y-44075173D01*
X99622689Y-44118668D01*
X99528185Y-44181814D01*
X99447816Y-44262183D01*
X99384670Y-44356687D01*
X99341175Y-44461694D01*
X99319001Y-44573169D01*
X99319001Y-44686829D01*
X99341175Y-44798304D01*
X99384670Y-44903311D01*
X99447816Y-44997815D01*
X99528185Y-45078184D01*
X99622689Y-45141330D01*
X99727696Y-45184825D01*
X99839171Y-45206999D01*
X99952831Y-45206999D01*
X100064306Y-45184825D01*
X100105586Y-45167726D01*
X100093266Y-45186165D01*
X100008310Y-45391266D01*
X99965000Y-45609000D01*
X99965000Y-45831000D01*
X100008310Y-46048734D01*
X100093266Y-46253835D01*
X100216602Y-46438421D01*
X100373579Y-46595398D01*
X100558165Y-46718734D01*
X100763266Y-46803690D01*
X100981000Y-46847000D01*
X101203000Y-46847000D01*
X101420734Y-46803690D01*
X101625835Y-46718734D01*
X101810421Y-46595398D01*
X101967398Y-46438421D01*
X102090734Y-46253835D01*
X102175690Y-46048734D01*
X102219000Y-45831000D01*
X102219000Y-45609000D01*
X102175690Y-45391266D01*
X102090734Y-45186165D01*
X101971020Y-45006999D01*
X102752980Y-45006999D01*
X102633266Y-45186165D01*
X102548310Y-45391266D01*
X102505000Y-45609000D01*
X102505000Y-45831000D01*
X102548310Y-46048734D01*
X102633266Y-46253835D01*
X102756602Y-46438421D01*
X102913579Y-46595398D01*
X103098165Y-46718734D01*
X103303266Y-46803690D01*
X103521000Y-46847000D01*
X103743000Y-46847000D01*
X103960734Y-46803690D01*
X104165835Y-46718734D01*
X104350421Y-46595398D01*
X104507398Y-46438421D01*
X104630734Y-46253835D01*
X104715690Y-46048734D01*
X104759000Y-45831000D01*
X104759000Y-45609000D01*
X104715690Y-45391266D01*
X104630734Y-45186165D01*
X104511020Y-45006999D01*
X107751489Y-45006999D01*
X107770001Y-45008822D01*
X107788513Y-45006999D01*
X107788520Y-45006999D01*
X107843906Y-45001544D01*
X107914971Y-44979987D01*
X107980464Y-44944980D01*
X108037870Y-44897868D01*
X108049678Y-44883480D01*
X108956158Y-43977000D01*
X109056830Y-43977000D01*
X109168305Y-43954826D01*
X109273312Y-43911331D01*
X109367816Y-43848185D01*
X109448185Y-43767816D01*
X109511331Y-43673312D01*
X109554826Y-43568305D01*
X109577000Y-43456830D01*
X109577000Y-43343170D01*
X109554826Y-43231695D01*
X109511331Y-43126688D01*
X109448185Y-43032184D01*
X109367816Y-42951815D01*
X109273312Y-42888669D01*
X109168305Y-42845174D01*
X109056830Y-42823000D01*
X108943170Y-42823000D01*
X108831695Y-42845174D01*
X108726688Y-42888669D01*
X108632184Y-42951815D01*
X108551815Y-43032184D01*
X108488669Y-43126688D01*
X108445174Y-43231695D01*
X108423000Y-43343170D01*
X108423000Y-43443842D01*
X107613843Y-44252999D01*
X103986544Y-44252999D01*
X104165835Y-44178734D01*
X104350421Y-44055398D01*
X104507398Y-43898421D01*
X104630734Y-43713835D01*
X104715690Y-43508734D01*
X104759000Y-43291000D01*
X104759000Y-43069000D01*
X104715690Y-42851266D01*
X104630734Y-42646165D01*
X104507398Y-42461579D01*
X104422819Y-42377000D01*
X108560999Y-42377000D01*
X108632184Y-42448185D01*
X108726688Y-42511331D01*
X108831695Y-42554826D01*
X108943170Y-42577000D01*
X109056830Y-42577000D01*
X109168305Y-42554826D01*
X109273312Y-42511331D01*
X109367816Y-42448185D01*
X109448185Y-42367816D01*
X109511331Y-42273312D01*
X109554826Y-42168305D01*
X109577000Y-42056830D01*
X109577000Y-41943170D01*
X109554826Y-41831695D01*
X109511331Y-41726688D01*
X109448185Y-41632184D01*
X109367816Y-41551815D01*
X109273312Y-41488669D01*
X109168305Y-41445174D01*
X109056830Y-41423000D01*
X108943170Y-41423000D01*
X108831695Y-41445174D01*
X108726688Y-41488669D01*
X108632184Y-41551815D01*
X108560999Y-41623000D01*
X104724997Y-41623000D01*
X104739153Y-41596516D01*
X104754992Y-41544301D01*
X104760340Y-41490000D01*
X104760340Y-39790000D01*
X104754992Y-39735699D01*
X104739153Y-39683484D01*
X104713431Y-39635363D01*
X104678816Y-39593184D01*
X104636637Y-39558569D01*
X104588516Y-39532847D01*
X104536301Y-39517008D01*
X104482000Y-39511660D01*
X102782000Y-39511660D01*
X102727699Y-39517008D01*
X102675484Y-39532847D01*
X102627363Y-39558569D01*
X102585184Y-39593184D01*
X102556480Y-39628161D01*
X102531502Y-39545820D01*
X102472537Y-39435506D01*
X102393185Y-39338815D01*
X102296494Y-39259463D01*
X102186180Y-39200498D01*
X102108826Y-39177033D01*
X116673165Y-39177033D01*
X120572999Y-43076869D01*
X120573000Y-50510997D01*
X120551814Y-50532183D01*
X120488668Y-50626687D01*
X120445173Y-50731694D01*
X120422999Y-50843169D01*
X120422999Y-50956829D01*
X120445173Y-51068304D01*
X120488668Y-51173311D01*
X120551814Y-51267815D01*
X120632183Y-51348184D01*
X120726687Y-51411330D01*
X120831694Y-51454825D01*
X120943169Y-51476999D01*
X121056829Y-51476999D01*
X121168304Y-51454825D01*
X121273311Y-51411330D01*
X121367815Y-51348184D01*
X121448184Y-51267815D01*
X121511330Y-51173311D01*
X121554825Y-51068304D01*
X121576999Y-50956829D01*
X121576999Y-50843169D01*
X121554825Y-50731694D01*
X121511330Y-50626687D01*
X121448184Y-50532183D01*
X121426999Y-50510998D01*
X121426999Y-47652881D01*
X121431695Y-47654826D01*
X121543170Y-47677000D01*
X121656830Y-47677000D01*
X121768305Y-47654826D01*
X121873312Y-47611331D01*
X121967816Y-47548185D01*
X122048185Y-47467816D01*
X122111331Y-47373312D01*
X122154826Y-47268305D01*
X122177000Y-47156830D01*
X122177000Y-47043170D01*
X122154826Y-46931695D01*
X122111331Y-46826688D01*
X122048185Y-46732184D01*
X122027000Y-46710999D01*
X122027000Y-46452881D01*
X122031695Y-46454826D01*
X122143170Y-46477000D01*
X122256830Y-46477000D01*
X122368305Y-46454826D01*
X122473312Y-46411331D01*
X122567816Y-46348185D01*
X122648185Y-46267816D01*
X122711331Y-46173312D01*
X122754826Y-46068305D01*
X122777000Y-45956830D01*
X122777000Y-45843170D01*
X122754826Y-45731695D01*
X122711331Y-45626688D01*
X122648185Y-45532184D01*
X122627000Y-45510999D01*
X122627000Y-45252881D01*
X122631695Y-45254826D01*
X122743170Y-45277000D01*
X122856830Y-45277000D01*
X122968305Y-45254826D01*
X123073312Y-45211331D01*
X123167816Y-45148185D01*
X123248185Y-45067816D01*
X123311331Y-44973312D01*
X123354826Y-44868305D01*
X123377000Y-44756830D01*
X123377000Y-44643170D01*
X123354826Y-44531695D01*
X123311331Y-44426688D01*
X123248185Y-44332184D01*
X123227000Y-44310999D01*
X123227000Y-42811734D01*
X123229065Y-42790767D01*
X123227000Y-42769800D01*
X123227000Y-42769789D01*
X123220822Y-42707060D01*
X123196405Y-42626571D01*
X123180696Y-42597181D01*
X123156756Y-42552390D01*
X123116768Y-42503666D01*
X123116764Y-42503662D01*
X123103395Y-42487372D01*
X123087107Y-42474005D01*
X117726000Y-37112899D01*
X117712628Y-37096605D01*
X117647609Y-37043245D01*
X117617535Y-37027170D01*
X122105000Y-37027170D01*
X122105000Y-37140830D01*
X122127174Y-37252305D01*
X122170669Y-37357312D01*
X122233815Y-37451816D01*
X122314184Y-37532185D01*
X122408688Y-37595331D01*
X122513695Y-37638826D01*
X122625170Y-37661000D01*
X122725842Y-37661000D01*
X123403001Y-38338159D01*
X123403000Y-54701481D01*
X123403000Y-54761488D01*
X123401177Y-54780000D01*
X123403000Y-54798512D01*
X123403000Y-54798519D01*
X123408455Y-54853905D01*
X123430012Y-54924970D01*
X123465019Y-54990463D01*
X123512131Y-55047869D01*
X123526517Y-55059676D01*
X124673001Y-56206160D01*
X124673001Y-56307924D01*
X124655398Y-56281579D01*
X124498421Y-56124602D01*
X124313835Y-56001266D01*
X124108734Y-55916310D01*
X123891000Y-55873000D01*
X123669000Y-55873000D01*
X123451266Y-55916310D01*
X123246165Y-56001266D01*
X123061579Y-56124602D01*
X122904602Y-56281579D01*
X122781266Y-56466165D01*
X122696310Y-56671266D01*
X122653000Y-56889000D01*
X122653000Y-57111000D01*
X122696310Y-57328734D01*
X122781266Y-57533835D01*
X122904602Y-57718421D01*
X123061579Y-57875398D01*
X123246165Y-57998734D01*
X123451266Y-58083690D01*
X123669000Y-58127000D01*
X123891000Y-58127000D01*
X124108734Y-58083690D01*
X124313835Y-57998734D01*
X124498421Y-57875398D01*
X124655398Y-57718421D01*
X124673001Y-57692076D01*
X124673002Y-60793839D01*
X124543841Y-60923000D01*
X124443170Y-60923000D01*
X124331695Y-60945174D01*
X124226688Y-60988669D01*
X124132184Y-61051815D01*
X124051815Y-61132184D01*
X123988669Y-61226688D01*
X123945174Y-61331695D01*
X123923000Y-61443170D01*
X123923000Y-61556830D01*
X123945174Y-61668305D01*
X123988669Y-61773312D01*
X124051815Y-61867816D01*
X124132184Y-61948185D01*
X124226688Y-62011331D01*
X124331695Y-62054826D01*
X124443170Y-62077000D01*
X124556830Y-62077000D01*
X124668305Y-62054826D01*
X124773312Y-62011331D01*
X124867816Y-61948185D01*
X124948185Y-61867816D01*
X125011331Y-61773312D01*
X125054826Y-61668305D01*
X125077000Y-61556830D01*
X125077000Y-61456159D01*
X125303488Y-61229671D01*
X125317870Y-61217868D01*
X125364982Y-61160462D01*
X125399989Y-61094969D01*
X125410920Y-61058935D01*
X125421546Y-61023905D01*
X125428825Y-60949999D01*
X125427001Y-60931480D01*
X125427001Y-57692079D01*
X125444602Y-57718421D01*
X125601579Y-57875398D01*
X125786165Y-57998734D01*
X125991266Y-58083690D01*
X126209000Y-58127000D01*
X126431000Y-58127000D01*
X126648734Y-58083690D01*
X126853835Y-57998734D01*
X127038421Y-57875398D01*
X127195398Y-57718421D01*
X127318734Y-57533835D01*
X127397001Y-57344883D01*
X127397001Y-59239933D01*
X127394184Y-59241815D01*
X127313815Y-59322184D01*
X127250669Y-59416688D01*
X127207174Y-59521695D01*
X127185000Y-59633170D01*
X127185000Y-59746830D01*
X127207174Y-59858305D01*
X127250669Y-59963312D01*
X127313815Y-60057816D01*
X127394184Y-60138185D01*
X127488688Y-60201331D01*
X127593695Y-60244826D01*
X127705170Y-60267000D01*
X127818830Y-60267000D01*
X127930305Y-60244826D01*
X128035312Y-60201331D01*
X128097000Y-60160112D01*
X128097000Y-61193023D01*
X128097001Y-62834998D01*
X128075815Y-62856184D01*
X128012669Y-62950688D01*
X127969174Y-63055695D01*
X127947000Y-63167170D01*
X127947000Y-63280830D01*
X127969174Y-63392305D01*
X128012669Y-63497312D01*
X128075815Y-63591816D01*
X128156184Y-63672185D01*
X128250688Y-63735331D01*
X128355695Y-63778826D01*
X128467170Y-63801000D01*
X128580830Y-63801000D01*
X128692305Y-63778826D01*
X128797312Y-63735331D01*
X128891816Y-63672185D01*
X128972185Y-63591816D01*
X129035331Y-63497312D01*
X129078826Y-63392305D01*
X129101000Y-63280830D01*
X129101000Y-63167170D01*
X129078826Y-63055695D01*
X129035331Y-62950688D01*
X128972185Y-62856184D01*
X128951000Y-62834999D01*
X128951000Y-60340000D01*
X129771928Y-60340000D01*
X129784188Y-60464482D01*
X129820498Y-60584180D01*
X129879463Y-60694494D01*
X129958815Y-60791185D01*
X130055506Y-60870537D01*
X130165820Y-60929502D01*
X130285518Y-60965812D01*
X130410000Y-60978072D01*
X130524250Y-60975000D01*
X130683000Y-60816250D01*
X130683000Y-59817000D01*
X129933750Y-59817000D01*
X129775000Y-59975750D01*
X129771928Y-60340000D01*
X128951000Y-60340000D01*
X128951000Y-59040000D01*
X129771928Y-59040000D01*
X129775000Y-59404250D01*
X129933750Y-59563000D01*
X130683000Y-59563000D01*
X130683000Y-58563750D01*
X130524250Y-58405000D01*
X130410000Y-58401928D01*
X130285518Y-58414188D01*
X130165820Y-58450498D01*
X130055506Y-58509463D01*
X129958815Y-58588815D01*
X129879463Y-58685506D01*
X129820498Y-58795820D01*
X129784188Y-58915518D01*
X129771928Y-59040000D01*
X128951000Y-59040000D01*
X128951000Y-54064112D01*
X129012688Y-54105331D01*
X129117695Y-54148826D01*
X129229170Y-54171000D01*
X129342830Y-54171000D01*
X129454305Y-54148826D01*
X129559312Y-54105331D01*
X129653816Y-54042185D01*
X129725001Y-53971000D01*
X133798582Y-53971000D01*
X133811174Y-54034305D01*
X133854669Y-54139312D01*
X133917815Y-54233816D01*
X133998184Y-54314185D01*
X134092688Y-54377331D01*
X134197695Y-54420826D01*
X134309170Y-54443000D01*
X134422830Y-54443000D01*
X134534305Y-54420826D01*
X134639312Y-54377331D01*
X134733816Y-54314185D01*
X134814185Y-54233816D01*
X134877331Y-54139312D01*
X134920826Y-54034305D01*
X134943000Y-53922830D01*
X134943000Y-53809170D01*
X134920826Y-53697695D01*
X134877331Y-53592688D01*
X134814185Y-53498184D01*
X134733816Y-53417815D01*
X134639312Y-53354669D01*
X134534305Y-53311174D01*
X134422830Y-53289000D01*
X134316625Y-53289000D01*
X134304463Y-53279019D01*
X134238970Y-53244012D01*
X134167905Y-53222455D01*
X134112519Y-53217000D01*
X134112512Y-53217000D01*
X134094000Y-53215177D01*
X134075488Y-53217000D01*
X129725001Y-53217000D01*
X129653816Y-53145815D01*
X129559312Y-53082669D01*
X129454305Y-53039174D01*
X129342830Y-53017000D01*
X129229170Y-53017000D01*
X129117695Y-53039174D01*
X129012688Y-53082669D01*
X128951000Y-53123888D01*
X128951000Y-52402868D01*
X132026870Y-49327000D01*
X132056830Y-49327000D01*
X132168305Y-49304826D01*
X132273312Y-49261331D01*
X132367816Y-49198185D01*
X132448185Y-49117816D01*
X132511331Y-49023312D01*
X132554826Y-48918305D01*
X132577000Y-48806830D01*
X132577000Y-48693170D01*
X132554826Y-48581695D01*
X132511331Y-48476688D01*
X132448185Y-48382184D01*
X132367816Y-48301815D01*
X132273312Y-48238669D01*
X132168305Y-48195174D01*
X132056830Y-48173000D01*
X131943170Y-48173000D01*
X131831695Y-48195174D01*
X131726688Y-48238669D01*
X131632184Y-48301815D01*
X131551815Y-48382184D01*
X131488669Y-48476688D01*
X131445174Y-48581695D01*
X131423000Y-48693170D01*
X131423000Y-48723130D01*
X128451000Y-51695132D01*
X128451000Y-49580293D01*
X128588256Y-49443038D01*
X128608365Y-49426535D01*
X128674221Y-49346289D01*
X128723156Y-49254737D01*
X128753291Y-49155397D01*
X128760917Y-49077968D01*
X128760917Y-49077967D01*
X128763466Y-49052087D01*
X128760917Y-49026206D01*
X128760917Y-48023746D01*
X128791604Y-48044251D01*
X128896611Y-48087746D01*
X129008086Y-48109920D01*
X129121746Y-48109920D01*
X129233221Y-48087746D01*
X129338228Y-48044251D01*
X129432732Y-47981105D01*
X129513101Y-47900736D01*
X129576247Y-47806232D01*
X129619742Y-47701225D01*
X129641916Y-47589750D01*
X129641916Y-47476090D01*
X129619742Y-47364615D01*
X129576247Y-47259608D01*
X129513101Y-47165104D01*
X129441916Y-47093919D01*
X129441916Y-39675424D01*
X129443739Y-39656915D01*
X129441916Y-39638406D01*
X129441916Y-39638397D01*
X129436461Y-39583011D01*
X129414904Y-39511946D01*
X129379897Y-39446453D01*
X129332785Y-39389047D01*
X129318398Y-39377240D01*
X128339000Y-38397842D01*
X128339000Y-38297170D01*
X128316826Y-38185695D01*
X128273331Y-38080688D01*
X128210185Y-37986184D01*
X128129816Y-37905815D01*
X128035312Y-37842669D01*
X127930305Y-37799174D01*
X127818830Y-37777000D01*
X127705170Y-37777000D01*
X127593695Y-37799174D01*
X127488688Y-37842669D01*
X127394184Y-37905815D01*
X127313815Y-37986184D01*
X127250669Y-38080688D01*
X127207174Y-38185695D01*
X127185000Y-38297170D01*
X127185000Y-38410830D01*
X127207174Y-38522305D01*
X127250669Y-38627312D01*
X127313815Y-38721816D01*
X127394184Y-38802185D01*
X127488688Y-38865331D01*
X127593695Y-38908826D01*
X127705170Y-38931000D01*
X127805842Y-38931000D01*
X128687916Y-39813074D01*
X128687917Y-45321916D01*
X128637816Y-45271815D01*
X128543312Y-45208669D01*
X128438305Y-45165174D01*
X128326830Y-45143000D01*
X128213170Y-45143000D01*
X128101695Y-45165174D01*
X127996688Y-45208669D01*
X127902184Y-45271815D01*
X127885000Y-45288999D01*
X127885000Y-42603001D01*
X127956185Y-42531816D01*
X128019331Y-42437312D01*
X128062826Y-42332305D01*
X128085000Y-42220830D01*
X128085000Y-42107170D01*
X128062826Y-41995695D01*
X128019331Y-41890688D01*
X127956185Y-41796184D01*
X127875816Y-41715815D01*
X127781312Y-41652669D01*
X127676305Y-41609174D01*
X127564830Y-41587000D01*
X127451170Y-41587000D01*
X127339695Y-41609174D01*
X127234688Y-41652669D01*
X127140184Y-41715815D01*
X127059815Y-41796184D01*
X126996669Y-41890688D01*
X126953174Y-41995695D01*
X126931000Y-42107170D01*
X126931000Y-42220830D01*
X126953174Y-42332305D01*
X126996669Y-42437312D01*
X127059815Y-42531816D01*
X127131000Y-42603001D01*
X127131000Y-44239234D01*
X127061312Y-44192669D01*
X126956305Y-44149174D01*
X126844830Y-44127000D01*
X126731170Y-44127000D01*
X126619695Y-44149174D01*
X126615000Y-44151119D01*
X126615000Y-43618989D01*
X126686185Y-43547804D01*
X126749331Y-43453300D01*
X126792826Y-43348293D01*
X126815000Y-43236818D01*
X126815000Y-43123158D01*
X126792826Y-43011683D01*
X126749331Y-42906676D01*
X126686185Y-42812172D01*
X126605816Y-42731803D01*
X126511312Y-42668657D01*
X126406305Y-42625162D01*
X126294830Y-42602988D01*
X126181170Y-42602988D01*
X126069695Y-42625162D01*
X125964688Y-42668657D01*
X125870184Y-42731803D01*
X125789815Y-42812172D01*
X125726669Y-42906676D01*
X125683174Y-43011683D01*
X125661000Y-43123158D01*
X125661000Y-43236818D01*
X125683174Y-43348293D01*
X125726669Y-43453300D01*
X125789815Y-43547804D01*
X125861000Y-43618989D01*
X125861001Y-47793175D01*
X125832172Y-47812438D01*
X125751803Y-47892807D01*
X125688657Y-47987311D01*
X125645162Y-48092318D01*
X125622988Y-48203793D01*
X125622988Y-48317453D01*
X125645162Y-48428928D01*
X125688657Y-48533935D01*
X125751803Y-48628439D01*
X125832172Y-48708808D01*
X125926676Y-48771954D01*
X126031683Y-48815449D01*
X126143158Y-48837623D01*
X126256818Y-48837623D01*
X126347999Y-48819486D01*
X126347999Y-49112662D01*
X126284975Y-49175686D01*
X126221829Y-49270190D01*
X126178334Y-49375197D01*
X126156160Y-49486672D01*
X126156160Y-49600332D01*
X126178334Y-49711807D01*
X126221829Y-49816814D01*
X126284975Y-49911318D01*
X126365344Y-49991687D01*
X126459848Y-50054833D01*
X126564855Y-50098328D01*
X126676330Y-50120502D01*
X126789990Y-50120502D01*
X126901465Y-50098328D01*
X127006472Y-50054833D01*
X127100976Y-49991687D01*
X127181345Y-49911318D01*
X127244491Y-49816814D01*
X127287986Y-49711807D01*
X127310160Y-49600332D01*
X127310160Y-49486672D01*
X127287986Y-49375197D01*
X127244491Y-49270190D01*
X127243119Y-49268137D01*
X127331695Y-49304826D01*
X127398768Y-49318168D01*
X127394451Y-49362004D01*
X127397001Y-49387895D01*
X127397000Y-52603016D01*
X127369174Y-52670195D01*
X127347000Y-52781670D01*
X127347000Y-52895330D01*
X127369174Y-53006805D01*
X127397000Y-53073983D01*
X127397001Y-56655116D01*
X127318734Y-56466165D01*
X127195398Y-56281579D01*
X127038421Y-56124602D01*
X126853835Y-56001266D01*
X126648734Y-55916310D01*
X126431000Y-55873000D01*
X126209000Y-55873000D01*
X125991266Y-55916310D01*
X125786165Y-56001266D01*
X125601579Y-56124602D01*
X125444602Y-56281579D01*
X125427001Y-56307921D01*
X125427001Y-56068520D01*
X125428825Y-56050001D01*
X125421546Y-55976095D01*
X125399989Y-55905031D01*
X125382868Y-55873000D01*
X125364982Y-55839538D01*
X125352499Y-55824327D01*
X125329675Y-55796516D01*
X125329673Y-55796514D01*
X125317870Y-55782132D01*
X125303489Y-55770330D01*
X124157000Y-54623842D01*
X124157000Y-38200508D01*
X124158823Y-38181999D01*
X124157000Y-38163490D01*
X124157000Y-38163481D01*
X124151545Y-38108095D01*
X124129988Y-38037030D01*
X124094981Y-37971537D01*
X124047869Y-37914131D01*
X124033481Y-37902323D01*
X123259000Y-37127842D01*
X123259000Y-37027170D01*
X123236826Y-36915695D01*
X123193331Y-36810688D01*
X123130185Y-36716184D01*
X123049816Y-36635815D01*
X122955312Y-36572669D01*
X122850305Y-36529174D01*
X122738830Y-36507000D01*
X122625170Y-36507000D01*
X122513695Y-36529174D01*
X122408688Y-36572669D01*
X122314184Y-36635815D01*
X122233815Y-36716184D01*
X122170669Y-36810688D01*
X122127174Y-36915695D01*
X122105000Y-37027170D01*
X117617535Y-37027170D01*
X117573429Y-37003595D01*
X117492940Y-36979178D01*
X117430211Y-36973000D01*
X117430200Y-36973000D01*
X117409233Y-36970935D01*
X117388266Y-36973000D01*
X98410340Y-36973000D01*
X98410340Y-35980000D01*
X98404992Y-35925699D01*
X98389153Y-35873484D01*
X98363431Y-35825363D01*
X98328816Y-35783184D01*
X98286637Y-35748569D01*
X98238516Y-35722847D01*
X98186301Y-35707008D01*
X98132000Y-35701660D01*
X96432000Y-35701660D01*
X96377699Y-35707008D01*
X96325484Y-35722847D01*
X96277363Y-35748569D01*
X96235184Y-35783184D01*
X96200569Y-35825363D01*
X96174847Y-35873484D01*
X96159008Y-35925699D01*
X96153660Y-35980000D01*
X95152000Y-35980000D01*
X95152000Y-29007439D01*
X95168866Y-28835431D01*
X95216660Y-28677129D01*
X95294289Y-28531128D01*
X95398800Y-28402985D01*
X95526209Y-28297582D01*
X95671671Y-28218931D01*
X95829631Y-28170034D01*
X96001211Y-28152000D01*
X101473000Y-28152000D01*
X101473000Y-34200000D01*
G37*
G04 #@! TD.AperFunction*
D19*
X99765750Y-40513000D02*
X100965000Y-40513000D01*
X100965000Y-40493000D01*
X101219000Y-40493000D01*
X101219000Y-40513000D01*
X101239000Y-40513000D01*
X101239000Y-40767000D01*
X101219000Y-40767000D01*
X101219000Y-40787000D01*
X100965000Y-40787000D01*
X100965000Y-40767000D01*
X99765750Y-40767000D01*
X99607000Y-40925750D01*
X99603928Y-41490000D01*
X99616188Y-41614482D01*
X99618772Y-41623000D01*
X99515684Y-41623000D01*
X99482305Y-41609174D01*
X99370830Y-41587000D01*
X99257170Y-41587000D01*
X99145695Y-41609174D01*
X99140999Y-41611119D01*
X99140999Y-40962869D01*
X99678309Y-40425559D01*
X99765750Y-40513000D01*
G04 #@! TA.AperFunction,Conductor*
D20*
G36*
X99765750Y-40513000D02*
G01*
X100965000Y-40513000D01*
X100965000Y-40493000D01*
X101219000Y-40493000D01*
X101219000Y-40513000D01*
X101239000Y-40513000D01*
X101239000Y-40767000D01*
X101219000Y-40767000D01*
X101219000Y-40787000D01*
X100965000Y-40787000D01*
X100965000Y-40767000D01*
X99765750Y-40767000D01*
X99607000Y-40925750D01*
X99603928Y-41490000D01*
X99616188Y-41614482D01*
X99618772Y-41623000D01*
X99515684Y-41623000D01*
X99482305Y-41609174D01*
X99370830Y-41587000D01*
X99257170Y-41587000D01*
X99145695Y-41609174D01*
X99140999Y-41611119D01*
X99140999Y-40962869D01*
X99678309Y-40425559D01*
X99765750Y-40513000D01*
G37*
G04 #@! TD.AperFunction*
M02*
