G04 #@! TF.GenerationSoftware,KiCad,Pcbnew,(5.1.2)-1*
G04 #@! TF.CreationDate,2020-03-29T20:21:25+02:00*
G04 #@! TF.ProjectId,bobbycar,626f6262-7963-4617-922e-6b696361645f,rev?*
G04 #@! TF.SameCoordinates,Original*
G04 #@! TF.FileFunction,Soldermask,Top*
G04 #@! TF.FilePolarity,Negative*
%FSLAX46Y46*%
G04 Gerber Fmt 4.6, Leading zero omitted, Abs format (unit mm)*
G04 Created by KiCad (PCBNEW (5.1.2)-1) date 2020-03-29 20:21:25*
%MOMM*%
%LPD*%
G04 APERTURE LIST*
%ADD10C,0.100000*%
G04 APERTURE END LIST*
D10*
G36*
X125916627Y-71062299D02*
G01*
X125996742Y-71086602D01*
X126076855Y-71110903D01*
X126076857Y-71110904D01*
X126224518Y-71189831D01*
X126353949Y-71296051D01*
X126460169Y-71425482D01*
X126539096Y-71573143D01*
X126587701Y-71733373D01*
X126604112Y-71900000D01*
X126587701Y-72066627D01*
X126587700Y-72066629D01*
X126546046Y-72203948D01*
X126539096Y-72226857D01*
X126460169Y-72374518D01*
X126353949Y-72503949D01*
X126224518Y-72610169D01*
X126076857Y-72689096D01*
X126076855Y-72689097D01*
X125996742Y-72713399D01*
X125916627Y-72737701D01*
X125791752Y-72750000D01*
X125708248Y-72750000D01*
X125583373Y-72737701D01*
X125503258Y-72713399D01*
X125423145Y-72689097D01*
X125423143Y-72689096D01*
X125275482Y-72610169D01*
X125146051Y-72503949D01*
X125039831Y-72374518D01*
X124960904Y-72226857D01*
X124953955Y-72203948D01*
X124912300Y-72066629D01*
X124912299Y-72066627D01*
X124895888Y-71900000D01*
X124912299Y-71733373D01*
X124960904Y-71573143D01*
X125039831Y-71425482D01*
X125146051Y-71296051D01*
X125275482Y-71189831D01*
X125423143Y-71110904D01*
X125423145Y-71110903D01*
X125503258Y-71086602D01*
X125583373Y-71062299D01*
X125708248Y-71050000D01*
X125791752Y-71050000D01*
X125916627Y-71062299D01*
X125916627Y-71062299D01*
G37*
G36*
X101486627Y-70762299D02*
G01*
X101566742Y-70786602D01*
X101646855Y-70810903D01*
X101646857Y-70810904D01*
X101794518Y-70889831D01*
X101923949Y-70996051D01*
X101978317Y-71062300D01*
X102030168Y-71125481D01*
X102109097Y-71273145D01*
X102133398Y-71353258D01*
X102157701Y-71433373D01*
X102174112Y-71600000D01*
X102157701Y-71766627D01*
X102109096Y-71926857D01*
X102030169Y-72074518D01*
X101923949Y-72203949D01*
X101794518Y-72310169D01*
X101674130Y-72374518D01*
X101646855Y-72389097D01*
X101566742Y-72413399D01*
X101486627Y-72437701D01*
X101361752Y-72450000D01*
X101278248Y-72450000D01*
X101153373Y-72437701D01*
X101073258Y-72413398D01*
X100993145Y-72389097D01*
X100965870Y-72374518D01*
X100845482Y-72310169D01*
X100716051Y-72203949D01*
X100609831Y-72074518D01*
X100530904Y-71926857D01*
X100482299Y-71766627D01*
X100465888Y-71600000D01*
X100482299Y-71433373D01*
X100506602Y-71353258D01*
X100530903Y-71273145D01*
X100609832Y-71125481D01*
X100661683Y-71062300D01*
X100716051Y-70996051D01*
X100845482Y-70889831D01*
X100993143Y-70810904D01*
X100993145Y-70810903D01*
X101073258Y-70786602D01*
X101153373Y-70762299D01*
X101278248Y-70750000D01*
X101361752Y-70750000D01*
X101486627Y-70762299D01*
X101486627Y-70762299D01*
G37*
G36*
X104026627Y-70762299D02*
G01*
X104106742Y-70786602D01*
X104186855Y-70810903D01*
X104186857Y-70810904D01*
X104334518Y-70889831D01*
X104463949Y-70996051D01*
X104518317Y-71062300D01*
X104570168Y-71125481D01*
X104649097Y-71273145D01*
X104673398Y-71353258D01*
X104697701Y-71433373D01*
X104714112Y-71600000D01*
X104697701Y-71766627D01*
X104649096Y-71926857D01*
X104570169Y-72074518D01*
X104463949Y-72203949D01*
X104334518Y-72310169D01*
X104214130Y-72374518D01*
X104186855Y-72389097D01*
X104106742Y-72413399D01*
X104026627Y-72437701D01*
X103901752Y-72450000D01*
X103818248Y-72450000D01*
X103693373Y-72437701D01*
X103613258Y-72413398D01*
X103533145Y-72389097D01*
X103505870Y-72374518D01*
X103385482Y-72310169D01*
X103256051Y-72203949D01*
X103149831Y-72074518D01*
X103070904Y-71926857D01*
X103022299Y-71766627D01*
X103005888Y-71600000D01*
X103022299Y-71433373D01*
X103046602Y-71353258D01*
X103070903Y-71273145D01*
X103149832Y-71125481D01*
X103201683Y-71062300D01*
X103256051Y-70996051D01*
X103385482Y-70889831D01*
X103533143Y-70810904D01*
X103533145Y-70810903D01*
X103613258Y-70786602D01*
X103693373Y-70762299D01*
X103818248Y-70750000D01*
X103901752Y-70750000D01*
X104026627Y-70762299D01*
X104026627Y-70762299D01*
G37*
G36*
X98946627Y-70762299D02*
G01*
X99026742Y-70786602D01*
X99106855Y-70810903D01*
X99106857Y-70810904D01*
X99254518Y-70889831D01*
X99383949Y-70996051D01*
X99438317Y-71062300D01*
X99490168Y-71125481D01*
X99569097Y-71273145D01*
X99593398Y-71353258D01*
X99617701Y-71433373D01*
X99634112Y-71600000D01*
X99617701Y-71766627D01*
X99569096Y-71926857D01*
X99490169Y-72074518D01*
X99383949Y-72203949D01*
X99254518Y-72310169D01*
X99134130Y-72374518D01*
X99106855Y-72389097D01*
X99026742Y-72413399D01*
X98946627Y-72437701D01*
X98821752Y-72450000D01*
X98738248Y-72450000D01*
X98613373Y-72437701D01*
X98533258Y-72413398D01*
X98453145Y-72389097D01*
X98425870Y-72374518D01*
X98305482Y-72310169D01*
X98176051Y-72203949D01*
X98069831Y-72074518D01*
X97990904Y-71926857D01*
X97942299Y-71766627D01*
X97925888Y-71600000D01*
X97942299Y-71433373D01*
X97966602Y-71353258D01*
X97990903Y-71273145D01*
X98069832Y-71125481D01*
X98121683Y-71062300D01*
X98176051Y-70996051D01*
X98305482Y-70889831D01*
X98453143Y-70810904D01*
X98453145Y-70810903D01*
X98533258Y-70786602D01*
X98613373Y-70762299D01*
X98738248Y-70750000D01*
X98821752Y-70750000D01*
X98946627Y-70762299D01*
X98946627Y-70762299D01*
G37*
G36*
X107250000Y-72450000D02*
G01*
X105550000Y-72450000D01*
X105550000Y-70750000D01*
X107250000Y-70750000D01*
X107250000Y-72450000D01*
X107250000Y-72450000D01*
G37*
G36*
X96406627Y-70762299D02*
G01*
X96486742Y-70786602D01*
X96566855Y-70810903D01*
X96566857Y-70810904D01*
X96714518Y-70889831D01*
X96843949Y-70996051D01*
X96898317Y-71062300D01*
X96950168Y-71125481D01*
X97029097Y-71273145D01*
X97053398Y-71353258D01*
X97077701Y-71433373D01*
X97094112Y-71600000D01*
X97077701Y-71766627D01*
X97029096Y-71926857D01*
X96950169Y-72074518D01*
X96843949Y-72203949D01*
X96714518Y-72310169D01*
X96594130Y-72374518D01*
X96566855Y-72389097D01*
X96486742Y-72413399D01*
X96406627Y-72437701D01*
X96281752Y-72450000D01*
X96198248Y-72450000D01*
X96073373Y-72437701D01*
X95993258Y-72413398D01*
X95913145Y-72389097D01*
X95885870Y-72374518D01*
X95765482Y-72310169D01*
X95636051Y-72203949D01*
X95529831Y-72074518D01*
X95450904Y-71926857D01*
X95402299Y-71766627D01*
X95385888Y-71600000D01*
X95402299Y-71433373D01*
X95426602Y-71353258D01*
X95450903Y-71273145D01*
X95529832Y-71125481D01*
X95581683Y-71062300D01*
X95636051Y-70996051D01*
X95765482Y-70889831D01*
X95913143Y-70810904D01*
X95913145Y-70810903D01*
X95993258Y-70786602D01*
X96073373Y-70762299D01*
X96198248Y-70750000D01*
X96281752Y-70750000D01*
X96406627Y-70762299D01*
X96406627Y-70762299D01*
G37*
G36*
X133800000Y-72150000D02*
G01*
X132300000Y-72150000D01*
X132300000Y-70150000D01*
X133800000Y-70150000D01*
X133800000Y-72150000D01*
X133800000Y-72150000D01*
G37*
G36*
X131500000Y-72150000D02*
G01*
X130000000Y-72150000D01*
X130000000Y-70150000D01*
X131500000Y-70150000D01*
X131500000Y-72150000D01*
X131500000Y-72150000D01*
G37*
G36*
X129200000Y-72150000D02*
G01*
X127700000Y-72150000D01*
X127700000Y-70150000D01*
X129200000Y-70150000D01*
X129200000Y-72150000D01*
X129200000Y-72150000D01*
G37*
G36*
X135666627Y-68952299D02*
G01*
X135720859Y-68968750D01*
X135826855Y-69000903D01*
X135826857Y-69000904D01*
X135974518Y-69079831D01*
X136103949Y-69186051D01*
X136210169Y-69315482D01*
X136258686Y-69406250D01*
X136289097Y-69463145D01*
X136300008Y-69499116D01*
X136337701Y-69623373D01*
X136354112Y-69790000D01*
X136337701Y-69956627D01*
X136289096Y-70116857D01*
X136210169Y-70264518D01*
X136103949Y-70393949D01*
X135974518Y-70500169D01*
X135826857Y-70579096D01*
X135826855Y-70579097D01*
X135746742Y-70603399D01*
X135666627Y-70627701D01*
X135541752Y-70640000D01*
X135458248Y-70640000D01*
X135333373Y-70627701D01*
X135253258Y-70603398D01*
X135173145Y-70579097D01*
X135173143Y-70579096D01*
X135025482Y-70500169D01*
X134896051Y-70393949D01*
X134789831Y-70264518D01*
X134710904Y-70116857D01*
X134662299Y-69956627D01*
X134645888Y-69790000D01*
X134662299Y-69623373D01*
X134699992Y-69499116D01*
X134710903Y-69463145D01*
X134741314Y-69406250D01*
X134789831Y-69315482D01*
X134896051Y-69186051D01*
X135025482Y-69079831D01*
X135173143Y-69000904D01*
X135173145Y-69000903D01*
X135279141Y-68968750D01*
X135333373Y-68952299D01*
X135458248Y-68940000D01*
X135541752Y-68940000D01*
X135666627Y-68952299D01*
X135666627Y-68952299D01*
G37*
G36*
X125916627Y-68522299D02*
G01*
X125996742Y-68546602D01*
X126076855Y-68570903D01*
X126076857Y-68570904D01*
X126224518Y-68649831D01*
X126353949Y-68756051D01*
X126460169Y-68885482D01*
X126495884Y-68952300D01*
X126539097Y-69033145D01*
X126543187Y-69046629D01*
X126587701Y-69193373D01*
X126604112Y-69360000D01*
X126587701Y-69526627D01*
X126577295Y-69560930D01*
X126544484Y-69669097D01*
X126539096Y-69686857D01*
X126460169Y-69834518D01*
X126353949Y-69963949D01*
X126224518Y-70070169D01*
X126076857Y-70149096D01*
X126076855Y-70149097D01*
X125996742Y-70173398D01*
X125916627Y-70197701D01*
X125791752Y-70210000D01*
X125708248Y-70210000D01*
X125583373Y-70197701D01*
X125503258Y-70173398D01*
X125423145Y-70149097D01*
X125423143Y-70149096D01*
X125275482Y-70070169D01*
X125146051Y-69963949D01*
X125039831Y-69834518D01*
X124960904Y-69686857D01*
X124955517Y-69669097D01*
X124922705Y-69560930D01*
X124912299Y-69526627D01*
X124895888Y-69360000D01*
X124912299Y-69193373D01*
X124956813Y-69046629D01*
X124960903Y-69033145D01*
X125004116Y-68952300D01*
X125039831Y-68885482D01*
X125146051Y-68756051D01*
X125275482Y-68649831D01*
X125423143Y-68570904D01*
X125423145Y-68570903D01*
X125503258Y-68546602D01*
X125583373Y-68522299D01*
X125708248Y-68510000D01*
X125791752Y-68510000D01*
X125916627Y-68522299D01*
X125916627Y-68522299D01*
G37*
G36*
X105766627Y-68042299D02*
G01*
X105846742Y-68066602D01*
X105926855Y-68090903D01*
X105926857Y-68090904D01*
X106074518Y-68169831D01*
X106203949Y-68276051D01*
X106310168Y-68405481D01*
X106389097Y-68553145D01*
X106394484Y-68570904D01*
X106437701Y-68713373D01*
X106454112Y-68880000D01*
X106437701Y-69046627D01*
X106427628Y-69079832D01*
X106393187Y-69193373D01*
X106389096Y-69206857D01*
X106310169Y-69354518D01*
X106203949Y-69483949D01*
X106074518Y-69590169D01*
X106012398Y-69623373D01*
X105926855Y-69669097D01*
X105868313Y-69686855D01*
X105766627Y-69717701D01*
X105641752Y-69730000D01*
X105558248Y-69730000D01*
X105433373Y-69717701D01*
X105331687Y-69686855D01*
X105273145Y-69669097D01*
X105187602Y-69623373D01*
X105125482Y-69590169D01*
X104996051Y-69483949D01*
X104889831Y-69354518D01*
X104810904Y-69206857D01*
X104806814Y-69193373D01*
X104772372Y-69079832D01*
X104762299Y-69046627D01*
X104745888Y-68880000D01*
X104762299Y-68713373D01*
X104805516Y-68570904D01*
X104810903Y-68553145D01*
X104889832Y-68405481D01*
X104996051Y-68276051D01*
X105125482Y-68169831D01*
X105273143Y-68090904D01*
X105273145Y-68090903D01*
X105353258Y-68066601D01*
X105433373Y-68042299D01*
X105558248Y-68030000D01*
X105641752Y-68030000D01*
X105766627Y-68042299D01*
X105766627Y-68042299D01*
G37*
G36*
X102716627Y-68042299D02*
G01*
X102796742Y-68066602D01*
X102876855Y-68090903D01*
X102876857Y-68090904D01*
X103024518Y-68169831D01*
X103153949Y-68276051D01*
X103260168Y-68405481D01*
X103339097Y-68553145D01*
X103344484Y-68570904D01*
X103387701Y-68713373D01*
X103404112Y-68880000D01*
X103387701Y-69046627D01*
X103377628Y-69079832D01*
X103343187Y-69193373D01*
X103339096Y-69206857D01*
X103260169Y-69354518D01*
X103153949Y-69483949D01*
X103024518Y-69590169D01*
X102962398Y-69623373D01*
X102876855Y-69669097D01*
X102818313Y-69686855D01*
X102716627Y-69717701D01*
X102591752Y-69730000D01*
X102508248Y-69730000D01*
X102383373Y-69717701D01*
X102281687Y-69686855D01*
X102223145Y-69669097D01*
X102137602Y-69623373D01*
X102075482Y-69590169D01*
X101946051Y-69483949D01*
X101839831Y-69354518D01*
X101760904Y-69206857D01*
X101756814Y-69193373D01*
X101722372Y-69079832D01*
X101712299Y-69046627D01*
X101695888Y-68880000D01*
X101712299Y-68713373D01*
X101755516Y-68570904D01*
X101760903Y-68553145D01*
X101839832Y-68405481D01*
X101946051Y-68276051D01*
X102075482Y-68169831D01*
X102223143Y-68090904D01*
X102223145Y-68090903D01*
X102303258Y-68066601D01*
X102383373Y-68042299D01*
X102508248Y-68030000D01*
X102591752Y-68030000D01*
X102716627Y-68042299D01*
X102716627Y-68042299D01*
G37*
G36*
X99699116Y-68753595D02*
G01*
X99728311Y-68762452D01*
X99755223Y-68776837D01*
X99778808Y-68796192D01*
X99798163Y-68819777D01*
X99812548Y-68846689D01*
X99821405Y-68875884D01*
X99825000Y-68912390D01*
X99825000Y-69462610D01*
X99821405Y-69499116D01*
X99812548Y-69528311D01*
X99798163Y-69555223D01*
X99778808Y-69578808D01*
X99755223Y-69598163D01*
X99728311Y-69612548D01*
X99699116Y-69621405D01*
X99662610Y-69625000D01*
X99037390Y-69625000D01*
X99000884Y-69621405D01*
X98971689Y-69612548D01*
X98944777Y-69598163D01*
X98921192Y-69578808D01*
X98901837Y-69555223D01*
X98887452Y-69528311D01*
X98878595Y-69499116D01*
X98875000Y-69462610D01*
X98875000Y-68912390D01*
X98878595Y-68875884D01*
X98887452Y-68846689D01*
X98901837Y-68819777D01*
X98921192Y-68796192D01*
X98944777Y-68776837D01*
X98971689Y-68762452D01*
X99000884Y-68753595D01*
X99037390Y-68750000D01*
X99662610Y-68750000D01*
X99699116Y-68753595D01*
X99699116Y-68753595D01*
G37*
G36*
X96699116Y-68753595D02*
G01*
X96728311Y-68762452D01*
X96755223Y-68776837D01*
X96778808Y-68796192D01*
X96798163Y-68819777D01*
X96812548Y-68846689D01*
X96821405Y-68875884D01*
X96825000Y-68912390D01*
X96825000Y-69462610D01*
X96821405Y-69499116D01*
X96812548Y-69528311D01*
X96798163Y-69555223D01*
X96778808Y-69578808D01*
X96755223Y-69598163D01*
X96728311Y-69612548D01*
X96699116Y-69621405D01*
X96662610Y-69625000D01*
X96037390Y-69625000D01*
X96000884Y-69621405D01*
X95971689Y-69612548D01*
X95944777Y-69598163D01*
X95921192Y-69578808D01*
X95901837Y-69555223D01*
X95887452Y-69528311D01*
X95878595Y-69499116D01*
X95875000Y-69462610D01*
X95875000Y-68912390D01*
X95878595Y-68875884D01*
X95887452Y-68846689D01*
X95901837Y-68819777D01*
X95921192Y-68796192D01*
X95944777Y-68776837D01*
X95971689Y-68762452D01*
X96000884Y-68753595D01*
X96037390Y-68750000D01*
X96662610Y-68750000D01*
X96699116Y-68753595D01*
X96699116Y-68753595D01*
G37*
G36*
X98199116Y-68753595D02*
G01*
X98228311Y-68762452D01*
X98255223Y-68776837D01*
X98278808Y-68796192D01*
X98298163Y-68819777D01*
X98312548Y-68846689D01*
X98321405Y-68875884D01*
X98325000Y-68912390D01*
X98325000Y-69462610D01*
X98321405Y-69499116D01*
X98312548Y-69528311D01*
X98298163Y-69555223D01*
X98278808Y-69578808D01*
X98255223Y-69598163D01*
X98228311Y-69612548D01*
X98199116Y-69621405D01*
X98162610Y-69625000D01*
X97537390Y-69625000D01*
X97500884Y-69621405D01*
X97471689Y-69612548D01*
X97444777Y-69598163D01*
X97421192Y-69578808D01*
X97401837Y-69555223D01*
X97387452Y-69528311D01*
X97378595Y-69499116D01*
X97375000Y-69462610D01*
X97375000Y-68912390D01*
X97378595Y-68875884D01*
X97387452Y-68846689D01*
X97401837Y-68819777D01*
X97421192Y-68796192D01*
X97444777Y-68776837D01*
X97471689Y-68762452D01*
X97500884Y-68753595D01*
X97537390Y-68750000D01*
X98162610Y-68750000D01*
X98199116Y-68753595D01*
X98199116Y-68753595D01*
G37*
G36*
X135666627Y-66412299D02*
G01*
X135746742Y-66436601D01*
X135826855Y-66460903D01*
X135826857Y-66460904D01*
X135974518Y-66539831D01*
X136103949Y-66646051D01*
X136210169Y-66775482D01*
X136289096Y-66923143D01*
X136289097Y-66923145D01*
X136308354Y-66986627D01*
X136337701Y-67083373D01*
X136354112Y-67250000D01*
X136337701Y-67416627D01*
X136289096Y-67576857D01*
X136210169Y-67724518D01*
X136103949Y-67853949D01*
X135974518Y-67960169D01*
X135875428Y-68013134D01*
X135826855Y-68039097D01*
X135746742Y-68063399D01*
X135666627Y-68087701D01*
X135541752Y-68100000D01*
X135458248Y-68100000D01*
X135333373Y-68087701D01*
X135253258Y-68063399D01*
X135173145Y-68039097D01*
X135124572Y-68013134D01*
X135025482Y-67960169D01*
X134896051Y-67853949D01*
X134789831Y-67724518D01*
X134710904Y-67576857D01*
X134662299Y-67416627D01*
X134645888Y-67250000D01*
X134662299Y-67083373D01*
X134691646Y-66986627D01*
X134710903Y-66923145D01*
X134710904Y-66923143D01*
X134789831Y-66775482D01*
X134896051Y-66646051D01*
X135025482Y-66539831D01*
X135173143Y-66460904D01*
X135173145Y-66460903D01*
X135253258Y-66436601D01*
X135333373Y-66412299D01*
X135458248Y-66400000D01*
X135541752Y-66400000D01*
X135666627Y-66412299D01*
X135666627Y-66412299D01*
G37*
G36*
X99699116Y-67178595D02*
G01*
X99728311Y-67187452D01*
X99755223Y-67201837D01*
X99778808Y-67221192D01*
X99798163Y-67244777D01*
X99812548Y-67271689D01*
X99821405Y-67300884D01*
X99825000Y-67337390D01*
X99825000Y-67887610D01*
X99821405Y-67924116D01*
X99812548Y-67953311D01*
X99798163Y-67980223D01*
X99778808Y-68003808D01*
X99755223Y-68023163D01*
X99728311Y-68037548D01*
X99699116Y-68046405D01*
X99662610Y-68050000D01*
X99037390Y-68050000D01*
X99000884Y-68046405D01*
X98971689Y-68037548D01*
X98944777Y-68023163D01*
X98921192Y-68003808D01*
X98901837Y-67980223D01*
X98887452Y-67953311D01*
X98878595Y-67924116D01*
X98875000Y-67887610D01*
X98875000Y-67337390D01*
X98878595Y-67300884D01*
X98887452Y-67271689D01*
X98901837Y-67244777D01*
X98921192Y-67221192D01*
X98944777Y-67201837D01*
X98971689Y-67187452D01*
X99000884Y-67178595D01*
X99037390Y-67175000D01*
X99662610Y-67175000D01*
X99699116Y-67178595D01*
X99699116Y-67178595D01*
G37*
G36*
X98199116Y-67178595D02*
G01*
X98228311Y-67187452D01*
X98255223Y-67201837D01*
X98278808Y-67221192D01*
X98298163Y-67244777D01*
X98312548Y-67271689D01*
X98321405Y-67300884D01*
X98325000Y-67337390D01*
X98325000Y-67887610D01*
X98321405Y-67924116D01*
X98312548Y-67953311D01*
X98298163Y-67980223D01*
X98278808Y-68003808D01*
X98255223Y-68023163D01*
X98228311Y-68037548D01*
X98199116Y-68046405D01*
X98162610Y-68050000D01*
X97537390Y-68050000D01*
X97500884Y-68046405D01*
X97471689Y-68037548D01*
X97444777Y-68023163D01*
X97421192Y-68003808D01*
X97401837Y-67980223D01*
X97387452Y-67953311D01*
X97378595Y-67924116D01*
X97375000Y-67887610D01*
X97375000Y-67337390D01*
X97378595Y-67300884D01*
X97387452Y-67271689D01*
X97401837Y-67244777D01*
X97421192Y-67221192D01*
X97444777Y-67201837D01*
X97471689Y-67187452D01*
X97500884Y-67178595D01*
X97537390Y-67175000D01*
X98162610Y-67175000D01*
X98199116Y-67178595D01*
X98199116Y-67178595D01*
G37*
G36*
X96699116Y-67178595D02*
G01*
X96728311Y-67187452D01*
X96755223Y-67201837D01*
X96778808Y-67221192D01*
X96798163Y-67244777D01*
X96812548Y-67271689D01*
X96821405Y-67300884D01*
X96825000Y-67337390D01*
X96825000Y-67887610D01*
X96821405Y-67924116D01*
X96812548Y-67953311D01*
X96798163Y-67980223D01*
X96778808Y-68003808D01*
X96755223Y-68023163D01*
X96728311Y-68037548D01*
X96699116Y-68046405D01*
X96662610Y-68050000D01*
X96037390Y-68050000D01*
X96000884Y-68046405D01*
X95971689Y-68037548D01*
X95944777Y-68023163D01*
X95921192Y-68003808D01*
X95901837Y-67980223D01*
X95887452Y-67953311D01*
X95878595Y-67924116D01*
X95875000Y-67887610D01*
X95875000Y-67337390D01*
X95878595Y-67300884D01*
X95887452Y-67271689D01*
X95901837Y-67244777D01*
X95921192Y-67221192D01*
X95944777Y-67201837D01*
X95971689Y-67187452D01*
X96000884Y-67178595D01*
X96037390Y-67175000D01*
X96662610Y-67175000D01*
X96699116Y-67178595D01*
X96699116Y-67178595D01*
G37*
G36*
X125916627Y-65982299D02*
G01*
X125996742Y-66006601D01*
X126076855Y-66030903D01*
X126076857Y-66030904D01*
X126224518Y-66109831D01*
X126353949Y-66216051D01*
X126460169Y-66345482D01*
X126495884Y-66412300D01*
X126539097Y-66493145D01*
X126543187Y-66506629D01*
X126587701Y-66653373D01*
X126604112Y-66820000D01*
X126587701Y-66986627D01*
X126587700Y-66986629D01*
X126544484Y-67129097D01*
X126539096Y-67146857D01*
X126460169Y-67294518D01*
X126353949Y-67423949D01*
X126224518Y-67530169D01*
X126076857Y-67609096D01*
X126076855Y-67609097D01*
X125996742Y-67633399D01*
X125916627Y-67657701D01*
X125791752Y-67670000D01*
X125708248Y-67670000D01*
X125583373Y-67657701D01*
X125503258Y-67633399D01*
X125423145Y-67609097D01*
X125423143Y-67609096D01*
X125275482Y-67530169D01*
X125146051Y-67423949D01*
X125039831Y-67294518D01*
X124960904Y-67146857D01*
X124955517Y-67129097D01*
X124912300Y-66986629D01*
X124912299Y-66986627D01*
X124895888Y-66820000D01*
X124912299Y-66653373D01*
X124956813Y-66506629D01*
X124960903Y-66493145D01*
X125004116Y-66412300D01*
X125039831Y-66345482D01*
X125146051Y-66216051D01*
X125275482Y-66109831D01*
X125423143Y-66030904D01*
X125423145Y-66030903D01*
X125503258Y-66006601D01*
X125583373Y-65982299D01*
X125708248Y-65970000D01*
X125791752Y-65970000D01*
X125916627Y-65982299D01*
X125916627Y-65982299D01*
G37*
G36*
X102716627Y-65502299D02*
G01*
X102796742Y-65526602D01*
X102876855Y-65550903D01*
X102876857Y-65550904D01*
X103024518Y-65629831D01*
X103153949Y-65736051D01*
X103222660Y-65819777D01*
X103260168Y-65865481D01*
X103339097Y-66013145D01*
X103344484Y-66030904D01*
X103387701Y-66173373D01*
X103404112Y-66340000D01*
X103387701Y-66506627D01*
X103371228Y-66560930D01*
X103343187Y-66653373D01*
X103339096Y-66666857D01*
X103260169Y-66814518D01*
X103153949Y-66943949D01*
X103024518Y-67050169D01*
X102962398Y-67083373D01*
X102876855Y-67129097D01*
X102818313Y-67146855D01*
X102716627Y-67177701D01*
X102591752Y-67190000D01*
X102508248Y-67190000D01*
X102383373Y-67177701D01*
X102281687Y-67146855D01*
X102223145Y-67129097D01*
X102137602Y-67083373D01*
X102075482Y-67050169D01*
X101946051Y-66943949D01*
X101839831Y-66814518D01*
X101760904Y-66666857D01*
X101756814Y-66653373D01*
X101728772Y-66560930D01*
X101712299Y-66506627D01*
X101695888Y-66340000D01*
X101712299Y-66173373D01*
X101755516Y-66030904D01*
X101760903Y-66013145D01*
X101839832Y-65865481D01*
X101877340Y-65819777D01*
X101946051Y-65736051D01*
X102075482Y-65629831D01*
X102223143Y-65550904D01*
X102223145Y-65550903D01*
X102303258Y-65526601D01*
X102383373Y-65502299D01*
X102508248Y-65490000D01*
X102591752Y-65490000D01*
X102716627Y-65502299D01*
X102716627Y-65502299D01*
G37*
G36*
X105766627Y-65502299D02*
G01*
X105846742Y-65526602D01*
X105926855Y-65550903D01*
X105926857Y-65550904D01*
X106074518Y-65629831D01*
X106203949Y-65736051D01*
X106272660Y-65819777D01*
X106310168Y-65865481D01*
X106389097Y-66013145D01*
X106394484Y-66030904D01*
X106437701Y-66173373D01*
X106454112Y-66340000D01*
X106437701Y-66506627D01*
X106421228Y-66560930D01*
X106393187Y-66653373D01*
X106389096Y-66666857D01*
X106310169Y-66814518D01*
X106203949Y-66943949D01*
X106074518Y-67050169D01*
X106012398Y-67083373D01*
X105926855Y-67129097D01*
X105868313Y-67146855D01*
X105766627Y-67177701D01*
X105641752Y-67190000D01*
X105558248Y-67190000D01*
X105433373Y-67177701D01*
X105331687Y-67146855D01*
X105273145Y-67129097D01*
X105187602Y-67083373D01*
X105125482Y-67050169D01*
X104996051Y-66943949D01*
X104889831Y-66814518D01*
X104810904Y-66666857D01*
X104806814Y-66653373D01*
X104778772Y-66560930D01*
X104762299Y-66506627D01*
X104745888Y-66340000D01*
X104762299Y-66173373D01*
X104805516Y-66030904D01*
X104810903Y-66013145D01*
X104889832Y-65865481D01*
X104927340Y-65819777D01*
X104996051Y-65736051D01*
X105125482Y-65629831D01*
X105273143Y-65550904D01*
X105273145Y-65550903D01*
X105353258Y-65526601D01*
X105433373Y-65502299D01*
X105558248Y-65490000D01*
X105641752Y-65490000D01*
X105766627Y-65502299D01*
X105766627Y-65502299D01*
G37*
G36*
X96699116Y-65753595D02*
G01*
X96728311Y-65762452D01*
X96755223Y-65776837D01*
X96778808Y-65796192D01*
X96798163Y-65819777D01*
X96812548Y-65846689D01*
X96821405Y-65875884D01*
X96825000Y-65912390D01*
X96825000Y-66462610D01*
X96821405Y-66499116D01*
X96812548Y-66528311D01*
X96798163Y-66555223D01*
X96778808Y-66578808D01*
X96755223Y-66598163D01*
X96728311Y-66612548D01*
X96699116Y-66621405D01*
X96662610Y-66625000D01*
X96037390Y-66625000D01*
X96000884Y-66621405D01*
X95971689Y-66612548D01*
X95944777Y-66598163D01*
X95921192Y-66578808D01*
X95901837Y-66555223D01*
X95887452Y-66528311D01*
X95878595Y-66499116D01*
X95875000Y-66462610D01*
X95875000Y-65912390D01*
X95878595Y-65875884D01*
X95887452Y-65846689D01*
X95901837Y-65819777D01*
X95921192Y-65796192D01*
X95944777Y-65776837D01*
X95971689Y-65762452D01*
X96000884Y-65753595D01*
X96037390Y-65750000D01*
X96662610Y-65750000D01*
X96699116Y-65753595D01*
X96699116Y-65753595D01*
G37*
G36*
X99699116Y-65753595D02*
G01*
X99728311Y-65762452D01*
X99755223Y-65776837D01*
X99778808Y-65796192D01*
X99798163Y-65819777D01*
X99812548Y-65846689D01*
X99821405Y-65875884D01*
X99825000Y-65912390D01*
X99825000Y-66462610D01*
X99821405Y-66499116D01*
X99812548Y-66528311D01*
X99798163Y-66555223D01*
X99778808Y-66578808D01*
X99755223Y-66598163D01*
X99728311Y-66612548D01*
X99699116Y-66621405D01*
X99662610Y-66625000D01*
X99037390Y-66625000D01*
X99000884Y-66621405D01*
X98971689Y-66612548D01*
X98944777Y-66598163D01*
X98921192Y-66578808D01*
X98901837Y-66555223D01*
X98887452Y-66528311D01*
X98878595Y-66499116D01*
X98875000Y-66462610D01*
X98875000Y-65912390D01*
X98878595Y-65875884D01*
X98887452Y-65846689D01*
X98901837Y-65819777D01*
X98921192Y-65796192D01*
X98944777Y-65776837D01*
X98971689Y-65762452D01*
X99000884Y-65753595D01*
X99037390Y-65750000D01*
X99662610Y-65750000D01*
X99699116Y-65753595D01*
X99699116Y-65753595D01*
G37*
G36*
X98199116Y-65753595D02*
G01*
X98228311Y-65762452D01*
X98255223Y-65776837D01*
X98278808Y-65796192D01*
X98298163Y-65819777D01*
X98312548Y-65846689D01*
X98321405Y-65875884D01*
X98325000Y-65912390D01*
X98325000Y-66462610D01*
X98321405Y-66499116D01*
X98312548Y-66528311D01*
X98298163Y-66555223D01*
X98278808Y-66578808D01*
X98255223Y-66598163D01*
X98228311Y-66612548D01*
X98199116Y-66621405D01*
X98162610Y-66625000D01*
X97537390Y-66625000D01*
X97500884Y-66621405D01*
X97471689Y-66612548D01*
X97444777Y-66598163D01*
X97421192Y-66578808D01*
X97401837Y-66555223D01*
X97387452Y-66528311D01*
X97378595Y-66499116D01*
X97375000Y-66462610D01*
X97375000Y-65912390D01*
X97378595Y-65875884D01*
X97387452Y-65846689D01*
X97401837Y-65819777D01*
X97421192Y-65796192D01*
X97444777Y-65776837D01*
X97471689Y-65762452D01*
X97500884Y-65753595D01*
X97537390Y-65750000D01*
X98162610Y-65750000D01*
X98199116Y-65753595D01*
X98199116Y-65753595D01*
G37*
G36*
X132650000Y-65850000D02*
G01*
X128850000Y-65850000D01*
X128850000Y-63850000D01*
X132650000Y-63850000D01*
X132650000Y-65850000D01*
X132650000Y-65850000D01*
G37*
G36*
X136350000Y-65560000D02*
G01*
X134650000Y-65560000D01*
X134650000Y-63860000D01*
X136350000Y-63860000D01*
X136350000Y-65560000D01*
X136350000Y-65560000D01*
G37*
G36*
X125916627Y-63442299D02*
G01*
X125996742Y-63466601D01*
X126076855Y-63490903D01*
X126076857Y-63490904D01*
X126224518Y-63569831D01*
X126353949Y-63676051D01*
X126460169Y-63805482D01*
X126539096Y-63953143D01*
X126587701Y-64113373D01*
X126604112Y-64280000D01*
X126587701Y-64446627D01*
X126539096Y-64606857D01*
X126460169Y-64754518D01*
X126353949Y-64883949D01*
X126224518Y-64990169D01*
X126112583Y-65050000D01*
X126076855Y-65069097D01*
X125996742Y-65093399D01*
X125916627Y-65117701D01*
X125791752Y-65130000D01*
X125708248Y-65130000D01*
X125583373Y-65117701D01*
X125503258Y-65093398D01*
X125423145Y-65069097D01*
X125387417Y-65050000D01*
X125275482Y-64990169D01*
X125146051Y-64883949D01*
X125039831Y-64754518D01*
X124960904Y-64606857D01*
X124912299Y-64446627D01*
X124895888Y-64280000D01*
X124912299Y-64113373D01*
X124960904Y-63953143D01*
X125039831Y-63805482D01*
X125146051Y-63676051D01*
X125275482Y-63569831D01*
X125423143Y-63490904D01*
X125423145Y-63490903D01*
X125503258Y-63466602D01*
X125583373Y-63442299D01*
X125708248Y-63430000D01*
X125791752Y-63430000D01*
X125916627Y-63442299D01*
X125916627Y-63442299D01*
G37*
G36*
X98199116Y-64178595D02*
G01*
X98228311Y-64187452D01*
X98255223Y-64201837D01*
X98278808Y-64221192D01*
X98298163Y-64244777D01*
X98312548Y-64271689D01*
X98321405Y-64300884D01*
X98325000Y-64337390D01*
X98325000Y-64887610D01*
X98321405Y-64924116D01*
X98312548Y-64953311D01*
X98298163Y-64980223D01*
X98278808Y-65003808D01*
X98255223Y-65023163D01*
X98228311Y-65037548D01*
X98199116Y-65046405D01*
X98162610Y-65050000D01*
X97537390Y-65050000D01*
X97500884Y-65046405D01*
X97471689Y-65037548D01*
X97444777Y-65023163D01*
X97421192Y-65003808D01*
X97401837Y-64980223D01*
X97387452Y-64953311D01*
X97378595Y-64924116D01*
X97375000Y-64887610D01*
X97375000Y-64337390D01*
X97378595Y-64300884D01*
X97387452Y-64271689D01*
X97401837Y-64244777D01*
X97421192Y-64221192D01*
X97444777Y-64201837D01*
X97471689Y-64187452D01*
X97500884Y-64178595D01*
X97537390Y-64175000D01*
X98162610Y-64175000D01*
X98199116Y-64178595D01*
X98199116Y-64178595D01*
G37*
G36*
X96699116Y-64178595D02*
G01*
X96728311Y-64187452D01*
X96755223Y-64201837D01*
X96778808Y-64221192D01*
X96798163Y-64244777D01*
X96812548Y-64271689D01*
X96821405Y-64300884D01*
X96825000Y-64337390D01*
X96825000Y-64887610D01*
X96821405Y-64924116D01*
X96812548Y-64953311D01*
X96798163Y-64980223D01*
X96778808Y-65003808D01*
X96755223Y-65023163D01*
X96728311Y-65037548D01*
X96699116Y-65046405D01*
X96662610Y-65050000D01*
X96037390Y-65050000D01*
X96000884Y-65046405D01*
X95971689Y-65037548D01*
X95944777Y-65023163D01*
X95921192Y-65003808D01*
X95901837Y-64980223D01*
X95887452Y-64953311D01*
X95878595Y-64924116D01*
X95875000Y-64887610D01*
X95875000Y-64337390D01*
X95878595Y-64300884D01*
X95887452Y-64271689D01*
X95901837Y-64244777D01*
X95921192Y-64221192D01*
X95944777Y-64201837D01*
X95971689Y-64187452D01*
X96000884Y-64178595D01*
X96037390Y-64175000D01*
X96662610Y-64175000D01*
X96699116Y-64178595D01*
X96699116Y-64178595D01*
G37*
G36*
X99699116Y-64178595D02*
G01*
X99728311Y-64187452D01*
X99755223Y-64201837D01*
X99778808Y-64221192D01*
X99798163Y-64244777D01*
X99812548Y-64271689D01*
X99821405Y-64300884D01*
X99825000Y-64337390D01*
X99825000Y-64887610D01*
X99821405Y-64924116D01*
X99812548Y-64953311D01*
X99798163Y-64980223D01*
X99778808Y-65003808D01*
X99755223Y-65023163D01*
X99728311Y-65037548D01*
X99699116Y-65046405D01*
X99662610Y-65050000D01*
X99037390Y-65050000D01*
X99000884Y-65046405D01*
X98971689Y-65037548D01*
X98944777Y-65023163D01*
X98921192Y-65003808D01*
X98901837Y-64980223D01*
X98887452Y-64953311D01*
X98878595Y-64924116D01*
X98875000Y-64887610D01*
X98875000Y-64337390D01*
X98878595Y-64300884D01*
X98887452Y-64271689D01*
X98901837Y-64244777D01*
X98921192Y-64221192D01*
X98944777Y-64201837D01*
X98971689Y-64187452D01*
X99000884Y-64178595D01*
X99037390Y-64175000D01*
X99662610Y-64175000D01*
X99699116Y-64178595D01*
X99699116Y-64178595D01*
G37*
G36*
X106450000Y-64650000D02*
G01*
X104750000Y-64650000D01*
X104750000Y-62950000D01*
X106450000Y-62950000D01*
X106450000Y-64650000D01*
X106450000Y-64650000D01*
G37*
G36*
X103400000Y-64650000D02*
G01*
X101700000Y-64650000D01*
X101700000Y-62950000D01*
X103400000Y-62950000D01*
X103400000Y-64650000D01*
X103400000Y-64650000D01*
G37*
G36*
X128774116Y-62278595D02*
G01*
X128803311Y-62287452D01*
X128830223Y-62301837D01*
X128853808Y-62321192D01*
X128873163Y-62344777D01*
X128887548Y-62371689D01*
X128896405Y-62400884D01*
X128900000Y-62437390D01*
X128900000Y-63062610D01*
X128896405Y-63099116D01*
X128887548Y-63128311D01*
X128873163Y-63155223D01*
X128853808Y-63178808D01*
X128830223Y-63198163D01*
X128803311Y-63212548D01*
X128774116Y-63221405D01*
X128737610Y-63225000D01*
X128187390Y-63225000D01*
X128150884Y-63221405D01*
X128121689Y-63212548D01*
X128094777Y-63198163D01*
X128071192Y-63178808D01*
X128051837Y-63155223D01*
X128037452Y-63128311D01*
X128028595Y-63099116D01*
X128025000Y-63062610D01*
X128025000Y-62437390D01*
X128028595Y-62400884D01*
X128037452Y-62371689D01*
X128051837Y-62344777D01*
X128071192Y-62321192D01*
X128094777Y-62301837D01*
X128121689Y-62287452D01*
X128150884Y-62278595D01*
X128187390Y-62275000D01*
X128737610Y-62275000D01*
X128774116Y-62278595D01*
X128774116Y-62278595D01*
G37*
G36*
X130349116Y-62278595D02*
G01*
X130378311Y-62287452D01*
X130405223Y-62301837D01*
X130428808Y-62321192D01*
X130448163Y-62344777D01*
X130462548Y-62371689D01*
X130471405Y-62400884D01*
X130475000Y-62437390D01*
X130475000Y-63062610D01*
X130471405Y-63099116D01*
X130462548Y-63128311D01*
X130448163Y-63155223D01*
X130428808Y-63178808D01*
X130405223Y-63198163D01*
X130378311Y-63212548D01*
X130349116Y-63221405D01*
X130312610Y-63225000D01*
X129762390Y-63225000D01*
X129725884Y-63221405D01*
X129696689Y-63212548D01*
X129669777Y-63198163D01*
X129646192Y-63178808D01*
X129626837Y-63155223D01*
X129612452Y-63128311D01*
X129603595Y-63099116D01*
X129600000Y-63062610D01*
X129600000Y-62437390D01*
X129603595Y-62400884D01*
X129612452Y-62371689D01*
X129626837Y-62344777D01*
X129646192Y-62321192D01*
X129669777Y-62301837D01*
X129696689Y-62287452D01*
X129725884Y-62278595D01*
X129762390Y-62275000D01*
X130312610Y-62275000D01*
X130349116Y-62278595D01*
X130349116Y-62278595D01*
G37*
G36*
X133699116Y-62278595D02*
G01*
X133728311Y-62287452D01*
X133755223Y-62301837D01*
X133778808Y-62321192D01*
X133798163Y-62344777D01*
X133812548Y-62371689D01*
X133821405Y-62400884D01*
X133825000Y-62437390D01*
X133825000Y-63062610D01*
X133821405Y-63099116D01*
X133812548Y-63128311D01*
X133798163Y-63155223D01*
X133778808Y-63178808D01*
X133755223Y-63198163D01*
X133728311Y-63212548D01*
X133699116Y-63221405D01*
X133662610Y-63225000D01*
X133112390Y-63225000D01*
X133075884Y-63221405D01*
X133046689Y-63212548D01*
X133019777Y-63198163D01*
X132996192Y-63178808D01*
X132976837Y-63155223D01*
X132962452Y-63128311D01*
X132953595Y-63099116D01*
X132950000Y-63062610D01*
X132950000Y-62437390D01*
X132953595Y-62400884D01*
X132962452Y-62371689D01*
X132976837Y-62344777D01*
X132996192Y-62321192D01*
X133019777Y-62301837D01*
X133046689Y-62287452D01*
X133075884Y-62278595D01*
X133112390Y-62275000D01*
X133662610Y-62275000D01*
X133699116Y-62278595D01*
X133699116Y-62278595D01*
G37*
G36*
X132124116Y-62278595D02*
G01*
X132153311Y-62287452D01*
X132180223Y-62301837D01*
X132203808Y-62321192D01*
X132223163Y-62344777D01*
X132237548Y-62371689D01*
X132246405Y-62400884D01*
X132250000Y-62437390D01*
X132250000Y-63062610D01*
X132246405Y-63099116D01*
X132237548Y-63128311D01*
X132223163Y-63155223D01*
X132203808Y-63178808D01*
X132180223Y-63198163D01*
X132153311Y-63212548D01*
X132124116Y-63221405D01*
X132087610Y-63225000D01*
X131537390Y-63225000D01*
X131500884Y-63221405D01*
X131471689Y-63212548D01*
X131444777Y-63198163D01*
X131421192Y-63178808D01*
X131401837Y-63155223D01*
X131387452Y-63128311D01*
X131378595Y-63099116D01*
X131375000Y-63062610D01*
X131375000Y-62437390D01*
X131378595Y-62400884D01*
X131387452Y-62371689D01*
X131401837Y-62344777D01*
X131421192Y-62321192D01*
X131444777Y-62301837D01*
X131471689Y-62287452D01*
X131500884Y-62278595D01*
X131537390Y-62275000D01*
X132087610Y-62275000D01*
X132124116Y-62278595D01*
X132124116Y-62278595D01*
G37*
G36*
X125916627Y-60902299D02*
G01*
X125996742Y-60926601D01*
X126076855Y-60950903D01*
X126076857Y-60950904D01*
X126224518Y-61029831D01*
X126353949Y-61136051D01*
X126460169Y-61265482D01*
X126538778Y-61412548D01*
X126539097Y-61413145D01*
X126542693Y-61425000D01*
X126587701Y-61573373D01*
X126604112Y-61740000D01*
X126587701Y-61906627D01*
X126587700Y-61906629D01*
X126544210Y-62050000D01*
X126539096Y-62066857D01*
X126460169Y-62214518D01*
X126353949Y-62343949D01*
X126224518Y-62450169D01*
X126142984Y-62493750D01*
X126076855Y-62529097D01*
X125996742Y-62553398D01*
X125916627Y-62577701D01*
X125791752Y-62590000D01*
X125708248Y-62590000D01*
X125583373Y-62577701D01*
X125503258Y-62553399D01*
X125423145Y-62529097D01*
X125357016Y-62493750D01*
X125275482Y-62450169D01*
X125146051Y-62343949D01*
X125039831Y-62214518D01*
X124960904Y-62066857D01*
X124955791Y-62050000D01*
X124912300Y-61906629D01*
X124912299Y-61906627D01*
X124895888Y-61740000D01*
X124912299Y-61573373D01*
X124957307Y-61425000D01*
X124960903Y-61413145D01*
X124961222Y-61412548D01*
X125039831Y-61265482D01*
X125146051Y-61136051D01*
X125275482Y-61029831D01*
X125423143Y-60950904D01*
X125423145Y-60950903D01*
X125503258Y-60926601D01*
X125583373Y-60902299D01*
X125708248Y-60890000D01*
X125791752Y-60890000D01*
X125916627Y-60902299D01*
X125916627Y-60902299D01*
G37*
G36*
X101850000Y-62050000D02*
G01*
X100150000Y-62050000D01*
X100150000Y-60350000D01*
X101850000Y-60350000D01*
X101850000Y-62050000D01*
X101850000Y-62050000D01*
G37*
G36*
X128149116Y-60553595D02*
G01*
X128178311Y-60562452D01*
X128205223Y-60576837D01*
X128228808Y-60596192D01*
X128248163Y-60619777D01*
X128262548Y-60646689D01*
X128271405Y-60675884D01*
X128275000Y-60712390D01*
X128275000Y-61262610D01*
X128271405Y-61299116D01*
X128262548Y-61328311D01*
X128248163Y-61355223D01*
X128228808Y-61378808D01*
X128205223Y-61398163D01*
X128178311Y-61412548D01*
X128149116Y-61421405D01*
X128112610Y-61425000D01*
X127487390Y-61425000D01*
X127450884Y-61421405D01*
X127421689Y-61412548D01*
X127394777Y-61398163D01*
X127371192Y-61378808D01*
X127351837Y-61355223D01*
X127337452Y-61328311D01*
X127328595Y-61299116D01*
X127325000Y-61262610D01*
X127325000Y-60712390D01*
X127328595Y-60675884D01*
X127337452Y-60646689D01*
X127351837Y-60619777D01*
X127371192Y-60596192D01*
X127394777Y-60576837D01*
X127421689Y-60562452D01*
X127450884Y-60553595D01*
X127487390Y-60550000D01*
X128112610Y-60550000D01*
X128149116Y-60553595D01*
X128149116Y-60553595D01*
G37*
G36*
X132949116Y-60553595D02*
G01*
X132978311Y-60562452D01*
X133005223Y-60576837D01*
X133028808Y-60596192D01*
X133048163Y-60619777D01*
X133062548Y-60646689D01*
X133071405Y-60675884D01*
X133075000Y-60712390D01*
X133075000Y-61262610D01*
X133071405Y-61299116D01*
X133062548Y-61328311D01*
X133048163Y-61355223D01*
X133028808Y-61378808D01*
X133005223Y-61398163D01*
X132978311Y-61412548D01*
X132949116Y-61421405D01*
X132912610Y-61425000D01*
X132287390Y-61425000D01*
X132250884Y-61421405D01*
X132221689Y-61412548D01*
X132194777Y-61398163D01*
X132171192Y-61378808D01*
X132151837Y-61355223D01*
X132137452Y-61328311D01*
X132128595Y-61299116D01*
X132125000Y-61262610D01*
X132125000Y-60712390D01*
X132128595Y-60675884D01*
X132137452Y-60646689D01*
X132151837Y-60619777D01*
X132171192Y-60596192D01*
X132194777Y-60576837D01*
X132221689Y-60562452D01*
X132250884Y-60553595D01*
X132287390Y-60550000D01*
X132912610Y-60550000D01*
X132949116Y-60553595D01*
X132949116Y-60553595D01*
G37*
G36*
X131349116Y-60553595D02*
G01*
X131378311Y-60562452D01*
X131405223Y-60576837D01*
X131428808Y-60596192D01*
X131448163Y-60619777D01*
X131462548Y-60646689D01*
X131471405Y-60675884D01*
X131475000Y-60712390D01*
X131475000Y-61262610D01*
X131471405Y-61299116D01*
X131462548Y-61328311D01*
X131448163Y-61355223D01*
X131428808Y-61378808D01*
X131405223Y-61398163D01*
X131378311Y-61412548D01*
X131349116Y-61421405D01*
X131312610Y-61425000D01*
X130687390Y-61425000D01*
X130650884Y-61421405D01*
X130621689Y-61412548D01*
X130594777Y-61398163D01*
X130571192Y-61378808D01*
X130551837Y-61355223D01*
X130537452Y-61328311D01*
X130528595Y-61299116D01*
X130525000Y-61262610D01*
X130525000Y-60712390D01*
X130528595Y-60675884D01*
X130537452Y-60646689D01*
X130551837Y-60619777D01*
X130571192Y-60596192D01*
X130594777Y-60576837D01*
X130621689Y-60562452D01*
X130650884Y-60553595D01*
X130687390Y-60550000D01*
X131312610Y-60550000D01*
X131349116Y-60553595D01*
X131349116Y-60553595D01*
G37*
G36*
X129749116Y-60553595D02*
G01*
X129778311Y-60562452D01*
X129805223Y-60576837D01*
X129828808Y-60596192D01*
X129848163Y-60619777D01*
X129862548Y-60646689D01*
X129871405Y-60675884D01*
X129875000Y-60712390D01*
X129875000Y-61262610D01*
X129871405Y-61299116D01*
X129862548Y-61328311D01*
X129848163Y-61355223D01*
X129828808Y-61378808D01*
X129805223Y-61398163D01*
X129778311Y-61412548D01*
X129749116Y-61421405D01*
X129712610Y-61425000D01*
X129087390Y-61425000D01*
X129050884Y-61421405D01*
X129021689Y-61412548D01*
X128994777Y-61398163D01*
X128971192Y-61378808D01*
X128951837Y-61355223D01*
X128937452Y-61328311D01*
X128928595Y-61299116D01*
X128925000Y-61262610D01*
X128925000Y-60712390D01*
X128928595Y-60675884D01*
X128937452Y-60646689D01*
X128951837Y-60619777D01*
X128971192Y-60596192D01*
X128994777Y-60576837D01*
X129021689Y-60562452D01*
X129050884Y-60553595D01*
X129087390Y-60550000D01*
X129712610Y-60550000D01*
X129749116Y-60553595D01*
X129749116Y-60553595D01*
G37*
G36*
X135666627Y-59142299D02*
G01*
X135695554Y-59151074D01*
X135826855Y-59190903D01*
X135826857Y-59190904D01*
X135974518Y-59269831D01*
X136103949Y-59376051D01*
X136210169Y-59505482D01*
X136277394Y-59631250D01*
X136289097Y-59653145D01*
X136310625Y-59724116D01*
X136337701Y-59813373D01*
X136354112Y-59980000D01*
X136337701Y-60146627D01*
X136289096Y-60306857D01*
X136210169Y-60454518D01*
X136103949Y-60583949D01*
X135974518Y-60690169D01*
X135827504Y-60768750D01*
X135826855Y-60769097D01*
X135746742Y-60793399D01*
X135666627Y-60817701D01*
X135541752Y-60830000D01*
X135458248Y-60830000D01*
X135333373Y-60817701D01*
X135253258Y-60793399D01*
X135173145Y-60769097D01*
X135172496Y-60768750D01*
X135025482Y-60690169D01*
X134896051Y-60583949D01*
X134789831Y-60454518D01*
X134710904Y-60306857D01*
X134662299Y-60146627D01*
X134645888Y-59980000D01*
X134662299Y-59813373D01*
X134689375Y-59724116D01*
X134710903Y-59653145D01*
X134722606Y-59631250D01*
X134789831Y-59505482D01*
X134896051Y-59376051D01*
X135025482Y-59269831D01*
X135173143Y-59190904D01*
X135173145Y-59190903D01*
X135304446Y-59151074D01*
X135333373Y-59142299D01*
X135458248Y-59130000D01*
X135541752Y-59130000D01*
X135666627Y-59142299D01*
X135666627Y-59142299D01*
G37*
G36*
X96666627Y-59142299D02*
G01*
X96695554Y-59151074D01*
X96826855Y-59190903D01*
X96826857Y-59190904D01*
X96974518Y-59269831D01*
X97103949Y-59376051D01*
X97210169Y-59505482D01*
X97277394Y-59631250D01*
X97289097Y-59653145D01*
X97310625Y-59724116D01*
X97337701Y-59813373D01*
X97354112Y-59980000D01*
X97337701Y-60146627D01*
X97289096Y-60306857D01*
X97210169Y-60454518D01*
X97103949Y-60583949D01*
X96974518Y-60690169D01*
X96827504Y-60768750D01*
X96826855Y-60769097D01*
X96746742Y-60793399D01*
X96666627Y-60817701D01*
X96541752Y-60830000D01*
X96458248Y-60830000D01*
X96333373Y-60817701D01*
X96253258Y-60793399D01*
X96173145Y-60769097D01*
X96172496Y-60768750D01*
X96025482Y-60690169D01*
X95896051Y-60583949D01*
X95789831Y-60454518D01*
X95710904Y-60306857D01*
X95662299Y-60146627D01*
X95645888Y-59980000D01*
X95662299Y-59813373D01*
X95689375Y-59724116D01*
X95710903Y-59653145D01*
X95722606Y-59631250D01*
X95789831Y-59505482D01*
X95896051Y-59376051D01*
X96025482Y-59269831D01*
X96173143Y-59190904D01*
X96173145Y-59190903D01*
X96304446Y-59151074D01*
X96333373Y-59142299D01*
X96458248Y-59130000D01*
X96541752Y-59130000D01*
X96666627Y-59142299D01*
X96666627Y-59142299D01*
G37*
G36*
X126600000Y-60050000D02*
G01*
X124900000Y-60050000D01*
X124900000Y-58350000D01*
X126600000Y-58350000D01*
X126600000Y-60050000D01*
X126600000Y-60050000D01*
G37*
G36*
X132949116Y-58978595D02*
G01*
X132978311Y-58987452D01*
X133005223Y-59001837D01*
X133028808Y-59021192D01*
X133048163Y-59044777D01*
X133062548Y-59071689D01*
X133071405Y-59100884D01*
X133075000Y-59137390D01*
X133075000Y-59687610D01*
X133071405Y-59724116D01*
X133062548Y-59753311D01*
X133048163Y-59780223D01*
X133028808Y-59803808D01*
X133005223Y-59823163D01*
X132978311Y-59837548D01*
X132949116Y-59846405D01*
X132912610Y-59850000D01*
X132287390Y-59850000D01*
X132250884Y-59846405D01*
X132221689Y-59837548D01*
X132194777Y-59823163D01*
X132171192Y-59803808D01*
X132151837Y-59780223D01*
X132137452Y-59753311D01*
X132128595Y-59724116D01*
X132125000Y-59687610D01*
X132125000Y-59137390D01*
X132128595Y-59100884D01*
X132137452Y-59071689D01*
X132151837Y-59044777D01*
X132171192Y-59021192D01*
X132194777Y-59001837D01*
X132221689Y-58987452D01*
X132250884Y-58978595D01*
X132287390Y-58975000D01*
X132912610Y-58975000D01*
X132949116Y-58978595D01*
X132949116Y-58978595D01*
G37*
G36*
X131349116Y-58978595D02*
G01*
X131378311Y-58987452D01*
X131405223Y-59001837D01*
X131428808Y-59021192D01*
X131448163Y-59044777D01*
X131462548Y-59071689D01*
X131471405Y-59100884D01*
X131475000Y-59137390D01*
X131475000Y-59687610D01*
X131471405Y-59724116D01*
X131462548Y-59753311D01*
X131448163Y-59780223D01*
X131428808Y-59803808D01*
X131405223Y-59823163D01*
X131378311Y-59837548D01*
X131349116Y-59846405D01*
X131312610Y-59850000D01*
X130687390Y-59850000D01*
X130650884Y-59846405D01*
X130621689Y-59837548D01*
X130594777Y-59823163D01*
X130571192Y-59803808D01*
X130551837Y-59780223D01*
X130537452Y-59753311D01*
X130528595Y-59724116D01*
X130525000Y-59687610D01*
X130525000Y-59137390D01*
X130528595Y-59100884D01*
X130537452Y-59071689D01*
X130551837Y-59044777D01*
X130571192Y-59021192D01*
X130594777Y-59001837D01*
X130621689Y-58987452D01*
X130650884Y-58978595D01*
X130687390Y-58975000D01*
X131312610Y-58975000D01*
X131349116Y-58978595D01*
X131349116Y-58978595D01*
G37*
G36*
X128149116Y-58978595D02*
G01*
X128178311Y-58987452D01*
X128205223Y-59001837D01*
X128228808Y-59021192D01*
X128248163Y-59044777D01*
X128262548Y-59071689D01*
X128271405Y-59100884D01*
X128275000Y-59137390D01*
X128275000Y-59687610D01*
X128271405Y-59724116D01*
X128262548Y-59753311D01*
X128248163Y-59780223D01*
X128228808Y-59803808D01*
X128205223Y-59823163D01*
X128178311Y-59837548D01*
X128149116Y-59846405D01*
X128112610Y-59850000D01*
X127487390Y-59850000D01*
X127450884Y-59846405D01*
X127421689Y-59837548D01*
X127394777Y-59823163D01*
X127371192Y-59803808D01*
X127351837Y-59780223D01*
X127337452Y-59753311D01*
X127328595Y-59724116D01*
X127325000Y-59687610D01*
X127325000Y-59137390D01*
X127328595Y-59100884D01*
X127337452Y-59071689D01*
X127351837Y-59044777D01*
X127371192Y-59021192D01*
X127394777Y-59001837D01*
X127421689Y-58987452D01*
X127450884Y-58978595D01*
X127487390Y-58975000D01*
X128112610Y-58975000D01*
X128149116Y-58978595D01*
X128149116Y-58978595D01*
G37*
G36*
X129749116Y-58978595D02*
G01*
X129778311Y-58987452D01*
X129805223Y-59001837D01*
X129828808Y-59021192D01*
X129848163Y-59044777D01*
X129862548Y-59071689D01*
X129871405Y-59100884D01*
X129875000Y-59137390D01*
X129875000Y-59687610D01*
X129871405Y-59724116D01*
X129862548Y-59753311D01*
X129848163Y-59780223D01*
X129828808Y-59803808D01*
X129805223Y-59823163D01*
X129778311Y-59837548D01*
X129749116Y-59846405D01*
X129712610Y-59850000D01*
X129087390Y-59850000D01*
X129050884Y-59846405D01*
X129021689Y-59837548D01*
X128994777Y-59823163D01*
X128971192Y-59803808D01*
X128951837Y-59780223D01*
X128937452Y-59753311D01*
X128928595Y-59724116D01*
X128925000Y-59687610D01*
X128925000Y-59137390D01*
X128928595Y-59100884D01*
X128937452Y-59071689D01*
X128951837Y-59044777D01*
X128971192Y-59021192D01*
X128994777Y-59001837D01*
X129021689Y-58987452D01*
X129050884Y-58978595D01*
X129087390Y-58975000D01*
X129712610Y-58975000D01*
X129749116Y-58978595D01*
X129749116Y-58978595D01*
G37*
G36*
X101166627Y-57822299D02*
G01*
X101246742Y-57846601D01*
X101326855Y-57870903D01*
X101326857Y-57870904D01*
X101474518Y-57949831D01*
X101603949Y-58056051D01*
X101710168Y-58185481D01*
X101789097Y-58333145D01*
X101813399Y-58413258D01*
X101837701Y-58493373D01*
X101854112Y-58660000D01*
X101837701Y-58826627D01*
X101837700Y-58826629D01*
X101791603Y-58978595D01*
X101789096Y-58986857D01*
X101710169Y-59134518D01*
X101603949Y-59263949D01*
X101474518Y-59370169D01*
X101326857Y-59449096D01*
X101326855Y-59449097D01*
X101246742Y-59473399D01*
X101166627Y-59497701D01*
X101041752Y-59510000D01*
X100958248Y-59510000D01*
X100833373Y-59497701D01*
X100753258Y-59473399D01*
X100673145Y-59449097D01*
X100673143Y-59449096D01*
X100525482Y-59370169D01*
X100396051Y-59263949D01*
X100289831Y-59134518D01*
X100210904Y-58986857D01*
X100208398Y-58978595D01*
X100162300Y-58826629D01*
X100162299Y-58826627D01*
X100145888Y-58660000D01*
X100162299Y-58493373D01*
X100186601Y-58413258D01*
X100210903Y-58333145D01*
X100289832Y-58185481D01*
X100396051Y-58056051D01*
X100525482Y-57949831D01*
X100673143Y-57870904D01*
X100673145Y-57870903D01*
X100753258Y-57846601D01*
X100833373Y-57822299D01*
X100958248Y-57810000D01*
X101041752Y-57810000D01*
X101166627Y-57822299D01*
X101166627Y-57822299D01*
G37*
G36*
X96666627Y-56602299D02*
G01*
X96746742Y-56626601D01*
X96826855Y-56650903D01*
X96826857Y-56650904D01*
X96974518Y-56729831D01*
X97103949Y-56836051D01*
X97210169Y-56965482D01*
X97289096Y-57113143D01*
X97337701Y-57273373D01*
X97354112Y-57440000D01*
X97337701Y-57606627D01*
X97289096Y-57766857D01*
X97210169Y-57914518D01*
X97103949Y-58043949D01*
X96974518Y-58150169D01*
X96908454Y-58185481D01*
X96826855Y-58229097D01*
X96746742Y-58253398D01*
X96666627Y-58277701D01*
X96541752Y-58290000D01*
X96458248Y-58290000D01*
X96333373Y-58277701D01*
X96253258Y-58253398D01*
X96173145Y-58229097D01*
X96091546Y-58185481D01*
X96025482Y-58150169D01*
X95896051Y-58043949D01*
X95789831Y-57914518D01*
X95710904Y-57766857D01*
X95662299Y-57606627D01*
X95645888Y-57440000D01*
X95662299Y-57273373D01*
X95710904Y-57113143D01*
X95789831Y-56965482D01*
X95896051Y-56836051D01*
X96025482Y-56729831D01*
X96173143Y-56650904D01*
X96173145Y-56650903D01*
X96253258Y-56626601D01*
X96333373Y-56602299D01*
X96458248Y-56590000D01*
X96541752Y-56590000D01*
X96666627Y-56602299D01*
X96666627Y-56602299D01*
G37*
G36*
X135666627Y-56602299D02*
G01*
X135746742Y-56626601D01*
X135826855Y-56650903D01*
X135826857Y-56650904D01*
X135974518Y-56729831D01*
X136103949Y-56836051D01*
X136210169Y-56965482D01*
X136289096Y-57113143D01*
X136337701Y-57273373D01*
X136354112Y-57440000D01*
X136337701Y-57606627D01*
X136289096Y-57766857D01*
X136210169Y-57914518D01*
X136103949Y-58043949D01*
X135974518Y-58150169D01*
X135908454Y-58185481D01*
X135826855Y-58229097D01*
X135746742Y-58253398D01*
X135666627Y-58277701D01*
X135541752Y-58290000D01*
X135458248Y-58290000D01*
X135333373Y-58277701D01*
X135253258Y-58253398D01*
X135173145Y-58229097D01*
X135091546Y-58185481D01*
X135025482Y-58150169D01*
X134896051Y-58043949D01*
X134789831Y-57914518D01*
X134710904Y-57766857D01*
X134662299Y-57606627D01*
X134645888Y-57440000D01*
X134662299Y-57273373D01*
X134710904Y-57113143D01*
X134789831Y-56965482D01*
X134896051Y-56836051D01*
X135025482Y-56729831D01*
X135173143Y-56650904D01*
X135173145Y-56650903D01*
X135253258Y-56626601D01*
X135333373Y-56602299D01*
X135458248Y-56590000D01*
X135541752Y-56590000D01*
X135666627Y-56602299D01*
X135666627Y-56602299D01*
G37*
G36*
X106850000Y-57850000D02*
G01*
X105150000Y-57850000D01*
X105150000Y-56150000D01*
X106850000Y-56150000D01*
X106850000Y-57850000D01*
X106850000Y-57850000D01*
G37*
G36*
X108706627Y-56162299D02*
G01*
X108786742Y-56186601D01*
X108866855Y-56210903D01*
X108866857Y-56210904D01*
X109014518Y-56289831D01*
X109143949Y-56396051D01*
X109250169Y-56525482D01*
X109287070Y-56594519D01*
X109329097Y-56673145D01*
X109344508Y-56723949D01*
X109377701Y-56833373D01*
X109394112Y-57000000D01*
X109377701Y-57166627D01*
X109329096Y-57326857D01*
X109250169Y-57474518D01*
X109143949Y-57603949D01*
X109014518Y-57710169D01*
X108908463Y-57766857D01*
X108866855Y-57789097D01*
X108786742Y-57813398D01*
X108706627Y-57837701D01*
X108581752Y-57850000D01*
X108498248Y-57850000D01*
X108373373Y-57837701D01*
X108293258Y-57813399D01*
X108213145Y-57789097D01*
X108171537Y-57766857D01*
X108065482Y-57710169D01*
X107936051Y-57603949D01*
X107829831Y-57474518D01*
X107750904Y-57326857D01*
X107702299Y-57166627D01*
X107685888Y-57000000D01*
X107702299Y-56833373D01*
X107735492Y-56723949D01*
X107750903Y-56673145D01*
X107792930Y-56594519D01*
X107829831Y-56525482D01*
X107936051Y-56396051D01*
X108065482Y-56289831D01*
X108213143Y-56210904D01*
X108213145Y-56210903D01*
X108293258Y-56186601D01*
X108373373Y-56162299D01*
X108498248Y-56150000D01*
X108581752Y-56150000D01*
X108706627Y-56162299D01*
X108706627Y-56162299D01*
G37*
G36*
X126486627Y-56162299D02*
G01*
X126566742Y-56186601D01*
X126646855Y-56210903D01*
X126646857Y-56210904D01*
X126794518Y-56289831D01*
X126923949Y-56396051D01*
X127030169Y-56525482D01*
X127067070Y-56594519D01*
X127109097Y-56673145D01*
X127124508Y-56723949D01*
X127157701Y-56833373D01*
X127174112Y-57000000D01*
X127157701Y-57166627D01*
X127109096Y-57326857D01*
X127030169Y-57474518D01*
X126923949Y-57603949D01*
X126794518Y-57710169D01*
X126688463Y-57766857D01*
X126646855Y-57789097D01*
X126566742Y-57813398D01*
X126486627Y-57837701D01*
X126361752Y-57850000D01*
X126278248Y-57850000D01*
X126153373Y-57837701D01*
X126073258Y-57813399D01*
X125993145Y-57789097D01*
X125951537Y-57766857D01*
X125845482Y-57710169D01*
X125716051Y-57603949D01*
X125609831Y-57474518D01*
X125530904Y-57326857D01*
X125482299Y-57166627D01*
X125465888Y-57000000D01*
X125482299Y-56833373D01*
X125515492Y-56723949D01*
X125530903Y-56673145D01*
X125572930Y-56594519D01*
X125609831Y-56525482D01*
X125716051Y-56396051D01*
X125845482Y-56289831D01*
X125993143Y-56210904D01*
X125993145Y-56210903D01*
X126073258Y-56186601D01*
X126153373Y-56162299D01*
X126278248Y-56150000D01*
X126361752Y-56150000D01*
X126486627Y-56162299D01*
X126486627Y-56162299D01*
G37*
G36*
X113786627Y-56162299D02*
G01*
X113866742Y-56186601D01*
X113946855Y-56210903D01*
X113946857Y-56210904D01*
X114094518Y-56289831D01*
X114223949Y-56396051D01*
X114330169Y-56525482D01*
X114367070Y-56594519D01*
X114409097Y-56673145D01*
X114424508Y-56723949D01*
X114457701Y-56833373D01*
X114474112Y-57000000D01*
X114457701Y-57166627D01*
X114409096Y-57326857D01*
X114330169Y-57474518D01*
X114223949Y-57603949D01*
X114094518Y-57710169D01*
X113988463Y-57766857D01*
X113946855Y-57789097D01*
X113866742Y-57813398D01*
X113786627Y-57837701D01*
X113661752Y-57850000D01*
X113578248Y-57850000D01*
X113453373Y-57837701D01*
X113373258Y-57813399D01*
X113293145Y-57789097D01*
X113251537Y-57766857D01*
X113145482Y-57710169D01*
X113016051Y-57603949D01*
X112909831Y-57474518D01*
X112830904Y-57326857D01*
X112782299Y-57166627D01*
X112765888Y-57000000D01*
X112782299Y-56833373D01*
X112815492Y-56723949D01*
X112830903Y-56673145D01*
X112872930Y-56594519D01*
X112909831Y-56525482D01*
X113016051Y-56396051D01*
X113145482Y-56289831D01*
X113293143Y-56210904D01*
X113293145Y-56210903D01*
X113373258Y-56186601D01*
X113453373Y-56162299D01*
X113578248Y-56150000D01*
X113661752Y-56150000D01*
X113786627Y-56162299D01*
X113786627Y-56162299D01*
G37*
G36*
X118866627Y-56162299D02*
G01*
X118946742Y-56186601D01*
X119026855Y-56210903D01*
X119026857Y-56210904D01*
X119174518Y-56289831D01*
X119303949Y-56396051D01*
X119410169Y-56525482D01*
X119447070Y-56594519D01*
X119489097Y-56673145D01*
X119504508Y-56723949D01*
X119537701Y-56833373D01*
X119554112Y-57000000D01*
X119537701Y-57166627D01*
X119489096Y-57326857D01*
X119410169Y-57474518D01*
X119303949Y-57603949D01*
X119174518Y-57710169D01*
X119068463Y-57766857D01*
X119026855Y-57789097D01*
X118946742Y-57813398D01*
X118866627Y-57837701D01*
X118741752Y-57850000D01*
X118658248Y-57850000D01*
X118533373Y-57837701D01*
X118453258Y-57813399D01*
X118373145Y-57789097D01*
X118331537Y-57766857D01*
X118225482Y-57710169D01*
X118096051Y-57603949D01*
X117989831Y-57474518D01*
X117910904Y-57326857D01*
X117862299Y-57166627D01*
X117845888Y-57000000D01*
X117862299Y-56833373D01*
X117895492Y-56723949D01*
X117910903Y-56673145D01*
X117952930Y-56594519D01*
X117989831Y-56525482D01*
X118096051Y-56396051D01*
X118225482Y-56289831D01*
X118373143Y-56210904D01*
X118373145Y-56210903D01*
X118453258Y-56186601D01*
X118533373Y-56162299D01*
X118658248Y-56150000D01*
X118741752Y-56150000D01*
X118866627Y-56162299D01*
X118866627Y-56162299D01*
G37*
G36*
X121406627Y-56162299D02*
G01*
X121486742Y-56186601D01*
X121566855Y-56210903D01*
X121566857Y-56210904D01*
X121714518Y-56289831D01*
X121843949Y-56396051D01*
X121950169Y-56525482D01*
X121987070Y-56594519D01*
X122029097Y-56673145D01*
X122044508Y-56723949D01*
X122077701Y-56833373D01*
X122094112Y-57000000D01*
X122077701Y-57166627D01*
X122029096Y-57326857D01*
X121950169Y-57474518D01*
X121843949Y-57603949D01*
X121714518Y-57710169D01*
X121608463Y-57766857D01*
X121566855Y-57789097D01*
X121486742Y-57813398D01*
X121406627Y-57837701D01*
X121281752Y-57850000D01*
X121198248Y-57850000D01*
X121073373Y-57837701D01*
X120993258Y-57813399D01*
X120913145Y-57789097D01*
X120871537Y-57766857D01*
X120765482Y-57710169D01*
X120636051Y-57603949D01*
X120529831Y-57474518D01*
X120450904Y-57326857D01*
X120402299Y-57166627D01*
X120385888Y-57000000D01*
X120402299Y-56833373D01*
X120435492Y-56723949D01*
X120450903Y-56673145D01*
X120492930Y-56594519D01*
X120529831Y-56525482D01*
X120636051Y-56396051D01*
X120765482Y-56289831D01*
X120913143Y-56210904D01*
X120913145Y-56210903D01*
X120993258Y-56186601D01*
X121073373Y-56162299D01*
X121198248Y-56150000D01*
X121281752Y-56150000D01*
X121406627Y-56162299D01*
X121406627Y-56162299D01*
G37*
G36*
X111246627Y-56162299D02*
G01*
X111326742Y-56186601D01*
X111406855Y-56210903D01*
X111406857Y-56210904D01*
X111554518Y-56289831D01*
X111683949Y-56396051D01*
X111790169Y-56525482D01*
X111827070Y-56594519D01*
X111869097Y-56673145D01*
X111884508Y-56723949D01*
X111917701Y-56833373D01*
X111934112Y-57000000D01*
X111917701Y-57166627D01*
X111869096Y-57326857D01*
X111790169Y-57474518D01*
X111683949Y-57603949D01*
X111554518Y-57710169D01*
X111448463Y-57766857D01*
X111406855Y-57789097D01*
X111326742Y-57813398D01*
X111246627Y-57837701D01*
X111121752Y-57850000D01*
X111038248Y-57850000D01*
X110913373Y-57837701D01*
X110833258Y-57813399D01*
X110753145Y-57789097D01*
X110711537Y-57766857D01*
X110605482Y-57710169D01*
X110476051Y-57603949D01*
X110369831Y-57474518D01*
X110290904Y-57326857D01*
X110242299Y-57166627D01*
X110225888Y-57000000D01*
X110242299Y-56833373D01*
X110275492Y-56723949D01*
X110290903Y-56673145D01*
X110332930Y-56594519D01*
X110369831Y-56525482D01*
X110476051Y-56396051D01*
X110605482Y-56289831D01*
X110753143Y-56210904D01*
X110753145Y-56210903D01*
X110833258Y-56186601D01*
X110913373Y-56162299D01*
X111038248Y-56150000D01*
X111121752Y-56150000D01*
X111246627Y-56162299D01*
X111246627Y-56162299D01*
G37*
G36*
X123946627Y-56162299D02*
G01*
X124026742Y-56186601D01*
X124106855Y-56210903D01*
X124106857Y-56210904D01*
X124254518Y-56289831D01*
X124383949Y-56396051D01*
X124490169Y-56525482D01*
X124527070Y-56594519D01*
X124569097Y-56673145D01*
X124584508Y-56723949D01*
X124617701Y-56833373D01*
X124634112Y-57000000D01*
X124617701Y-57166627D01*
X124569096Y-57326857D01*
X124490169Y-57474518D01*
X124383949Y-57603949D01*
X124254518Y-57710169D01*
X124148463Y-57766857D01*
X124106855Y-57789097D01*
X124026742Y-57813398D01*
X123946627Y-57837701D01*
X123821752Y-57850000D01*
X123738248Y-57850000D01*
X123613373Y-57837701D01*
X123533258Y-57813399D01*
X123453145Y-57789097D01*
X123411537Y-57766857D01*
X123305482Y-57710169D01*
X123176051Y-57603949D01*
X123069831Y-57474518D01*
X122990904Y-57326857D01*
X122942299Y-57166627D01*
X122925888Y-57000000D01*
X122942299Y-56833373D01*
X122975492Y-56723949D01*
X122990903Y-56673145D01*
X123032930Y-56594519D01*
X123069831Y-56525482D01*
X123176051Y-56396051D01*
X123305482Y-56289831D01*
X123453143Y-56210904D01*
X123453145Y-56210903D01*
X123533258Y-56186601D01*
X123613373Y-56162299D01*
X123738248Y-56150000D01*
X123821752Y-56150000D01*
X123946627Y-56162299D01*
X123946627Y-56162299D01*
G37*
G36*
X116326627Y-56162299D02*
G01*
X116406742Y-56186601D01*
X116486855Y-56210903D01*
X116486857Y-56210904D01*
X116634518Y-56289831D01*
X116763949Y-56396051D01*
X116870169Y-56525482D01*
X116907070Y-56594519D01*
X116949097Y-56673145D01*
X116964508Y-56723949D01*
X116997701Y-56833373D01*
X117014112Y-57000000D01*
X116997701Y-57166627D01*
X116949096Y-57326857D01*
X116870169Y-57474518D01*
X116763949Y-57603949D01*
X116634518Y-57710169D01*
X116528463Y-57766857D01*
X116486855Y-57789097D01*
X116406742Y-57813398D01*
X116326627Y-57837701D01*
X116201752Y-57850000D01*
X116118248Y-57850000D01*
X115993373Y-57837701D01*
X115913258Y-57813399D01*
X115833145Y-57789097D01*
X115791537Y-57766857D01*
X115685482Y-57710169D01*
X115556051Y-57603949D01*
X115449831Y-57474518D01*
X115370904Y-57326857D01*
X115322299Y-57166627D01*
X115305888Y-57000000D01*
X115322299Y-56833373D01*
X115355492Y-56723949D01*
X115370903Y-56673145D01*
X115412930Y-56594519D01*
X115449831Y-56525482D01*
X115556051Y-56396051D01*
X115685482Y-56289831D01*
X115833143Y-56210904D01*
X115833145Y-56210903D01*
X115913258Y-56186601D01*
X115993373Y-56162299D01*
X116118248Y-56150000D01*
X116201752Y-56150000D01*
X116326627Y-56162299D01*
X116326627Y-56162299D01*
G37*
G36*
X101166627Y-55282299D02*
G01*
X101246742Y-55306602D01*
X101326855Y-55330903D01*
X101326857Y-55330904D01*
X101474518Y-55409831D01*
X101603949Y-55516051D01*
X101710169Y-55645482D01*
X101789096Y-55793143D01*
X101837701Y-55953373D01*
X101854112Y-56120000D01*
X101837701Y-56286627D01*
X101813398Y-56366742D01*
X101804508Y-56396052D01*
X101789096Y-56446857D01*
X101710169Y-56594518D01*
X101603949Y-56723949D01*
X101474518Y-56830169D01*
X101326857Y-56909096D01*
X101326855Y-56909097D01*
X101246742Y-56933398D01*
X101166627Y-56957701D01*
X101041752Y-56970000D01*
X100958248Y-56970000D01*
X100833373Y-56957701D01*
X100753258Y-56933398D01*
X100673145Y-56909097D01*
X100673143Y-56909096D01*
X100525482Y-56830169D01*
X100396051Y-56723949D01*
X100289831Y-56594518D01*
X100210904Y-56446857D01*
X100195493Y-56396052D01*
X100186602Y-56366742D01*
X100162299Y-56286627D01*
X100145888Y-56120000D01*
X100162299Y-55953373D01*
X100210904Y-55793143D01*
X100289831Y-55645482D01*
X100396051Y-55516051D01*
X100525482Y-55409831D01*
X100673143Y-55330904D01*
X100673145Y-55330903D01*
X100753258Y-55306602D01*
X100833373Y-55282299D01*
X100958248Y-55270000D01*
X101041752Y-55270000D01*
X101166627Y-55282299D01*
X101166627Y-55282299D01*
G37*
G36*
X96666627Y-54062299D02*
G01*
X96746742Y-54086602D01*
X96826855Y-54110903D01*
X96826857Y-54110904D01*
X96974518Y-54189831D01*
X97103949Y-54296051D01*
X97210169Y-54425482D01*
X97289096Y-54573143D01*
X97337701Y-54733373D01*
X97354112Y-54900000D01*
X97337701Y-55066627D01*
X97289096Y-55226857D01*
X97210169Y-55374518D01*
X97103949Y-55503949D01*
X96974518Y-55610169D01*
X96908454Y-55645481D01*
X96826855Y-55689097D01*
X96746742Y-55713399D01*
X96666627Y-55737701D01*
X96541752Y-55750000D01*
X96458248Y-55750000D01*
X96333373Y-55737701D01*
X96253258Y-55713398D01*
X96173145Y-55689097D01*
X96091546Y-55645481D01*
X96025482Y-55610169D01*
X95896051Y-55503949D01*
X95789831Y-55374518D01*
X95710904Y-55226857D01*
X95662299Y-55066627D01*
X95645888Y-54900000D01*
X95662299Y-54733373D01*
X95710904Y-54573143D01*
X95789831Y-54425482D01*
X95896051Y-54296051D01*
X96025482Y-54189831D01*
X96173143Y-54110904D01*
X96173145Y-54110903D01*
X96253258Y-54086601D01*
X96333373Y-54062299D01*
X96458248Y-54050000D01*
X96541752Y-54050000D01*
X96666627Y-54062299D01*
X96666627Y-54062299D01*
G37*
G36*
X135666627Y-54062299D02*
G01*
X135746742Y-54086602D01*
X135826855Y-54110903D01*
X135826857Y-54110904D01*
X135974518Y-54189831D01*
X136103949Y-54296051D01*
X136210169Y-54425482D01*
X136289096Y-54573143D01*
X136337701Y-54733373D01*
X136354112Y-54900000D01*
X136337701Y-55066627D01*
X136289096Y-55226857D01*
X136210169Y-55374518D01*
X136103949Y-55503949D01*
X135974518Y-55610169D01*
X135908454Y-55645481D01*
X135826855Y-55689097D01*
X135746742Y-55713399D01*
X135666627Y-55737701D01*
X135541752Y-55750000D01*
X135458248Y-55750000D01*
X135333373Y-55737701D01*
X135253258Y-55713398D01*
X135173145Y-55689097D01*
X135091546Y-55645481D01*
X135025482Y-55610169D01*
X134896051Y-55503949D01*
X134789831Y-55374518D01*
X134710904Y-55226857D01*
X134662299Y-55066627D01*
X134645888Y-54900000D01*
X134662299Y-54733373D01*
X134710904Y-54573143D01*
X134789831Y-54425482D01*
X134896051Y-54296051D01*
X135025482Y-54189831D01*
X135173143Y-54110904D01*
X135173145Y-54110903D01*
X135253258Y-54086601D01*
X135333373Y-54062299D01*
X135458248Y-54050000D01*
X135541752Y-54050000D01*
X135666627Y-54062299D01*
X135666627Y-54062299D01*
G37*
G36*
X101166627Y-52742299D02*
G01*
X101246742Y-52766601D01*
X101326855Y-52790903D01*
X101326857Y-52790904D01*
X101474518Y-52869831D01*
X101603949Y-52976051D01*
X101710169Y-53105482D01*
X101789096Y-53253143D01*
X101837701Y-53413373D01*
X101854112Y-53580000D01*
X101837701Y-53746627D01*
X101789096Y-53906857D01*
X101710169Y-54054518D01*
X101603949Y-54183949D01*
X101474518Y-54290169D01*
X101326857Y-54369096D01*
X101326855Y-54369097D01*
X101246742Y-54393398D01*
X101166627Y-54417701D01*
X101041752Y-54430000D01*
X100958248Y-54430000D01*
X100833373Y-54417701D01*
X100753258Y-54393399D01*
X100673145Y-54369097D01*
X100673143Y-54369096D01*
X100525482Y-54290169D01*
X100396051Y-54183949D01*
X100289831Y-54054518D01*
X100210904Y-53906857D01*
X100162299Y-53746627D01*
X100145888Y-53580000D01*
X100162299Y-53413373D01*
X100210904Y-53253143D01*
X100289831Y-53105482D01*
X100396051Y-52976051D01*
X100525482Y-52869831D01*
X100673143Y-52790904D01*
X100673145Y-52790903D01*
X100753258Y-52766601D01*
X100833373Y-52742299D01*
X100958248Y-52730000D01*
X101041752Y-52730000D01*
X101166627Y-52742299D01*
X101166627Y-52742299D01*
G37*
G36*
X122165000Y-54255000D02*
G01*
X121265000Y-54255000D01*
X121265000Y-52255000D01*
X122165000Y-52255000D01*
X122165000Y-54255000D01*
X122165000Y-54255000D01*
G37*
G36*
X112005000Y-54255000D02*
G01*
X111105000Y-54255000D01*
X111105000Y-52255000D01*
X112005000Y-52255000D01*
X112005000Y-54255000D01*
X112005000Y-54255000D01*
G37*
G36*
X113275000Y-54255000D02*
G01*
X112375000Y-54255000D01*
X112375000Y-52255000D01*
X113275000Y-52255000D01*
X113275000Y-54255000D01*
X113275000Y-54255000D01*
G37*
G36*
X120895000Y-54255000D02*
G01*
X119995000Y-54255000D01*
X119995000Y-52255000D01*
X120895000Y-52255000D01*
X120895000Y-54255000D01*
X120895000Y-54255000D01*
G37*
G36*
X114545000Y-54255000D02*
G01*
X113645000Y-54255000D01*
X113645000Y-52255000D01*
X114545000Y-52255000D01*
X114545000Y-54255000D01*
X114545000Y-54255000D01*
G37*
G36*
X115815000Y-54255000D02*
G01*
X114915000Y-54255000D01*
X114915000Y-52255000D01*
X115815000Y-52255000D01*
X115815000Y-54255000D01*
X115815000Y-54255000D01*
G37*
G36*
X118355000Y-54255000D02*
G01*
X117455000Y-54255000D01*
X117455000Y-52255000D01*
X118355000Y-52255000D01*
X118355000Y-54255000D01*
X118355000Y-54255000D01*
G37*
G36*
X119625000Y-54255000D02*
G01*
X118725000Y-54255000D01*
X118725000Y-52255000D01*
X119625000Y-52255000D01*
X119625000Y-54255000D01*
X119625000Y-54255000D01*
G37*
G36*
X110735000Y-54255000D02*
G01*
X109835000Y-54255000D01*
X109835000Y-52255000D01*
X110735000Y-52255000D01*
X110735000Y-54255000D01*
X110735000Y-54255000D01*
G37*
G36*
X117085000Y-54255000D02*
G01*
X116185000Y-54255000D01*
X116185000Y-52255000D01*
X117085000Y-52255000D01*
X117085000Y-54255000D01*
X117085000Y-54255000D01*
G37*
G36*
X96666627Y-51522299D02*
G01*
X96746742Y-51546602D01*
X96826855Y-51570903D01*
X96826857Y-51570904D01*
X96974518Y-51649831D01*
X97103949Y-51756051D01*
X97210169Y-51885482D01*
X97289096Y-52033143D01*
X97337701Y-52193373D01*
X97354112Y-52360000D01*
X97337701Y-52526627D01*
X97289096Y-52686857D01*
X97210169Y-52834518D01*
X97103949Y-52963949D01*
X96974518Y-53070169D01*
X96908454Y-53105481D01*
X96826855Y-53149097D01*
X96746742Y-53173398D01*
X96666627Y-53197701D01*
X96541752Y-53210000D01*
X96458248Y-53210000D01*
X96333373Y-53197701D01*
X96253258Y-53173398D01*
X96173145Y-53149097D01*
X96091546Y-53105481D01*
X96025482Y-53070169D01*
X95896051Y-52963949D01*
X95789831Y-52834518D01*
X95710904Y-52686857D01*
X95662299Y-52526627D01*
X95645888Y-52360000D01*
X95662299Y-52193373D01*
X95710904Y-52033143D01*
X95789831Y-51885482D01*
X95896051Y-51756051D01*
X96025482Y-51649831D01*
X96173143Y-51570904D01*
X96173145Y-51570903D01*
X96253258Y-51546602D01*
X96333373Y-51522299D01*
X96458248Y-51510000D01*
X96541752Y-51510000D01*
X96666627Y-51522299D01*
X96666627Y-51522299D01*
G37*
G36*
X135666627Y-51522299D02*
G01*
X135746742Y-51546602D01*
X135826855Y-51570903D01*
X135826857Y-51570904D01*
X135974518Y-51649831D01*
X136103949Y-51756051D01*
X136210169Y-51885482D01*
X136289096Y-52033143D01*
X136337701Y-52193373D01*
X136354112Y-52360000D01*
X136337701Y-52526627D01*
X136289096Y-52686857D01*
X136210169Y-52834518D01*
X136103949Y-52963949D01*
X135974518Y-53070169D01*
X135908454Y-53105481D01*
X135826855Y-53149097D01*
X135746742Y-53173398D01*
X135666627Y-53197701D01*
X135541752Y-53210000D01*
X135458248Y-53210000D01*
X135333373Y-53197701D01*
X135253258Y-53173398D01*
X135173145Y-53149097D01*
X135091546Y-53105481D01*
X135025482Y-53070169D01*
X134896051Y-52963949D01*
X134789831Y-52834518D01*
X134710904Y-52686857D01*
X134662299Y-52526627D01*
X134645888Y-52360000D01*
X134662299Y-52193373D01*
X134710904Y-52033143D01*
X134789831Y-51885482D01*
X134896051Y-51756051D01*
X135025482Y-51649831D01*
X135173143Y-51570904D01*
X135173145Y-51570903D01*
X135253258Y-51546602D01*
X135333373Y-51522299D01*
X135458248Y-51510000D01*
X135541752Y-51510000D01*
X135666627Y-51522299D01*
X135666627Y-51522299D01*
G37*
G36*
X125500000Y-52705000D02*
G01*
X123500000Y-52705000D01*
X123500000Y-51805000D01*
X125500000Y-51805000D01*
X125500000Y-52705000D01*
X125500000Y-52705000D01*
G37*
G36*
X108500000Y-52705000D02*
G01*
X106500000Y-52705000D01*
X106500000Y-51805000D01*
X108500000Y-51805000D01*
X108500000Y-52705000D01*
X108500000Y-52705000D01*
G37*
G36*
X101166627Y-50202299D02*
G01*
X101246742Y-50226601D01*
X101326855Y-50250903D01*
X101326857Y-50250904D01*
X101474518Y-50329831D01*
X101603949Y-50436051D01*
X101710169Y-50565482D01*
X101789096Y-50713143D01*
X101837701Y-50873373D01*
X101854112Y-51040000D01*
X101837701Y-51206627D01*
X101789096Y-51366857D01*
X101710169Y-51514518D01*
X101603949Y-51643949D01*
X101474518Y-51750169D01*
X101371937Y-51805000D01*
X101326855Y-51829097D01*
X101246742Y-51853399D01*
X101166627Y-51877701D01*
X101041752Y-51890000D01*
X100958248Y-51890000D01*
X100833373Y-51877701D01*
X100753258Y-51853398D01*
X100673145Y-51829097D01*
X100628063Y-51805000D01*
X100525482Y-51750169D01*
X100396051Y-51643949D01*
X100289831Y-51514518D01*
X100210904Y-51366857D01*
X100162299Y-51206627D01*
X100145888Y-51040000D01*
X100162299Y-50873373D01*
X100210904Y-50713143D01*
X100289831Y-50565482D01*
X100396051Y-50436051D01*
X100525482Y-50329831D01*
X100673143Y-50250904D01*
X100673145Y-50250903D01*
X100753258Y-50226601D01*
X100833373Y-50202299D01*
X100958248Y-50190000D01*
X101041752Y-50190000D01*
X101166627Y-50202299D01*
X101166627Y-50202299D01*
G37*
G36*
X125500000Y-51435000D02*
G01*
X123500000Y-51435000D01*
X123500000Y-50535000D01*
X125500000Y-50535000D01*
X125500000Y-51435000D01*
X125500000Y-51435000D01*
G37*
G36*
X108500000Y-51435000D02*
G01*
X106500000Y-51435000D01*
X106500000Y-50535000D01*
X108500000Y-50535000D01*
X108500000Y-51435000D01*
X108500000Y-51435000D01*
G37*
G36*
X96666627Y-48982299D02*
G01*
X96746742Y-49006602D01*
X96826855Y-49030903D01*
X96826857Y-49030904D01*
X96974518Y-49109831D01*
X97103949Y-49216051D01*
X97210169Y-49345482D01*
X97289096Y-49493143D01*
X97337701Y-49653373D01*
X97354112Y-49820000D01*
X97337701Y-49986627D01*
X97289096Y-50146857D01*
X97210169Y-50294518D01*
X97103949Y-50423949D01*
X96974518Y-50530169D01*
X96908454Y-50565481D01*
X96826855Y-50609097D01*
X96746742Y-50633398D01*
X96666627Y-50657701D01*
X96541752Y-50670000D01*
X96458248Y-50670000D01*
X96333373Y-50657701D01*
X96253258Y-50633398D01*
X96173145Y-50609097D01*
X96091546Y-50565481D01*
X96025482Y-50530169D01*
X95896051Y-50423949D01*
X95789831Y-50294518D01*
X95710904Y-50146857D01*
X95662299Y-49986627D01*
X95645888Y-49820000D01*
X95662299Y-49653373D01*
X95710904Y-49493143D01*
X95789831Y-49345482D01*
X95896051Y-49216051D01*
X96025482Y-49109831D01*
X96173143Y-49030904D01*
X96173145Y-49030903D01*
X96253258Y-49006602D01*
X96333373Y-48982299D01*
X96458248Y-48970000D01*
X96541752Y-48970000D01*
X96666627Y-48982299D01*
X96666627Y-48982299D01*
G37*
G36*
X135666627Y-48982299D02*
G01*
X135746742Y-49006602D01*
X135826855Y-49030903D01*
X135826857Y-49030904D01*
X135974518Y-49109831D01*
X136103949Y-49216051D01*
X136210169Y-49345482D01*
X136289096Y-49493143D01*
X136337701Y-49653373D01*
X136354112Y-49820000D01*
X136337701Y-49986627D01*
X136289096Y-50146857D01*
X136210169Y-50294518D01*
X136103949Y-50423949D01*
X135974518Y-50530169D01*
X135908454Y-50565481D01*
X135826855Y-50609097D01*
X135746742Y-50633398D01*
X135666627Y-50657701D01*
X135541752Y-50670000D01*
X135458248Y-50670000D01*
X135333373Y-50657701D01*
X135253258Y-50633398D01*
X135173145Y-50609097D01*
X135091546Y-50565481D01*
X135025482Y-50530169D01*
X134896051Y-50423949D01*
X134789831Y-50294518D01*
X134710904Y-50146857D01*
X134662299Y-49986627D01*
X134645888Y-49820000D01*
X134662299Y-49653373D01*
X134710904Y-49493143D01*
X134789831Y-49345482D01*
X134896051Y-49216051D01*
X135025482Y-49109831D01*
X135173143Y-49030904D01*
X135173145Y-49030903D01*
X135253258Y-49006602D01*
X135333373Y-48982299D01*
X135458248Y-48970000D01*
X135541752Y-48970000D01*
X135666627Y-48982299D01*
X135666627Y-48982299D01*
G37*
G36*
X125500000Y-50165000D02*
G01*
X123500000Y-50165000D01*
X123500000Y-49265000D01*
X125500000Y-49265000D01*
X125500000Y-50165000D01*
X125500000Y-50165000D01*
G37*
G36*
X108500000Y-50165000D02*
G01*
X106500000Y-50165000D01*
X106500000Y-49265000D01*
X108500000Y-49265000D01*
X108500000Y-50165000D01*
X108500000Y-50165000D01*
G37*
G36*
X101766627Y-47452299D02*
G01*
X101846742Y-47476601D01*
X101926855Y-47500903D01*
X101926857Y-47500904D01*
X102074518Y-47579831D01*
X102203949Y-47686051D01*
X102310169Y-47815482D01*
X102389096Y-47963143D01*
X102437701Y-48123373D01*
X102454112Y-48290000D01*
X102437701Y-48456627D01*
X102437700Y-48456629D01*
X102392130Y-48606857D01*
X102389096Y-48616857D01*
X102310169Y-48764518D01*
X102203949Y-48893949D01*
X102074518Y-49000169D01*
X101926857Y-49079096D01*
X101926855Y-49079097D01*
X101846742Y-49103399D01*
X101766627Y-49127701D01*
X101641752Y-49140000D01*
X101558248Y-49140000D01*
X101433373Y-49127701D01*
X101353258Y-49103399D01*
X101273145Y-49079097D01*
X101273143Y-49079096D01*
X101125482Y-49000169D01*
X100996051Y-48893949D01*
X100889831Y-48764518D01*
X100810904Y-48616857D01*
X100807871Y-48606857D01*
X100762300Y-48456629D01*
X100762299Y-48456627D01*
X100745888Y-48290000D01*
X100762299Y-48123373D01*
X100810904Y-47963143D01*
X100889831Y-47815482D01*
X100996051Y-47686051D01*
X101125482Y-47579831D01*
X101273143Y-47500904D01*
X101273145Y-47500903D01*
X101353258Y-47476601D01*
X101433373Y-47452299D01*
X101558248Y-47440000D01*
X101641752Y-47440000D01*
X101766627Y-47452299D01*
X101766627Y-47452299D01*
G37*
G36*
X103966627Y-47442299D02*
G01*
X104046742Y-47466601D01*
X104126855Y-47490903D01*
X104126857Y-47490904D01*
X104274518Y-47569831D01*
X104403949Y-47676051D01*
X104510169Y-47805482D01*
X104515514Y-47815482D01*
X104589097Y-47953145D01*
X104600328Y-47990169D01*
X104637701Y-48113373D01*
X104654112Y-48280000D01*
X104637701Y-48446627D01*
X104589096Y-48606857D01*
X104510169Y-48754518D01*
X104403949Y-48883949D01*
X104274518Y-48990169D01*
X104126857Y-49069096D01*
X104126855Y-49069097D01*
X104046742Y-49093399D01*
X103966627Y-49117701D01*
X103841752Y-49130000D01*
X103758248Y-49130000D01*
X103633373Y-49117701D01*
X103553258Y-49093399D01*
X103473145Y-49069097D01*
X103473143Y-49069096D01*
X103325482Y-48990169D01*
X103196051Y-48883949D01*
X103089831Y-48754518D01*
X103010904Y-48606857D01*
X102962299Y-48446627D01*
X102945888Y-48280000D01*
X102962299Y-48113373D01*
X102999672Y-47990169D01*
X103010903Y-47953145D01*
X103084486Y-47815482D01*
X103089831Y-47805482D01*
X103196051Y-47676051D01*
X103325482Y-47569831D01*
X103473143Y-47490904D01*
X103473145Y-47490903D01*
X103553258Y-47466601D01*
X103633373Y-47442299D01*
X103758248Y-47430000D01*
X103841752Y-47430000D01*
X103966627Y-47442299D01*
X103966627Y-47442299D01*
G37*
G36*
X108500000Y-48895000D02*
G01*
X106500000Y-48895000D01*
X106500000Y-47995000D01*
X108500000Y-47995000D01*
X108500000Y-48895000D01*
X108500000Y-48895000D01*
G37*
G36*
X125500000Y-48895000D02*
G01*
X123500000Y-48895000D01*
X123500000Y-47995000D01*
X125500000Y-47995000D01*
X125500000Y-48895000D01*
X125500000Y-48895000D01*
G37*
G36*
X128366627Y-46442299D02*
G01*
X128446742Y-46466602D01*
X128526855Y-46490903D01*
X128526857Y-46490904D01*
X128674518Y-46569831D01*
X128803949Y-46676051D01*
X128910169Y-46805482D01*
X128989096Y-46953143D01*
X129037701Y-47113373D01*
X129054112Y-47280000D01*
X129037701Y-47446627D01*
X129037700Y-47446629D01*
X129000328Y-47569832D01*
X128989096Y-47606857D01*
X128910169Y-47754518D01*
X128803949Y-47883949D01*
X128674518Y-47990169D01*
X128526857Y-48069096D01*
X128526855Y-48069097D01*
X128446742Y-48093399D01*
X128366627Y-48117701D01*
X128241752Y-48130000D01*
X128158248Y-48130000D01*
X128033373Y-48117701D01*
X127953258Y-48093398D01*
X127873145Y-48069097D01*
X127873143Y-48069096D01*
X127725482Y-47990169D01*
X127596051Y-47883949D01*
X127489831Y-47754518D01*
X127410904Y-47606857D01*
X127399673Y-47569832D01*
X127362300Y-47446629D01*
X127362299Y-47446627D01*
X127345888Y-47280000D01*
X127362299Y-47113373D01*
X127410904Y-46953143D01*
X127489831Y-46805482D01*
X127596051Y-46676051D01*
X127725482Y-46569831D01*
X127873143Y-46490904D01*
X127873145Y-46490903D01*
X127953258Y-46466602D01*
X128033373Y-46442299D01*
X128158248Y-46430000D01*
X128241752Y-46430000D01*
X128366627Y-46442299D01*
X128366627Y-46442299D01*
G37*
G36*
X130566627Y-46442299D02*
G01*
X130646742Y-46466602D01*
X130726855Y-46490903D01*
X130726857Y-46490904D01*
X130874518Y-46569831D01*
X131003949Y-46676051D01*
X131110169Y-46805482D01*
X131189096Y-46953143D01*
X131237701Y-47113373D01*
X131254112Y-47280000D01*
X131237701Y-47446627D01*
X131237700Y-47446629D01*
X131200328Y-47569832D01*
X131189096Y-47606857D01*
X131110169Y-47754518D01*
X131003949Y-47883949D01*
X130874518Y-47990169D01*
X130726857Y-48069096D01*
X130726855Y-48069097D01*
X130646742Y-48093399D01*
X130566627Y-48117701D01*
X130441752Y-48130000D01*
X130358248Y-48130000D01*
X130233373Y-48117701D01*
X130153258Y-48093398D01*
X130073145Y-48069097D01*
X130073143Y-48069096D01*
X129925482Y-47990169D01*
X129796051Y-47883949D01*
X129689831Y-47754518D01*
X129610904Y-47606857D01*
X129599673Y-47569832D01*
X129562300Y-47446629D01*
X129562299Y-47446627D01*
X129545888Y-47280000D01*
X129562299Y-47113373D01*
X129610904Y-46953143D01*
X129689831Y-46805482D01*
X129796051Y-46676051D01*
X129925482Y-46569831D01*
X130073143Y-46490904D01*
X130073145Y-46490903D01*
X130153258Y-46466602D01*
X130233373Y-46442299D01*
X130358248Y-46430000D01*
X130441752Y-46430000D01*
X130566627Y-46442299D01*
X130566627Y-46442299D01*
G37*
G36*
X96666627Y-46442299D02*
G01*
X96746742Y-46466602D01*
X96826855Y-46490903D01*
X96826857Y-46490904D01*
X96974518Y-46569831D01*
X97103949Y-46676051D01*
X97210169Y-46805482D01*
X97289096Y-46953143D01*
X97337701Y-47113373D01*
X97354112Y-47280000D01*
X97337701Y-47446627D01*
X97337700Y-47446629D01*
X97300328Y-47569832D01*
X97289096Y-47606857D01*
X97210169Y-47754518D01*
X97103949Y-47883949D01*
X96974518Y-47990169D01*
X96826857Y-48069096D01*
X96826855Y-48069097D01*
X96746742Y-48093398D01*
X96666627Y-48117701D01*
X96541752Y-48130000D01*
X96458248Y-48130000D01*
X96333373Y-48117701D01*
X96253258Y-48093398D01*
X96173145Y-48069097D01*
X96173143Y-48069096D01*
X96025482Y-47990169D01*
X95896051Y-47883949D01*
X95789831Y-47754518D01*
X95710904Y-47606857D01*
X95699673Y-47569832D01*
X95662300Y-47446629D01*
X95662299Y-47446627D01*
X95645888Y-47280000D01*
X95662299Y-47113373D01*
X95710904Y-46953143D01*
X95789831Y-46805482D01*
X95896051Y-46676051D01*
X96025482Y-46569831D01*
X96173143Y-46490904D01*
X96173145Y-46490903D01*
X96253258Y-46466602D01*
X96333373Y-46442299D01*
X96458248Y-46430000D01*
X96541752Y-46430000D01*
X96666627Y-46442299D01*
X96666627Y-46442299D01*
G37*
G36*
X135666627Y-46442299D02*
G01*
X135746742Y-46466602D01*
X135826855Y-46490903D01*
X135826857Y-46490904D01*
X135974518Y-46569831D01*
X136103949Y-46676051D01*
X136210169Y-46805482D01*
X136289096Y-46953143D01*
X136337701Y-47113373D01*
X136354112Y-47280000D01*
X136337701Y-47446627D01*
X136337700Y-47446629D01*
X136300328Y-47569832D01*
X136289096Y-47606857D01*
X136210169Y-47754518D01*
X136103949Y-47883949D01*
X135974518Y-47990169D01*
X135826857Y-48069096D01*
X135826855Y-48069097D01*
X135746742Y-48093399D01*
X135666627Y-48117701D01*
X135541752Y-48130000D01*
X135458248Y-48130000D01*
X135333373Y-48117701D01*
X135253258Y-48093398D01*
X135173145Y-48069097D01*
X135173143Y-48069096D01*
X135025482Y-47990169D01*
X134896051Y-47883949D01*
X134789831Y-47754518D01*
X134710904Y-47606857D01*
X134699673Y-47569832D01*
X134662300Y-47446629D01*
X134662299Y-47446627D01*
X134645888Y-47280000D01*
X134662299Y-47113373D01*
X134710904Y-46953143D01*
X134789831Y-46805482D01*
X134896051Y-46676051D01*
X135025482Y-46569831D01*
X135173143Y-46490904D01*
X135173145Y-46490903D01*
X135253258Y-46466602D01*
X135333373Y-46442299D01*
X135458248Y-46430000D01*
X135541752Y-46430000D01*
X135666627Y-46442299D01*
X135666627Y-46442299D01*
G37*
G36*
X125500000Y-47625000D02*
G01*
X123500000Y-47625000D01*
X123500000Y-46725000D01*
X125500000Y-46725000D01*
X125500000Y-47625000D01*
X125500000Y-47625000D01*
G37*
G36*
X108500000Y-47625000D02*
G01*
X106500000Y-47625000D01*
X106500000Y-46725000D01*
X108500000Y-46725000D01*
X108500000Y-47625000D01*
X108500000Y-47625000D01*
G37*
G36*
X101766627Y-44912299D02*
G01*
X101846742Y-44936602D01*
X101926855Y-44960903D01*
X101926857Y-44960904D01*
X102074518Y-45039831D01*
X102203949Y-45146051D01*
X102310169Y-45275482D01*
X102389096Y-45423143D01*
X102437701Y-45583373D01*
X102454112Y-45750000D01*
X102437701Y-45916627D01*
X102437700Y-45916629D01*
X102392130Y-46066857D01*
X102389096Y-46076857D01*
X102310169Y-46224518D01*
X102203949Y-46353949D01*
X102074518Y-46460169D01*
X101926857Y-46539096D01*
X101926855Y-46539097D01*
X101846742Y-46563398D01*
X101766627Y-46587701D01*
X101641752Y-46600000D01*
X101558248Y-46600000D01*
X101433373Y-46587701D01*
X101353258Y-46563398D01*
X101273145Y-46539097D01*
X101273143Y-46539096D01*
X101125482Y-46460169D01*
X100996051Y-46353949D01*
X100889831Y-46224518D01*
X100810904Y-46076857D01*
X100807871Y-46066857D01*
X100762300Y-45916629D01*
X100762299Y-45916627D01*
X100745888Y-45750000D01*
X100762299Y-45583373D01*
X100810904Y-45423143D01*
X100889831Y-45275482D01*
X100996051Y-45146051D01*
X101125482Y-45039831D01*
X101273143Y-44960904D01*
X101273145Y-44960903D01*
X101353258Y-44936602D01*
X101433373Y-44912299D01*
X101558248Y-44900000D01*
X101641752Y-44900000D01*
X101766627Y-44912299D01*
X101766627Y-44912299D01*
G37*
G36*
X103966627Y-44902299D02*
G01*
X104046742Y-44926602D01*
X104126855Y-44950903D01*
X104126857Y-44950904D01*
X104274518Y-45029831D01*
X104403949Y-45136051D01*
X104510169Y-45265482D01*
X104515514Y-45275482D01*
X104589097Y-45413145D01*
X104600328Y-45450169D01*
X104637701Y-45573373D01*
X104654112Y-45740000D01*
X104637701Y-45906627D01*
X104589096Y-46066857D01*
X104510169Y-46214518D01*
X104403949Y-46343949D01*
X104274518Y-46450169D01*
X104126857Y-46529096D01*
X104126855Y-46529097D01*
X104046742Y-46553399D01*
X103966627Y-46577701D01*
X103841752Y-46590000D01*
X103758248Y-46590000D01*
X103633373Y-46577701D01*
X103553258Y-46553399D01*
X103473145Y-46529097D01*
X103473143Y-46529096D01*
X103325482Y-46450169D01*
X103196051Y-46343949D01*
X103089831Y-46214518D01*
X103010904Y-46066857D01*
X102962299Y-45906627D01*
X102945888Y-45740000D01*
X102962299Y-45573373D01*
X102999672Y-45450169D01*
X103010903Y-45413145D01*
X103084486Y-45275482D01*
X103089831Y-45265482D01*
X103196051Y-45136051D01*
X103325482Y-45029831D01*
X103473143Y-44950904D01*
X103473145Y-44950903D01*
X103553258Y-44926602D01*
X103633373Y-44902299D01*
X103758248Y-44890000D01*
X103841752Y-44890000D01*
X103966627Y-44902299D01*
X103966627Y-44902299D01*
G37*
G36*
X108500000Y-46355000D02*
G01*
X106500000Y-46355000D01*
X106500000Y-45455000D01*
X108500000Y-45455000D01*
X108500000Y-46355000D01*
X108500000Y-46355000D01*
G37*
G36*
X125500000Y-46355000D02*
G01*
X123500000Y-46355000D01*
X123500000Y-45455000D01*
X125500000Y-45455000D01*
X125500000Y-46355000D01*
X125500000Y-46355000D01*
G37*
G36*
X117500000Y-45745000D02*
G01*
X112500000Y-45745000D01*
X112500000Y-40745000D01*
X117500000Y-40745000D01*
X117500000Y-45745000D01*
X117500000Y-45745000D01*
G37*
G36*
X96666627Y-43902299D02*
G01*
X96746742Y-43926601D01*
X96826855Y-43950903D01*
X96826857Y-43950904D01*
X96974518Y-44029831D01*
X97103949Y-44136051D01*
X97210169Y-44265482D01*
X97289096Y-44413143D01*
X97337701Y-44573373D01*
X97354112Y-44740000D01*
X97337701Y-44906627D01*
X97337700Y-44906629D01*
X97300328Y-45029832D01*
X97289096Y-45066857D01*
X97210169Y-45214518D01*
X97103949Y-45343949D01*
X96974518Y-45450169D01*
X96826857Y-45529096D01*
X96826855Y-45529097D01*
X96746742Y-45553398D01*
X96666627Y-45577701D01*
X96541752Y-45590000D01*
X96458248Y-45590000D01*
X96333373Y-45577701D01*
X96253258Y-45553398D01*
X96173145Y-45529097D01*
X96173143Y-45529096D01*
X96025482Y-45450169D01*
X95896051Y-45343949D01*
X95789831Y-45214518D01*
X95710904Y-45066857D01*
X95699673Y-45029832D01*
X95662300Y-44906629D01*
X95662299Y-44906627D01*
X95645888Y-44740000D01*
X95662299Y-44573373D01*
X95710904Y-44413143D01*
X95789831Y-44265482D01*
X95896051Y-44136051D01*
X96025482Y-44029831D01*
X96173143Y-43950904D01*
X96173145Y-43950903D01*
X96253258Y-43926601D01*
X96333373Y-43902299D01*
X96458248Y-43890000D01*
X96541752Y-43890000D01*
X96666627Y-43902299D01*
X96666627Y-43902299D01*
G37*
G36*
X128366627Y-43902299D02*
G01*
X128446742Y-43926601D01*
X128526855Y-43950903D01*
X128526857Y-43950904D01*
X128674518Y-44029831D01*
X128803949Y-44136051D01*
X128910169Y-44265482D01*
X128989096Y-44413143D01*
X129037701Y-44573373D01*
X129054112Y-44740000D01*
X129037701Y-44906627D01*
X129037700Y-44906629D01*
X129000328Y-45029832D01*
X128989096Y-45066857D01*
X128910169Y-45214518D01*
X128803949Y-45343949D01*
X128674518Y-45450169D01*
X128526857Y-45529096D01*
X128526855Y-45529097D01*
X128446742Y-45553399D01*
X128366627Y-45577701D01*
X128241752Y-45590000D01*
X128158248Y-45590000D01*
X128033373Y-45577701D01*
X127953258Y-45553398D01*
X127873145Y-45529097D01*
X127873143Y-45529096D01*
X127725482Y-45450169D01*
X127596051Y-45343949D01*
X127489831Y-45214518D01*
X127410904Y-45066857D01*
X127399673Y-45029832D01*
X127362300Y-44906629D01*
X127362299Y-44906627D01*
X127345888Y-44740000D01*
X127362299Y-44573373D01*
X127410904Y-44413143D01*
X127489831Y-44265482D01*
X127596051Y-44136051D01*
X127725482Y-44029831D01*
X127873143Y-43950904D01*
X127873145Y-43950903D01*
X127953258Y-43926601D01*
X128033373Y-43902299D01*
X128158248Y-43890000D01*
X128241752Y-43890000D01*
X128366627Y-43902299D01*
X128366627Y-43902299D01*
G37*
G36*
X135666627Y-43902299D02*
G01*
X135746742Y-43926601D01*
X135826855Y-43950903D01*
X135826857Y-43950904D01*
X135974518Y-44029831D01*
X136103949Y-44136051D01*
X136210169Y-44265482D01*
X136289096Y-44413143D01*
X136337701Y-44573373D01*
X136354112Y-44740000D01*
X136337701Y-44906627D01*
X136337700Y-44906629D01*
X136300328Y-45029832D01*
X136289096Y-45066857D01*
X136210169Y-45214518D01*
X136103949Y-45343949D01*
X135974518Y-45450169D01*
X135826857Y-45529096D01*
X135826855Y-45529097D01*
X135746742Y-45553399D01*
X135666627Y-45577701D01*
X135541752Y-45590000D01*
X135458248Y-45590000D01*
X135333373Y-45577701D01*
X135253258Y-45553398D01*
X135173145Y-45529097D01*
X135173143Y-45529096D01*
X135025482Y-45450169D01*
X134896051Y-45343949D01*
X134789831Y-45214518D01*
X134710904Y-45066857D01*
X134699673Y-45029832D01*
X134662300Y-44906629D01*
X134662299Y-44906627D01*
X134645888Y-44740000D01*
X134662299Y-44573373D01*
X134710904Y-44413143D01*
X134789831Y-44265482D01*
X134896051Y-44136051D01*
X135025482Y-44029831D01*
X135173143Y-43950904D01*
X135173145Y-43950903D01*
X135253258Y-43926601D01*
X135333373Y-43902299D01*
X135458248Y-43890000D01*
X135541752Y-43890000D01*
X135666627Y-43902299D01*
X135666627Y-43902299D01*
G37*
G36*
X130566627Y-43902299D02*
G01*
X130646742Y-43926601D01*
X130726855Y-43950903D01*
X130726857Y-43950904D01*
X130874518Y-44029831D01*
X131003949Y-44136051D01*
X131110169Y-44265482D01*
X131189096Y-44413143D01*
X131237701Y-44573373D01*
X131254112Y-44740000D01*
X131237701Y-44906627D01*
X131237700Y-44906629D01*
X131200328Y-45029832D01*
X131189096Y-45066857D01*
X131110169Y-45214518D01*
X131003949Y-45343949D01*
X130874518Y-45450169D01*
X130726857Y-45529096D01*
X130726855Y-45529097D01*
X130646742Y-45553399D01*
X130566627Y-45577701D01*
X130441752Y-45590000D01*
X130358248Y-45590000D01*
X130233373Y-45577701D01*
X130153258Y-45553398D01*
X130073145Y-45529097D01*
X130073143Y-45529096D01*
X129925482Y-45450169D01*
X129796051Y-45343949D01*
X129689831Y-45214518D01*
X129610904Y-45066857D01*
X129599673Y-45029832D01*
X129562300Y-44906629D01*
X129562299Y-44906627D01*
X129545888Y-44740000D01*
X129562299Y-44573373D01*
X129610904Y-44413143D01*
X129689831Y-44265482D01*
X129796051Y-44136051D01*
X129925482Y-44029831D01*
X130073143Y-43950904D01*
X130073145Y-43950903D01*
X130153258Y-43926601D01*
X130233373Y-43902299D01*
X130358248Y-43890000D01*
X130441752Y-43890000D01*
X130566627Y-43902299D01*
X130566627Y-43902299D01*
G37*
G36*
X108500000Y-45085000D02*
G01*
X106500000Y-45085000D01*
X106500000Y-44185000D01*
X108500000Y-44185000D01*
X108500000Y-45085000D01*
X108500000Y-45085000D01*
G37*
G36*
X125500000Y-45085000D02*
G01*
X123500000Y-45085000D01*
X123500000Y-44185000D01*
X125500000Y-44185000D01*
X125500000Y-45085000D01*
X125500000Y-45085000D01*
G37*
G36*
X102450000Y-44060000D02*
G01*
X100750000Y-44060000D01*
X100750000Y-42360000D01*
X102450000Y-42360000D01*
X102450000Y-44060000D01*
X102450000Y-44060000D01*
G37*
G36*
X104650000Y-44050000D02*
G01*
X102950000Y-44050000D01*
X102950000Y-42350000D01*
X104650000Y-42350000D01*
X104650000Y-44050000D01*
X104650000Y-44050000D01*
G37*
G36*
X125500000Y-43815000D02*
G01*
X123500000Y-43815000D01*
X123500000Y-42915000D01*
X125500000Y-42915000D01*
X125500000Y-43815000D01*
X125500000Y-43815000D01*
G37*
G36*
X108500000Y-43815000D02*
G01*
X106500000Y-43815000D01*
X106500000Y-42915000D01*
X108500000Y-42915000D01*
X108500000Y-43815000D01*
X108500000Y-43815000D01*
G37*
G36*
X135666627Y-41362299D02*
G01*
X135746742Y-41386601D01*
X135826855Y-41410903D01*
X135826857Y-41410904D01*
X135974518Y-41489831D01*
X136103949Y-41596051D01*
X136210169Y-41725482D01*
X136289096Y-41873143D01*
X136337701Y-42033373D01*
X136354112Y-42200000D01*
X136337701Y-42366627D01*
X136289096Y-42526857D01*
X136210169Y-42674518D01*
X136103949Y-42803949D01*
X135974518Y-42910169D01*
X135826857Y-42989096D01*
X135826855Y-42989097D01*
X135746742Y-43013399D01*
X135666627Y-43037701D01*
X135541752Y-43050000D01*
X135458248Y-43050000D01*
X135333373Y-43037701D01*
X135253258Y-43013399D01*
X135173145Y-42989097D01*
X135173143Y-42989096D01*
X135025482Y-42910169D01*
X134896051Y-42803949D01*
X134789831Y-42674518D01*
X134710904Y-42526857D01*
X134662299Y-42366627D01*
X134645888Y-42200000D01*
X134662299Y-42033373D01*
X134710904Y-41873143D01*
X134789831Y-41725482D01*
X134896051Y-41596051D01*
X135025482Y-41489831D01*
X135173143Y-41410904D01*
X135173145Y-41410903D01*
X135253258Y-41386601D01*
X135333373Y-41362299D01*
X135458248Y-41350000D01*
X135541752Y-41350000D01*
X135666627Y-41362299D01*
X135666627Y-41362299D01*
G37*
G36*
X129050000Y-43050000D02*
G01*
X127350000Y-43050000D01*
X127350000Y-41350000D01*
X129050000Y-41350000D01*
X129050000Y-43050000D01*
X129050000Y-43050000D01*
G37*
G36*
X96666627Y-41362299D02*
G01*
X96746742Y-41386601D01*
X96826855Y-41410903D01*
X96826857Y-41410904D01*
X96974518Y-41489831D01*
X97103949Y-41596051D01*
X97210169Y-41725482D01*
X97289096Y-41873143D01*
X97337701Y-42033373D01*
X97354112Y-42200000D01*
X97337701Y-42366627D01*
X97289096Y-42526857D01*
X97210169Y-42674518D01*
X97103949Y-42803949D01*
X96974518Y-42910169D01*
X96826857Y-42989096D01*
X96826855Y-42989097D01*
X96746742Y-43013399D01*
X96666627Y-43037701D01*
X96541752Y-43050000D01*
X96458248Y-43050000D01*
X96333373Y-43037701D01*
X96253258Y-43013399D01*
X96173145Y-42989097D01*
X96173143Y-42989096D01*
X96025482Y-42910169D01*
X95896051Y-42803949D01*
X95789831Y-42674518D01*
X95710904Y-42526857D01*
X95662299Y-42366627D01*
X95645888Y-42200000D01*
X95662299Y-42033373D01*
X95710904Y-41873143D01*
X95789831Y-41725482D01*
X95896051Y-41596051D01*
X96025482Y-41489831D01*
X96173143Y-41410904D01*
X96173145Y-41410903D01*
X96253258Y-41386601D01*
X96333373Y-41362299D01*
X96458248Y-41350000D01*
X96541752Y-41350000D01*
X96666627Y-41362299D01*
X96666627Y-41362299D01*
G37*
G36*
X131250000Y-43050000D02*
G01*
X129550000Y-43050000D01*
X129550000Y-41350000D01*
X131250000Y-41350000D01*
X131250000Y-43050000D01*
X131250000Y-43050000D01*
G37*
G36*
X125500000Y-42545000D02*
G01*
X123500000Y-42545000D01*
X123500000Y-41645000D01*
X125500000Y-41645000D01*
X125500000Y-42545000D01*
X125500000Y-42545000D01*
G37*
G36*
X108500000Y-42545000D02*
G01*
X106500000Y-42545000D01*
X106500000Y-41645000D01*
X108500000Y-41645000D01*
X108500000Y-42545000D01*
X108500000Y-42545000D01*
G37*
G36*
X108500000Y-41275000D02*
G01*
X106500000Y-41275000D01*
X106500000Y-40375000D01*
X108500000Y-40375000D01*
X108500000Y-41275000D01*
X108500000Y-41275000D01*
G37*
G36*
X125500000Y-41275000D02*
G01*
X123500000Y-41275000D01*
X123500000Y-40375000D01*
X125500000Y-40375000D01*
X125500000Y-41275000D01*
X125500000Y-41275000D01*
G37*
G36*
X96666627Y-38822299D02*
G01*
X96716896Y-38837548D01*
X96826855Y-38870903D01*
X96826857Y-38870904D01*
X96974518Y-38949831D01*
X97103949Y-39056051D01*
X97210169Y-39185482D01*
X97289096Y-39333143D01*
X97337701Y-39493373D01*
X97354112Y-39660000D01*
X97337701Y-39826627D01*
X97289096Y-39986857D01*
X97210169Y-40134518D01*
X97103949Y-40263949D01*
X96974518Y-40370169D01*
X96871937Y-40425000D01*
X96826855Y-40449097D01*
X96746742Y-40473399D01*
X96666627Y-40497701D01*
X96541752Y-40510000D01*
X96458248Y-40510000D01*
X96333373Y-40497701D01*
X96253258Y-40473399D01*
X96173145Y-40449097D01*
X96128063Y-40425000D01*
X96025482Y-40370169D01*
X95896051Y-40263949D01*
X95789831Y-40134518D01*
X95710904Y-39986857D01*
X95662299Y-39826627D01*
X95645888Y-39660000D01*
X95662299Y-39493373D01*
X95710904Y-39333143D01*
X95789831Y-39185482D01*
X95896051Y-39056051D01*
X96025482Y-38949831D01*
X96173143Y-38870904D01*
X96173145Y-38870903D01*
X96283104Y-38837548D01*
X96333373Y-38822299D01*
X96458248Y-38810000D01*
X96541752Y-38810000D01*
X96666627Y-38822299D01*
X96666627Y-38822299D01*
G37*
G36*
X135666627Y-38822299D02*
G01*
X135716896Y-38837548D01*
X135826855Y-38870903D01*
X135826857Y-38870904D01*
X135974518Y-38949831D01*
X136103949Y-39056051D01*
X136210169Y-39185482D01*
X136289096Y-39333143D01*
X136337701Y-39493373D01*
X136354112Y-39660000D01*
X136337701Y-39826627D01*
X136289096Y-39986857D01*
X136210169Y-40134518D01*
X136103949Y-40263949D01*
X135974518Y-40370169D01*
X135871937Y-40425000D01*
X135826855Y-40449097D01*
X135746742Y-40473398D01*
X135666627Y-40497701D01*
X135541752Y-40510000D01*
X135458248Y-40510000D01*
X135333373Y-40497701D01*
X135253258Y-40473399D01*
X135173145Y-40449097D01*
X135128063Y-40425000D01*
X135025482Y-40370169D01*
X134896051Y-40263949D01*
X134789831Y-40134518D01*
X134710904Y-39986857D01*
X134662299Y-39826627D01*
X134645888Y-39660000D01*
X134662299Y-39493373D01*
X134710904Y-39333143D01*
X134789831Y-39185482D01*
X134896051Y-39056051D01*
X135025482Y-38949831D01*
X135173143Y-38870904D01*
X135173145Y-38870903D01*
X135283104Y-38837548D01*
X135333373Y-38822299D01*
X135458248Y-38810000D01*
X135541752Y-38810000D01*
X135666627Y-38822299D01*
X135666627Y-38822299D01*
G37*
G36*
X104349116Y-39553595D02*
G01*
X104378311Y-39562452D01*
X104405223Y-39576837D01*
X104428808Y-39596192D01*
X104448163Y-39619777D01*
X104462548Y-39646689D01*
X104471405Y-39675884D01*
X104475000Y-39712390D01*
X104475000Y-40262610D01*
X104471405Y-40299116D01*
X104462548Y-40328311D01*
X104448163Y-40355223D01*
X104428808Y-40378808D01*
X104405223Y-40398163D01*
X104378311Y-40412548D01*
X104349116Y-40421405D01*
X104312610Y-40425000D01*
X103687390Y-40425000D01*
X103650884Y-40421405D01*
X103621689Y-40412548D01*
X103594777Y-40398163D01*
X103571192Y-40378808D01*
X103551837Y-40355223D01*
X103537452Y-40328311D01*
X103528595Y-40299116D01*
X103525000Y-40262610D01*
X103525000Y-39712390D01*
X103528595Y-39675884D01*
X103537452Y-39646689D01*
X103551837Y-39619777D01*
X103571192Y-39596192D01*
X103594777Y-39576837D01*
X103621689Y-39562452D01*
X103650884Y-39553595D01*
X103687390Y-39550000D01*
X104312610Y-39550000D01*
X104349116Y-39553595D01*
X104349116Y-39553595D01*
G37*
G36*
X125500000Y-40005000D02*
G01*
X123500000Y-40005000D01*
X123500000Y-39105000D01*
X125500000Y-39105000D01*
X125500000Y-40005000D01*
X125500000Y-40005000D01*
G37*
G36*
X108500000Y-40005000D02*
G01*
X106500000Y-40005000D01*
X106500000Y-39105000D01*
X108500000Y-39105000D01*
X108500000Y-40005000D01*
X108500000Y-40005000D01*
G37*
G36*
X104349116Y-37978595D02*
G01*
X104378311Y-37987452D01*
X104405223Y-38001837D01*
X104428808Y-38021192D01*
X104448163Y-38044777D01*
X104462548Y-38071689D01*
X104471405Y-38100884D01*
X104475000Y-38137390D01*
X104475000Y-38687610D01*
X104471405Y-38724116D01*
X104462548Y-38753311D01*
X104448163Y-38780223D01*
X104428808Y-38803808D01*
X104405223Y-38823163D01*
X104378311Y-38837548D01*
X104349116Y-38846405D01*
X104312610Y-38850000D01*
X103687390Y-38850000D01*
X103650884Y-38846405D01*
X103621689Y-38837548D01*
X103594777Y-38823163D01*
X103571192Y-38803808D01*
X103551837Y-38780223D01*
X103537452Y-38753311D01*
X103528595Y-38724116D01*
X103525000Y-38687610D01*
X103525000Y-38137390D01*
X103528595Y-38100884D01*
X103537452Y-38071689D01*
X103551837Y-38044777D01*
X103571192Y-38021192D01*
X103594777Y-38001837D01*
X103621689Y-37987452D01*
X103650884Y-37978595D01*
X103687390Y-37975000D01*
X104312610Y-37975000D01*
X104349116Y-37978595D01*
X104349116Y-37978595D01*
G37*
G36*
X108500000Y-38735000D02*
G01*
X106500000Y-38735000D01*
X106500000Y-37835000D01*
X108500000Y-37835000D01*
X108500000Y-38735000D01*
X108500000Y-38735000D01*
G37*
G36*
X125500000Y-38735000D02*
G01*
X123500000Y-38735000D01*
X123500000Y-37835000D01*
X125500000Y-37835000D01*
X125500000Y-38735000D01*
X125500000Y-38735000D01*
G37*
G36*
X131850000Y-38550000D02*
G01*
X130950000Y-38550000D01*
X130950000Y-37750000D01*
X131850000Y-37750000D01*
X131850000Y-38550000D01*
X131850000Y-38550000D01*
G37*
G36*
X96666627Y-36282299D02*
G01*
X96746742Y-36306601D01*
X96826855Y-36330903D01*
X96826857Y-36330904D01*
X96974518Y-36409831D01*
X97103949Y-36516051D01*
X97210169Y-36645482D01*
X97289096Y-36793143D01*
X97337701Y-36953373D01*
X97354112Y-37120000D01*
X97337701Y-37286627D01*
X97325217Y-37327781D01*
X97295727Y-37425000D01*
X97289096Y-37446857D01*
X97210169Y-37594518D01*
X97103949Y-37723949D01*
X96974518Y-37830169D01*
X96826857Y-37909096D01*
X96826855Y-37909097D01*
X96746742Y-37933399D01*
X96666627Y-37957701D01*
X96541752Y-37970000D01*
X96458248Y-37970000D01*
X96333373Y-37957701D01*
X96253258Y-37933399D01*
X96173145Y-37909097D01*
X96173143Y-37909096D01*
X96025482Y-37830169D01*
X95896051Y-37723949D01*
X95789831Y-37594518D01*
X95710904Y-37446857D01*
X95704274Y-37425000D01*
X95674783Y-37327781D01*
X95662299Y-37286627D01*
X95645888Y-37120000D01*
X95662299Y-36953373D01*
X95710904Y-36793143D01*
X95789831Y-36645482D01*
X95896051Y-36516051D01*
X96025482Y-36409831D01*
X96173143Y-36330904D01*
X96173145Y-36330903D01*
X96253258Y-36306601D01*
X96333373Y-36282299D01*
X96458248Y-36270000D01*
X96541752Y-36270000D01*
X96666627Y-36282299D01*
X96666627Y-36282299D01*
G37*
G36*
X135666627Y-36282299D02*
G01*
X135746742Y-36306601D01*
X135826855Y-36330903D01*
X135826857Y-36330904D01*
X135974518Y-36409831D01*
X136103949Y-36516051D01*
X136210169Y-36645482D01*
X136289096Y-36793143D01*
X136337701Y-36953373D01*
X136354112Y-37120000D01*
X136337701Y-37286627D01*
X136325217Y-37327781D01*
X136295727Y-37425000D01*
X136289096Y-37446857D01*
X136210169Y-37594518D01*
X136103949Y-37723949D01*
X135974518Y-37830169D01*
X135826857Y-37909096D01*
X135826855Y-37909097D01*
X135746742Y-37933399D01*
X135666627Y-37957701D01*
X135541752Y-37970000D01*
X135458248Y-37970000D01*
X135333373Y-37957701D01*
X135253258Y-37933399D01*
X135173145Y-37909097D01*
X135173143Y-37909096D01*
X135025482Y-37830169D01*
X134896051Y-37723949D01*
X134789831Y-37594518D01*
X134710904Y-37446857D01*
X134704274Y-37425000D01*
X134674783Y-37327781D01*
X134662299Y-37286627D01*
X134645888Y-37120000D01*
X134662299Y-36953373D01*
X134710904Y-36793143D01*
X134789831Y-36645482D01*
X134896051Y-36516051D01*
X135025482Y-36409831D01*
X135173143Y-36330904D01*
X135173145Y-36330903D01*
X135253258Y-36306601D01*
X135333373Y-36282299D01*
X135458248Y-36270000D01*
X135541752Y-36270000D01*
X135666627Y-36282299D01*
X135666627Y-36282299D01*
G37*
G36*
X129850000Y-37600000D02*
G01*
X128950000Y-37600000D01*
X128950000Y-36800000D01*
X129850000Y-36800000D01*
X129850000Y-37600000D01*
X129850000Y-37600000D01*
G37*
G36*
X108500000Y-37465000D02*
G01*
X106500000Y-37465000D01*
X106500000Y-36565000D01*
X108500000Y-36565000D01*
X108500000Y-37465000D01*
X108500000Y-37465000D01*
G37*
G36*
X125500000Y-37465000D02*
G01*
X123500000Y-37465000D01*
X123500000Y-36565000D01*
X125500000Y-36565000D01*
X125500000Y-37465000D01*
X125500000Y-37465000D01*
G37*
G36*
X104349116Y-36553595D02*
G01*
X104378311Y-36562452D01*
X104405223Y-36576837D01*
X104428808Y-36596192D01*
X104448163Y-36619777D01*
X104462548Y-36646689D01*
X104471405Y-36675884D01*
X104475000Y-36712390D01*
X104475000Y-37262610D01*
X104471405Y-37299116D01*
X104462548Y-37328311D01*
X104448163Y-37355223D01*
X104428808Y-37378808D01*
X104405223Y-37398163D01*
X104378311Y-37412548D01*
X104349116Y-37421405D01*
X104312610Y-37425000D01*
X103687390Y-37425000D01*
X103650884Y-37421405D01*
X103621689Y-37412548D01*
X103594777Y-37398163D01*
X103571192Y-37378808D01*
X103551837Y-37355223D01*
X103537452Y-37328311D01*
X103528595Y-37299116D01*
X103525000Y-37262610D01*
X103525000Y-36712390D01*
X103528595Y-36675884D01*
X103537452Y-36646689D01*
X103551837Y-36619777D01*
X103571192Y-36596192D01*
X103594777Y-36576837D01*
X103621689Y-36562452D01*
X103650884Y-36553595D01*
X103687390Y-36550000D01*
X104312610Y-36550000D01*
X104349116Y-36553595D01*
X104349116Y-36553595D01*
G37*
G36*
X131850000Y-36650000D02*
G01*
X130950000Y-36650000D01*
X130950000Y-35850000D01*
X131850000Y-35850000D01*
X131850000Y-36650000D01*
X131850000Y-36650000D01*
G37*
G36*
X108500000Y-36195000D02*
G01*
X106500000Y-36195000D01*
X106500000Y-35295000D01*
X108500000Y-35295000D01*
X108500000Y-36195000D01*
X108500000Y-36195000D01*
G37*
G36*
X125500000Y-36195000D02*
G01*
X123500000Y-36195000D01*
X123500000Y-35295000D01*
X125500000Y-35295000D01*
X125500000Y-36195000D01*
X125500000Y-36195000D01*
G37*
G36*
X104349116Y-34978595D02*
G01*
X104378311Y-34987452D01*
X104405223Y-35001837D01*
X104428808Y-35021192D01*
X104448163Y-35044777D01*
X104462548Y-35071689D01*
X104471405Y-35100884D01*
X104475000Y-35137390D01*
X104475000Y-35687610D01*
X104471405Y-35724116D01*
X104462548Y-35753311D01*
X104448163Y-35780223D01*
X104428808Y-35803808D01*
X104405223Y-35823163D01*
X104378311Y-35837548D01*
X104349116Y-35846405D01*
X104312610Y-35850000D01*
X103687390Y-35850000D01*
X103650884Y-35846405D01*
X103621689Y-35837548D01*
X103594777Y-35823163D01*
X103571192Y-35803808D01*
X103551837Y-35780223D01*
X103537452Y-35753311D01*
X103528595Y-35724116D01*
X103525000Y-35687610D01*
X103525000Y-35137390D01*
X103528595Y-35100884D01*
X103537452Y-35071689D01*
X103551837Y-35044777D01*
X103571192Y-35021192D01*
X103594777Y-35001837D01*
X103621689Y-34987452D01*
X103650884Y-34978595D01*
X103687390Y-34975000D01*
X104312610Y-34975000D01*
X104349116Y-34978595D01*
X104349116Y-34978595D01*
G37*
G36*
X96666627Y-33742299D02*
G01*
X96746742Y-33766601D01*
X96826855Y-33790903D01*
X96826857Y-33790904D01*
X96974518Y-33869831D01*
X97103949Y-33976051D01*
X97210169Y-34105482D01*
X97289096Y-34253143D01*
X97337701Y-34413373D01*
X97354112Y-34580000D01*
X97337701Y-34746627D01*
X97337700Y-34746629D01*
X97296046Y-34883948D01*
X97289096Y-34906857D01*
X97210169Y-35054518D01*
X97103949Y-35183949D01*
X96974518Y-35290169D01*
X96862583Y-35350000D01*
X96826855Y-35369097D01*
X96746742Y-35393398D01*
X96666627Y-35417701D01*
X96541752Y-35430000D01*
X96458248Y-35430000D01*
X96333373Y-35417701D01*
X96253258Y-35393399D01*
X96173145Y-35369097D01*
X96137417Y-35350000D01*
X96025482Y-35290169D01*
X95896051Y-35183949D01*
X95789831Y-35054518D01*
X95710904Y-34906857D01*
X95703955Y-34883948D01*
X95662300Y-34746629D01*
X95662299Y-34746627D01*
X95645888Y-34580000D01*
X95662299Y-34413373D01*
X95710904Y-34253143D01*
X95789831Y-34105482D01*
X95896051Y-33976051D01*
X96025482Y-33869831D01*
X96173143Y-33790904D01*
X96173145Y-33790903D01*
X96253258Y-33766602D01*
X96333373Y-33742299D01*
X96458248Y-33730000D01*
X96541752Y-33730000D01*
X96666627Y-33742299D01*
X96666627Y-33742299D01*
G37*
G36*
X135666627Y-33742299D02*
G01*
X135746742Y-33766601D01*
X135826855Y-33790903D01*
X135826857Y-33790904D01*
X135974518Y-33869831D01*
X136103949Y-33976051D01*
X136210169Y-34105482D01*
X136289096Y-34253143D01*
X136337701Y-34413373D01*
X136354112Y-34580000D01*
X136337701Y-34746627D01*
X136337700Y-34746629D01*
X136296046Y-34883948D01*
X136289096Y-34906857D01*
X136210169Y-35054518D01*
X136103949Y-35183949D01*
X135974518Y-35290169D01*
X135862583Y-35350000D01*
X135826855Y-35369097D01*
X135746742Y-35393398D01*
X135666627Y-35417701D01*
X135541752Y-35430000D01*
X135458248Y-35430000D01*
X135333373Y-35417701D01*
X135253258Y-35393399D01*
X135173145Y-35369097D01*
X135137417Y-35350000D01*
X135025482Y-35290169D01*
X134896051Y-35183949D01*
X134789831Y-35054518D01*
X134710904Y-34906857D01*
X134703955Y-34883948D01*
X134662300Y-34746629D01*
X134662299Y-34746627D01*
X134645888Y-34580000D01*
X134662299Y-34413373D01*
X134710904Y-34253143D01*
X134789831Y-34105482D01*
X134896051Y-33976051D01*
X135025482Y-33869831D01*
X135173143Y-33790904D01*
X135173145Y-33790903D01*
X135253258Y-33766602D01*
X135333373Y-33742299D01*
X135458248Y-33730000D01*
X135541752Y-33730000D01*
X135666627Y-33742299D01*
X135666627Y-33742299D01*
G37*
G36*
X131850000Y-35350000D02*
G01*
X130950000Y-35350000D01*
X130950000Y-34550000D01*
X131850000Y-34550000D01*
X131850000Y-35350000D01*
X131850000Y-35350000D01*
G37*
G36*
X127766627Y-33442299D02*
G01*
X127846742Y-33466602D01*
X127926855Y-33490903D01*
X127926857Y-33490904D01*
X128074518Y-33569831D01*
X128203949Y-33676051D01*
X128258317Y-33742300D01*
X128310168Y-33805481D01*
X128389097Y-33953145D01*
X128413399Y-34033258D01*
X128437701Y-34113373D01*
X128454112Y-34280000D01*
X128437701Y-34446627D01*
X128389096Y-34606857D01*
X128310169Y-34754518D01*
X128203949Y-34883949D01*
X128074518Y-34990169D01*
X128016478Y-35021192D01*
X127926855Y-35069097D01*
X127846742Y-35093399D01*
X127766627Y-35117701D01*
X127641752Y-35130000D01*
X127558248Y-35130000D01*
X127433373Y-35117701D01*
X127353258Y-35093399D01*
X127273145Y-35069097D01*
X127183522Y-35021192D01*
X127125482Y-34990169D01*
X126996051Y-34883949D01*
X126889831Y-34754518D01*
X126810904Y-34606857D01*
X126762299Y-34446627D01*
X126745888Y-34280000D01*
X126762299Y-34113373D01*
X126786602Y-34033258D01*
X126810903Y-33953145D01*
X126889832Y-33805481D01*
X126941683Y-33742300D01*
X126996051Y-33676051D01*
X127125482Y-33569831D01*
X127273143Y-33490904D01*
X127273145Y-33490903D01*
X127353258Y-33466601D01*
X127433373Y-33442299D01*
X127558248Y-33430000D01*
X127641752Y-33430000D01*
X127766627Y-33442299D01*
X127766627Y-33442299D01*
G37*
G36*
X129850000Y-34400000D02*
G01*
X128950000Y-34400000D01*
X128950000Y-33600000D01*
X129850000Y-33600000D01*
X129850000Y-34400000D01*
X129850000Y-34400000D01*
G37*
G36*
X131850000Y-33450000D02*
G01*
X130950000Y-33450000D01*
X130950000Y-32650000D01*
X131850000Y-32650000D01*
X131850000Y-33450000D01*
X131850000Y-33450000D01*
G37*
G36*
X135666627Y-31202299D02*
G01*
X135746742Y-31226601D01*
X135826855Y-31250903D01*
X135826857Y-31250904D01*
X135974518Y-31329831D01*
X136103949Y-31436051D01*
X136210169Y-31565482D01*
X136289096Y-31713143D01*
X136337701Y-31873373D01*
X136354112Y-32040000D01*
X136337701Y-32206627D01*
X136337700Y-32206629D01*
X136296046Y-32343948D01*
X136289096Y-32366857D01*
X136210169Y-32514518D01*
X136103949Y-32643949D01*
X135974518Y-32750169D01*
X135826857Y-32829096D01*
X135826855Y-32829097D01*
X135746742Y-32853399D01*
X135666627Y-32877701D01*
X135541752Y-32890000D01*
X135458248Y-32890000D01*
X135333373Y-32877701D01*
X135253258Y-32853399D01*
X135173145Y-32829097D01*
X135173143Y-32829096D01*
X135025482Y-32750169D01*
X134896051Y-32643949D01*
X134789831Y-32514518D01*
X134710904Y-32366857D01*
X134703955Y-32343948D01*
X134662300Y-32206629D01*
X134662299Y-32206627D01*
X134645888Y-32040000D01*
X134662299Y-31873373D01*
X134710904Y-31713143D01*
X134789831Y-31565482D01*
X134896051Y-31436051D01*
X135025482Y-31329831D01*
X135173143Y-31250904D01*
X135173145Y-31250903D01*
X135253258Y-31226601D01*
X135333373Y-31202299D01*
X135458248Y-31190000D01*
X135541752Y-31190000D01*
X135666627Y-31202299D01*
X135666627Y-31202299D01*
G37*
G36*
X96666627Y-31202299D02*
G01*
X96746742Y-31226601D01*
X96826855Y-31250903D01*
X96826857Y-31250904D01*
X96974518Y-31329831D01*
X97103949Y-31436051D01*
X97210169Y-31565482D01*
X97289096Y-31713143D01*
X97337701Y-31873373D01*
X97354112Y-32040000D01*
X97337701Y-32206627D01*
X97337700Y-32206629D01*
X97296046Y-32343948D01*
X97289096Y-32366857D01*
X97210169Y-32514518D01*
X97103949Y-32643949D01*
X96974518Y-32750169D01*
X96826857Y-32829096D01*
X96826855Y-32829097D01*
X96746742Y-32853399D01*
X96666627Y-32877701D01*
X96541752Y-32890000D01*
X96458248Y-32890000D01*
X96333373Y-32877701D01*
X96253258Y-32853399D01*
X96173145Y-32829097D01*
X96173143Y-32829096D01*
X96025482Y-32750169D01*
X95896051Y-32643949D01*
X95789831Y-32514518D01*
X95710904Y-32366857D01*
X95703955Y-32343948D01*
X95662300Y-32206629D01*
X95662299Y-32206627D01*
X95645888Y-32040000D01*
X95662299Y-31873373D01*
X95710904Y-31713143D01*
X95789831Y-31565482D01*
X95896051Y-31436051D01*
X96025482Y-31329831D01*
X96173143Y-31250904D01*
X96173145Y-31250903D01*
X96253258Y-31226601D01*
X96333373Y-31202299D01*
X96458248Y-31190000D01*
X96541752Y-31190000D01*
X96666627Y-31202299D01*
X96666627Y-31202299D01*
G37*
G36*
X127766627Y-30902299D02*
G01*
X127846742Y-30926602D01*
X127926855Y-30950903D01*
X127926857Y-30950904D01*
X128074518Y-31029831D01*
X128203949Y-31136051D01*
X128258317Y-31202300D01*
X128310168Y-31265481D01*
X128389097Y-31413145D01*
X128413398Y-31493258D01*
X128437701Y-31573373D01*
X128454112Y-31740000D01*
X128437701Y-31906627D01*
X128389096Y-32066857D01*
X128310169Y-32214518D01*
X128203949Y-32343949D01*
X128074518Y-32450169D01*
X127954130Y-32514518D01*
X127926855Y-32529097D01*
X127846742Y-32553399D01*
X127766627Y-32577701D01*
X127641752Y-32590000D01*
X127558248Y-32590000D01*
X127433373Y-32577701D01*
X127353258Y-32553399D01*
X127273145Y-32529097D01*
X127245870Y-32514518D01*
X127125482Y-32450169D01*
X126996051Y-32343949D01*
X126889831Y-32214518D01*
X126810904Y-32066857D01*
X126762299Y-31906627D01*
X126745888Y-31740000D01*
X126762299Y-31573373D01*
X126786601Y-31493258D01*
X126810903Y-31413145D01*
X126889832Y-31265481D01*
X126941683Y-31202300D01*
X126996051Y-31136051D01*
X127125482Y-31029831D01*
X127273143Y-30950904D01*
X127273145Y-30950903D01*
X127353258Y-30926601D01*
X127433373Y-30902299D01*
X127558248Y-30890000D01*
X127641752Y-30890000D01*
X127766627Y-30902299D01*
X127766627Y-30902299D01*
G37*
G36*
X131850000Y-32150000D02*
G01*
X130950000Y-32150000D01*
X130950000Y-31350000D01*
X131850000Y-31350000D01*
X131850000Y-32150000D01*
X131850000Y-32150000D01*
G37*
G36*
X129850000Y-31200000D02*
G01*
X128950000Y-31200000D01*
X128950000Y-30400000D01*
X129850000Y-30400000D01*
X129850000Y-31200000D01*
X129850000Y-31200000D01*
G37*
G36*
X136350000Y-30350000D02*
G01*
X134650000Y-30350000D01*
X134650000Y-28650000D01*
X136350000Y-28650000D01*
X136350000Y-30350000D01*
X136350000Y-30350000D01*
G37*
G36*
X97350000Y-30350000D02*
G01*
X95650000Y-30350000D01*
X95650000Y-28650000D01*
X97350000Y-28650000D01*
X97350000Y-30350000D01*
X97350000Y-30350000D01*
G37*
G36*
X131850000Y-30250000D02*
G01*
X130950000Y-30250000D01*
X130950000Y-29450000D01*
X131850000Y-29450000D01*
X131850000Y-30250000D01*
X131850000Y-30250000D01*
G37*
G36*
X128450000Y-30050000D02*
G01*
X126750000Y-30050000D01*
X126750000Y-28350000D01*
X128450000Y-28350000D01*
X128450000Y-30050000D01*
X128450000Y-30050000D01*
G37*
M02*
