G04 #@! TF.GenerationSoftware,KiCad,Pcbnew,(5.1.9)-1*
G04 #@! TF.CreationDate,2021-03-03T09:56:08+01:00*
G04 #@! TF.ProjectId,bobbycar,626f6262-7963-4617-922e-6b696361645f,rev?*
G04 #@! TF.SameCoordinates,Original*
G04 #@! TF.FileFunction,Soldermask,Bot*
G04 #@! TF.FilePolarity,Negative*
%FSLAX46Y46*%
G04 Gerber Fmt 4.6, Leading zero omitted, Abs format (unit mm)*
G04 Created by KiCad (PCBNEW (5.1.9)-1) date 2021-03-03 09:56:08*
%MOMM*%
%LPD*%
G01*
G04 APERTURE LIST*
%ADD10C,0.100000*%
%ADD11O,0.800000X1.300000*%
%ADD12O,1.700000X1.700000*%
%ADD13R,1.700000X1.700000*%
G04 APERTURE END LIST*
D10*
G36*
X117400000Y-45800000D02*
G01*
X112400000Y-45800000D01*
X112400000Y-41000000D01*
X117400000Y-41000000D01*
X117400000Y-45800000D01*
G37*
X117400000Y-45800000D02*
X112400000Y-45800000D01*
X112400000Y-41000000D01*
X117400000Y-41000000D01*
X117400000Y-45800000D01*
G36*
X117400000Y-45800000D02*
G01*
X112400000Y-45800000D01*
X112400000Y-41000000D01*
X117400000Y-41000000D01*
X117400000Y-45800000D01*
G37*
X117400000Y-45800000D02*
X112400000Y-45800000D01*
X112400000Y-41000000D01*
X117400000Y-41000000D01*
X117400000Y-45800000D01*
D11*
X134560000Y-59690000D03*
X133310000Y-59690000D03*
X132060000Y-59690000D03*
G36*
G01*
X130410000Y-60140000D02*
X130410000Y-59240000D01*
G75*
G02*
X130610000Y-59040000I200000J0D01*
G01*
X131010000Y-59040000D01*
G75*
G02*
X131210000Y-59240000I0J-200000D01*
G01*
X131210000Y-60140000D01*
G75*
G02*
X131010000Y-60340000I-200000J0D01*
G01*
X130610000Y-60340000D01*
G75*
G02*
X130410000Y-60140000I0J200000D01*
G01*
G37*
D12*
X126320000Y-57000000D03*
X123780000Y-57000000D03*
X121240000Y-57000000D03*
X118700000Y-57000000D03*
X116160000Y-57000000D03*
X113620000Y-57000000D03*
X111080000Y-57000000D03*
X108540000Y-57000000D03*
D13*
X106000000Y-57000000D03*
D12*
X109474000Y-70612000D03*
X109474000Y-68072000D03*
X109474000Y-65532000D03*
D13*
X109474000Y-62992000D03*
D12*
X97282000Y-46990000D03*
X97282000Y-44450000D03*
X97282000Y-41910000D03*
X97282000Y-39370000D03*
D13*
X97282000Y-36830000D03*
D12*
X113030000Y-70612000D03*
X113030000Y-68072000D03*
X113030000Y-65532000D03*
D13*
X113030000Y-62992000D03*
D12*
X116586000Y-70612000D03*
X116586000Y-68072000D03*
X116586000Y-65532000D03*
D13*
X116586000Y-62992000D03*
D12*
X103632000Y-48260000D03*
X103632000Y-45720000D03*
X103632000Y-43180000D03*
D13*
X103632000Y-40640000D03*
D12*
X101092000Y-48260000D03*
X101092000Y-45720000D03*
X101092000Y-43180000D03*
D13*
X101092000Y-40640000D03*
D12*
X103124000Y-68880000D03*
X103124000Y-66340000D03*
D13*
X103124000Y-63800000D03*
D12*
X106172000Y-68834000D03*
X106172000Y-66294000D03*
D13*
X106172000Y-63754000D03*
D12*
X97282000Y-51308000D03*
X97282000Y-53848000D03*
X97282000Y-56388000D03*
X97282000Y-58928000D03*
D13*
X97282000Y-61468000D03*
M02*
