M48
; DRILL file {KiCad (6.0.0)} date Sun Apr 17 18:44:49 2022
; FORMAT={-:-/ absolute / inch / decimal}
; #@! TF.CreationDate,2022-04-17T18:44:49+02:00
; #@! TF.GenerationSoftware,Kicad,Pcbnew,(6.0.0)
; #@! TF.FileFunction,Plated,1,2,PTH
FMAT,2
INCH
; #@! TA.AperFunction,Plated,PTH,ViaDrill
T1C0.0118
; #@! TA.AperFunction,Plated,PTH,ViaDrill
T2C0.0157
; #@! TA.AperFunction,Plated,PTH,ComponentDrill
T3C0.0374
; #@! TA.AperFunction,Plated,PTH,ComponentDrill
T4C0.0394
%
G90
G05
T1
X3.7618Y-2.439
X3.7697Y-2.565
X3.7795Y-1.9252
X3.7972Y-2.0492
X3.8346Y-1.7028
X3.8406Y-1.5276
X3.8445Y-1.3031
X3.8445Y-1.8228
X3.8701Y-2.2559
X3.8898Y-1.9685
X3.8918Y-2.1496
X3.9193Y-2.3031
X3.9193Y-2.3445
X3.9232Y-2.4035
X3.9272Y-2.5512
X3.9311Y-1.9311
X3.942Y-2.247
X3.9449Y-2.4921
X3.9488Y-1.3661
X3.9642Y-2.0229
X3.9783Y-2.3622
X3.9823Y-1.4311
X3.9823Y-1.5768
X3.9862Y-2.1535
X3.9921Y-2.0459
X3.999Y-1.5031
X4.0337Y-1.3051
X4.0472Y-1.4685
X4.0728Y-1.5256
X4.0817Y-1.8051
X4.0906Y-2.1476
X4.0984Y-2.185
X4.1024Y-2.5354
X4.1043Y-2.3839
X4.1044Y-1.9259
X4.1112Y-1.499
X4.126Y-1.9754
X4.1476Y-1.9449
X4.1525Y-1.819
X4.1536Y-2.3136
X4.1654Y-2.502
X4.1693Y-2.4075
X4.1713Y-1.5571
X4.1752Y-1.4961
X4.1796Y-2.7663
X4.1813Y-1.371
X4.1825Y-2.0951
X4.2146Y-2.1772
X4.2205Y-2.5
X4.2328Y-2.1018
X4.2422Y-2.1667
X4.2441Y-2.3268
X4.2555Y-2.6984
X4.2736Y-2.1732
X4.2855Y-1.8051
X4.2933Y-2.0256
X4.2953Y-1.872
X4.2972Y-1.9173
X4.2992Y-1.5846
X4.2992Y-2.1398
X4.3044Y-2.3287
X4.311Y-1.3681
X4.311Y-1.4075
X4.3307Y-2.6575
X4.3386Y-2.748
X4.3504Y-1.3681
X4.3504Y-1.4075
X4.3583Y-2.563
X4.3602Y-2.1752
X4.3661Y-1.9114
X4.372Y-1.5886
X4.374Y-1.8524
X4.376Y-1.6299
X4.3779Y-1.6594
X4.378Y-1.7283
X4.378Y-1.7933
X4.3858Y-1.4705
X4.3957Y-2.0276
X4.3976Y-2.4094
X4.4015Y-1.8838
X4.4016Y-2.5118
X4.4055Y-2.3051
X4.4134Y-2.6142
X4.4331Y-2.8346
X4.4453Y-1.8958
X4.4488Y-1.4606
X4.4508Y-1.5413
X4.4675Y-1.9705
X4.4685Y-1.3898
X4.4724Y-2.0256
X4.4823Y-2.5689
X4.4867Y-2.3361
X4.4882Y-2.1614
X4.4912Y-1.9035
X4.5Y-2.8071
X4.502Y-2.6437
X4.5236Y-1.8563
X4.5413Y-2.5138
X4.5551Y-1.4528
X4.5551Y-1.5433
X4.5846Y-2.0354
X4.5846Y-2.3307
X4.5886Y-2.8268
X4.5945Y-2.1614
X4.6122Y-2.5492
X4.6142Y-1.9094
X4.6299Y-1.3858
X4.6496Y-1.5374
X4.6516Y-1.4685
X4.6575Y-2.8189
X4.6811Y-1.8701
X4.687Y-2.1791
X4.6909Y-2.3307
X4.6929Y-2.6004
X4.6949Y-1.6535
X4.6982Y-1.7759
X4.7028Y-1.6083
X4.7067Y-2.0354
X4.7165Y-1.5177
X4.7205Y-2.2657
X4.7343Y-1.8248
X4.7421Y-2.8327
X4.7658Y-1.7742
X4.7697Y-2.3307
X4.7717Y-2.4094
X4.7795Y-2.689
X4.7835Y-1.3681
X4.7835Y-1.4075
X4.7835Y-1.9705
X4.7835Y-2.1811
X4.7953Y-2.0374
X4.7953Y-2.5197
X4.7972Y-1.5138
X4.8169Y-1.5551
X4.8169Y-1.9705
X4.822Y-1.396
X4.8228Y-1.3681
X4.8228Y-1.8819
X4.8287Y-1.7795
X4.8302Y-1.4602
X4.8307Y-2.0984
X4.8307Y-2.4764
X4.8661Y-2.1575
X4.878Y-2.4252
X4.8858Y-2.1063
X4.8996Y-2.7224
X4.9488Y-2.3012
X4.9553Y-2.1555
X4.9662Y-1.879
X4.9685Y-1.5748
X4.9685Y-1.8346
X4.9724Y-1.7795
X4.9724Y-1.9409
X4.9764Y-1.4724
X4.9783Y-1.3976
X4.9961Y-1.5374
X5.002Y-2.5591
X5.0039Y-1.9823
X5.0039Y-2.1654
X5.0138Y-1.9134
X5.015Y-2.0292
X5.0354Y-2.4311
X5.0394Y-2.35
X5.0419Y-2.0832
X5.0472Y-2.8504
X5.0551Y-1.4926
X5.0551Y-1.3681
X5.0593Y-1.792
X5.0709Y-2.2323
X5.0827Y-1.3976
X5.0944Y-1.8809
X5.0972Y-2.0819
X5.1083Y-2.189
X5.1201Y-1.8327
X5.124Y-1.9783
X5.1417Y-1.1614
X5.1437Y-2.435
X5.1476Y-1.5669
X5.1535Y-2.8583
X5.1634Y-1.8484
X5.1654Y-1.9764
X5.1811Y-2.3976
X5.1831Y-2.2087
X5.1873Y-1.7581
X5.1875Y-1.2873
X5.1944Y-2.1714
X5.1949Y-1.7047
X5.2087Y-2.7244
X5.2323Y-2.437
X5.2402Y-2.8504
X5.2579Y-1.9803
X5.2726Y-2.1659
X5.2913Y-1.2874
X5.2972Y-1.7047
X5.314Y-2.1441
X5.3189Y-1.9055
X5.3228Y-2.8543
X5.3543Y-2.1969
X5.3681Y-2.1004
X5.3701Y-1.2047
X5.374Y-1.9173
X5.376Y-1.4075
X5.376Y-1.4961
X5.376Y-1.8051
X5.378Y-1.6024
X5.378Y-2.0
T2
X4.4488Y-1.626
X4.4498Y-1.6634
X4.4498Y-1.7028
X4.4498Y-1.7421
X4.4509Y-1.7794
X4.4882Y-1.626
X4.4882Y-1.6634
X4.4882Y-1.7028
X4.4882Y-1.7421
X4.4882Y-1.7815
X4.5276Y-1.626
X4.5276Y-1.6634
X4.5276Y-1.7028
X4.5276Y-1.7421
X4.5276Y-1.7815
X4.5669Y-1.626
X4.5669Y-1.6634
X4.5669Y-1.7028
X4.5669Y-1.7421
X4.5669Y-1.7815
X4.6063Y-1.626
X4.6063Y-1.6634
X4.6063Y-1.7028
X4.6063Y-1.7421
X4.6063Y-1.7815
T3
X3.8386Y-2.0079
X3.8386Y-2.1063
X3.8386Y-2.2047
X3.8386Y-2.3031
X3.8386Y-2.4016
X3.8386Y-2.5
X4.4193Y-2.7313
X4.4882Y-2.436
X4.5177Y-2.7313
X4.5866Y-2.436
X4.6161Y-2.7313
X4.685Y-2.436
X4.7146Y-2.7313
T4
X3.7878Y-2.6382
X3.7878Y-2.7382
X3.7878Y-2.8382
X3.7913Y-1.1535
X3.7913Y-1.2535
X3.7913Y-1.3535
X3.7913Y-1.4535
X3.7913Y-1.5535
X3.7913Y-1.6535
X3.7913Y-1.7535
X3.7913Y-1.8535
X3.8878Y-2.6382
X3.8878Y-2.7382
X3.8878Y-2.8382
X3.8913Y-1.1535
X3.8913Y-1.2535
X3.8913Y-1.3535
X3.8913Y-1.4535
X3.8913Y-1.5535
X3.8913Y-1.6535
X3.8913Y-1.7535
X3.8913Y-1.8535
X3.9878Y-2.6388
X3.9878Y-2.7388
X3.9878Y-2.8388
X4.0276Y-2.002
X4.0276Y-2.102
X4.0276Y-2.202
X4.0276Y-2.302
X4.0276Y-2.402
X4.0276Y-2.502
X4.0878Y-2.6388
X4.0878Y-2.7388
X4.0878Y-2.8388
X4.1673Y-2.2441
X4.2673Y-2.2441
X4.3673Y-2.2441
X4.4673Y-2.2441
X4.5673Y-2.2441
X4.6673Y-2.2441
X4.7673Y-2.2441
X4.8673Y-2.2441
X4.9673Y-2.2441
X5.2421Y-1.1535
X5.2421Y-1.2535
X5.2421Y-1.3535
X5.2421Y-1.4535
X5.2421Y-1.5535
X5.2421Y-1.6535
X5.2421Y-1.7535
X5.2421Y-1.8535
X5.3421Y-1.1535
X5.3421Y-1.2535
X5.3421Y-1.3535
X5.3421Y-1.4535
X5.3421Y-1.5535
X5.3421Y-1.6535
X5.3421Y-1.7535
X5.3421Y-1.8535
T0
M30
