G04 #@! TF.GenerationSoftware,KiCad,Pcbnew,(6.0.0)*
G04 #@! TF.CreationDate,2022-04-17T18:44:47+02:00*
G04 #@! TF.ProjectId,bobbycar,626f6262-7963-4617-922e-6b696361645f,rev?*
G04 #@! TF.SameCoordinates,Original*
G04 #@! TF.FileFunction,Soldermask,Top*
G04 #@! TF.FilePolarity,Negative*
%FSLAX46Y46*%
G04 Gerber Fmt 4.6, Leading zero omitted, Abs format (unit mm)*
G04 Created by KiCad (PCBNEW (6.0.0)) date 2022-04-17 18:44:47*
%MOMM*%
%LPD*%
G01*
G04 APERTURE LIST*
G04 Aperture macros list*
%AMRoundRect*
0 Rectangle with rounded corners*
0 $1 Rounding radius*
0 $2 $3 $4 $5 $6 $7 $8 $9 X,Y pos of 4 corners*
0 Add a 4 corners polygon primitive as box body*
4,1,4,$2,$3,$4,$5,$6,$7,$8,$9,$2,$3,0*
0 Add four circle primitives for the rounded corners*
1,1,$1+$1,$2,$3*
1,1,$1+$1,$4,$5*
1,1,$1+$1,$6,$7*
1,1,$1+$1,$8,$9*
0 Add four rect primitives between the rounded corners*
20,1,$1+$1,$2,$3,$4,$5,0*
20,1,$1+$1,$4,$5,$6,$7,0*
20,1,$1+$1,$6,$7,$8,$9,0*
20,1,$1+$1,$8,$9,$2,$3,0*%
G04 Aperture macros list end*
%ADD10R,1.200000X0.900000*%
%ADD11RoundRect,0.200000X-0.275000X0.200000X-0.275000X-0.200000X0.275000X-0.200000X0.275000X0.200000X0*%
%ADD12RoundRect,0.250000X0.450000X-0.262500X0.450000X0.262500X-0.450000X0.262500X-0.450000X-0.262500X0*%
%ADD13RoundRect,0.150000X-0.512500X-0.150000X0.512500X-0.150000X0.512500X0.150000X-0.512500X0.150000X0*%
%ADD14RoundRect,0.218750X-0.256250X0.218750X-0.256250X-0.218750X0.256250X-0.218750X0.256250X0.218750X0*%
%ADD15RoundRect,0.250000X0.725000X-0.600000X0.725000X0.600000X-0.725000X0.600000X-0.725000X-0.600000X0*%
%ADD16O,1.950000X1.700000*%
%ADD17R,1.700000X1.700000*%
%ADD18O,1.700000X1.700000*%
%ADD19RoundRect,0.218750X0.256250X-0.218750X0.256250X0.218750X-0.256250X0.218750X-0.256250X-0.218750X0*%
%ADD20RoundRect,0.225000X-0.250000X0.225000X-0.250000X-0.225000X0.250000X-0.225000X0.250000X0.225000X0*%
%ADD21R,0.800000X0.900000*%
%ADD22RoundRect,0.200000X0.275000X-0.200000X0.275000X0.200000X-0.275000X0.200000X-0.275000X-0.200000X0*%
%ADD23RoundRect,0.250000X-0.600000X-0.725000X0.600000X-0.725000X0.600000X0.725000X-0.600000X0.725000X0*%
%ADD24O,1.700000X1.950000*%
%ADD25R,2.000000X0.900000*%
%ADD26R,0.900000X2.000000*%
%ADD27R,5.000000X5.000000*%
%ADD28RoundRect,0.218750X0.218750X0.256250X-0.218750X0.256250X-0.218750X-0.256250X0.218750X-0.256250X0*%
%ADD29R,0.900000X0.800000*%
%ADD30RoundRect,0.250000X0.475000X-0.250000X0.475000X0.250000X-0.475000X0.250000X-0.475000X-0.250000X0*%
%ADD31R,2.500000X1.800000*%
%ADD32R,1.800000X4.200000*%
%ADD33RoundRect,0.200000X-0.200000X-0.275000X0.200000X-0.275000X0.200000X0.275000X-0.200000X0.275000X0*%
%ADD34R,1.060000X0.650000*%
%ADD35RoundRect,0.150000X-0.150000X0.825000X-0.150000X-0.825000X0.150000X-0.825000X0.150000X0.825000X0*%
%ADD36R,1.800000X2.500000*%
%ADD37RoundRect,0.225000X0.250000X-0.225000X0.250000X0.225000X-0.250000X0.225000X-0.250000X-0.225000X0*%
%ADD38RoundRect,0.150000X0.150000X-0.512500X0.150000X0.512500X-0.150000X0.512500X-0.150000X-0.512500X0*%
%ADD39RoundRect,0.150000X-0.587500X-0.150000X0.587500X-0.150000X0.587500X0.150000X-0.587500X0.150000X0*%
%ADD40RoundRect,0.200000X0.200000X0.275000X-0.200000X0.275000X-0.200000X-0.275000X0.200000X-0.275000X0*%
%ADD41RoundRect,0.150000X0.587500X0.150000X-0.587500X0.150000X-0.587500X-0.150000X0.587500X-0.150000X0*%
%ADD42RoundRect,0.225000X-0.225000X-0.250000X0.225000X-0.250000X0.225000X0.250000X-0.225000X0.250000X0*%
G04 APERTURE END LIST*
D10*
X128450000Y-54700000D03*
X128450000Y-58000000D03*
D11*
X135350000Y-49425000D03*
X135350000Y-51075000D03*
D12*
X133300000Y-51162500D03*
X133300000Y-49337500D03*
D13*
X128812500Y-49250000D03*
X128812500Y-50200000D03*
X128812500Y-51150000D03*
X131087500Y-51150000D03*
X131087500Y-49250000D03*
D14*
X105156000Y-35788500D03*
X105156000Y-37363500D03*
D15*
X97500000Y-63500000D03*
D16*
X97500000Y-61000000D03*
X97500000Y-58500000D03*
X97500000Y-56000000D03*
X97500000Y-53500000D03*
X97500000Y-51000000D03*
D17*
X105850000Y-57000000D03*
D18*
X108390000Y-57000000D03*
X110930000Y-57000000D03*
X113470000Y-57000000D03*
X116010000Y-57000000D03*
X118550000Y-57000000D03*
X121090000Y-57000000D03*
X123630000Y-57000000D03*
X126170000Y-57000000D03*
D17*
X96210000Y-67010000D03*
D18*
X96210000Y-69550000D03*
X96210000Y-72090000D03*
D17*
X98750000Y-67010000D03*
D18*
X98750000Y-69550000D03*
X98750000Y-72090000D03*
D14*
X107150000Y-67564500D03*
X107150000Y-69139500D03*
D19*
X107150000Y-72187500D03*
X107150000Y-70612500D03*
D14*
X105626000Y-70612500D03*
X105626000Y-72187500D03*
D19*
X105626000Y-69139500D03*
X105626000Y-67564500D03*
X105150000Y-40387500D03*
X105150000Y-38812500D03*
X104800000Y-52637500D03*
X104800000Y-51062500D03*
D20*
X136055000Y-57425000D03*
X136055000Y-58975000D03*
X135805000Y-62022000D03*
X135805000Y-60472000D03*
D21*
X132691000Y-60247000D03*
X130791000Y-60247000D03*
X131741000Y-62247000D03*
D22*
X134255000Y-60422000D03*
X134255000Y-62072000D03*
D11*
X129201000Y-60422000D03*
X129201000Y-62072000D03*
D23*
X112250000Y-69375000D03*
D24*
X114750000Y-69375000D03*
X117250000Y-69375000D03*
X119750000Y-69375000D03*
D11*
X108674000Y-70575000D03*
X108674000Y-72225000D03*
D22*
X108674000Y-69177000D03*
X108674000Y-67527000D03*
D25*
X107500000Y-35745000D03*
X107500000Y-37015000D03*
X107500000Y-38285000D03*
X107500000Y-39555000D03*
X107500000Y-40825000D03*
X107500000Y-42095000D03*
X107500000Y-43365000D03*
X107500000Y-44635000D03*
X107500000Y-45905000D03*
X107500000Y-47175000D03*
X107500000Y-48445000D03*
X107500000Y-49715000D03*
X107500000Y-50985000D03*
X107500000Y-52255000D03*
D26*
X110285000Y-53255000D03*
X111555000Y-53255000D03*
X112825000Y-53255000D03*
X114095000Y-53255000D03*
X115365000Y-53255000D03*
X116635000Y-53255000D03*
X117905000Y-53255000D03*
X119175000Y-53255000D03*
X120445000Y-53255000D03*
X121715000Y-53255000D03*
D25*
X124500000Y-52255000D03*
X124500000Y-50985000D03*
X124500000Y-49715000D03*
X124500000Y-48445000D03*
X124500000Y-47175000D03*
X124500000Y-45905000D03*
X124500000Y-44635000D03*
X124500000Y-43365000D03*
X124500000Y-42095000D03*
X124500000Y-40825000D03*
X124500000Y-39555000D03*
X124500000Y-38285000D03*
X124500000Y-37015000D03*
X124500000Y-35745000D03*
D27*
X115000000Y-43245000D03*
D28*
X106387500Y-54200000D03*
X104812500Y-54200000D03*
D14*
X126550000Y-52412500D03*
X126550000Y-53987500D03*
D29*
X124850000Y-61500000D03*
X124850000Y-59600000D03*
X122850000Y-60550000D03*
D22*
X126300000Y-61125000D03*
X126300000Y-59475000D03*
D30*
X133300000Y-71150000D03*
X133300000Y-69250000D03*
D20*
X126450000Y-67325000D03*
X126450000Y-68875000D03*
D30*
X135300000Y-71150000D03*
X135300000Y-69250000D03*
D31*
X129200000Y-64900000D03*
X125200000Y-64900000D03*
D32*
X131900000Y-65800000D03*
X135100000Y-65800000D03*
D22*
X131500000Y-70825000D03*
X131500000Y-69175000D03*
D33*
X128175000Y-71150000D03*
X129825000Y-71150000D03*
D11*
X126500000Y-70725000D03*
X126500000Y-72375000D03*
D34*
X127700000Y-67550000D03*
X127700000Y-68500000D03*
X127700000Y-69450000D03*
X129900000Y-69450000D03*
X129900000Y-68500000D03*
X129900000Y-67550000D03*
D35*
X134420000Y-53200000D03*
X133150000Y-53200000D03*
X131880000Y-53200000D03*
X130610000Y-53200000D03*
X130610000Y-58150000D03*
X131880000Y-58150000D03*
X133150000Y-58150000D03*
X134420000Y-58150000D03*
D17*
X102300000Y-63550000D03*
D18*
X102300000Y-61010000D03*
X102300000Y-58470000D03*
X102300000Y-55930000D03*
X102300000Y-53390000D03*
X102300000Y-50850000D03*
D36*
X123950000Y-67500000D03*
X123950000Y-71500000D03*
D13*
X128382500Y-42310000D03*
X128382500Y-43260000D03*
X128382500Y-44210000D03*
X130657500Y-44210000D03*
X130657500Y-43260000D03*
X130657500Y-42310000D03*
X101292500Y-42380000D03*
X101292500Y-43330000D03*
X101292500Y-44280000D03*
X103567500Y-44280000D03*
X103567500Y-43330000D03*
X103567500Y-42380000D03*
D37*
X107100000Y-66175000D03*
X107100000Y-64625000D03*
D17*
X133150000Y-29300000D03*
D18*
X135690000Y-29300000D03*
X133150000Y-31840000D03*
X135690000Y-31840000D03*
X133150000Y-34380000D03*
X135690000Y-34380000D03*
X133150000Y-36920000D03*
X135690000Y-36920000D03*
X133150000Y-39460000D03*
X135690000Y-39460000D03*
X133150000Y-42000000D03*
X135690000Y-42000000D03*
X133150000Y-44540000D03*
X135690000Y-44540000D03*
X133150000Y-47080000D03*
X135690000Y-47080000D03*
D38*
X105100000Y-62337500D03*
X106050000Y-62337500D03*
X107000000Y-62337500D03*
X107000000Y-60062500D03*
X106050000Y-60062500D03*
X105100000Y-60062500D03*
D39*
X101362500Y-35500000D03*
X101362500Y-37400000D03*
X103237500Y-36450000D03*
D40*
X110325000Y-62948000D03*
X108675000Y-62948000D03*
D41*
X130587500Y-37330000D03*
X130587500Y-35430000D03*
X128712500Y-36380000D03*
D42*
X108725000Y-61424000D03*
X110275000Y-61424000D03*
D11*
X105576000Y-64575000D03*
X105576000Y-66225000D03*
D13*
X128382500Y-31990000D03*
X128382500Y-32940000D03*
X128382500Y-33890000D03*
X130657500Y-33890000D03*
X130657500Y-32940000D03*
X130657500Y-31990000D03*
D17*
X103830000Y-67025000D03*
D18*
X103830000Y-69565000D03*
X103830000Y-72105000D03*
D39*
X101362500Y-28620000D03*
X101362500Y-30520000D03*
X103237500Y-29570000D03*
D41*
X130587500Y-40770000D03*
X130587500Y-38870000D03*
X128712500Y-39820000D03*
D39*
X101362500Y-45820000D03*
X101362500Y-47720000D03*
X103237500Y-46770000D03*
D41*
X130587500Y-47650000D03*
X130587500Y-45750000D03*
X128712500Y-46700000D03*
D17*
X96300000Y-29300000D03*
D18*
X98840000Y-29300000D03*
X96300000Y-31840000D03*
X98840000Y-31840000D03*
X96300000Y-34380000D03*
X98840000Y-34380000D03*
X96300000Y-36920000D03*
X98840000Y-36920000D03*
X96300000Y-39460000D03*
X98840000Y-39460000D03*
X96300000Y-42000000D03*
X98840000Y-42000000D03*
X96300000Y-44540000D03*
X98840000Y-44540000D03*
X96300000Y-47080000D03*
X98840000Y-47080000D03*
D39*
X101362500Y-38940000D03*
X101362500Y-40840000D03*
X103237500Y-39890000D03*
D40*
X110325000Y-59900000D03*
X108675000Y-59900000D03*
D23*
X114000000Y-61875000D03*
D24*
X116500000Y-61875000D03*
X119000000Y-61875000D03*
D11*
X108624000Y-64575000D03*
X108624000Y-66225000D03*
D17*
X101290000Y-67025000D03*
D18*
X101290000Y-69565000D03*
X101290000Y-72105000D03*
D13*
X101292500Y-32060000D03*
X101292500Y-33010000D03*
X101292500Y-33960000D03*
X103567500Y-33960000D03*
X103567500Y-33010000D03*
X103567500Y-32060000D03*
D41*
X130587500Y-30450000D03*
X130587500Y-28550000D03*
X128712500Y-29500000D03*
G36*
X126926919Y-67199317D02*
G01*
X126946595Y-67266329D01*
X126998938Y-67311684D01*
X127067491Y-67321541D01*
X127130489Y-67292770D01*
X127168251Y-67234012D01*
X127168330Y-67234063D01*
X127169442Y-67232904D01*
X127171384Y-67233380D01*
X127172000Y-67234824D01*
X127172000Y-67584254D01*
X127171000Y-67585986D01*
X127169000Y-67585986D01*
X127168081Y-67584817D01*
X127148405Y-67517805D01*
X127096062Y-67472450D01*
X127027509Y-67462593D01*
X126964511Y-67491364D01*
X126926749Y-67550122D01*
X126926676Y-67550075D01*
X126925607Y-67551249D01*
X126923653Y-67550822D01*
X126923000Y-67549343D01*
X126923000Y-67199880D01*
X126924000Y-67198148D01*
X126926000Y-67198148D01*
X126926919Y-67199317D01*
G37*
M02*
