M48
; DRILL file {KiCad (5.1.10)-1} date 06/01/21 12:35:45
; FORMAT={-:-/ absolute / inch / decimal}
; #@! TF.CreationDate,2021-06-01T12:35:45+02:00
; #@! TF.GenerationSoftware,Kicad,Pcbnew,(5.1.10)-1
; #@! TF.FileFunction,Plated,1,2,PTH
FMAT,2
INCH
T1C0.0118
T2C0.0157
T3C0.0197
T4C0.0394
%
G90
G05
T1
X3.7795Y-1.1713
X3.7795Y-1.2303
X3.7795Y-1.2894
X3.7795Y-1.3484
X3.7795Y-1.9291
X3.7795Y-2.8445
X3.8386Y-2.7953
X3.8484Y-1.9291
X3.8484Y-2.5
X3.8775Y-2.6675
X3.8878Y-1.1713
X3.8878Y-1.2303
X3.8878Y-1.2894
X3.8878Y-1.3484
X3.9075Y-2.8445
X3.91Y-1.66
X3.91Y-2.49
X3.9329Y-1.7571
X3.9375Y-2.6125
X3.94Y-2.49
X3.97Y-2.0172
X3.97Y-2.12
X3.97Y-2.32
X3.97Y-2.79
X3.9764Y-1.1713
X3.9764Y-1.2303
X3.9764Y-1.2894
X3.9764Y-1.3484
X3.9764Y-1.4075
X3.98Y-1.9803
X3.9862Y-2.4902
X4.0Y-2.06
X4.1Y-2.0374
X4.1Y-2.22
X4.1024Y-2.3661
X4.1024Y-2.4173
X4.1496Y-1.9567
X4.17Y-2.78
X4.1732Y-2.3661
X4.2362Y-2.8504
X4.2402Y-2.3661
X4.2913Y-1.6535
X4.2913Y-1.7087
X4.311Y-1.3681
X4.311Y-1.4075
X4.315Y-2.0157
X4.3189Y-2.3307
X4.3504Y-1.3681
X4.3504Y-1.4075
X4.3504Y-1.9803
X4.3701Y-2.4213
X4.3898Y-2.0079
X4.4606Y-1.8976
X4.4882Y-2.689
X4.49Y-2.03
X4.61Y-2.33
X4.6496Y-1.9528
X4.6693Y-1.8465
X4.6811Y-2.3701
X4.6811Y-2.5787
X4.6929Y-1.874
X4.7283Y-1.7953
X4.7362Y-2.3346
X4.7559Y-2.5118
X4.7638Y-2.0039
X4.7795Y-2.4606
X4.7835Y-1.3681
X4.7835Y-1.4075
X4.7874Y-1.8543
X4.811Y-1.8071
X4.815Y-1.9252
X4.8228Y-1.3681
X4.8228Y-1.4075
X4.83Y-1.46
X4.8307Y-2.5315
X4.8346Y-1.7598
X4.8976Y-2.7756
X4.8976Y-2.8465
X4.9016Y-2.4213
X4.9685Y-1.9
X4.97Y-1.7
X4.9895Y-1.9505
X4.9902Y-1.5551
X4.9902Y-1.6043
X4.9917Y-1.76
X5.0039Y-2.5315
X5.0197Y-1.9193
X5.02Y-1.66
X5.03Y-1.51
X5.03Y-2.35
X5.0364Y-2.0803
X5.0472Y-2.8504
X5.05Y-1.8
X5.06Y-2.4891
X5.0787Y-2.6969
X5.0813Y-1.8714
X5.09Y-2.11
X5.1063Y-2.3228
X5.12Y-2.43
X5.128Y-1.5453
X5.14Y-2.19
X5.1496Y-2.2874
X5.187Y-1.1417
X5.187Y-1.2008
X5.187Y-1.2598
X5.187Y-1.3189
X5.187Y-1.4961
X5.1969Y-1.9193
X5.2461Y-1.5453
X5.2461Y-1.9291
X5.2461Y-1.9882
X5.2542Y-2.4944
X5.2657Y-1.1417
X5.2657Y-1.2008
X5.2657Y-1.2598
X5.2657Y-1.3189
X5.29Y-2.1207
X5.2953Y-1.9882
X5.3346Y-1.1417
X5.3346Y-1.2008
X5.3346Y-1.2598
X5.3346Y-1.3189
X5.3445Y-1.9094
X5.374Y-1.5354
X5.374Y-1.6043
X5.374Y-1.6831
X5.374Y-1.752
X5.374Y-1.8406
X5.374Y-2.0177
T2
X4.4488Y-1.626
X4.4488Y-1.6634
X4.4488Y-1.7028
X4.4488Y-1.7421
X4.4488Y-1.7815
X4.4882Y-1.626
X4.4882Y-1.6634
X4.4882Y-1.7028
X4.4882Y-1.7421
X4.4882Y-1.7815
X4.5276Y-1.626
X4.5276Y-1.6634
X4.5276Y-1.7028
X4.5276Y-1.7421
X4.5276Y-1.7815
X4.5669Y-1.626
X4.5669Y-1.6634
X4.5669Y-1.7028
X4.5669Y-1.7421
X4.5669Y-1.7815
X4.6063Y-1.626
X4.6063Y-1.6634
X4.6063Y-1.7028
X4.6063Y-1.7421
X4.6063Y-1.7815
X4.79Y-2.18
T3
X5.15Y-2.35
X5.1992Y-2.35
X5.2484Y-2.35
X5.2976Y-2.35
T4
X3.83Y-1.45
X3.83Y-1.55
X3.83Y-1.65
X3.83Y-1.75
X3.83Y-1.85
X3.83Y-2.02
X3.83Y-2.12
X3.83Y-2.22
X3.83Y-2.32
X3.83Y-2.42
X3.98Y-1.6
X3.98Y-1.7
X3.98Y-1.8
X3.98Y-1.9
X4.06Y-2.5118
X4.06Y-2.6118
X4.06Y-2.7118
X4.08Y-1.6
X4.08Y-1.7
X4.08Y-1.8
X4.08Y-1.9
X4.1732Y-2.2441
X4.18Y-2.51
X4.18Y-2.61
X4.18Y-2.71
X4.2732Y-2.2441
X4.3583Y-2.7953
X4.3732Y-2.2441
X4.4583Y-2.7953
X4.4732Y-2.2441
X4.5583Y-2.7953
X4.5732Y-2.2441
X4.6583Y-2.7953
X4.6732Y-2.2441
X4.7732Y-2.2441
X4.8732Y-2.2441
X4.9732Y-2.2441
T0
M30
