G04 #@! TF.GenerationSoftware,KiCad,Pcbnew,(5.1.10)-1*
G04 #@! TF.CreationDate,2021-06-02T11:06:51+02:00*
G04 #@! TF.ProjectId,bobbycar,626f6262-7963-4617-922e-6b696361645f,rev?*
G04 #@! TF.SameCoordinates,Original*
G04 #@! TF.FileFunction,Copper,L2,Bot*
G04 #@! TF.FilePolarity,Positive*
%FSLAX46Y46*%
G04 Gerber Fmt 4.6, Leading zero omitted, Abs format (unit mm)*
G04 Created by KiCad (PCBNEW (5.1.10)-1) date 2021-06-02 11:06:51*
%MOMM*%
%LPD*%
G01*
G04 APERTURE LIST*
G04 #@! TA.AperFunction,ComponentPad*
%ADD10O,1.700000X1.700000*%
G04 #@! TD*
G04 #@! TA.AperFunction,ComponentPad*
%ADD11R,1.700000X1.700000*%
G04 #@! TD*
G04 #@! TA.AperFunction,ComponentPad*
%ADD12O,0.800000X1.300000*%
G04 #@! TD*
G04 #@! TA.AperFunction,ViaPad*
%ADD13C,0.800000*%
G04 #@! TD*
G04 #@! TA.AperFunction,ViaPad*
%ADD14C,0.600000*%
G04 #@! TD*
G04 #@! TA.AperFunction,Conductor*
%ADD15C,0.500000*%
G04 #@! TD*
G04 #@! TA.AperFunction,Conductor*
%ADD16C,0.200000*%
G04 #@! TD*
G04 #@! TA.AperFunction,Conductor*
%ADD17C,0.300000*%
G04 #@! TD*
G04 #@! TA.AperFunction,Conductor*
%ADD18C,1.000000*%
G04 #@! TD*
G04 #@! TA.AperFunction,Conductor*
%ADD19C,0.254000*%
G04 #@! TD*
G04 #@! TA.AperFunction,Conductor*
%ADD20C,0.100000*%
G04 #@! TD*
G04 APERTURE END LIST*
D10*
X97300000Y-47680000D03*
X97300000Y-45140000D03*
X97300000Y-42600000D03*
X97300000Y-40060000D03*
X97300000Y-37520000D03*
D11*
X97300000Y-34980000D03*
D10*
X121600000Y-60600000D03*
X119060000Y-60600000D03*
X116520000Y-60600000D03*
X113980000Y-60600000D03*
X111440000Y-60600000D03*
X108900000Y-60600000D03*
D11*
X106360000Y-60600000D03*
D12*
X134560000Y-59690000D03*
X133310000Y-59690000D03*
X132060000Y-59690000D03*
G04 #@! TA.AperFunction,ComponentPad*
G36*
G01*
X130410000Y-60140000D02*
X130410000Y-59240000D01*
G75*
G02*
X130610000Y-59040000I200000J0D01*
G01*
X131010000Y-59040000D01*
G75*
G02*
X131210000Y-59240000I0J-200000D01*
G01*
X131210000Y-60140000D01*
G75*
G02*
X131010000Y-60340000I-200000J0D01*
G01*
X130610000Y-60340000D01*
G75*
G02*
X130410000Y-60140000I0J200000D01*
G01*
G37*
G04 #@! TD.AperFunction*
D10*
X126320000Y-57000000D03*
X123780000Y-57000000D03*
X121240000Y-57000000D03*
X118700000Y-57000000D03*
X116160000Y-57000000D03*
X113620000Y-57000000D03*
X111080000Y-57000000D03*
X108540000Y-57000000D03*
D11*
X106000000Y-57000000D03*
D10*
X118320000Y-71000000D03*
X115780000Y-71000000D03*
X113240000Y-71000000D03*
D11*
X110700000Y-71000000D03*
D10*
X103124000Y-68880000D03*
X103124000Y-66340000D03*
D11*
X103124000Y-63800000D03*
D10*
X106172000Y-68834000D03*
X106172000Y-66294000D03*
D11*
X106172000Y-63754000D03*
D10*
X97282000Y-51308000D03*
X97282000Y-53848000D03*
X97282000Y-56388000D03*
X97282000Y-58928000D03*
D11*
X97282000Y-61468000D03*
D13*
X115000000Y-43250000D03*
X113000000Y-45250000D03*
X113000000Y-44250000D03*
X117000000Y-45250000D03*
X116000000Y-45250000D03*
X115000000Y-45250000D03*
X114000000Y-45250000D03*
X114000000Y-44250000D03*
X114000000Y-43250000D03*
X116000000Y-43250000D03*
X116000000Y-42250000D03*
X115000000Y-42250000D03*
X114000000Y-42250000D03*
X113000000Y-42250000D03*
X113000000Y-43250000D03*
X115000000Y-44250000D03*
X116000000Y-44250000D03*
X117000000Y-44250000D03*
X117000000Y-43250000D03*
X117000000Y-42250000D03*
X113000000Y-41300032D03*
X116000000Y-41300032D03*
X114000000Y-41300032D03*
X115000000Y-41300032D03*
X117000000Y-41300032D03*
D14*
X130048000Y-61722000D03*
X105918000Y-70612000D03*
X97500000Y-71000000D03*
X99250000Y-72250000D03*
X96000000Y-72250000D03*
X96000000Y-32750000D03*
X98750000Y-32750000D03*
X98750000Y-31250000D03*
X96000000Y-31250000D03*
X96000000Y-29750000D03*
X98750000Y-29750000D03*
X101000000Y-29750000D03*
X101000000Y-31250000D03*
X101000000Y-32750000D03*
X101000000Y-34250000D03*
X101000000Y-35750000D03*
X109500000Y-35750000D03*
X110500000Y-35750000D03*
X109500000Y-34750000D03*
X110500000Y-34750000D03*
X130250000Y-39250000D03*
X126750000Y-39500000D03*
X126750000Y-40750000D03*
X136500000Y-39000000D03*
X136500000Y-40750000D03*
X133250000Y-39250000D03*
X131750000Y-38000000D03*
X133250000Y-49000000D03*
X134500000Y-50500000D03*
X135750000Y-48500000D03*
X136500000Y-44500000D03*
X136500000Y-42750000D03*
X136500000Y-46750000D03*
X136500000Y-51250000D03*
X97750000Y-63500000D03*
X101250000Y-63250000D03*
X131750000Y-33500000D03*
X133750000Y-33500000D03*
X135500000Y-33500000D03*
X135500000Y-32000000D03*
X133750000Y-32000000D03*
X131750000Y-32000000D03*
X131750000Y-30500000D03*
X133750000Y-30500000D03*
X135500000Y-30500000D03*
X131750000Y-29000000D03*
X133750000Y-29000000D03*
X135500000Y-29000000D03*
X122500000Y-35750000D03*
X122500000Y-34750000D03*
X121500000Y-35750000D03*
X121500000Y-34750000D03*
X133250000Y-50500000D03*
X128200000Y-72400000D03*
X124400000Y-72300000D03*
X127100000Y-64300000D03*
X122700000Y-64300000D03*
X130800000Y-58100000D03*
X129700000Y-59000000D03*
X107600000Y-72400000D03*
X120100000Y-45600000D03*
X112300000Y-48200000D03*
X111500000Y-51000000D03*
X121700000Y-71500000D03*
X114500000Y-65900000D03*
X114400000Y-67600000D03*
X108400000Y-64100000D03*
X112000000Y-64500000D03*
X117500000Y-64600000D03*
X121000000Y-64400000D03*
X103100000Y-49300000D03*
X103500000Y-47800000D03*
X104400000Y-46500000D03*
X105400000Y-45200000D03*
X103300000Y-43500000D03*
X103600000Y-38900000D03*
X103600000Y-41200000D03*
X105200000Y-38900000D03*
X105200000Y-41200000D03*
X122200000Y-49400000D03*
X117000000Y-48700000D03*
X129000000Y-51200000D03*
X135100000Y-57600000D03*
X133100000Y-72400000D03*
X135200000Y-72500000D03*
X127924000Y-52838500D03*
X128000000Y-59690000D03*
X128270000Y-45720000D03*
X110500000Y-50300000D03*
X101092000Y-50300000D03*
X122700000Y-62900000D03*
X113700000Y-51561990D03*
X100838000Y-53848000D03*
X100838000Y-51238002D03*
X109600000Y-51200000D03*
X104140000Y-56388000D03*
X104140000Y-51750010D03*
X118049990Y-46349990D03*
X100838000Y-58928000D03*
X101600000Y-52324000D03*
X118600000Y-47000000D03*
X124400000Y-70500000D03*
X132300000Y-69200000D03*
X99314000Y-63246000D03*
X98489000Y-67755000D03*
X105900000Y-42100000D03*
X99314000Y-47914000D03*
X100076000Y-63246000D03*
X100013000Y-66357000D03*
X106000000Y-43400004D03*
X100079312Y-48544262D03*
X126238000Y-43179988D03*
X126199988Y-48260623D03*
X126785000Y-49715000D03*
X126788000Y-44715000D03*
X122700000Y-53300000D03*
X122500000Y-58200000D03*
X122682000Y-37084000D03*
X124500000Y-61500000D03*
X130556000Y-55626000D03*
X100838000Y-70866000D03*
X127762000Y-38354000D03*
X129064916Y-47532920D03*
X127508000Y-42164000D03*
X127500000Y-48750000D03*
X129286000Y-53594000D03*
X134366000Y-53866000D03*
X105500000Y-54100000D03*
X118800000Y-50800000D03*
X120585000Y-50985000D03*
X116200006Y-51000000D03*
X115100000Y-50400000D03*
D15*
X127924000Y-59528000D02*
X127762000Y-59690000D01*
X127924000Y-52838500D02*
X127924000Y-59528000D01*
D16*
X128233917Y-45756083D02*
X128270000Y-45720000D01*
D15*
X127924000Y-49362004D02*
X128233917Y-49052087D01*
X128233917Y-49052087D02*
X128233917Y-45756083D01*
X127924000Y-52838500D02*
X127924000Y-49362004D01*
X101092000Y-50300000D02*
X101192000Y-50400000D01*
X101192000Y-50400000D02*
X110400000Y-50400000D01*
X110400000Y-50400000D02*
X110500000Y-50300000D01*
X99920000Y-50300000D02*
X101092000Y-50300000D01*
X97300000Y-47680000D02*
X99920000Y-50300000D01*
X107026000Y-62900000D02*
X122700000Y-62900000D01*
X106172000Y-63754000D02*
X107026000Y-62900000D01*
D16*
X98848001Y-52874001D02*
X112387989Y-52874001D01*
X112387989Y-52874001D02*
X113700000Y-51561990D01*
X97282000Y-51308000D02*
X98848001Y-52874001D01*
D17*
X97282000Y-53848000D02*
X100838000Y-53848000D01*
D16*
X100876002Y-51200000D02*
X109600000Y-51200000D01*
X100838000Y-51238002D02*
X100876002Y-51200000D01*
X104140000Y-56388000D02*
X97282000Y-56388000D01*
X112075716Y-51750010D02*
X104140000Y-51750010D01*
X112762863Y-51062863D02*
X112075716Y-51750010D01*
X112762863Y-49337137D02*
X112762863Y-51062863D01*
X115750010Y-46349990D02*
X112762863Y-49337137D01*
X118049990Y-46349990D02*
X115750010Y-46349990D01*
D17*
X97282000Y-58928000D02*
X100838000Y-58928000D01*
D16*
X112040001Y-52324000D02*
X101600000Y-52324000D01*
X113232000Y-49568000D02*
X113232000Y-51132000D01*
X113232000Y-51132000D02*
X112040001Y-52324000D01*
X115800000Y-47000000D02*
X113232000Y-49568000D01*
X118600000Y-47000000D02*
X115800000Y-47000000D01*
D18*
X126800000Y-70500000D02*
X124400000Y-70500000D01*
X134560000Y-62740000D02*
X128800000Y-68500000D01*
X134560000Y-59690000D02*
X134560000Y-62740000D01*
X128200000Y-69200000D02*
X128150000Y-69150000D01*
X132300000Y-69200000D02*
X128200000Y-69200000D01*
X128150000Y-69150000D02*
X126800000Y-70500000D01*
X128800000Y-68500000D02*
X128150000Y-69150000D01*
D16*
X99314000Y-63246000D02*
X99314000Y-66930000D01*
X99314000Y-66930000D02*
X98489000Y-67755000D01*
X105900000Y-42100000D02*
X100086000Y-47914000D01*
X100086000Y-47914000D02*
X99314000Y-47914000D01*
X100076000Y-66294000D02*
X100013000Y-66357000D01*
X100076000Y-63246000D02*
X100076000Y-66294000D01*
X100855742Y-48544262D02*
X100079312Y-48544262D01*
X106000000Y-43400004D02*
X100855742Y-48544262D01*
X126238000Y-43179988D02*
X126238000Y-48222611D01*
X126238000Y-48222611D02*
X126199988Y-48260623D01*
X126785000Y-49715000D02*
X126785000Y-44715000D01*
X126785000Y-44715000D02*
X126788000Y-44715000D01*
X122700000Y-53300000D02*
X122500000Y-53500000D01*
X122500000Y-53500000D02*
X122500000Y-58200000D01*
X123780000Y-38182000D02*
X122682000Y-37084000D01*
X123780000Y-54720000D02*
X123780000Y-54780000D01*
X123780000Y-54720000D02*
X123780000Y-38182000D01*
X125050001Y-56050001D02*
X125050001Y-60949999D01*
X123780000Y-54780000D02*
X125050001Y-56050001D01*
X125050001Y-60949999D02*
X124500000Y-61500000D01*
X132060000Y-59690000D02*
X132060000Y-57130000D01*
X132060000Y-57130000D02*
X130556000Y-55626000D01*
D17*
X115140000Y-69100000D02*
X113240000Y-71000000D01*
X124448000Y-69100000D02*
X115140000Y-69100000D01*
X132060000Y-61488000D02*
X124448000Y-69100000D01*
X132060000Y-59690000D02*
X132060000Y-61488000D01*
X117080011Y-69699989D02*
X115780000Y-71000000D01*
X133310000Y-59690000D02*
X133310000Y-61254000D01*
X133310000Y-61254000D02*
X124864011Y-69699989D01*
X124864011Y-69699989D02*
X117080011Y-69699989D01*
D16*
X106172000Y-66294000D02*
X104648000Y-67818000D01*
X104648000Y-67818000D02*
X104648000Y-70358000D01*
X104648000Y-70358000D02*
X104140000Y-70866000D01*
X104140000Y-70866000D02*
X100838000Y-70866000D01*
X127762000Y-38354000D02*
X129064916Y-39656916D01*
X129064916Y-39656916D02*
X129064916Y-47532920D01*
X127508000Y-42164000D02*
X127508000Y-48742000D01*
X127508000Y-48742000D02*
X127500000Y-48750000D01*
X134094000Y-53594000D02*
X134366000Y-53866000D01*
X129286000Y-53594000D02*
X134094000Y-53594000D01*
X107300000Y-59000000D02*
X107300000Y-55900000D01*
X108900000Y-60600000D02*
X107300000Y-59000000D01*
X107300000Y-55900000D02*
X105500000Y-54100000D01*
X117260001Y-59859999D02*
X116520000Y-60600000D01*
X117260001Y-52339999D02*
X117260001Y-59859999D01*
X118800000Y-50800000D02*
X117260001Y-52339999D01*
X119909999Y-59750001D02*
X119909999Y-51660001D01*
X119060000Y-60600000D02*
X119909999Y-59750001D01*
X119909999Y-51660001D02*
X120585000Y-50985000D01*
X114829999Y-59750001D02*
X114829999Y-54570001D01*
X113980000Y-60600000D02*
X114829999Y-59750001D01*
X114829999Y-54570001D02*
X116200006Y-53199994D01*
X116200006Y-53199994D02*
X116200006Y-51000000D01*
X115100000Y-52805012D02*
X112300000Y-55605012D01*
X115100000Y-50400000D02*
X115100000Y-52805012D01*
X112300000Y-59740000D02*
X111440000Y-60600000D01*
X112300000Y-55605012D02*
X112300000Y-59740000D01*
D19*
X101473000Y-34200000D02*
X101475440Y-34224776D01*
X101482667Y-34248601D01*
X101494403Y-34270557D01*
X101510197Y-34289803D01*
X101529443Y-34305597D01*
X101551399Y-34317333D01*
X101575224Y-34324560D01*
X101600000Y-34327000D01*
X130200000Y-34327000D01*
X130224776Y-34324560D01*
X130248601Y-34317333D01*
X130270557Y-34305597D01*
X130289803Y-34289803D01*
X130305597Y-34270557D01*
X130317333Y-34248601D01*
X130324560Y-34224776D01*
X130327000Y-34200000D01*
X130327000Y-28152000D01*
X135992561Y-28152000D01*
X136164569Y-28168866D01*
X136322871Y-28216660D01*
X136468872Y-28294289D01*
X136597015Y-28398800D01*
X136702418Y-28526209D01*
X136781069Y-28671671D01*
X136829966Y-28829631D01*
X136848000Y-29001211D01*
X136848001Y-71992552D01*
X136831134Y-72164569D01*
X136783340Y-72322871D01*
X136705710Y-72468873D01*
X136601200Y-72597015D01*
X136473788Y-72702419D01*
X136328328Y-72781069D01*
X136170369Y-72829966D01*
X135998789Y-72848000D01*
X96007438Y-72848000D01*
X95835431Y-72831134D01*
X95677129Y-72783340D01*
X95531127Y-72705710D01*
X95402985Y-72601200D01*
X95297581Y-72473788D01*
X95218931Y-72328328D01*
X95170034Y-72170369D01*
X95152000Y-71998789D01*
X95152000Y-71850000D01*
X109211928Y-71850000D01*
X109224188Y-71974482D01*
X109260498Y-72094180D01*
X109319463Y-72204494D01*
X109398815Y-72301185D01*
X109495506Y-72380537D01*
X109605820Y-72439502D01*
X109725518Y-72475812D01*
X109850000Y-72488072D01*
X110414250Y-72485000D01*
X110573000Y-72326250D01*
X110573000Y-71127000D01*
X109373750Y-71127000D01*
X109215000Y-71285750D01*
X109211928Y-71850000D01*
X95152000Y-71850000D01*
X95152000Y-70809170D01*
X100261000Y-70809170D01*
X100261000Y-70922830D01*
X100283174Y-71034305D01*
X100326669Y-71139312D01*
X100389815Y-71233816D01*
X100470184Y-71314185D01*
X100564688Y-71377331D01*
X100669695Y-71420826D01*
X100781170Y-71443000D01*
X100894830Y-71443000D01*
X101006305Y-71420826D01*
X101111312Y-71377331D01*
X101205816Y-71314185D01*
X101277001Y-71243000D01*
X104121488Y-71243000D01*
X104140000Y-71244823D01*
X104158512Y-71243000D01*
X104158519Y-71243000D01*
X104213905Y-71237545D01*
X104284970Y-71215988D01*
X104350463Y-71180981D01*
X104407869Y-71133869D01*
X104419677Y-71119481D01*
X104901481Y-70637677D01*
X104915869Y-70625869D01*
X104962981Y-70568463D01*
X104997988Y-70502970D01*
X105019545Y-70431905D01*
X105025000Y-70376519D01*
X105025000Y-70376510D01*
X105026823Y-70358001D01*
X105025000Y-70339492D01*
X105025000Y-69768023D01*
X105074412Y-69834269D01*
X105290645Y-70029178D01*
X105540748Y-70178157D01*
X105815109Y-70275481D01*
X106045000Y-70154814D01*
X106045000Y-68961000D01*
X106299000Y-68961000D01*
X106299000Y-70154814D01*
X106528891Y-70275481D01*
X106803252Y-70178157D01*
X106850521Y-70150000D01*
X109211928Y-70150000D01*
X109215000Y-70714250D01*
X109373750Y-70873000D01*
X110573000Y-70873000D01*
X110573000Y-69673750D01*
X110827000Y-69673750D01*
X110827000Y-70873000D01*
X110847000Y-70873000D01*
X110847000Y-71127000D01*
X110827000Y-71127000D01*
X110827000Y-72326250D01*
X110985750Y-72485000D01*
X111550000Y-72488072D01*
X111674482Y-72475812D01*
X111794180Y-72439502D01*
X111904494Y-72380537D01*
X112001185Y-72301185D01*
X112080537Y-72204494D01*
X112139502Y-72094180D01*
X112175812Y-71974482D01*
X112188072Y-71850000D01*
X112185619Y-71399492D01*
X112241266Y-71533835D01*
X112364602Y-71718421D01*
X112521579Y-71875398D01*
X112706165Y-71998734D01*
X112911266Y-72083690D01*
X113129000Y-72127000D01*
X113351000Y-72127000D01*
X113568734Y-72083690D01*
X113773835Y-71998734D01*
X113958421Y-71875398D01*
X114115398Y-71718421D01*
X114238734Y-71533835D01*
X114323690Y-71328734D01*
X114367000Y-71111000D01*
X114367000Y-70889000D01*
X114323690Y-70671266D01*
X114279437Y-70564431D01*
X115316869Y-69527000D01*
X116649130Y-69527000D01*
X116215568Y-69960562D01*
X116108734Y-69916310D01*
X115891000Y-69873000D01*
X115669000Y-69873000D01*
X115451266Y-69916310D01*
X115246165Y-70001266D01*
X115061579Y-70124602D01*
X114904602Y-70281579D01*
X114781266Y-70466165D01*
X114696310Y-70671266D01*
X114653000Y-70889000D01*
X114653000Y-71111000D01*
X114696310Y-71328734D01*
X114781266Y-71533835D01*
X114904602Y-71718421D01*
X115061579Y-71875398D01*
X115246165Y-71998734D01*
X115451266Y-72083690D01*
X115669000Y-72127000D01*
X115891000Y-72127000D01*
X116108734Y-72083690D01*
X116313835Y-71998734D01*
X116498421Y-71875398D01*
X116655398Y-71718421D01*
X116778734Y-71533835D01*
X116863690Y-71328734D01*
X116907000Y-71111000D01*
X116907000Y-70889000D01*
X116863690Y-70671266D01*
X116819438Y-70564432D01*
X117256881Y-70126989D01*
X117599192Y-70126989D01*
X117444602Y-70281579D01*
X117321266Y-70466165D01*
X117236310Y-70671266D01*
X117193000Y-70889000D01*
X117193000Y-71111000D01*
X117236310Y-71328734D01*
X117321266Y-71533835D01*
X117444602Y-71718421D01*
X117601579Y-71875398D01*
X117786165Y-71998734D01*
X117991266Y-72083690D01*
X118209000Y-72127000D01*
X118431000Y-72127000D01*
X118648734Y-72083690D01*
X118853835Y-71998734D01*
X119038421Y-71875398D01*
X119195398Y-71718421D01*
X119318734Y-71533835D01*
X119403690Y-71328734D01*
X119447000Y-71111000D01*
X119447000Y-70889000D01*
X119403690Y-70671266D01*
X119318734Y-70466165D01*
X119195398Y-70281579D01*
X119040808Y-70126989D01*
X123718348Y-70126989D01*
X123678673Y-70201216D01*
X123634243Y-70347681D01*
X123619241Y-70500000D01*
X123634243Y-70652319D01*
X123678673Y-70798784D01*
X123750823Y-70933766D01*
X123847920Y-71052080D01*
X123966234Y-71149177D01*
X124101216Y-71221327D01*
X124247681Y-71265757D01*
X124361834Y-71277000D01*
X126761837Y-71277000D01*
X126800000Y-71280759D01*
X126838163Y-71277000D01*
X126838166Y-71277000D01*
X126952319Y-71265757D01*
X127098784Y-71221327D01*
X127233766Y-71149177D01*
X127352080Y-71052080D01*
X127376412Y-71022431D01*
X128421844Y-69977000D01*
X132338166Y-69977000D01*
X132452319Y-69965757D01*
X132598784Y-69921327D01*
X132733766Y-69849177D01*
X132852080Y-69752080D01*
X132949177Y-69633766D01*
X133021327Y-69498784D01*
X133065757Y-69352319D01*
X133080759Y-69200000D01*
X133065757Y-69047681D01*
X133021327Y-68901216D01*
X132949177Y-68766234D01*
X132852080Y-68647920D01*
X132733766Y-68550823D01*
X132598784Y-68478673D01*
X132452319Y-68434243D01*
X132338166Y-68423000D01*
X129975843Y-68423000D01*
X135082436Y-63316408D01*
X135112080Y-63292080D01*
X135192406Y-63194202D01*
X135209177Y-63173767D01*
X135281327Y-63038784D01*
X135301377Y-62972688D01*
X135325757Y-62892319D01*
X135337000Y-62778166D01*
X135337000Y-62778157D01*
X135340758Y-62740001D01*
X135337000Y-62701845D01*
X135337000Y-59651834D01*
X135325757Y-59537681D01*
X135281327Y-59391216D01*
X135215052Y-59267225D01*
X135188492Y-59179670D01*
X135125628Y-59062059D01*
X135041026Y-58958973D01*
X134937940Y-58874372D01*
X134820329Y-58811508D01*
X134692714Y-58772796D01*
X134560000Y-58759725D01*
X134427285Y-58772796D01*
X134299670Y-58811508D01*
X134182059Y-58874372D01*
X134078973Y-58958974D01*
X133994372Y-59062060D01*
X133935000Y-59173137D01*
X133875628Y-59062059D01*
X133791026Y-58958973D01*
X133687940Y-58874372D01*
X133570329Y-58811508D01*
X133442714Y-58772796D01*
X133310000Y-58759725D01*
X133177285Y-58772796D01*
X133049670Y-58811508D01*
X132932059Y-58874372D01*
X132828973Y-58958974D01*
X132744372Y-59062060D01*
X132685000Y-59173137D01*
X132625628Y-59062059D01*
X132541026Y-58958973D01*
X132437940Y-58874372D01*
X132437000Y-58873870D01*
X132437000Y-57148508D01*
X132438823Y-57129999D01*
X132437000Y-57111490D01*
X132437000Y-57111481D01*
X132431545Y-57056095D01*
X132409988Y-56985030D01*
X132374981Y-56919537D01*
X132327869Y-56862131D01*
X132313487Y-56850328D01*
X131133000Y-55669842D01*
X131133000Y-55569170D01*
X131110826Y-55457695D01*
X131067331Y-55352688D01*
X131004185Y-55258184D01*
X130923816Y-55177815D01*
X130829312Y-55114669D01*
X130724305Y-55071174D01*
X130612830Y-55049000D01*
X130499170Y-55049000D01*
X130387695Y-55071174D01*
X130282688Y-55114669D01*
X130188184Y-55177815D01*
X130107815Y-55258184D01*
X130044669Y-55352688D01*
X130001174Y-55457695D01*
X129979000Y-55569170D01*
X129979000Y-55682830D01*
X130001174Y-55794305D01*
X130044669Y-55899312D01*
X130107815Y-55993816D01*
X130188184Y-56074185D01*
X130282688Y-56137331D01*
X130387695Y-56180826D01*
X130499170Y-56203000D01*
X130599842Y-56203000D01*
X131683001Y-57286160D01*
X131683000Y-58615397D01*
X131661185Y-58588815D01*
X131564494Y-58509463D01*
X131454180Y-58450498D01*
X131334482Y-58414188D01*
X131210000Y-58401928D01*
X131095750Y-58405000D01*
X130937000Y-58563750D01*
X130937000Y-59563000D01*
X130957000Y-59563000D01*
X130957000Y-59817000D01*
X130937000Y-59817000D01*
X130937000Y-60816250D01*
X131095750Y-60975000D01*
X131210000Y-60978072D01*
X131334482Y-60965812D01*
X131454180Y-60929502D01*
X131564494Y-60870537D01*
X131633001Y-60814315D01*
X131633001Y-61311130D01*
X124271132Y-68673000D01*
X115160967Y-68673000D01*
X115140000Y-68670935D01*
X115119033Y-68673000D01*
X115119022Y-68673000D01*
X115056293Y-68679178D01*
X114975804Y-68703595D01*
X114969434Y-68707000D01*
X114901623Y-68743244D01*
X114852899Y-68783232D01*
X114852895Y-68783236D01*
X114836605Y-68796605D01*
X114823236Y-68812895D01*
X113675569Y-69960563D01*
X113568734Y-69916310D01*
X113351000Y-69873000D01*
X113129000Y-69873000D01*
X112911266Y-69916310D01*
X112706165Y-70001266D01*
X112521579Y-70124602D01*
X112364602Y-70281579D01*
X112241266Y-70466165D01*
X112185619Y-70600508D01*
X112188072Y-70150000D01*
X112175812Y-70025518D01*
X112139502Y-69905820D01*
X112080537Y-69795506D01*
X112001185Y-69698815D01*
X111904494Y-69619463D01*
X111794180Y-69560498D01*
X111674482Y-69524188D01*
X111550000Y-69511928D01*
X110985750Y-69515000D01*
X110827000Y-69673750D01*
X110573000Y-69673750D01*
X110414250Y-69515000D01*
X109850000Y-69511928D01*
X109725518Y-69524188D01*
X109605820Y-69560498D01*
X109495506Y-69619463D01*
X109398815Y-69698815D01*
X109319463Y-69795506D01*
X109260498Y-69905820D01*
X109224188Y-70025518D01*
X109211928Y-70150000D01*
X106850521Y-70150000D01*
X107053355Y-70029178D01*
X107269588Y-69834269D01*
X107443641Y-69600920D01*
X107568825Y-69338099D01*
X107613476Y-69190890D01*
X107492155Y-68961000D01*
X106299000Y-68961000D01*
X106045000Y-68961000D01*
X106025000Y-68961000D01*
X106025000Y-68707000D01*
X106045000Y-68707000D01*
X106045000Y-68687000D01*
X106299000Y-68687000D01*
X106299000Y-68707000D01*
X107492155Y-68707000D01*
X107613476Y-68477110D01*
X107568825Y-68329901D01*
X107443641Y-68067080D01*
X107269588Y-67833731D01*
X107053355Y-67638822D01*
X106803252Y-67489843D01*
X106528891Y-67392519D01*
X106299002Y-67513185D01*
X106299002Y-67417817D01*
X106500734Y-67377690D01*
X106705835Y-67292734D01*
X106890421Y-67169398D01*
X107047398Y-67012421D01*
X107170734Y-66827835D01*
X107255690Y-66622734D01*
X107299000Y-66405000D01*
X107299000Y-66183000D01*
X107255690Y-65965266D01*
X107170734Y-65760165D01*
X107047398Y-65575579D01*
X106890421Y-65418602D01*
X106705835Y-65295266D01*
X106500734Y-65210310D01*
X106283000Y-65167000D01*
X106061000Y-65167000D01*
X105843266Y-65210310D01*
X105638165Y-65295266D01*
X105453579Y-65418602D01*
X105296602Y-65575579D01*
X105173266Y-65760165D01*
X105088310Y-65965266D01*
X105045000Y-66183000D01*
X105045000Y-66405000D01*
X105088310Y-66622734D01*
X105153273Y-66779569D01*
X104394519Y-67538323D01*
X104380131Y-67550131D01*
X104333019Y-67607538D01*
X104316297Y-67638822D01*
X104298012Y-67673031D01*
X104279444Y-67734244D01*
X104276455Y-67744096D01*
X104271000Y-67799482D01*
X104271000Y-67799488D01*
X104269177Y-67818000D01*
X104271000Y-67836512D01*
X104271000Y-67945977D01*
X104221588Y-67879731D01*
X104005355Y-67684822D01*
X103755252Y-67535843D01*
X103480891Y-67438519D01*
X103251002Y-67559185D01*
X103251002Y-67463817D01*
X103452734Y-67423690D01*
X103657835Y-67338734D01*
X103842421Y-67215398D01*
X103999398Y-67058421D01*
X104122734Y-66873835D01*
X104207690Y-66668734D01*
X104251000Y-66451000D01*
X104251000Y-66229000D01*
X104207690Y-66011266D01*
X104122734Y-65806165D01*
X103999398Y-65621579D01*
X103842421Y-65464602D01*
X103657835Y-65341266D01*
X103452734Y-65256310D01*
X103235000Y-65213000D01*
X103013000Y-65213000D01*
X102795266Y-65256310D01*
X102590165Y-65341266D01*
X102405579Y-65464602D01*
X102248602Y-65621579D01*
X102125266Y-65806165D01*
X102040310Y-66011266D01*
X101997000Y-66229000D01*
X101997000Y-66451000D01*
X102040310Y-66668734D01*
X102125266Y-66873835D01*
X102248602Y-67058421D01*
X102405579Y-67215398D01*
X102590165Y-67338734D01*
X102795266Y-67423690D01*
X102996998Y-67463817D01*
X102996998Y-67559185D01*
X102767109Y-67438519D01*
X102492748Y-67535843D01*
X102242645Y-67684822D01*
X102026412Y-67879731D01*
X101852359Y-68113080D01*
X101727175Y-68375901D01*
X101682524Y-68523110D01*
X101803845Y-68753000D01*
X102997000Y-68753000D01*
X102997000Y-68733000D01*
X103251000Y-68733000D01*
X103251000Y-68753000D01*
X103271000Y-68753000D01*
X103271000Y-69007000D01*
X103251000Y-69007000D01*
X103251000Y-70200814D01*
X103480891Y-70321481D01*
X103755252Y-70224157D01*
X104005355Y-70075178D01*
X104221588Y-69880269D01*
X104271001Y-69814022D01*
X104271001Y-70201841D01*
X103983842Y-70489000D01*
X101277001Y-70489000D01*
X101205816Y-70417815D01*
X101111312Y-70354669D01*
X101006305Y-70311174D01*
X100894830Y-70289000D01*
X100781170Y-70289000D01*
X100669695Y-70311174D01*
X100564688Y-70354669D01*
X100470184Y-70417815D01*
X100389815Y-70498184D01*
X100326669Y-70592688D01*
X100283174Y-70697695D01*
X100261000Y-70809170D01*
X95152000Y-70809170D01*
X95152000Y-69236890D01*
X101682524Y-69236890D01*
X101727175Y-69384099D01*
X101852359Y-69646920D01*
X102026412Y-69880269D01*
X102242645Y-70075178D01*
X102492748Y-70224157D01*
X102767109Y-70321481D01*
X102997000Y-70200814D01*
X102997000Y-69007000D01*
X101803845Y-69007000D01*
X101682524Y-69236890D01*
X95152000Y-69236890D01*
X95152000Y-67698170D01*
X97912000Y-67698170D01*
X97912000Y-67811830D01*
X97934174Y-67923305D01*
X97977669Y-68028312D01*
X98040815Y-68122816D01*
X98121184Y-68203185D01*
X98215688Y-68266331D01*
X98320695Y-68309826D01*
X98432170Y-68332000D01*
X98545830Y-68332000D01*
X98657305Y-68309826D01*
X98762312Y-68266331D01*
X98856816Y-68203185D01*
X98937185Y-68122816D01*
X99000331Y-68028312D01*
X99043826Y-67923305D01*
X99066000Y-67811830D01*
X99066000Y-67711158D01*
X99567487Y-67209672D01*
X99581869Y-67197869D01*
X99628981Y-67140463D01*
X99663988Y-67074970D01*
X99685545Y-67003905D01*
X99691000Y-66948519D01*
X99691000Y-66948510D01*
X99692823Y-66930001D01*
X99691000Y-66911492D01*
X99691000Y-66835798D01*
X99739688Y-66868331D01*
X99844695Y-66911826D01*
X99956170Y-66934000D01*
X100069830Y-66934000D01*
X100181305Y-66911826D01*
X100286312Y-66868331D01*
X100380816Y-66805185D01*
X100461185Y-66724816D01*
X100524331Y-66630312D01*
X100567826Y-66525305D01*
X100590000Y-66413830D01*
X100590000Y-66300170D01*
X100567826Y-66188695D01*
X100524331Y-66083688D01*
X100461185Y-65989184D01*
X100453000Y-65980999D01*
X100453000Y-63685001D01*
X100524185Y-63613816D01*
X100587331Y-63519312D01*
X100630826Y-63414305D01*
X100653000Y-63302830D01*
X100653000Y-63189170D01*
X100630826Y-63077695D01*
X100587331Y-62972688D01*
X100572172Y-62950000D01*
X101995660Y-62950000D01*
X101995660Y-64650000D01*
X102001008Y-64704301D01*
X102016847Y-64756516D01*
X102042569Y-64804637D01*
X102077184Y-64846816D01*
X102119363Y-64881431D01*
X102167484Y-64907153D01*
X102219699Y-64922992D01*
X102274000Y-64928340D01*
X103974000Y-64928340D01*
X104028301Y-64922992D01*
X104080516Y-64907153D01*
X104128637Y-64881431D01*
X104170816Y-64846816D01*
X104205431Y-64804637D01*
X104231153Y-64756516D01*
X104246992Y-64704301D01*
X104252340Y-64650000D01*
X104252340Y-62950000D01*
X104247810Y-62904000D01*
X105043660Y-62904000D01*
X105043660Y-64604000D01*
X105049008Y-64658301D01*
X105064847Y-64710516D01*
X105090569Y-64758637D01*
X105125184Y-64800816D01*
X105167363Y-64835431D01*
X105215484Y-64861153D01*
X105267699Y-64876992D01*
X105322000Y-64882340D01*
X107022000Y-64882340D01*
X107076301Y-64876992D01*
X107128516Y-64861153D01*
X107176637Y-64835431D01*
X107218816Y-64800816D01*
X107253431Y-64758637D01*
X107279153Y-64710516D01*
X107294992Y-64658301D01*
X107300340Y-64604000D01*
X107300340Y-63427000D01*
X122464517Y-63427000D01*
X122531695Y-63454826D01*
X122643170Y-63477000D01*
X122756830Y-63477000D01*
X122868305Y-63454826D01*
X122973312Y-63411331D01*
X123067816Y-63348185D01*
X123148185Y-63267816D01*
X123211331Y-63173312D01*
X123254826Y-63068305D01*
X123277000Y-62956830D01*
X123277000Y-62843170D01*
X123254826Y-62731695D01*
X123211331Y-62626688D01*
X123148185Y-62532184D01*
X123067816Y-62451815D01*
X122973312Y-62388669D01*
X122868305Y-62345174D01*
X122756830Y-62323000D01*
X122643170Y-62323000D01*
X122531695Y-62345174D01*
X122464517Y-62373000D01*
X107051877Y-62373000D01*
X107025999Y-62370451D01*
X107000121Y-62373000D01*
X107000119Y-62373000D01*
X106922690Y-62380626D01*
X106823350Y-62410761D01*
X106731798Y-62459696D01*
X106651552Y-62525552D01*
X106635049Y-62545661D01*
X106555050Y-62625660D01*
X105322000Y-62625660D01*
X105267699Y-62631008D01*
X105215484Y-62646847D01*
X105167363Y-62672569D01*
X105125184Y-62707184D01*
X105090569Y-62749363D01*
X105064847Y-62797484D01*
X105049008Y-62849699D01*
X105043660Y-62904000D01*
X104247810Y-62904000D01*
X104246992Y-62895699D01*
X104231153Y-62843484D01*
X104205431Y-62795363D01*
X104170816Y-62753184D01*
X104128637Y-62718569D01*
X104080516Y-62692847D01*
X104028301Y-62677008D01*
X103974000Y-62671660D01*
X102274000Y-62671660D01*
X102219699Y-62677008D01*
X102167484Y-62692847D01*
X102119363Y-62718569D01*
X102077184Y-62753184D01*
X102042569Y-62795363D01*
X102016847Y-62843484D01*
X102001008Y-62895699D01*
X101995660Y-62950000D01*
X100572172Y-62950000D01*
X100524185Y-62878184D01*
X100443816Y-62797815D01*
X100349312Y-62734669D01*
X100244305Y-62691174D01*
X100132830Y-62669000D01*
X100019170Y-62669000D01*
X99907695Y-62691174D01*
X99802688Y-62734669D01*
X99708184Y-62797815D01*
X99695000Y-62810999D01*
X99681816Y-62797815D01*
X99587312Y-62734669D01*
X99482305Y-62691174D01*
X99370830Y-62669000D01*
X99257170Y-62669000D01*
X99145695Y-62691174D01*
X99040688Y-62734669D01*
X98946184Y-62797815D01*
X98865815Y-62878184D01*
X98802669Y-62972688D01*
X98759174Y-63077695D01*
X98737000Y-63189170D01*
X98737000Y-63302830D01*
X98759174Y-63414305D01*
X98802669Y-63519312D01*
X98865815Y-63613816D01*
X98937000Y-63685001D01*
X98937001Y-66773840D01*
X98532842Y-67178000D01*
X98432170Y-67178000D01*
X98320695Y-67200174D01*
X98215688Y-67243669D01*
X98121184Y-67306815D01*
X98040815Y-67387184D01*
X97977669Y-67481688D01*
X97934174Y-67586695D01*
X97912000Y-67698170D01*
X95152000Y-67698170D01*
X95152000Y-62318000D01*
X95793928Y-62318000D01*
X95806188Y-62442482D01*
X95842498Y-62562180D01*
X95901463Y-62672494D01*
X95980815Y-62769185D01*
X96077506Y-62848537D01*
X96187820Y-62907502D01*
X96307518Y-62943812D01*
X96432000Y-62956072D01*
X96996250Y-62953000D01*
X97155000Y-62794250D01*
X97155000Y-61595000D01*
X97409000Y-61595000D01*
X97409000Y-62794250D01*
X97567750Y-62953000D01*
X98132000Y-62956072D01*
X98256482Y-62943812D01*
X98376180Y-62907502D01*
X98486494Y-62848537D01*
X98583185Y-62769185D01*
X98662537Y-62672494D01*
X98721502Y-62562180D01*
X98757812Y-62442482D01*
X98770072Y-62318000D01*
X98767000Y-61753750D01*
X98608250Y-61595000D01*
X97409000Y-61595000D01*
X97155000Y-61595000D01*
X95955750Y-61595000D01*
X95797000Y-61753750D01*
X95793928Y-62318000D01*
X95152000Y-62318000D01*
X95152000Y-60618000D01*
X95793928Y-60618000D01*
X95797000Y-61182250D01*
X95955750Y-61341000D01*
X97155000Y-61341000D01*
X97155000Y-61321000D01*
X97409000Y-61321000D01*
X97409000Y-61341000D01*
X98608250Y-61341000D01*
X98767000Y-61182250D01*
X98770072Y-60618000D01*
X98757812Y-60493518D01*
X98721502Y-60373820D01*
X98662537Y-60263506D01*
X98583185Y-60166815D01*
X98486494Y-60087463D01*
X98376180Y-60028498D01*
X98256482Y-59992188D01*
X98132000Y-59979928D01*
X97681492Y-59982381D01*
X97815835Y-59926734D01*
X98000421Y-59803398D01*
X98157398Y-59646421D01*
X98280734Y-59461835D01*
X98324987Y-59355000D01*
X100448999Y-59355000D01*
X100470184Y-59376185D01*
X100564688Y-59439331D01*
X100669695Y-59482826D01*
X100781170Y-59505000D01*
X100894830Y-59505000D01*
X101006305Y-59482826D01*
X101111312Y-59439331D01*
X101205816Y-59376185D01*
X101286185Y-59295816D01*
X101349331Y-59201312D01*
X101392826Y-59096305D01*
X101415000Y-58984830D01*
X101415000Y-58871170D01*
X101392826Y-58759695D01*
X101349331Y-58654688D01*
X101286185Y-58560184D01*
X101205816Y-58479815D01*
X101111312Y-58416669D01*
X101006305Y-58373174D01*
X100894830Y-58351000D01*
X100781170Y-58351000D01*
X100669695Y-58373174D01*
X100564688Y-58416669D01*
X100470184Y-58479815D01*
X100448999Y-58501000D01*
X98324987Y-58501000D01*
X98280734Y-58394165D01*
X98157398Y-58209579D01*
X98000421Y-58052602D01*
X97815835Y-57929266D01*
X97610734Y-57844310D01*
X97393000Y-57801000D01*
X97171000Y-57801000D01*
X96953266Y-57844310D01*
X96748165Y-57929266D01*
X96563579Y-58052602D01*
X96406602Y-58209579D01*
X96283266Y-58394165D01*
X96198310Y-58599266D01*
X96155000Y-58817000D01*
X96155000Y-59039000D01*
X96198310Y-59256734D01*
X96283266Y-59461835D01*
X96406602Y-59646421D01*
X96563579Y-59803398D01*
X96748165Y-59926734D01*
X96882508Y-59982381D01*
X96432000Y-59979928D01*
X96307518Y-59992188D01*
X96187820Y-60028498D01*
X96077506Y-60087463D01*
X95980815Y-60166815D01*
X95901463Y-60263506D01*
X95842498Y-60373820D01*
X95806188Y-60493518D01*
X95793928Y-60618000D01*
X95152000Y-60618000D01*
X95152000Y-56277000D01*
X96155000Y-56277000D01*
X96155000Y-56499000D01*
X96198310Y-56716734D01*
X96283266Y-56921835D01*
X96406602Y-57106421D01*
X96563579Y-57263398D01*
X96748165Y-57386734D01*
X96953266Y-57471690D01*
X97171000Y-57515000D01*
X97393000Y-57515000D01*
X97610734Y-57471690D01*
X97815835Y-57386734D01*
X98000421Y-57263398D01*
X98157398Y-57106421D01*
X98280734Y-56921835D01*
X98345697Y-56765000D01*
X103700999Y-56765000D01*
X103772184Y-56836185D01*
X103866688Y-56899331D01*
X103971695Y-56942826D01*
X104083170Y-56965000D01*
X104196830Y-56965000D01*
X104308305Y-56942826D01*
X104413312Y-56899331D01*
X104507816Y-56836185D01*
X104588185Y-56755816D01*
X104651331Y-56661312D01*
X104694826Y-56556305D01*
X104717000Y-56444830D01*
X104717000Y-56331170D01*
X104694826Y-56219695D01*
X104665958Y-56150000D01*
X104871660Y-56150000D01*
X104871660Y-57850000D01*
X104877008Y-57904301D01*
X104892847Y-57956516D01*
X104918569Y-58004637D01*
X104953184Y-58046816D01*
X104995363Y-58081431D01*
X105043484Y-58107153D01*
X105095699Y-58122992D01*
X105150000Y-58128340D01*
X106850000Y-58128340D01*
X106904301Y-58122992D01*
X106923000Y-58117320D01*
X106923000Y-58981488D01*
X106921177Y-59000000D01*
X106923000Y-59018512D01*
X106923000Y-59018518D01*
X106927698Y-59066221D01*
X106928455Y-59073905D01*
X106934004Y-59092196D01*
X106950012Y-59144969D01*
X106985019Y-59210462D01*
X107032131Y-59267869D01*
X107046519Y-59279677D01*
X107241616Y-59474774D01*
X107210000Y-59471660D01*
X105510000Y-59471660D01*
X105455699Y-59477008D01*
X105403484Y-59492847D01*
X105355363Y-59518569D01*
X105313184Y-59553184D01*
X105278569Y-59595363D01*
X105252847Y-59643484D01*
X105237008Y-59695699D01*
X105231660Y-59750000D01*
X105231660Y-61450000D01*
X105237008Y-61504301D01*
X105252847Y-61556516D01*
X105278569Y-61604637D01*
X105313184Y-61646816D01*
X105355363Y-61681431D01*
X105403484Y-61707153D01*
X105455699Y-61722992D01*
X105510000Y-61728340D01*
X107210000Y-61728340D01*
X107264301Y-61722992D01*
X107316516Y-61707153D01*
X107364637Y-61681431D01*
X107406816Y-61646816D01*
X107441431Y-61604637D01*
X107467153Y-61556516D01*
X107482992Y-61504301D01*
X107488340Y-61450000D01*
X107488340Y-59750000D01*
X107485226Y-59718385D01*
X107881273Y-60114432D01*
X107816310Y-60271266D01*
X107773000Y-60489000D01*
X107773000Y-60711000D01*
X107816310Y-60928734D01*
X107901266Y-61133835D01*
X108024602Y-61318421D01*
X108181579Y-61475398D01*
X108366165Y-61598734D01*
X108571266Y-61683690D01*
X108789000Y-61727000D01*
X109011000Y-61727000D01*
X109228734Y-61683690D01*
X109433835Y-61598734D01*
X109618421Y-61475398D01*
X109775398Y-61318421D01*
X109898734Y-61133835D01*
X109983690Y-60928734D01*
X110027000Y-60711000D01*
X110027000Y-60489000D01*
X109983690Y-60271266D01*
X109898734Y-60066165D01*
X109775398Y-59881579D01*
X109618421Y-59724602D01*
X109433835Y-59601266D01*
X109228734Y-59516310D01*
X109011000Y-59473000D01*
X108789000Y-59473000D01*
X108571266Y-59516310D01*
X108414432Y-59581273D01*
X107677000Y-58843842D01*
X107677000Y-58199976D01*
X107773080Y-58271641D01*
X108035901Y-58396825D01*
X108183110Y-58441476D01*
X108413000Y-58320155D01*
X108413000Y-57127000D01*
X108393000Y-57127000D01*
X108393000Y-56873000D01*
X108413000Y-56873000D01*
X108413000Y-55679845D01*
X108667000Y-55679845D01*
X108667000Y-56873000D01*
X108687000Y-56873000D01*
X108687000Y-57127000D01*
X108667000Y-57127000D01*
X108667000Y-58320155D01*
X108896890Y-58441476D01*
X109044099Y-58396825D01*
X109306920Y-58271641D01*
X109540269Y-58097588D01*
X109735178Y-57881355D01*
X109884157Y-57631252D01*
X109981481Y-57356891D01*
X109860815Y-57127002D01*
X109956183Y-57127002D01*
X109996310Y-57328734D01*
X110081266Y-57533835D01*
X110204602Y-57718421D01*
X110361579Y-57875398D01*
X110546165Y-57998734D01*
X110751266Y-58083690D01*
X110969000Y-58127000D01*
X111191000Y-58127000D01*
X111408734Y-58083690D01*
X111613835Y-57998734D01*
X111798421Y-57875398D01*
X111923001Y-57750818D01*
X111923001Y-59580210D01*
X111768734Y-59516310D01*
X111551000Y-59473000D01*
X111329000Y-59473000D01*
X111111266Y-59516310D01*
X110906165Y-59601266D01*
X110721579Y-59724602D01*
X110564602Y-59881579D01*
X110441266Y-60066165D01*
X110356310Y-60271266D01*
X110313000Y-60489000D01*
X110313000Y-60711000D01*
X110356310Y-60928734D01*
X110441266Y-61133835D01*
X110564602Y-61318421D01*
X110721579Y-61475398D01*
X110906165Y-61598734D01*
X111111266Y-61683690D01*
X111329000Y-61727000D01*
X111551000Y-61727000D01*
X111768734Y-61683690D01*
X111973835Y-61598734D01*
X112158421Y-61475398D01*
X112315398Y-61318421D01*
X112438734Y-61133835D01*
X112523690Y-60928734D01*
X112567000Y-60711000D01*
X112567000Y-60489000D01*
X112523690Y-60271266D01*
X112458727Y-60114432D01*
X112553487Y-60019672D01*
X112567869Y-60007869D01*
X112594229Y-59975750D01*
X112604436Y-59963312D01*
X112614981Y-59950463D01*
X112649988Y-59884970D01*
X112651945Y-59878518D01*
X112671545Y-59813906D01*
X112678824Y-59740000D01*
X112677000Y-59721481D01*
X112677000Y-57617247D01*
X112744602Y-57718421D01*
X112901579Y-57875398D01*
X113086165Y-57998734D01*
X113291266Y-58083690D01*
X113509000Y-58127000D01*
X113731000Y-58127000D01*
X113948734Y-58083690D01*
X114153835Y-57998734D01*
X114338421Y-57875398D01*
X114452999Y-57760820D01*
X114452999Y-59576067D01*
X114308734Y-59516310D01*
X114091000Y-59473000D01*
X113869000Y-59473000D01*
X113651266Y-59516310D01*
X113446165Y-59601266D01*
X113261579Y-59724602D01*
X113104602Y-59881579D01*
X112981266Y-60066165D01*
X112896310Y-60271266D01*
X112853000Y-60489000D01*
X112853000Y-60711000D01*
X112896310Y-60928734D01*
X112981266Y-61133835D01*
X113104602Y-61318421D01*
X113261579Y-61475398D01*
X113446165Y-61598734D01*
X113651266Y-61683690D01*
X113869000Y-61727000D01*
X114091000Y-61727000D01*
X114308734Y-61683690D01*
X114513835Y-61598734D01*
X114698421Y-61475398D01*
X114855398Y-61318421D01*
X114978734Y-61133835D01*
X115063690Y-60928734D01*
X115107000Y-60711000D01*
X115107000Y-60489000D01*
X115063690Y-60271266D01*
X114998727Y-60114432D01*
X115083487Y-60029672D01*
X115097868Y-60017870D01*
X115117881Y-59993485D01*
X115144979Y-59960465D01*
X115144981Y-59960463D01*
X115179987Y-59894971D01*
X115201544Y-59823906D01*
X115206999Y-59768520D01*
X115206999Y-59768511D01*
X115208822Y-59750002D01*
X115206999Y-59731493D01*
X115206999Y-57602280D01*
X115284602Y-57718421D01*
X115441579Y-57875398D01*
X115626165Y-57998734D01*
X115831266Y-58083690D01*
X116049000Y-58127000D01*
X116271000Y-58127000D01*
X116488734Y-58083690D01*
X116693835Y-57998734D01*
X116878421Y-57875398D01*
X116883002Y-57870817D01*
X116883002Y-59530504D01*
X116848734Y-59516310D01*
X116631000Y-59473000D01*
X116409000Y-59473000D01*
X116191266Y-59516310D01*
X115986165Y-59601266D01*
X115801579Y-59724602D01*
X115644602Y-59881579D01*
X115521266Y-60066165D01*
X115436310Y-60271266D01*
X115393000Y-60489000D01*
X115393000Y-60711000D01*
X115436310Y-60928734D01*
X115521266Y-61133835D01*
X115644602Y-61318421D01*
X115801579Y-61475398D01*
X115986165Y-61598734D01*
X116191266Y-61683690D01*
X116409000Y-61727000D01*
X116631000Y-61727000D01*
X116848734Y-61683690D01*
X117053835Y-61598734D01*
X117238421Y-61475398D01*
X117395398Y-61318421D01*
X117518734Y-61133835D01*
X117603690Y-60928734D01*
X117647000Y-60711000D01*
X117647000Y-60489000D01*
X117603690Y-60271266D01*
X117538784Y-60114569D01*
X117574982Y-60070462D01*
X117609989Y-60004969D01*
X117631546Y-59933904D01*
X117637001Y-59878518D01*
X117637001Y-59878509D01*
X117638824Y-59860000D01*
X117637001Y-59841491D01*
X117637001Y-57378686D01*
X117701266Y-57533835D01*
X117824602Y-57718421D01*
X117981579Y-57875398D01*
X118166165Y-57998734D01*
X118371266Y-58083690D01*
X118589000Y-58127000D01*
X118811000Y-58127000D01*
X119028734Y-58083690D01*
X119233835Y-57998734D01*
X119418421Y-57875398D01*
X119532999Y-57760820D01*
X119532999Y-59576067D01*
X119388734Y-59516310D01*
X119171000Y-59473000D01*
X118949000Y-59473000D01*
X118731266Y-59516310D01*
X118526165Y-59601266D01*
X118341579Y-59724602D01*
X118184602Y-59881579D01*
X118061266Y-60066165D01*
X117976310Y-60271266D01*
X117933000Y-60489000D01*
X117933000Y-60711000D01*
X117976310Y-60928734D01*
X118061266Y-61133835D01*
X118184602Y-61318421D01*
X118341579Y-61475398D01*
X118526165Y-61598734D01*
X118731266Y-61683690D01*
X118949000Y-61727000D01*
X119171000Y-61727000D01*
X119388734Y-61683690D01*
X119593835Y-61598734D01*
X119778421Y-61475398D01*
X119935398Y-61318421D01*
X120058734Y-61133835D01*
X120143690Y-60928734D01*
X120183817Y-60727002D01*
X120279185Y-60727002D01*
X120158519Y-60956891D01*
X120255843Y-61231252D01*
X120404822Y-61481355D01*
X120599731Y-61697588D01*
X120833080Y-61871641D01*
X121095901Y-61996825D01*
X121243110Y-62041476D01*
X121473000Y-61920155D01*
X121473000Y-60727000D01*
X121727000Y-60727000D01*
X121727000Y-61920155D01*
X121956890Y-62041476D01*
X122104099Y-61996825D01*
X122366920Y-61871641D01*
X122600269Y-61697588D01*
X122795178Y-61481355D01*
X122944157Y-61231252D01*
X123041481Y-60956891D01*
X122920814Y-60727000D01*
X121727000Y-60727000D01*
X121473000Y-60727000D01*
X121453000Y-60727000D01*
X121453000Y-60473000D01*
X121473000Y-60473000D01*
X121473000Y-59279845D01*
X121727000Y-59279845D01*
X121727000Y-60473000D01*
X122920814Y-60473000D01*
X123041481Y-60243109D01*
X122944157Y-59968748D01*
X122795178Y-59718645D01*
X122600269Y-59502412D01*
X122366920Y-59328359D01*
X122104099Y-59203175D01*
X121956890Y-59158524D01*
X121727000Y-59279845D01*
X121473000Y-59279845D01*
X121243110Y-59158524D01*
X121095901Y-59203175D01*
X120833080Y-59328359D01*
X120599731Y-59502412D01*
X120404822Y-59718645D01*
X120255843Y-59968748D01*
X120158519Y-60243109D01*
X120279185Y-60472998D01*
X120183817Y-60472998D01*
X120143690Y-60271266D01*
X120078727Y-60114432D01*
X120163487Y-60029672D01*
X120177868Y-60017870D01*
X120197881Y-59993485D01*
X120224979Y-59960465D01*
X120224981Y-59960463D01*
X120259987Y-59894971D01*
X120281544Y-59823906D01*
X120286999Y-59768520D01*
X120286999Y-59768511D01*
X120288822Y-59750002D01*
X120286999Y-59731493D01*
X120286999Y-57602280D01*
X120364602Y-57718421D01*
X120521579Y-57875398D01*
X120706165Y-57998734D01*
X120911266Y-58083690D01*
X121129000Y-58127000D01*
X121351000Y-58127000D01*
X121568734Y-58083690D01*
X121773835Y-57998734D01*
X121958421Y-57875398D01*
X122115398Y-57718421D01*
X122123001Y-57707042D01*
X122123001Y-57760998D01*
X122051815Y-57832184D01*
X121988669Y-57926688D01*
X121945174Y-58031695D01*
X121923000Y-58143170D01*
X121923000Y-58256830D01*
X121945174Y-58368305D01*
X121988669Y-58473312D01*
X122051815Y-58567816D01*
X122132184Y-58648185D01*
X122226688Y-58711331D01*
X122331695Y-58754826D01*
X122443170Y-58777000D01*
X122556830Y-58777000D01*
X122668305Y-58754826D01*
X122773312Y-58711331D01*
X122867816Y-58648185D01*
X122948185Y-58567816D01*
X123011331Y-58473312D01*
X123054826Y-58368305D01*
X123077000Y-58256830D01*
X123077000Y-58143170D01*
X123054826Y-58031695D01*
X123011331Y-57926688D01*
X122948185Y-57832184D01*
X122877000Y-57760999D01*
X122877000Y-57677112D01*
X122904602Y-57718421D01*
X123061579Y-57875398D01*
X123246165Y-57998734D01*
X123451266Y-58083690D01*
X123669000Y-58127000D01*
X123891000Y-58127000D01*
X124108734Y-58083690D01*
X124313835Y-57998734D01*
X124498421Y-57875398D01*
X124655398Y-57718421D01*
X124673001Y-57692076D01*
X124673002Y-60793839D01*
X124543841Y-60923000D01*
X124443170Y-60923000D01*
X124331695Y-60945174D01*
X124226688Y-60988669D01*
X124132184Y-61051815D01*
X124051815Y-61132184D01*
X123988669Y-61226688D01*
X123945174Y-61331695D01*
X123923000Y-61443170D01*
X123923000Y-61556830D01*
X123945174Y-61668305D01*
X123988669Y-61773312D01*
X124051815Y-61867816D01*
X124132184Y-61948185D01*
X124226688Y-62011331D01*
X124331695Y-62054826D01*
X124443170Y-62077000D01*
X124556830Y-62077000D01*
X124668305Y-62054826D01*
X124773312Y-62011331D01*
X124867816Y-61948185D01*
X124948185Y-61867816D01*
X125011331Y-61773312D01*
X125054826Y-61668305D01*
X125077000Y-61556830D01*
X125077000Y-61456159D01*
X125303488Y-61229671D01*
X125317870Y-61217868D01*
X125364982Y-61160462D01*
X125399989Y-61094969D01*
X125410920Y-61058935D01*
X125421546Y-61023905D01*
X125428825Y-60949999D01*
X125427001Y-60931480D01*
X125427001Y-60340000D01*
X129771928Y-60340000D01*
X129784188Y-60464482D01*
X129820498Y-60584180D01*
X129879463Y-60694494D01*
X129958815Y-60791185D01*
X130055506Y-60870537D01*
X130165820Y-60929502D01*
X130285518Y-60965812D01*
X130410000Y-60978072D01*
X130524250Y-60975000D01*
X130683000Y-60816250D01*
X130683000Y-59817000D01*
X129933750Y-59817000D01*
X129775000Y-59975750D01*
X129771928Y-60340000D01*
X125427001Y-60340000D01*
X125427001Y-57692079D01*
X125444602Y-57718421D01*
X125601579Y-57875398D01*
X125786165Y-57998734D01*
X125991266Y-58083690D01*
X126209000Y-58127000D01*
X126431000Y-58127000D01*
X126648734Y-58083690D01*
X126853835Y-57998734D01*
X127038421Y-57875398D01*
X127195398Y-57718421D01*
X127318734Y-57533835D01*
X127397001Y-57344883D01*
X127397001Y-59309710D01*
X127371055Y-59335656D01*
X127321696Y-59395799D01*
X127272761Y-59487351D01*
X127242626Y-59586691D01*
X127232451Y-59690000D01*
X127242626Y-59793309D01*
X127272761Y-59892649D01*
X127321696Y-59984201D01*
X127387553Y-60064447D01*
X127467799Y-60130304D01*
X127559351Y-60179239D01*
X127658691Y-60209374D01*
X127762000Y-60219549D01*
X127769005Y-60218859D01*
X127831695Y-60244826D01*
X127943170Y-60267000D01*
X128056830Y-60267000D01*
X128168305Y-60244826D01*
X128273312Y-60201331D01*
X128367816Y-60138185D01*
X128448185Y-60057816D01*
X128511331Y-59963312D01*
X128554826Y-59858305D01*
X128577000Y-59746830D01*
X128577000Y-59633170D01*
X128554826Y-59521695D01*
X128511331Y-59416688D01*
X128451000Y-59326397D01*
X128451000Y-59040000D01*
X129771928Y-59040000D01*
X129775000Y-59404250D01*
X129933750Y-59563000D01*
X130683000Y-59563000D01*
X130683000Y-58563750D01*
X130524250Y-58405000D01*
X130410000Y-58401928D01*
X130285518Y-58414188D01*
X130165820Y-58450498D01*
X130055506Y-58509463D01*
X129958815Y-58588815D01*
X129879463Y-58685506D01*
X129820498Y-58795820D01*
X129784188Y-58915518D01*
X129771928Y-59040000D01*
X128451000Y-59040000D01*
X128451000Y-53537170D01*
X128709000Y-53537170D01*
X128709000Y-53650830D01*
X128731174Y-53762305D01*
X128774669Y-53867312D01*
X128837815Y-53961816D01*
X128918184Y-54042185D01*
X129012688Y-54105331D01*
X129117695Y-54148826D01*
X129229170Y-54171000D01*
X129342830Y-54171000D01*
X129454305Y-54148826D01*
X129559312Y-54105331D01*
X129653816Y-54042185D01*
X129725001Y-53971000D01*
X133798582Y-53971000D01*
X133811174Y-54034305D01*
X133854669Y-54139312D01*
X133917815Y-54233816D01*
X133998184Y-54314185D01*
X134092688Y-54377331D01*
X134197695Y-54420826D01*
X134309170Y-54443000D01*
X134422830Y-54443000D01*
X134534305Y-54420826D01*
X134639312Y-54377331D01*
X134733816Y-54314185D01*
X134814185Y-54233816D01*
X134877331Y-54139312D01*
X134920826Y-54034305D01*
X134943000Y-53922830D01*
X134943000Y-53809170D01*
X134920826Y-53697695D01*
X134877331Y-53592688D01*
X134814185Y-53498184D01*
X134733816Y-53417815D01*
X134639312Y-53354669D01*
X134534305Y-53311174D01*
X134422830Y-53289000D01*
X134316625Y-53289000D01*
X134304463Y-53279019D01*
X134238970Y-53244012D01*
X134167905Y-53222455D01*
X134112519Y-53217000D01*
X134112512Y-53217000D01*
X134094000Y-53215177D01*
X134075488Y-53217000D01*
X129725001Y-53217000D01*
X129653816Y-53145815D01*
X129559312Y-53082669D01*
X129454305Y-53039174D01*
X129342830Y-53017000D01*
X129229170Y-53017000D01*
X129117695Y-53039174D01*
X129012688Y-53082669D01*
X128918184Y-53145815D01*
X128837815Y-53226184D01*
X128774669Y-53320688D01*
X128731174Y-53425695D01*
X128709000Y-53537170D01*
X128451000Y-53537170D01*
X128451000Y-53073983D01*
X128478826Y-53006805D01*
X128501000Y-52895330D01*
X128501000Y-52781670D01*
X128478826Y-52670195D01*
X128451000Y-52603017D01*
X128451000Y-49580293D01*
X128588256Y-49443038D01*
X128608365Y-49426535D01*
X128674221Y-49346289D01*
X128723156Y-49254737D01*
X128753291Y-49155397D01*
X128760917Y-49077968D01*
X128760917Y-49077967D01*
X128763466Y-49052087D01*
X128760917Y-49026206D01*
X128760917Y-48023746D01*
X128791604Y-48044251D01*
X128896611Y-48087746D01*
X129008086Y-48109920D01*
X129121746Y-48109920D01*
X129233221Y-48087746D01*
X129338228Y-48044251D01*
X129432732Y-47981105D01*
X129513101Y-47900736D01*
X129576247Y-47806232D01*
X129619742Y-47701225D01*
X129641916Y-47589750D01*
X129641916Y-47476090D01*
X129619742Y-47364615D01*
X129576247Y-47259608D01*
X129513101Y-47165104D01*
X129441916Y-47093919D01*
X129441916Y-39675424D01*
X129443739Y-39656915D01*
X129441916Y-39638406D01*
X129441916Y-39638397D01*
X129436461Y-39583011D01*
X129414904Y-39511946D01*
X129379897Y-39446453D01*
X129332785Y-39389047D01*
X129318398Y-39377240D01*
X128339000Y-38397842D01*
X128339000Y-38297170D01*
X128316826Y-38185695D01*
X128273331Y-38080688D01*
X128210185Y-37986184D01*
X128129816Y-37905815D01*
X128035312Y-37842669D01*
X127930305Y-37799174D01*
X127818830Y-37777000D01*
X127705170Y-37777000D01*
X127593695Y-37799174D01*
X127488688Y-37842669D01*
X127394184Y-37905815D01*
X127313815Y-37986184D01*
X127250669Y-38080688D01*
X127207174Y-38185695D01*
X127185000Y-38297170D01*
X127185000Y-38410830D01*
X127207174Y-38522305D01*
X127250669Y-38627312D01*
X127313815Y-38721816D01*
X127394184Y-38802185D01*
X127488688Y-38865331D01*
X127593695Y-38908826D01*
X127705170Y-38931000D01*
X127805842Y-38931000D01*
X128687916Y-39813074D01*
X128687917Y-45321916D01*
X128637816Y-45271815D01*
X128543312Y-45208669D01*
X128438305Y-45165174D01*
X128326830Y-45143000D01*
X128213170Y-45143000D01*
X128101695Y-45165174D01*
X127996688Y-45208669D01*
X127902184Y-45271815D01*
X127885000Y-45288999D01*
X127885000Y-42603001D01*
X127956185Y-42531816D01*
X128019331Y-42437312D01*
X128062826Y-42332305D01*
X128085000Y-42220830D01*
X128085000Y-42107170D01*
X128062826Y-41995695D01*
X128019331Y-41890688D01*
X127956185Y-41796184D01*
X127875816Y-41715815D01*
X127781312Y-41652669D01*
X127676305Y-41609174D01*
X127564830Y-41587000D01*
X127451170Y-41587000D01*
X127339695Y-41609174D01*
X127234688Y-41652669D01*
X127140184Y-41715815D01*
X127059815Y-41796184D01*
X126996669Y-41890688D01*
X126953174Y-41995695D01*
X126931000Y-42107170D01*
X126931000Y-42220830D01*
X126953174Y-42332305D01*
X126996669Y-42437312D01*
X127059815Y-42531816D01*
X127131000Y-42603001D01*
X127131000Y-44250234D01*
X127061312Y-44203669D01*
X126956305Y-44160174D01*
X126844830Y-44138000D01*
X126731170Y-44138000D01*
X126619695Y-44160174D01*
X126615000Y-44162119D01*
X126615000Y-43618989D01*
X126686185Y-43547804D01*
X126749331Y-43453300D01*
X126792826Y-43348293D01*
X126815000Y-43236818D01*
X126815000Y-43123158D01*
X126792826Y-43011683D01*
X126749331Y-42906676D01*
X126686185Y-42812172D01*
X126605816Y-42731803D01*
X126511312Y-42668657D01*
X126406305Y-42625162D01*
X126294830Y-42602988D01*
X126181170Y-42602988D01*
X126069695Y-42625162D01*
X125964688Y-42668657D01*
X125870184Y-42731803D01*
X125789815Y-42812172D01*
X125726669Y-42906676D01*
X125683174Y-43011683D01*
X125661000Y-43123158D01*
X125661000Y-43236818D01*
X125683174Y-43348293D01*
X125726669Y-43453300D01*
X125789815Y-43547804D01*
X125861000Y-43618989D01*
X125861001Y-47793175D01*
X125832172Y-47812438D01*
X125751803Y-47892807D01*
X125688657Y-47987311D01*
X125645162Y-48092318D01*
X125622988Y-48203793D01*
X125622988Y-48317453D01*
X125645162Y-48428928D01*
X125688657Y-48533935D01*
X125751803Y-48628439D01*
X125832172Y-48708808D01*
X125926676Y-48771954D01*
X126031683Y-48815449D01*
X126143158Y-48837623D01*
X126256818Y-48837623D01*
X126368293Y-48815449D01*
X126408000Y-48799002D01*
X126408000Y-49275999D01*
X126336815Y-49347184D01*
X126273669Y-49441688D01*
X126230174Y-49546695D01*
X126208000Y-49658170D01*
X126208000Y-49771830D01*
X126230174Y-49883305D01*
X126273669Y-49988312D01*
X126336815Y-50082816D01*
X126417184Y-50163185D01*
X126511688Y-50226331D01*
X126616695Y-50269826D01*
X126728170Y-50292000D01*
X126841830Y-50292000D01*
X126953305Y-50269826D01*
X127058312Y-50226331D01*
X127152816Y-50163185D01*
X127233185Y-50082816D01*
X127296331Y-49988312D01*
X127339826Y-49883305D01*
X127362000Y-49771830D01*
X127362000Y-49658170D01*
X127339826Y-49546695D01*
X127296331Y-49441688D01*
X127233185Y-49347184D01*
X127162000Y-49275999D01*
X127162000Y-49218108D01*
X127226688Y-49261331D01*
X127331695Y-49304826D01*
X127398768Y-49318168D01*
X127394451Y-49362004D01*
X127397001Y-49387895D01*
X127397000Y-52603016D01*
X127369174Y-52670195D01*
X127347000Y-52781670D01*
X127347000Y-52895330D01*
X127369174Y-53006805D01*
X127397000Y-53073983D01*
X127397001Y-56655116D01*
X127318734Y-56466165D01*
X127195398Y-56281579D01*
X127038421Y-56124602D01*
X126853835Y-56001266D01*
X126648734Y-55916310D01*
X126431000Y-55873000D01*
X126209000Y-55873000D01*
X125991266Y-55916310D01*
X125786165Y-56001266D01*
X125601579Y-56124602D01*
X125444602Y-56281579D01*
X125427001Y-56307921D01*
X125427001Y-56068520D01*
X125428825Y-56050001D01*
X125421546Y-55976095D01*
X125399989Y-55905031D01*
X125382804Y-55872881D01*
X125364982Y-55839538D01*
X125345234Y-55815475D01*
X125329675Y-55796516D01*
X125329673Y-55796514D01*
X125317870Y-55782132D01*
X125303489Y-55770330D01*
X124157000Y-54623842D01*
X124157000Y-38200508D01*
X124158823Y-38181999D01*
X124157000Y-38163490D01*
X124157000Y-38163481D01*
X124151545Y-38108095D01*
X124129988Y-38037030D01*
X124094981Y-37971537D01*
X124047869Y-37914131D01*
X124033481Y-37902323D01*
X123259000Y-37127842D01*
X123259000Y-37027170D01*
X123236826Y-36915695D01*
X123193331Y-36810688D01*
X123130185Y-36716184D01*
X123049816Y-36635815D01*
X122955312Y-36572669D01*
X122850305Y-36529174D01*
X122738830Y-36507000D01*
X122625170Y-36507000D01*
X122513695Y-36529174D01*
X122408688Y-36572669D01*
X122314184Y-36635815D01*
X122233815Y-36716184D01*
X122170669Y-36810688D01*
X122127174Y-36915695D01*
X122105000Y-37027170D01*
X122105000Y-37140830D01*
X122127174Y-37252305D01*
X122170669Y-37357312D01*
X122233815Y-37451816D01*
X122314184Y-37532185D01*
X122408688Y-37595331D01*
X122513695Y-37638826D01*
X122625170Y-37661000D01*
X122725842Y-37661000D01*
X123403001Y-38338159D01*
X123403000Y-54701481D01*
X123403000Y-54761488D01*
X123401177Y-54780000D01*
X123403000Y-54798512D01*
X123403000Y-54798519D01*
X123408455Y-54853905D01*
X123430012Y-54924970D01*
X123465019Y-54990463D01*
X123512131Y-55047869D01*
X123526517Y-55059676D01*
X124673001Y-56206160D01*
X124673001Y-56307924D01*
X124655398Y-56281579D01*
X124498421Y-56124602D01*
X124313835Y-56001266D01*
X124108734Y-55916310D01*
X123891000Y-55873000D01*
X123669000Y-55873000D01*
X123451266Y-55916310D01*
X123246165Y-56001266D01*
X123061579Y-56124602D01*
X122904602Y-56281579D01*
X122877000Y-56322888D01*
X122877000Y-53851224D01*
X122973312Y-53811331D01*
X123067816Y-53748185D01*
X123148185Y-53667816D01*
X123211331Y-53573312D01*
X123254826Y-53468305D01*
X123277000Y-53356830D01*
X123277000Y-53243170D01*
X123254826Y-53131695D01*
X123211331Y-53026688D01*
X123148185Y-52932184D01*
X123067816Y-52851815D01*
X122973312Y-52788669D01*
X122868305Y-52745174D01*
X122756830Y-52723000D01*
X122643170Y-52723000D01*
X122531695Y-52745174D01*
X122426688Y-52788669D01*
X122332184Y-52851815D01*
X122251815Y-52932184D01*
X122188669Y-53026688D01*
X122145174Y-53131695D01*
X122123000Y-53243170D01*
X122123000Y-53356830D01*
X122133482Y-53409524D01*
X122128577Y-53425695D01*
X122128455Y-53426096D01*
X122123000Y-53481482D01*
X122123000Y-53481488D01*
X122121177Y-53500000D01*
X122123000Y-53518512D01*
X122123001Y-56292957D01*
X122115398Y-56281579D01*
X121958421Y-56124602D01*
X121773835Y-56001266D01*
X121568734Y-55916310D01*
X121351000Y-55873000D01*
X121129000Y-55873000D01*
X120911266Y-55916310D01*
X120706165Y-56001266D01*
X120521579Y-56124602D01*
X120364602Y-56281579D01*
X120286999Y-56397720D01*
X120286999Y-51816159D01*
X120541159Y-51562000D01*
X120641830Y-51562000D01*
X120753305Y-51539826D01*
X120858312Y-51496331D01*
X120952816Y-51433185D01*
X121033185Y-51352816D01*
X121096331Y-51258312D01*
X121139826Y-51153305D01*
X121162000Y-51041830D01*
X121162000Y-50928170D01*
X121139826Y-50816695D01*
X121096331Y-50711688D01*
X121033185Y-50617184D01*
X120952816Y-50536815D01*
X120858312Y-50473669D01*
X120753305Y-50430174D01*
X120641830Y-50408000D01*
X120528170Y-50408000D01*
X120416695Y-50430174D01*
X120311688Y-50473669D01*
X120217184Y-50536815D01*
X120136815Y-50617184D01*
X120073669Y-50711688D01*
X120030174Y-50816695D01*
X120008000Y-50928170D01*
X120008000Y-51028841D01*
X119656513Y-51380329D01*
X119642131Y-51392132D01*
X119630328Y-51406514D01*
X119630325Y-51406517D01*
X119595019Y-51449538D01*
X119560011Y-51515032D01*
X119538454Y-51586096D01*
X119531176Y-51660001D01*
X119533000Y-51678523D01*
X119532999Y-56239180D01*
X119418421Y-56124602D01*
X119233835Y-56001266D01*
X119028734Y-55916310D01*
X118811000Y-55873000D01*
X118589000Y-55873000D01*
X118371266Y-55916310D01*
X118166165Y-56001266D01*
X117981579Y-56124602D01*
X117824602Y-56281579D01*
X117701266Y-56466165D01*
X117637001Y-56621314D01*
X117637001Y-52496157D01*
X118756158Y-51377000D01*
X118856830Y-51377000D01*
X118968305Y-51354826D01*
X119073312Y-51311331D01*
X119167816Y-51248185D01*
X119248185Y-51167816D01*
X119311331Y-51073312D01*
X119354826Y-50968305D01*
X119377000Y-50856830D01*
X119377000Y-50743170D01*
X119354826Y-50631695D01*
X119311331Y-50526688D01*
X119248185Y-50432184D01*
X119167816Y-50351815D01*
X119073312Y-50288669D01*
X118968305Y-50245174D01*
X118856830Y-50223000D01*
X118743170Y-50223000D01*
X118631695Y-50245174D01*
X118526688Y-50288669D01*
X118432184Y-50351815D01*
X118351815Y-50432184D01*
X118288669Y-50526688D01*
X118245174Y-50631695D01*
X118223000Y-50743170D01*
X118223000Y-50843842D01*
X117006520Y-52060322D01*
X116992132Y-52072130D01*
X116945020Y-52129537D01*
X116910013Y-52195030D01*
X116888456Y-52266095D01*
X116883001Y-52321481D01*
X116883001Y-52321487D01*
X116881178Y-52339999D01*
X116883001Y-52358511D01*
X116883002Y-56129183D01*
X116878421Y-56124602D01*
X116693835Y-56001266D01*
X116488734Y-55916310D01*
X116271000Y-55873000D01*
X116049000Y-55873000D01*
X115831266Y-55916310D01*
X115626165Y-56001266D01*
X115441579Y-56124602D01*
X115284602Y-56281579D01*
X115206999Y-56397720D01*
X115206999Y-54726159D01*
X116453488Y-53479670D01*
X116467875Y-53467863D01*
X116514987Y-53410457D01*
X116549994Y-53344964D01*
X116571551Y-53273899D01*
X116577006Y-53218513D01*
X116577006Y-53218504D01*
X116578829Y-53199995D01*
X116577006Y-53181486D01*
X116577006Y-51439001D01*
X116648191Y-51367816D01*
X116711337Y-51273312D01*
X116754832Y-51168305D01*
X116777006Y-51056830D01*
X116777006Y-50943170D01*
X116754832Y-50831695D01*
X116711337Y-50726688D01*
X116648191Y-50632184D01*
X116567822Y-50551815D01*
X116473318Y-50488669D01*
X116368311Y-50445174D01*
X116256836Y-50423000D01*
X116143176Y-50423000D01*
X116031701Y-50445174D01*
X115926694Y-50488669D01*
X115832190Y-50551815D01*
X115751821Y-50632184D01*
X115688675Y-50726688D01*
X115645180Y-50831695D01*
X115623006Y-50943170D01*
X115623006Y-51056830D01*
X115645180Y-51168305D01*
X115688675Y-51273312D01*
X115751821Y-51367816D01*
X115823007Y-51439002D01*
X115823006Y-53043836D01*
X114576513Y-54290329D01*
X114562131Y-54302132D01*
X114550328Y-54316514D01*
X114550325Y-54316517D01*
X114515019Y-54359538D01*
X114480011Y-54425032D01*
X114458454Y-54496096D01*
X114451176Y-54570001D01*
X114453000Y-54588523D01*
X114453000Y-56239181D01*
X114338421Y-56124602D01*
X114153835Y-56001266D01*
X113948734Y-55916310D01*
X113731000Y-55873000D01*
X113509000Y-55873000D01*
X113291266Y-55916310D01*
X113086165Y-56001266D01*
X112901579Y-56124602D01*
X112744602Y-56281579D01*
X112677000Y-56382753D01*
X112677000Y-55761170D01*
X115353487Y-53084684D01*
X115367869Y-53072881D01*
X115414981Y-53015475D01*
X115449988Y-52949982D01*
X115455387Y-52932184D01*
X115471545Y-52878918D01*
X115474465Y-52849266D01*
X115477000Y-52823531D01*
X115477000Y-52823524D01*
X115478823Y-52805012D01*
X115477000Y-52786500D01*
X115477000Y-50839001D01*
X115548185Y-50767816D01*
X115611331Y-50673312D01*
X115654826Y-50568305D01*
X115677000Y-50456830D01*
X115677000Y-50343170D01*
X115654826Y-50231695D01*
X115611331Y-50126688D01*
X115548185Y-50032184D01*
X115467816Y-49951815D01*
X115373312Y-49888669D01*
X115268305Y-49845174D01*
X115156830Y-49823000D01*
X115043170Y-49823000D01*
X114931695Y-49845174D01*
X114826688Y-49888669D01*
X114732184Y-49951815D01*
X114651815Y-50032184D01*
X114588669Y-50126688D01*
X114545174Y-50231695D01*
X114523000Y-50343170D01*
X114523000Y-50456830D01*
X114545174Y-50568305D01*
X114588669Y-50673312D01*
X114651815Y-50767816D01*
X114723000Y-50839001D01*
X114723001Y-52648852D01*
X112046519Y-55325335D01*
X112032131Y-55337143D01*
X111985020Y-55394549D01*
X111950012Y-55460043D01*
X111929260Y-55528455D01*
X111928455Y-55531108D01*
X111923000Y-55586494D01*
X111923000Y-55586500D01*
X111921177Y-55605012D01*
X111923000Y-55623524D01*
X111923000Y-56249181D01*
X111798421Y-56124602D01*
X111613835Y-56001266D01*
X111408734Y-55916310D01*
X111191000Y-55873000D01*
X110969000Y-55873000D01*
X110751266Y-55916310D01*
X110546165Y-56001266D01*
X110361579Y-56124602D01*
X110204602Y-56281579D01*
X110081266Y-56466165D01*
X109996310Y-56671266D01*
X109956183Y-56872998D01*
X109860815Y-56872998D01*
X109981481Y-56643109D01*
X109884157Y-56368748D01*
X109735178Y-56118645D01*
X109540269Y-55902412D01*
X109306920Y-55728359D01*
X109044099Y-55603175D01*
X108896890Y-55558524D01*
X108667000Y-55679845D01*
X108413000Y-55679845D01*
X108183110Y-55558524D01*
X108035901Y-55603175D01*
X107773080Y-55728359D01*
X107666102Y-55808153D01*
X107649988Y-55755030D01*
X107614981Y-55689537D01*
X107567869Y-55632131D01*
X107553481Y-55620323D01*
X106077000Y-54143842D01*
X106077000Y-54043170D01*
X106054826Y-53931695D01*
X106011331Y-53826688D01*
X105948185Y-53732184D01*
X105867816Y-53651815D01*
X105773312Y-53588669D01*
X105668305Y-53545174D01*
X105556830Y-53523000D01*
X105443170Y-53523000D01*
X105331695Y-53545174D01*
X105226688Y-53588669D01*
X105132184Y-53651815D01*
X105051815Y-53732184D01*
X104988669Y-53826688D01*
X104945174Y-53931695D01*
X104923000Y-54043170D01*
X104923000Y-54156830D01*
X104945174Y-54268305D01*
X104988669Y-54373312D01*
X105051815Y-54467816D01*
X105132184Y-54548185D01*
X105226688Y-54611331D01*
X105331695Y-54654826D01*
X105443170Y-54677000D01*
X105543842Y-54677000D01*
X106738502Y-55871660D01*
X105150000Y-55871660D01*
X105095699Y-55877008D01*
X105043484Y-55892847D01*
X104995363Y-55918569D01*
X104953184Y-55953184D01*
X104918569Y-55995363D01*
X104892847Y-56043484D01*
X104877008Y-56095699D01*
X104871660Y-56150000D01*
X104665958Y-56150000D01*
X104651331Y-56114688D01*
X104588185Y-56020184D01*
X104507816Y-55939815D01*
X104413312Y-55876669D01*
X104308305Y-55833174D01*
X104196830Y-55811000D01*
X104083170Y-55811000D01*
X103971695Y-55833174D01*
X103866688Y-55876669D01*
X103772184Y-55939815D01*
X103700999Y-56011000D01*
X98345697Y-56011000D01*
X98280734Y-55854165D01*
X98157398Y-55669579D01*
X98000421Y-55512602D01*
X97815835Y-55389266D01*
X97610734Y-55304310D01*
X97393000Y-55261000D01*
X97171000Y-55261000D01*
X96953266Y-55304310D01*
X96748165Y-55389266D01*
X96563579Y-55512602D01*
X96406602Y-55669579D01*
X96283266Y-55854165D01*
X96198310Y-56059266D01*
X96155000Y-56277000D01*
X95152000Y-56277000D01*
X95152000Y-53737000D01*
X96155000Y-53737000D01*
X96155000Y-53959000D01*
X96198310Y-54176734D01*
X96283266Y-54381835D01*
X96406602Y-54566421D01*
X96563579Y-54723398D01*
X96748165Y-54846734D01*
X96953266Y-54931690D01*
X97171000Y-54975000D01*
X97393000Y-54975000D01*
X97610734Y-54931690D01*
X97815835Y-54846734D01*
X98000421Y-54723398D01*
X98157398Y-54566421D01*
X98280734Y-54381835D01*
X98324987Y-54275000D01*
X100448999Y-54275000D01*
X100470184Y-54296185D01*
X100564688Y-54359331D01*
X100669695Y-54402826D01*
X100781170Y-54425000D01*
X100894830Y-54425000D01*
X101006305Y-54402826D01*
X101111312Y-54359331D01*
X101205816Y-54296185D01*
X101286185Y-54215816D01*
X101349331Y-54121312D01*
X101392826Y-54016305D01*
X101415000Y-53904830D01*
X101415000Y-53791170D01*
X101392826Y-53679695D01*
X101349331Y-53574688D01*
X101286185Y-53480184D01*
X101205816Y-53399815D01*
X101111312Y-53336669D01*
X101006305Y-53293174D01*
X100894830Y-53271000D01*
X100781170Y-53271000D01*
X100669695Y-53293174D01*
X100564688Y-53336669D01*
X100470184Y-53399815D01*
X100448999Y-53421000D01*
X98324987Y-53421000D01*
X98280734Y-53314165D01*
X98157398Y-53129579D01*
X98000421Y-52972602D01*
X97815835Y-52849266D01*
X97610734Y-52764310D01*
X97393000Y-52721000D01*
X97171000Y-52721000D01*
X96953266Y-52764310D01*
X96748165Y-52849266D01*
X96563579Y-52972602D01*
X96406602Y-53129579D01*
X96283266Y-53314165D01*
X96198310Y-53519266D01*
X96155000Y-53737000D01*
X95152000Y-53737000D01*
X95152000Y-51197000D01*
X96155000Y-51197000D01*
X96155000Y-51419000D01*
X96198310Y-51636734D01*
X96283266Y-51841835D01*
X96406602Y-52026421D01*
X96563579Y-52183398D01*
X96748165Y-52306734D01*
X96953266Y-52391690D01*
X97171000Y-52435000D01*
X97393000Y-52435000D01*
X97610734Y-52391690D01*
X97767568Y-52326727D01*
X98568329Y-53127488D01*
X98580132Y-53141870D01*
X98594514Y-53153673D01*
X98594516Y-53153675D01*
X98622327Y-53176499D01*
X98637538Y-53188982D01*
X98682375Y-53212948D01*
X98703031Y-53223989D01*
X98774095Y-53245546D01*
X98848001Y-53252825D01*
X98866520Y-53251001D01*
X112369477Y-53251001D01*
X112387989Y-53252824D01*
X112406501Y-53251001D01*
X112406508Y-53251001D01*
X112461894Y-53245546D01*
X112532959Y-53223989D01*
X112598452Y-53188982D01*
X112655858Y-53141870D01*
X112667666Y-53127482D01*
X113656159Y-52138990D01*
X113756830Y-52138990D01*
X113868305Y-52116816D01*
X113973312Y-52073321D01*
X114067816Y-52010175D01*
X114148185Y-51929806D01*
X114211331Y-51835302D01*
X114254826Y-51730295D01*
X114277000Y-51618820D01*
X114277000Y-51505160D01*
X114254826Y-51393685D01*
X114211331Y-51288678D01*
X114148185Y-51194174D01*
X114067816Y-51113805D01*
X113973312Y-51050659D01*
X113868305Y-51007164D01*
X113756830Y-50984990D01*
X113643170Y-50984990D01*
X113609000Y-50991787D01*
X113609000Y-49724158D01*
X115956158Y-47377000D01*
X118160999Y-47377000D01*
X118232184Y-47448185D01*
X118326688Y-47511331D01*
X118431695Y-47554826D01*
X118543170Y-47577000D01*
X118656830Y-47577000D01*
X118768305Y-47554826D01*
X118873312Y-47511331D01*
X118967816Y-47448185D01*
X119048185Y-47367816D01*
X119111331Y-47273312D01*
X119154826Y-47168305D01*
X119177000Y-47056830D01*
X119177000Y-46943170D01*
X119154826Y-46831695D01*
X119111331Y-46726688D01*
X119048185Y-46632184D01*
X118967816Y-46551815D01*
X118873312Y-46488669D01*
X118768305Y-46445174D01*
X118656830Y-46423000D01*
X118623772Y-46423000D01*
X118626990Y-46406820D01*
X118626990Y-46293160D01*
X118604816Y-46181685D01*
X118561321Y-46076678D01*
X118498175Y-45982174D01*
X118417806Y-45901805D01*
X118323302Y-45838659D01*
X118218295Y-45795164D01*
X118106820Y-45772990D01*
X117993160Y-45772990D01*
X117881685Y-45795164D01*
X117776678Y-45838659D01*
X117682174Y-45901805D01*
X117610989Y-45972990D01*
X115768529Y-45972990D01*
X115750010Y-45971166D01*
X115676104Y-45978445D01*
X115627094Y-45993312D01*
X115605040Y-46000002D01*
X115539547Y-46035009D01*
X115482141Y-46082121D01*
X115470338Y-46096503D01*
X112509382Y-49057460D01*
X112494994Y-49069268D01*
X112447882Y-49126675D01*
X112414474Y-49189176D01*
X112412875Y-49192168D01*
X112392695Y-49258695D01*
X112391318Y-49263233D01*
X112385863Y-49318619D01*
X112385863Y-49318625D01*
X112384040Y-49337137D01*
X112385863Y-49355649D01*
X112385864Y-50906703D01*
X111919558Y-51373010D01*
X110152877Y-51373010D01*
X110154826Y-51368305D01*
X110177000Y-51256830D01*
X110177000Y-51143170D01*
X110154826Y-51031695D01*
X110111460Y-50927000D01*
X110374119Y-50927000D01*
X110400000Y-50929549D01*
X110425881Y-50927000D01*
X110503310Y-50919374D01*
X110602650Y-50889239D01*
X110666279Y-50855229D01*
X110668305Y-50854826D01*
X110773312Y-50811331D01*
X110867816Y-50748185D01*
X110948185Y-50667816D01*
X111011331Y-50573312D01*
X111054826Y-50468305D01*
X111077000Y-50356830D01*
X111077000Y-50243170D01*
X111054826Y-50131695D01*
X111011331Y-50026688D01*
X110948185Y-49932184D01*
X110867816Y-49851815D01*
X110773312Y-49788669D01*
X110668305Y-49745174D01*
X110556830Y-49723000D01*
X110443170Y-49723000D01*
X110331695Y-49745174D01*
X110226688Y-49788669D01*
X110132184Y-49851815D01*
X110110999Y-49873000D01*
X101481001Y-49873000D01*
X101459816Y-49851815D01*
X101365312Y-49788669D01*
X101260305Y-49745174D01*
X101148830Y-49723000D01*
X101035170Y-49723000D01*
X100923695Y-49745174D01*
X100856517Y-49773000D01*
X100138291Y-49773000D01*
X98380859Y-48015569D01*
X98383690Y-48008734D01*
X98413837Y-47857170D01*
X98737000Y-47857170D01*
X98737000Y-47970830D01*
X98759174Y-48082305D01*
X98802669Y-48187312D01*
X98865815Y-48281816D01*
X98946184Y-48362185D01*
X99040688Y-48425331D01*
X99145695Y-48468826D01*
X99257170Y-48491000D01*
X99370830Y-48491000D01*
X99482305Y-48468826D01*
X99508142Y-48458124D01*
X99502312Y-48487432D01*
X99502312Y-48601092D01*
X99524486Y-48712567D01*
X99567981Y-48817574D01*
X99631127Y-48912078D01*
X99711496Y-48992447D01*
X99806000Y-49055593D01*
X99911007Y-49099088D01*
X100022482Y-49121262D01*
X100136142Y-49121262D01*
X100247617Y-49099088D01*
X100352624Y-49055593D01*
X100447128Y-48992447D01*
X100518313Y-48921262D01*
X100837230Y-48921262D01*
X100855742Y-48923085D01*
X100874254Y-48921262D01*
X100874261Y-48921262D01*
X100929647Y-48915807D01*
X101000712Y-48894250D01*
X101066205Y-48859243D01*
X101123611Y-48812131D01*
X101135419Y-48797743D01*
X105956158Y-43977004D01*
X106056830Y-43977004D01*
X106168305Y-43954830D01*
X106273312Y-43911335D01*
X106367816Y-43848189D01*
X106448185Y-43767820D01*
X106511331Y-43673316D01*
X106554826Y-43568309D01*
X106577000Y-43456834D01*
X106577000Y-43343174D01*
X106554826Y-43231699D01*
X106511331Y-43126692D01*
X106448185Y-43032188D01*
X106367816Y-42951819D01*
X106273312Y-42888673D01*
X106168305Y-42845178D01*
X106056830Y-42823004D01*
X105943170Y-42823004D01*
X105831695Y-42845178D01*
X105726688Y-42888673D01*
X105632184Y-42951819D01*
X105551815Y-43032188D01*
X105488669Y-43126692D01*
X105445174Y-43231699D01*
X105423000Y-43343174D01*
X105423000Y-43443846D01*
X100699584Y-48167262D01*
X100518313Y-48167262D01*
X100447128Y-48096077D01*
X100441105Y-48092053D01*
X105856159Y-42677000D01*
X105956830Y-42677000D01*
X106068305Y-42654826D01*
X106173312Y-42611331D01*
X106267816Y-42548185D01*
X106348185Y-42467816D01*
X106411331Y-42373312D01*
X106454826Y-42268305D01*
X106477000Y-42156830D01*
X106477000Y-42043170D01*
X106454826Y-41931695D01*
X106411331Y-41826688D01*
X106348185Y-41732184D01*
X106267816Y-41651815D01*
X106173312Y-41588669D01*
X106068305Y-41545174D01*
X105956830Y-41523000D01*
X105843170Y-41523000D01*
X105731695Y-41545174D01*
X105626688Y-41588669D01*
X105532184Y-41651815D01*
X105451815Y-41732184D01*
X105388669Y-41826688D01*
X105345174Y-41931695D01*
X105323000Y-42043170D01*
X105323000Y-42143841D01*
X99929842Y-47537000D01*
X99753001Y-47537000D01*
X99681816Y-47465815D01*
X99587312Y-47402669D01*
X99482305Y-47359174D01*
X99370830Y-47337000D01*
X99257170Y-47337000D01*
X99145695Y-47359174D01*
X99040688Y-47402669D01*
X98946184Y-47465815D01*
X98865815Y-47546184D01*
X98802669Y-47640688D01*
X98759174Y-47745695D01*
X98737000Y-47857170D01*
X98413837Y-47857170D01*
X98427000Y-47791000D01*
X98427000Y-47569000D01*
X98383690Y-47351266D01*
X98298734Y-47146165D01*
X98175398Y-46961579D01*
X98018421Y-46804602D01*
X97833835Y-46681266D01*
X97628734Y-46596310D01*
X97411000Y-46553000D01*
X97189000Y-46553000D01*
X96971266Y-46596310D01*
X96766165Y-46681266D01*
X96581579Y-46804602D01*
X96424602Y-46961579D01*
X96301266Y-47146165D01*
X96216310Y-47351266D01*
X96173000Y-47569000D01*
X96173000Y-47791000D01*
X96216310Y-48008734D01*
X96301266Y-48213835D01*
X96424602Y-48398421D01*
X96581579Y-48555398D01*
X96766165Y-48678734D01*
X96971266Y-48763690D01*
X97189000Y-48807000D01*
X97411000Y-48807000D01*
X97628734Y-48763690D01*
X97635569Y-48760859D01*
X99529053Y-50654344D01*
X99545552Y-50674448D01*
X99625798Y-50740304D01*
X99717350Y-50789239D01*
X99807859Y-50816695D01*
X99816690Y-50819374D01*
X99920000Y-50829549D01*
X99945881Y-50827000D01*
X100433001Y-50827000D01*
X100389815Y-50870186D01*
X100326669Y-50964690D01*
X100283174Y-51069697D01*
X100261000Y-51181172D01*
X100261000Y-51294832D01*
X100283174Y-51406307D01*
X100326669Y-51511314D01*
X100389815Y-51605818D01*
X100470184Y-51686187D01*
X100564688Y-51749333D01*
X100669695Y-51792828D01*
X100781170Y-51815002D01*
X100894830Y-51815002D01*
X101006305Y-51792828D01*
X101111312Y-51749333D01*
X101205816Y-51686187D01*
X101286185Y-51605818D01*
X101305441Y-51577000D01*
X103587123Y-51577000D01*
X103585174Y-51581705D01*
X103563000Y-51693180D01*
X103563000Y-51806840D01*
X103585174Y-51918315D01*
X103597056Y-51947000D01*
X102039001Y-51947000D01*
X101967816Y-51875815D01*
X101873312Y-51812669D01*
X101768305Y-51769174D01*
X101656830Y-51747000D01*
X101543170Y-51747000D01*
X101431695Y-51769174D01*
X101326688Y-51812669D01*
X101232184Y-51875815D01*
X101151815Y-51956184D01*
X101088669Y-52050688D01*
X101045174Y-52155695D01*
X101023000Y-52267170D01*
X101023000Y-52380830D01*
X101045174Y-52492305D01*
X101047119Y-52497001D01*
X99004160Y-52497001D01*
X98300727Y-51793568D01*
X98365690Y-51636734D01*
X98409000Y-51419000D01*
X98409000Y-51197000D01*
X98365690Y-50979266D01*
X98280734Y-50774165D01*
X98157398Y-50589579D01*
X98000421Y-50432602D01*
X97815835Y-50309266D01*
X97610734Y-50224310D01*
X97393000Y-50181000D01*
X97171000Y-50181000D01*
X96953266Y-50224310D01*
X96748165Y-50309266D01*
X96563579Y-50432602D01*
X96406602Y-50589579D01*
X96283266Y-50774165D01*
X96198310Y-50979266D01*
X96155000Y-51197000D01*
X95152000Y-51197000D01*
X95152000Y-45029000D01*
X96173000Y-45029000D01*
X96173000Y-45251000D01*
X96216310Y-45468734D01*
X96301266Y-45673835D01*
X96424602Y-45858421D01*
X96581579Y-46015398D01*
X96766165Y-46138734D01*
X96971266Y-46223690D01*
X97189000Y-46267000D01*
X97411000Y-46267000D01*
X97628734Y-46223690D01*
X97833835Y-46138734D01*
X98018421Y-46015398D01*
X98175398Y-45858421D01*
X98298734Y-45673835D01*
X98383690Y-45468734D01*
X98427000Y-45251000D01*
X98427000Y-45029000D01*
X98383690Y-44811266D01*
X98298734Y-44606165D01*
X98175398Y-44421579D01*
X98018421Y-44264602D01*
X97833835Y-44141266D01*
X97628734Y-44056310D01*
X97411000Y-44013000D01*
X97189000Y-44013000D01*
X96971266Y-44056310D01*
X96766165Y-44141266D01*
X96581579Y-44264602D01*
X96424602Y-44421579D01*
X96301266Y-44606165D01*
X96216310Y-44811266D01*
X96173000Y-45029000D01*
X95152000Y-45029000D01*
X95152000Y-42489000D01*
X96173000Y-42489000D01*
X96173000Y-42711000D01*
X96216310Y-42928734D01*
X96301266Y-43133835D01*
X96424602Y-43318421D01*
X96581579Y-43475398D01*
X96766165Y-43598734D01*
X96971266Y-43683690D01*
X97189000Y-43727000D01*
X97411000Y-43727000D01*
X97628734Y-43683690D01*
X97833835Y-43598734D01*
X98018421Y-43475398D01*
X98175398Y-43318421D01*
X98298734Y-43133835D01*
X98383690Y-42928734D01*
X98427000Y-42711000D01*
X98427000Y-42489000D01*
X98383690Y-42271266D01*
X98298734Y-42066165D01*
X98175398Y-41881579D01*
X98018421Y-41724602D01*
X97833835Y-41601266D01*
X97628734Y-41516310D01*
X97411000Y-41473000D01*
X97189000Y-41473000D01*
X96971266Y-41516310D01*
X96766165Y-41601266D01*
X96581579Y-41724602D01*
X96424602Y-41881579D01*
X96301266Y-42066165D01*
X96216310Y-42271266D01*
X96173000Y-42489000D01*
X95152000Y-42489000D01*
X95152000Y-39949000D01*
X96173000Y-39949000D01*
X96173000Y-40171000D01*
X96216310Y-40388734D01*
X96301266Y-40593835D01*
X96424602Y-40778421D01*
X96581579Y-40935398D01*
X96766165Y-41058734D01*
X96971266Y-41143690D01*
X97189000Y-41187000D01*
X97411000Y-41187000D01*
X97628734Y-41143690D01*
X97833835Y-41058734D01*
X98018421Y-40935398D01*
X98175398Y-40778421D01*
X98298734Y-40593835D01*
X98383690Y-40388734D01*
X98427000Y-40171000D01*
X98427000Y-39949000D01*
X98383690Y-39731266D01*
X98298734Y-39526165D01*
X98175398Y-39341579D01*
X98018421Y-39184602D01*
X97833835Y-39061266D01*
X97628734Y-38976310D01*
X97411000Y-38933000D01*
X97189000Y-38933000D01*
X96971266Y-38976310D01*
X96766165Y-39061266D01*
X96581579Y-39184602D01*
X96424602Y-39341579D01*
X96301266Y-39526165D01*
X96216310Y-39731266D01*
X96173000Y-39949000D01*
X95152000Y-39949000D01*
X95152000Y-35830000D01*
X95811928Y-35830000D01*
X95824188Y-35954482D01*
X95860498Y-36074180D01*
X95919463Y-36184494D01*
X95998815Y-36281185D01*
X96095506Y-36360537D01*
X96205820Y-36419502D01*
X96325518Y-36455812D01*
X96450000Y-36468072D01*
X96900508Y-36465619D01*
X96766165Y-36521266D01*
X96581579Y-36644602D01*
X96424602Y-36801579D01*
X96301266Y-36986165D01*
X96216310Y-37191266D01*
X96173000Y-37409000D01*
X96173000Y-37631000D01*
X96216310Y-37848734D01*
X96301266Y-38053835D01*
X96424602Y-38238421D01*
X96581579Y-38395398D01*
X96766165Y-38518734D01*
X96971266Y-38603690D01*
X97189000Y-38647000D01*
X97411000Y-38647000D01*
X97628734Y-38603690D01*
X97833835Y-38518734D01*
X98018421Y-38395398D01*
X98175398Y-38238421D01*
X98298734Y-38053835D01*
X98383690Y-37848734D01*
X98427000Y-37631000D01*
X98427000Y-37409000D01*
X98383690Y-37191266D01*
X98298734Y-36986165D01*
X98175398Y-36801579D01*
X98018421Y-36644602D01*
X97833835Y-36521266D01*
X97699492Y-36465619D01*
X98150000Y-36468072D01*
X98274482Y-36455812D01*
X98394180Y-36419502D01*
X98504494Y-36360537D01*
X98601185Y-36281185D01*
X98680537Y-36184494D01*
X98739502Y-36074180D01*
X98775812Y-35954482D01*
X98788072Y-35830000D01*
X98785000Y-35265750D01*
X98626250Y-35107000D01*
X97427000Y-35107000D01*
X97427000Y-35127000D01*
X97173000Y-35127000D01*
X97173000Y-35107000D01*
X95973750Y-35107000D01*
X95815000Y-35265750D01*
X95811928Y-35830000D01*
X95152000Y-35830000D01*
X95152000Y-34130000D01*
X95811928Y-34130000D01*
X95815000Y-34694250D01*
X95973750Y-34853000D01*
X97173000Y-34853000D01*
X97173000Y-33653750D01*
X97427000Y-33653750D01*
X97427000Y-34853000D01*
X98626250Y-34853000D01*
X98785000Y-34694250D01*
X98788072Y-34130000D01*
X98775812Y-34005518D01*
X98739502Y-33885820D01*
X98680537Y-33775506D01*
X98601185Y-33678815D01*
X98504494Y-33599463D01*
X98394180Y-33540498D01*
X98274482Y-33504188D01*
X98150000Y-33491928D01*
X97585750Y-33495000D01*
X97427000Y-33653750D01*
X97173000Y-33653750D01*
X97014250Y-33495000D01*
X96450000Y-33491928D01*
X96325518Y-33504188D01*
X96205820Y-33540498D01*
X96095506Y-33599463D01*
X95998815Y-33678815D01*
X95919463Y-33775506D01*
X95860498Y-33885820D01*
X95824188Y-34005518D01*
X95811928Y-34130000D01*
X95152000Y-34130000D01*
X95152000Y-29007439D01*
X95168866Y-28835431D01*
X95216660Y-28677129D01*
X95294289Y-28531128D01*
X95398800Y-28402985D01*
X95526209Y-28297582D01*
X95671671Y-28218931D01*
X95829631Y-28170034D01*
X96001211Y-28152000D01*
X101473000Y-28152000D01*
X101473000Y-34200000D01*
G04 #@! TA.AperFunction,Conductor*
D20*
G36*
X101473000Y-34200000D02*
G01*
X101475440Y-34224776D01*
X101482667Y-34248601D01*
X101494403Y-34270557D01*
X101510197Y-34289803D01*
X101529443Y-34305597D01*
X101551399Y-34317333D01*
X101575224Y-34324560D01*
X101600000Y-34327000D01*
X130200000Y-34327000D01*
X130224776Y-34324560D01*
X130248601Y-34317333D01*
X130270557Y-34305597D01*
X130289803Y-34289803D01*
X130305597Y-34270557D01*
X130317333Y-34248601D01*
X130324560Y-34224776D01*
X130327000Y-34200000D01*
X130327000Y-28152000D01*
X135992561Y-28152000D01*
X136164569Y-28168866D01*
X136322871Y-28216660D01*
X136468872Y-28294289D01*
X136597015Y-28398800D01*
X136702418Y-28526209D01*
X136781069Y-28671671D01*
X136829966Y-28829631D01*
X136848000Y-29001211D01*
X136848001Y-71992552D01*
X136831134Y-72164569D01*
X136783340Y-72322871D01*
X136705710Y-72468873D01*
X136601200Y-72597015D01*
X136473788Y-72702419D01*
X136328328Y-72781069D01*
X136170369Y-72829966D01*
X135998789Y-72848000D01*
X96007438Y-72848000D01*
X95835431Y-72831134D01*
X95677129Y-72783340D01*
X95531127Y-72705710D01*
X95402985Y-72601200D01*
X95297581Y-72473788D01*
X95218931Y-72328328D01*
X95170034Y-72170369D01*
X95152000Y-71998789D01*
X95152000Y-71850000D01*
X109211928Y-71850000D01*
X109224188Y-71974482D01*
X109260498Y-72094180D01*
X109319463Y-72204494D01*
X109398815Y-72301185D01*
X109495506Y-72380537D01*
X109605820Y-72439502D01*
X109725518Y-72475812D01*
X109850000Y-72488072D01*
X110414250Y-72485000D01*
X110573000Y-72326250D01*
X110573000Y-71127000D01*
X109373750Y-71127000D01*
X109215000Y-71285750D01*
X109211928Y-71850000D01*
X95152000Y-71850000D01*
X95152000Y-70809170D01*
X100261000Y-70809170D01*
X100261000Y-70922830D01*
X100283174Y-71034305D01*
X100326669Y-71139312D01*
X100389815Y-71233816D01*
X100470184Y-71314185D01*
X100564688Y-71377331D01*
X100669695Y-71420826D01*
X100781170Y-71443000D01*
X100894830Y-71443000D01*
X101006305Y-71420826D01*
X101111312Y-71377331D01*
X101205816Y-71314185D01*
X101277001Y-71243000D01*
X104121488Y-71243000D01*
X104140000Y-71244823D01*
X104158512Y-71243000D01*
X104158519Y-71243000D01*
X104213905Y-71237545D01*
X104284970Y-71215988D01*
X104350463Y-71180981D01*
X104407869Y-71133869D01*
X104419677Y-71119481D01*
X104901481Y-70637677D01*
X104915869Y-70625869D01*
X104962981Y-70568463D01*
X104997988Y-70502970D01*
X105019545Y-70431905D01*
X105025000Y-70376519D01*
X105025000Y-70376510D01*
X105026823Y-70358001D01*
X105025000Y-70339492D01*
X105025000Y-69768023D01*
X105074412Y-69834269D01*
X105290645Y-70029178D01*
X105540748Y-70178157D01*
X105815109Y-70275481D01*
X106045000Y-70154814D01*
X106045000Y-68961000D01*
X106299000Y-68961000D01*
X106299000Y-70154814D01*
X106528891Y-70275481D01*
X106803252Y-70178157D01*
X106850521Y-70150000D01*
X109211928Y-70150000D01*
X109215000Y-70714250D01*
X109373750Y-70873000D01*
X110573000Y-70873000D01*
X110573000Y-69673750D01*
X110827000Y-69673750D01*
X110827000Y-70873000D01*
X110847000Y-70873000D01*
X110847000Y-71127000D01*
X110827000Y-71127000D01*
X110827000Y-72326250D01*
X110985750Y-72485000D01*
X111550000Y-72488072D01*
X111674482Y-72475812D01*
X111794180Y-72439502D01*
X111904494Y-72380537D01*
X112001185Y-72301185D01*
X112080537Y-72204494D01*
X112139502Y-72094180D01*
X112175812Y-71974482D01*
X112188072Y-71850000D01*
X112185619Y-71399492D01*
X112241266Y-71533835D01*
X112364602Y-71718421D01*
X112521579Y-71875398D01*
X112706165Y-71998734D01*
X112911266Y-72083690D01*
X113129000Y-72127000D01*
X113351000Y-72127000D01*
X113568734Y-72083690D01*
X113773835Y-71998734D01*
X113958421Y-71875398D01*
X114115398Y-71718421D01*
X114238734Y-71533835D01*
X114323690Y-71328734D01*
X114367000Y-71111000D01*
X114367000Y-70889000D01*
X114323690Y-70671266D01*
X114279437Y-70564431D01*
X115316869Y-69527000D01*
X116649130Y-69527000D01*
X116215568Y-69960562D01*
X116108734Y-69916310D01*
X115891000Y-69873000D01*
X115669000Y-69873000D01*
X115451266Y-69916310D01*
X115246165Y-70001266D01*
X115061579Y-70124602D01*
X114904602Y-70281579D01*
X114781266Y-70466165D01*
X114696310Y-70671266D01*
X114653000Y-70889000D01*
X114653000Y-71111000D01*
X114696310Y-71328734D01*
X114781266Y-71533835D01*
X114904602Y-71718421D01*
X115061579Y-71875398D01*
X115246165Y-71998734D01*
X115451266Y-72083690D01*
X115669000Y-72127000D01*
X115891000Y-72127000D01*
X116108734Y-72083690D01*
X116313835Y-71998734D01*
X116498421Y-71875398D01*
X116655398Y-71718421D01*
X116778734Y-71533835D01*
X116863690Y-71328734D01*
X116907000Y-71111000D01*
X116907000Y-70889000D01*
X116863690Y-70671266D01*
X116819438Y-70564432D01*
X117256881Y-70126989D01*
X117599192Y-70126989D01*
X117444602Y-70281579D01*
X117321266Y-70466165D01*
X117236310Y-70671266D01*
X117193000Y-70889000D01*
X117193000Y-71111000D01*
X117236310Y-71328734D01*
X117321266Y-71533835D01*
X117444602Y-71718421D01*
X117601579Y-71875398D01*
X117786165Y-71998734D01*
X117991266Y-72083690D01*
X118209000Y-72127000D01*
X118431000Y-72127000D01*
X118648734Y-72083690D01*
X118853835Y-71998734D01*
X119038421Y-71875398D01*
X119195398Y-71718421D01*
X119318734Y-71533835D01*
X119403690Y-71328734D01*
X119447000Y-71111000D01*
X119447000Y-70889000D01*
X119403690Y-70671266D01*
X119318734Y-70466165D01*
X119195398Y-70281579D01*
X119040808Y-70126989D01*
X123718348Y-70126989D01*
X123678673Y-70201216D01*
X123634243Y-70347681D01*
X123619241Y-70500000D01*
X123634243Y-70652319D01*
X123678673Y-70798784D01*
X123750823Y-70933766D01*
X123847920Y-71052080D01*
X123966234Y-71149177D01*
X124101216Y-71221327D01*
X124247681Y-71265757D01*
X124361834Y-71277000D01*
X126761837Y-71277000D01*
X126800000Y-71280759D01*
X126838163Y-71277000D01*
X126838166Y-71277000D01*
X126952319Y-71265757D01*
X127098784Y-71221327D01*
X127233766Y-71149177D01*
X127352080Y-71052080D01*
X127376412Y-71022431D01*
X128421844Y-69977000D01*
X132338166Y-69977000D01*
X132452319Y-69965757D01*
X132598784Y-69921327D01*
X132733766Y-69849177D01*
X132852080Y-69752080D01*
X132949177Y-69633766D01*
X133021327Y-69498784D01*
X133065757Y-69352319D01*
X133080759Y-69200000D01*
X133065757Y-69047681D01*
X133021327Y-68901216D01*
X132949177Y-68766234D01*
X132852080Y-68647920D01*
X132733766Y-68550823D01*
X132598784Y-68478673D01*
X132452319Y-68434243D01*
X132338166Y-68423000D01*
X129975843Y-68423000D01*
X135082436Y-63316408D01*
X135112080Y-63292080D01*
X135192406Y-63194202D01*
X135209177Y-63173767D01*
X135281327Y-63038784D01*
X135301377Y-62972688D01*
X135325757Y-62892319D01*
X135337000Y-62778166D01*
X135337000Y-62778157D01*
X135340758Y-62740001D01*
X135337000Y-62701845D01*
X135337000Y-59651834D01*
X135325757Y-59537681D01*
X135281327Y-59391216D01*
X135215052Y-59267225D01*
X135188492Y-59179670D01*
X135125628Y-59062059D01*
X135041026Y-58958973D01*
X134937940Y-58874372D01*
X134820329Y-58811508D01*
X134692714Y-58772796D01*
X134560000Y-58759725D01*
X134427285Y-58772796D01*
X134299670Y-58811508D01*
X134182059Y-58874372D01*
X134078973Y-58958974D01*
X133994372Y-59062060D01*
X133935000Y-59173137D01*
X133875628Y-59062059D01*
X133791026Y-58958973D01*
X133687940Y-58874372D01*
X133570329Y-58811508D01*
X133442714Y-58772796D01*
X133310000Y-58759725D01*
X133177285Y-58772796D01*
X133049670Y-58811508D01*
X132932059Y-58874372D01*
X132828973Y-58958974D01*
X132744372Y-59062060D01*
X132685000Y-59173137D01*
X132625628Y-59062059D01*
X132541026Y-58958973D01*
X132437940Y-58874372D01*
X132437000Y-58873870D01*
X132437000Y-57148508D01*
X132438823Y-57129999D01*
X132437000Y-57111490D01*
X132437000Y-57111481D01*
X132431545Y-57056095D01*
X132409988Y-56985030D01*
X132374981Y-56919537D01*
X132327869Y-56862131D01*
X132313487Y-56850328D01*
X131133000Y-55669842D01*
X131133000Y-55569170D01*
X131110826Y-55457695D01*
X131067331Y-55352688D01*
X131004185Y-55258184D01*
X130923816Y-55177815D01*
X130829312Y-55114669D01*
X130724305Y-55071174D01*
X130612830Y-55049000D01*
X130499170Y-55049000D01*
X130387695Y-55071174D01*
X130282688Y-55114669D01*
X130188184Y-55177815D01*
X130107815Y-55258184D01*
X130044669Y-55352688D01*
X130001174Y-55457695D01*
X129979000Y-55569170D01*
X129979000Y-55682830D01*
X130001174Y-55794305D01*
X130044669Y-55899312D01*
X130107815Y-55993816D01*
X130188184Y-56074185D01*
X130282688Y-56137331D01*
X130387695Y-56180826D01*
X130499170Y-56203000D01*
X130599842Y-56203000D01*
X131683001Y-57286160D01*
X131683000Y-58615397D01*
X131661185Y-58588815D01*
X131564494Y-58509463D01*
X131454180Y-58450498D01*
X131334482Y-58414188D01*
X131210000Y-58401928D01*
X131095750Y-58405000D01*
X130937000Y-58563750D01*
X130937000Y-59563000D01*
X130957000Y-59563000D01*
X130957000Y-59817000D01*
X130937000Y-59817000D01*
X130937000Y-60816250D01*
X131095750Y-60975000D01*
X131210000Y-60978072D01*
X131334482Y-60965812D01*
X131454180Y-60929502D01*
X131564494Y-60870537D01*
X131633001Y-60814315D01*
X131633001Y-61311130D01*
X124271132Y-68673000D01*
X115160967Y-68673000D01*
X115140000Y-68670935D01*
X115119033Y-68673000D01*
X115119022Y-68673000D01*
X115056293Y-68679178D01*
X114975804Y-68703595D01*
X114969434Y-68707000D01*
X114901623Y-68743244D01*
X114852899Y-68783232D01*
X114852895Y-68783236D01*
X114836605Y-68796605D01*
X114823236Y-68812895D01*
X113675569Y-69960563D01*
X113568734Y-69916310D01*
X113351000Y-69873000D01*
X113129000Y-69873000D01*
X112911266Y-69916310D01*
X112706165Y-70001266D01*
X112521579Y-70124602D01*
X112364602Y-70281579D01*
X112241266Y-70466165D01*
X112185619Y-70600508D01*
X112188072Y-70150000D01*
X112175812Y-70025518D01*
X112139502Y-69905820D01*
X112080537Y-69795506D01*
X112001185Y-69698815D01*
X111904494Y-69619463D01*
X111794180Y-69560498D01*
X111674482Y-69524188D01*
X111550000Y-69511928D01*
X110985750Y-69515000D01*
X110827000Y-69673750D01*
X110573000Y-69673750D01*
X110414250Y-69515000D01*
X109850000Y-69511928D01*
X109725518Y-69524188D01*
X109605820Y-69560498D01*
X109495506Y-69619463D01*
X109398815Y-69698815D01*
X109319463Y-69795506D01*
X109260498Y-69905820D01*
X109224188Y-70025518D01*
X109211928Y-70150000D01*
X106850521Y-70150000D01*
X107053355Y-70029178D01*
X107269588Y-69834269D01*
X107443641Y-69600920D01*
X107568825Y-69338099D01*
X107613476Y-69190890D01*
X107492155Y-68961000D01*
X106299000Y-68961000D01*
X106045000Y-68961000D01*
X106025000Y-68961000D01*
X106025000Y-68707000D01*
X106045000Y-68707000D01*
X106045000Y-68687000D01*
X106299000Y-68687000D01*
X106299000Y-68707000D01*
X107492155Y-68707000D01*
X107613476Y-68477110D01*
X107568825Y-68329901D01*
X107443641Y-68067080D01*
X107269588Y-67833731D01*
X107053355Y-67638822D01*
X106803252Y-67489843D01*
X106528891Y-67392519D01*
X106299002Y-67513185D01*
X106299002Y-67417817D01*
X106500734Y-67377690D01*
X106705835Y-67292734D01*
X106890421Y-67169398D01*
X107047398Y-67012421D01*
X107170734Y-66827835D01*
X107255690Y-66622734D01*
X107299000Y-66405000D01*
X107299000Y-66183000D01*
X107255690Y-65965266D01*
X107170734Y-65760165D01*
X107047398Y-65575579D01*
X106890421Y-65418602D01*
X106705835Y-65295266D01*
X106500734Y-65210310D01*
X106283000Y-65167000D01*
X106061000Y-65167000D01*
X105843266Y-65210310D01*
X105638165Y-65295266D01*
X105453579Y-65418602D01*
X105296602Y-65575579D01*
X105173266Y-65760165D01*
X105088310Y-65965266D01*
X105045000Y-66183000D01*
X105045000Y-66405000D01*
X105088310Y-66622734D01*
X105153273Y-66779569D01*
X104394519Y-67538323D01*
X104380131Y-67550131D01*
X104333019Y-67607538D01*
X104316297Y-67638822D01*
X104298012Y-67673031D01*
X104279444Y-67734244D01*
X104276455Y-67744096D01*
X104271000Y-67799482D01*
X104271000Y-67799488D01*
X104269177Y-67818000D01*
X104271000Y-67836512D01*
X104271000Y-67945977D01*
X104221588Y-67879731D01*
X104005355Y-67684822D01*
X103755252Y-67535843D01*
X103480891Y-67438519D01*
X103251002Y-67559185D01*
X103251002Y-67463817D01*
X103452734Y-67423690D01*
X103657835Y-67338734D01*
X103842421Y-67215398D01*
X103999398Y-67058421D01*
X104122734Y-66873835D01*
X104207690Y-66668734D01*
X104251000Y-66451000D01*
X104251000Y-66229000D01*
X104207690Y-66011266D01*
X104122734Y-65806165D01*
X103999398Y-65621579D01*
X103842421Y-65464602D01*
X103657835Y-65341266D01*
X103452734Y-65256310D01*
X103235000Y-65213000D01*
X103013000Y-65213000D01*
X102795266Y-65256310D01*
X102590165Y-65341266D01*
X102405579Y-65464602D01*
X102248602Y-65621579D01*
X102125266Y-65806165D01*
X102040310Y-66011266D01*
X101997000Y-66229000D01*
X101997000Y-66451000D01*
X102040310Y-66668734D01*
X102125266Y-66873835D01*
X102248602Y-67058421D01*
X102405579Y-67215398D01*
X102590165Y-67338734D01*
X102795266Y-67423690D01*
X102996998Y-67463817D01*
X102996998Y-67559185D01*
X102767109Y-67438519D01*
X102492748Y-67535843D01*
X102242645Y-67684822D01*
X102026412Y-67879731D01*
X101852359Y-68113080D01*
X101727175Y-68375901D01*
X101682524Y-68523110D01*
X101803845Y-68753000D01*
X102997000Y-68753000D01*
X102997000Y-68733000D01*
X103251000Y-68733000D01*
X103251000Y-68753000D01*
X103271000Y-68753000D01*
X103271000Y-69007000D01*
X103251000Y-69007000D01*
X103251000Y-70200814D01*
X103480891Y-70321481D01*
X103755252Y-70224157D01*
X104005355Y-70075178D01*
X104221588Y-69880269D01*
X104271001Y-69814022D01*
X104271001Y-70201841D01*
X103983842Y-70489000D01*
X101277001Y-70489000D01*
X101205816Y-70417815D01*
X101111312Y-70354669D01*
X101006305Y-70311174D01*
X100894830Y-70289000D01*
X100781170Y-70289000D01*
X100669695Y-70311174D01*
X100564688Y-70354669D01*
X100470184Y-70417815D01*
X100389815Y-70498184D01*
X100326669Y-70592688D01*
X100283174Y-70697695D01*
X100261000Y-70809170D01*
X95152000Y-70809170D01*
X95152000Y-69236890D01*
X101682524Y-69236890D01*
X101727175Y-69384099D01*
X101852359Y-69646920D01*
X102026412Y-69880269D01*
X102242645Y-70075178D01*
X102492748Y-70224157D01*
X102767109Y-70321481D01*
X102997000Y-70200814D01*
X102997000Y-69007000D01*
X101803845Y-69007000D01*
X101682524Y-69236890D01*
X95152000Y-69236890D01*
X95152000Y-67698170D01*
X97912000Y-67698170D01*
X97912000Y-67811830D01*
X97934174Y-67923305D01*
X97977669Y-68028312D01*
X98040815Y-68122816D01*
X98121184Y-68203185D01*
X98215688Y-68266331D01*
X98320695Y-68309826D01*
X98432170Y-68332000D01*
X98545830Y-68332000D01*
X98657305Y-68309826D01*
X98762312Y-68266331D01*
X98856816Y-68203185D01*
X98937185Y-68122816D01*
X99000331Y-68028312D01*
X99043826Y-67923305D01*
X99066000Y-67811830D01*
X99066000Y-67711158D01*
X99567487Y-67209672D01*
X99581869Y-67197869D01*
X99628981Y-67140463D01*
X99663988Y-67074970D01*
X99685545Y-67003905D01*
X99691000Y-66948519D01*
X99691000Y-66948510D01*
X99692823Y-66930001D01*
X99691000Y-66911492D01*
X99691000Y-66835798D01*
X99739688Y-66868331D01*
X99844695Y-66911826D01*
X99956170Y-66934000D01*
X100069830Y-66934000D01*
X100181305Y-66911826D01*
X100286312Y-66868331D01*
X100380816Y-66805185D01*
X100461185Y-66724816D01*
X100524331Y-66630312D01*
X100567826Y-66525305D01*
X100590000Y-66413830D01*
X100590000Y-66300170D01*
X100567826Y-66188695D01*
X100524331Y-66083688D01*
X100461185Y-65989184D01*
X100453000Y-65980999D01*
X100453000Y-63685001D01*
X100524185Y-63613816D01*
X100587331Y-63519312D01*
X100630826Y-63414305D01*
X100653000Y-63302830D01*
X100653000Y-63189170D01*
X100630826Y-63077695D01*
X100587331Y-62972688D01*
X100572172Y-62950000D01*
X101995660Y-62950000D01*
X101995660Y-64650000D01*
X102001008Y-64704301D01*
X102016847Y-64756516D01*
X102042569Y-64804637D01*
X102077184Y-64846816D01*
X102119363Y-64881431D01*
X102167484Y-64907153D01*
X102219699Y-64922992D01*
X102274000Y-64928340D01*
X103974000Y-64928340D01*
X104028301Y-64922992D01*
X104080516Y-64907153D01*
X104128637Y-64881431D01*
X104170816Y-64846816D01*
X104205431Y-64804637D01*
X104231153Y-64756516D01*
X104246992Y-64704301D01*
X104252340Y-64650000D01*
X104252340Y-62950000D01*
X104247810Y-62904000D01*
X105043660Y-62904000D01*
X105043660Y-64604000D01*
X105049008Y-64658301D01*
X105064847Y-64710516D01*
X105090569Y-64758637D01*
X105125184Y-64800816D01*
X105167363Y-64835431D01*
X105215484Y-64861153D01*
X105267699Y-64876992D01*
X105322000Y-64882340D01*
X107022000Y-64882340D01*
X107076301Y-64876992D01*
X107128516Y-64861153D01*
X107176637Y-64835431D01*
X107218816Y-64800816D01*
X107253431Y-64758637D01*
X107279153Y-64710516D01*
X107294992Y-64658301D01*
X107300340Y-64604000D01*
X107300340Y-63427000D01*
X122464517Y-63427000D01*
X122531695Y-63454826D01*
X122643170Y-63477000D01*
X122756830Y-63477000D01*
X122868305Y-63454826D01*
X122973312Y-63411331D01*
X123067816Y-63348185D01*
X123148185Y-63267816D01*
X123211331Y-63173312D01*
X123254826Y-63068305D01*
X123277000Y-62956830D01*
X123277000Y-62843170D01*
X123254826Y-62731695D01*
X123211331Y-62626688D01*
X123148185Y-62532184D01*
X123067816Y-62451815D01*
X122973312Y-62388669D01*
X122868305Y-62345174D01*
X122756830Y-62323000D01*
X122643170Y-62323000D01*
X122531695Y-62345174D01*
X122464517Y-62373000D01*
X107051877Y-62373000D01*
X107025999Y-62370451D01*
X107000121Y-62373000D01*
X107000119Y-62373000D01*
X106922690Y-62380626D01*
X106823350Y-62410761D01*
X106731798Y-62459696D01*
X106651552Y-62525552D01*
X106635049Y-62545661D01*
X106555050Y-62625660D01*
X105322000Y-62625660D01*
X105267699Y-62631008D01*
X105215484Y-62646847D01*
X105167363Y-62672569D01*
X105125184Y-62707184D01*
X105090569Y-62749363D01*
X105064847Y-62797484D01*
X105049008Y-62849699D01*
X105043660Y-62904000D01*
X104247810Y-62904000D01*
X104246992Y-62895699D01*
X104231153Y-62843484D01*
X104205431Y-62795363D01*
X104170816Y-62753184D01*
X104128637Y-62718569D01*
X104080516Y-62692847D01*
X104028301Y-62677008D01*
X103974000Y-62671660D01*
X102274000Y-62671660D01*
X102219699Y-62677008D01*
X102167484Y-62692847D01*
X102119363Y-62718569D01*
X102077184Y-62753184D01*
X102042569Y-62795363D01*
X102016847Y-62843484D01*
X102001008Y-62895699D01*
X101995660Y-62950000D01*
X100572172Y-62950000D01*
X100524185Y-62878184D01*
X100443816Y-62797815D01*
X100349312Y-62734669D01*
X100244305Y-62691174D01*
X100132830Y-62669000D01*
X100019170Y-62669000D01*
X99907695Y-62691174D01*
X99802688Y-62734669D01*
X99708184Y-62797815D01*
X99695000Y-62810999D01*
X99681816Y-62797815D01*
X99587312Y-62734669D01*
X99482305Y-62691174D01*
X99370830Y-62669000D01*
X99257170Y-62669000D01*
X99145695Y-62691174D01*
X99040688Y-62734669D01*
X98946184Y-62797815D01*
X98865815Y-62878184D01*
X98802669Y-62972688D01*
X98759174Y-63077695D01*
X98737000Y-63189170D01*
X98737000Y-63302830D01*
X98759174Y-63414305D01*
X98802669Y-63519312D01*
X98865815Y-63613816D01*
X98937000Y-63685001D01*
X98937001Y-66773840D01*
X98532842Y-67178000D01*
X98432170Y-67178000D01*
X98320695Y-67200174D01*
X98215688Y-67243669D01*
X98121184Y-67306815D01*
X98040815Y-67387184D01*
X97977669Y-67481688D01*
X97934174Y-67586695D01*
X97912000Y-67698170D01*
X95152000Y-67698170D01*
X95152000Y-62318000D01*
X95793928Y-62318000D01*
X95806188Y-62442482D01*
X95842498Y-62562180D01*
X95901463Y-62672494D01*
X95980815Y-62769185D01*
X96077506Y-62848537D01*
X96187820Y-62907502D01*
X96307518Y-62943812D01*
X96432000Y-62956072D01*
X96996250Y-62953000D01*
X97155000Y-62794250D01*
X97155000Y-61595000D01*
X97409000Y-61595000D01*
X97409000Y-62794250D01*
X97567750Y-62953000D01*
X98132000Y-62956072D01*
X98256482Y-62943812D01*
X98376180Y-62907502D01*
X98486494Y-62848537D01*
X98583185Y-62769185D01*
X98662537Y-62672494D01*
X98721502Y-62562180D01*
X98757812Y-62442482D01*
X98770072Y-62318000D01*
X98767000Y-61753750D01*
X98608250Y-61595000D01*
X97409000Y-61595000D01*
X97155000Y-61595000D01*
X95955750Y-61595000D01*
X95797000Y-61753750D01*
X95793928Y-62318000D01*
X95152000Y-62318000D01*
X95152000Y-60618000D01*
X95793928Y-60618000D01*
X95797000Y-61182250D01*
X95955750Y-61341000D01*
X97155000Y-61341000D01*
X97155000Y-61321000D01*
X97409000Y-61321000D01*
X97409000Y-61341000D01*
X98608250Y-61341000D01*
X98767000Y-61182250D01*
X98770072Y-60618000D01*
X98757812Y-60493518D01*
X98721502Y-60373820D01*
X98662537Y-60263506D01*
X98583185Y-60166815D01*
X98486494Y-60087463D01*
X98376180Y-60028498D01*
X98256482Y-59992188D01*
X98132000Y-59979928D01*
X97681492Y-59982381D01*
X97815835Y-59926734D01*
X98000421Y-59803398D01*
X98157398Y-59646421D01*
X98280734Y-59461835D01*
X98324987Y-59355000D01*
X100448999Y-59355000D01*
X100470184Y-59376185D01*
X100564688Y-59439331D01*
X100669695Y-59482826D01*
X100781170Y-59505000D01*
X100894830Y-59505000D01*
X101006305Y-59482826D01*
X101111312Y-59439331D01*
X101205816Y-59376185D01*
X101286185Y-59295816D01*
X101349331Y-59201312D01*
X101392826Y-59096305D01*
X101415000Y-58984830D01*
X101415000Y-58871170D01*
X101392826Y-58759695D01*
X101349331Y-58654688D01*
X101286185Y-58560184D01*
X101205816Y-58479815D01*
X101111312Y-58416669D01*
X101006305Y-58373174D01*
X100894830Y-58351000D01*
X100781170Y-58351000D01*
X100669695Y-58373174D01*
X100564688Y-58416669D01*
X100470184Y-58479815D01*
X100448999Y-58501000D01*
X98324987Y-58501000D01*
X98280734Y-58394165D01*
X98157398Y-58209579D01*
X98000421Y-58052602D01*
X97815835Y-57929266D01*
X97610734Y-57844310D01*
X97393000Y-57801000D01*
X97171000Y-57801000D01*
X96953266Y-57844310D01*
X96748165Y-57929266D01*
X96563579Y-58052602D01*
X96406602Y-58209579D01*
X96283266Y-58394165D01*
X96198310Y-58599266D01*
X96155000Y-58817000D01*
X96155000Y-59039000D01*
X96198310Y-59256734D01*
X96283266Y-59461835D01*
X96406602Y-59646421D01*
X96563579Y-59803398D01*
X96748165Y-59926734D01*
X96882508Y-59982381D01*
X96432000Y-59979928D01*
X96307518Y-59992188D01*
X96187820Y-60028498D01*
X96077506Y-60087463D01*
X95980815Y-60166815D01*
X95901463Y-60263506D01*
X95842498Y-60373820D01*
X95806188Y-60493518D01*
X95793928Y-60618000D01*
X95152000Y-60618000D01*
X95152000Y-56277000D01*
X96155000Y-56277000D01*
X96155000Y-56499000D01*
X96198310Y-56716734D01*
X96283266Y-56921835D01*
X96406602Y-57106421D01*
X96563579Y-57263398D01*
X96748165Y-57386734D01*
X96953266Y-57471690D01*
X97171000Y-57515000D01*
X97393000Y-57515000D01*
X97610734Y-57471690D01*
X97815835Y-57386734D01*
X98000421Y-57263398D01*
X98157398Y-57106421D01*
X98280734Y-56921835D01*
X98345697Y-56765000D01*
X103700999Y-56765000D01*
X103772184Y-56836185D01*
X103866688Y-56899331D01*
X103971695Y-56942826D01*
X104083170Y-56965000D01*
X104196830Y-56965000D01*
X104308305Y-56942826D01*
X104413312Y-56899331D01*
X104507816Y-56836185D01*
X104588185Y-56755816D01*
X104651331Y-56661312D01*
X104694826Y-56556305D01*
X104717000Y-56444830D01*
X104717000Y-56331170D01*
X104694826Y-56219695D01*
X104665958Y-56150000D01*
X104871660Y-56150000D01*
X104871660Y-57850000D01*
X104877008Y-57904301D01*
X104892847Y-57956516D01*
X104918569Y-58004637D01*
X104953184Y-58046816D01*
X104995363Y-58081431D01*
X105043484Y-58107153D01*
X105095699Y-58122992D01*
X105150000Y-58128340D01*
X106850000Y-58128340D01*
X106904301Y-58122992D01*
X106923000Y-58117320D01*
X106923000Y-58981488D01*
X106921177Y-59000000D01*
X106923000Y-59018512D01*
X106923000Y-59018518D01*
X106927698Y-59066221D01*
X106928455Y-59073905D01*
X106934004Y-59092196D01*
X106950012Y-59144969D01*
X106985019Y-59210462D01*
X107032131Y-59267869D01*
X107046519Y-59279677D01*
X107241616Y-59474774D01*
X107210000Y-59471660D01*
X105510000Y-59471660D01*
X105455699Y-59477008D01*
X105403484Y-59492847D01*
X105355363Y-59518569D01*
X105313184Y-59553184D01*
X105278569Y-59595363D01*
X105252847Y-59643484D01*
X105237008Y-59695699D01*
X105231660Y-59750000D01*
X105231660Y-61450000D01*
X105237008Y-61504301D01*
X105252847Y-61556516D01*
X105278569Y-61604637D01*
X105313184Y-61646816D01*
X105355363Y-61681431D01*
X105403484Y-61707153D01*
X105455699Y-61722992D01*
X105510000Y-61728340D01*
X107210000Y-61728340D01*
X107264301Y-61722992D01*
X107316516Y-61707153D01*
X107364637Y-61681431D01*
X107406816Y-61646816D01*
X107441431Y-61604637D01*
X107467153Y-61556516D01*
X107482992Y-61504301D01*
X107488340Y-61450000D01*
X107488340Y-59750000D01*
X107485226Y-59718385D01*
X107881273Y-60114432D01*
X107816310Y-60271266D01*
X107773000Y-60489000D01*
X107773000Y-60711000D01*
X107816310Y-60928734D01*
X107901266Y-61133835D01*
X108024602Y-61318421D01*
X108181579Y-61475398D01*
X108366165Y-61598734D01*
X108571266Y-61683690D01*
X108789000Y-61727000D01*
X109011000Y-61727000D01*
X109228734Y-61683690D01*
X109433835Y-61598734D01*
X109618421Y-61475398D01*
X109775398Y-61318421D01*
X109898734Y-61133835D01*
X109983690Y-60928734D01*
X110027000Y-60711000D01*
X110027000Y-60489000D01*
X109983690Y-60271266D01*
X109898734Y-60066165D01*
X109775398Y-59881579D01*
X109618421Y-59724602D01*
X109433835Y-59601266D01*
X109228734Y-59516310D01*
X109011000Y-59473000D01*
X108789000Y-59473000D01*
X108571266Y-59516310D01*
X108414432Y-59581273D01*
X107677000Y-58843842D01*
X107677000Y-58199976D01*
X107773080Y-58271641D01*
X108035901Y-58396825D01*
X108183110Y-58441476D01*
X108413000Y-58320155D01*
X108413000Y-57127000D01*
X108393000Y-57127000D01*
X108393000Y-56873000D01*
X108413000Y-56873000D01*
X108413000Y-55679845D01*
X108667000Y-55679845D01*
X108667000Y-56873000D01*
X108687000Y-56873000D01*
X108687000Y-57127000D01*
X108667000Y-57127000D01*
X108667000Y-58320155D01*
X108896890Y-58441476D01*
X109044099Y-58396825D01*
X109306920Y-58271641D01*
X109540269Y-58097588D01*
X109735178Y-57881355D01*
X109884157Y-57631252D01*
X109981481Y-57356891D01*
X109860815Y-57127002D01*
X109956183Y-57127002D01*
X109996310Y-57328734D01*
X110081266Y-57533835D01*
X110204602Y-57718421D01*
X110361579Y-57875398D01*
X110546165Y-57998734D01*
X110751266Y-58083690D01*
X110969000Y-58127000D01*
X111191000Y-58127000D01*
X111408734Y-58083690D01*
X111613835Y-57998734D01*
X111798421Y-57875398D01*
X111923001Y-57750818D01*
X111923001Y-59580210D01*
X111768734Y-59516310D01*
X111551000Y-59473000D01*
X111329000Y-59473000D01*
X111111266Y-59516310D01*
X110906165Y-59601266D01*
X110721579Y-59724602D01*
X110564602Y-59881579D01*
X110441266Y-60066165D01*
X110356310Y-60271266D01*
X110313000Y-60489000D01*
X110313000Y-60711000D01*
X110356310Y-60928734D01*
X110441266Y-61133835D01*
X110564602Y-61318421D01*
X110721579Y-61475398D01*
X110906165Y-61598734D01*
X111111266Y-61683690D01*
X111329000Y-61727000D01*
X111551000Y-61727000D01*
X111768734Y-61683690D01*
X111973835Y-61598734D01*
X112158421Y-61475398D01*
X112315398Y-61318421D01*
X112438734Y-61133835D01*
X112523690Y-60928734D01*
X112567000Y-60711000D01*
X112567000Y-60489000D01*
X112523690Y-60271266D01*
X112458727Y-60114432D01*
X112553487Y-60019672D01*
X112567869Y-60007869D01*
X112594229Y-59975750D01*
X112604436Y-59963312D01*
X112614981Y-59950463D01*
X112649988Y-59884970D01*
X112651945Y-59878518D01*
X112671545Y-59813906D01*
X112678824Y-59740000D01*
X112677000Y-59721481D01*
X112677000Y-57617247D01*
X112744602Y-57718421D01*
X112901579Y-57875398D01*
X113086165Y-57998734D01*
X113291266Y-58083690D01*
X113509000Y-58127000D01*
X113731000Y-58127000D01*
X113948734Y-58083690D01*
X114153835Y-57998734D01*
X114338421Y-57875398D01*
X114452999Y-57760820D01*
X114452999Y-59576067D01*
X114308734Y-59516310D01*
X114091000Y-59473000D01*
X113869000Y-59473000D01*
X113651266Y-59516310D01*
X113446165Y-59601266D01*
X113261579Y-59724602D01*
X113104602Y-59881579D01*
X112981266Y-60066165D01*
X112896310Y-60271266D01*
X112853000Y-60489000D01*
X112853000Y-60711000D01*
X112896310Y-60928734D01*
X112981266Y-61133835D01*
X113104602Y-61318421D01*
X113261579Y-61475398D01*
X113446165Y-61598734D01*
X113651266Y-61683690D01*
X113869000Y-61727000D01*
X114091000Y-61727000D01*
X114308734Y-61683690D01*
X114513835Y-61598734D01*
X114698421Y-61475398D01*
X114855398Y-61318421D01*
X114978734Y-61133835D01*
X115063690Y-60928734D01*
X115107000Y-60711000D01*
X115107000Y-60489000D01*
X115063690Y-60271266D01*
X114998727Y-60114432D01*
X115083487Y-60029672D01*
X115097868Y-60017870D01*
X115117881Y-59993485D01*
X115144979Y-59960465D01*
X115144981Y-59960463D01*
X115179987Y-59894971D01*
X115201544Y-59823906D01*
X115206999Y-59768520D01*
X115206999Y-59768511D01*
X115208822Y-59750002D01*
X115206999Y-59731493D01*
X115206999Y-57602280D01*
X115284602Y-57718421D01*
X115441579Y-57875398D01*
X115626165Y-57998734D01*
X115831266Y-58083690D01*
X116049000Y-58127000D01*
X116271000Y-58127000D01*
X116488734Y-58083690D01*
X116693835Y-57998734D01*
X116878421Y-57875398D01*
X116883002Y-57870817D01*
X116883002Y-59530504D01*
X116848734Y-59516310D01*
X116631000Y-59473000D01*
X116409000Y-59473000D01*
X116191266Y-59516310D01*
X115986165Y-59601266D01*
X115801579Y-59724602D01*
X115644602Y-59881579D01*
X115521266Y-60066165D01*
X115436310Y-60271266D01*
X115393000Y-60489000D01*
X115393000Y-60711000D01*
X115436310Y-60928734D01*
X115521266Y-61133835D01*
X115644602Y-61318421D01*
X115801579Y-61475398D01*
X115986165Y-61598734D01*
X116191266Y-61683690D01*
X116409000Y-61727000D01*
X116631000Y-61727000D01*
X116848734Y-61683690D01*
X117053835Y-61598734D01*
X117238421Y-61475398D01*
X117395398Y-61318421D01*
X117518734Y-61133835D01*
X117603690Y-60928734D01*
X117647000Y-60711000D01*
X117647000Y-60489000D01*
X117603690Y-60271266D01*
X117538784Y-60114569D01*
X117574982Y-60070462D01*
X117609989Y-60004969D01*
X117631546Y-59933904D01*
X117637001Y-59878518D01*
X117637001Y-59878509D01*
X117638824Y-59860000D01*
X117637001Y-59841491D01*
X117637001Y-57378686D01*
X117701266Y-57533835D01*
X117824602Y-57718421D01*
X117981579Y-57875398D01*
X118166165Y-57998734D01*
X118371266Y-58083690D01*
X118589000Y-58127000D01*
X118811000Y-58127000D01*
X119028734Y-58083690D01*
X119233835Y-57998734D01*
X119418421Y-57875398D01*
X119532999Y-57760820D01*
X119532999Y-59576067D01*
X119388734Y-59516310D01*
X119171000Y-59473000D01*
X118949000Y-59473000D01*
X118731266Y-59516310D01*
X118526165Y-59601266D01*
X118341579Y-59724602D01*
X118184602Y-59881579D01*
X118061266Y-60066165D01*
X117976310Y-60271266D01*
X117933000Y-60489000D01*
X117933000Y-60711000D01*
X117976310Y-60928734D01*
X118061266Y-61133835D01*
X118184602Y-61318421D01*
X118341579Y-61475398D01*
X118526165Y-61598734D01*
X118731266Y-61683690D01*
X118949000Y-61727000D01*
X119171000Y-61727000D01*
X119388734Y-61683690D01*
X119593835Y-61598734D01*
X119778421Y-61475398D01*
X119935398Y-61318421D01*
X120058734Y-61133835D01*
X120143690Y-60928734D01*
X120183817Y-60727002D01*
X120279185Y-60727002D01*
X120158519Y-60956891D01*
X120255843Y-61231252D01*
X120404822Y-61481355D01*
X120599731Y-61697588D01*
X120833080Y-61871641D01*
X121095901Y-61996825D01*
X121243110Y-62041476D01*
X121473000Y-61920155D01*
X121473000Y-60727000D01*
X121727000Y-60727000D01*
X121727000Y-61920155D01*
X121956890Y-62041476D01*
X122104099Y-61996825D01*
X122366920Y-61871641D01*
X122600269Y-61697588D01*
X122795178Y-61481355D01*
X122944157Y-61231252D01*
X123041481Y-60956891D01*
X122920814Y-60727000D01*
X121727000Y-60727000D01*
X121473000Y-60727000D01*
X121453000Y-60727000D01*
X121453000Y-60473000D01*
X121473000Y-60473000D01*
X121473000Y-59279845D01*
X121727000Y-59279845D01*
X121727000Y-60473000D01*
X122920814Y-60473000D01*
X123041481Y-60243109D01*
X122944157Y-59968748D01*
X122795178Y-59718645D01*
X122600269Y-59502412D01*
X122366920Y-59328359D01*
X122104099Y-59203175D01*
X121956890Y-59158524D01*
X121727000Y-59279845D01*
X121473000Y-59279845D01*
X121243110Y-59158524D01*
X121095901Y-59203175D01*
X120833080Y-59328359D01*
X120599731Y-59502412D01*
X120404822Y-59718645D01*
X120255843Y-59968748D01*
X120158519Y-60243109D01*
X120279185Y-60472998D01*
X120183817Y-60472998D01*
X120143690Y-60271266D01*
X120078727Y-60114432D01*
X120163487Y-60029672D01*
X120177868Y-60017870D01*
X120197881Y-59993485D01*
X120224979Y-59960465D01*
X120224981Y-59960463D01*
X120259987Y-59894971D01*
X120281544Y-59823906D01*
X120286999Y-59768520D01*
X120286999Y-59768511D01*
X120288822Y-59750002D01*
X120286999Y-59731493D01*
X120286999Y-57602280D01*
X120364602Y-57718421D01*
X120521579Y-57875398D01*
X120706165Y-57998734D01*
X120911266Y-58083690D01*
X121129000Y-58127000D01*
X121351000Y-58127000D01*
X121568734Y-58083690D01*
X121773835Y-57998734D01*
X121958421Y-57875398D01*
X122115398Y-57718421D01*
X122123001Y-57707042D01*
X122123001Y-57760998D01*
X122051815Y-57832184D01*
X121988669Y-57926688D01*
X121945174Y-58031695D01*
X121923000Y-58143170D01*
X121923000Y-58256830D01*
X121945174Y-58368305D01*
X121988669Y-58473312D01*
X122051815Y-58567816D01*
X122132184Y-58648185D01*
X122226688Y-58711331D01*
X122331695Y-58754826D01*
X122443170Y-58777000D01*
X122556830Y-58777000D01*
X122668305Y-58754826D01*
X122773312Y-58711331D01*
X122867816Y-58648185D01*
X122948185Y-58567816D01*
X123011331Y-58473312D01*
X123054826Y-58368305D01*
X123077000Y-58256830D01*
X123077000Y-58143170D01*
X123054826Y-58031695D01*
X123011331Y-57926688D01*
X122948185Y-57832184D01*
X122877000Y-57760999D01*
X122877000Y-57677112D01*
X122904602Y-57718421D01*
X123061579Y-57875398D01*
X123246165Y-57998734D01*
X123451266Y-58083690D01*
X123669000Y-58127000D01*
X123891000Y-58127000D01*
X124108734Y-58083690D01*
X124313835Y-57998734D01*
X124498421Y-57875398D01*
X124655398Y-57718421D01*
X124673001Y-57692076D01*
X124673002Y-60793839D01*
X124543841Y-60923000D01*
X124443170Y-60923000D01*
X124331695Y-60945174D01*
X124226688Y-60988669D01*
X124132184Y-61051815D01*
X124051815Y-61132184D01*
X123988669Y-61226688D01*
X123945174Y-61331695D01*
X123923000Y-61443170D01*
X123923000Y-61556830D01*
X123945174Y-61668305D01*
X123988669Y-61773312D01*
X124051815Y-61867816D01*
X124132184Y-61948185D01*
X124226688Y-62011331D01*
X124331695Y-62054826D01*
X124443170Y-62077000D01*
X124556830Y-62077000D01*
X124668305Y-62054826D01*
X124773312Y-62011331D01*
X124867816Y-61948185D01*
X124948185Y-61867816D01*
X125011331Y-61773312D01*
X125054826Y-61668305D01*
X125077000Y-61556830D01*
X125077000Y-61456159D01*
X125303488Y-61229671D01*
X125317870Y-61217868D01*
X125364982Y-61160462D01*
X125399989Y-61094969D01*
X125410920Y-61058935D01*
X125421546Y-61023905D01*
X125428825Y-60949999D01*
X125427001Y-60931480D01*
X125427001Y-60340000D01*
X129771928Y-60340000D01*
X129784188Y-60464482D01*
X129820498Y-60584180D01*
X129879463Y-60694494D01*
X129958815Y-60791185D01*
X130055506Y-60870537D01*
X130165820Y-60929502D01*
X130285518Y-60965812D01*
X130410000Y-60978072D01*
X130524250Y-60975000D01*
X130683000Y-60816250D01*
X130683000Y-59817000D01*
X129933750Y-59817000D01*
X129775000Y-59975750D01*
X129771928Y-60340000D01*
X125427001Y-60340000D01*
X125427001Y-57692079D01*
X125444602Y-57718421D01*
X125601579Y-57875398D01*
X125786165Y-57998734D01*
X125991266Y-58083690D01*
X126209000Y-58127000D01*
X126431000Y-58127000D01*
X126648734Y-58083690D01*
X126853835Y-57998734D01*
X127038421Y-57875398D01*
X127195398Y-57718421D01*
X127318734Y-57533835D01*
X127397001Y-57344883D01*
X127397001Y-59309710D01*
X127371055Y-59335656D01*
X127321696Y-59395799D01*
X127272761Y-59487351D01*
X127242626Y-59586691D01*
X127232451Y-59690000D01*
X127242626Y-59793309D01*
X127272761Y-59892649D01*
X127321696Y-59984201D01*
X127387553Y-60064447D01*
X127467799Y-60130304D01*
X127559351Y-60179239D01*
X127658691Y-60209374D01*
X127762000Y-60219549D01*
X127769005Y-60218859D01*
X127831695Y-60244826D01*
X127943170Y-60267000D01*
X128056830Y-60267000D01*
X128168305Y-60244826D01*
X128273312Y-60201331D01*
X128367816Y-60138185D01*
X128448185Y-60057816D01*
X128511331Y-59963312D01*
X128554826Y-59858305D01*
X128577000Y-59746830D01*
X128577000Y-59633170D01*
X128554826Y-59521695D01*
X128511331Y-59416688D01*
X128451000Y-59326397D01*
X128451000Y-59040000D01*
X129771928Y-59040000D01*
X129775000Y-59404250D01*
X129933750Y-59563000D01*
X130683000Y-59563000D01*
X130683000Y-58563750D01*
X130524250Y-58405000D01*
X130410000Y-58401928D01*
X130285518Y-58414188D01*
X130165820Y-58450498D01*
X130055506Y-58509463D01*
X129958815Y-58588815D01*
X129879463Y-58685506D01*
X129820498Y-58795820D01*
X129784188Y-58915518D01*
X129771928Y-59040000D01*
X128451000Y-59040000D01*
X128451000Y-53537170D01*
X128709000Y-53537170D01*
X128709000Y-53650830D01*
X128731174Y-53762305D01*
X128774669Y-53867312D01*
X128837815Y-53961816D01*
X128918184Y-54042185D01*
X129012688Y-54105331D01*
X129117695Y-54148826D01*
X129229170Y-54171000D01*
X129342830Y-54171000D01*
X129454305Y-54148826D01*
X129559312Y-54105331D01*
X129653816Y-54042185D01*
X129725001Y-53971000D01*
X133798582Y-53971000D01*
X133811174Y-54034305D01*
X133854669Y-54139312D01*
X133917815Y-54233816D01*
X133998184Y-54314185D01*
X134092688Y-54377331D01*
X134197695Y-54420826D01*
X134309170Y-54443000D01*
X134422830Y-54443000D01*
X134534305Y-54420826D01*
X134639312Y-54377331D01*
X134733816Y-54314185D01*
X134814185Y-54233816D01*
X134877331Y-54139312D01*
X134920826Y-54034305D01*
X134943000Y-53922830D01*
X134943000Y-53809170D01*
X134920826Y-53697695D01*
X134877331Y-53592688D01*
X134814185Y-53498184D01*
X134733816Y-53417815D01*
X134639312Y-53354669D01*
X134534305Y-53311174D01*
X134422830Y-53289000D01*
X134316625Y-53289000D01*
X134304463Y-53279019D01*
X134238970Y-53244012D01*
X134167905Y-53222455D01*
X134112519Y-53217000D01*
X134112512Y-53217000D01*
X134094000Y-53215177D01*
X134075488Y-53217000D01*
X129725001Y-53217000D01*
X129653816Y-53145815D01*
X129559312Y-53082669D01*
X129454305Y-53039174D01*
X129342830Y-53017000D01*
X129229170Y-53017000D01*
X129117695Y-53039174D01*
X129012688Y-53082669D01*
X128918184Y-53145815D01*
X128837815Y-53226184D01*
X128774669Y-53320688D01*
X128731174Y-53425695D01*
X128709000Y-53537170D01*
X128451000Y-53537170D01*
X128451000Y-53073983D01*
X128478826Y-53006805D01*
X128501000Y-52895330D01*
X128501000Y-52781670D01*
X128478826Y-52670195D01*
X128451000Y-52603017D01*
X128451000Y-49580293D01*
X128588256Y-49443038D01*
X128608365Y-49426535D01*
X128674221Y-49346289D01*
X128723156Y-49254737D01*
X128753291Y-49155397D01*
X128760917Y-49077968D01*
X128760917Y-49077967D01*
X128763466Y-49052087D01*
X128760917Y-49026206D01*
X128760917Y-48023746D01*
X128791604Y-48044251D01*
X128896611Y-48087746D01*
X129008086Y-48109920D01*
X129121746Y-48109920D01*
X129233221Y-48087746D01*
X129338228Y-48044251D01*
X129432732Y-47981105D01*
X129513101Y-47900736D01*
X129576247Y-47806232D01*
X129619742Y-47701225D01*
X129641916Y-47589750D01*
X129641916Y-47476090D01*
X129619742Y-47364615D01*
X129576247Y-47259608D01*
X129513101Y-47165104D01*
X129441916Y-47093919D01*
X129441916Y-39675424D01*
X129443739Y-39656915D01*
X129441916Y-39638406D01*
X129441916Y-39638397D01*
X129436461Y-39583011D01*
X129414904Y-39511946D01*
X129379897Y-39446453D01*
X129332785Y-39389047D01*
X129318398Y-39377240D01*
X128339000Y-38397842D01*
X128339000Y-38297170D01*
X128316826Y-38185695D01*
X128273331Y-38080688D01*
X128210185Y-37986184D01*
X128129816Y-37905815D01*
X128035312Y-37842669D01*
X127930305Y-37799174D01*
X127818830Y-37777000D01*
X127705170Y-37777000D01*
X127593695Y-37799174D01*
X127488688Y-37842669D01*
X127394184Y-37905815D01*
X127313815Y-37986184D01*
X127250669Y-38080688D01*
X127207174Y-38185695D01*
X127185000Y-38297170D01*
X127185000Y-38410830D01*
X127207174Y-38522305D01*
X127250669Y-38627312D01*
X127313815Y-38721816D01*
X127394184Y-38802185D01*
X127488688Y-38865331D01*
X127593695Y-38908826D01*
X127705170Y-38931000D01*
X127805842Y-38931000D01*
X128687916Y-39813074D01*
X128687917Y-45321916D01*
X128637816Y-45271815D01*
X128543312Y-45208669D01*
X128438305Y-45165174D01*
X128326830Y-45143000D01*
X128213170Y-45143000D01*
X128101695Y-45165174D01*
X127996688Y-45208669D01*
X127902184Y-45271815D01*
X127885000Y-45288999D01*
X127885000Y-42603001D01*
X127956185Y-42531816D01*
X128019331Y-42437312D01*
X128062826Y-42332305D01*
X128085000Y-42220830D01*
X128085000Y-42107170D01*
X128062826Y-41995695D01*
X128019331Y-41890688D01*
X127956185Y-41796184D01*
X127875816Y-41715815D01*
X127781312Y-41652669D01*
X127676305Y-41609174D01*
X127564830Y-41587000D01*
X127451170Y-41587000D01*
X127339695Y-41609174D01*
X127234688Y-41652669D01*
X127140184Y-41715815D01*
X127059815Y-41796184D01*
X126996669Y-41890688D01*
X126953174Y-41995695D01*
X126931000Y-42107170D01*
X126931000Y-42220830D01*
X126953174Y-42332305D01*
X126996669Y-42437312D01*
X127059815Y-42531816D01*
X127131000Y-42603001D01*
X127131000Y-44250234D01*
X127061312Y-44203669D01*
X126956305Y-44160174D01*
X126844830Y-44138000D01*
X126731170Y-44138000D01*
X126619695Y-44160174D01*
X126615000Y-44162119D01*
X126615000Y-43618989D01*
X126686185Y-43547804D01*
X126749331Y-43453300D01*
X126792826Y-43348293D01*
X126815000Y-43236818D01*
X126815000Y-43123158D01*
X126792826Y-43011683D01*
X126749331Y-42906676D01*
X126686185Y-42812172D01*
X126605816Y-42731803D01*
X126511312Y-42668657D01*
X126406305Y-42625162D01*
X126294830Y-42602988D01*
X126181170Y-42602988D01*
X126069695Y-42625162D01*
X125964688Y-42668657D01*
X125870184Y-42731803D01*
X125789815Y-42812172D01*
X125726669Y-42906676D01*
X125683174Y-43011683D01*
X125661000Y-43123158D01*
X125661000Y-43236818D01*
X125683174Y-43348293D01*
X125726669Y-43453300D01*
X125789815Y-43547804D01*
X125861000Y-43618989D01*
X125861001Y-47793175D01*
X125832172Y-47812438D01*
X125751803Y-47892807D01*
X125688657Y-47987311D01*
X125645162Y-48092318D01*
X125622988Y-48203793D01*
X125622988Y-48317453D01*
X125645162Y-48428928D01*
X125688657Y-48533935D01*
X125751803Y-48628439D01*
X125832172Y-48708808D01*
X125926676Y-48771954D01*
X126031683Y-48815449D01*
X126143158Y-48837623D01*
X126256818Y-48837623D01*
X126368293Y-48815449D01*
X126408000Y-48799002D01*
X126408000Y-49275999D01*
X126336815Y-49347184D01*
X126273669Y-49441688D01*
X126230174Y-49546695D01*
X126208000Y-49658170D01*
X126208000Y-49771830D01*
X126230174Y-49883305D01*
X126273669Y-49988312D01*
X126336815Y-50082816D01*
X126417184Y-50163185D01*
X126511688Y-50226331D01*
X126616695Y-50269826D01*
X126728170Y-50292000D01*
X126841830Y-50292000D01*
X126953305Y-50269826D01*
X127058312Y-50226331D01*
X127152816Y-50163185D01*
X127233185Y-50082816D01*
X127296331Y-49988312D01*
X127339826Y-49883305D01*
X127362000Y-49771830D01*
X127362000Y-49658170D01*
X127339826Y-49546695D01*
X127296331Y-49441688D01*
X127233185Y-49347184D01*
X127162000Y-49275999D01*
X127162000Y-49218108D01*
X127226688Y-49261331D01*
X127331695Y-49304826D01*
X127398768Y-49318168D01*
X127394451Y-49362004D01*
X127397001Y-49387895D01*
X127397000Y-52603016D01*
X127369174Y-52670195D01*
X127347000Y-52781670D01*
X127347000Y-52895330D01*
X127369174Y-53006805D01*
X127397000Y-53073983D01*
X127397001Y-56655116D01*
X127318734Y-56466165D01*
X127195398Y-56281579D01*
X127038421Y-56124602D01*
X126853835Y-56001266D01*
X126648734Y-55916310D01*
X126431000Y-55873000D01*
X126209000Y-55873000D01*
X125991266Y-55916310D01*
X125786165Y-56001266D01*
X125601579Y-56124602D01*
X125444602Y-56281579D01*
X125427001Y-56307921D01*
X125427001Y-56068520D01*
X125428825Y-56050001D01*
X125421546Y-55976095D01*
X125399989Y-55905031D01*
X125382804Y-55872881D01*
X125364982Y-55839538D01*
X125345234Y-55815475D01*
X125329675Y-55796516D01*
X125329673Y-55796514D01*
X125317870Y-55782132D01*
X125303489Y-55770330D01*
X124157000Y-54623842D01*
X124157000Y-38200508D01*
X124158823Y-38181999D01*
X124157000Y-38163490D01*
X124157000Y-38163481D01*
X124151545Y-38108095D01*
X124129988Y-38037030D01*
X124094981Y-37971537D01*
X124047869Y-37914131D01*
X124033481Y-37902323D01*
X123259000Y-37127842D01*
X123259000Y-37027170D01*
X123236826Y-36915695D01*
X123193331Y-36810688D01*
X123130185Y-36716184D01*
X123049816Y-36635815D01*
X122955312Y-36572669D01*
X122850305Y-36529174D01*
X122738830Y-36507000D01*
X122625170Y-36507000D01*
X122513695Y-36529174D01*
X122408688Y-36572669D01*
X122314184Y-36635815D01*
X122233815Y-36716184D01*
X122170669Y-36810688D01*
X122127174Y-36915695D01*
X122105000Y-37027170D01*
X122105000Y-37140830D01*
X122127174Y-37252305D01*
X122170669Y-37357312D01*
X122233815Y-37451816D01*
X122314184Y-37532185D01*
X122408688Y-37595331D01*
X122513695Y-37638826D01*
X122625170Y-37661000D01*
X122725842Y-37661000D01*
X123403001Y-38338159D01*
X123403000Y-54701481D01*
X123403000Y-54761488D01*
X123401177Y-54780000D01*
X123403000Y-54798512D01*
X123403000Y-54798519D01*
X123408455Y-54853905D01*
X123430012Y-54924970D01*
X123465019Y-54990463D01*
X123512131Y-55047869D01*
X123526517Y-55059676D01*
X124673001Y-56206160D01*
X124673001Y-56307924D01*
X124655398Y-56281579D01*
X124498421Y-56124602D01*
X124313835Y-56001266D01*
X124108734Y-55916310D01*
X123891000Y-55873000D01*
X123669000Y-55873000D01*
X123451266Y-55916310D01*
X123246165Y-56001266D01*
X123061579Y-56124602D01*
X122904602Y-56281579D01*
X122877000Y-56322888D01*
X122877000Y-53851224D01*
X122973312Y-53811331D01*
X123067816Y-53748185D01*
X123148185Y-53667816D01*
X123211331Y-53573312D01*
X123254826Y-53468305D01*
X123277000Y-53356830D01*
X123277000Y-53243170D01*
X123254826Y-53131695D01*
X123211331Y-53026688D01*
X123148185Y-52932184D01*
X123067816Y-52851815D01*
X122973312Y-52788669D01*
X122868305Y-52745174D01*
X122756830Y-52723000D01*
X122643170Y-52723000D01*
X122531695Y-52745174D01*
X122426688Y-52788669D01*
X122332184Y-52851815D01*
X122251815Y-52932184D01*
X122188669Y-53026688D01*
X122145174Y-53131695D01*
X122123000Y-53243170D01*
X122123000Y-53356830D01*
X122133482Y-53409524D01*
X122128577Y-53425695D01*
X122128455Y-53426096D01*
X122123000Y-53481482D01*
X122123000Y-53481488D01*
X122121177Y-53500000D01*
X122123000Y-53518512D01*
X122123001Y-56292957D01*
X122115398Y-56281579D01*
X121958421Y-56124602D01*
X121773835Y-56001266D01*
X121568734Y-55916310D01*
X121351000Y-55873000D01*
X121129000Y-55873000D01*
X120911266Y-55916310D01*
X120706165Y-56001266D01*
X120521579Y-56124602D01*
X120364602Y-56281579D01*
X120286999Y-56397720D01*
X120286999Y-51816159D01*
X120541159Y-51562000D01*
X120641830Y-51562000D01*
X120753305Y-51539826D01*
X120858312Y-51496331D01*
X120952816Y-51433185D01*
X121033185Y-51352816D01*
X121096331Y-51258312D01*
X121139826Y-51153305D01*
X121162000Y-51041830D01*
X121162000Y-50928170D01*
X121139826Y-50816695D01*
X121096331Y-50711688D01*
X121033185Y-50617184D01*
X120952816Y-50536815D01*
X120858312Y-50473669D01*
X120753305Y-50430174D01*
X120641830Y-50408000D01*
X120528170Y-50408000D01*
X120416695Y-50430174D01*
X120311688Y-50473669D01*
X120217184Y-50536815D01*
X120136815Y-50617184D01*
X120073669Y-50711688D01*
X120030174Y-50816695D01*
X120008000Y-50928170D01*
X120008000Y-51028841D01*
X119656513Y-51380329D01*
X119642131Y-51392132D01*
X119630328Y-51406514D01*
X119630325Y-51406517D01*
X119595019Y-51449538D01*
X119560011Y-51515032D01*
X119538454Y-51586096D01*
X119531176Y-51660001D01*
X119533000Y-51678523D01*
X119532999Y-56239180D01*
X119418421Y-56124602D01*
X119233835Y-56001266D01*
X119028734Y-55916310D01*
X118811000Y-55873000D01*
X118589000Y-55873000D01*
X118371266Y-55916310D01*
X118166165Y-56001266D01*
X117981579Y-56124602D01*
X117824602Y-56281579D01*
X117701266Y-56466165D01*
X117637001Y-56621314D01*
X117637001Y-52496157D01*
X118756158Y-51377000D01*
X118856830Y-51377000D01*
X118968305Y-51354826D01*
X119073312Y-51311331D01*
X119167816Y-51248185D01*
X119248185Y-51167816D01*
X119311331Y-51073312D01*
X119354826Y-50968305D01*
X119377000Y-50856830D01*
X119377000Y-50743170D01*
X119354826Y-50631695D01*
X119311331Y-50526688D01*
X119248185Y-50432184D01*
X119167816Y-50351815D01*
X119073312Y-50288669D01*
X118968305Y-50245174D01*
X118856830Y-50223000D01*
X118743170Y-50223000D01*
X118631695Y-50245174D01*
X118526688Y-50288669D01*
X118432184Y-50351815D01*
X118351815Y-50432184D01*
X118288669Y-50526688D01*
X118245174Y-50631695D01*
X118223000Y-50743170D01*
X118223000Y-50843842D01*
X117006520Y-52060322D01*
X116992132Y-52072130D01*
X116945020Y-52129537D01*
X116910013Y-52195030D01*
X116888456Y-52266095D01*
X116883001Y-52321481D01*
X116883001Y-52321487D01*
X116881178Y-52339999D01*
X116883001Y-52358511D01*
X116883002Y-56129183D01*
X116878421Y-56124602D01*
X116693835Y-56001266D01*
X116488734Y-55916310D01*
X116271000Y-55873000D01*
X116049000Y-55873000D01*
X115831266Y-55916310D01*
X115626165Y-56001266D01*
X115441579Y-56124602D01*
X115284602Y-56281579D01*
X115206999Y-56397720D01*
X115206999Y-54726159D01*
X116453488Y-53479670D01*
X116467875Y-53467863D01*
X116514987Y-53410457D01*
X116549994Y-53344964D01*
X116571551Y-53273899D01*
X116577006Y-53218513D01*
X116577006Y-53218504D01*
X116578829Y-53199995D01*
X116577006Y-53181486D01*
X116577006Y-51439001D01*
X116648191Y-51367816D01*
X116711337Y-51273312D01*
X116754832Y-51168305D01*
X116777006Y-51056830D01*
X116777006Y-50943170D01*
X116754832Y-50831695D01*
X116711337Y-50726688D01*
X116648191Y-50632184D01*
X116567822Y-50551815D01*
X116473318Y-50488669D01*
X116368311Y-50445174D01*
X116256836Y-50423000D01*
X116143176Y-50423000D01*
X116031701Y-50445174D01*
X115926694Y-50488669D01*
X115832190Y-50551815D01*
X115751821Y-50632184D01*
X115688675Y-50726688D01*
X115645180Y-50831695D01*
X115623006Y-50943170D01*
X115623006Y-51056830D01*
X115645180Y-51168305D01*
X115688675Y-51273312D01*
X115751821Y-51367816D01*
X115823007Y-51439002D01*
X115823006Y-53043836D01*
X114576513Y-54290329D01*
X114562131Y-54302132D01*
X114550328Y-54316514D01*
X114550325Y-54316517D01*
X114515019Y-54359538D01*
X114480011Y-54425032D01*
X114458454Y-54496096D01*
X114451176Y-54570001D01*
X114453000Y-54588523D01*
X114453000Y-56239181D01*
X114338421Y-56124602D01*
X114153835Y-56001266D01*
X113948734Y-55916310D01*
X113731000Y-55873000D01*
X113509000Y-55873000D01*
X113291266Y-55916310D01*
X113086165Y-56001266D01*
X112901579Y-56124602D01*
X112744602Y-56281579D01*
X112677000Y-56382753D01*
X112677000Y-55761170D01*
X115353487Y-53084684D01*
X115367869Y-53072881D01*
X115414981Y-53015475D01*
X115449988Y-52949982D01*
X115455387Y-52932184D01*
X115471545Y-52878918D01*
X115474465Y-52849266D01*
X115477000Y-52823531D01*
X115477000Y-52823524D01*
X115478823Y-52805012D01*
X115477000Y-52786500D01*
X115477000Y-50839001D01*
X115548185Y-50767816D01*
X115611331Y-50673312D01*
X115654826Y-50568305D01*
X115677000Y-50456830D01*
X115677000Y-50343170D01*
X115654826Y-50231695D01*
X115611331Y-50126688D01*
X115548185Y-50032184D01*
X115467816Y-49951815D01*
X115373312Y-49888669D01*
X115268305Y-49845174D01*
X115156830Y-49823000D01*
X115043170Y-49823000D01*
X114931695Y-49845174D01*
X114826688Y-49888669D01*
X114732184Y-49951815D01*
X114651815Y-50032184D01*
X114588669Y-50126688D01*
X114545174Y-50231695D01*
X114523000Y-50343170D01*
X114523000Y-50456830D01*
X114545174Y-50568305D01*
X114588669Y-50673312D01*
X114651815Y-50767816D01*
X114723000Y-50839001D01*
X114723001Y-52648852D01*
X112046519Y-55325335D01*
X112032131Y-55337143D01*
X111985020Y-55394549D01*
X111950012Y-55460043D01*
X111929260Y-55528455D01*
X111928455Y-55531108D01*
X111923000Y-55586494D01*
X111923000Y-55586500D01*
X111921177Y-55605012D01*
X111923000Y-55623524D01*
X111923000Y-56249181D01*
X111798421Y-56124602D01*
X111613835Y-56001266D01*
X111408734Y-55916310D01*
X111191000Y-55873000D01*
X110969000Y-55873000D01*
X110751266Y-55916310D01*
X110546165Y-56001266D01*
X110361579Y-56124602D01*
X110204602Y-56281579D01*
X110081266Y-56466165D01*
X109996310Y-56671266D01*
X109956183Y-56872998D01*
X109860815Y-56872998D01*
X109981481Y-56643109D01*
X109884157Y-56368748D01*
X109735178Y-56118645D01*
X109540269Y-55902412D01*
X109306920Y-55728359D01*
X109044099Y-55603175D01*
X108896890Y-55558524D01*
X108667000Y-55679845D01*
X108413000Y-55679845D01*
X108183110Y-55558524D01*
X108035901Y-55603175D01*
X107773080Y-55728359D01*
X107666102Y-55808153D01*
X107649988Y-55755030D01*
X107614981Y-55689537D01*
X107567869Y-55632131D01*
X107553481Y-55620323D01*
X106077000Y-54143842D01*
X106077000Y-54043170D01*
X106054826Y-53931695D01*
X106011331Y-53826688D01*
X105948185Y-53732184D01*
X105867816Y-53651815D01*
X105773312Y-53588669D01*
X105668305Y-53545174D01*
X105556830Y-53523000D01*
X105443170Y-53523000D01*
X105331695Y-53545174D01*
X105226688Y-53588669D01*
X105132184Y-53651815D01*
X105051815Y-53732184D01*
X104988669Y-53826688D01*
X104945174Y-53931695D01*
X104923000Y-54043170D01*
X104923000Y-54156830D01*
X104945174Y-54268305D01*
X104988669Y-54373312D01*
X105051815Y-54467816D01*
X105132184Y-54548185D01*
X105226688Y-54611331D01*
X105331695Y-54654826D01*
X105443170Y-54677000D01*
X105543842Y-54677000D01*
X106738502Y-55871660D01*
X105150000Y-55871660D01*
X105095699Y-55877008D01*
X105043484Y-55892847D01*
X104995363Y-55918569D01*
X104953184Y-55953184D01*
X104918569Y-55995363D01*
X104892847Y-56043484D01*
X104877008Y-56095699D01*
X104871660Y-56150000D01*
X104665958Y-56150000D01*
X104651331Y-56114688D01*
X104588185Y-56020184D01*
X104507816Y-55939815D01*
X104413312Y-55876669D01*
X104308305Y-55833174D01*
X104196830Y-55811000D01*
X104083170Y-55811000D01*
X103971695Y-55833174D01*
X103866688Y-55876669D01*
X103772184Y-55939815D01*
X103700999Y-56011000D01*
X98345697Y-56011000D01*
X98280734Y-55854165D01*
X98157398Y-55669579D01*
X98000421Y-55512602D01*
X97815835Y-55389266D01*
X97610734Y-55304310D01*
X97393000Y-55261000D01*
X97171000Y-55261000D01*
X96953266Y-55304310D01*
X96748165Y-55389266D01*
X96563579Y-55512602D01*
X96406602Y-55669579D01*
X96283266Y-55854165D01*
X96198310Y-56059266D01*
X96155000Y-56277000D01*
X95152000Y-56277000D01*
X95152000Y-53737000D01*
X96155000Y-53737000D01*
X96155000Y-53959000D01*
X96198310Y-54176734D01*
X96283266Y-54381835D01*
X96406602Y-54566421D01*
X96563579Y-54723398D01*
X96748165Y-54846734D01*
X96953266Y-54931690D01*
X97171000Y-54975000D01*
X97393000Y-54975000D01*
X97610734Y-54931690D01*
X97815835Y-54846734D01*
X98000421Y-54723398D01*
X98157398Y-54566421D01*
X98280734Y-54381835D01*
X98324987Y-54275000D01*
X100448999Y-54275000D01*
X100470184Y-54296185D01*
X100564688Y-54359331D01*
X100669695Y-54402826D01*
X100781170Y-54425000D01*
X100894830Y-54425000D01*
X101006305Y-54402826D01*
X101111312Y-54359331D01*
X101205816Y-54296185D01*
X101286185Y-54215816D01*
X101349331Y-54121312D01*
X101392826Y-54016305D01*
X101415000Y-53904830D01*
X101415000Y-53791170D01*
X101392826Y-53679695D01*
X101349331Y-53574688D01*
X101286185Y-53480184D01*
X101205816Y-53399815D01*
X101111312Y-53336669D01*
X101006305Y-53293174D01*
X100894830Y-53271000D01*
X100781170Y-53271000D01*
X100669695Y-53293174D01*
X100564688Y-53336669D01*
X100470184Y-53399815D01*
X100448999Y-53421000D01*
X98324987Y-53421000D01*
X98280734Y-53314165D01*
X98157398Y-53129579D01*
X98000421Y-52972602D01*
X97815835Y-52849266D01*
X97610734Y-52764310D01*
X97393000Y-52721000D01*
X97171000Y-52721000D01*
X96953266Y-52764310D01*
X96748165Y-52849266D01*
X96563579Y-52972602D01*
X96406602Y-53129579D01*
X96283266Y-53314165D01*
X96198310Y-53519266D01*
X96155000Y-53737000D01*
X95152000Y-53737000D01*
X95152000Y-51197000D01*
X96155000Y-51197000D01*
X96155000Y-51419000D01*
X96198310Y-51636734D01*
X96283266Y-51841835D01*
X96406602Y-52026421D01*
X96563579Y-52183398D01*
X96748165Y-52306734D01*
X96953266Y-52391690D01*
X97171000Y-52435000D01*
X97393000Y-52435000D01*
X97610734Y-52391690D01*
X97767568Y-52326727D01*
X98568329Y-53127488D01*
X98580132Y-53141870D01*
X98594514Y-53153673D01*
X98594516Y-53153675D01*
X98622327Y-53176499D01*
X98637538Y-53188982D01*
X98682375Y-53212948D01*
X98703031Y-53223989D01*
X98774095Y-53245546D01*
X98848001Y-53252825D01*
X98866520Y-53251001D01*
X112369477Y-53251001D01*
X112387989Y-53252824D01*
X112406501Y-53251001D01*
X112406508Y-53251001D01*
X112461894Y-53245546D01*
X112532959Y-53223989D01*
X112598452Y-53188982D01*
X112655858Y-53141870D01*
X112667666Y-53127482D01*
X113656159Y-52138990D01*
X113756830Y-52138990D01*
X113868305Y-52116816D01*
X113973312Y-52073321D01*
X114067816Y-52010175D01*
X114148185Y-51929806D01*
X114211331Y-51835302D01*
X114254826Y-51730295D01*
X114277000Y-51618820D01*
X114277000Y-51505160D01*
X114254826Y-51393685D01*
X114211331Y-51288678D01*
X114148185Y-51194174D01*
X114067816Y-51113805D01*
X113973312Y-51050659D01*
X113868305Y-51007164D01*
X113756830Y-50984990D01*
X113643170Y-50984990D01*
X113609000Y-50991787D01*
X113609000Y-49724158D01*
X115956158Y-47377000D01*
X118160999Y-47377000D01*
X118232184Y-47448185D01*
X118326688Y-47511331D01*
X118431695Y-47554826D01*
X118543170Y-47577000D01*
X118656830Y-47577000D01*
X118768305Y-47554826D01*
X118873312Y-47511331D01*
X118967816Y-47448185D01*
X119048185Y-47367816D01*
X119111331Y-47273312D01*
X119154826Y-47168305D01*
X119177000Y-47056830D01*
X119177000Y-46943170D01*
X119154826Y-46831695D01*
X119111331Y-46726688D01*
X119048185Y-46632184D01*
X118967816Y-46551815D01*
X118873312Y-46488669D01*
X118768305Y-46445174D01*
X118656830Y-46423000D01*
X118623772Y-46423000D01*
X118626990Y-46406820D01*
X118626990Y-46293160D01*
X118604816Y-46181685D01*
X118561321Y-46076678D01*
X118498175Y-45982174D01*
X118417806Y-45901805D01*
X118323302Y-45838659D01*
X118218295Y-45795164D01*
X118106820Y-45772990D01*
X117993160Y-45772990D01*
X117881685Y-45795164D01*
X117776678Y-45838659D01*
X117682174Y-45901805D01*
X117610989Y-45972990D01*
X115768529Y-45972990D01*
X115750010Y-45971166D01*
X115676104Y-45978445D01*
X115627094Y-45993312D01*
X115605040Y-46000002D01*
X115539547Y-46035009D01*
X115482141Y-46082121D01*
X115470338Y-46096503D01*
X112509382Y-49057460D01*
X112494994Y-49069268D01*
X112447882Y-49126675D01*
X112414474Y-49189176D01*
X112412875Y-49192168D01*
X112392695Y-49258695D01*
X112391318Y-49263233D01*
X112385863Y-49318619D01*
X112385863Y-49318625D01*
X112384040Y-49337137D01*
X112385863Y-49355649D01*
X112385864Y-50906703D01*
X111919558Y-51373010D01*
X110152877Y-51373010D01*
X110154826Y-51368305D01*
X110177000Y-51256830D01*
X110177000Y-51143170D01*
X110154826Y-51031695D01*
X110111460Y-50927000D01*
X110374119Y-50927000D01*
X110400000Y-50929549D01*
X110425881Y-50927000D01*
X110503310Y-50919374D01*
X110602650Y-50889239D01*
X110666279Y-50855229D01*
X110668305Y-50854826D01*
X110773312Y-50811331D01*
X110867816Y-50748185D01*
X110948185Y-50667816D01*
X111011331Y-50573312D01*
X111054826Y-50468305D01*
X111077000Y-50356830D01*
X111077000Y-50243170D01*
X111054826Y-50131695D01*
X111011331Y-50026688D01*
X110948185Y-49932184D01*
X110867816Y-49851815D01*
X110773312Y-49788669D01*
X110668305Y-49745174D01*
X110556830Y-49723000D01*
X110443170Y-49723000D01*
X110331695Y-49745174D01*
X110226688Y-49788669D01*
X110132184Y-49851815D01*
X110110999Y-49873000D01*
X101481001Y-49873000D01*
X101459816Y-49851815D01*
X101365312Y-49788669D01*
X101260305Y-49745174D01*
X101148830Y-49723000D01*
X101035170Y-49723000D01*
X100923695Y-49745174D01*
X100856517Y-49773000D01*
X100138291Y-49773000D01*
X98380859Y-48015569D01*
X98383690Y-48008734D01*
X98413837Y-47857170D01*
X98737000Y-47857170D01*
X98737000Y-47970830D01*
X98759174Y-48082305D01*
X98802669Y-48187312D01*
X98865815Y-48281816D01*
X98946184Y-48362185D01*
X99040688Y-48425331D01*
X99145695Y-48468826D01*
X99257170Y-48491000D01*
X99370830Y-48491000D01*
X99482305Y-48468826D01*
X99508142Y-48458124D01*
X99502312Y-48487432D01*
X99502312Y-48601092D01*
X99524486Y-48712567D01*
X99567981Y-48817574D01*
X99631127Y-48912078D01*
X99711496Y-48992447D01*
X99806000Y-49055593D01*
X99911007Y-49099088D01*
X100022482Y-49121262D01*
X100136142Y-49121262D01*
X100247617Y-49099088D01*
X100352624Y-49055593D01*
X100447128Y-48992447D01*
X100518313Y-48921262D01*
X100837230Y-48921262D01*
X100855742Y-48923085D01*
X100874254Y-48921262D01*
X100874261Y-48921262D01*
X100929647Y-48915807D01*
X101000712Y-48894250D01*
X101066205Y-48859243D01*
X101123611Y-48812131D01*
X101135419Y-48797743D01*
X105956158Y-43977004D01*
X106056830Y-43977004D01*
X106168305Y-43954830D01*
X106273312Y-43911335D01*
X106367816Y-43848189D01*
X106448185Y-43767820D01*
X106511331Y-43673316D01*
X106554826Y-43568309D01*
X106577000Y-43456834D01*
X106577000Y-43343174D01*
X106554826Y-43231699D01*
X106511331Y-43126692D01*
X106448185Y-43032188D01*
X106367816Y-42951819D01*
X106273312Y-42888673D01*
X106168305Y-42845178D01*
X106056830Y-42823004D01*
X105943170Y-42823004D01*
X105831695Y-42845178D01*
X105726688Y-42888673D01*
X105632184Y-42951819D01*
X105551815Y-43032188D01*
X105488669Y-43126692D01*
X105445174Y-43231699D01*
X105423000Y-43343174D01*
X105423000Y-43443846D01*
X100699584Y-48167262D01*
X100518313Y-48167262D01*
X100447128Y-48096077D01*
X100441105Y-48092053D01*
X105856159Y-42677000D01*
X105956830Y-42677000D01*
X106068305Y-42654826D01*
X106173312Y-42611331D01*
X106267816Y-42548185D01*
X106348185Y-42467816D01*
X106411331Y-42373312D01*
X106454826Y-42268305D01*
X106477000Y-42156830D01*
X106477000Y-42043170D01*
X106454826Y-41931695D01*
X106411331Y-41826688D01*
X106348185Y-41732184D01*
X106267816Y-41651815D01*
X106173312Y-41588669D01*
X106068305Y-41545174D01*
X105956830Y-41523000D01*
X105843170Y-41523000D01*
X105731695Y-41545174D01*
X105626688Y-41588669D01*
X105532184Y-41651815D01*
X105451815Y-41732184D01*
X105388669Y-41826688D01*
X105345174Y-41931695D01*
X105323000Y-42043170D01*
X105323000Y-42143841D01*
X99929842Y-47537000D01*
X99753001Y-47537000D01*
X99681816Y-47465815D01*
X99587312Y-47402669D01*
X99482305Y-47359174D01*
X99370830Y-47337000D01*
X99257170Y-47337000D01*
X99145695Y-47359174D01*
X99040688Y-47402669D01*
X98946184Y-47465815D01*
X98865815Y-47546184D01*
X98802669Y-47640688D01*
X98759174Y-47745695D01*
X98737000Y-47857170D01*
X98413837Y-47857170D01*
X98427000Y-47791000D01*
X98427000Y-47569000D01*
X98383690Y-47351266D01*
X98298734Y-47146165D01*
X98175398Y-46961579D01*
X98018421Y-46804602D01*
X97833835Y-46681266D01*
X97628734Y-46596310D01*
X97411000Y-46553000D01*
X97189000Y-46553000D01*
X96971266Y-46596310D01*
X96766165Y-46681266D01*
X96581579Y-46804602D01*
X96424602Y-46961579D01*
X96301266Y-47146165D01*
X96216310Y-47351266D01*
X96173000Y-47569000D01*
X96173000Y-47791000D01*
X96216310Y-48008734D01*
X96301266Y-48213835D01*
X96424602Y-48398421D01*
X96581579Y-48555398D01*
X96766165Y-48678734D01*
X96971266Y-48763690D01*
X97189000Y-48807000D01*
X97411000Y-48807000D01*
X97628734Y-48763690D01*
X97635569Y-48760859D01*
X99529053Y-50654344D01*
X99545552Y-50674448D01*
X99625798Y-50740304D01*
X99717350Y-50789239D01*
X99807859Y-50816695D01*
X99816690Y-50819374D01*
X99920000Y-50829549D01*
X99945881Y-50827000D01*
X100433001Y-50827000D01*
X100389815Y-50870186D01*
X100326669Y-50964690D01*
X100283174Y-51069697D01*
X100261000Y-51181172D01*
X100261000Y-51294832D01*
X100283174Y-51406307D01*
X100326669Y-51511314D01*
X100389815Y-51605818D01*
X100470184Y-51686187D01*
X100564688Y-51749333D01*
X100669695Y-51792828D01*
X100781170Y-51815002D01*
X100894830Y-51815002D01*
X101006305Y-51792828D01*
X101111312Y-51749333D01*
X101205816Y-51686187D01*
X101286185Y-51605818D01*
X101305441Y-51577000D01*
X103587123Y-51577000D01*
X103585174Y-51581705D01*
X103563000Y-51693180D01*
X103563000Y-51806840D01*
X103585174Y-51918315D01*
X103597056Y-51947000D01*
X102039001Y-51947000D01*
X101967816Y-51875815D01*
X101873312Y-51812669D01*
X101768305Y-51769174D01*
X101656830Y-51747000D01*
X101543170Y-51747000D01*
X101431695Y-51769174D01*
X101326688Y-51812669D01*
X101232184Y-51875815D01*
X101151815Y-51956184D01*
X101088669Y-52050688D01*
X101045174Y-52155695D01*
X101023000Y-52267170D01*
X101023000Y-52380830D01*
X101045174Y-52492305D01*
X101047119Y-52497001D01*
X99004160Y-52497001D01*
X98300727Y-51793568D01*
X98365690Y-51636734D01*
X98409000Y-51419000D01*
X98409000Y-51197000D01*
X98365690Y-50979266D01*
X98280734Y-50774165D01*
X98157398Y-50589579D01*
X98000421Y-50432602D01*
X97815835Y-50309266D01*
X97610734Y-50224310D01*
X97393000Y-50181000D01*
X97171000Y-50181000D01*
X96953266Y-50224310D01*
X96748165Y-50309266D01*
X96563579Y-50432602D01*
X96406602Y-50589579D01*
X96283266Y-50774165D01*
X96198310Y-50979266D01*
X96155000Y-51197000D01*
X95152000Y-51197000D01*
X95152000Y-45029000D01*
X96173000Y-45029000D01*
X96173000Y-45251000D01*
X96216310Y-45468734D01*
X96301266Y-45673835D01*
X96424602Y-45858421D01*
X96581579Y-46015398D01*
X96766165Y-46138734D01*
X96971266Y-46223690D01*
X97189000Y-46267000D01*
X97411000Y-46267000D01*
X97628734Y-46223690D01*
X97833835Y-46138734D01*
X98018421Y-46015398D01*
X98175398Y-45858421D01*
X98298734Y-45673835D01*
X98383690Y-45468734D01*
X98427000Y-45251000D01*
X98427000Y-45029000D01*
X98383690Y-44811266D01*
X98298734Y-44606165D01*
X98175398Y-44421579D01*
X98018421Y-44264602D01*
X97833835Y-44141266D01*
X97628734Y-44056310D01*
X97411000Y-44013000D01*
X97189000Y-44013000D01*
X96971266Y-44056310D01*
X96766165Y-44141266D01*
X96581579Y-44264602D01*
X96424602Y-44421579D01*
X96301266Y-44606165D01*
X96216310Y-44811266D01*
X96173000Y-45029000D01*
X95152000Y-45029000D01*
X95152000Y-42489000D01*
X96173000Y-42489000D01*
X96173000Y-42711000D01*
X96216310Y-42928734D01*
X96301266Y-43133835D01*
X96424602Y-43318421D01*
X96581579Y-43475398D01*
X96766165Y-43598734D01*
X96971266Y-43683690D01*
X97189000Y-43727000D01*
X97411000Y-43727000D01*
X97628734Y-43683690D01*
X97833835Y-43598734D01*
X98018421Y-43475398D01*
X98175398Y-43318421D01*
X98298734Y-43133835D01*
X98383690Y-42928734D01*
X98427000Y-42711000D01*
X98427000Y-42489000D01*
X98383690Y-42271266D01*
X98298734Y-42066165D01*
X98175398Y-41881579D01*
X98018421Y-41724602D01*
X97833835Y-41601266D01*
X97628734Y-41516310D01*
X97411000Y-41473000D01*
X97189000Y-41473000D01*
X96971266Y-41516310D01*
X96766165Y-41601266D01*
X96581579Y-41724602D01*
X96424602Y-41881579D01*
X96301266Y-42066165D01*
X96216310Y-42271266D01*
X96173000Y-42489000D01*
X95152000Y-42489000D01*
X95152000Y-39949000D01*
X96173000Y-39949000D01*
X96173000Y-40171000D01*
X96216310Y-40388734D01*
X96301266Y-40593835D01*
X96424602Y-40778421D01*
X96581579Y-40935398D01*
X96766165Y-41058734D01*
X96971266Y-41143690D01*
X97189000Y-41187000D01*
X97411000Y-41187000D01*
X97628734Y-41143690D01*
X97833835Y-41058734D01*
X98018421Y-40935398D01*
X98175398Y-40778421D01*
X98298734Y-40593835D01*
X98383690Y-40388734D01*
X98427000Y-40171000D01*
X98427000Y-39949000D01*
X98383690Y-39731266D01*
X98298734Y-39526165D01*
X98175398Y-39341579D01*
X98018421Y-39184602D01*
X97833835Y-39061266D01*
X97628734Y-38976310D01*
X97411000Y-38933000D01*
X97189000Y-38933000D01*
X96971266Y-38976310D01*
X96766165Y-39061266D01*
X96581579Y-39184602D01*
X96424602Y-39341579D01*
X96301266Y-39526165D01*
X96216310Y-39731266D01*
X96173000Y-39949000D01*
X95152000Y-39949000D01*
X95152000Y-35830000D01*
X95811928Y-35830000D01*
X95824188Y-35954482D01*
X95860498Y-36074180D01*
X95919463Y-36184494D01*
X95998815Y-36281185D01*
X96095506Y-36360537D01*
X96205820Y-36419502D01*
X96325518Y-36455812D01*
X96450000Y-36468072D01*
X96900508Y-36465619D01*
X96766165Y-36521266D01*
X96581579Y-36644602D01*
X96424602Y-36801579D01*
X96301266Y-36986165D01*
X96216310Y-37191266D01*
X96173000Y-37409000D01*
X96173000Y-37631000D01*
X96216310Y-37848734D01*
X96301266Y-38053835D01*
X96424602Y-38238421D01*
X96581579Y-38395398D01*
X96766165Y-38518734D01*
X96971266Y-38603690D01*
X97189000Y-38647000D01*
X97411000Y-38647000D01*
X97628734Y-38603690D01*
X97833835Y-38518734D01*
X98018421Y-38395398D01*
X98175398Y-38238421D01*
X98298734Y-38053835D01*
X98383690Y-37848734D01*
X98427000Y-37631000D01*
X98427000Y-37409000D01*
X98383690Y-37191266D01*
X98298734Y-36986165D01*
X98175398Y-36801579D01*
X98018421Y-36644602D01*
X97833835Y-36521266D01*
X97699492Y-36465619D01*
X98150000Y-36468072D01*
X98274482Y-36455812D01*
X98394180Y-36419502D01*
X98504494Y-36360537D01*
X98601185Y-36281185D01*
X98680537Y-36184494D01*
X98739502Y-36074180D01*
X98775812Y-35954482D01*
X98788072Y-35830000D01*
X98785000Y-35265750D01*
X98626250Y-35107000D01*
X97427000Y-35107000D01*
X97427000Y-35127000D01*
X97173000Y-35127000D01*
X97173000Y-35107000D01*
X95973750Y-35107000D01*
X95815000Y-35265750D01*
X95811928Y-35830000D01*
X95152000Y-35830000D01*
X95152000Y-34130000D01*
X95811928Y-34130000D01*
X95815000Y-34694250D01*
X95973750Y-34853000D01*
X97173000Y-34853000D01*
X97173000Y-33653750D01*
X97427000Y-33653750D01*
X97427000Y-34853000D01*
X98626250Y-34853000D01*
X98785000Y-34694250D01*
X98788072Y-34130000D01*
X98775812Y-34005518D01*
X98739502Y-33885820D01*
X98680537Y-33775506D01*
X98601185Y-33678815D01*
X98504494Y-33599463D01*
X98394180Y-33540498D01*
X98274482Y-33504188D01*
X98150000Y-33491928D01*
X97585750Y-33495000D01*
X97427000Y-33653750D01*
X97173000Y-33653750D01*
X97014250Y-33495000D01*
X96450000Y-33491928D01*
X96325518Y-33504188D01*
X96205820Y-33540498D01*
X96095506Y-33599463D01*
X95998815Y-33678815D01*
X95919463Y-33775506D01*
X95860498Y-33885820D01*
X95824188Y-34005518D01*
X95811928Y-34130000D01*
X95152000Y-34130000D01*
X95152000Y-29007439D01*
X95168866Y-28835431D01*
X95216660Y-28677129D01*
X95294289Y-28531128D01*
X95398800Y-28402985D01*
X95526209Y-28297582D01*
X95671671Y-28218931D01*
X95829631Y-28170034D01*
X96001211Y-28152000D01*
X101473000Y-28152000D01*
X101473000Y-34200000D01*
G37*
G04 #@! TD.AperFunction*
M02*
