G04 #@! TF.GenerationSoftware,KiCad,Pcbnew,(5.1.10)-1*
G04 #@! TF.CreationDate,2021-06-01T12:57:43+02:00*
G04 #@! TF.ProjectId,bobbycar,626f6262-7963-4617-922e-6b696361645f,rev?*
G04 #@! TF.SameCoordinates,Original*
G04 #@! TF.FileFunction,Legend,Bot*
G04 #@! TF.FilePolarity,Positive*
%FSLAX46Y46*%
G04 Gerber Fmt 4.6, Leading zero omitted, Abs format (unit mm)*
G04 Created by KiCad (PCBNEW (5.1.10)-1) date 2021-06-01 12:57:43*
%MOMM*%
%LPD*%
G01*
G04 APERTURE LIST*
%ADD10C,0.150000*%
%ADD11C,0.200000*%
G04 APERTURE END LIST*
D10*
X102976190Y-30452380D02*
X102976190Y-29452380D01*
X102309523Y-29452380D02*
X102119047Y-29452380D01*
X102023809Y-29500000D01*
X101928571Y-29595238D01*
X101880952Y-29785714D01*
X101880952Y-30119047D01*
X101928571Y-30309523D01*
X102023809Y-30404761D01*
X102119047Y-30452380D01*
X102309523Y-30452380D01*
X102404761Y-30404761D01*
X102500000Y-30309523D01*
X102547619Y-30119047D01*
X102547619Y-29785714D01*
X102500000Y-29595238D01*
X102404761Y-29500000D01*
X102309523Y-29452380D01*
X100928571Y-30452380D02*
X101500000Y-30452380D01*
X101214285Y-30452380D02*
X101214285Y-29452380D01*
X101309523Y-29595238D01*
X101404761Y-29690476D01*
X101500000Y-29738095D01*
X100452380Y-30452380D02*
X100261904Y-30452380D01*
X100166666Y-30404761D01*
X100119047Y-30357142D01*
X100023809Y-30214285D01*
X99976190Y-30023809D01*
X99976190Y-29642857D01*
X100023809Y-29547619D01*
X100071428Y-29500000D01*
X100166666Y-29452380D01*
X100357142Y-29452380D01*
X100452380Y-29500000D01*
X100500000Y-29547619D01*
X100547619Y-29642857D01*
X100547619Y-29880952D01*
X100500000Y-29976190D01*
X100452380Y-30023809D01*
X100357142Y-30071428D01*
X100166666Y-30071428D01*
X100071428Y-30023809D01*
X100023809Y-29976190D01*
X99976190Y-29880952D01*
X102976190Y-32102380D02*
X102976190Y-31102380D01*
X102309523Y-31102380D02*
X102119047Y-31102380D01*
X102023809Y-31150000D01*
X101928571Y-31245238D01*
X101880952Y-31435714D01*
X101880952Y-31769047D01*
X101928571Y-31959523D01*
X102023809Y-32054761D01*
X102119047Y-32102380D01*
X102309523Y-32102380D01*
X102404761Y-32054761D01*
X102500000Y-31959523D01*
X102547619Y-31769047D01*
X102547619Y-31435714D01*
X102500000Y-31245238D01*
X102404761Y-31150000D01*
X102309523Y-31102380D01*
X100928571Y-32102380D02*
X101500000Y-32102380D01*
X101214285Y-32102380D02*
X101214285Y-31102380D01*
X101309523Y-31245238D01*
X101404761Y-31340476D01*
X101500000Y-31388095D01*
X100357142Y-31530952D02*
X100452380Y-31483333D01*
X100500000Y-31435714D01*
X100547619Y-31340476D01*
X100547619Y-31292857D01*
X100500000Y-31197619D01*
X100452380Y-31150000D01*
X100357142Y-31102380D01*
X100166666Y-31102380D01*
X100071428Y-31150000D01*
X100023809Y-31197619D01*
X99976190Y-31292857D01*
X99976190Y-31340476D01*
X100023809Y-31435714D01*
X100071428Y-31483333D01*
X100166666Y-31530952D01*
X100357142Y-31530952D01*
X100452380Y-31578571D01*
X100500000Y-31626190D01*
X100547619Y-31721428D01*
X100547619Y-31911904D01*
X100500000Y-32007142D01*
X100452380Y-32054761D01*
X100357142Y-32102380D01*
X100166666Y-32102380D01*
X100071428Y-32054761D01*
X100023809Y-32007142D01*
X99976190Y-31911904D01*
X99976190Y-31721428D01*
X100023809Y-31626190D01*
X100071428Y-31578571D01*
X100166666Y-31530952D01*
X102500000Y-33752380D02*
X102500000Y-32752380D01*
X101833333Y-32752380D02*
X101642857Y-32752380D01*
X101547619Y-32800000D01*
X101452380Y-32895238D01*
X101404761Y-33085714D01*
X101404761Y-33419047D01*
X101452380Y-33609523D01*
X101547619Y-33704761D01*
X101642857Y-33752380D01*
X101833333Y-33752380D01*
X101928571Y-33704761D01*
X102023809Y-33609523D01*
X102071428Y-33419047D01*
X102071428Y-33085714D01*
X102023809Y-32895238D01*
X101928571Y-32800000D01*
X101833333Y-32752380D01*
X100500000Y-32752380D02*
X100976190Y-32752380D01*
X101023809Y-33228571D01*
X100976190Y-33180952D01*
X100880952Y-33133333D01*
X100642857Y-33133333D01*
X100547619Y-33180952D01*
X100500000Y-33228571D01*
X100452380Y-33323809D01*
X100452380Y-33561904D01*
X100500000Y-33657142D01*
X100547619Y-33704761D01*
X100642857Y-33752380D01*
X100880952Y-33752380D01*
X100976190Y-33704761D01*
X101023809Y-33657142D01*
X102500000Y-35402380D02*
X102500000Y-34402380D01*
X101833333Y-34402380D02*
X101642857Y-34402380D01*
X101547619Y-34450000D01*
X101452380Y-34545238D01*
X101404761Y-34735714D01*
X101404761Y-35069047D01*
X101452380Y-35259523D01*
X101547619Y-35354761D01*
X101642857Y-35402380D01*
X101833333Y-35402380D01*
X101928571Y-35354761D01*
X102023809Y-35259523D01*
X102071428Y-35069047D01*
X102071428Y-34735714D01*
X102023809Y-34545238D01*
X101928571Y-34450000D01*
X101833333Y-34402380D01*
X100547619Y-34735714D02*
X100547619Y-35402380D01*
X100785714Y-34354761D02*
X101023809Y-35069047D01*
X100404761Y-35069047D01*
X102976190Y-37052380D02*
X102976190Y-36052380D01*
X102309523Y-36052380D02*
X102119047Y-36052380D01*
X102023809Y-36100000D01*
X101928571Y-36195238D01*
X101880952Y-36385714D01*
X101880952Y-36719047D01*
X101928571Y-36909523D01*
X102023809Y-37004761D01*
X102119047Y-37052380D01*
X102309523Y-37052380D01*
X102404761Y-37004761D01*
X102500000Y-36909523D01*
X102547619Y-36719047D01*
X102547619Y-36385714D01*
X102500000Y-36195238D01*
X102404761Y-36100000D01*
X102309523Y-36052380D01*
X101500000Y-36147619D02*
X101452380Y-36100000D01*
X101357142Y-36052380D01*
X101119047Y-36052380D01*
X101023809Y-36100000D01*
X100976190Y-36147619D01*
X100928571Y-36242857D01*
X100928571Y-36338095D01*
X100976190Y-36480952D01*
X101547619Y-37052380D01*
X100928571Y-37052380D01*
X100595238Y-36052380D02*
X99928571Y-36052380D01*
X100357142Y-37052380D01*
X111976190Y-42577380D02*
X111976190Y-41577380D01*
X111309523Y-41577380D02*
X111119047Y-41577380D01*
X111023809Y-41625000D01*
X110928571Y-41720238D01*
X110880952Y-41910714D01*
X110880952Y-42244047D01*
X110928571Y-42434523D01*
X111023809Y-42529761D01*
X111119047Y-42577380D01*
X111309523Y-42577380D01*
X111404761Y-42529761D01*
X111500000Y-42434523D01*
X111547619Y-42244047D01*
X111547619Y-41910714D01*
X111500000Y-41720238D01*
X111404761Y-41625000D01*
X111309523Y-41577380D01*
X110547619Y-41577380D02*
X109928571Y-41577380D01*
X110261904Y-41958333D01*
X110119047Y-41958333D01*
X110023809Y-42005952D01*
X109976190Y-42053571D01*
X109928571Y-42148809D01*
X109928571Y-42386904D01*
X109976190Y-42482142D01*
X110023809Y-42529761D01*
X110119047Y-42577380D01*
X110404761Y-42577380D01*
X110500000Y-42529761D01*
X110547619Y-42482142D01*
X109547619Y-41672619D02*
X109500000Y-41625000D01*
X109404761Y-41577380D01*
X109166666Y-41577380D01*
X109071428Y-41625000D01*
X109023809Y-41672619D01*
X108976190Y-41767857D01*
X108976190Y-41863095D01*
X109023809Y-42005952D01*
X109595238Y-42577380D01*
X108976190Y-42577380D01*
X111976190Y-44227380D02*
X111976190Y-43227380D01*
X111309523Y-43227380D02*
X111119047Y-43227380D01*
X111023809Y-43275000D01*
X110928571Y-43370238D01*
X110880952Y-43560714D01*
X110880952Y-43894047D01*
X110928571Y-44084523D01*
X111023809Y-44179761D01*
X111119047Y-44227380D01*
X111309523Y-44227380D01*
X111404761Y-44179761D01*
X111500000Y-44084523D01*
X111547619Y-43894047D01*
X111547619Y-43560714D01*
X111500000Y-43370238D01*
X111404761Y-43275000D01*
X111309523Y-43227380D01*
X110547619Y-43227380D02*
X109928571Y-43227380D01*
X110261904Y-43608333D01*
X110119047Y-43608333D01*
X110023809Y-43655952D01*
X109976190Y-43703571D01*
X109928571Y-43798809D01*
X109928571Y-44036904D01*
X109976190Y-44132142D01*
X110023809Y-44179761D01*
X110119047Y-44227380D01*
X110404761Y-44227380D01*
X110500000Y-44179761D01*
X110547619Y-44132142D01*
X109595238Y-43227380D02*
X108976190Y-43227380D01*
X109309523Y-43608333D01*
X109166666Y-43608333D01*
X109071428Y-43655952D01*
X109023809Y-43703571D01*
X108976190Y-43798809D01*
X108976190Y-44036904D01*
X109023809Y-44132142D01*
X109071428Y-44179761D01*
X109166666Y-44227380D01*
X109452380Y-44227380D01*
X109547619Y-44179761D01*
X109595238Y-44132142D01*
X111976190Y-45877380D02*
X111976190Y-44877380D01*
X111309523Y-44877380D02*
X111119047Y-44877380D01*
X111023809Y-44925000D01*
X110928571Y-45020238D01*
X110880952Y-45210714D01*
X110880952Y-45544047D01*
X110928571Y-45734523D01*
X111023809Y-45829761D01*
X111119047Y-45877380D01*
X111309523Y-45877380D01*
X111404761Y-45829761D01*
X111500000Y-45734523D01*
X111547619Y-45544047D01*
X111547619Y-45210714D01*
X111500000Y-45020238D01*
X111404761Y-44925000D01*
X111309523Y-44877380D01*
X110500000Y-44972619D02*
X110452380Y-44925000D01*
X110357142Y-44877380D01*
X110119047Y-44877380D01*
X110023809Y-44925000D01*
X109976190Y-44972619D01*
X109928571Y-45067857D01*
X109928571Y-45163095D01*
X109976190Y-45305952D01*
X110547619Y-45877380D01*
X109928571Y-45877380D01*
X109023809Y-44877380D02*
X109500000Y-44877380D01*
X109547619Y-45353571D01*
X109500000Y-45305952D01*
X109404761Y-45258333D01*
X109166666Y-45258333D01*
X109071428Y-45305952D01*
X109023809Y-45353571D01*
X108976190Y-45448809D01*
X108976190Y-45686904D01*
X109023809Y-45782142D01*
X109071428Y-45829761D01*
X109166666Y-45877380D01*
X109404761Y-45877380D01*
X109500000Y-45829761D01*
X109547619Y-45782142D01*
X111976190Y-47527380D02*
X111976190Y-46527380D01*
X111309523Y-46527380D02*
X111119047Y-46527380D01*
X111023809Y-46575000D01*
X110928571Y-46670238D01*
X110880952Y-46860714D01*
X110880952Y-47194047D01*
X110928571Y-47384523D01*
X111023809Y-47479761D01*
X111119047Y-47527380D01*
X111309523Y-47527380D01*
X111404761Y-47479761D01*
X111500000Y-47384523D01*
X111547619Y-47194047D01*
X111547619Y-46860714D01*
X111500000Y-46670238D01*
X111404761Y-46575000D01*
X111309523Y-46527380D01*
X110500000Y-46622619D02*
X110452380Y-46575000D01*
X110357142Y-46527380D01*
X110119047Y-46527380D01*
X110023809Y-46575000D01*
X109976190Y-46622619D01*
X109928571Y-46717857D01*
X109928571Y-46813095D01*
X109976190Y-46955952D01*
X110547619Y-47527380D01*
X109928571Y-47527380D01*
X109071428Y-46527380D02*
X109261904Y-46527380D01*
X109357142Y-46575000D01*
X109404761Y-46622619D01*
X109500000Y-46765476D01*
X109547619Y-46955952D01*
X109547619Y-47336904D01*
X109500000Y-47432142D01*
X109452380Y-47479761D01*
X109357142Y-47527380D01*
X109166666Y-47527380D01*
X109071428Y-47479761D01*
X109023809Y-47432142D01*
X108976190Y-47336904D01*
X108976190Y-47098809D01*
X109023809Y-47003571D01*
X109071428Y-46955952D01*
X109166666Y-46908333D01*
X109357142Y-46908333D01*
X109452380Y-46955952D01*
X109500000Y-47003571D01*
X109547619Y-47098809D01*
D11*
X110075000Y-65641428D02*
X110003571Y-65498571D01*
X110003571Y-65284285D01*
X110075000Y-65070000D01*
X110217857Y-64927142D01*
X110360714Y-64855714D01*
X110646428Y-64784285D01*
X110860714Y-64784285D01*
X111146428Y-64855714D01*
X111289285Y-64927142D01*
X111432142Y-65070000D01*
X111503571Y-65284285D01*
X111503571Y-65427142D01*
X111432142Y-65641428D01*
X111360714Y-65712857D01*
X110860714Y-65712857D01*
X110860714Y-65427142D01*
X111503571Y-66355714D02*
X110003571Y-66355714D01*
X111503571Y-67212857D01*
X110003571Y-67212857D01*
X111503571Y-67927142D02*
X110003571Y-67927142D01*
X110003571Y-68284285D01*
X110075000Y-68498571D01*
X110217857Y-68641428D01*
X110360714Y-68712857D01*
X110646428Y-68784285D01*
X110860714Y-68784285D01*
X111146428Y-68712857D01*
X111289285Y-68641428D01*
X111432142Y-68498571D01*
X111503571Y-68284285D01*
X111503571Y-67927142D01*
X113810714Y-64712857D02*
X113882142Y-64641428D01*
X113953571Y-64427142D01*
X113953571Y-64284285D01*
X113882142Y-64070000D01*
X113739285Y-63927142D01*
X113596428Y-63855714D01*
X113310714Y-63784285D01*
X113096428Y-63784285D01*
X112810714Y-63855714D01*
X112667857Y-63927142D01*
X112525000Y-64070000D01*
X112453571Y-64284285D01*
X112453571Y-64427142D01*
X112525000Y-64641428D01*
X112596428Y-64712857D01*
X113525000Y-65284285D02*
X113525000Y-65998571D01*
X113953571Y-65141428D02*
X112453571Y-65641428D01*
X113953571Y-66141428D01*
X113953571Y-66641428D02*
X112453571Y-66641428D01*
X113953571Y-67498571D01*
X112453571Y-67498571D01*
X113953571Y-68927142D02*
X113953571Y-68212857D01*
X112453571Y-68212857D01*
X116260714Y-64355714D02*
X116332142Y-64284285D01*
X116403571Y-64070000D01*
X116403571Y-63927142D01*
X116332142Y-63712857D01*
X116189285Y-63570000D01*
X116046428Y-63498571D01*
X115760714Y-63427142D01*
X115546428Y-63427142D01*
X115260714Y-63498571D01*
X115117857Y-63570000D01*
X114975000Y-63712857D01*
X114903571Y-63927142D01*
X114903571Y-64070000D01*
X114975000Y-64284285D01*
X115046428Y-64355714D01*
X115975000Y-64927142D02*
X115975000Y-65641428D01*
X116403571Y-64784285D02*
X114903571Y-65284285D01*
X116403571Y-65784285D01*
X116403571Y-66284285D02*
X114903571Y-66284285D01*
X116403571Y-67141428D01*
X114903571Y-67141428D01*
X116403571Y-67855714D02*
X114903571Y-67855714D01*
X115617857Y-67855714D02*
X115617857Y-68712857D01*
X116403571Y-68712857D02*
X114903571Y-68712857D01*
X118853571Y-66070000D02*
X118853571Y-65212857D01*
X118853571Y-65641428D02*
X117353571Y-65641428D01*
X117567857Y-65498571D01*
X117710714Y-65355714D01*
X117782142Y-65212857D01*
X117353571Y-67427142D02*
X117353571Y-66712857D01*
X118067857Y-66641428D01*
X117996428Y-66712857D01*
X117925000Y-66855714D01*
X117925000Y-67212857D01*
X117996428Y-67355714D01*
X118067857Y-67427142D01*
X118210714Y-67498571D01*
X118567857Y-67498571D01*
X118710714Y-67427142D01*
X118782142Y-67355714D01*
X118853571Y-67212857D01*
X118853571Y-66855714D01*
X118782142Y-66712857D01*
X118710714Y-66641428D01*
X117353571Y-67927142D02*
X118853571Y-68427142D01*
X117353571Y-68927142D01*
D10*
X107561904Y-41625000D02*
X107657142Y-41577380D01*
X107800000Y-41577380D01*
X107942857Y-41625000D01*
X108038095Y-41720238D01*
X108085714Y-41815476D01*
X108133333Y-42005952D01*
X108133333Y-42148809D01*
X108085714Y-42339285D01*
X108038095Y-42434523D01*
X107942857Y-42529761D01*
X107800000Y-42577380D01*
X107704761Y-42577380D01*
X107561904Y-42529761D01*
X107514285Y-42482142D01*
X107514285Y-42148809D01*
X107704761Y-42148809D01*
X107085714Y-42577380D02*
X107085714Y-41577380D01*
X106514285Y-42577380D01*
X106514285Y-41577380D01*
X106038095Y-42577380D02*
X106038095Y-41577380D01*
X105800000Y-41577380D01*
X105657142Y-41625000D01*
X105561904Y-41720238D01*
X105514285Y-41815476D01*
X105466666Y-42005952D01*
X105466666Y-42148809D01*
X105514285Y-42339285D01*
X105561904Y-42434523D01*
X105657142Y-42529761D01*
X105800000Y-42577380D01*
X106038095Y-42577380D01*
X107561904Y-43275000D02*
X107657142Y-43227380D01*
X107800000Y-43227380D01*
X107942857Y-43275000D01*
X108038095Y-43370238D01*
X108085714Y-43465476D01*
X108133333Y-43655952D01*
X108133333Y-43798809D01*
X108085714Y-43989285D01*
X108038095Y-44084523D01*
X107942857Y-44179761D01*
X107800000Y-44227380D01*
X107704761Y-44227380D01*
X107561904Y-44179761D01*
X107514285Y-44132142D01*
X107514285Y-43798809D01*
X107704761Y-43798809D01*
X107085714Y-44227380D02*
X107085714Y-43227380D01*
X106514285Y-44227380D01*
X106514285Y-43227380D01*
X106038095Y-44227380D02*
X106038095Y-43227380D01*
X105800000Y-43227380D01*
X105657142Y-43275000D01*
X105561904Y-43370238D01*
X105514285Y-43465476D01*
X105466666Y-43655952D01*
X105466666Y-43798809D01*
X105514285Y-43989285D01*
X105561904Y-44084523D01*
X105657142Y-44179761D01*
X105800000Y-44227380D01*
X106038095Y-44227380D01*
X106990476Y-44877380D02*
X107466666Y-44877380D01*
X107514285Y-45353571D01*
X107466666Y-45305952D01*
X107371428Y-45258333D01*
X107133333Y-45258333D01*
X107038095Y-45305952D01*
X106990476Y-45353571D01*
X106942857Y-45448809D01*
X106942857Y-45686904D01*
X106990476Y-45782142D01*
X107038095Y-45829761D01*
X107133333Y-45877380D01*
X107371428Y-45877380D01*
X107466666Y-45829761D01*
X107514285Y-45782142D01*
X106657142Y-44877380D02*
X106323809Y-45877380D01*
X105990476Y-44877380D01*
X108038095Y-46527380D02*
X107419047Y-46527380D01*
X107752380Y-46908333D01*
X107609523Y-46908333D01*
X107514285Y-46955952D01*
X107466666Y-47003571D01*
X107419047Y-47098809D01*
X107419047Y-47336904D01*
X107466666Y-47432142D01*
X107514285Y-47479761D01*
X107609523Y-47527380D01*
X107895238Y-47527380D01*
X107990476Y-47479761D01*
X108038095Y-47432142D01*
X107133333Y-46527380D02*
X106800000Y-47527380D01*
X106466666Y-46527380D01*
X106228571Y-46527380D02*
X105609523Y-46527380D01*
X105942857Y-46908333D01*
X105800000Y-46908333D01*
X105704761Y-46955952D01*
X105657142Y-47003571D01*
X105609523Y-47098809D01*
X105609523Y-47336904D01*
X105657142Y-47432142D01*
X105704761Y-47479761D01*
X105800000Y-47527380D01*
X106085714Y-47527380D01*
X106180952Y-47479761D01*
X106228571Y-47432142D01*
X102284595Y-53540380D02*
X102284595Y-52540380D01*
X101617928Y-52540380D02*
X101427452Y-52540380D01*
X101332214Y-52588000D01*
X101236976Y-52683238D01*
X101189357Y-52873714D01*
X101189357Y-53207047D01*
X101236976Y-53397523D01*
X101332214Y-53492761D01*
X101427452Y-53540380D01*
X101617928Y-53540380D01*
X101713166Y-53492761D01*
X101808404Y-53397523D01*
X101856023Y-53207047D01*
X101856023Y-52873714D01*
X101808404Y-52683238D01*
X101713166Y-52588000D01*
X101617928Y-52540380D01*
X100570309Y-52540380D02*
X100475071Y-52540380D01*
X100379833Y-52588000D01*
X100332214Y-52635619D01*
X100284595Y-52730857D01*
X100236976Y-52921333D01*
X100236976Y-53159428D01*
X100284595Y-53349904D01*
X100332214Y-53445142D01*
X100379833Y-53492761D01*
X100475071Y-53540380D01*
X100570309Y-53540380D01*
X100665547Y-53492761D01*
X100713166Y-53445142D01*
X100760785Y-53349904D01*
X100808404Y-53159428D01*
X100808404Y-52921333D01*
X100760785Y-52730857D01*
X100713166Y-52635619D01*
X100665547Y-52588000D01*
X100570309Y-52540380D01*
X101760785Y-54666571D02*
X101427452Y-54666571D01*
X101284595Y-55190380D02*
X101760785Y-55190380D01*
X101760785Y-54190380D01*
X101284595Y-54190380D01*
X100856023Y-55190380D02*
X100856023Y-54190380D01*
X100284595Y-55190380D01*
X100284595Y-54190380D01*
X101665547Y-55840380D02*
X101094119Y-55840380D01*
X101379833Y-56840380D02*
X101379833Y-55840380D01*
X100856023Y-55840380D02*
X100189357Y-56840380D01*
X100189357Y-55840380D02*
X100856023Y-56840380D01*
X101189357Y-58490380D02*
X101522690Y-58014190D01*
X101760785Y-58490380D02*
X101760785Y-57490380D01*
X101379833Y-57490380D01*
X101284595Y-57538000D01*
X101236976Y-57585619D01*
X101189357Y-57680857D01*
X101189357Y-57823714D01*
X101236976Y-57918952D01*
X101284595Y-57966571D01*
X101379833Y-58014190D01*
X101760785Y-58014190D01*
X100856023Y-57490380D02*
X100189357Y-58490380D01*
X100189357Y-57490380D02*
X100856023Y-58490380D01*
X102332214Y-59188000D02*
X102427452Y-59140380D01*
X102570309Y-59140380D01*
X102713166Y-59188000D01*
X102808404Y-59283238D01*
X102856023Y-59378476D01*
X102903642Y-59568952D01*
X102903642Y-59711809D01*
X102856023Y-59902285D01*
X102808404Y-59997523D01*
X102713166Y-60092761D01*
X102570309Y-60140380D01*
X102475071Y-60140380D01*
X102332214Y-60092761D01*
X102284595Y-60045142D01*
X102284595Y-59711809D01*
X102475071Y-59711809D01*
X101856023Y-60140380D02*
X101856023Y-59140380D01*
X101284595Y-60140380D01*
X101284595Y-59140380D01*
X100808404Y-60140380D02*
X100808404Y-59140380D01*
X100570309Y-59140380D01*
X100427452Y-59188000D01*
X100332214Y-59283238D01*
X100284595Y-59378476D01*
X100236976Y-59568952D01*
X100236976Y-59711809D01*
X100284595Y-59902285D01*
X100332214Y-59997523D01*
X100427452Y-60092761D01*
X100570309Y-60140380D01*
X100808404Y-60140380D01*
D11*
X101355714Y-64582904D02*
X100860476Y-64582904D01*
X101127142Y-64887666D01*
X101012857Y-64887666D01*
X100936666Y-64925761D01*
X100898571Y-64963857D01*
X100860476Y-65040047D01*
X100860476Y-65230523D01*
X100898571Y-65306714D01*
X100936666Y-65344809D01*
X101012857Y-65382904D01*
X101241428Y-65382904D01*
X101317619Y-65344809D01*
X101355714Y-65306714D01*
X100593809Y-64849571D02*
X100403333Y-65382904D01*
X100212857Y-64849571D01*
X99984285Y-64582904D02*
X99489047Y-64582904D01*
X99755714Y-64887666D01*
X99641428Y-64887666D01*
X99565238Y-64925761D01*
X99527142Y-64963857D01*
X99489047Y-65040047D01*
X99489047Y-65230523D01*
X99527142Y-65306714D01*
X99565238Y-65344809D01*
X99641428Y-65382904D01*
X99870000Y-65382904D01*
X99946190Y-65344809D01*
X99984285Y-65306714D01*
X98612857Y-64582904D02*
X98117619Y-64582904D01*
X98384285Y-64887666D01*
X98270000Y-64887666D01*
X98193809Y-64925761D01*
X98155714Y-64963857D01*
X98117619Y-65040047D01*
X98117619Y-65230523D01*
X98155714Y-65306714D01*
X98193809Y-65344809D01*
X98270000Y-65382904D01*
X98498571Y-65382904D01*
X98574761Y-65344809D01*
X98612857Y-65306714D01*
X97889047Y-64582904D02*
X97622380Y-65382904D01*
X97355714Y-64582904D01*
X97165238Y-64582904D02*
X96670000Y-64582904D01*
X96936666Y-64887666D01*
X96822380Y-64887666D01*
X96746190Y-64925761D01*
X96708095Y-64963857D01*
X96670000Y-65040047D01*
X96670000Y-65230523D01*
X96708095Y-65306714D01*
X96746190Y-65344809D01*
X96822380Y-65382904D01*
X97050952Y-65382904D01*
X97127142Y-65344809D01*
X97165238Y-65306714D01*
X100860476Y-66021000D02*
X100936666Y-65982904D01*
X101050952Y-65982904D01*
X101165238Y-66021000D01*
X101241428Y-66097190D01*
X101279523Y-66173380D01*
X101317619Y-66325761D01*
X101317619Y-66440047D01*
X101279523Y-66592428D01*
X101241428Y-66668619D01*
X101165238Y-66744809D01*
X101050952Y-66782904D01*
X100974761Y-66782904D01*
X100860476Y-66744809D01*
X100822380Y-66706714D01*
X100822380Y-66440047D01*
X100974761Y-66440047D01*
X100517619Y-66554333D02*
X100136666Y-66554333D01*
X100593809Y-66782904D02*
X100327142Y-65982904D01*
X100060476Y-66782904D01*
X99831904Y-66744809D02*
X99717619Y-66782904D01*
X99527142Y-66782904D01*
X99450952Y-66744809D01*
X99412857Y-66706714D01*
X99374761Y-66630523D01*
X99374761Y-66554333D01*
X99412857Y-66478142D01*
X99450952Y-66440047D01*
X99527142Y-66401952D01*
X99679523Y-66363857D01*
X99755714Y-66325761D01*
X99793809Y-66287666D01*
X99831904Y-66211476D01*
X99831904Y-66135285D01*
X99793809Y-66059095D01*
X99755714Y-66021000D01*
X99679523Y-65982904D01*
X99489047Y-65982904D01*
X99374761Y-66021000D01*
X98155714Y-66363857D02*
X98041428Y-66401952D01*
X98003333Y-66440047D01*
X97965238Y-66516238D01*
X97965238Y-66630523D01*
X98003333Y-66706714D01*
X98041428Y-66744809D01*
X98117619Y-66782904D01*
X98422380Y-66782904D01*
X98422380Y-65982904D01*
X98155714Y-65982904D01*
X98079523Y-66021000D01*
X98041428Y-66059095D01*
X98003333Y-66135285D01*
X98003333Y-66211476D01*
X98041428Y-66287666D01*
X98079523Y-66325761D01*
X98155714Y-66363857D01*
X98422380Y-66363857D01*
X97165238Y-66782904D02*
X97431904Y-66401952D01*
X97622380Y-66782904D02*
X97622380Y-65982904D01*
X97317619Y-65982904D01*
X97241428Y-66021000D01*
X97203333Y-66059095D01*
X97165238Y-66135285D01*
X97165238Y-66249571D01*
X97203333Y-66325761D01*
X97241428Y-66363857D01*
X97317619Y-66401952D01*
X97622380Y-66401952D01*
X96822380Y-66363857D02*
X96555714Y-66363857D01*
X96441428Y-66782904D02*
X96822380Y-66782904D01*
X96822380Y-65982904D01*
X96441428Y-65982904D01*
X100860476Y-67421000D02*
X100936666Y-67382904D01*
X101050952Y-67382904D01*
X101165238Y-67421000D01*
X101241428Y-67497190D01*
X101279523Y-67573380D01*
X101317619Y-67725761D01*
X101317619Y-67840047D01*
X101279523Y-67992428D01*
X101241428Y-68068619D01*
X101165238Y-68144809D01*
X101050952Y-68182904D01*
X100974761Y-68182904D01*
X100860476Y-68144809D01*
X100822380Y-68106714D01*
X100822380Y-67840047D01*
X100974761Y-67840047D01*
X100479523Y-68182904D02*
X100479523Y-67382904D01*
X100022380Y-68182904D01*
X100022380Y-67382904D01*
X99641428Y-68182904D02*
X99641428Y-67382904D01*
X99450952Y-67382904D01*
X99336666Y-67421000D01*
X99260476Y-67497190D01*
X99222380Y-67573380D01*
X99184285Y-67725761D01*
X99184285Y-67840047D01*
X99222380Y-67992428D01*
X99260476Y-68068619D01*
X99336666Y-68144809D01*
X99450952Y-68182904D01*
X99641428Y-68182904D01*
X97812857Y-67421000D02*
X97889047Y-67382904D01*
X98003333Y-67382904D01*
X98117619Y-67421000D01*
X98193809Y-67497190D01*
X98231904Y-67573380D01*
X98270000Y-67725761D01*
X98270000Y-67840047D01*
X98231904Y-67992428D01*
X98193809Y-68068619D01*
X98117619Y-68144809D01*
X98003333Y-68182904D01*
X97927142Y-68182904D01*
X97812857Y-68144809D01*
X97774761Y-68106714D01*
X97774761Y-67840047D01*
X97927142Y-67840047D01*
X97431904Y-68182904D02*
X97431904Y-67382904D01*
X96974761Y-68182904D01*
X96974761Y-67382904D01*
X96593809Y-68182904D02*
X96593809Y-67382904D01*
X96403333Y-67382904D01*
X96289047Y-67421000D01*
X96212857Y-67497190D01*
X96174761Y-67573380D01*
X96136666Y-67725761D01*
X96136666Y-67840047D01*
X96174761Y-67992428D01*
X96212857Y-68068619D01*
X96289047Y-68144809D01*
X96403333Y-68182904D01*
X96593809Y-68182904D01*
D10*
X107822380Y-70190476D02*
X108536666Y-70190476D01*
X108679523Y-70142857D01*
X108774761Y-70047619D01*
X108822380Y-69904761D01*
X108822380Y-69809523D01*
X108822380Y-71190476D02*
X108822380Y-70619047D01*
X108822380Y-70904761D02*
X107822380Y-70904761D01*
X107965238Y-70809523D01*
X108060476Y-70714285D01*
X108108095Y-70619047D01*
X108822380Y-72142857D02*
X108822380Y-71571428D01*
X108822380Y-71857142D02*
X107822380Y-71857142D01*
X107965238Y-71761904D01*
X108060476Y-71666666D01*
X108108095Y-71571428D01*
M02*
