G04 #@! TF.GenerationSoftware,KiCad,Pcbnew,(5.1.10)-1*
G04 #@! TF.CreationDate,2021-06-01T12:57:43+02:00*
G04 #@! TF.ProjectId,bobbycar,626f6262-7963-4617-922e-6b696361645f,rev?*
G04 #@! TF.SameCoordinates,Original*
G04 #@! TF.FileFunction,Legend,Top*
G04 #@! TF.FilePolarity,Positive*
%FSLAX46Y46*%
G04 Gerber Fmt 4.6, Leading zero omitted, Abs format (unit mm)*
G04 Created by KiCad (PCBNEW (5.1.10)-1) date 2021-06-01 12:57:43*
%MOMM*%
%LPD*%
G01*
G04 APERTURE LIST*
%ADD10C,0.120000*%
%ADD11C,0.100000*%
%ADD12C,0.150000*%
G04 APERTURE END LIST*
D10*
X102300000Y-44400000D02*
X99900000Y-44400000D01*
X102300000Y-39400000D02*
X102300000Y-44400000D01*
X99900000Y-39400000D02*
X102300000Y-39400000D01*
X99900000Y-44400000D02*
X99900000Y-39400000D01*
D11*
X126257714Y-35629809D02*
X126372000Y-35667904D01*
X126562476Y-35667904D01*
X126638666Y-35629809D01*
X126676761Y-35591714D01*
X126714857Y-35515523D01*
X126714857Y-35439333D01*
X126676761Y-35363142D01*
X126638666Y-35325047D01*
X126562476Y-35286952D01*
X126410095Y-35248857D01*
X126333904Y-35210761D01*
X126295809Y-35172666D01*
X126257714Y-35096476D01*
X126257714Y-35020285D01*
X126295809Y-34944095D01*
X126333904Y-34906000D01*
X126410095Y-34867904D01*
X126600571Y-34867904D01*
X126714857Y-34906000D01*
X127514857Y-35591714D02*
X127476761Y-35629809D01*
X127362476Y-35667904D01*
X127286285Y-35667904D01*
X127172000Y-35629809D01*
X127095809Y-35553619D01*
X127057714Y-35477428D01*
X127019619Y-35325047D01*
X127019619Y-35210761D01*
X127057714Y-35058380D01*
X127095809Y-34982190D01*
X127172000Y-34906000D01*
X127286285Y-34867904D01*
X127362476Y-34867904D01*
X127476761Y-34906000D01*
X127514857Y-34944095D01*
X128238666Y-35667904D02*
X127857714Y-35667904D01*
X127857714Y-34867904D01*
X129076761Y-35629809D02*
X129191047Y-35667904D01*
X129381523Y-35667904D01*
X129457714Y-35629809D01*
X129495809Y-35591714D01*
X129533904Y-35515523D01*
X129533904Y-35439333D01*
X129495809Y-35363142D01*
X129457714Y-35325047D01*
X129381523Y-35286952D01*
X129229142Y-35248857D01*
X129152952Y-35210761D01*
X129114857Y-35172666D01*
X129076761Y-35096476D01*
X129076761Y-35020285D01*
X129114857Y-34944095D01*
X129152952Y-34906000D01*
X129229142Y-34867904D01*
X129419619Y-34867904D01*
X129533904Y-34906000D01*
X129876761Y-35667904D02*
X129876761Y-34867904D01*
X130067238Y-34867904D01*
X130181523Y-34906000D01*
X130257714Y-34982190D01*
X130295809Y-35058380D01*
X130333904Y-35210761D01*
X130333904Y-35325047D01*
X130295809Y-35477428D01*
X130257714Y-35553619D01*
X130181523Y-35629809D01*
X130067238Y-35667904D01*
X129876761Y-35667904D01*
X130638666Y-35439333D02*
X131019619Y-35439333D01*
X130562476Y-35667904D02*
X130829142Y-34867904D01*
X131095809Y-35667904D01*
X131895809Y-34867904D02*
X132391047Y-34867904D01*
X132124380Y-35172666D01*
X132238666Y-35172666D01*
X132314857Y-35210761D01*
X132352952Y-35248857D01*
X132391047Y-35325047D01*
X132391047Y-35515523D01*
X132352952Y-35591714D01*
X132314857Y-35629809D01*
X132238666Y-35667904D01*
X132010095Y-35667904D01*
X131933904Y-35629809D01*
X131895809Y-35591714D01*
X132619619Y-34867904D02*
X132886285Y-35667904D01*
X133152952Y-34867904D01*
X133343428Y-34867904D02*
X133838666Y-34867904D01*
X133572000Y-35172666D01*
X133686285Y-35172666D01*
X133762476Y-35210761D01*
X133800571Y-35248857D01*
X133838666Y-35325047D01*
X133838666Y-35515523D01*
X133800571Y-35591714D01*
X133762476Y-35629809D01*
X133686285Y-35667904D01*
X133457714Y-35667904D01*
X133381523Y-35629809D01*
X133343428Y-35591714D01*
X135210095Y-34906000D02*
X135133904Y-34867904D01*
X135019619Y-34867904D01*
X134905333Y-34906000D01*
X134829142Y-34982190D01*
X134791047Y-35058380D01*
X134752952Y-35210761D01*
X134752952Y-35325047D01*
X134791047Y-35477428D01*
X134829142Y-35553619D01*
X134905333Y-35629809D01*
X135019619Y-35667904D01*
X135095809Y-35667904D01*
X135210095Y-35629809D01*
X135248190Y-35591714D01*
X135248190Y-35325047D01*
X135095809Y-35325047D01*
X135591047Y-35667904D02*
X135591047Y-34867904D01*
X136048190Y-35667904D01*
X136048190Y-34867904D01*
X136429142Y-35667904D02*
X136429142Y-34867904D01*
X136619619Y-34867904D01*
X136733904Y-34906000D01*
X136810095Y-34982190D01*
X136848190Y-35058380D01*
X136886285Y-35210761D01*
X136886285Y-35325047D01*
X136848190Y-35477428D01*
X136810095Y-35553619D01*
X136733904Y-35629809D01*
X136619619Y-35667904D01*
X136429142Y-35667904D01*
D12*
X125452380Y-55823809D02*
X125566666Y-55861904D01*
X125757142Y-55861904D01*
X125833333Y-55823809D01*
X125871428Y-55785714D01*
X125909523Y-55709523D01*
X125909523Y-55633333D01*
X125871428Y-55557142D01*
X125833333Y-55519047D01*
X125757142Y-55480952D01*
X125604761Y-55442857D01*
X125528571Y-55404761D01*
X125490476Y-55366666D01*
X125452380Y-55290476D01*
X125452380Y-55214285D01*
X125490476Y-55138095D01*
X125528571Y-55100000D01*
X125604761Y-55061904D01*
X125795238Y-55061904D01*
X125909523Y-55100000D01*
X126252380Y-55861904D02*
X126252380Y-55061904D01*
X126442857Y-55061904D01*
X126557142Y-55100000D01*
X126633333Y-55176190D01*
X126671428Y-55252380D01*
X126709523Y-55404761D01*
X126709523Y-55519047D01*
X126671428Y-55671428D01*
X126633333Y-55747619D01*
X126557142Y-55823809D01*
X126442857Y-55861904D01*
X126252380Y-55861904D01*
X127204761Y-55061904D02*
X127357142Y-55061904D01*
X127433333Y-55100000D01*
X127509523Y-55176190D01*
X127547619Y-55328571D01*
X127547619Y-55595238D01*
X127509523Y-55747619D01*
X127433333Y-55823809D01*
X127357142Y-55861904D01*
X127204761Y-55861904D01*
X127128571Y-55823809D01*
X127052380Y-55747619D01*
X127014285Y-55595238D01*
X127014285Y-55328571D01*
X127052380Y-55176190D01*
X127128571Y-55100000D01*
X127204761Y-55061904D01*
X123485714Y-55861904D02*
X123104761Y-55861904D01*
X123104761Y-55061904D01*
X123752380Y-55442857D02*
X124019047Y-55442857D01*
X124133333Y-55861904D02*
X123752380Y-55861904D01*
X123752380Y-55061904D01*
X124133333Y-55061904D01*
X124476190Y-55861904D02*
X124476190Y-55061904D01*
X124666666Y-55061904D01*
X124780952Y-55100000D01*
X124857142Y-55176190D01*
X124895238Y-55252380D01*
X124933333Y-55404761D01*
X124933333Y-55519047D01*
X124895238Y-55671428D01*
X124857142Y-55747619D01*
X124780952Y-55823809D01*
X124666666Y-55861904D01*
X124476190Y-55861904D01*
X119971428Y-55823809D02*
X120085714Y-55861904D01*
X120276190Y-55861904D01*
X120352380Y-55823809D01*
X120390476Y-55785714D01*
X120428571Y-55709523D01*
X120428571Y-55633333D01*
X120390476Y-55557142D01*
X120352380Y-55519047D01*
X120276190Y-55480952D01*
X120123809Y-55442857D01*
X120047619Y-55404761D01*
X120009523Y-55366666D01*
X119971428Y-55290476D01*
X119971428Y-55214285D01*
X120009523Y-55138095D01*
X120047619Y-55100000D01*
X120123809Y-55061904D01*
X120314285Y-55061904D01*
X120428571Y-55100000D01*
X121228571Y-55785714D02*
X121190476Y-55823809D01*
X121076190Y-55861904D01*
X121000000Y-55861904D01*
X120885714Y-55823809D01*
X120809523Y-55747619D01*
X120771428Y-55671428D01*
X120733333Y-55519047D01*
X120733333Y-55404761D01*
X120771428Y-55252380D01*
X120809523Y-55176190D01*
X120885714Y-55100000D01*
X121000000Y-55061904D01*
X121076190Y-55061904D01*
X121190476Y-55100000D01*
X121228571Y-55138095D01*
X121571428Y-55861904D02*
X121571428Y-55061904D01*
X122028571Y-55861904D02*
X121685714Y-55404761D01*
X122028571Y-55061904D02*
X121571428Y-55519047D01*
X117680952Y-55823809D02*
X117795238Y-55861904D01*
X117985714Y-55861904D01*
X118061904Y-55823809D01*
X118100000Y-55785714D01*
X118138095Y-55709523D01*
X118138095Y-55633333D01*
X118100000Y-55557142D01*
X118061904Y-55519047D01*
X117985714Y-55480952D01*
X117833333Y-55442857D01*
X117757142Y-55404761D01*
X117719047Y-55366666D01*
X117680952Y-55290476D01*
X117680952Y-55214285D01*
X117719047Y-55138095D01*
X117757142Y-55100000D01*
X117833333Y-55061904D01*
X118023809Y-55061904D01*
X118138095Y-55100000D01*
X118480952Y-55861904D02*
X118480952Y-55061904D01*
X118671428Y-55061904D01*
X118785714Y-55100000D01*
X118861904Y-55176190D01*
X118900000Y-55252380D01*
X118938095Y-55404761D01*
X118938095Y-55519047D01*
X118900000Y-55671428D01*
X118861904Y-55747619D01*
X118785714Y-55823809D01*
X118671428Y-55861904D01*
X118480952Y-55861904D01*
X119280952Y-55861904D02*
X119280952Y-55061904D01*
X115390476Y-55861904D02*
X115390476Y-55061904D01*
X115580952Y-55061904D01*
X115695238Y-55100000D01*
X115771428Y-55176190D01*
X115809523Y-55252380D01*
X115847619Y-55404761D01*
X115847619Y-55519047D01*
X115809523Y-55671428D01*
X115771428Y-55747619D01*
X115695238Y-55823809D01*
X115580952Y-55861904D01*
X115390476Y-55861904D01*
X116647619Y-55785714D02*
X116609523Y-55823809D01*
X116495238Y-55861904D01*
X116419047Y-55861904D01*
X116304761Y-55823809D01*
X116228571Y-55747619D01*
X116190476Y-55671428D01*
X116152380Y-55519047D01*
X116152380Y-55404761D01*
X116190476Y-55252380D01*
X116228571Y-55176190D01*
X116304761Y-55100000D01*
X116419047Y-55061904D01*
X116495238Y-55061904D01*
X116609523Y-55100000D01*
X116647619Y-55138095D01*
X113004761Y-55861904D02*
X112738095Y-55480952D01*
X112547619Y-55861904D02*
X112547619Y-55061904D01*
X112852380Y-55061904D01*
X112928571Y-55100000D01*
X112966666Y-55138095D01*
X113004761Y-55214285D01*
X113004761Y-55328571D01*
X112966666Y-55404761D01*
X112928571Y-55442857D01*
X112852380Y-55480952D01*
X112547619Y-55480952D01*
X113347619Y-55442857D02*
X113614285Y-55442857D01*
X113728571Y-55861904D02*
X113347619Y-55861904D01*
X113347619Y-55061904D01*
X113728571Y-55061904D01*
X114033333Y-55823809D02*
X114147619Y-55861904D01*
X114338095Y-55861904D01*
X114414285Y-55823809D01*
X114452380Y-55785714D01*
X114490476Y-55709523D01*
X114490476Y-55633333D01*
X114452380Y-55557142D01*
X114414285Y-55519047D01*
X114338095Y-55480952D01*
X114185714Y-55442857D01*
X114109523Y-55404761D01*
X114071428Y-55366666D01*
X114033333Y-55290476D01*
X114033333Y-55214285D01*
X114071428Y-55138095D01*
X114109523Y-55100000D01*
X114185714Y-55061904D01*
X114376190Y-55061904D01*
X114490476Y-55100000D01*
X110866666Y-55785714D02*
X110828571Y-55823809D01*
X110714285Y-55861904D01*
X110638095Y-55861904D01*
X110523809Y-55823809D01*
X110447619Y-55747619D01*
X110409523Y-55671428D01*
X110371428Y-55519047D01*
X110371428Y-55404761D01*
X110409523Y-55252380D01*
X110447619Y-55176190D01*
X110523809Y-55100000D01*
X110638095Y-55061904D01*
X110714285Y-55061904D01*
X110828571Y-55100000D01*
X110866666Y-55138095D01*
X111171428Y-55823809D02*
X111285714Y-55861904D01*
X111476190Y-55861904D01*
X111552380Y-55823809D01*
X111590476Y-55785714D01*
X111628571Y-55709523D01*
X111628571Y-55633333D01*
X111590476Y-55557142D01*
X111552380Y-55519047D01*
X111476190Y-55480952D01*
X111323809Y-55442857D01*
X111247619Y-55404761D01*
X111209523Y-55366666D01*
X111171428Y-55290476D01*
X111171428Y-55214285D01*
X111209523Y-55138095D01*
X111247619Y-55100000D01*
X111323809Y-55061904D01*
X111514285Y-55061904D01*
X111628571Y-55100000D01*
X107890476Y-55100000D02*
X107814285Y-55061904D01*
X107700000Y-55061904D01*
X107585714Y-55100000D01*
X107509523Y-55176190D01*
X107471428Y-55252380D01*
X107433333Y-55404761D01*
X107433333Y-55519047D01*
X107471428Y-55671428D01*
X107509523Y-55747619D01*
X107585714Y-55823809D01*
X107700000Y-55861904D01*
X107776190Y-55861904D01*
X107890476Y-55823809D01*
X107928571Y-55785714D01*
X107928571Y-55519047D01*
X107776190Y-55519047D01*
X108271428Y-55861904D02*
X108271428Y-55061904D01*
X108728571Y-55861904D01*
X108728571Y-55061904D01*
X109109523Y-55861904D02*
X109109523Y-55061904D01*
X109300000Y-55061904D01*
X109414285Y-55100000D01*
X109490476Y-55176190D01*
X109528571Y-55252380D01*
X109566666Y-55404761D01*
X109566666Y-55519047D01*
X109528571Y-55671428D01*
X109490476Y-55747619D01*
X109414285Y-55823809D01*
X109300000Y-55861904D01*
X109109523Y-55861904D01*
X105847619Y-55061904D02*
X105466666Y-55061904D01*
X105428571Y-55442857D01*
X105466666Y-55404761D01*
X105542857Y-55366666D01*
X105733333Y-55366666D01*
X105809523Y-55404761D01*
X105847619Y-55442857D01*
X105885714Y-55519047D01*
X105885714Y-55709523D01*
X105847619Y-55785714D01*
X105809523Y-55823809D01*
X105733333Y-55861904D01*
X105542857Y-55861904D01*
X105466666Y-55823809D01*
X105428571Y-55785714D01*
X106114285Y-55061904D02*
X106380952Y-55861904D01*
X106647619Y-55061904D01*
D10*
X116000000Y-50500000D02*
X116000000Y-54500000D01*
X123550000Y-65700000D02*
X120250000Y-65700000D01*
X120250000Y-65700000D02*
X120250000Y-71100000D01*
X123550000Y-65700000D02*
X123550000Y-71100000D01*
X106880000Y-34555000D02*
X106500000Y-34555000D01*
X106880000Y-28135000D02*
X106880000Y-34555000D01*
X125120000Y-28135000D02*
X125120000Y-34555000D01*
X106880000Y-28135000D02*
X125120000Y-28135000D01*
X125120000Y-53880000D02*
X124120000Y-53880000D01*
X125120000Y-53100000D02*
X125120000Y-53880000D01*
X106880000Y-53880000D02*
X107880000Y-53880000D01*
X106880000Y-53100000D02*
X106880000Y-53880000D01*
X129700000Y-66890000D02*
X127250000Y-66890000D01*
X127900000Y-70110000D02*
X129700000Y-70110000D01*
X125577500Y-69462742D02*
X125577500Y-69937258D01*
X126622500Y-69462742D02*
X126622500Y-69937258D01*
X128162742Y-71622500D02*
X128637258Y-71622500D01*
X128162742Y-70577500D02*
X128637258Y-70577500D01*
X132022500Y-70237258D02*
X132022500Y-69762742D01*
X130977500Y-70237258D02*
X130977500Y-69762742D01*
X130800000Y-63200000D02*
X130800000Y-68400000D01*
X136200000Y-63200000D02*
X136200000Y-68400000D01*
X130800000Y-68400000D02*
X136200000Y-68400000D01*
X130800000Y-63200000D02*
X136200000Y-63200000D01*
X130600000Y-66550000D02*
X125200000Y-66550000D01*
X130600000Y-63250000D02*
X125200000Y-63250000D01*
X130600000Y-66550000D02*
X130600000Y-63250000D01*
X136035000Y-70461252D02*
X136035000Y-69938748D01*
X134565000Y-70461252D02*
X134565000Y-69938748D01*
X125234420Y-67910000D02*
X125515580Y-67910000D01*
X125234420Y-66890000D02*
X125515580Y-66890000D01*
X134035000Y-70461252D02*
X134035000Y-69938748D01*
X132565000Y-70461252D02*
X132565000Y-69938748D01*
X113500000Y-64090000D02*
X111050000Y-64090000D01*
X111700000Y-67310000D02*
X113500000Y-67310000D01*
X114600000Y-60300000D02*
X114600000Y-65500000D01*
X120000000Y-60300000D02*
X120000000Y-65500000D01*
X114600000Y-65500000D02*
X120000000Y-65500000D01*
X114600000Y-60300000D02*
X120000000Y-60300000D01*
X114400000Y-63650000D02*
X109000000Y-63650000D01*
X114400000Y-60350000D02*
X109000000Y-60350000D01*
X114400000Y-63650000D02*
X114400000Y-60350000D01*
X109059420Y-65110000D02*
X109340580Y-65110000D01*
X109059420Y-64090000D02*
X109340580Y-64090000D01*
X117835000Y-67561252D02*
X117835000Y-67038748D01*
X116365000Y-67561252D02*
X116365000Y-67038748D01*
X126477500Y-60737258D02*
X126477500Y-60262742D01*
X127522500Y-60737258D02*
X127522500Y-60262742D01*
X123740000Y-58920000D02*
X123740000Y-59850000D01*
X123740000Y-62080000D02*
X123740000Y-61150000D01*
X123740000Y-62080000D02*
X125900000Y-62080000D01*
X123740000Y-58920000D02*
X125200000Y-58920000D01*
X130040000Y-49800000D02*
X130040000Y-51750000D01*
X130040000Y-49800000D02*
X130040000Y-47850000D01*
X135160000Y-49800000D02*
X135160000Y-51750000D01*
X135160000Y-49800000D02*
X135160000Y-46350000D01*
X134334420Y-45260000D02*
X134615580Y-45260000D01*
X134334420Y-44240000D02*
X134615580Y-44240000D01*
X102868000Y-36413221D02*
X102868000Y-36738779D01*
X103888000Y-36413221D02*
X103888000Y-36738779D01*
X131080742Y-44181500D02*
X131555258Y-44181500D01*
X131080742Y-45226500D02*
X131555258Y-45226500D01*
X131080742Y-42657500D02*
X131555258Y-42657500D01*
X131080742Y-43702500D02*
X131555258Y-43702500D01*
X100315500Y-65769258D02*
X100315500Y-65294742D01*
X101360500Y-65769258D02*
X101360500Y-65294742D01*
X101360500Y-68342742D02*
X101360500Y-68817258D01*
X100315500Y-68342742D02*
X100315500Y-68817258D01*
X95162000Y-66778000D02*
X96862000Y-66778000D01*
X96862000Y-66778000D02*
X96862000Y-64228000D01*
X95162000Y-66778000D02*
X95162000Y-64228000D01*
X96862000Y-67334000D02*
X95162000Y-67334000D01*
X95162000Y-67334000D02*
X95162000Y-69884000D01*
X96862000Y-67334000D02*
X96862000Y-69884000D01*
X129200000Y-57530000D02*
X129200000Y-60950000D01*
X129200000Y-60950000D02*
X136170000Y-60950000D01*
X136170000Y-60950000D02*
X136170000Y-57530000D01*
X136170000Y-57530000D02*
X129200000Y-57530000D01*
X132685000Y-60440000D02*
X129710000Y-60440000D01*
X129710000Y-60440000D02*
X129710000Y-59690000D01*
X129710000Y-59690000D02*
X129510000Y-59690000D01*
X129510000Y-59690000D02*
X129510000Y-58890000D01*
X129510000Y-58890000D02*
X129710000Y-58890000D01*
X129710000Y-58890000D02*
X129710000Y-58040000D01*
X129710000Y-58040000D02*
X132685000Y-58040000D01*
X132685000Y-60440000D02*
X135660000Y-60440000D01*
X135660000Y-60440000D02*
X135660000Y-59690000D01*
X135660000Y-59690000D02*
X135860000Y-59690000D01*
X135860000Y-59690000D02*
X135860000Y-58890000D01*
X135860000Y-58890000D02*
X135660000Y-58890000D01*
X135660000Y-58890000D02*
X135660000Y-58040000D01*
X135660000Y-58040000D02*
X132685000Y-58040000D01*
X128910000Y-61240000D02*
X128910000Y-60240000D01*
X128910000Y-61240000D02*
X129910000Y-61240000D01*
X130246000Y-56132000D02*
X130246000Y-54672000D01*
X133406000Y-56132000D02*
X133406000Y-53972000D01*
X133406000Y-56132000D02*
X132476000Y-56132000D01*
X130246000Y-56132000D02*
X131176000Y-56132000D01*
X95952000Y-35500000D02*
X97282000Y-35500000D01*
X95952000Y-36830000D02*
X95952000Y-35500000D01*
X95952000Y-38100000D02*
X98612000Y-38100000D01*
X98612000Y-38100000D02*
X98612000Y-48320000D01*
X95952000Y-38100000D02*
X95952000Y-48320000D01*
X95952000Y-48320000D02*
X98612000Y-48320000D01*
X133766000Y-36431000D02*
X129886000Y-36431000D01*
X128716000Y-40901000D02*
X129766000Y-40901000D01*
X128716000Y-38401000D02*
X128716000Y-40901000D01*
X133886000Y-40901000D02*
X133886000Y-41891000D01*
X134936000Y-40901000D02*
X133886000Y-40901000D01*
X134936000Y-38401000D02*
X134936000Y-40901000D01*
X129542000Y-51194580D02*
X129542000Y-50913420D01*
X128522000Y-51194580D02*
X128522000Y-50913420D01*
X109377500Y-66662742D02*
X109377500Y-67137258D01*
X110422500Y-66662742D02*
X110422500Y-67137258D01*
X135380000Y-55231420D02*
X135380000Y-55512580D01*
X136400000Y-55231420D02*
X136400000Y-55512580D01*
X115822500Y-67337258D02*
X115822500Y-66862742D01*
X114777500Y-67337258D02*
X114777500Y-66862742D01*
X109370000Y-72330000D02*
X109370000Y-71000000D01*
X110700000Y-72330000D02*
X109370000Y-72330000D01*
X111970000Y-72330000D02*
X111970000Y-69670000D01*
X111970000Y-69670000D02*
X119650000Y-69670000D01*
X111970000Y-72330000D02*
X119650000Y-72330000D01*
X119650000Y-72330000D02*
X119650000Y-69670000D01*
X119835000Y-67561252D02*
X119835000Y-67038748D01*
X118365000Y-67561252D02*
X118365000Y-67038748D01*
X111962742Y-68822500D02*
X112437258Y-68822500D01*
X111962742Y-67777500D02*
X112437258Y-67777500D01*
X134888500Y-55609258D02*
X134888500Y-55134742D01*
X133843500Y-55609258D02*
X133843500Y-55134742D01*
X128763500Y-55134742D02*
X128763500Y-55609258D01*
X129808500Y-55134742D02*
X129808500Y-55609258D01*
X126040000Y-53037221D02*
X126040000Y-53362779D01*
X127060000Y-53037221D02*
X127060000Y-53362779D01*
X101437221Y-58168000D02*
X101762779Y-58168000D01*
X101437221Y-57148000D02*
X101762779Y-57148000D01*
X101762779Y-54862000D02*
X101437221Y-54862000D01*
X101762779Y-55882000D02*
X101437221Y-55882000D01*
X98300000Y-65694779D02*
X98300000Y-65369221D01*
X97280000Y-65694779D02*
X97280000Y-65369221D01*
X97280000Y-68417221D02*
X97280000Y-68742779D01*
X98300000Y-68417221D02*
X98300000Y-68742779D01*
X99824000Y-68742779D02*
X99824000Y-68417221D01*
X98804000Y-68742779D02*
X98804000Y-68417221D01*
X98804000Y-65369221D02*
X98804000Y-65694779D01*
X99824000Y-65369221D02*
X99824000Y-65694779D01*
X104646000Y-36413221D02*
X104646000Y-36738779D01*
X105666000Y-36413221D02*
X105666000Y-36738779D01*
D12*
X103298666Y-38314380D02*
X103298666Y-39028666D01*
X103251047Y-39171523D01*
X103155809Y-39266761D01*
X103012952Y-39314380D01*
X102917714Y-39314380D01*
X103727238Y-38409619D02*
X103774857Y-38362000D01*
X103870095Y-38314380D01*
X104108190Y-38314380D01*
X104203428Y-38362000D01*
X104251047Y-38409619D01*
X104298666Y-38504857D01*
X104298666Y-38600095D01*
X104251047Y-38742952D01*
X103679619Y-39314380D01*
X104298666Y-39314380D01*
X121652380Y-65438095D02*
X120652380Y-65438095D01*
X120652380Y-65200000D01*
X120700000Y-65057142D01*
X120795238Y-64961904D01*
X120890476Y-64914285D01*
X121080952Y-64866666D01*
X121223809Y-64866666D01*
X121414285Y-64914285D01*
X121509523Y-64961904D01*
X121604761Y-65057142D01*
X121652380Y-65200000D01*
X121652380Y-65438095D01*
X120652380Y-64009523D02*
X120652380Y-64200000D01*
X120700000Y-64295238D01*
X120747619Y-64342857D01*
X120890476Y-64438095D01*
X121080952Y-64485714D01*
X121461904Y-64485714D01*
X121557142Y-64438095D01*
X121604761Y-64390476D01*
X121652380Y-64295238D01*
X121652380Y-64104761D01*
X121604761Y-64009523D01*
X121557142Y-63961904D01*
X121461904Y-63914285D01*
X121223809Y-63914285D01*
X121128571Y-63961904D01*
X121080952Y-64009523D01*
X121033333Y-64104761D01*
X121033333Y-64295238D01*
X121080952Y-64390476D01*
X121128571Y-64438095D01*
X121223809Y-64485714D01*
X109952380Y-51261904D02*
X110761904Y-51261904D01*
X110857142Y-51214285D01*
X110904761Y-51166666D01*
X110952380Y-51071428D01*
X110952380Y-50880952D01*
X110904761Y-50785714D01*
X110857142Y-50738095D01*
X110761904Y-50690476D01*
X109952380Y-50690476D01*
X110952380Y-49690476D02*
X110952380Y-50261904D01*
X110952380Y-49976190D02*
X109952380Y-49976190D01*
X110095238Y-50071428D01*
X110190476Y-50166666D01*
X110238095Y-50261904D01*
X126138095Y-62152380D02*
X126138095Y-62961904D01*
X126185714Y-63057142D01*
X126233333Y-63104761D01*
X126328571Y-63152380D01*
X126519047Y-63152380D01*
X126614285Y-63104761D01*
X126661904Y-63057142D01*
X126709523Y-62961904D01*
X126709523Y-62152380D01*
X127661904Y-62152380D02*
X127185714Y-62152380D01*
X127138095Y-62628571D01*
X127185714Y-62580952D01*
X127280952Y-62533333D01*
X127519047Y-62533333D01*
X127614285Y-62580952D01*
X127661904Y-62628571D01*
X127709523Y-62723809D01*
X127709523Y-62961904D01*
X127661904Y-63057142D01*
X127614285Y-63104761D01*
X127519047Y-63152380D01*
X127280952Y-63152380D01*
X127185714Y-63104761D01*
X127138095Y-63057142D01*
X124033333Y-71052380D02*
X123700000Y-70576190D01*
X123461904Y-71052380D02*
X123461904Y-70052380D01*
X123842857Y-70052380D01*
X123938095Y-70100000D01*
X123985714Y-70147619D01*
X124033333Y-70242857D01*
X124033333Y-70385714D01*
X123985714Y-70480952D01*
X123938095Y-70528571D01*
X123842857Y-70576190D01*
X123461904Y-70576190D01*
X124366666Y-70052380D02*
X125033333Y-70052380D01*
X124604761Y-71052380D01*
X125733333Y-72352380D02*
X125400000Y-71876190D01*
X125161904Y-72352380D02*
X125161904Y-71352380D01*
X125542857Y-71352380D01*
X125638095Y-71400000D01*
X125685714Y-71447619D01*
X125733333Y-71542857D01*
X125733333Y-71685714D01*
X125685714Y-71780952D01*
X125638095Y-71828571D01*
X125542857Y-71876190D01*
X125161904Y-71876190D01*
X126590476Y-71352380D02*
X126400000Y-71352380D01*
X126304761Y-71400000D01*
X126257142Y-71447619D01*
X126161904Y-71590476D01*
X126114285Y-71780952D01*
X126114285Y-72161904D01*
X126161904Y-72257142D01*
X126209523Y-72304761D01*
X126304761Y-72352380D01*
X126495238Y-72352380D01*
X126590476Y-72304761D01*
X126638095Y-72257142D01*
X126685714Y-72161904D01*
X126685714Y-71923809D01*
X126638095Y-71828571D01*
X126590476Y-71780952D01*
X126495238Y-71733333D01*
X126304761Y-71733333D01*
X126209523Y-71780952D01*
X126161904Y-71828571D01*
X126114285Y-71923809D01*
X129933333Y-72852380D02*
X129600000Y-72376190D01*
X129361904Y-72852380D02*
X129361904Y-71852380D01*
X129742857Y-71852380D01*
X129838095Y-71900000D01*
X129885714Y-71947619D01*
X129933333Y-72042857D01*
X129933333Y-72185714D01*
X129885714Y-72280952D01*
X129838095Y-72328571D01*
X129742857Y-72376190D01*
X129361904Y-72376190D01*
X130838095Y-71852380D02*
X130361904Y-71852380D01*
X130314285Y-72328571D01*
X130361904Y-72280952D01*
X130457142Y-72233333D01*
X130695238Y-72233333D01*
X130790476Y-72280952D01*
X130838095Y-72328571D01*
X130885714Y-72423809D01*
X130885714Y-72661904D01*
X130838095Y-72757142D01*
X130790476Y-72804761D01*
X130695238Y-72852380D01*
X130457142Y-72852380D01*
X130361904Y-72804761D01*
X130314285Y-72757142D01*
X133033333Y-62952380D02*
X132557142Y-62952380D01*
X132557142Y-61952380D01*
X133319047Y-62047619D02*
X133366666Y-62000000D01*
X133461904Y-61952380D01*
X133700000Y-61952380D01*
X133795238Y-62000000D01*
X133842857Y-62047619D01*
X133890476Y-62142857D01*
X133890476Y-62238095D01*
X133842857Y-62380952D01*
X133271428Y-62952380D01*
X133890476Y-62952380D01*
X121961904Y-65252380D02*
X121961904Y-64252380D01*
X122200000Y-64252380D01*
X122342857Y-64300000D01*
X122438095Y-64395238D01*
X122485714Y-64490476D01*
X122533333Y-64680952D01*
X122533333Y-64823809D01*
X122485714Y-65014285D01*
X122438095Y-65109523D01*
X122342857Y-65204761D01*
X122200000Y-65252380D01*
X121961904Y-65252380D01*
X123438095Y-64252380D02*
X122961904Y-64252380D01*
X122914285Y-64728571D01*
X122961904Y-64680952D01*
X123057142Y-64633333D01*
X123295238Y-64633333D01*
X123390476Y-64680952D01*
X123438095Y-64728571D01*
X123485714Y-64823809D01*
X123485714Y-65061904D01*
X123438095Y-65157142D01*
X123390476Y-65204761D01*
X123295238Y-65252380D01*
X123057142Y-65252380D01*
X122961904Y-65204761D01*
X122914285Y-65157142D01*
X134557142Y-72757142D02*
X134509523Y-72804761D01*
X134366666Y-72852380D01*
X134271428Y-72852380D01*
X134128571Y-72804761D01*
X134033333Y-72709523D01*
X133985714Y-72614285D01*
X133938095Y-72423809D01*
X133938095Y-72280952D01*
X133985714Y-72090476D01*
X134033333Y-71995238D01*
X134128571Y-71900000D01*
X134271428Y-71852380D01*
X134366666Y-71852380D01*
X134509523Y-71900000D01*
X134557142Y-71947619D01*
X135509523Y-72852380D02*
X134938095Y-72852380D01*
X135223809Y-72852380D02*
X135223809Y-71852380D01*
X135128571Y-71995238D01*
X135033333Y-72090476D01*
X134938095Y-72138095D01*
X136414285Y-71852380D02*
X135938095Y-71852380D01*
X135890476Y-72328571D01*
X135938095Y-72280952D01*
X136033333Y-72233333D01*
X136271428Y-72233333D01*
X136366666Y-72280952D01*
X136414285Y-72328571D01*
X136461904Y-72423809D01*
X136461904Y-72661904D01*
X136414285Y-72757142D01*
X136366666Y-72804761D01*
X136271428Y-72852380D01*
X136033333Y-72852380D01*
X135938095Y-72804761D01*
X135890476Y-72757142D01*
X122957142Y-69457142D02*
X122909523Y-69504761D01*
X122766666Y-69552380D01*
X122671428Y-69552380D01*
X122528571Y-69504761D01*
X122433333Y-69409523D01*
X122385714Y-69314285D01*
X122338095Y-69123809D01*
X122338095Y-68980952D01*
X122385714Y-68790476D01*
X122433333Y-68695238D01*
X122528571Y-68600000D01*
X122671428Y-68552380D01*
X122766666Y-68552380D01*
X122909523Y-68600000D01*
X122957142Y-68647619D01*
X123909523Y-69552380D02*
X123338095Y-69552380D01*
X123623809Y-69552380D02*
X123623809Y-68552380D01*
X123528571Y-68695238D01*
X123433333Y-68790476D01*
X123338095Y-68838095D01*
X124766666Y-68885714D02*
X124766666Y-69552380D01*
X124528571Y-68504761D02*
X124290476Y-69219047D01*
X124909523Y-69219047D01*
X131757142Y-72757142D02*
X131709523Y-72804761D01*
X131566666Y-72852380D01*
X131471428Y-72852380D01*
X131328571Y-72804761D01*
X131233333Y-72709523D01*
X131185714Y-72614285D01*
X131138095Y-72423809D01*
X131138095Y-72280952D01*
X131185714Y-72090476D01*
X131233333Y-71995238D01*
X131328571Y-71900000D01*
X131471428Y-71852380D01*
X131566666Y-71852380D01*
X131709523Y-71900000D01*
X131757142Y-71947619D01*
X132709523Y-72852380D02*
X132138095Y-72852380D01*
X132423809Y-72852380D02*
X132423809Y-71852380D01*
X132328571Y-71995238D01*
X132233333Y-72090476D01*
X132138095Y-72138095D01*
X133042857Y-71852380D02*
X133661904Y-71852380D01*
X133328571Y-72233333D01*
X133471428Y-72233333D01*
X133566666Y-72280952D01*
X133614285Y-72328571D01*
X133661904Y-72423809D01*
X133661904Y-72661904D01*
X133614285Y-72757142D01*
X133566666Y-72804761D01*
X133471428Y-72852380D01*
X133185714Y-72852380D01*
X133090476Y-72804761D01*
X133042857Y-72757142D01*
X112738095Y-59052380D02*
X112738095Y-59861904D01*
X112785714Y-59957142D01*
X112833333Y-60004761D01*
X112928571Y-60052380D01*
X113119047Y-60052380D01*
X113214285Y-60004761D01*
X113261904Y-59957142D01*
X113309523Y-59861904D01*
X113309523Y-59052380D01*
X113690476Y-59052380D02*
X114309523Y-59052380D01*
X113976190Y-59433333D01*
X114119047Y-59433333D01*
X114214285Y-59480952D01*
X114261904Y-59528571D01*
X114309523Y-59623809D01*
X114309523Y-59861904D01*
X114261904Y-59957142D01*
X114214285Y-60004761D01*
X114119047Y-60052380D01*
X113833333Y-60052380D01*
X113738095Y-60004761D01*
X113690476Y-59957142D01*
X115933333Y-60052380D02*
X115457142Y-60052380D01*
X115457142Y-59052380D01*
X116790476Y-60052380D02*
X116219047Y-60052380D01*
X116504761Y-60052380D02*
X116504761Y-59052380D01*
X116409523Y-59195238D01*
X116314285Y-59290476D01*
X116219047Y-59338095D01*
X110261904Y-60052380D02*
X110261904Y-59052380D01*
X110500000Y-59052380D01*
X110642857Y-59100000D01*
X110738095Y-59195238D01*
X110785714Y-59290476D01*
X110833333Y-59480952D01*
X110833333Y-59623809D01*
X110785714Y-59814285D01*
X110738095Y-59909523D01*
X110642857Y-60004761D01*
X110500000Y-60052380D01*
X110261904Y-60052380D01*
X111690476Y-59385714D02*
X111690476Y-60052380D01*
X111452380Y-59004761D02*
X111214285Y-59719047D01*
X111833333Y-59719047D01*
X105257142Y-62257142D02*
X105209523Y-62304761D01*
X105066666Y-62352380D01*
X104971428Y-62352380D01*
X104828571Y-62304761D01*
X104733333Y-62209523D01*
X104685714Y-62114285D01*
X104638095Y-61923809D01*
X104638095Y-61780952D01*
X104685714Y-61590476D01*
X104733333Y-61495238D01*
X104828571Y-61400000D01*
X104971428Y-61352380D01*
X105066666Y-61352380D01*
X105209523Y-61400000D01*
X105257142Y-61447619D01*
X106209523Y-62352380D02*
X105638095Y-62352380D01*
X105923809Y-62352380D02*
X105923809Y-61352380D01*
X105828571Y-61495238D01*
X105733333Y-61590476D01*
X105638095Y-61638095D01*
X106590476Y-61447619D02*
X106638095Y-61400000D01*
X106733333Y-61352380D01*
X106971428Y-61352380D01*
X107066666Y-61400000D01*
X107114285Y-61447619D01*
X107161904Y-61542857D01*
X107161904Y-61638095D01*
X107114285Y-61780952D01*
X106542857Y-62352380D01*
X107161904Y-62352380D01*
X121357142Y-62966666D02*
X121404761Y-63014285D01*
X121452380Y-63157142D01*
X121452380Y-63252380D01*
X121404761Y-63395238D01*
X121309523Y-63490476D01*
X121214285Y-63538095D01*
X121023809Y-63585714D01*
X120880952Y-63585714D01*
X120690476Y-63538095D01*
X120595238Y-63490476D01*
X120500000Y-63395238D01*
X120452380Y-63252380D01*
X120452380Y-63157142D01*
X120500000Y-63014285D01*
X120547619Y-62966666D01*
X120452380Y-62109523D02*
X120452380Y-62300000D01*
X120500000Y-62395238D01*
X120547619Y-62442857D01*
X120690476Y-62538095D01*
X120880952Y-62585714D01*
X121261904Y-62585714D01*
X121357142Y-62538095D01*
X121404761Y-62490476D01*
X121452380Y-62395238D01*
X121452380Y-62204761D01*
X121404761Y-62109523D01*
X121357142Y-62061904D01*
X121261904Y-62014285D01*
X121023809Y-62014285D01*
X120928571Y-62061904D01*
X120880952Y-62109523D01*
X120833333Y-62204761D01*
X120833333Y-62395238D01*
X120880952Y-62490476D01*
X120928571Y-62538095D01*
X121023809Y-62585714D01*
X128457142Y-62552380D02*
X128123809Y-62076190D01*
X127885714Y-62552380D02*
X127885714Y-61552380D01*
X128266666Y-61552380D01*
X128361904Y-61600000D01*
X128409523Y-61647619D01*
X128457142Y-61742857D01*
X128457142Y-61885714D01*
X128409523Y-61980952D01*
X128361904Y-62028571D01*
X128266666Y-62076190D01*
X127885714Y-62076190D01*
X129409523Y-62552380D02*
X128838095Y-62552380D01*
X129123809Y-62552380D02*
X129123809Y-61552380D01*
X129028571Y-61695238D01*
X128933333Y-61790476D01*
X128838095Y-61838095D01*
X129885714Y-62552380D02*
X130076190Y-62552380D01*
X130171428Y-62504761D01*
X130219047Y-62457142D01*
X130314285Y-62314285D01*
X130361904Y-62123809D01*
X130361904Y-61742857D01*
X130314285Y-61647619D01*
X130266666Y-61600000D01*
X130171428Y-61552380D01*
X129980952Y-61552380D01*
X129885714Y-61600000D01*
X129838095Y-61647619D01*
X129790476Y-61742857D01*
X129790476Y-61980952D01*
X129838095Y-62076190D01*
X129885714Y-62123809D01*
X129980952Y-62171428D01*
X130171428Y-62171428D01*
X130266666Y-62123809D01*
X130314285Y-62076190D01*
X130361904Y-61980952D01*
X121404761Y-60797619D02*
X121309523Y-60750000D01*
X121214285Y-60654761D01*
X121071428Y-60511904D01*
X120976190Y-60464285D01*
X120880952Y-60464285D01*
X120928571Y-60702380D02*
X120833333Y-60654761D01*
X120738095Y-60559523D01*
X120690476Y-60369047D01*
X120690476Y-60035714D01*
X120738095Y-59845238D01*
X120833333Y-59750000D01*
X120928571Y-59702380D01*
X121119047Y-59702380D01*
X121214285Y-59750000D01*
X121309523Y-59845238D01*
X121357142Y-60035714D01*
X121357142Y-60369047D01*
X121309523Y-60559523D01*
X121214285Y-60654761D01*
X121119047Y-60702380D01*
X120928571Y-60702380D01*
X122309523Y-60702380D02*
X121738095Y-60702380D01*
X122023809Y-60702380D02*
X122023809Y-59702380D01*
X121928571Y-59845238D01*
X121833333Y-59940476D01*
X121738095Y-59988095D01*
X135452380Y-50561904D02*
X136261904Y-50561904D01*
X136357142Y-50514285D01*
X136404761Y-50466666D01*
X136452380Y-50371428D01*
X136452380Y-50180952D01*
X136404761Y-50085714D01*
X136357142Y-50038095D01*
X136261904Y-49990476D01*
X135452380Y-49990476D01*
X135547619Y-49561904D02*
X135500000Y-49514285D01*
X135452380Y-49419047D01*
X135452380Y-49180952D01*
X135500000Y-49085714D01*
X135547619Y-49038095D01*
X135642857Y-48990476D01*
X135738095Y-48990476D01*
X135880952Y-49038095D01*
X136452380Y-49609523D01*
X136452380Y-48990476D01*
X134333333Y-43607142D02*
X134285714Y-43654761D01*
X134142857Y-43702380D01*
X134047619Y-43702380D01*
X133904761Y-43654761D01*
X133809523Y-43559523D01*
X133761904Y-43464285D01*
X133714285Y-43273809D01*
X133714285Y-43130952D01*
X133761904Y-42940476D01*
X133809523Y-42845238D01*
X133904761Y-42750000D01*
X134047619Y-42702380D01*
X134142857Y-42702380D01*
X134285714Y-42750000D01*
X134333333Y-42797619D01*
X135190476Y-43035714D02*
X135190476Y-43702380D01*
X134952380Y-42654761D02*
X134714285Y-43369047D01*
X135333333Y-43369047D01*
X103735142Y-33694666D02*
X103782761Y-33742285D01*
X103830380Y-33885142D01*
X103830380Y-33980380D01*
X103782761Y-34123238D01*
X103687523Y-34218476D01*
X103592285Y-34266095D01*
X103401809Y-34313714D01*
X103258952Y-34313714D01*
X103068476Y-34266095D01*
X102973238Y-34218476D01*
X102878000Y-34123238D01*
X102830380Y-33980380D01*
X102830380Y-33885142D01*
X102878000Y-33742285D01*
X102925619Y-33694666D01*
X102925619Y-33313714D02*
X102878000Y-33266095D01*
X102830380Y-33170857D01*
X102830380Y-32932761D01*
X102878000Y-32837523D01*
X102925619Y-32789904D01*
X103020857Y-32742285D01*
X103116095Y-32742285D01*
X103258952Y-32789904D01*
X103830380Y-33361333D01*
X103830380Y-32742285D01*
X127857142Y-45202380D02*
X127523809Y-44726190D01*
X127285714Y-45202380D02*
X127285714Y-44202380D01*
X127666666Y-44202380D01*
X127761904Y-44250000D01*
X127809523Y-44297619D01*
X127857142Y-44392857D01*
X127857142Y-44535714D01*
X127809523Y-44630952D01*
X127761904Y-44678571D01*
X127666666Y-44726190D01*
X127285714Y-44726190D01*
X128809523Y-45202380D02*
X128238095Y-45202380D01*
X128523809Y-45202380D02*
X128523809Y-44202380D01*
X128428571Y-44345238D01*
X128333333Y-44440476D01*
X128238095Y-44488095D01*
X129761904Y-45202380D02*
X129190476Y-45202380D01*
X129476190Y-45202380D02*
X129476190Y-44202380D01*
X129380952Y-44345238D01*
X129285714Y-44440476D01*
X129190476Y-44488095D01*
X127857142Y-43702380D02*
X127523809Y-43226190D01*
X127285714Y-43702380D02*
X127285714Y-42702380D01*
X127666666Y-42702380D01*
X127761904Y-42750000D01*
X127809523Y-42797619D01*
X127857142Y-42892857D01*
X127857142Y-43035714D01*
X127809523Y-43130952D01*
X127761904Y-43178571D01*
X127666666Y-43226190D01*
X127285714Y-43226190D01*
X128809523Y-43702380D02*
X128238095Y-43702380D01*
X128523809Y-43702380D02*
X128523809Y-42702380D01*
X128428571Y-42845238D01*
X128333333Y-42940476D01*
X128238095Y-42988095D01*
X129428571Y-42702380D02*
X129523809Y-42702380D01*
X129619047Y-42750000D01*
X129666666Y-42797619D01*
X129714285Y-42892857D01*
X129761904Y-43083333D01*
X129761904Y-43321428D01*
X129714285Y-43511904D01*
X129666666Y-43607142D01*
X129619047Y-43654761D01*
X129523809Y-43702380D01*
X129428571Y-43702380D01*
X129333333Y-43654761D01*
X129285714Y-43607142D01*
X129238095Y-43511904D01*
X129190476Y-43321428D01*
X129190476Y-43083333D01*
X129238095Y-42892857D01*
X129285714Y-42797619D01*
X129333333Y-42750000D01*
X129428571Y-42702380D01*
X102306380Y-61380666D02*
X101830190Y-61714000D01*
X102306380Y-61952095D02*
X101306380Y-61952095D01*
X101306380Y-61571142D01*
X101354000Y-61475904D01*
X101401619Y-61428285D01*
X101496857Y-61380666D01*
X101639714Y-61380666D01*
X101734952Y-61428285D01*
X101782571Y-61475904D01*
X101830190Y-61571142D01*
X101830190Y-61952095D01*
X102306380Y-60904476D02*
X102306380Y-60714000D01*
X102258761Y-60618761D01*
X102211142Y-60571142D01*
X102068285Y-60475904D01*
X101877809Y-60428285D01*
X101496857Y-60428285D01*
X101401619Y-60475904D01*
X101354000Y-60523523D01*
X101306380Y-60618761D01*
X101306380Y-60809238D01*
X101354000Y-60904476D01*
X101401619Y-60952095D01*
X101496857Y-60999714D01*
X101734952Y-60999714D01*
X101830190Y-60952095D01*
X101877809Y-60904476D01*
X101925428Y-60809238D01*
X101925428Y-60618761D01*
X101877809Y-60523523D01*
X101830190Y-60475904D01*
X101734952Y-60428285D01*
X101306333Y-72842380D02*
X100973000Y-72366190D01*
X100734904Y-72842380D02*
X100734904Y-71842380D01*
X101115857Y-71842380D01*
X101211095Y-71890000D01*
X101258714Y-71937619D01*
X101306333Y-72032857D01*
X101306333Y-72175714D01*
X101258714Y-72270952D01*
X101211095Y-72318571D01*
X101115857Y-72366190D01*
X100734904Y-72366190D01*
X101687285Y-71937619D02*
X101734904Y-71890000D01*
X101830142Y-71842380D01*
X102068238Y-71842380D01*
X102163476Y-71890000D01*
X102211095Y-71937619D01*
X102258714Y-72032857D01*
X102258714Y-72128095D01*
X102211095Y-72270952D01*
X101639666Y-72842380D01*
X102258714Y-72842380D01*
X96210380Y-63476095D02*
X95210380Y-63476095D01*
X95210380Y-63238000D01*
X95258000Y-63095142D01*
X95353238Y-62999904D01*
X95448476Y-62952285D01*
X95638952Y-62904666D01*
X95781809Y-62904666D01*
X95972285Y-62952285D01*
X96067523Y-62999904D01*
X96162761Y-63095142D01*
X96210380Y-63238000D01*
X96210380Y-63476095D01*
X95210380Y-62571333D02*
X95210380Y-61952285D01*
X95591333Y-62285619D01*
X95591333Y-62142761D01*
X95638952Y-62047523D01*
X95686571Y-61999904D01*
X95781809Y-61952285D01*
X96019904Y-61952285D01*
X96115142Y-61999904D01*
X96162761Y-62047523D01*
X96210380Y-62142761D01*
X96210380Y-62428476D01*
X96162761Y-62523714D01*
X96115142Y-62571333D01*
X95273904Y-71572380D02*
X95273904Y-70572380D01*
X95512000Y-70572380D01*
X95654857Y-70620000D01*
X95750095Y-70715238D01*
X95797714Y-70810476D01*
X95845333Y-71000952D01*
X95845333Y-71143809D01*
X95797714Y-71334285D01*
X95750095Y-71429523D01*
X95654857Y-71524761D01*
X95512000Y-71572380D01*
X95273904Y-71572380D01*
X96226285Y-70667619D02*
X96273904Y-70620000D01*
X96369142Y-70572380D01*
X96607238Y-70572380D01*
X96702476Y-70620000D01*
X96750095Y-70667619D01*
X96797714Y-70762857D01*
X96797714Y-70858095D01*
X96750095Y-71000952D01*
X96178666Y-71572380D01*
X96797714Y-71572380D01*
X134540666Y-61555380D02*
X134540666Y-62269666D01*
X134493047Y-62412523D01*
X134397809Y-62507761D01*
X134254952Y-62555380D01*
X134159714Y-62555380D01*
X135064476Y-62555380D02*
X135254952Y-62555380D01*
X135350190Y-62507761D01*
X135397809Y-62460142D01*
X135493047Y-62317285D01*
X135540666Y-62126809D01*
X135540666Y-61745857D01*
X135493047Y-61650619D01*
X135445428Y-61603000D01*
X135350190Y-61555380D01*
X135159714Y-61555380D01*
X135064476Y-61603000D01*
X135016857Y-61650619D01*
X134969238Y-61745857D01*
X134969238Y-61983952D01*
X135016857Y-62079190D01*
X135064476Y-62126809D01*
X135159714Y-62174428D01*
X135350190Y-62174428D01*
X135445428Y-62126809D01*
X135493047Y-62079190D01*
X135540666Y-61983952D01*
X104568666Y-53554380D02*
X104568666Y-54268666D01*
X104521047Y-54411523D01*
X104425809Y-54506761D01*
X104282952Y-54554380D01*
X104187714Y-54554380D01*
X105473428Y-53887714D02*
X105473428Y-54554380D01*
X105235333Y-53506761D02*
X104997238Y-54221047D01*
X105616285Y-54221047D01*
X131159523Y-55861904D02*
X131159523Y-55061904D01*
X131350000Y-55061904D01*
X131464285Y-55100000D01*
X131540476Y-55176190D01*
X131578571Y-55252380D01*
X131616666Y-55404761D01*
X131616666Y-55519047D01*
X131578571Y-55671428D01*
X131540476Y-55747619D01*
X131464285Y-55823809D01*
X131350000Y-55861904D01*
X131159523Y-55861904D01*
X132378571Y-55861904D02*
X131921428Y-55861904D01*
X132150000Y-55861904D02*
X132150000Y-55061904D01*
X132073809Y-55176190D01*
X131997619Y-55252380D01*
X131921428Y-55290476D01*
X96948666Y-33952380D02*
X96948666Y-34666666D01*
X96901047Y-34809523D01*
X96805809Y-34904761D01*
X96662952Y-34952380D01*
X96567714Y-34952380D01*
X97948666Y-34952380D02*
X97377238Y-34952380D01*
X97662952Y-34952380D02*
X97662952Y-33952380D01*
X97567714Y-34095238D01*
X97472476Y-34190476D01*
X97377238Y-34238095D01*
X126539666Y-36536380D02*
X126539666Y-37250666D01*
X126492047Y-37393523D01*
X126396809Y-37488761D01*
X126253952Y-37536380D01*
X126158714Y-37536380D01*
X127158714Y-36964952D02*
X127063476Y-36917333D01*
X127015857Y-36869714D01*
X126968238Y-36774476D01*
X126968238Y-36726857D01*
X127015857Y-36631619D01*
X127063476Y-36584000D01*
X127158714Y-36536380D01*
X127349190Y-36536380D01*
X127444428Y-36584000D01*
X127492047Y-36631619D01*
X127539666Y-36726857D01*
X127539666Y-36774476D01*
X127492047Y-36869714D01*
X127444428Y-36917333D01*
X127349190Y-36964952D01*
X127158714Y-36964952D01*
X127063476Y-37012571D01*
X127015857Y-37060190D01*
X126968238Y-37155428D01*
X126968238Y-37345904D01*
X127015857Y-37441142D01*
X127063476Y-37488761D01*
X127158714Y-37536380D01*
X127349190Y-37536380D01*
X127444428Y-37488761D01*
X127492047Y-37441142D01*
X127539666Y-37345904D01*
X127539666Y-37155428D01*
X127492047Y-37060190D01*
X127444428Y-37012571D01*
X127349190Y-36964952D01*
X128119142Y-50331666D02*
X128166761Y-50379285D01*
X128214380Y-50522142D01*
X128214380Y-50617380D01*
X128166761Y-50760238D01*
X128071523Y-50855476D01*
X127976285Y-50903095D01*
X127785809Y-50950714D01*
X127642952Y-50950714D01*
X127452476Y-50903095D01*
X127357238Y-50855476D01*
X127262000Y-50760238D01*
X127214380Y-50617380D01*
X127214380Y-50522142D01*
X127262000Y-50379285D01*
X127309619Y-50331666D01*
X128214380Y-49379285D02*
X128214380Y-49950714D01*
X128214380Y-49665000D02*
X127214380Y-49665000D01*
X127357238Y-49760238D01*
X127452476Y-49855476D01*
X127500095Y-49950714D01*
X108652380Y-67842857D02*
X108176190Y-68176190D01*
X108652380Y-68414285D02*
X107652380Y-68414285D01*
X107652380Y-68033333D01*
X107700000Y-67938095D01*
X107747619Y-67890476D01*
X107842857Y-67842857D01*
X107985714Y-67842857D01*
X108080952Y-67890476D01*
X108128571Y-67938095D01*
X108176190Y-68033333D01*
X108176190Y-68414285D01*
X108652380Y-66890476D02*
X108652380Y-67461904D01*
X108652380Y-67176190D02*
X107652380Y-67176190D01*
X107795238Y-67271428D01*
X107890476Y-67366666D01*
X107938095Y-67461904D01*
X108080952Y-66319047D02*
X108033333Y-66414285D01*
X107985714Y-66461904D01*
X107890476Y-66509523D01*
X107842857Y-66509523D01*
X107747619Y-66461904D01*
X107700000Y-66414285D01*
X107652380Y-66319047D01*
X107652380Y-66128571D01*
X107700000Y-66033333D01*
X107747619Y-65985714D01*
X107842857Y-65938095D01*
X107890476Y-65938095D01*
X107985714Y-65985714D01*
X108033333Y-66033333D01*
X108080952Y-66128571D01*
X108080952Y-66319047D01*
X108128571Y-66414285D01*
X108176190Y-66461904D01*
X108271428Y-66509523D01*
X108461904Y-66509523D01*
X108557142Y-66461904D01*
X108604761Y-66414285D01*
X108652380Y-66319047D01*
X108652380Y-66128571D01*
X108604761Y-66033333D01*
X108557142Y-65985714D01*
X108461904Y-65938095D01*
X108271428Y-65938095D01*
X108176190Y-65985714D01*
X108128571Y-66033333D01*
X108080952Y-66128571D01*
X136607142Y-52916666D02*
X136654761Y-52964285D01*
X136702380Y-53107142D01*
X136702380Y-53202380D01*
X136654761Y-53345238D01*
X136559523Y-53440476D01*
X136464285Y-53488095D01*
X136273809Y-53535714D01*
X136130952Y-53535714D01*
X135940476Y-53488095D01*
X135845238Y-53440476D01*
X135750000Y-53345238D01*
X135702380Y-53202380D01*
X135702380Y-53107142D01*
X135750000Y-52964285D01*
X135797619Y-52916666D01*
X135702380Y-52011904D02*
X135702380Y-52488095D01*
X136178571Y-52535714D01*
X136130952Y-52488095D01*
X136083333Y-52392857D01*
X136083333Y-52154761D01*
X136130952Y-52059523D01*
X136178571Y-52011904D01*
X136273809Y-51964285D01*
X136511904Y-51964285D01*
X136607142Y-52011904D01*
X136654761Y-52059523D01*
X136702380Y-52154761D01*
X136702380Y-52392857D01*
X136654761Y-52488095D01*
X136607142Y-52535714D01*
X114457142Y-69652380D02*
X114123809Y-69176190D01*
X113885714Y-69652380D02*
X113885714Y-68652380D01*
X114266666Y-68652380D01*
X114361904Y-68700000D01*
X114409523Y-68747619D01*
X114457142Y-68842857D01*
X114457142Y-68985714D01*
X114409523Y-69080952D01*
X114361904Y-69128571D01*
X114266666Y-69176190D01*
X113885714Y-69176190D01*
X115409523Y-69652380D02*
X114838095Y-69652380D01*
X115123809Y-69652380D02*
X115123809Y-68652380D01*
X115028571Y-68795238D01*
X114933333Y-68890476D01*
X114838095Y-68938095D01*
X115790476Y-68747619D02*
X115838095Y-68700000D01*
X115933333Y-68652380D01*
X116171428Y-68652380D01*
X116266666Y-68700000D01*
X116314285Y-68747619D01*
X116361904Y-68842857D01*
X116361904Y-68938095D01*
X116314285Y-69080952D01*
X115742857Y-69652380D01*
X116361904Y-69652380D01*
X122657142Y-63042857D02*
X122704761Y-63090476D01*
X122752380Y-63233333D01*
X122752380Y-63328571D01*
X122704761Y-63471428D01*
X122609523Y-63566666D01*
X122514285Y-63614285D01*
X122323809Y-63661904D01*
X122180952Y-63661904D01*
X121990476Y-63614285D01*
X121895238Y-63566666D01*
X121800000Y-63471428D01*
X121752380Y-63328571D01*
X121752380Y-63233333D01*
X121800000Y-63090476D01*
X121847619Y-63042857D01*
X122752380Y-62090476D02*
X122752380Y-62661904D01*
X122752380Y-62376190D02*
X121752380Y-62376190D01*
X121895238Y-62471428D01*
X121990476Y-62566666D01*
X122038095Y-62661904D01*
X121752380Y-61471428D02*
X121752380Y-61376190D01*
X121800000Y-61280952D01*
X121847619Y-61233333D01*
X121942857Y-61185714D01*
X122133333Y-61138095D01*
X122371428Y-61138095D01*
X122561904Y-61185714D01*
X122657142Y-61233333D01*
X122704761Y-61280952D01*
X122752380Y-61376190D01*
X122752380Y-61471428D01*
X122704761Y-61566666D01*
X122657142Y-61614285D01*
X122561904Y-61661904D01*
X122371428Y-61709523D01*
X122133333Y-61709523D01*
X121942857Y-61661904D01*
X121847619Y-61614285D01*
X121800000Y-61566666D01*
X121752380Y-61471428D01*
X108657142Y-69652380D02*
X108323809Y-69176190D01*
X108085714Y-69652380D02*
X108085714Y-68652380D01*
X108466666Y-68652380D01*
X108561904Y-68700000D01*
X108609523Y-68747619D01*
X108657142Y-68842857D01*
X108657142Y-68985714D01*
X108609523Y-69080952D01*
X108561904Y-69128571D01*
X108466666Y-69176190D01*
X108085714Y-69176190D01*
X109609523Y-69652380D02*
X109038095Y-69652380D01*
X109323809Y-69652380D02*
X109323809Y-68652380D01*
X109228571Y-68795238D01*
X109133333Y-68890476D01*
X109038095Y-68938095D01*
X109942857Y-68652380D02*
X110609523Y-68652380D01*
X110180952Y-69652380D01*
X128952380Y-58666666D02*
X128476190Y-59000000D01*
X128952380Y-59238095D02*
X127952380Y-59238095D01*
X127952380Y-58857142D01*
X128000000Y-58761904D01*
X128047619Y-58714285D01*
X128142857Y-58666666D01*
X128285714Y-58666666D01*
X128380952Y-58714285D01*
X128428571Y-58761904D01*
X128476190Y-58857142D01*
X128476190Y-59238095D01*
X127952380Y-58333333D02*
X127952380Y-57714285D01*
X128333333Y-58047619D01*
X128333333Y-57904761D01*
X128380952Y-57809523D01*
X128428571Y-57761904D01*
X128523809Y-57714285D01*
X128761904Y-57714285D01*
X128857142Y-57761904D01*
X128904761Y-57809523D01*
X128952380Y-57904761D01*
X128952380Y-58190476D01*
X128904761Y-58285714D01*
X128857142Y-58333333D01*
X127702380Y-58666666D02*
X127226190Y-59000000D01*
X127702380Y-59238095D02*
X126702380Y-59238095D01*
X126702380Y-58857142D01*
X126750000Y-58761904D01*
X126797619Y-58714285D01*
X126892857Y-58666666D01*
X127035714Y-58666666D01*
X127130952Y-58714285D01*
X127178571Y-58761904D01*
X127226190Y-58857142D01*
X127226190Y-59238095D01*
X127035714Y-57809523D02*
X127702380Y-57809523D01*
X126654761Y-58047619D02*
X127369047Y-58285714D01*
X127369047Y-57666666D01*
X128341380Y-53982857D02*
X127865190Y-54316190D01*
X128341380Y-54554285D02*
X127341380Y-54554285D01*
X127341380Y-54173333D01*
X127389000Y-54078095D01*
X127436619Y-54030476D01*
X127531857Y-53982857D01*
X127674714Y-53982857D01*
X127769952Y-54030476D01*
X127817571Y-54078095D01*
X127865190Y-54173333D01*
X127865190Y-54554285D01*
X128341380Y-53030476D02*
X128341380Y-53601904D01*
X128341380Y-53316190D02*
X127341380Y-53316190D01*
X127484238Y-53411428D01*
X127579476Y-53506666D01*
X127627095Y-53601904D01*
X127341380Y-52125714D02*
X127341380Y-52601904D01*
X127817571Y-52649523D01*
X127769952Y-52601904D01*
X127722333Y-52506666D01*
X127722333Y-52268571D01*
X127769952Y-52173333D01*
X127817571Y-52125714D01*
X127912809Y-52078095D01*
X128150904Y-52078095D01*
X128246142Y-52125714D01*
X128293761Y-52173333D01*
X128341380Y-52268571D01*
X128341380Y-52506666D01*
X128293761Y-52601904D01*
X128246142Y-52649523D01*
X99814142Y-59634380D02*
X99480809Y-59158190D01*
X99242714Y-59634380D02*
X99242714Y-58634380D01*
X99623666Y-58634380D01*
X99718904Y-58682000D01*
X99766523Y-58729619D01*
X99814142Y-58824857D01*
X99814142Y-58967714D01*
X99766523Y-59062952D01*
X99718904Y-59110571D01*
X99623666Y-59158190D01*
X99242714Y-59158190D01*
X100766523Y-59634380D02*
X100195095Y-59634380D01*
X100480809Y-59634380D02*
X100480809Y-58634380D01*
X100385571Y-58777238D01*
X100290333Y-58872476D01*
X100195095Y-58920095D01*
X101623666Y-58967714D02*
X101623666Y-59634380D01*
X101385571Y-58586761D02*
X101147476Y-59301047D01*
X101766523Y-59301047D01*
X100758666Y-38314380D02*
X100758666Y-39028666D01*
X100711047Y-39171523D01*
X100615809Y-39266761D01*
X100472952Y-39314380D01*
X100377714Y-39314380D01*
X101711047Y-38314380D02*
X101234857Y-38314380D01*
X101187238Y-38790571D01*
X101234857Y-38742952D01*
X101330095Y-38695333D01*
X101568190Y-38695333D01*
X101663428Y-38742952D01*
X101711047Y-38790571D01*
X101758666Y-38885809D01*
X101758666Y-39123904D01*
X101711047Y-39219142D01*
X101663428Y-39266761D01*
X101568190Y-39314380D01*
X101330095Y-39314380D01*
X101234857Y-39266761D01*
X101187238Y-39219142D01*
X102068333Y-54427380D02*
X101735000Y-53951190D01*
X101496904Y-54427380D02*
X101496904Y-53427380D01*
X101877857Y-53427380D01*
X101973095Y-53475000D01*
X102020714Y-53522619D01*
X102068333Y-53617857D01*
X102068333Y-53760714D01*
X102020714Y-53855952D01*
X101973095Y-53903571D01*
X101877857Y-53951190D01*
X101496904Y-53951190D01*
X103020714Y-54427380D02*
X102449285Y-54427380D01*
X102735000Y-54427380D02*
X102735000Y-53427380D01*
X102639761Y-53570238D01*
X102544523Y-53665476D01*
X102449285Y-53713095D01*
X103552666Y-71715380D02*
X103552666Y-72429666D01*
X103505047Y-72572523D01*
X103409809Y-72667761D01*
X103266952Y-72715380D01*
X103171714Y-72715380D01*
X103933619Y-71715380D02*
X104600285Y-71715380D01*
X104171714Y-72715380D01*
X105711666Y-71715380D02*
X105711666Y-72429666D01*
X105664047Y-72572523D01*
X105568809Y-72667761D01*
X105425952Y-72715380D01*
X105330714Y-72715380D01*
X106092619Y-71715380D02*
X106711666Y-71715380D01*
X106378333Y-72096333D01*
X106521190Y-72096333D01*
X106616428Y-72143952D01*
X106664047Y-72191571D01*
X106711666Y-72286809D01*
X106711666Y-72524904D01*
X106664047Y-72620142D01*
X106616428Y-72667761D01*
X106521190Y-72715380D01*
X106235476Y-72715380D01*
X106140238Y-72667761D01*
X106092619Y-72620142D01*
X99766380Y-62364857D02*
X99290190Y-62698190D01*
X99766380Y-62936285D02*
X98766380Y-62936285D01*
X98766380Y-62555333D01*
X98814000Y-62460095D01*
X98861619Y-62412476D01*
X98956857Y-62364857D01*
X99099714Y-62364857D01*
X99194952Y-62412476D01*
X99242571Y-62460095D01*
X99290190Y-62555333D01*
X99290190Y-62936285D01*
X99766380Y-61412476D02*
X99766380Y-61983904D01*
X99766380Y-61698190D02*
X98766380Y-61698190D01*
X98909238Y-61793428D01*
X99004476Y-61888666D01*
X99052095Y-61983904D01*
X98766380Y-60555333D02*
X98766380Y-60745809D01*
X98814000Y-60841047D01*
X98861619Y-60888666D01*
X99004476Y-60983904D01*
X99194952Y-61031523D01*
X99575904Y-61031523D01*
X99671142Y-60983904D01*
X99718761Y-60936285D01*
X99766380Y-60841047D01*
X99766380Y-60650571D01*
X99718761Y-60555333D01*
X99671142Y-60507714D01*
X99575904Y-60460095D01*
X99337809Y-60460095D01*
X99242571Y-60507714D01*
X99194952Y-60555333D01*
X99147333Y-60650571D01*
X99147333Y-60841047D01*
X99194952Y-60936285D01*
X99242571Y-60983904D01*
X99337809Y-61031523D01*
X97020142Y-72842380D02*
X96686809Y-72366190D01*
X96448714Y-72842380D02*
X96448714Y-71842380D01*
X96829666Y-71842380D01*
X96924904Y-71890000D01*
X96972523Y-71937619D01*
X97020142Y-72032857D01*
X97020142Y-72175714D01*
X96972523Y-72270952D01*
X96924904Y-72318571D01*
X96829666Y-72366190D01*
X96448714Y-72366190D01*
X97972523Y-72842380D02*
X97401095Y-72842380D01*
X97686809Y-72842380D02*
X97686809Y-71842380D01*
X97591571Y-71985238D01*
X97496333Y-72080476D01*
X97401095Y-72128095D01*
X98305857Y-71842380D02*
X98924904Y-71842380D01*
X98591571Y-72223333D01*
X98734428Y-72223333D01*
X98829666Y-72270952D01*
X98877285Y-72318571D01*
X98924904Y-72413809D01*
X98924904Y-72651904D01*
X98877285Y-72747142D01*
X98829666Y-72794761D01*
X98734428Y-72842380D01*
X98448714Y-72842380D01*
X98353476Y-72794761D01*
X98305857Y-72747142D01*
X99020333Y-71350142D02*
X98972714Y-71397761D01*
X98829857Y-71445380D01*
X98734619Y-71445380D01*
X98591761Y-71397761D01*
X98496523Y-71302523D01*
X98448904Y-71207285D01*
X98401285Y-71016809D01*
X98401285Y-70873952D01*
X98448904Y-70683476D01*
X98496523Y-70588238D01*
X98591761Y-70493000D01*
X98734619Y-70445380D01*
X98829857Y-70445380D01*
X98972714Y-70493000D01*
X99020333Y-70540619D01*
X99353666Y-70445380D02*
X100020333Y-70445380D01*
X99591761Y-71445380D01*
X100941142Y-61761666D02*
X100988761Y-61809285D01*
X101036380Y-61952142D01*
X101036380Y-62047380D01*
X100988761Y-62190238D01*
X100893523Y-62285476D01*
X100798285Y-62333095D01*
X100607809Y-62380714D01*
X100464952Y-62380714D01*
X100274476Y-62333095D01*
X100179238Y-62285476D01*
X100084000Y-62190238D01*
X100036380Y-62047380D01*
X100036380Y-61952142D01*
X100084000Y-61809285D01*
X100131619Y-61761666D01*
X100464952Y-61190238D02*
X100417333Y-61285476D01*
X100369714Y-61333095D01*
X100274476Y-61380714D01*
X100226857Y-61380714D01*
X100131619Y-61333095D01*
X100084000Y-61285476D01*
X100036380Y-61190238D01*
X100036380Y-60999761D01*
X100084000Y-60904523D01*
X100131619Y-60856904D01*
X100226857Y-60809285D01*
X100274476Y-60809285D01*
X100369714Y-60856904D01*
X100417333Y-60904523D01*
X100464952Y-60999761D01*
X100464952Y-61190238D01*
X100512571Y-61285476D01*
X100560190Y-61333095D01*
X100655428Y-61380714D01*
X100845904Y-61380714D01*
X100941142Y-61333095D01*
X100988761Y-61285476D01*
X101036380Y-61190238D01*
X101036380Y-60999761D01*
X100988761Y-60904523D01*
X100941142Y-60856904D01*
X100845904Y-60809285D01*
X100655428Y-60809285D01*
X100560190Y-60856904D01*
X100512571Y-60904523D01*
X100464952Y-60999761D01*
X99139476Y-49744380D02*
X99139476Y-50458666D01*
X99091857Y-50601523D01*
X98996619Y-50696761D01*
X98853761Y-50744380D01*
X98758523Y-50744380D01*
X100139476Y-50744380D02*
X99568047Y-50744380D01*
X99853761Y-50744380D02*
X99853761Y-49744380D01*
X99758523Y-49887238D01*
X99663285Y-49982476D01*
X99568047Y-50030095D01*
X100520428Y-49839619D02*
X100568047Y-49792000D01*
X100663285Y-49744380D01*
X100901380Y-49744380D01*
X100996619Y-49792000D01*
X101044238Y-49839619D01*
X101091857Y-49934857D01*
X101091857Y-50030095D01*
X101044238Y-50172952D01*
X100472809Y-50744380D01*
X101091857Y-50744380D01*
X105513142Y-33694666D02*
X105560761Y-33742285D01*
X105608380Y-33885142D01*
X105608380Y-33980380D01*
X105560761Y-34123238D01*
X105465523Y-34218476D01*
X105370285Y-34266095D01*
X105179809Y-34313714D01*
X105036952Y-34313714D01*
X104846476Y-34266095D01*
X104751238Y-34218476D01*
X104656000Y-34123238D01*
X104608380Y-33980380D01*
X104608380Y-33885142D01*
X104656000Y-33742285D01*
X104703619Y-33694666D01*
X104608380Y-33361333D02*
X104608380Y-32742285D01*
X104989333Y-33075619D01*
X104989333Y-32932761D01*
X105036952Y-32837523D01*
X105084571Y-32789904D01*
X105179809Y-32742285D01*
X105417904Y-32742285D01*
X105513142Y-32789904D01*
X105560761Y-32837523D01*
X105608380Y-32932761D01*
X105608380Y-33218476D01*
X105560761Y-33313714D01*
X105513142Y-33361333D01*
M02*
